<svg width="51" height="53" viewBox="0 0 51 53" fill="none" xmlns="http://www.w3.org/2000/svg">
<circle cx="48.4069" cy="50.3498" r="2.06626" transform="rotate(180 48.4069 50.3498)" fill="#F37435"/>
<circle cx="40.8307" cy="50.3498" r="2.06626" transform="rotate(180 40.8307 50.3498)" fill="#F37435"/>
<circle cx="33.2541" cy="50.3498" r="2.06626" transform="rotate(180 33.2541 50.3498)" fill="#F37435"/>
<circle cx="25.6779" cy="50.3498" r="2.06626" transform="rotate(180 25.6779 50.3498)" fill="#F37435"/>
<circle cx="18.1017" cy="50.3498" r="2.06626" transform="rotate(180 18.1017 50.3498)" fill="#F37435"/>
<circle cx="10.5255" cy="50.3498" r="2.06626" transform="rotate(180 10.5255 50.3498)" fill="#F37435"/>
<circle cx="2.94936" cy="50.3498" r="2.06626" transform="rotate(180 2.94936 50.3498)" fill="#F37435"/>
<circle cx="48.4069" cy="43.463" r="2.06626" transform="rotate(180 48.4069 43.463)" fill="#F37435"/>
<circle cx="40.8307" cy="43.463" r="2.06626" transform="rotate(180 40.8307 43.463)" fill="#F37435"/>
<circle cx="33.2541" cy="43.463" r="2.06626" transform="rotate(180 33.2541 43.463)" fill="#F37435"/>
<circle cx="25.6779" cy="43.463" r="2.06626" transform="rotate(180 25.6779 43.463)" fill="#F37435"/>
<circle cx="18.1017" cy="43.463" r="2.06626" transform="rotate(180 18.1017 43.463)" fill="#F37435"/>
<circle cx="10.5255" cy="43.463" r="2.06626" transform="rotate(180 10.5255 43.463)" fill="#F37435"/>
<circle cx="2.94936" cy="43.463" r="2.06626" transform="rotate(180 2.94936 43.463)" fill="#F37435"/>
<circle cx="48.4069" cy="36.5744" r="2.06626" transform="rotate(180 48.4069 36.5744)" fill="#F37435"/>
<circle cx="40.8307" cy="36.5744" r="2.06626" transform="rotate(180 40.8307 36.5744)" fill="#F37435"/>
<circle cx="33.2541" cy="36.5744" r="2.06626" transform="rotate(180 33.2541 36.5744)" fill="#F37435"/>
<circle cx="25.6779" cy="36.5744" r="2.06626" transform="rotate(180 25.6779 36.5744)" fill="#F37435"/>
<circle cx="18.1017" cy="36.5744" r="2.06626" transform="rotate(180 18.1017 36.5744)" fill="#F37435"/>
<circle cx="10.5255" cy="36.5744" r="2.06626" transform="rotate(180 10.5255 36.5744)" fill="#F37435"/>
<circle cx="2.94936" cy="36.5744" r="2.06626" transform="rotate(180 2.94936 36.5744)" fill="#F37435"/>
<circle cx="48.4069" cy="29.6876" r="2.06626" transform="rotate(180 48.4069 29.6876)" fill="#F37435"/>
<circle cx="40.8307" cy="29.6876" r="2.06626" transform="rotate(180 40.8307 29.6876)" fill="#F37435"/>
<circle cx="33.2541" cy="29.6876" r="2.06626" transform="rotate(180 33.2541 29.6876)" fill="#F37435"/>
<circle cx="25.6779" cy="29.6876" r="2.06626" transform="rotate(180 25.6779 29.6876)" fill="#F37435"/>
<circle cx="18.1017" cy="29.6876" r="2.06626" transform="rotate(180 18.1017 29.6876)" fill="#F37435"/>
<circle cx="10.5255" cy="29.6876" r="2.06626" transform="rotate(180 10.5255 29.6876)" fill="#F37435"/>
<circle cx="2.94936" cy="29.6876" r="2.06626" transform="rotate(180 2.94936 29.6876)" fill="#F37435"/>
<circle cx="48.4069" cy="22.799" r="2.06626" transform="rotate(180 48.4069 22.799)" fill="#F37435"/>
<circle cx="40.8307" cy="22.799" r="2.06626" transform="rotate(180 40.8307 22.799)" fill="#F37435"/>
<circle cx="33.2541" cy="22.799" r="2.06626" transform="rotate(180 33.2541 22.799)" fill="#F37435"/>
<circle cx="25.6779" cy="22.799" r="2.06626" transform="rotate(180 25.6779 22.799)" fill="#F37435"/>
<circle cx="18.1017" cy="22.799" r="2.06626" transform="rotate(180 18.1017 22.799)" fill="#F37435"/>
<circle cx="10.5255" cy="22.799" r="2.06626" transform="rotate(180 10.5255 22.799)" fill="#F37435"/>
<circle cx="2.94936" cy="22.799" r="2.06626" transform="rotate(180 2.94936 22.799)" fill="#F37435"/>
<circle cx="48.4069" cy="15.9123" r="2.06626" transform="rotate(180 48.4069 15.9123)" fill="#F37435"/>
<circle cx="40.8307" cy="15.9123" r="2.06626" transform="rotate(180 40.8307 15.9123)" fill="#F37435"/>
<circle cx="33.2541" cy="15.9123" r="2.06626" transform="rotate(180 33.2541 15.9123)" fill="#F37435"/>
<circle cx="25.6779" cy="15.9123" r="2.06626" transform="rotate(180 25.6779 15.9123)" fill="#F37435"/>
<circle cx="18.1017" cy="15.9123" r="2.06626" transform="rotate(180 18.1017 15.9123)" fill="#F37435"/>
<circle cx="10.5255" cy="15.9123" r="2.06626" transform="rotate(180 10.5255 15.9123)" fill="#F37435"/>
<circle cx="2.94936" cy="15.9123" r="2.06626" transform="rotate(180 2.94936 15.9123)" fill="#F37435"/>
<circle cx="48.4069" cy="9.02358" r="2.06626" transform="rotate(180 48.4069 9.02358)" fill="#F37435"/>
<circle cx="40.8307" cy="9.02358" r="2.06626" transform="rotate(180 40.8307 9.02358)" fill="#F37435"/>
<circle cx="33.2541" cy="9.02358" r="2.06626" transform="rotate(180 33.2541 9.02358)" fill="#F37435"/>
<circle cx="25.6779" cy="9.02358" r="2.06626" transform="rotate(180 25.6779 9.02358)" fill="#F37435"/>
<circle cx="18.1017" cy="9.02358" r="2.06626" transform="rotate(180 18.1017 9.02358)" fill="#F37435"/>
<circle cx="10.5255" cy="9.02358" r="2.06626" transform="rotate(180 10.5255 9.02358)" fill="#F37435"/>
<circle cx="2.94936" cy="9.02358" r="2.06626" transform="rotate(180 2.94936 9.02358)" fill="#F37435"/>
<circle cx="48.4069" cy="2.13686" r="2.06626" transform="rotate(180 48.4069 2.13686)" fill="#F37435"/>
<circle cx="40.8307" cy="2.13686" r="2.06626" transform="rotate(180 40.8307 2.13686)" fill="#F37435"/>
<circle cx="33.2541" cy="2.13686" r="2.06626" transform="rotate(180 33.2541 2.13686)" fill="#F37435"/>
<circle cx="25.6779" cy="2.13686" r="2.06626" transform="rotate(180 25.6779 2.13686)" fill="#F37435"/>
<circle cx="18.1017" cy="2.13686" r="2.06626" transform="rotate(180 18.1017 2.13686)" fill="#F37435"/>
<circle cx="10.5255" cy="2.13686" r="2.06626" transform="rotate(180 10.5255 2.13686)" fill="#F37435"/>
<circle cx="2.94888" cy="2.13686" r="2.06626" transform="rotate(180 2.94888 2.13686)" fill="#F37435"/>
</svg>
