<svg width="190" height="185" viewBox="0 0 190 185" fill="none" xmlns="http://www.w3.org/2000/svg">
<g clip-path="url(#clip0_2158_33189)">
<path d="M104.163 184.18C149.698 184.18 186.612 179.568 186.612 173.88C186.612 168.191 149.698 163.579 104.163 163.579C58.6273 163.579 21.7134 168.191 21.7134 173.88C21.7134 179.568 58.6273 184.18 104.163 184.18Z" fill="#006D8D" fill-opacity="0.47"/>
<path d="M101.208 179.874C100.269 180.177 73.5044 179.83 72.4945 179.169C72.1065 178.925 71.9295 175.025 71.8515 170.307C71.8511 170.257 71.8507 170.208 71.8507 170.159C71.8323 169.187 71.8198 168.185 71.8181 167.17C71.8177 167.031 71.8173 166.891 71.8131 166.752C71.7755 159.942 71.8836 152.877 71.8836 152.877L89.7881 153.056L89.2493 166.801L89.2289 167.345L89.1208 170.19L89.1104 170.483C89.1104 170.483 99.2957 175.195 100.33 176.038C101.356 176.877 102.147 179.575 101.208 179.874Z" fill="#EB9481"/>
<path d="M93.1654 172.312C93.0956 172.291 93.0589 172.271 93.0547 172.25C93.0547 172.25 93.0956 172.27 93.1654 172.312Z" fill="#F37435"/>
<path d="M101.207 179.872C100.269 180.175 73.5047 179.832 72.4932 179.169C72.1493 178.952 71.969 175.846 71.8789 171.845C76.7838 172.868 95.7899 176.71 96.3098 175.085C96.5147 174.447 94.8889 173.342 93.8616 172.721C96.6704 174.058 99.7821 175.589 100.33 176.039C101.354 176.877 102.148 179.573 101.207 179.872Z" fill="#263238"/>
<path d="M66.3896 75.8344C66.3896 75.8344 70.4082 121.027 71.0634 124.477C71.2148 125.262 71.3091 129.534 71.3705 135.024C71.5099 147.004 71.4268 168.611 71.4268 168.611H90.2935C90.2935 168.611 89.7335 131.174 88.8985 124.284C88.0635 117.39 82.7242 75.8344 82.7242 75.8344H66.3896Z" fill="#455A64"/>
<path d="M89.4404 165.326C86.4964 165.264 87.3423 165.241 84.3979 165.212C82.9569 165.198 73.4885 165.116 72.1423 165.339C72.1127 165.344 72.1127 165.394 72.1423 165.399C73.4889 165.621 82.9569 165.539 84.3979 165.525C87.3423 165.497 86.4964 165.473 89.4404 165.412C89.4959 165.41 89.4959 165.327 89.4404 165.326Z" fill="#263238"/>
<path d="M75.0112 143.925C74.9903 141.191 74.9695 138.456 74.9498 135.722C74.9306 133.074 74.9344 130.423 74.8084 127.776C74.553 122.419 73.4655 117.151 72.6919 111.854C71.9178 106.554 71.2726 101.235 70.6884 95.9115C70.0329 89.9386 69.4537 83.9572 68.8394 77.9801C68.8352 77.9396 68.7718 77.9405 68.7756 77.9817C69.6644 88.6542 70.6563 99.3242 72.1352 109.933C72.5028 112.572 72.9059 115.205 73.3408 117.834C73.781 120.495 74.2187 123.156 74.4286 125.847C74.6344 128.481 74.6677 131.124 74.6949 133.764C74.7228 136.497 74.75 139.23 74.7767 141.962C74.8355 148.033 74.8943 157.376 74.9532 163.446C74.9544 163.563 75.1364 163.559 75.1355 163.441C75.0938 158.027 75.0525 149.339 75.0112 143.925Z" fill="#263238"/>
<path d="M62.4121 75.8344C62.4121 75.8344 70.4083 121.027 71.0635 124.477C71.2149 125.262 71.3092 129.534 71.3706 135.024L71.3748 135.04L80.3658 75.8344H62.4121Z" fill="#263238"/>
<path d="M53.3181 181.327C52.3666 181.066 30.1674 166.121 29.685 165.016C29.4943 164.599 31.4848 161.24 34.0069 157.25C34.0336 157.209 34.0603 157.167 34.087 157.126C34.6049 156.303 35.1436 155.458 35.6986 154.608C35.775 154.491 35.8514 154.374 35.924 154.255C39.6266 148.538 43.5909 142.687 43.5909 142.687L58.47 152.64L50.4825 163.843L50.1671 164.287L48.5167 166.608L48.3473 166.847C48.3473 166.847 54.2837 176.366 54.6868 177.637C55.0849 178.901 54.2678 181.592 53.3181 181.327Z" fill="#EB9481"/>
<path d="M51.0936 170.792C51.0519 170.74 51.0332 170.707 51.0378 170.691C51.0378 170.691 51.0565 170.724 51.0936 170.792Z" fill="#F37435"/>
<path d="M53.317 181.327C52.3647 181.068 30.1684 166.122 29.6856 165.015C29.522 164.661 30.95 162.154 32.9413 158.949C36.0339 161.883 50.9806 175.948 52.3155 174.809C52.5959 174.567 52.4791 173.911 52.2241 173.193C53.4434 175.241 54.5238 177.118 54.6891 177.636C55.0838 178.902 54.2672 181.59 53.317 181.327Z" fill="#263238"/>
<path d="M50.268 166.864L34.1709 155.272C34.1709 155.272 54.9931 127.499 55.0882 124.958C55.2301 121.181 57.0424 105.594 58.5643 92.9737C58.5643 92.9737 55.6787 86.1409 61.0793 75.8191H82.7406C82.7406 75.8191 81.2889 85.6409 78.8039 91.8687C78.8039 91.8687 76.911 92.455 73.9879 94.0654C73.9879 94.0654 72.1981 124.869 71.6594 128.338C70.2322 137.521 50.268 166.864 50.268 166.864Z" fill="#455A64"/>
<path d="M51.3865 162.95C49.0108 161.212 49.7173 161.677 47.3224 159.965C46.1503 159.127 38.4441 153.63 37.2139 153.04C37.1868 153.027 37.158 153.068 37.1793 153.089C38.1536 154.043 45.955 159.406 47.1426 160.221C49.57 161.886 48.8915 161.382 51.3372 163.02C51.3831 163.051 51.4311 162.983 51.3865 162.95Z" fill="#263238"/>
<path d="M62.0939 85.03C62.5854 84.9041 63.1117 84.864 63.6128 84.7844C64.018 84.7202 64.4215 84.6489 64.8222 84.5609C65.5762 84.3949 66.3394 84.1431 66.9562 83.6631C67.651 83.1227 68.004 82.3029 68.3399 81.5152C68.5394 81.0473 68.7451 80.5828 68.9538 80.1187C69.0548 79.8939 69.157 79.6696 69.2613 79.4461C69.3832 79.1846 69.5509 78.9123 69.6402 78.6388C69.6532 78.5992 69.7174 78.6204 69.7016 78.6571C69.6223 78.8393 69.5889 79.047 69.5309 79.2384C69.4625 79.464 69.3982 79.6904 69.3285 79.9156C69.2037 80.3172 69.0823 80.7204 68.9496 81.1195C68.7113 81.8363 68.4993 82.5881 68.0942 83.2328C67.3526 84.4124 66.0273 84.8874 64.702 85.055C64.3222 85.103 63.9392 85.1301 63.5569 85.1518C63.0837 85.1784 62.5804 85.221 62.1089 85.1626C62.0367 85.1534 62.0163 85.05 62.0939 85.03Z" fill="#263238"/>
<path d="M79.6255 91.4418C77.6734 92.1131 75.7889 93.0664 73.9875 94.0655C73.9169 94.1047 73.9633 94.2143 74.04 94.1814C75.9391 93.3662 77.8762 92.5864 79.7282 91.6678C79.8734 91.5961 79.7753 91.3901 79.6255 91.4418Z" fill="#263238"/>
<path d="M80.2295 78.4186C80.2245 78.3531 80.1089 78.3385 80.1097 78.409C80.1252 80.662 79.9812 82.6448 79.7913 84.7502C79.7029 85.728 78.9158 91.1306 77.2195 90.7365C76.9358 90.6706 76.7906 90.3913 76.7459 89.9634C76.6925 89.4493 76.8861 88.8179 76.9712 88.3067C77.1594 87.1758 77.3105 86.0412 77.4077 84.8986C77.5893 82.7662 77.598 80.6332 77.3389 78.5074C77.3305 78.4378 77.2295 78.4428 77.2295 78.5137C77.2321 81.466 77.1549 84.4124 76.7129 87.3364C76.5005 88.7416 75.7924 90.857 77.2629 91.0735C78.7614 91.2936 79.73 87.75 79.9128 86.7805C80.4231 84.0755 80.4431 81.1553 80.2295 78.4186Z" fill="#263238"/>
<path d="M77.264 90.8823C77.1108 91.2451 76.9873 91.6225 76.8826 92.0024C76.8012 92.2972 76.6902 92.6153 76.724 92.9231C76.7307 92.9827 76.8096 92.9885 76.8413 92.9481C77.0403 92.6962 77.1242 92.3514 77.2356 92.0524C77.3646 91.7059 77.501 91.3623 77.6204 91.0124C77.6992 90.7793 77.3587 90.6584 77.264 90.8823Z" fill="#263238"/>
<path d="M62.6669 77.2736C62.0781 78.4712 61.612 79.7255 61.2256 80.9999C60.8429 82.2763 60.5596 83.5806 60.3793 84.8975C60.1848 86.2135 60.1581 87.5479 60.2203 88.8701C60.2754 90.1979 60.5587 91.4993 60.9147 92.7707L60.9226 92.7982L60.9205 92.8236C60.4398 98.217 59.9207 103.607 59.3778 108.995C58.8282 114.383 58.3112 119.769 57.5667 125.145C57.5262 125.479 57.4474 125.824 57.3873 126.163C57.2888 126.52 57.1227 126.833 56.9625 127.132C56.6382 127.737 56.2802 128.313 55.9238 128.892C55.2032 130.042 54.4575 131.174 53.7034 132.299C52.1936 134.549 50.6367 136.766 49.0777 138.981C45.9609 143.411 42.7669 147.786 39.5542 152.147C42.6793 147.723 45.7698 143.276 48.8515 138.824C50.3884 136.595 51.9065 134.353 53.4059 132.101C54.1545 130.975 54.8948 129.842 55.6071 128.695C55.9589 128.12 56.3136 127.544 56.6266 126.954C56.7843 126.658 56.9349 126.364 57.0146 126.07C57.0701 125.742 57.1432 125.425 57.1832 125.087C57.5563 122.415 57.8363 119.719 58.1317 117.03L58.9939 108.956L60.6501 92.7982L60.6555 92.8512C60.3071 91.5522 60.0354 90.2275 59.9945 88.8827C59.942 87.5429 59.9979 86.196 60.2211 84.875C60.4294 83.5527 60.7402 82.2483 61.1496 80.9765C61.5623 79.7059 62.0543 78.4591 62.6669 77.2736Z" fill="#263238"/>
<path d="M80.7326 37.1419C79.6568 35.1274 77.2215 34.1208 74.6417 34.004C72.062 33.8873 68.833 34.3672 67.5974 38.2202C66.5946 41.3485 66.8663 44.699 65.9775 48.2439C65.0882 51.7887 58.7654 59.4318 64.4727 65.2655C69.5996 70.5062 82.7356 69.9662 85.0307 62.2544C86.8501 56.1413 80.5602 48.5808 80.3512 45.9371C80.1421 43.2938 81.9118 39.3499 80.7326 37.1419Z" fill="#263238"/>
<path d="M80.9821 40.8979C80.594 42.6789 80.4208 44.5328 80.781 46.3892C80.8686 46.8513 81.0393 47.32 81.2563 47.7457C81.4678 48.1752 81.7019 48.5868 81.9344 48.9971C82.4097 49.8123 82.8795 50.6217 83.3069 51.4482C84.1682 53.094 84.8467 54.8179 85.1805 56.6047C85.5152 58.3894 85.478 60.2263 85.0983 62.0114C85.3992 61.147 85.5778 60.2425 85.67 59.3268C85.7472 58.4094 85.7159 57.48 85.5932 56.558C85.352 54.7082 84.6635 52.9197 83.7993 51.2397C83.3611 50.4003 82.875 49.5847 82.3938 48.7761C81.9114 47.963 81.4123 47.1832 81.2029 46.3134C80.9713 45.4431 80.8928 44.5316 80.8778 43.6254C80.8436 42.7164 80.8974 41.8065 80.9821 40.8979Z" fill="#263238"/>
<path d="M67.1142 40.9343C66.7173 42.7512 66.3935 44.5817 65.9019 46.3619C65.647 47.2488 65.3757 48.1299 65.0102 48.9731C64.6576 49.8079 64.1714 50.6131 63.7266 51.4388C63.2843 52.2665 62.859 53.1076 62.4868 53.9724C62.1292 54.8435 61.8229 55.7388 61.6318 56.6628C61.4557 57.5906 61.3981 58.5418 61.5016 59.4863C61.6514 60.4295 61.9956 61.3398 62.5198 62.1508C62.1054 61.2877 61.8262 60.3895 61.7695 59.47C61.7236 58.553 61.8254 57.6411 62.0453 56.7533C62.5114 54.9811 63.3247 53.3102 64.219 51.6756C64.6505 50.85 65.1379 50.0448 65.4955 49.1545C65.8419 48.275 66.1135 47.3735 66.3117 46.4599C66.7232 44.6351 66.9414 42.7862 67.1142 40.9343Z" fill="#263238"/>
<path d="M79.5894 54.9626C87.1662 55.717 95.8067 54.4648 97.8752 52.2764C100.27 49.7427 104.259 39.3863 105.163 32.1319C105.36 30.5453 93.2725 29.9665 93.252 31.092C93.1819 34.9466 89.4242 45.2292 89.1529 45.7801C88.8416 46.4114 83.1264 48.6306 79.2263 49.6956C73.0771 51.3753 74.2209 54.4285 79.5894 54.9626Z" fill="#EB9481"/>
<path d="M95.589 54.4041L88.611 45.897C88.611 45.897 83.0869 47.716 77.5394 50.0603C71.9919 52.405 73.6464 54.7139 81.1757 55.5362C88.7049 56.3581 95.589 54.4041 95.589 54.4041Z" fill="#F37435"/>
<path d="M80.4266 53.9164C80.0761 53.9164 79.7923 54.2 79.7923 54.5503C79.7923 54.9047 80.0761 55.1841 80.4266 55.1841C80.7813 55.1841 81.0609 54.9047 81.0609 54.5503C81.0609 54.2 80.7813 53.9164 80.4266 53.9164ZM80.4266 55.059C80.147 55.059 79.9175 54.8338 79.9175 54.5503C79.9175 54.2709 80.147 54.0415 80.4266 54.0415C80.7104 54.0415 80.9357 54.2709 80.9357 54.5503C80.9357 54.8338 80.7104 55.059 80.4266 55.059ZM86.1436 53.9832C85.793 53.9832 85.5051 54.2709 85.5051 54.6212C85.5051 54.9714 85.793 55.2508 86.1436 55.2508C86.4941 55.2508 86.7737 54.9714 86.7737 54.6212C86.7737 54.2709 86.4941 53.9832 86.1436 53.9832ZM86.1436 55.1299C85.8598 55.1299 85.6303 54.9005 85.6303 54.6212C85.6303 54.3376 85.8598 54.1083 86.1436 54.1083C86.4231 54.1083 86.6527 54.3376 86.6527 54.6212C86.6527 54.9005 86.4231 55.1299 86.1436 55.1299ZM83.3769 51.4854C83.0264 51.4854 82.7384 51.7689 82.7384 52.1192C82.7384 52.4695 83.0264 52.753 83.3769 52.753C83.7274 52.753 84.007 52.4695 84.007 52.1192C84.007 51.7689 83.7274 51.4854 83.3769 51.4854ZM83.3769 52.6279C83.0931 52.6279 82.8636 52.4028 82.8636 52.1192C82.8636 51.8398 83.0931 51.6063 83.3769 51.6063C83.6565 51.6063 83.886 51.8398 83.886 52.1192C83.886 52.4028 83.6565 52.6279 83.3769 52.6279ZM88.6557 51.3603C88.3051 51.3603 88.0214 51.648 88.0214 51.9983C88.0214 52.3486 88.3051 52.6279 88.6557 52.6279C89.0062 52.6279 89.29 52.3486 89.29 51.9983C89.29 51.648 89.0062 51.3603 88.6557 51.3603ZM88.6557 52.507C88.3761 52.507 88.1424 52.2777 88.1424 51.9983C88.1424 51.7147 88.3761 51.4854 88.6557 51.4854C88.9394 51.4854 89.1648 51.7147 89.1648 51.9983C89.1648 52.2777 88.9394 52.507 88.6557 52.507ZM91.9732 53.6954C91.6226 53.6954 91.3347 53.9832 91.3347 54.3334C91.3347 54.6837 91.6226 54.9631 91.9732 54.9631C92.3237 54.9631 92.6074 54.6837 92.6074 54.3334C92.6074 53.9832 92.3237 53.6954 91.9732 53.6954ZM91.9732 54.8422C91.6894 54.8422 91.4599 54.6128 91.4599 54.3334C91.4599 54.0499 91.6894 53.8205 91.9732 53.8205C92.2569 53.8205 92.4823 54.0499 92.4823 54.3334C92.4823 54.6128 92.2569 54.8422 91.9732 54.8422ZM93.8802 52.3235C93.7926 52.4361 93.6549 52.507 93.4963 52.507C93.2167 52.507 92.983 52.2777 92.983 51.9983C92.983 51.8065 93.0915 51.6355 93.2501 51.5521L93.1666 51.4562C92.983 51.5688 92.862 51.7689 92.862 51.9983C92.862 52.3486 93.1458 52.6279 93.4963 52.6279C93.6799 52.6279 93.8468 52.5487 93.9637 52.4236L93.8802 52.3235ZM85.889 48.7666C85.5385 48.7666 85.2505 49.0502 85.2505 49.4004C85.2505 49.7507 85.5385 50.0343 85.889 50.0343C86.2395 50.0343 86.5191 49.7507 86.5191 49.4004C86.5191 49.0502 86.2395 48.7666 85.889 48.7666ZM85.889 49.9092C85.6052 49.9092 85.3757 49.684 85.3757 49.4004C85.3757 49.121 85.6052 48.8875 85.889 48.8875C86.1686 48.8875 86.3939 49.121 86.3939 49.4004C86.3939 49.684 86.1686 49.9092 85.889 49.9092ZM91.7353 49.7048C91.656 49.759 91.56 49.7882 91.4599 49.7882C91.1803 49.7882 90.9508 49.5589 90.9508 49.2795C90.9508 49.1419 91.005 49.0168 91.0927 48.9251L91.0134 48.825C90.8965 48.9417 90.8256 49.1044 90.8256 49.2795C90.8256 49.6298 91.1094 49.9092 91.4599 49.9092C91.5892 49.9092 91.7103 49.8716 91.8104 49.8007L91.7353 49.7048ZM89.0897 46.4857V46.4815L88.9102 46.2647C88.9478 46.3355 88.9728 46.4189 88.9728 46.5107C88.9728 46.7942 88.7433 47.0194 88.4637 47.0194C88.18 47.0194 87.9504 46.7942 87.9504 46.5107C87.9504 46.2271 88.18 45.9978 88.4637 45.9978C88.5931 45.9978 88.7099 46.0478 88.7975 46.127L88.6098 45.8977C88.6098 45.8977 88.3803 45.9728 87.9713 46.1104C87.8795 46.2188 87.8253 46.3606 87.8253 46.5107C87.8253 46.8609 88.1132 47.1445 88.4637 47.1445C88.8142 47.1445 89.0938 46.8609 89.0938 46.5107C89.0938 46.5023 89.0938 46.494 89.0897 46.4857ZM80.3974 48.9417C80.3098 48.9417 80.2263 48.9584 80.1512 48.9918C79.9217 49.0877 79.759 49.317 79.759 49.5797C79.759 49.93 80.0469 50.2094 80.3974 50.2094C80.7479 50.2094 81.0275 49.93 81.0275 49.5797C81.0275 49.2295 80.7479 48.9417 80.3974 48.9417ZM80.3974 50.0885C80.1137 50.0885 79.8841 49.8591 79.8841 49.5797C79.8841 49.2962 80.1137 49.0668 80.3974 49.0668C80.677 49.0668 80.9065 49.2962 80.9065 49.5797C80.9065 49.8591 80.677 50.0885 80.3974 50.0885ZM77.4722 51.3603C77.1216 51.3603 76.8379 51.648 76.8379 51.9983C76.8379 52.3444 77.1216 52.6279 77.4722 52.6279C77.8227 52.6279 78.1065 52.3444 78.1065 51.9983C78.1065 51.648 77.8227 51.3603 77.4722 51.3603ZM77.4722 52.507C77.1884 52.507 76.9631 52.2735 76.9631 51.9983C76.9631 51.7147 77.1884 51.4854 77.4722 51.4854C77.7518 51.4854 77.9855 51.7147 77.9855 51.9983C77.9855 52.2735 77.7518 52.507 77.4722 52.507Z" fill="white"/>
<path d="M92.0684 54.0447C89.4198 51.1241 87.1351 47.6939 86.6895 47.1214C86.6686 47.0943 86.7199 47.0668 86.7395 47.0951C87.1439 47.6773 90.2336 51.3426 92.1235 54.0159C92.1456 54.0468 92.0939 54.0727 92.0684 54.0447Z" fill="#263238"/>
<path opacity="0.1" d="M91.2455 49.1136L95.5866 54.4053C95.5866 54.4053 88.7042 56.3576 81.1741 55.5361C78.42 55.2359 76.4533 54.7351 75.3403 54.1088L91.2455 49.1136Z" fill="black"/>
<path d="M96.4313 33.2203C95.9622 32.0269 93.6488 25.3066 93.3642 23.6487C92.8405 20.5992 92.9744 17.3321 94.1729 16.8388C95.1297 16.4447 95.9422 18.1056 95.9422 18.1056C95.9422 18.1056 96.2794 16.0578 97.5851 15.9577C98.8912 15.8576 98.9822 18.0748 98.9822 18.0748C98.9822 18.0748 99.4817 15.9969 100.792 15.9898C102.101 15.9827 101.819 18.2274 101.819 18.2274C101.819 18.2274 102.187 16.3063 103.269 16.7546C104.57 17.2937 103.491 20.7585 103.754 22.6025C103.793 22.8823 105.103 27.1051 105.456 29.9761C105.631 31.4001 104.99 32.6077 104.99 32.6077L96.4313 33.2203Z" fill="#EB9481"/>
<path d="M101.953 18.1496C101.166 20.6995 101.262 21.9513 101.948 24.4875C101.961 24.5371 101.891 24.568 101.872 24.5175C100.974 22.0952 100.626 20.5427 101.832 18.105C101.89 17.9862 101.991 18.0287 101.953 18.1496Z" fill="#263238"/>
<path d="M99.0655 17.947C98.7037 20.7058 98.9078 22.0522 99.6497 24.7093C99.6602 24.7468 99.5976 24.7685 99.5838 24.7314C98.6374 22.1857 98.1992 20.6595 98.9232 17.9507C98.9562 17.8281 99.0822 17.821 99.0655 17.947Z" fill="#263238"/>
<path d="M95.9667 18.1953C95.8807 20.8945 96.0798 22.3756 97.1973 24.8342C97.2236 24.8922 97.1414 24.936 97.1093 24.8805C95.7259 22.484 95.4635 20.6376 95.8845 18.2011C95.9129 18.0352 95.9721 18.0256 95.9667 18.1953Z" fill="#263238"/>
<path d="M95.2594 33.8698C95.2594 33.8698 92.7824 31.6218 91.9123 30.3942C91.0422 29.1666 89.4841 23.3996 90.7113 22.9926C92.2962 22.4672 93.8515 25.6192 94.4119 27.2626C94.4119 27.2626 98.0766 26.0437 99.6831 28.0645C101.289 30.0856 95.2594 33.8698 95.2594 33.8698Z" fill="#EB9481"/>
<path d="M93.9482 26.1025C94.151 26.4698 94.3351 26.8447 94.5195 27.2196L94.3835 27.1504C94.9681 26.979 95.5636 26.9035 96.1662 26.8789C96.7675 26.8602 97.3734 26.9069 97.9655 27.0257C98.5598 27.1345 99.1377 27.3347 99.6764 27.6028C100.224 27.8576 100.703 28.235 101.137 28.634C100.617 28.3451 100.108 28.0615 99.5579 27.8739C99.0171 27.6695 98.4596 27.5182 97.8917 27.4239C96.76 27.2284 95.584 27.2154 94.4406 27.3747L94.3313 27.3901L94.305 27.3055C94.1794 26.9069 94.0547 26.5086 93.9482 26.1025Z" fill="#263238"/>
<path d="M82.7404 68.8859L82.7238 75.8342L61.0791 75.8188C61.0791 75.8188 64.0974 58.2522 70.0826 52.2095C73.0763 49.1872 76.4506 49.5425 78.5279 51.8055C79.0536 52.3784 83.5279 59.8459 84.0954 63.1543C84.5895 66.0732 82.7404 68.8859 82.7404 68.8859Z" fill="#F37435"/>
<path d="M70.5991 61.6139C70.2486 61.6139 69.9648 61.9016 69.9648 62.2519C69.9648 62.6022 70.2486 62.8816 70.5991 62.8816C70.9497 62.8816 71.2376 62.6022 71.2376 62.2519C71.2376 61.9016 70.9497 61.6139 70.5991 61.6139ZM70.5991 62.7606C70.3154 62.7606 70.09 62.5313 70.09 62.2519C70.09 61.9684 70.3154 61.739 70.5991 61.739C70.8829 61.739 71.1082 61.9684 71.1082 62.2519C71.1082 62.5313 70.8829 62.7606 70.5991 62.7606ZM77.472 51.3601C77.1214 51.3601 76.8377 51.6478 76.8377 51.9981C76.8377 52.3442 77.1214 52.6278 77.472 52.6278C77.8225 52.6278 78.1062 52.3442 78.1062 51.9981C78.1062 51.6478 77.8225 51.3601 77.472 51.3601ZM77.472 52.5068C77.1882 52.5068 76.9629 52.2733 76.9629 51.9981C76.9629 51.7145 77.1882 51.4852 77.472 51.4852C77.7515 51.4852 77.9852 51.7145 77.9852 51.9981C77.9852 52.2733 77.7515 52.5068 77.472 52.5068ZM74.8054 54.0414C74.4549 54.0414 74.1753 54.3249 74.1753 54.6752C74.1753 55.0213 74.4549 55.309 74.8054 55.309C75.156 55.309 75.4439 55.0213 75.4439 54.6752C75.4439 54.3249 75.156 54.0414 74.8054 54.0414ZM74.8054 55.1839C74.5259 55.1839 74.2963 54.9546 74.2963 54.6752C74.2963 54.3958 74.5259 54.1623 74.8054 54.1623C75.0892 54.1623 75.3187 54.3958 75.3187 54.6752C75.3187 54.9546 75.0892 55.1839 74.8054 55.1839ZM63.0127 71.2506C62.6622 71.2506 62.3784 71.5341 62.3784 71.8844C62.3784 72.2347 62.6622 72.5224 63.0127 72.5224C63.3632 72.5224 63.6512 72.2347 63.6512 71.8844C63.6512 71.5341 63.3632 71.2506 63.0127 71.2506ZM63.0127 72.3973C62.7289 72.3973 62.5036 72.168 62.5036 71.8844C62.5036 71.6009 62.7289 71.3757 63.0127 71.3757C63.2965 71.3757 63.526 71.6009 63.526 71.8844C63.526 72.168 63.2965 72.3973 63.0127 72.3973ZM69.293 71.4257C68.9425 71.4257 68.6587 71.7051 68.6587 72.0554C68.6587 72.4057 68.9425 72.6934 69.293 72.6934C69.6435 72.6934 69.9273 72.4057 69.9273 72.0554C69.9273 71.7051 69.6435 71.4257 69.293 71.4257ZM69.293 72.5683C69.0092 72.5683 68.7839 72.3389 68.7839 72.0554C68.7839 71.776 69.0092 71.5467 69.293 71.5467C69.5726 71.5467 69.8063 71.776 69.8063 72.0554C69.8063 72.3389 69.5726 72.5683 69.293 72.5683ZM63.4175 66.0132C63.405 66.0507 63.3924 66.0924 63.3799 66.1299C63.551 66.2092 63.6679 66.3843 63.6679 66.5886C63.6679 66.868 63.4425 67.1015 63.1588 67.1015C63.1421 67.1015 63.1254 67.1015 63.1087 67.0932H63.1045C63.092 67.1349 63.0836 67.1724 63.0711 67.2141C63.1003 67.2225 63.1296 67.2225 63.1588 67.2225C63.5093 67.2225 63.793 66.9389 63.793 66.5886C63.793 66.3301 63.6386 66.1091 63.4175 66.0132ZM66.9979 64.216C66.6515 64.216 66.3678 64.4995 66.3678 64.8498C66.3678 65.2001 66.6515 65.4836 66.9979 65.4836C67.3484 65.4836 67.6363 65.2001 67.6363 64.8498C67.6363 64.4995 67.3484 64.216 66.9979 64.216ZM66.9979 65.3627C66.7225 65.3627 66.4929 65.1292 66.4929 64.8498C66.4929 64.5662 66.7225 64.341 66.9979 64.341C67.2816 64.341 67.5111 64.5662 67.5111 64.8498C67.5111 65.1292 67.2816 65.3627 66.9979 65.3627ZM81.1108 68.8821C80.7602 68.8821 80.4723 69.1698 80.4723 69.5201C80.4723 69.8662 80.7602 70.1497 81.1108 70.1497C81.4571 70.1497 81.7409 69.8662 81.7409 69.5201C81.7409 69.1698 81.4571 68.8821 81.1108 68.8821ZM81.1108 70.0246C80.827 70.0246 80.5975 69.7953 80.5975 69.5201C80.5975 69.2365 80.827 69.0072 81.1108 69.0072C81.3862 69.0072 81.6199 69.2365 81.6199 69.5201C81.6199 69.7953 81.3862 70.0246 81.1108 70.0246ZM81.1108 73.8318C80.7602 73.8318 80.4723 74.1195 80.4723 74.4698C80.4723 74.8159 80.7602 75.0994 81.1108 75.0994C81.4571 75.0994 81.7409 74.8159 81.7409 74.4698C81.7409 74.1195 81.4571 73.8318 81.1108 73.8318ZM81.1108 74.9785C80.827 74.9785 80.5975 74.745 80.5975 74.4698C80.5975 74.1862 80.827 73.9569 81.1108 73.9569C81.3862 73.9569 81.6199 74.1862 81.6199 74.4698C81.6199 74.745 81.3862 74.9785 81.1108 74.9785ZM77.5721 66.6887C77.2216 66.6887 76.9378 66.9764 76.9378 67.3267C76.9378 67.6728 77.2216 67.9605 77.5721 67.9605C77.9185 67.9605 78.2064 67.6728 78.2064 67.3267C78.2064 66.9764 77.9185 66.6887 77.5721 66.6887ZM77.5721 67.8354C77.2925 67.8354 77.0588 67.6061 77.0588 67.3267C77.0588 67.0432 77.2925 66.8138 77.5721 66.8138C77.8517 66.8138 78.0812 67.0432 78.0812 67.3267C78.0812 67.6061 77.8517 67.8354 77.5721 67.8354ZM80.5307 55.0505C80.5266 55.0505 80.5266 55.0505 80.5266 55.0505C80.4932 55.0547 80.4598 55.0588 80.4264 55.0588C80.1468 55.0588 79.9173 54.8336 79.9173 54.5501C79.9173 54.4208 79.9674 54.2999 80.0467 54.2123C80.0258 54.1706 80.0008 54.1331 79.9799 54.0956C79.8631 54.2123 79.7921 54.375 79.7921 54.5501C79.7921 54.9045 80.0759 55.1839 80.4264 55.1839C80.4848 55.1839 80.5391 55.1756 80.5892 55.1589C80.5683 55.1214 80.5474 55.0838 80.5307 55.0505ZM77.7933 56.7268C77.4428 56.7268 77.159 57.0103 77.159 57.3606C77.159 57.7109 77.4428 57.9944 77.7933 57.9944C78.1438 57.9944 78.4276 57.7109 78.4276 57.3606C78.4276 57.0103 78.1438 56.7268 77.7933 56.7268ZM77.7933 57.8693C77.5137 57.8693 77.2842 57.6442 77.2842 57.3606C77.2842 57.0812 77.5137 56.8477 77.7933 56.8477C78.077 56.8477 78.3024 57.0812 78.3024 57.3606C78.3024 57.6442 78.077 57.8693 77.7933 57.8693ZM81.1108 59.3747C80.7602 59.3747 80.4723 59.6582 80.4723 60.0085C80.4723 60.3588 80.7602 60.6423 81.1108 60.6423C81.4613 60.6423 81.7409 60.3588 81.7409 60.0085C81.7409 59.6582 81.4613 59.3747 81.1108 59.3747ZM81.1108 60.5172C80.827 60.5172 80.5975 60.2921 80.5975 60.0085C80.5975 59.7291 80.827 59.4956 81.1108 59.4956C81.3904 59.4956 81.6199 59.7291 81.6199 60.0085C81.6199 60.2921 81.3904 60.5172 81.1108 60.5172ZM74.3005 59.3747C73.95 59.3747 73.6621 59.6582 73.6621 60.0085C73.6621 60.3588 73.95 60.6423 74.3005 60.6423C74.6511 60.6423 74.9348 60.3588 74.9348 60.0085C74.9348 59.6582 74.6511 59.3747 74.3005 59.3747ZM74.3005 60.5172C74.0168 60.5172 73.7873 60.2921 73.7873 60.0085C73.7873 59.7291 74.0168 59.4956 74.3005 59.4956C74.5843 59.4956 74.8096 59.7291 74.8096 60.0085C74.8096 60.2921 74.5843 60.5172 74.3005 60.5172ZM71.6799 51.3601C71.3294 51.3601 71.0456 51.6478 71.0456 51.9981C71.0456 52.3442 71.3294 52.6278 71.6799 52.6278C72.0304 52.6278 72.3184 52.3442 72.3184 51.9981C72.3184 51.6478 72.0304 51.3601 71.6799 51.3601ZM71.6799 52.5068C71.4003 52.5068 71.1708 52.2733 71.1708 51.9981C71.1708 51.7145 71.4003 51.4852 71.6799 51.4852C71.9637 51.4852 72.189 51.7145 72.189 51.9981C72.189 52.2733 71.9637 52.5068 71.6799 52.5068ZM71.1708 56.3682C70.8203 56.3682 70.5365 56.6559 70.5365 57.0062C70.5365 57.3523 70.8203 57.6358 71.1708 57.6358C71.5213 57.6358 71.8093 57.3523 71.8093 57.0062C71.8093 56.6559 71.5213 56.3682 71.1708 56.3682ZM71.1708 57.5149C70.8912 57.5149 70.6617 57.2814 70.6617 57.0062C70.6617 56.7226 70.8912 56.4933 71.1708 56.4933C71.4546 56.4933 71.6799 56.7226 71.6799 57.0062C71.6799 57.2814 71.4546 57.5149 71.1708 57.5149ZM77.7724 71.2548C77.4219 71.2548 77.1423 71.5383 77.1423 71.8886C77.1423 72.2347 77.4219 72.5224 77.7724 72.5224C78.1229 72.5224 78.4109 72.2347 78.4109 71.8886C78.4109 71.5383 78.1229 71.2548 77.7724 71.2548ZM77.7724 72.3973C77.4928 72.3973 77.2633 72.168 77.2633 71.8886C77.2633 71.6092 77.4928 71.3757 77.7724 71.3757C78.0562 71.3757 78.2857 71.6092 78.2857 71.8886C78.2857 72.168 78.0562 72.3973 77.7724 72.3973ZM70.5991 66.6887C70.2486 66.6887 69.9648 66.9764 69.9648 67.3267C69.9648 67.6728 70.2486 67.9605 70.5991 67.9605C70.9497 67.9605 71.2376 67.6728 71.2376 67.3267C71.2376 66.9764 70.9497 66.6887 70.5991 66.6887ZM70.5991 67.8354C70.3154 67.8354 70.09 67.6061 70.09 67.3267C70.09 67.0432 70.3154 66.8138 70.5991 66.8138C70.8829 66.8138 71.1082 67.0432 71.1082 67.3267C71.1082 67.6061 70.8829 67.8354 70.5991 67.8354ZM74.1503 64.3619C73.7998 64.3619 73.5118 64.6496 73.5118 64.9957C73.5118 65.346 73.7998 65.6296 74.1503 65.6296C74.5008 65.6296 74.7804 65.346 74.7804 64.9957C74.7804 64.6496 74.5008 64.3619 74.1503 64.3619ZM74.1503 65.5045C73.8665 65.5045 73.637 65.2751 73.637 64.9957C73.637 64.7163 73.8665 64.487 74.1503 64.487C74.4299 64.487 74.6552 64.7163 74.6552 64.9957C74.6552 65.2751 74.4299 65.5045 74.1503 65.5045ZM81.2318 64.216C80.8813 64.216 80.5975 64.5037 80.5975 64.8539C80.5975 65.2042 80.8813 65.4836 81.2318 65.4836C81.5823 65.4836 81.8661 65.2042 81.8661 64.8539C81.8661 64.5037 81.5823 64.216 81.2318 64.216ZM81.2318 65.3627C80.9522 65.3627 80.7185 65.1333 80.7185 64.8539C80.7185 64.5704 80.9522 64.341 81.2318 64.341C81.5155 64.341 81.7409 64.5704 81.7409 64.8539C81.7409 65.1333 81.5155 65.3627 81.2318 65.3627ZM77.4761 61.6139C77.1256 61.6139 76.8377 61.9016 76.8377 62.2519C76.8377 62.6022 77.1256 62.8816 77.4761 62.8816C77.8267 62.8816 78.1062 62.6022 78.1062 62.2519C78.1062 61.9016 77.8267 61.6139 77.4761 61.6139ZM77.4761 62.7606C77.1924 62.7606 76.9629 62.5313 76.9629 62.2519C76.9629 61.9684 77.1924 61.739 77.4761 61.739C77.7557 61.739 77.9852 61.9684 77.9852 62.2519C77.9852 62.5313 77.7557 62.7606 77.4761 62.7606ZM67.5153 58.7409C67.1648 58.7409 66.8769 59.0244 66.8769 59.3747C66.8769 59.725 67.1648 60.0085 67.5153 60.0085C67.8617 60.0085 68.1496 59.725 68.1496 59.3747C68.1496 59.0244 67.8617 58.7409 67.5153 58.7409ZM67.5153 59.8834C67.2316 59.8834 67.002 59.6582 67.002 59.3747C67.002 59.0953 67.2316 58.8618 67.5153 58.8618C67.7907 58.8618 68.0244 59.0953 68.0244 59.3747C68.0244 59.6582 67.7907 59.8834 67.5153 59.8834ZM68.6295 53.9746C68.5961 54.0205 68.5627 54.0664 68.5293 54.1123C68.5335 54.1289 68.5335 54.1456 68.5335 54.1623C68.5335 54.3875 68.3833 54.5835 68.1788 54.646C68.1454 54.6919 68.1162 54.7419 68.087 54.7878C68.4083 54.7586 68.6587 54.4917 68.6587 54.1623C68.6587 54.0956 68.6504 54.033 68.6295 53.9746ZM73.2364 73.8318C72.8859 73.8318 72.6021 74.1153 72.6021 74.4656C72.6021 74.8159 72.8859 75.0994 73.2364 75.0994C73.587 75.0994 73.8707 74.8159 73.8707 74.4656C73.8707 74.1153 73.587 73.8318 73.2364 73.8318ZM73.2364 74.9785C72.9568 74.9785 72.7232 74.745 72.7232 74.4656C72.7232 74.182 72.9568 73.9569 73.2364 73.9569C73.5202 73.9569 73.7455 74.182 73.7455 74.4656C73.7455 74.745 73.5202 74.9785 73.2364 74.9785ZM73.6996 69.0197C73.3491 69.0197 73.0612 69.2991 73.0612 69.6493C73.0612 69.9996 73.3491 70.2873 73.6996 70.2873C74.0501 70.2873 74.3339 69.9996 74.3339 69.6493C74.3339 69.2991 74.0501 69.0197 73.6996 69.0197ZM73.6996 70.1622C73.4159 70.1622 73.1863 69.9329 73.1863 69.6493C73.1863 69.37 73.4159 69.1406 73.6996 69.1406C73.9834 69.1406 74.2087 69.37 74.2087 69.6493C74.2087 69.9329 73.9834 70.1622 73.6996 70.1622ZM65.7919 74.2196C65.4455 74.2196 65.1576 74.499 65.1576 74.8492C65.1576 75.1995 65.4455 75.4872 65.7919 75.4872C66.1424 75.4872 66.4304 75.1995 66.4304 74.8492C66.4304 74.499 66.1424 74.2196 65.7919 74.2196ZM65.7919 75.3621C65.5123 75.3621 65.2828 75.1328 65.2828 74.8492C65.2828 74.5698 65.5123 74.3405 65.7919 74.3405C66.0757 74.3405 66.3052 74.5698 66.3052 74.8492C66.3052 75.1328 66.0757 75.3621 65.7919 75.3621ZM66.4262 68.757C66.0798 68.757 65.7919 69.0405 65.7919 69.3908C65.7919 69.7411 66.0798 70.0246 66.4262 70.0246C66.7767 70.0246 67.0646 69.7411 67.0646 69.3908C67.0646 69.0405 66.7767 68.757 66.4262 68.757ZM66.4262 69.9037C66.1508 69.9037 65.9171 69.6702 65.9171 69.3908C65.9171 69.1073 66.1508 68.8821 66.4262 68.8821C66.7099 68.8821 66.9395 69.1073 66.9395 69.3908C66.9395 69.6702 66.7099 69.9037 66.4262 69.9037Z" fill="white"/>
<path d="M74.374 68.018C75.6434 67.9196 76.9253 67.8633 78.1973 67.9538C78.8303 67.9988 79.4566 68.0726 80.0847 68.1602C80.3976 68.204 80.7102 68.2369 81.0248 68.2682C81.3474 68.3003 81.6917 68.3228 82.0138 68.2748C82.043 68.2707 82.0497 68.3136 82.0213 68.3199C81.7113 68.3849 81.4142 68.4466 81.097 68.47C80.7957 68.4925 80.4903 68.4825 80.189 68.4642C79.5468 68.4245 78.9067 68.3553 78.2649 68.309C76.97 68.216 75.676 68.1231 74.3773 68.1239C74.3172 68.1235 74.3139 68.0226 74.374 68.018Z" fill="#263238"/>
<path d="M71.4852 69.6858C72.4909 69.3951 73.5266 69.1483 74.5594 68.9735C75.079 68.8856 75.5998 68.8284 76.1247 68.7846C76.3755 68.7638 76.6263 68.7475 76.8775 68.7342C77.1538 68.7196 77.4325 68.7417 77.7083 68.7233C77.7371 68.7213 77.7451 68.7655 77.7159 68.7684C77.4563 68.7938 77.1997 68.8622 76.9418 68.9031C76.6826 68.9439 76.4235 68.9823 76.1644 69.0232C75.6457 69.1045 75.1282 69.1912 74.6083 69.2675C73.568 69.4206 72.5339 69.5828 71.4998 69.7717C71.4431 69.7808 71.4331 69.7008 71.4852 69.6858Z" fill="#263238"/>
<path d="M68.2908 52.8553C65.7082 54.4157 52.2404 63.2789 50.7227 67.8324C48.4652 74.6039 50.0325 82.8941 50.5212 86.5516C50.734 88.1453 61.7835 87.6499 61.8098 85.9307C61.8662 82.249 61.0921 72.785 61.461 71.5532C61.8294 70.3218 68.5621 61.1393 72.0352 56.7112C76.6955 50.7699 74.5636 49.0657 68.2908 52.8553Z" fill="#EB9481"/>
<path d="M61.3158 85.2009C61.3158 85.2009 63.6593 88.9551 64.2794 91.3082C65.1099 94.4594 64.5286 97.5214 64.2077 98.7899C63.5375 101.438 60.0848 107.377 58.1995 106.682C56.4927 106.053 60.3289 100.16 60.3289 100.16C60.3289 100.16 57.4099 106.813 55.4946 105.678C53.5792 104.542 58.4215 97.955 58.4215 97.955C58.4215 97.955 55.2688 104.724 53.479 103.241C52.1266 102.12 56.176 95.9068 56.176 95.9068C56.176 95.9068 53.426 101.706 51.9851 100.613C50.3931 99.4053 53.7707 93.4361 53.7707 93.4361C50.5763 90.0426 50.1949 86.5224 50.7011 84.884C50.8505 84.3986 61.3158 85.2009 61.3158 85.2009Z" fill="#EB9481"/>
<path d="M61.4861 97.9234C61.1715 98.7174 60.8585 99.523 60.4742 100.286C60.0903 101.049 59.6788 101.8 59.2256 102.524C58.1131 104.3 57.1387 105.238 57.1926 105.174C58.4666 103.648 59.8841 100.937 60.2684 100.174C60.6519 99.4121 61.0734 98.6694 61.4577 97.9076C61.4669 97.8888 61.4936 97.9047 61.4861 97.9234Z" fill="#263238"/>
<path d="M58.7531 96.4871C58.3074 97.4833 57.9018 98.489 57.4119 99.4661C56.9245 100.438 56.377 101.318 55.8241 102.254C55.7815 102.326 55.7565 102.279 55.7965 102.205C56.3119 101.248 56.7142 100.323 57.2183 99.3597C57.7203 98.3998 58.2636 97.452 58.7305 96.4746C58.7372 96.4595 58.7598 96.472 58.7531 96.4871Z" fill="#263238"/>
<path d="M56.629 94.8333C56.026 96.3907 55.1363 97.8352 54.2295 99.2313C54.1845 99.3009 54.159 99.2371 54.2012 99.1633C55.0266 97.7163 55.6842 96.5871 56.5747 94.812C56.5889 94.7845 56.6419 94.8003 56.629 94.8333Z" fill="#263238"/>
<path d="M57.0703 59.7693L67.2223 63.2283C67.2223 63.2283 70.5322 59.5633 74.0584 54.6837C77.5845 49.8041 73.5363 49.5309 69.6342 51.5392C62.9008 55.0044 57.0703 59.7693 57.0703 59.7693Z" fill="#F37435"/>
<path d="M63.7144 60.9634C63.3639 60.9634 63.076 61.2511 63.076 61.6014C63.076 61.6806 63.0927 61.7598 63.1219 61.8307L63.293 61.8891C63.2345 61.8057 63.2012 61.7098 63.2012 61.6014C63.2012 61.3178 63.4307 61.0885 63.7144 61.0885C63.9898 61.0885 64.2235 61.3178 64.2235 61.6014C64.2235 61.8307 64.0733 62.0183 63.8647 62.0851L64.0357 62.1434C64.2235 62.035 64.3487 61.8349 64.3487 61.6014C64.3487 61.2511 64.0608 60.9634 63.7144 60.9634ZM64.2194 55.8552C63.8688 55.8552 63.5892 56.1429 63.5892 56.4932C63.5892 56.8393 63.8688 57.127 64.2194 57.127C64.5699 57.127 64.8578 56.8393 64.8578 56.4932C64.8578 56.1429 64.5699 55.8552 64.2194 55.8552ZM64.2194 57.0019C63.9398 57.0019 63.7103 56.7726 63.7103 56.4932C63.7103 56.2138 63.9398 55.9803 64.2194 55.9803C64.5031 55.9803 64.7326 56.2138 64.7326 56.4932C64.7326 56.7726 64.5031 57.0019 64.2194 57.0019ZM74.2136 54.4625C74.2762 54.3749 74.3346 54.2873 74.3888 54.2039C74.3095 54.2706 74.2469 54.3582 74.2136 54.4625ZM71.6806 51.36C71.3301 51.36 71.0463 51.6478 71.0463 51.998C71.0463 52.3441 71.3301 52.6277 71.6806 52.6277C72.0311 52.6277 72.319 52.3441 72.319 51.998C72.319 51.6478 72.0311 51.36 71.6806 51.36ZM71.6806 52.5068C71.401 52.5068 71.1715 52.2733 71.1715 51.998C71.1715 51.7145 71.401 51.4851 71.6806 51.4851C71.9643 51.4851 72.1897 51.7145 72.1897 51.998C72.1897 52.2733 71.9643 52.5068 71.6806 52.5068ZM71.1715 56.3681C70.821 56.3681 70.5372 56.6558 70.5372 57.0061C70.5372 57.3522 70.821 57.6358 71.1715 57.6358C71.522 57.6358 71.8099 57.3522 71.8099 57.0061C71.8099 56.6558 71.522 56.3681 71.1715 56.3681ZM71.1715 57.5148C70.8919 57.5148 70.6624 57.2813 70.6624 57.0061C70.6624 56.7226 70.8919 56.4932 71.1715 56.4932C71.4552 56.4932 71.6806 56.7226 71.6806 57.0061C71.6806 57.2813 71.4552 57.5148 71.1715 57.5148ZM60.906 58.2279C60.5555 58.2279 60.2676 58.5156 60.2676 58.8659C60.2676 59.2162 60.5555 59.4956 60.906 59.4956C61.2524 59.4956 61.5362 59.2162 61.5362 58.8659C61.5362 58.5156 61.2524 58.2279 60.906 58.2279ZM60.906 59.3746C60.6223 59.3746 60.3928 59.1453 60.3928 58.8659C60.3928 58.5823 60.6223 58.353 60.906 58.353C61.1815 58.353 61.4151 58.5823 61.4151 58.8659C61.4151 59.1453 61.1815 59.3746 60.906 59.3746ZM67.516 58.7408C67.1655 58.7408 66.8775 59.0243 66.8775 59.3746C66.8775 59.7249 67.1655 60.0084 67.516 60.0084C67.8623 60.0084 68.1503 59.7249 68.1503 59.3746C68.1503 59.0243 67.8623 58.7408 67.516 58.7408ZM67.516 59.8834C67.2322 59.8834 67.0027 59.6582 67.0027 59.3746C67.0027 59.0952 67.2322 58.8617 67.516 58.8617C67.7914 58.8617 68.0251 59.0952 68.0251 59.3746C68.0251 59.6582 67.7914 59.8834 67.516 59.8834ZM68.0209 53.5284C67.6704 53.5284 67.3908 53.812 67.3908 54.1622C67.3908 54.5125 67.6704 54.7961 68.0209 54.7961C68.3714 54.7961 68.6594 54.5125 68.6594 54.1622C68.6594 53.812 68.3714 53.5284 68.0209 53.5284ZM68.0209 54.6751C67.7413 54.6751 67.5118 54.4416 67.5118 54.1622C67.5118 53.8787 67.7413 53.6535 68.0209 53.6535C68.3047 53.6535 68.5342 53.8787 68.5342 54.1622C68.5342 54.4416 68.3047 54.6751 68.0209 54.6751Z" fill="white"/>
<path d="M67.9003 61.3679C64.0788 60.3926 60.2793 58.7913 59.5912 58.5599C59.5586 58.549 59.5866 58.4977 59.6187 58.5103C60.2776 58.7725 64.8779 60.1261 67.9304 61.3133C67.9658 61.327 67.9371 61.3775 67.9003 61.3679Z" fill="#263238"/>
<path d="M72.3292 58.003C72.0893 58.1957 71.8535 58.3938 71.6132 58.5856C71.5597 58.6281 71.5084 58.6731 71.4567 58.7174C72.0196 57.978 72.5642 57.2233 73.0887 56.4589C73.1008 56.441 73.0758 56.4231 73.062 56.4389C72.0926 57.5744 71.1132 58.7028 70.1551 59.8478C69.2141 60.9724 68.2009 62.0508 67.3225 63.2259C67.1661 63.1783 67.0092 63.1308 66.8527 63.0833C66.8072 63.0695 66.7826 63.1308 66.8255 63.1521C66.9912 63.2346 67.1569 63.3172 67.3225 63.3997C67.3472 63.4123 67.3856 63.406 67.4056 63.3872C68.4956 62.3898 69.4357 61.218 70.3767 60.0826C70.6367 59.769 70.8912 59.4504 71.142 59.1285C71.1612 59.1127 71.1813 59.0964 71.1988 59.0822C71.2806 59.0155 71.3619 58.9484 71.4433 58.8804C71.7613 58.6152 72.0651 58.3308 72.3543 58.0343C72.3726 58.0168 72.3505 57.9864 72.3292 58.003Z" fill="#263238"/>
<path d="M73.6106 51.8585C73.7846 52.258 76.2733 54.6024 78.1653 54.1641C78.7813 54.0202 78.1461 50.6255 78.1461 50.6255L78.1566 50.364L78.3001 46.7062L73.6844 44.8118L73.0234 44.5704C73.0234 44.5704 73.0501 45.5737 73.096 46.823C73.0977 46.8809 73.0998 46.9389 73.1023 47.001C73.1031 47.0719 73.1027 47.1386 73.1069 47.2045C73.1111 47.3913 73.1165 47.5819 73.1261 47.7716C73.1328 47.9159 73.1382 48.0564 73.1507 48.2078C73.1591 48.36 73.1707 48.5076 73.1791 48.6598C73.2947 50.1585 73.5392 51.6884 73.6106 51.8585Z" fill="#EB9481"/>
<path d="M73.0961 46.823C74.6155 49.4358 77.06 50.1676 78.1571 50.364L78.3006 46.7062L73.6849 44.8118L73.0239 44.5704C73.0239 44.5704 73.0502 45.5737 73.0961 46.823Z" fill="#263238"/>
<path d="M82.6622 40.7615C84.1377 47.0151 80.5557 48.6042 79.2062 48.9207C77.981 49.208 73.7721 50.0303 71.6577 43.9627C69.5437 37.8951 71.987 35.2326 74.7545 34.4274C77.5228 33.6221 81.1871 34.5078 82.6622 40.7615Z" fill="#EB9481"/>
<path d="M81.4759 39.4293C81.3253 39.4468 81.183 39.438 81.032 39.4401C80.8617 39.4426 80.7261 39.4618 80.5771 39.3647C80.497 39.3129 80.4698 39.1753 80.5132 39.0932C80.6138 38.9014 80.822 38.8468 81.0269 38.8355C81.2494 38.8234 81.4242 38.8709 81.6036 39.0019C81.7777 39.1291 81.675 39.4059 81.4759 39.4293Z" fill="#263238"/>
<path d="M77.372 40.4248C77.5147 40.3731 77.6378 40.3014 77.7738 40.2359C77.9274 40.1617 78.0572 40.1183 78.1469 39.9649C78.1949 39.8827 78.1577 39.7476 78.0822 39.6934C77.9061 39.5671 77.6958 39.6113 77.5076 39.693C77.3031 39.7818 77.1683 39.9027 77.0665 40.1C76.9672 40.2909 77.1833 40.4928 77.372 40.4248Z" fill="#263238"/>
<path d="M77.7477 42.0053C77.7235 42.0545 77.6943 42.0983 77.6589 42.1325C77.6021 42.1938 77.5257 42.228 77.4364 42.2255C77.176 42.2192 77.0442 41.9603 77.007 41.6988C77.0037 41.6801 77.0129 41.6675 77.0258 41.6805C77.1439 41.8056 77.2799 41.934 77.4273 41.8986C77.527 41.8756 77.5996 41.7793 77.6722 41.6959C77.6864 41.8039 77.7123 41.9073 77.7477 42.0053Z" fill="#263238"/>
<path d="M77.6349 41.9475C77.6286 41.8357 77.6487 41.7148 77.7087 41.5989C77.7688 41.4834 77.894 41.4004 78.0205 41.3696C78.1511 41.3379 78.3059 41.3858 78.3985 41.4721C78.4912 41.5584 78.5542 41.6589 78.5938 41.764C78.6197 41.8307 78.6372 41.8987 78.6527 41.9675C78.6831 42.1135 78.6881 42.2623 78.6502 42.4041C78.6339 42.2965 78.6051 42.1935 78.5671 42.0968C78.5317 42.0038 78.4912 41.9183 78.4453 41.8362C78.3472 41.6665 78.2074 41.5372 78.063 41.578C77.9082 41.6081 77.8218 41.7569 77.8014 41.9542C77.7801 42.1472 77.7943 42.3549 77.8131 42.5659C77.71 42.3799 77.6436 42.1714 77.6349 41.9475Z" fill="#263238"/>
<path d="M81.8183 41.031C81.8646 41.0606 81.9126 41.0823 81.9606 41.0927C82.0411 41.1152 82.1242 41.1044 82.1989 41.056C82.4175 40.9142 82.3941 40.6248 82.2886 40.3826C82.2815 40.3646 82.2673 40.3588 82.2631 40.3767C82.2281 40.5452 82.1792 40.7257 82.0353 40.7729C81.938 40.8054 81.8258 40.7612 81.7202 40.7282C81.7653 40.8271 81.7978 40.9292 81.8183 41.031Z" fill="#263238"/>
<path d="M81.8841 40.9227C81.8311 40.8243 81.7505 40.7317 81.6387 40.6646C81.5269 40.5975 81.377 40.5925 81.2531 40.6321C81.125 40.6734 81.0186 40.7955 80.9848 40.9173C80.951 41.0391 80.9501 41.1579 80.971 41.2684C80.984 41.3389 81.0048 41.406 81.0274 41.4723C81.0778 41.6128 81.1517 41.7421 81.2581 41.843C81.216 41.7429 81.1863 41.6399 81.1684 41.5378C81.1496 41.4402 81.1396 41.346 81.1358 41.2517C81.1304 41.0557 81.1822 40.8727 81.3261 40.8318C81.4739 40.7764 81.6253 40.8581 81.7459 41.0153C81.8653 41.1687 81.9621 41.3531 82.056 41.5428C82.0468 41.3305 81.9942 41.1179 81.8841 40.9227Z" fill="#263238"/>
<path d="M79.2908 45.2146C79.4118 45.2976 79.5387 45.4189 79.6977 45.4052C79.85 45.3918 80.014 45.2938 80.1425 45.2167C80.155 45.2092 80.1717 45.2213 80.1651 45.2355C80.0816 45.4202 79.8642 45.5645 79.658 45.5641C79.4569 45.5636 79.3309 45.4118 79.2529 45.2413C79.2416 45.2175 79.2733 45.2029 79.2908 45.2146Z" fill="#263238"/>
<path d="M80.7157 43.2609C80.7157 43.2609 80.9519 43.8768 81.0216 44.177C81.0278 44.2054 80.9586 44.2354 80.8576 44.265C80.853 44.2675 80.8509 44.2704 80.8459 44.2683C80.3347 44.4743 79.758 44.4151 79.3349 44.0573C79.3073 44.0327 79.3382 43.9931 79.3699 44.0056C79.8336 44.2041 80.2888 44.1774 80.7608 44.0761C80.7624 43.9881 80.3214 43.0345 80.3681 43.0199C80.5292 42.9677 80.8789 43.0044 81.0863 43.0161C80.6318 41.7189 79.9733 40.5046 79.5402 39.2061C79.5256 39.1594 79.5903 39.1293 79.6141 39.1685C80.3948 40.392 80.9502 41.8736 81.4539 43.2013C81.5186 43.366 80.848 43.2838 80.7157 43.2609Z" fill="#263238"/>
<path d="M80.8047 44.0625C80.8047 44.0625 80.6541 44.5462 80.3123 44.821C80.1867 44.9227 80.039 44.9969 79.8616 45.0103C79.4977 45.0391 79.3826 44.7363 79.3525 44.4536C79.3271 44.2213 79.3621 44.0012 79.3621 44.0012C79.3621 44.0012 80.0077 44.2864 80.8047 44.0625Z" fill="#263238"/>
<path d="M80.3128 44.8212C80.1872 44.923 80.0395 44.9972 79.8621 45.0106C79.4982 45.0393 79.3831 44.7366 79.353 44.4539C79.7228 44.3659 80.1609 44.4847 80.3128 44.8212Z" fill="#FF9BBC"/>
<path d="M78.464 35.5602C78.464 35.5602 78.7232 36.5342 78.3881 37.239C77.6995 38.6876 75.9532 38.311 75.3577 38.8848C74.7998 39.4227 74.9976 40.5336 74.4926 41.0715C73.7932 41.8163 72.8389 41.5306 72.7241 42.031C72.6098 42.5314 72.281 44.1252 71.6433 44.3291C71.0057 44.5334 68.0521 33.9485 76.3942 34.2612C76.3942 34.2612 77.538 33.7917 79.3157 34.6807C81.2778 35.6623 82.1379 38.8802 82.1379 38.8802C82.1379 38.8802 82.0962 38.8365 81.8103 38.5858C81.4068 38.2322 81.2507 37.9045 80.9549 37.6751C80.4904 37.3153 80.2363 37.4525 79.7539 37.1022C79.0186 36.5689 78.464 35.5602 78.464 35.5602Z" fill="#263238"/>
<path d="M78.3356 35.0995C78.4658 35.5149 78.5517 35.944 78.5822 36.3735C78.6164 36.7984 78.5951 37.2441 78.4073 37.6128C78.2175 37.9714 77.8407 38.2161 77.4517 38.3588C77.0553 38.5055 76.618 38.5481 76.1915 38.7199C75.9829 38.8129 75.7763 38.938 75.6332 39.141C75.4934 39.3408 75.437 39.5689 75.3895 39.7819C75.3018 40.2094 75.213 40.6309 74.9296 40.9366C74.6513 41.2422 74.2386 41.4266 73.8125 41.4082C73.3923 41.4099 72.9274 41.2931 72.5181 41.4787C72.9416 41.3269 73.3706 41.4758 73.8096 41.5083C74.2582 41.5487 74.7226 41.3711 75.0444 41.045C75.3853 40.7156 75.4784 40.2348 75.5718 39.8232C75.6206 39.6147 75.6787 39.4108 75.7934 39.254C75.9036 39.0993 76.0838 38.988 76.2716 38.9088C76.653 38.7466 77.0962 38.694 77.5164 38.5339C77.7267 38.4547 77.9308 38.3475 78.1102 38.207C78.2867 38.0706 78.4595 37.8971 78.5496 37.682C78.7403 37.2579 78.7366 36.795 78.6828 36.3618C78.6181 35.9269 78.4979 35.504 78.3356 35.0995Z" fill="#263238"/>
<path d="M78.4966 35.4786C78.5775 35.876 78.7173 36.26 78.9034 36.6266C79.0862 36.9927 79.3691 37.3329 79.7426 37.5431C79.9292 37.6507 80.1416 37.7053 80.3197 37.7654C80.4904 37.8254 80.6715 37.9317 80.7708 38.066C80.8793 38.2195 80.9824 38.4129 81.1347 38.5568C81.2874 38.7007 81.4715 38.8049 81.6647 38.8641C81.4903 38.7624 81.3267 38.6444 81.209 38.4884C81.0805 38.3396 81.0083 38.1636 80.9027 37.9776C80.7775 37.7733 80.5851 37.6728 80.3878 37.5848C80.1879 37.5089 80.0055 37.463 79.8428 37.365C79.5106 37.1753 79.2515 36.8818 79.047 36.544C78.8367 36.2091 78.6639 35.8464 78.4966 35.4786Z" fill="#263238"/>
<path d="M78.0496 44.2876C77.1975 44.4073 76.3379 43.9415 75.9965 43.11C75.5934 42.1267 76.0658 40.9992 77.0494 40.596C78.0334 40.1927 79.1617 40.6648 79.5648 41.648C79.9679 42.6309 79.4956 43.7589 78.512 44.1617C78.3601 44.2242 78.2053 44.2659 78.0496 44.2876ZM77.548 40.7261C77.4133 40.7448 77.2789 40.7811 77.1474 40.8345C76.2953 41.1835 75.886 42.1605 76.2352 43.0124C76.5849 43.8635 77.5631 44.2738 78.4143 43.924C79.2665 43.5745 79.6758 42.5979 79.3266 41.746C79.0311 41.0259 78.2867 40.6222 77.548 40.7261Z" fill="#F37435"/>
<path d="M82.2319 43.1586C81.497 43.2258 80.7618 42.5348 80.5539 41.5511C80.4488 41.0549 80.4918 40.5566 80.6741 40.1488C80.8623 39.7268 81.1774 39.4499 81.5605 39.3694C81.9448 39.2877 82.3433 39.4145 82.6863 39.7243C83.0181 40.0237 83.2584 40.462 83.3632 40.9582C83.5827 41.9977 83.1312 42.9764 82.3571 43.1399C82.3153 43.1482 82.274 43.1545 82.2319 43.1586ZM81.7103 39.6067C81.6777 39.6096 81.6456 39.6142 81.6135 39.6213C81.3134 39.6847 81.0635 39.909 80.9091 40.2539C80.7492 40.6125 80.7121 41.0541 80.806 41.4978C80.9967 42.3985 81.666 43.0231 82.3037 42.8876C82.9392 42.7537 83.301 41.9118 83.1111 41.0115C83.0172 40.5679 82.8048 40.1788 82.5131 39.9153C82.2632 39.6893 81.9815 39.5817 81.7103 39.6067Z" fill="#F37435"/>
<path d="M79.5599 41.8807L79.3496 41.7318C79.5704 41.4203 80.1404 40.9295 80.7238 41.2973L80.5861 41.515C80.064 41.1851 79.58 41.8527 79.5599 41.8807Z" fill="#F37435"/>
<path d="M71.3747 44.5395L71.123 44.4832C71.1498 44.366 71.3955 43.331 71.9284 43.0946C72.4271 42.8753 75.8518 42.3115 75.9975 42.2881L76.0392 42.5421C75.0573 42.7026 72.4179 43.1592 72.0332 43.3302C71.6814 43.4862 71.4385 44.2559 71.3747 44.5395Z" fill="#F37435"/>
<path d="M72.9804 43.5771C72.9804 43.5771 71.3021 41.7953 70.4733 42.4216C69.6446 43.0479 71.1089 45.7721 72.2243 46.0115C73.3397 46.2504 73.5818 45.2234 73.5818 45.2234L72.9804 43.5771Z" fill="#EB9481"/>
<path d="M70.9124 43.1923C70.8953 43.1932 70.8953 43.2178 70.9112 43.2215C71.6969 43.4138 72.1877 44.0438 72.5653 44.7164C72.3045 44.4742 71.9824 44.3678 71.6527 44.6839C71.6356 44.7006 71.6585 44.7281 71.6786 44.7206C71.9728 44.6114 72.1998 44.6318 72.4405 44.8453C72.6112 44.9963 72.7422 45.1993 72.8754 45.3832C72.92 45.4445 73.0344 45.3916 72.998 45.3186C72.9951 45.3132 72.9922 45.3077 72.9893 45.3023C72.8704 44.3545 71.9419 43.1394 70.9124 43.1923Z" fill="#263238"/>
<path d="M140.384 152.528C140.384 152.528 140.381 170.116 140.382 170.129C140.399 173.492 140.354 176.442 140.188 177.965C140.188 177.973 140.189 177.981 140.185 177.99C140.123 178.565 140.044 178.932 139.942 179.03C139.934 179.038 139.93 179.047 139.922 179.051C138.924 179.734 112.029 180.655 111.08 180.371C110.127 180.092 110.865 177.363 111.88 176.496C112.903 175.627 123.039 170.673 123.039 170.673L123.209 153.092L140.384 152.528Z" fill="#C95F50"/>
<path d="M140.382 166.518C140.382 166.518 140.382 170.116 140.382 170.128C140.399 173.492 140.354 176.441 140.188 177.965C140.189 177.973 140.189 177.981 140.185 177.989C140.09 178.557 140.004 178.933 139.943 179.03C139.935 179.038 139.931 179.046 139.923 179.051C138.925 179.734 112.029 180.654 111.08 180.371C110.128 180.091 110.865 177.363 111.88 176.495C112.904 175.627 123.039 170.673 123.039 170.673L122.99 167.008L140.382 166.518Z" fill="white"/>
<path d="M111.079 180.371C112.03 180.656 138.923 179.736 139.924 179.05C140.308 178.796 140.403 174.873 140.381 170.129C140.38 170.079 140.379 170.03 140.379 169.98L123.022 170.38L123.038 170.674C123.038 170.674 112.902 175.627 111.88 176.496C110.867 177.363 110.129 180.091 111.079 180.371Z" fill="#F37435"/>
<path d="M111.348 179.319C115.878 179.052 134.172 178.406 138.669 178.487C138.706 178.487 138.707 178.512 138.67 178.515C134.186 178.877 115.887 179.376 111.35 179.393C111.255 179.393 111.252 179.325 111.348 179.319Z" fill="#263238"/>
<path d="M121.583 170.776C123.355 170.382 125.547 170.581 126.953 171.804C127.008 171.852 126.939 171.929 126.881 171.912C125.102 171.418 123.446 171.119 121.597 171.001C121.467 170.993 121.455 170.804 121.583 170.776Z" fill="#263238"/>
<path d="M120.321 171.595C122.093 171.202 124.284 171.401 125.691 172.624C125.746 172.672 125.677 172.748 125.619 172.732C123.84 172.238 122.184 171.938 120.336 171.821C120.205 171.812 120.194 171.623 120.321 171.595Z" fill="#263238"/>
<path d="M119.06 172.415C120.833 172.022 123.024 172.22 124.43 173.444C124.485 173.491 124.417 173.568 124.358 173.552C122.579 173.058 120.923 172.758 119.075 172.64C118.945 172.632 118.933 172.443 119.06 172.415Z" fill="#263238"/>
<path d="M141.253 139.883L141.249 140.079L140.86 170.87L122.035 170.494L125.901 76.6209H141.801L141.253 139.883Z" fill="#37474F"/>
<path d="M122.821 167.356C125.761 167.331 124.916 167.297 127.856 167.304C129.294 167.308 138.746 167.34 140.087 167.578C140.117 167.584 140.116 167.633 140.087 167.638C138.74 167.844 129.29 167.647 127.852 167.616C124.913 167.552 125.758 167.538 122.82 167.442C122.765 167.44 122.766 167.357 122.821 167.356Z" fill="#263238"/>
<path d="M137.666 156.915C137.703 154.102 137.75 151.288 137.804 148.475C137.91 142.849 138.011 137.223 138.116 131.596C138.323 120.402 138.489 109.206 138.658 98.0111C138.753 91.697 138.75 85.3788 138.912 79.0664C138.913 79.0497 138.938 79.0505 138.938 79.0668C139.042 84.6928 138.979 90.3243 138.969 95.9512C138.959 101.579 138.936 107.206 138.881 112.834C138.772 124.031 138.616 135.227 138.351 146.42C138.277 149.578 138.2 152.735 138.092 155.891C137.983 159.047 137.912 162.209 137.69 165.359C137.686 165.408 137.614 165.406 137.613 165.356C137.561 162.545 137.63 159.728 137.666 156.915Z" fill="#263238"/>
<path d="M141.802 76.8114L141.385 124.745L128.637 76.6229H141.797L141.802 76.8114Z" fill="#263238"/>
<path d="M169.188 143.73C169.188 143.73 178.269 158.48 178.275 158.491C179.75 161.514 180.989 164.191 181.501 165.636C181.505 165.643 181.508 165.65 181.509 165.659C181.702 166.204 181.791 166.569 181.741 166.702C181.738 166.713 181.738 166.722 181.733 166.729C181.13 167.778 157.294 180.261 156.316 180.417C155.337 180.578 154.817 177.8 155.355 176.578C155.901 175.352 162.884 166.496 162.884 166.496L153.957 151.68L169.188 143.73Z" fill="#C95F50"/>
<path d="M181.739 166.703C181.739 166.712 181.739 166.721 181.735 166.73C181.13 167.778 157.295 180.261 156.316 180.418C155.336 180.579 154.818 177.8 155.354 176.577C155.902 175.351 162.884 166.495 162.884 166.495L161.291 163.85C165.186 161.775 172.268 158.13 176.664 155.873C177.622 157.426 178.274 158.487 178.274 158.492C179.75 161.514 180.991 164.189 181.5 165.633C181.504 165.642 181.508 165.651 181.508 165.66C181.705 166.203 181.791 166.569 181.739 166.703Z" fill="white"/>
<path d="M156.316 180.417C157.296 180.261 181.13 167.779 181.734 166.728C181.971 166.332 180.353 162.756 178.274 158.491C178.252 158.446 178.23 158.402 178.208 158.358L162.741 166.239L162.884 166.497C162.884 166.497 155.9 175.352 155.356 176.579C154.819 177.798 155.338 180.577 156.316 180.417Z" fill="#F37435"/>
<path d="M156.102 179.352C160.067 177.15 176.271 168.639 180.36 166.763C180.393 166.748 180.404 166.77 180.373 166.789C176.49 169.058 160.217 177.437 156.136 179.419C156.05 179.46 156.018 179.399 156.102 179.352Z" fill="#263238"/>
<path d="M161.616 167.22C163.043 166.097 165.104 165.326 166.902 165.819C166.971 165.839 166.943 165.937 166.884 165.948C165.066 166.273 163.444 166.721 161.727 167.416C161.606 167.465 161.514 167.3 161.616 167.22Z" fill="#263238"/>
<path d="M160.836 168.504C162.262 167.382 164.323 166.611 166.121 167.104C166.191 167.123 166.162 167.222 166.103 167.233C164.285 167.558 162.663 168.006 160.946 168.7C160.825 168.75 160.733 168.585 160.836 168.504Z" fill="#263238"/>
<path d="M160.055 169.789C161.481 168.666 163.542 167.896 165.34 168.389C165.41 168.408 165.382 168.507 165.322 168.518C163.504 168.843 161.882 169.291 160.165 169.986C160.045 170.035 159.953 169.87 160.055 169.789Z" fill="#263238"/>
<path d="M127.528 76.6057C127.528 76.6057 127.528 76.6098 127.532 76.6219C127.601 76.9488 128.713 82.1028 129.866 86.5305C130.704 89.7651 131.566 92.6077 132.061 92.9021C132.621 93.2328 135.351 94.442 136.267 94.8215C136.267 94.8215 142.407 125.452 145.649 134.95C148.64 143.715 161.018 167.142 161.018 167.142L178.977 158.075C178.977 158.075 164.952 134.299 163.477 130.032C161.192 123.419 152.626 91.1286 152.626 91.1286C152.626 91.1286 152.692 81.0195 149.285 76.6057H127.528Z" fill="#37474F"/>
<path d="M161.282 163.642C163.848 162.21 163.092 162.585 165.674 161.181C166.938 160.494 175.245 155.987 176.535 155.553C176.564 155.544 176.587 155.588 176.563 155.606C175.481 156.433 167.097 160.794 165.82 161.457C163.212 162.811 163.946 162.394 161.322 163.718C161.273 163.743 161.234 163.669 161.282 163.642Z" fill="#263238"/>
<path d="M148.018 88.3162C147.527 88.1903 147.001 88.1503 146.499 88.0706C146.094 88.0064 145.691 87.9351 145.29 87.8471C144.536 87.6807 143.773 87.4293 143.156 86.9493C142.461 86.4089 142.108 85.5891 141.772 84.8014C141.573 84.3336 141.367 83.8686 141.158 83.4049C141.058 83.1797 140.955 82.9558 140.851 82.7323C140.729 82.4709 140.561 82.1986 140.472 81.925C140.459 81.8854 140.395 81.9063 140.411 81.9434C140.49 82.1256 140.523 82.3333 140.581 82.5247C140.65 82.7502 140.714 82.9767 140.784 83.2018C140.909 83.6034 141.03 84.0066 141.163 84.4057C141.401 85.1225 141.613 85.8743 142.018 86.519C142.76 87.6987 144.085 88.1736 145.41 88.3408C145.79 88.3888 146.173 88.4159 146.556 88.4376C147.029 88.4647 147.532 88.5068 148.004 88.4484C148.076 88.4393 148.096 88.3363 148.018 88.3162Z" fill="#263238"/>
<path d="M130.608 92.1791C132.556 92.8492 134.438 93.8008 136.236 94.7987C136.307 94.8379 136.26 94.9471 136.184 94.9146C134.288 94.1011 132.354 93.3225 130.506 92.4056C130.36 92.3334 130.458 92.1279 130.608 92.1791Z" fill="#263238"/>
<path d="M130.037 79.2017C130.042 79.1363 130.157 79.1217 130.157 79.1926C130.141 81.4418 130.285 83.4209 130.475 85.5229C130.563 86.4991 131.349 91.892 133.042 91.4988C133.325 91.4329 133.47 91.154 133.515 90.727C133.568 90.2136 133.375 89.5836 133.29 89.0728C133.102 87.944 132.951 86.811 132.854 85.6705C132.673 83.5414 132.663 81.4126 132.923 79.2901C132.931 79.2205 133.032 79.2259 133.032 79.2964C133.029 82.2437 133.107 85.1851 133.548 88.1041C133.76 89.5068 134.467 91.6189 132.999 91.8345C131.503 92.0542 130.536 88.5169 130.353 87.5491C129.843 84.849 129.823 81.9339 130.037 79.2017Z" fill="#263238"/>
<path d="M132.997 91.6439C133.15 92.0059 133.273 92.3828 133.378 92.7619C133.459 93.0558 133.57 93.374 133.536 93.6809C133.529 93.7405 133.45 93.7464 133.419 93.7059C133.22 93.4541 133.136 93.11 133.025 92.8119C132.897 92.4662 132.76 92.123 132.641 91.7736C132.562 91.5417 132.902 91.4204 132.997 91.6439Z" fill="#263238"/>
<path d="M174.129 155.098C171.572 150.289 168.937 145.524 166.292 140.763C164.989 138.417 163.628 136.096 162.383 133.718C161.153 131.368 160.319 128.899 159.542 126.371C157.96 121.235 156.462 116.074 155.049 110.889C153.635 105.704 152.314 100.494 151.066 95.2678C150.754 93.9606 150.412 92.6537 150.16 91.3335C149.898 89.962 149.977 88.6798 150.166 87.3054C150.339 86.049 150.388 84.8126 150.195 83.5546C150.005 82.3115 149.694 81.0889 149.318 79.89C149.12 79.2583 148.905 78.632 148.688 78.0065C148.664 77.9364 148.555 77.9685 148.577 78.0398C149.351 80.5714 150.143 83.1309 149.977 85.8121C149.897 87.1015 149.555 88.3666 149.578 89.6635C149.6 90.9541 149.94 92.2192 150.23 93.4689C151.45 98.7289 152.767 103.965 154.164 109.181C155.561 114.396 157.042 119.589 158.609 124.755C159.371 127.267 160.084 129.82 161.166 132.218C162.249 134.621 163.621 136.891 164.912 139.185C167.58 143.927 170.27 148.657 173.02 153.352C173.368 153.947 173.72 154.54 174.071 155.134C174.093 155.172 174.149 155.136 174.129 155.098Z" fill="#263238"/>
<path d="M141.304 52.2368C142.484 55.6528 141.865 72.4817 140.117 74.4925C137.097 77.9677 122.068 80.4458 118.164 80.1698C115.341 79.9701 115.112 68.3189 117.6 67.9407C121.758 67.3085 132.971 66.3574 133.198 65.6831C134.386 62.1508 135.22 58.8899 136.823 53.3239C137.942 49.4413 140.001 48.4651 141.304 52.2368Z" fill="#C95F50"/>
<path d="M120.047 79.8861C121.311 79.0225 120.668 68.7191 119.259 68.0223C118.993 67.8926 117.415 67.2433 116.816 66.9206C116.226 66.6028 113.49 65.1029 111.447 62.7799C109.728 60.8317 107.398 57.7426 106.315 58.6275C104.732 59.913 107.208 64.173 108.779 66.5319C107.242 66.6458 105.929 66.8885 105.216 67.3096C102.85 68.7086 105.198 79.281 107.967 79.6747C110.637 80.0541 118.783 80.7497 120.047 79.8861Z" fill="#C95F50"/>
<path d="M111.226 67.4588C112.064 68.6159 110.22 68.9399 110.22 68.9399C110.22 68.9399 112.986 69.1121 113.389 70.6392C113.772 72.1116 111.531 72.4247 111.371 72.4493C111.517 72.4598 114.055 72.6845 114.301 74.2603C114.555 75.8983 112.251 75.8265 112.102 75.8211C112.238 75.8745 114.011 76.6072 113.926 77.8469C113.777 79.9769 109.19 78.2276 107.642 78.9994C107.642 78.9994 107.844 79.4873 107.856 79.5736C107.856 79.5736 104.229 79.3072 103.341 78.1371C102.596 77.1559 103.811 76.329 103.811 76.329C103.811 76.329 102.337 75.9779 102.104 74.7432C101.986 74.1094 102.896 73.3571 102.896 73.3571C102.896 73.3571 101.727 73.0264 101.589 71.9156C101.475 71.0295 102.406 70.4123 102.406 70.4123C102.406 70.4123 101.431 69.5746 101.61 68.6318C101.966 66.729 109.43 64.9827 111.226 67.4588Z" fill="#C95F50"/>
<path d="M102.538 70.2921C102.514 70.3 102.498 70.2675 102.522 70.2554C104.836 69.0824 107.739 68.5024 110.318 68.9114C110.402 68.9248 110.417 69.0678 110.321 69.0712C107.583 69.1575 105.16 69.4519 102.538 70.2921Z" fill="#263238"/>
<path d="M102.856 73.3507C102.828 73.3599 102.812 73.3128 102.84 73.2986C105.232 72.1027 108.519 71.5393 111.436 72.3608C111.536 72.3891 111.597 72.5142 111.48 72.4909C109.499 72.0914 105.212 72.5822 102.856 73.3507Z" fill="#263238"/>
<path d="M112.287 75.9482C109.46 75.2689 106.699 75.5633 103.907 76.273C103.871 76.2822 103.862 76.2301 103.89 76.2138C105.161 75.4949 106.988 75.2276 108.427 75.1401C109.805 75.0562 111.066 75.2572 112.31 75.8494C112.359 75.8727 112.347 75.9628 112.287 75.9482Z" fill="#263238"/>
<path d="M110.254 68.9055C110.355 68.9217 110.22 69.0522 110.321 69.0714C110.746 69.1532 113.26 69.8637 113.283 70.7948C113.3 71.5408 112.309 72.0817 111.847 72.1401L110.684 72.2868L111.828 72.5529C112.327 72.6692 112.837 72.8619 113.269 73.1325C113.7 73.4015 114.058 73.7838 114.128 74.2392C114.211 74.7133 114.021 75.1474 113.59 75.3476C113.173 75.5627 112.621 75.6178 112.125 75.5911L110.739 75.5156L112.018 76.0377C112.365 76.179 112.718 76.3742 113.019 76.6027C113.319 76.8329 113.584 77.1152 113.689 77.4379C113.793 77.754 113.725 78.131 113.49 78.3457C113.246 78.5755 112.853 78.6781 112.471 78.7385C111.691 78.8528 110.875 78.8011 110.065 78.7898C109.659 78.7811 109.25 78.7715 108.842 78.7819C108.438 78.7994 108.011 78.8136 107.643 78.9996C108.026 78.8536 108.44 78.8857 108.841 78.8945C109.245 78.9149 109.648 78.9549 110.053 78.995C110.862 79.0746 111.677 79.1455 112.514 79.0709C112.926 79.0196 113.372 78.9491 113.75 78.6385C114.138 78.3149 114.241 77.7594 114.096 77.3108C113.951 76.8521 113.626 76.5189 113.293 76.252C112.95 75.986 112.59 75.7779 112.188 75.6061L112.081 76.0527C112.667 76.0894 113.246 76.0531 113.814 75.7825C114.093 75.6478 114.356 75.4089 114.492 75.1011C114.629 74.7925 114.646 74.4677 114.592 74.1579C114.475 73.514 113.99 73.0487 113.504 72.7564C113.003 72.4566 112.474 72.2668 111.909 72.1438L111.889 72.5566C112.475 72.4624 113.649 71.9791 113.768 70.8182C113.696 69.2812 110.79 68.9317 110.254 68.9055Z" fill="#263238"/>
<path d="M110.22 68.94C110.508 68.8208 110.777 68.6773 110.98 68.5034C111.185 68.3304 111.276 68.0994 111.236 67.8821C111.201 67.6624 111.021 67.4389 110.822 67.2362C110.614 67.0373 110.385 66.8384 110.141 66.6424C110.451 66.6979 110.75 66.8134 111.019 66.9939C111.282 67.1732 111.548 67.4247 111.63 67.8137C111.656 68.0089 111.628 68.2036 111.54 68.375C111.447 68.5435 111.31 68.6731 111.16 68.757C110.862 68.9304 110.532 68.9713 110.22 68.94Z" fill="#263238"/>
<path d="M119.302 67.2818L120.725 81.6238C120.725 81.6238 136.981 79.2149 140.603 74.7698C142.43 72.528 142.293 57.8503 141.802 53.5353C141.31 49.2203 138.418 48.1582 136.718 52.9186C135.018 57.6789 133.439 64.8203 133.083 65.2365C132.728 65.6522 119.302 67.2818 119.302 67.2818Z" fill="#263238"/>
<path d="M123.615 79.3893C123.329 77.5583 122.43 70.0224 122.346 68.3812C122.34 68.2673 122.411 68.2361 122.432 68.3536C123.423 73.82 123.598 77.6576 123.687 79.3756C123.69 79.421 123.623 79.436 123.615 79.3893Z" fill="#37474F"/>
<path d="M152.513 82.9324C152.446 83.0025 125.196 82.3161 124.952 82.0217C124.612 81.6072 129.682 55.1729 134.415 49.3221C135.599 47.8589 139.397 47.667 141.15 49.0877C149.838 56.1282 152.752 82.6789 152.513 82.9324Z" fill="#F37435"/>
<path d="M152.31 80.4117L125.249 79.6361C125.353 79.019 125.482 78.2976 125.632 77.4969L152.022 78.2517C152.139 79.0607 152.235 79.7862 152.31 80.4117Z" fill="#263238"/>
<path d="M151.872 77.2465L125.829 76.5042C125.875 76.2832 125.92 76.0539 125.966 75.8204L151.763 76.5584C151.801 76.792 151.834 77.0213 151.872 77.2465Z" fill="#263238"/>
<path d="M135.652 53.0787C136.807 53.3052 139.547 51.4975 140.764 49.8099C140.847 49.6936 140.819 48.3617 140.861 46.7413C140.891 45.758 140.948 44.6643 141.071 43.6697L134.641 44.4103C134.641 44.4103 134.996 46.5712 134.769 48.3038C134.748 48.4485 134.717 48.5815 134.675 48.7066C134.671 48.7249 134.663 48.747 134.658 48.7729C134.436 49.5326 133.845 52.7243 135.652 53.0787Z" fill="#C95F50"/>
<path d="M134.677 48.7077C134.672 48.7265 134.662 48.7456 134.657 48.774C134.851 48.8261 135.06 48.8636 135.296 48.8874C138.855 49.2469 140.261 45.0332 140.606 43.7234L134.639 44.4089C134.639 44.4089 134.994 46.5702 134.771 48.3057C134.748 48.4475 134.719 48.5801 134.677 48.7077Z" fill="#263238"/>
<path d="M142.231 35.2539C142.906 37.4844 141.712 43.9198 140.122 45.3513C137.817 47.4267 134.051 47.616 132.288 44.8489C130.58 42.1668 132.285 33.8073 134.06 32.5072C136.675 30.5928 141.234 31.9592 142.231 35.2539Z" fill="#C95F50"/>
<path d="M136.302 38.8291C136.309 38.8132 136.332 38.8562 136.328 38.8737C136.23 39.304 136.191 39.8127 136.555 40.0321C136.566 40.0388 136.561 40.0604 136.547 40.0559C136.082 39.8962 136.141 39.221 136.302 38.8291Z" fill="#263238"/>
<path d="M136.776 38.4517C137.483 38.5334 137.267 39.9404 136.613 39.8645C135.968 39.7898 136.184 38.3833 136.776 38.4517Z" fill="#263238"/>
<path d="M133.738 38.3461C133.737 38.329 133.7 38.3615 133.698 38.3794C133.645 38.8173 133.511 39.3097 133.094 39.3944C133.082 39.3969 133.079 39.419 133.094 39.4194C133.586 39.4252 133.758 38.7693 133.738 38.3461Z" fill="#263238"/>
<path d="M133.417 37.8312C132.724 37.6707 132.454 39.068 133.096 39.2169C133.728 39.3629 133.999 37.9655 133.417 37.8312Z" fill="#263238"/>
<path d="M137.431 37.8933C137.246 37.8157 137.089 37.7136 136.915 37.6181C136.718 37.5101 136.55 37.4446 136.442 37.237C136.384 37.1256 136.442 36.9505 136.546 36.8842C136.785 36.7295 137.059 36.8016 137.301 36.9217C137.564 37.0522 137.733 37.2199 137.854 37.4859C137.972 37.7449 137.674 37.9955 137.431 37.8933Z" fill="#263238"/>
<path d="M133.011 37.2081C133.211 37.206 133.396 37.1709 133.593 37.1484C133.816 37.123 133.996 37.1259 134.175 36.9745C134.271 36.8936 134.283 36.7093 134.213 36.6088C134.05 36.3749 133.769 36.3382 133.5 36.3578C133.207 36.3791 132.987 36.47 132.774 36.6706C132.567 36.8653 132.747 37.2106 133.011 37.2081Z" fill="#263238"/>
<path d="M136.086 42.9354C135.966 43.0213 135.84 43.146 135.68 43.1352C135.526 43.1247 135.359 43.0292 135.228 42.9538C135.215 42.9463 135.199 42.9588 135.206 42.9734C135.293 43.1581 135.515 43.299 135.723 43.2949C135.926 43.2907 136.05 43.1352 136.125 42.9621C136.136 42.9375 136.103 42.9229 136.086 42.9354Z" fill="#263238"/>
<path d="M135.828 41.5609C135.525 41.9016 135.135 42.0534 134.735 42.0692C134.556 42.0776 134.373 42.0555 134.197 42.0121C134.162 42.0059 134.127 41.9967 134.097 41.985C134.066 41.9762 134.038 41.9683 134.004 41.9558C133.954 41.9408 133.932 41.8941 133.931 41.8449L133.931 41.8416C133.934 41.8257 133.936 41.8128 133.942 41.7974C133.942 41.7974 133.942 41.7974 133.943 41.794L133.949 41.7561C133.991 41.4191 134.102 40.9138 134.102 40.9138C133.97 40.9563 133.302 41.1418 133.338 40.968C133.648 39.5302 133.991 37.931 134.602 36.5654C134.62 36.5195 134.692 36.5416 134.68 36.5887C134.438 37.9823 133.952 39.3242 133.686 40.7199C133.898 40.6748 134.245 40.5843 134.42 40.6144C134.465 40.6352 134.188 41.5872 134.182 41.7398C134.182 41.7398 134.18 41.7461 134.182 41.7561C134.735 41.9145 135.187 41.8094 135.792 41.5146C135.829 41.4955 135.859 41.5301 135.828 41.5609Z" fill="#263238"/>
<path d="M134.421 41.8724C134.421 41.8724 134.658 42.3194 135.043 42.5267C135.185 42.6034 135.344 42.6497 135.52 42.6305C135.882 42.5926 135.94 42.2744 135.918 41.9913C135.9 41.7586 135.826 41.5493 135.826 41.5493C135.826 41.5493 135.244 41.9466 134.421 41.8724Z" fill="#263238"/>
<path d="M135.043 42.5266C135.185 42.6033 135.343 42.6496 135.52 42.6304C135.882 42.5925 135.94 42.2743 135.918 41.9912C135.539 41.9724 135.13 42.1688 135.043 42.5266Z" fill="#FF9BBC"/>
<path d="M140.171 38.5111C139.772 37.2276 140.558 35.1168 139.937 34.5292C138.593 33.257 135.714 35.5529 133.78 35.5142C131.905 35.4762 131.31 34.2553 131.688 32.7441C132.067 31.2329 133.386 30.2455 135.498 29.9869C137.683 29.7197 139.643 30.6479 140.704 31.3672C140.704 31.3672 140.251 30.5958 140.434 30.3647C140.617 30.1337 141.516 30.8872 141.788 31.2058C142.065 31.5294 142.223 32.1207 142.223 32.1207C142.223 32.1207 142.568 32.0281 143.081 32.0548C143.558 32.0794 144.148 32.4685 144.18 32.5811C144.211 32.6941 143.526 32.7629 143.047 32.7745C143.047 32.7745 143.908 33.9817 143.862 34.9938C143.816 36.0058 142.112 40.7753 141.731 40.817C141.243 40.8708 140.333 39.0327 140.171 38.5111Z" fill="#263238"/>
<path d="M142.865 32.647C142.849 32.6365 142.825 32.659 142.841 32.6736C143.287 33.0794 143.644 33.5472 143.817 34.1327C144.019 34.8136 143.953 35.5405 143.783 36.2202C143.451 37.5428 142.769 38.7321 142.171 39.9451C142.154 39.9806 142.213 40.0114 142.233 39.9768C142.949 38.7329 143.679 37.3802 143.973 35.9645C144.224 34.7569 143.98 33.355 142.865 32.647Z" fill="#263238"/>
<path d="M140.024 34.0394C139.476 33.9481 138.862 33.984 138.321 34.1057C137.787 34.2254 137.326 34.5432 136.844 34.7884C135.764 35.3388 134.584 35.7562 133.355 35.6482C133.34 35.6469 133.338 35.6703 133.354 35.6724C134.475 35.8429 135.584 35.5373 136.596 35.0665C137.106 34.8292 137.591 34.4827 138.127 34.3084C138.736 34.1103 139.386 34.1362 140.017 34.1399C140.082 34.1408 140.088 34.0499 140.024 34.0394Z" fill="#263238"/>
<path d="M139.562 30.8046C138.819 30.3997 138.005 30.1257 137.178 29.9473C136.386 29.7759 135.564 29.6896 134.756 29.7992C133.361 29.989 132.06 30.8392 131.698 32.2557C131.514 32.9734 131.569 33.7686 131.924 34.4266C131.948 34.4712 132.014 34.4387 131.994 34.3924C131.457 33.1297 131.72 31.6223 132.804 30.7304C133.968 29.7725 135.57 29.7388 136.985 30.0027C137.876 30.1687 138.724 30.4664 139.558 30.8129C139.563 30.8159 139.568 30.8071 139.562 30.8046Z" fill="#263238"/>
<path d="M140.841 40.4975C140.841 40.4975 142.344 38.4489 143.278 38.9893C144.211 39.5297 143.047 42.5225 141.929 42.9098C140.81 43.2976 140.43 42.2693 140.43 42.2693L140.841 40.4975Z" fill="#C95F50"/>
<path d="M142.923 39.8389C142.941 39.8376 142.944 39.8626 142.928 39.8685C142.143 40.1658 141.717 40.8776 141.413 41.6186C141.651 41.3358 141.97 41.1853 142.349 41.4693C142.369 41.4843 142.349 41.5156 142.327 41.5106C142.01 41.4351 141.779 41.4851 141.558 41.7353C141.401 41.9126 141.292 42.1386 141.178 42.3446C141.14 42.4134 141.015 42.3733 141.044 42.2937C141.046 42.2878 141.048 42.2816 141.05 42.2757C141.053 41.2841 141.856 39.9143 142.923 39.8389Z" fill="#263238"/>
<path d="M138.263 58.574C135.25 58.4001 119.199 56.851 115.727 53.5334C110.566 48.6 108.076 40.5387 106.798 37.0769C106.241 35.5682 116.242 30.8483 117.069 32.3557C118.84 35.5845 122.58 44.3137 123.482 45.2307C124.384 46.1477 134.403 50.0541 139.545 52.3475C146.442 55.4249 145.58 58.996 138.263 58.574Z" fill="#C95F50"/>
<path d="M116.973 33.2318C116.973 33.2318 117.29 28.8187 116.738 26.4486C115.999 23.2748 114.054 20.8388 113.177 19.8672C111.346 17.8389 105.517 14.1994 104.175 15.6944C102.96 17.0475 109.107 20.4668 109.107 20.4668C109.107 20.4668 103.416 15.9471 102.253 17.8452C101.09 19.7433 108.452 23.307 108.452 23.307C108.452 23.307 102.5 18.7943 101.61 20.9409C100.939 22.5635 107.424 26.1663 107.424 26.1663C107.424 26.1663 102.281 22.3229 101.518 23.9616C100.675 25.7726 106.452 29.4734 106.452 29.4734C105.214 33.9653 106.523 37.2557 107.737 38.4679C108.095 38.8261 116.973 33.2318 116.973 33.2318Z" fill="#C95F50"/>
<path d="M111.175 21.9035C110.526 21.3485 109.873 20.7823 109.176 20.2869C108.48 19.7915 107.765 19.3199 107.026 18.8912C105.212 17.84 103.912 17.4655 103.99 17.4976C105.829 18.2515 108.35 19.9871 109.047 20.4829C109.742 20.9774 110.462 21.4369 111.157 21.9311C111.175 21.9432 111.191 21.9165 111.175 21.9035Z" fill="#263238"/>
<path d="M109.43 24.4491C108.571 23.7761 107.742 23.0768 106.852 22.4413C105.966 21.8091 105.071 21.2871 104.145 20.7175C104.073 20.6737 104.073 20.7262 104.143 20.7733C105.046 21.3792 105.834 22.0093 106.73 22.6256C107.623 23.2403 108.547 23.8245 109.416 24.4708C109.43 24.4812 109.443 24.4595 109.43 24.4491Z" fill="#263238"/>
<path d="M108.326 26.9031C107.065 25.8072 105.603 24.9457 104.148 24.1347C104.075 24.0942 104.083 24.1626 104.155 24.2081C105.561 25.1021 106.67 25.7935 108.288 26.9473C108.313 26.9652 108.353 26.926 108.326 26.9031Z" fill="#263238"/>
<path d="M105.821 39.603L117.914 33.2201C117.914 33.2201 122.58 43.7658 123.557 44.8175C124.534 45.8691 139.247 51.4272 142.55 53.8307C145.852 56.2343 144.934 58.6378 140.606 58.8688C136.277 59.0998 119.163 56.8814 116.063 54.3853C112.965 51.8896 105.821 39.603 105.821 39.603Z" fill="#263238"/>
<path d="M118.24 36.624C116.631 37.546 109.909 41.0779 108.406 41.743C108.301 41.7893 108.247 41.7342 108.349 41.6721C113.104 38.7936 116.628 37.2586 118.202 36.5614C118.243 36.5431 118.281 36.6002 118.24 36.624Z" fill="#37474F"/>
<path d="M107.204 12.2088C107.461 10.618 107.841 9.06055 108.251 7.51059C108.672 5.96397 109.125 4.42569 109.7 2.92035C109.444 4.51117 109.064 6.06905 108.653 7.61859C108.231 9.16479 107.778 10.7031 107.204 12.2088Z" fill="#263238"/>
<path d="M98.3072 13.3741C97.3637 12.0673 96.53 10.6975 95.7229 9.31223C94.9267 7.92073 94.1581 6.51296 93.5 5.04224C94.4443 6.34867 95.2781 7.71849 96.0843 9.10415C96.8797 10.4961 97.6483 11.9034 98.3072 13.3741Z" fill="#263238"/>
<path d="M92.8411 20.483C91.2492 20.2257 89.6901 19.8462 88.1395 19.4367C86.5917 19.0151 85.0523 18.5631 83.5459 17.9881C85.1379 18.2445 86.6969 18.624 88.2476 19.0343C89.7949 19.4563 91.3343 19.9088 92.8411 20.483Z" fill="#263238"/>
<path d="M91.524 30.8034C90.6302 31.5077 89.6733 32.1023 88.7006 32.6707C87.722 33.2278 86.7272 33.7574 85.6689 34.1769C86.5624 33.4717 87.5192 32.8771 88.4924 32.3096C89.4717 31.7533 90.4662 31.2237 91.524 30.8034Z" fill="#263238"/>
<path d="M118.497 27.3688C119.587 27.4914 120.644 27.7361 121.692 28.0105C122.738 28.2974 123.775 28.6143 124.779 29.0547C123.689 28.9329 122.633 28.6881 121.584 28.4129C120.538 28.1256 119.501 27.8083 118.497 27.3688Z" fill="#263238"/>
<path d="M114.318 17.6707C115.626 16.7279 116.996 15.8948 118.383 15.0883C119.775 14.2927 121.184 13.5246 122.656 12.867C121.349 13.8107 119.978 14.6438 118.591 15.4494C117.198 16.2438 115.789 17.0119 114.318 17.6707Z" fill="#263238"/>
<path d="M88.5967 17.2234C89.2844 17.3443 89.9208 17.582 90.545 17.8472C91.1643 18.1245 91.771 18.4297 92.3265 18.8526C91.6388 18.7325 91.0024 18.4948 90.3781 18.2288C89.7593 17.9506 89.1521 17.6454 88.5967 17.2234Z" fill="#263238"/>
<path d="M113.037 3.56445C112.66 4.50435 112.241 5.42382 111.817 6.34037C111.396 7.259 110.947 8.16262 110.497 9.06624C110.038 9.96569 109.579 10.8643 109.09 11.7487L108.357 13.0748C108.099 13.5097 107.853 13.9513 107.584 14.3808C107.769 13.9088 107.978 13.4488 108.174 12.9826L108.804 11.6045C109.225 10.6862 109.674 9.78221 110.124 8.87901C110.583 7.97997 111.043 7.08094 111.531 6.19692C112.016 5.3104 112.506 4.42721 113.037 3.56445Z" fill="#263238"/>
<path d="M117.234 19.7155C118.856 19.4082 120.489 19.2272 122.125 19.0767C123.762 18.9386 125.402 18.8323 127.052 18.8527C125.43 19.1609 123.797 19.3419 122.161 19.4916C120.525 19.6288 118.885 19.7351 117.234 19.7155Z" fill="#263238"/>
<path d="M90.1176 29.5994C88.8361 30.1665 87.5175 30.6131 86.1892 31.0301C84.8576 31.435 83.5164 31.8098 82.1377 32.0625C83.4188 31.4942 84.7379 31.048 86.0661 30.6318C87.3981 30.2278 88.7393 29.8533 90.1176 29.5994Z" fill="#263238"/>
</g>
<defs>
<clipPath id="clip0_2158_33189">
<rect width="190" height="184.232" fill="white"/>
</clipPath>
</defs>
</svg>
