<svg width="81" height="81" viewBox="0 0 81 81" fill="none" xmlns="http://www.w3.org/2000/svg">
<g clip-path="url(#clip0_1963_15090)">
<path d="M80.9366 40.7466C80.8566 41.1622 81.7679 55.8478 70.0119 68.2825C54.216 84.9891 27.651 84.9806 11.868 68.2808C-2.68588 52.8828 -2.71572 28.7739 11.868 13.3442C21.9088 2.71986 36.5427 -1.31514 50.1138 1.87267C55.1554 3.05611 57.7066 8.69939 55.3091 13.2886C53.6221 16.5186 49.9582 18.1683 46.4188 17.3439C38.2449 15.4389 29.4535 17.8883 23.4274 24.2652C14.6451 33.5505 14.6543 48.0836 23.4274 57.3591C32.9362 67.4256 48.9493 67.4208 58.4524 57.3591C60.9123 54.7591 62.7982 51.6108 63.9083 48.1147H50.6052C46.8082 48.1147 43.729 45.035 43.729 41.2378C43.729 37.4406 46.8063 34.3611 50.6052 34.3611H74.4943C78.0288 34.3611 80.9318 37.2108 80.9365 40.7466H80.9366Z" fill="#FFDA44"/>
<path d="M80.938 40.7468V40.8127C80.938 51.0593 77.0573 60.8323 70.0133 68.2827C62.5005 76.2284 51.8595 81.0251 40.125 80.8005V64.8935C47.3552 65.1241 53.8817 62.2007 58.4538 57.3593C60.9141 54.7593 62.7995 51.611 63.9103 48.1149H50.6072C46.8095 48.1149 43.7303 45.0352 43.7303 41.238C43.7303 37.4409 46.8077 34.3613 50.6072 34.3613H74.4956C78.0302 34.3613 80.9331 37.211 80.9378 40.7468H80.938Z" fill="#0FA9DD"/>
<path d="M55.3089 13.29C53.6238 16.5182 49.9652 18.1691 46.4186 17.3446C38.2709 15.45 29.4764 17.8639 23.4266 24.2664L11.8672 13.3455C21.93 2.69785 36.5692 -1.30605 50.1136 1.87441C55.1533 3.05785 57.7052 8.70051 55.3089 13.2897V13.29Z" fill="#FF6426"/>
<path d="M70.0109 68.2828C54.2116 84.9931 27.6508 84.9814 11.8672 68.2811L23.4272 57.3594C32.9389 67.4266 48.9466 67.4228 58.4516 57.3594L70.0109 68.2828Z" fill="#6FBF6B"/>
</g>
<defs>
<clipPath id="clip0_1963_15090">
<rect width="80" height="80" fill="white" transform="translate(0.941406 0.810547)"/>
</clipPath>
</defs>
</svg>
