<svg width="534" height="376" viewBox="0 0 534 376" fill="none" xmlns="http://www.w3.org/2000/svg">
<line x1="0.441406" y1="63.3105" x2="533.441" y2="63.3105" stroke="#F37435"/>
<line x1="0.441406" y1="303.311" x2="533.441" y2="303.311" stroke="#F37435"/>
<line x1="0.441406" y1="83.3105" x2="533.441" y2="83.3105" stroke="#F37435"/>
<line x1="0.441406" y1="323.311" x2="533.441" y2="323.311" stroke="#F37435"/>
<line x1="48.9414" y1="9.81055" x2="48.9414" y2="375.811" stroke="#F37435"/>
<line x1="478.941" y1="9.81055" x2="478.941" y2="375.811" stroke="#F37435"/>
<line x1="68.9414" y1="9.81055" x2="68.9414" y2="375.811" stroke="#F37435"/>
<line x1="498.941" y1="9.81055" x2="498.941" y2="375.811" stroke="#F37435"/>
<path d="M263.162 186.493C289.83 213.363 314.319 242.724 315.58 257.571C317.328 278.127 308.023 284.129 302.628 284.116C287.939 284.081 261.489 220.886 253.455 196.946C245.653 173.7 257.305 180.593 263.162 186.493Z" fill="#F37435"/>
<path opacity="0.1" d="M297.857 282.289C282.793 271.732 260.678 218.469 253.459 196.949C251.063 189.811 250.498 185.507 251.045 183.16L297.857 282.289Z" fill="black"/>
<path d="M181.21 302.133H282.594C284.019 300.525 265.7 204.266 259.635 185.996C255.722 174.209 237.746 171.444 229.459 180.442C197.211 215.459 180.359 301.021 181.21 302.133Z" fill="#F37435"/>
<path d="M295.141 280.694C286.998 274.115 291.043 253.625 295.631 219.927C296.436 214.014 333.803 199.375 334.575 205.711C335.549 213.692 329.63 251.305 326.238 260.482C319.549 278.573 304.649 288.376 295.141 280.694Z" fill="#EB9481"/>
<path d="M328.187 237.82C335.417 229.658 344.917 217.493 344.958 212.359C345.001 206.971 344.441 188.022 342.978 183.663C341.516 179.305 333.647 168.05 330.026 166.555C327.127 165.358 325.558 169.182 328.909 176.148C332.656 183.938 331.492 187.07 331.657 189.561C331.827 192.147 327.733 203.112 324.323 204.03C322.313 204.57 318.146 204.528 317.214 200.666C316.281 196.803 317.247 193.31 315.864 186.571C314.789 181.332 310.694 178.06 308.999 178.968C307.303 179.876 308.693 183.018 307.55 190.86C306.838 195.751 306.147 199.26 300.648 206.39C295.834 212.629 295.507 221.295 295.507 221.295L328.187 237.82Z" fill="#EB9481"/>
<path d="M345.336 200.285C345.148 197.332 347.07 188.394 346.432 184.49C345.794 180.587 341.551 166.224 337.461 165.037C332.32 163.545 333.808 175.219 334.886 180.225C335.964 185.231 332.925 194.24 332.925 194.24L339.998 197.478L345.336 200.285Z" fill="#EB9481"/>
<path d="M331.889 196.292C333.161 191.759 334.747 187.154 334.82 182.385C334.615 178.973 333.987 175.609 333.85 172.165C333.817 170.126 333.705 167.892 334.689 166.052C335.026 165.446 335.627 165.007 336.271 164.936C335.635 165.081 335.114 165.547 334.827 166.139C334.017 167.994 334.202 170.136 334.314 172.134C334.523 174.853 334.933 177.555 335.252 180.289C335.894 185.834 333.767 191.241 331.889 196.292Z" fill="#263238"/>
<path d="M345.087 202.853C345.675 199.98 349.822 192.054 350.228 188.136C350.635 184.218 350.33 169.214 346.75 166.818C342.251 163.807 340.635 175.395 340.361 180.499C340.087 185.605 334.859 193.253 334.859 193.253L340.742 198.527L345.087 202.853Z" fill="#EB9481"/>
<path d="M333.342 194.889C335.731 190.953 338.443 187.041 339.74 182.521C340.425 179.211 340.702 175.825 341.464 172.507C341.962 170.556 342.431 168.395 343.847 166.935C344.326 166.457 345.016 166.223 345.646 166.355C345.004 166.297 344.383 166.58 343.957 167.06C342.706 168.586 342.33 170.681 341.919 172.616C341.414 175.266 341.103 177.958 340.699 180.655C339.879 186.124 336.449 190.642 333.342 194.889Z" fill="#263238"/>
<path d="M334.282 201.82C331.813 204.084 328.523 205.068 325.384 205.738C324.313 205.943 323.219 206.024 322.157 206.094C318.96 206.274 315.806 206.971 312.956 208.545C311.987 209.027 311.082 209.639 310.163 210.233C313.5 207.285 317.793 205.638 322.114 205.455C326.321 205.15 330.692 204.289 334.282 201.82Z" fill="#263238"/>
<path d="M343.868 215.922C345.025 213.324 348.966 203.103 349.205 198.768C349.444 194.433 348.286 177.903 344.167 175.399C338.989 172.253 337.821 185.091 337.794 190.73C337.767 196.369 333.027 202.325 333.027 202.325L340.573 209.498L343.868 215.922Z" fill="#EB9481"/>
<path d="M338.504 181.894C338.592 183.754 338.492 185.662 338.404 187.518C338.321 189.277 338.361 191.115 338.03 192.841C337.698 194.573 336.989 196.158 336.149 197.668C335.736 198.411 335.283 199.117 334.808 199.817C334.291 200.58 333.701 201.295 333.198 202.066C333.144 202.148 333.016 202.068 333.069 201.984C333.954 200.57 334.686 198.977 335.386 197.451C336.114 195.862 336.673 194.145 337.008 192.409C337.68 188.934 337.637 185.339 338.277 181.858C338.303 181.717 338.497 181.763 338.504 181.894Z" fill="#263238"/>
<path d="M338.03 192.842C338.045 187.457 337.419 181.661 339.717 176.666C341.092 173.923 343.896 174.047 345.402 176.598C347.768 180.611 348.344 185.473 348.796 190.077C348.075 186.104 346.854 177.623 343.467 175.482C337.787 173.493 338.406 189.263 338.03 192.842Z" fill="#263238"/>
<path d="M334.363 232.863L291.086 238.626C291.086 238.626 284.539 277.058 297.392 282.355C310.244 287.652 320.867 276.004 326.237 260.482C331.608 244.959 334.363 232.863 334.363 232.863Z" fill="#F37435"/>
<path d="M289.602 264.416C289.437 260.1 289.469 255.782 289.608 251.466C289.833 247.165 289.878 242.766 291.011 238.599L291.025 238.552L291.069 238.543L293.319 238.107L291.103 238.709L291.161 238.653C290.272 242.838 290.286 247.207 290.047 251.484C289.932 254.702 289.708 261.197 289.602 264.416Z" fill="#263238"/>
<path d="M293.863 249.313C299.914 248.146 316.414 245.527 327.36 245.441C327.425 245.441 327.461 245.728 327.397 245.74C318.329 247.392 300.043 249.182 293.917 249.74C293.802 249.751 293.75 249.335 293.863 249.313Z" fill="#263238"/>
<path d="M216.415 258.156C217.21 254.375 230.559 207.444 234.275 192.645C237.61 179.362 234.972 174.242 225.477 183.093C207.995 199.387 174.547 247.655 169.445 271.61C164.531 294.687 182.188 295.075 195.788 283.498C206.923 274.019 216.415 258.156 216.415 258.156Z" fill="#F37435"/>
<path d="M214.716 264.221C218.761 246.394 223.605 228.776 229.246 211.449C225.209 229.278 220.352 246.892 214.716 264.221Z" fill="#263238"/>
<path d="M226.604 221.713C227.345 219.394 228.481 217.33 229.827 215.355C229.241 217.708 228.059 219.842 226.604 221.713Z" fill="#263238"/>
<path d="M175.955 287.028C183.105 294.261 198.477 292.591 237.553 292.259C242.96 292.213 252.922 251.447 247.145 251.18C239.869 250.843 211.565 251.217 209.498 251.523C192.067 254.104 171.106 282.122 175.955 287.028Z" fill="#EB9481"/>
<path d="M241.173 252.966C241.173 252.966 255.619 247.505 264.042 247.14C275.32 246.652 285.246 251.181 289.298 253.346C297.757 257.866 315.276 275.029 311.52 281.27C308.119 286.92 291.042 268.412 291.042 268.412C291.042 268.412 311.374 284.22 306.106 290.22C300.838 296.22 282.161 273.533 282.161 273.533C282.161 273.533 302.71 290.274 296.359 295.545C291.56 299.529 273.558 279.998 273.558 279.998C273.558 279.998 291.128 294.517 286.357 298.841C281.086 303.619 263.409 286.7 263.409 286.7C249.548 295.514 239.566 293.668 232.612 291.452C230.928 290.917 241.173 252.966 241.173 252.966Z" fill="#EB9481"/>
<path d="M284.339 262.465C286.79 264.229 289.283 265.998 291.578 267.989C293.874 269.98 296.107 272.058 298.218 274.267C303.397 279.687 305.845 283.945 305.667 283.699C301.456 277.895 293.341 270.632 291.044 268.64C288.752 266.654 286.555 264.543 284.264 262.554C284.207 262.505 284.281 262.423 284.339 262.465Z" fill="#263238"/>
<path d="M277.444 271.17C280.483 273.568 283.582 275.83 286.522 278.371C289.448 280.9 292.016 283.573 294.771 286.31C294.983 286.52 294.807 286.573 294.586 286.37C291.731 283.753 288.902 281.567 286.018 278.985C283.145 276.413 280.343 273.701 277.385 271.242C277.338 271.204 277.397 271.134 277.444 271.17Z" fill="#263238"/>
<path d="M270.266 277.509C275.086 280.92 279.31 285.274 283.357 289.652C283.558 289.869 283.324 289.91 283.106 289.7C278.826 285.576 275.495 282.309 270.154 277.687C270.071 277.615 270.164 277.437 270.266 277.509Z" fill="#263238"/>
<path d="M239.925 246.73L215.138 301.8C215.138 301.8 176.202 295.537 171.031 287.357C167.334 281.509 189.561 254.877 208.781 251.353L239.925 246.73Z" fill="#F37435"/>
<path d="M187.514 264.078C189.794 260.775 197.719 253.525 208.797 251.316C208.895 251.297 208.946 251.458 208.849 251.487C200.747 253.984 190.076 261.215 187.628 264.195C187.563 264.273 187.457 264.16 187.514 264.078Z" fill="#263238"/>
<path d="M208.664 292.255C210.66 286.748 212.929 281.361 215.211 275.981C217.496 270.597 219.771 265.206 222.182 259.882C223.543 256.875 224.889 253.857 226.349 250.9C226.387 250.823 226.518 250.871 226.487 250.956C224.497 256.455 222.247 261.858 220.001 267.245C217.75 272.646 215.444 278.026 213.092 283.379C211.763 286.403 210.383 289.402 208.924 292.361C208.852 292.508 208.605 292.416 208.664 292.255Z" fill="#263238"/>
<path d="M239.835 246.218C237.675 246.194 235.543 246.522 233.4 246.808C231.26 247.093 229.124 247.417 226.991 247.762C222.75 248.448 213.688 249.386 206.245 251.949C206.162 251.977 206.712 252.259 206.793 252.226C210.278 250.813 237.316 247.535 239.451 246.982C239.413 247.154 239.377 247.328 239.363 247.511C239.352 247.635 239.498 247.742 239.584 247.625C239.79 247.349 239.906 247.051 240.09 246.761C240.241 246.522 240.115 246.221 239.835 246.218Z" fill="#263238"/>
<path d="M219.511 292.494C218.197 295.793 216.805 299.052 215.389 302.3C212.239 301.779 209.105 301.183 205.978 300.532C197.023 298.567 187.776 296.469 179.31 292.741C182.264 293.656 185.251 294.394 188.238 295.129C194.229 296.636 208.992 299.919 215.214 301.353L214.758 301.596C216.302 298.539 217.872 295.497 219.511 292.494Z" fill="#263238"/>
<path d="M252.633 198.836C247.464 198.473 236.298 188.869 234.978 180.402C234.891 179.822 237.275 174.947 239.91 168.876C241.495 165.186 243.178 161.038 244.458 157.134C244.717 156.331 265.477 171.639 265.477 171.639C265.477 171.639 260.536 178.981 258.344 185.802C258.167 186.374 258.046 186.923 257.977 187.462C257.96 187.539 257.951 187.636 257.923 187.74C257.391 190.957 258.164 199.224 252.633 198.836Z" fill="#EB9481"/>
<path d="M257.984 187.464C257.961 187.543 257.948 187.643 257.92 187.738C257.168 187.575 256.376 187.328 255.527 186.993C242.112 181.639 244.457 162.272 245.268 157.443C249.145 159.587 265.478 171.637 265.478 171.637C265.478 171.637 260.533 178.987 258.339 185.807C258.172 186.378 258.043 186.927 257.984 187.464Z" fill="#263238"/>
<path d="M267.5 149.496C267.172 156.134 271.335 161.764 276.798 162.07C282.261 162.376 286.955 157.244 287.283 150.606C287.611 143.969 283.448 138.339 277.985 138.033C272.522 137.726 267.828 142.859 267.5 149.496Z" fill="#455A64"/>
<path d="M264.274 149.737C263.909 157.121 268.54 163.383 274.617 163.724C280.695 164.066 285.917 158.356 286.282 150.971C286.646 143.587 282.015 137.324 275.938 136.983C269.86 136.642 264.638 142.352 264.274 149.737Z" fill="#C7C7C7"/>
<path d="M276.943 124.574C276.943 124.574 284.312 129.342 284.325 137.667C284.337 145.993 280.978 154.099 280.204 154.382C279.431 154.664 276.943 124.574 276.943 124.574Z" fill="#263238"/>
<path d="M243.326 128.059C239.212 136.616 239.296 163.624 244.355 170.609C251.69 180.735 265.889 184.284 274.513 174.352C282.873 164.725 282.179 129.53 276.324 122.941C267.7 113.238 249.404 115.419 243.326 128.059Z" fill="#EB9481"/>
<path d="M265.068 149.33C265.054 149.261 264.934 149.416 264.936 149.491C264.988 151.31 264.759 153.403 263.214 154.004C263.166 154.022 263.171 154.114 263.228 154.106C265.113 153.826 265.39 151.045 265.068 149.33Z" fill="#263238"/>
<path d="M263.547 147.428C260.802 147.202 260.578 153.069 263.121 153.28C265.623 153.486 265.847 147.618 263.547 147.428Z" fill="#263238"/>
<path d="M274.483 149.689C274.498 149.62 274.613 149.78 274.608 149.855C274.485 151.67 274.63 153.771 276.149 154.441C276.197 154.462 276.189 154.553 276.132 154.542C274.26 154.178 274.093 151.387 274.483 149.689Z" fill="#263238"/>
<path d="M276.077 147.857C278.828 147.753 278.819 153.626 276.271 153.721C273.763 153.816 273.771 147.942 276.077 147.857Z" fill="#263238"/>
<path d="M261.477 144.652C262.233 144.483 262.906 144.193 263.639 143.944C264.465 143.663 265.151 143.529 265.715 142.773C266.017 142.368 265.926 141.613 265.585 141.263C264.789 140.448 263.696 140.524 262.687 140.82C261.593 141.141 260.827 141.686 260.17 142.67C259.533 143.622 260.478 144.874 261.477 144.652Z" fill="#263238"/>
<path d="M278.319 144.995C277.56 144.829 276.887 144.542 276.154 144.295C275.326 144.018 274.64 143.887 274.074 143.133C273.77 142.729 273.858 141.974 274.199 141.623C274.992 140.804 276.085 140.877 277.094 141.169C278.189 141.485 278.958 142.027 279.618 143.008C280.259 143.958 279.318 145.213 278.319 144.995Z" fill="#263238"/>
<path d="M262.327 166.367C262.719 166.81 263.105 167.413 263.721 167.496C264.313 167.574 265.019 167.319 265.571 167.118C265.626 167.098 265.679 167.162 265.642 167.215C265.173 167.893 264.224 168.29 263.44 168.108C262.673 167.93 262.319 167.204 262.161 166.443C262.138 166.335 262.27 166.302 262.327 166.367Z" fill="#263238"/>
<path d="M264.404 160.401C265.298 162.02 266.668 162.943 268.174 163.323C268.846 163.497 269.557 163.553 270.259 163.515C270.396 163.518 270.534 163.508 270.66 163.484C270.785 163.473 270.898 163.463 271.035 163.439C271.236 163.416 271.352 163.246 271.393 163.047L271.394 163.033C271.395 162.967 271.396 162.913 271.385 162.847C271.385 162.847 271.385 162.847 271.385 162.833L271.388 162.673C271.477 161.276 271.431 159.142 271.431 159.142C271.9 159.418 274.301 160.697 274.29 159.964C274.182 153.897 274.061 147.149 272.751 141.136C272.718 140.936 272.429 140.97 272.438 141.169C272.326 147.005 273.176 152.822 273.152 158.686C272.383 158.336 271.132 157.695 270.445 157.681C270.257 157.73 270.603 161.803 270.517 162.427C270.517 162.427 270.516 162.454 270.503 162.493C268.285 162.699 266.65 161.916 264.569 160.244C264.447 160.136 264.307 160.252 264.404 160.401Z" fill="#263238"/>
<path d="M269.354 162.681C269.354 162.681 268.216 164.213 266.705 164.728C266.148 164.92 265.553 164.983 264.937 164.785C263.671 164.383 263.677 163.133 263.943 162.073C264.16 161.201 264.565 160.457 264.565 160.457C264.565 160.457 266.372 162.381 269.354 162.681Z" fill="#263238"/>
<path d="M266.705 164.729C266.148 164.92 265.553 164.984 264.937 164.785C263.671 164.384 263.677 163.134 263.943 162.074C265.307 162.271 266.632 163.307 266.705 164.729Z" fill="#FF9ABB"/>
<path d="M241.012 153.762C243.993 154.68 247.261 145.109 248.17 141.435C248.971 138.196 249.794 127.955 249.928 127.255C250.062 126.556 263.003 136.076 270.448 133.615C277.891 131.153 282.779 123.91 282.831 120.569C282.882 117.229 273.465 108.914 265.423 108.621C257.38 108.328 246.671 119.406 246.671 119.406C246.671 119.406 250.293 114.638 250.162 114.254C250.031 113.87 244.873 116.173 243.979 120.132C243.979 120.132 244.93 115.166 244.536 115.08C244.142 114.994 240.172 119.304 241.132 122.5C241.132 122.5 236.532 126.892 236.173 131.622C235.813 136.354 237.508 152.683 241.012 153.762Z" fill="#263238"/>
<path d="M275.736 131.855C273.479 133.01 271.22 134.277 268.712 134.675C266.001 135.105 263.171 134.427 260.627 133.438C258.024 132.427 255.65 130.937 253.486 129.1C251.59 127.492 249.9 125.54 247.881 124.112C247.376 123.755 246.809 124.532 247.123 125.018C250.231 129.815 255.659 133.771 260.859 135.428C266.329 137.172 271.424 135.788 275.765 131.918C275.791 131.895 275.774 131.837 275.736 131.855Z" fill="#263238"/>
<path d="M245.896 150.852C245.896 150.852 241.593 141.426 237.667 142.93C233.74 144.435 236.094 157.443 240.083 159.843C244.073 162.242 246.229 158.349 246.229 158.349L245.896 150.852Z" fill="#EB9481"/>
<path d="M238.428 146.641C238.361 146.623 238.333 146.722 238.388 146.758C241.171 148.545 242.298 151.749 242.941 154.981C242.231 153.658 241.123 152.813 239.482 153.685C239.396 153.731 239.451 153.873 239.537 153.868C240.796 153.796 241.641 154.169 242.309 155.348C242.783 156.183 243.042 157.182 243.333 158.102C243.43 158.409 243.933 158.339 243.879 157.995C243.875 157.97 243.87 157.943 243.866 157.917C244.542 153.89 242.438 147.735 238.428 146.641Z" fill="#263238"/>
<path d="M240.561 141.848C240.561 141.848 240.499 127.214 244.175 119.042C245.979 115.031 249.91 113.346 254.436 112.9C254.436 112.9 252.028 114.22 249.174 120.039C246.244 126.014 245.104 142.271 245.104 142.271L240.561 141.848Z" fill="#C7C7C7"/>
<path d="M253.26 149.282C253.278 156.677 248.358 162.685 242.273 162.702C236.187 162.719 231.239 156.737 231.221 149.343C231.204 141.948 236.123 135.941 242.208 135.924C248.293 135.907 253.241 141.888 253.26 149.282Z" fill="#C7C7C7"/>
<path d="M250.048 148.872C250.064 155.519 245.643 160.92 240.172 160.935C234.702 160.949 230.255 155.573 230.238 148.926C230.223 142.279 234.644 136.879 240.114 136.863C245.585 136.848 250.033 142.225 250.048 148.872Z" fill="#455A64"/>
<path d="M244.656 149.008C244.666 153.092 241.949 156.411 238.587 156.42C235.226 156.429 232.493 153.126 232.482 149.041C232.473 144.956 235.189 141.638 238.552 141.629C241.914 141.62 244.647 144.924 244.656 149.008Z" fill="#37474F"/>
<path d="M260.553 170.738L252.623 168.308L245.622 161.11L246.663 159.959L253.396 166.881L260.967 169.2L260.553 170.738Z" fill="#C7C7C7"/>
<path d="M259.596 169.569C260.052 167.138 266.29 167.162 265.601 170.847C264.909 174.54 259.14 172.009 259.596 169.569Z" fill="#37474F"/>
<path d="M258.212 186.587L254.819 198.011L237.756 173.328L231.353 180.292L250.849 209.931L255.196 200.506L260.434 206.602L260.627 192.357L258.212 186.587Z" fill="#EBEBEB"/>
<path d="M231.353 180.293C238.125 190.503 243.921 200.791 250.969 210.784L251.211 210.073L255.519 200.633L254.942 200.754L260.241 206.791L260.691 207.304C260.725 202.323 260.666 197.34 260.626 192.358C260.46 197.105 260.276 201.851 260.173 206.599L260.627 206.415L255.45 200.26L255.072 199.811L254.873 200.381L250.487 209.791L251.157 209.685C244.268 199.88 238.504 189.884 231.353 180.293Z" fill="#263238"/>
<path d="M209.137 161.578C211.56 145.886 201.591 131.071 186.87 128.488C172.149 125.905 158.251 136.532 155.828 152.225C153.406 167.917 163.375 182.732 178.096 185.315C192.817 187.898 206.714 177.271 209.137 161.578Z" fill="#F37435"/>
<g opacity="0.1">
<path d="M188.977 179.778C186.922 180.439 184.744 180.794 182.487 180.794C177.442 180.794 172.786 179.017 169.04 176.018C163.597 171.66 160.075 164.72 160.075 156.903C160.075 147.912 164.734 140.081 171.619 136.004" stroke="black" stroke-width="3" stroke-miterlimit="10"/>
<path d="M204.225 151.068C204.665 152.936 204.899 154.891 204.899 156.904C204.899 165.523 200.617 173.076 194.197 177.279" stroke="black" stroke-width="3" stroke-miterlimit="10"/>
<path d="M174.699 134.496C177.125 133.538 179.748 133.014 182.487 133.014C190.595 133.014 197.698 137.604 201.633 144.48" stroke="black" stroke-width="3" stroke-miterlimit="10"/>
</g>
<path d="M187.847 174.983C187.4 175.457 186.848 175.715 186.253 175.875C185.875 175.976 185.487 176.033 185.103 176.109H183.788C183.249 176.02 182.707 175.951 182.173 175.837C180.175 175.415 178.374 174.494 176.696 173.299C172.317 170.182 168.72 166.25 165.971 161.458C165.066 159.881 164.425 158.182 164.119 156.353C164.04 155.877 163.98 155.397 163.91 154.919V153.518C164.019 152.98 164.106 152.436 164.242 151.906C164.369 151.415 164.606 150.977 164.961 150.592C165.023 150.651 165.084 150.704 165.14 150.762C167.23 152.989 169.319 155.218 171.414 157.44C171.564 157.599 171.591 157.728 171.537 157.947C171.243 159.135 171.439 160.216 172.214 161.155C173.999 163.319 175.904 165.356 177.934 167.259C178.823 168.092 179.846 168.292 180.971 167.974C181.121 167.932 181.23 167.905 181.361 168.045C183.497 170.332 185.64 172.614 187.781 174.898C187.8 174.918 187.816 174.942 187.847 174.983Z" fill="white"/>
<path d="M191.948 169.978V170.445C191.745 170.725 191.564 171.027 191.335 171.28C190.689 171.993 190.023 172.687 189.364 173.387C189.294 173.462 189.221 173.532 189.163 173.59C187.003 171.29 184.857 169.002 182.712 166.718C183.556 165.831 184.4 164.919 185.27 164.037C185.67 163.632 186.234 163.683 186.649 164.114C187.133 164.615 187.606 165.129 188.083 165.638C189.206 166.834 190.333 168.026 191.445 169.232C191.644 169.448 191.782 169.728 191.948 169.978Z" fill="white"/>
<path d="M175.047 153.552C174.247 154.374 173.433 155.179 172.641 155.976C170.576 153.775 168.43 151.489 166.24 149.157C166.383 149.021 166.544 148.88 166.692 148.724C167.28 148.101 167.858 147.464 168.456 146.852C168.687 146.615 168.965 146.43 169.222 146.221H169.66C169.894 146.398 170.156 146.545 170.357 146.758C171.925 148.413 173.481 150.081 175.042 151.744C175.633 152.373 175.644 152.938 175.047 153.552Z" fill="white"/>
<path d="M182.424 158.835C182.424 159.175 182.177 159.438 181.858 159.438H178.213C178.213 159.438 178.213 159.438 178.202 159.438H178.192C178.038 159.438 177.873 159.372 177.77 159.24C177.554 158.988 177.575 158.615 177.801 158.384L180.849 155.443C181.148 155.158 181.282 154.784 181.282 154.39C181.282 154.038 181.168 153.709 180.942 153.435C180.674 153.116 180.314 152.974 179.954 152.974C179.634 152.974 179.315 153.094 179.058 153.336L178.739 153.643C178.502 153.874 178.152 153.852 177.936 153.6C177.73 153.347 177.74 152.974 177.977 152.744L178.296 152.436C178.759 151.975 179.367 151.756 179.954 151.756C180.623 151.756 181.303 152.052 181.786 152.623C182.219 153.117 182.425 153.764 182.425 154.39C182.425 155.104 182.147 155.828 181.612 156.344L179.666 158.221H181.859C182.177 158.22 182.424 158.494 182.424 158.835Z" fill="white"/>
<path d="M189.047 157.396C189.047 157.737 188.79 158 188.471 158H188.368V158.834C188.368 159.174 188.121 159.437 187.801 159.437C187.483 159.437 187.235 159.174 187.235 158.834V158H184.013H184.002H183.992C183.869 158 183.745 157.967 183.642 157.868C183.384 157.66 183.353 157.286 183.549 157.023L187.359 151.974C187.369 151.974 187.369 151.963 187.38 151.952C187.39 151.941 187.4 151.93 187.411 151.908C187.441 151.897 187.452 151.886 187.462 151.875C187.472 151.864 187.493 151.853 187.503 151.842C187.524 151.831 187.534 151.82 187.565 151.82C187.575 151.798 187.586 151.787 187.606 151.787C187.617 151.776 187.637 151.776 187.668 151.765C187.678 151.765 187.699 151.765 187.709 151.754C187.73 151.754 187.761 151.754 187.781 151.754C187.781 151.754 187.792 151.754 187.802 151.754C187.812 151.754 187.812 151.754 187.823 151.754C187.843 151.754 187.875 151.754 187.884 151.754C187.905 151.765 187.915 151.765 187.936 151.765C187.946 151.776 187.977 151.776 187.998 151.787C188.008 151.787 188.029 151.798 188.039 151.798C188.06 151.82 188.08 151.831 188.091 151.842C188.111 151.853 188.121 151.864 188.142 151.875C188.142 151.875 188.152 151.875 188.152 151.886C188.163 151.886 188.183 151.897 188.183 151.908C188.204 151.93 188.214 151.941 188.224 151.952C188.235 151.963 188.245 151.985 188.255 151.996C188.266 152.006 188.277 152.017 188.297 152.05C188.297 152.061 188.307 152.083 188.318 152.094C188.328 152.116 188.328 152.127 188.338 152.16C188.338 152.171 188.349 152.193 188.349 152.204C188.359 152.226 188.359 152.237 188.359 152.27C188.359 152.293 188.369 152.303 188.369 152.325C188.369 152.336 188.369 152.347 188.369 152.358V156.792H188.472C188.79 156.792 189.047 157.067 189.047 157.396ZM187.235 154.081L185.186 156.793H187.235V154.081Z" fill="white"/>
<path d="M190.378 158.604L192.9 152.205C193.024 151.898 193.353 151.755 193.652 151.887C193.93 152.008 194.064 152.37 193.94 152.666L191.417 159.076C191.325 159.307 191.108 159.439 190.892 159.439C190.83 159.439 190.748 159.428 190.686 159.395C190.388 159.274 190.254 158.912 190.378 158.604Z" fill="white"/>
<path d="M199.029 152.588L196.455 159.074C196.372 159.305 196.166 159.437 195.93 159.437C195.868 159.437 195.786 159.426 195.713 159.393C195.425 159.25 195.292 158.899 195.405 158.603L197.629 152.972H194.972C194.664 152.972 194.406 152.687 194.406 152.357C194.406 152.017 194.664 151.754 194.972 151.754H198.504C198.535 151.754 198.566 151.754 198.607 151.765C198.679 151.776 198.751 151.82 198.823 151.853C198.834 151.864 198.844 151.874 198.854 151.886C198.875 151.897 198.885 151.908 198.896 151.93C198.906 151.952 198.926 151.963 198.937 151.974C198.947 151.996 198.957 152.006 198.968 152.017C198.978 152.028 198.989 152.061 198.989 152.072C198.999 152.094 199.009 152.105 199.03 152.127C199.03 152.138 199.04 152.171 199.04 152.182C199.051 152.204 199.051 152.215 199.061 152.237C199.071 152.314 199.071 152.402 199.061 152.479C199.049 152.522 199.039 152.555 199.029 152.588Z" fill="white"/>
<path d="M208.061 98.4802C222.98 98.4802 235.074 85.5875 235.074 69.6835C235.074 53.7795 222.98 40.8867 208.061 40.8867C193.141 40.8867 181.047 53.7795 181.047 69.6835C181.047 85.5875 193.141 98.4802 208.061 98.4802Z" fill="#F37435"/>
<g opacity="0.1">
<path d="M201.571 46.8098C203.626 46.1483 205.804 45.793 208.061 45.793C213.106 45.793 217.762 47.5701 221.507 50.5688C226.951 54.9274 230.473 61.8674 230.473 69.684C230.473 78.675 225.814 86.5058 218.928 90.5834" stroke="black" stroke-width="3" stroke-miterlimit="10"/>
<path d="M186.323 75.5188C185.883 73.6512 185.649 71.6964 185.649 69.6828C185.649 61.0639 189.931 53.5108 196.351 49.3086" stroke="black" stroke-width="3" stroke-miterlimit="10"/>
<path d="M215.848 92.0933C213.422 93.0513 210.799 93.5752 208.061 93.5752C199.952 93.5752 192.849 88.9848 188.915 82.1094" stroke="black" stroke-width="3" stroke-miterlimit="10"/>
</g>
<path d="M224.102 75.6806L222.597 72.8989L221.798 73.3905C221.563 73.5352 221.275 73.521 221.048 73.3634C220.922 73.2762 220.792 73.1961 220.657 73.1231C220.416 72.9926 220.261 72.7329 220.261 72.4442V71.4609H217.247V72.4442C217.247 72.7323 217.092 72.992 216.851 73.1231C216.716 73.1961 216.586 73.2762 216.461 73.3634C216.233 73.521 215.944 73.5352 215.71 73.3905L214.911 72.8989L213.405 75.6806L214.208 76.1729C214.443 76.3176 214.572 76.5921 214.558 76.8815C214.555 76.9597 214.553 77.0385 214.553 77.118C214.553 77.1968 214.555 77.2762 214.558 77.3544C214.572 77.6419 214.444 77.9158 214.21 78.0598L213.406 78.5553L214.912 81.337L215.713 80.8447C215.948 80.7 216.237 80.7142 216.464 80.8725C216.589 80.9597 216.719 81.0398 216.853 81.1122C217.093 81.2427 217.249 81.5024 217.249 81.7905V82.7737H220.262V81.7905C220.262 81.5024 220.417 81.2427 220.658 81.1122C220.792 81.0392 220.921 80.9597 221.046 80.8725C221.274 80.7142 221.563 80.7 221.798 80.8447L222.599 81.337L224.104 78.5553L223.303 78.0624C223.069 77.9184 222.94 77.6438 222.953 77.3557C222.957 77.2769 222.959 77.1974 222.959 77.1173C222.959 77.0385 222.957 76.959 222.953 76.8809C222.939 76.5921 223.069 76.3169 223.304 76.1722L224.102 75.6806ZM221.222 77.118C221.222 78.5708 220.118 79.7472 218.755 79.7472C217.392 79.7472 216.286 78.5702 216.286 77.118C216.286 75.6651 217.392 74.4862 218.755 74.4862C220.118 74.4862 221.222 75.6651 221.222 77.118Z" fill="white"/>
<path d="M202.559 57.6094C197.08 57.6094 192.64 62.3426 192.64 68.1838C192.64 74.0223 197.08 78.7581 202.559 78.7581C208.037 78.7581 212.479 74.0223 212.479 68.1838C212.479 62.342 208.036 57.6094 202.559 57.6094ZM202.559 73.1205C200 73.1205 197.926 70.9112 197.926 68.1831C197.926 65.455 200.001 63.2438 202.559 63.2438C205.118 63.2438 207.193 65.4557 207.193 68.1831C207.193 70.9118 205.118 73.1205 202.559 73.1205Z" fill="white"/>
<path d="M204.466 58.0465H200.651L200.862 55.168H204.255L204.466 58.0465Z" fill="white"/>
<path d="M197.205 59.4176L194.508 62.293L192.748 60.0985L195.147 57.541L197.205 59.4176Z" fill="white"/>
<path d="M192.98 65.8594V69.926L190.28 69.7011V66.0842L192.98 65.8594Z" fill="white"/>
<path d="M194.265 73.5996L196.963 76.475L194.904 78.3516L192.505 75.7941L194.265 73.5996Z" fill="white"/>
<path d="M200.309 78.1035H204.123L203.912 80.9821H200.519L200.309 78.1035Z" fill="white"/>
<path d="M207.569 76.7328L210.267 73.8574L212.027 76.0519L209.627 78.6094L207.569 76.7328Z" fill="white"/>
<path d="M211.794 70.2912V66.2246L214.495 66.4494V70.0664L211.794 70.2912Z" fill="white"/>
<path d="M210.509 62.5508L207.812 59.6755L209.871 57.7988L212.27 60.3563L210.509 62.5508Z" fill="white"/>
<path d="M320.293 54.2949C323.787 38.8331 314.862 23.2793 300.357 19.5546C285.853 15.8298 271.262 25.3447 267.768 40.8065C264.274 56.2684 273.2 71.8222 287.704 75.5469C302.209 79.2716 316.799 69.7568 320.293 54.2949Z" fill="#F37435"/>
<g opacity="0.1">
<path d="M272.574 54.4731C271.953 52.2832 271.62 49.9608 271.62 47.5551C271.62 42.1771 273.287 37.2139 276.1 33.221C280.189 27.418 286.699 23.6641 294.032 23.6641C302.466 23.6641 309.812 28.6305 313.637 35.9704" stroke="black" stroke-width="3" stroke-miterlimit="10"/>
<path d="M299.506 70.7291C297.754 71.1981 295.92 71.4468 294.032 71.4468C285.946 71.4468 278.861 66.8828 274.919 60.0391" stroke="black" stroke-width="3" stroke-miterlimit="10"/>
<path d="M315.053 39.2539C315.952 41.8398 316.443 44.6364 316.443 47.5557C316.443 56.1991 312.137 63.7709 305.688 67.9654" stroke="black" stroke-width="3" stroke-miterlimit="10"/>
</g>
<path d="M288.347 39.9299C288.347 43.2768 290.892 45.99 294.032 45.99C297.171 45.99 299.716 43.2768 299.716 39.9293C299.716 36.5823 297.171 33.8691 294.032 33.8691C290.892 33.8698 288.347 36.583 288.347 39.9299Z" fill="white"/>
<path d="M284.208 56.6468V59.1468C285.831 60.2217 287.635 61.0435 289.595 61.5506C294.663 62.8703 299.748 61.8568 303.856 59.1378V56.6461C303.856 50.8767 299.461 46.1738 294.032 46.1738C288.603 46.1745 284.208 50.8774 284.208 56.6468Z" fill="white"/>
<path d="M180.744 302.007C251.984 301.611 331.9 301.608 403.139 302.007C331.899 302.405 251.984 302.403 180.744 302.007Z" fill="#263238"/>
<path d="M292.422 295.676H286.534V299.774H292.422V295.676Z" fill="#455A64"/>
<path d="M300.058 295.404H294.169V299.503H300.058V295.404Z" fill="#455A64"/>
<path d="M307.694 295.135H301.806V299.233H307.694V295.135Z" fill="#455A64"/>
<path d="M315.329 294.863H309.441V298.962H315.329V294.863Z" fill="#455A64"/>
<path d="M322.966 294.594H317.077V298.692H322.966V294.594Z" fill="#455A64"/>
<path d="M330.601 294.322H324.713V298.42H330.601V294.322Z" fill="#455A64"/>
<path d="M338.238 294.051H332.349V298.149H338.238V294.051Z" fill="#455A64"/>
<path d="M345.874 293.781H339.985V297.879H345.874V293.781Z" fill="#455A64"/>
<path d="M353.51 293.51H347.621V297.608H353.51V293.51Z" fill="#455A64"/>
<path d="M354.951 302.131H285.092V297.145L354.951 295.068V302.131Z" fill="#37474F"/>
<path d="M395.67 282.061H298.832L314.232 205.209H411.07L395.67 282.061Z" fill="#455A64"/>
<path d="M399.252 282.061H302.414L317.814 205.209H414.652L399.252 282.061Z" fill="#37474F"/>
<path d="M366.901 239.181C366.378 242.707 363.273 245.564 359.966 245.564C356.659 245.564 354.403 242.707 354.927 239.181C355.45 235.656 358.555 232.799 361.862 232.799C365.169 232.799 367.425 235.656 366.901 239.181Z" fill="#263238"/>
<path d="M371.864 302.133H324.236V298.19L371.864 296.549V302.133Z" fill="#455A64"/>
<path d="M384.813 302.127H359.242L343.841 259.062H369.413L384.813 302.127Z" fill="#455A64"/>
<path d="M389.022 302.127H363.45L348.05 259.062H373.621L389.022 302.127Z" fill="#263238"/>
<path d="M304.027 302.132C304.027 302.132 262.738 302.132 258.885 302.132C255.031 302.132 260.606 290.438 274.666 285.952C288.726 281.466 308.462 297.746 304.027 302.132Z" fill="#37474F"/>
<path d="M286.312 302.133C286.199 300.786 286.374 299.431 286.694 298.122C287.011 296.809 287.526 295.549 288.176 294.367C288.832 293.189 289.684 292.125 290.671 291.249C291.634 290.337 292.823 289.728 294.018 289.336C293.073 290.243 292.142 291.04 291.377 292.028C290.605 292.99 289.876 293.983 289.289 295.083C288.054 297.247 287.151 299.613 286.312 302.133Z" fill="#263238"/>
<path d="M291.662 291.006C293.055 291.315 294.387 291.841 295.675 292.465C296.967 293.085 298.196 293.855 299.369 294.724C300.533 295.603 301.624 296.637 302.513 297.868C303.39 299.076 304.115 300.583 304.027 302.132C303.568 300.689 302.693 299.589 301.749 298.581C300.784 297.591 299.74 296.673 298.614 295.852C296.397 294.156 294.024 292.668 291.662 291.006Z" fill="#263238"/>
<path d="M359.258 127.91H294.642V154.096L284.048 163.66H294.642V167.667H359.258V127.91Z" fill="white"/>
<path d="M359.258 127.91C343.144 128.009 310.748 128.095 294.642 128.122L294.841 127.91L294.898 154.096V154.222L294.807 154.304L284.233 163.892L284.048 163.355L294.641 163.342L294.94 163.342L294.939 163.659L294.931 167.667C293.194 166.832 359.6 167.692 359.257 167.431C359.257 167.431 359.037 167.667 359.037 167.667C359.037 157.761 359.183 137.816 359.258 127.91ZM359.258 127.91C359.329 137.819 359.474 157.757 359.479 167.667L359.48 167.902C358.883 167.899 294.938 167.977 294.354 167.975L294.353 167.667L294.345 163.659L294.643 163.977L284.049 163.964L283.269 163.963L283.865 163.428L294.478 153.888L294.387 154.096L294.444 127.91L294.445 127.697L294.644 127.698C310.742 127.728 343.163 127.814 359.258 127.91Z" fill="#263238"/>
<path d="M348.336 149.4H301.069V150.259H348.336V149.4Z" fill="#263238"/>
<path d="M340.569 154.037H301.069V154.896H340.569V154.037Z" fill="#263238"/>
<path d="M342.834 140.129H301.069V140.987H342.834V140.129Z" fill="#263238"/>
<path d="M352.697 135.494H301.069V136.353H352.697V135.494Z" fill="#263238"/>
<path d="M343.681 158.672H301.069V159.53H343.681V158.672Z" fill="#263238"/>
</svg>
