<svg width="81" height="81" viewBox="0 0 81 81" fill="none" xmlns="http://www.w3.org/2000/svg">
<g clip-path="url(#clip0_1963_15081)">
<path d="M66.6811 15.3037C59.2684 13.8135 52.1367 11.1655 45.5478 7.45706C44.1505 6.6385 42.5605 6.20703 40.9411 6.20703C39.3217 6.20703 37.7316 6.6385 36.3344 7.45706C29.7455 11.1655 22.6136 13.8135 15.2011 15.3037C13.1418 15.7375 11.2931 16.863 9.96202 18.493C8.63098 20.123 7.89782 22.1594 7.8844 24.2637V30.0905C7.84346 38.1565 9.87282 46.0981 13.7784 53.1558C17.6839 60.2134 23.335 66.1509 30.1911 70.4005L36.1011 74.067C37.5503 74.9733 39.2251 75.4537 40.9344 75.4537C42.6436 75.4537 44.3184 74.9733 45.7678 74.067L51.6744 70.4005C58.5336 66.153 64.188 60.2164 68.0966 53.1586C72.005 46.1008 74.0369 38.1581 73.9978 30.0905V24.2637C73.9844 22.1594 73.2512 20.123 71.9201 18.493C70.5891 16.863 68.7403 15.7375 66.6811 15.3037Z" fill="#00EC7E"/>
<path d="M44.2742 46.6434C43.9459 46.6441 43.6206 46.5798 43.3173 46.4538C43.0141 46.328 42.7389 46.1432 42.5077 45.9101L35.8409 39.2434C35.3994 38.7695 35.1589 38.1426 35.1703 37.4949C35.1817 36.8473 35.4442 36.2293 35.9022 35.7713C36.3602 35.3132 36.9781 35.0509 37.6258 35.0395C38.2736 35.028 38.9003 35.2684 39.3742 35.7101L44.2742 40.6066L59.1742 25.7101C59.6481 25.2684 60.275 25.028 60.9227 25.0395C61.5703 25.0509 62.1883 25.3132 62.6464 25.7713C63.1044 26.2293 63.3667 26.8473 63.3781 27.4949C63.3895 28.1426 63.1492 28.7695 62.7077 29.2434L46.0409 45.9101C45.8097 46.1432 45.5344 46.328 45.2311 46.4538C44.9278 46.5798 44.6027 46.6441 44.2742 46.6434Z" fill="#FFEC29"/>
<path d="M40.9418 54.9773C38.3733 54.9818 35.8422 54.3615 33.5671 53.1698C31.2918 51.9781 29.3407 50.2507 27.8818 48.1368C26.423 46.0228 25.5004 43.5857 25.1935 41.0356C24.8866 38.4856 25.2047 35.8992 26.1204 33.4995C27.036 31.0998 28.5216 28.9588 30.4493 27.2613C32.3768 25.5638 34.6883 24.3607 37.1846 23.7559C39.6808 23.151 42.2868 23.1624 44.7776 23.7893C47.2683 24.4162 49.5691 25.6395 51.4818 27.3538C51.7499 27.5656 51.9718 27.8299 52.1338 28.1307C52.2958 28.4315 52.3944 28.7623 52.4237 29.1026C52.4529 29.4431 52.4119 29.7857 52.3035 30.1098C52.1951 30.4337 52.0213 30.732 51.7932 30.9862C51.5649 31.2404 51.2871 31.4451 50.9766 31.5878C50.6661 31.7304 50.3299 31.8079 49.9883 31.8156C49.6468 31.8232 49.3072 31.7607 48.9908 31.632C48.6744 31.5032 48.3877 31.311 48.1483 31.0671C46.1712 29.2865 43.6027 28.304 40.9418 28.3106C38.0685 28.3106 35.313 29.452 33.2815 31.4835C31.2497 33.5153 30.1083 36.2707 30.1083 39.1438C30.1083 42.0171 31.2497 44.7726 33.2815 46.8042C35.313 48.8359 38.0685 49.9773 40.9418 49.9773C41.5112 49.9731 42.0794 49.9263 42.6418 49.8373C43.6757 49.6738 44.6791 49.3559 45.6183 48.8938C47.8366 47.8396 49.6246 46.054 50.6818 43.8373C50.9665 43.2382 51.4774 42.777 52.1021 42.5546C52.7269 42.3324 53.4144 42.3676 54.0133 42.6523C54.6124 42.9368 55.0737 43.4478 55.296 44.0726C55.5182 44.6974 55.483 45.3849 55.1983 45.9838C53.6494 49.232 51.0326 51.8501 47.7851 53.4006C46.3971 54.0785 44.9149 54.5438 43.3883 54.7806C42.5788 54.9067 41.761 54.9724 40.9418 54.9773Z" fill="white"/>
</g>
<defs>
<clipPath id="clip0_1963_15081">
<rect width="80" height="80" fill="white" transform="translate(0.941406 0.810547)"/>
</clipPath>
</defs>
</svg>
