<svg width="103" height="53" viewBox="0 0 103 53" fill="none" xmlns="http://www.w3.org/2000/svg">
<circle cx="100.805" cy="50.9352" r="2.06626" transform="rotate(180 100.805 50.9352)" fill="#F37435"/>
<circle cx="93.2291" cy="50.9352" r="2.06626" transform="rotate(180 93.2291 50.9352)" fill="#F37435"/>
<circle cx="85.6525" cy="50.9352" r="2.06626" transform="rotate(180 85.6525 50.9352)" fill="#F37435"/>
<circle cx="78.0763" cy="50.9352" r="2.06626" transform="rotate(180 78.0763 50.9352)" fill="#F37435"/>
<circle cx="70.5001" cy="50.9352" r="2.06626" transform="rotate(180 70.5001 50.9352)" fill="#F37435"/>
<circle cx="62.924" cy="50.9352" r="2.06626" transform="rotate(180 62.924 50.9352)" fill="#F37435"/>
<circle cx="55.3473" cy="50.9352" r="2.06626" transform="rotate(180 55.3473 50.9352)" fill="#F37435"/>
<circle cx="100.805" cy="44.0485" r="2.06626" transform="rotate(180 100.805 44.0485)" fill="#F37435"/>
<circle cx="93.2291" cy="44.0485" r="2.06626" transform="rotate(180 93.2291 44.0485)" fill="#F37435"/>
<circle cx="85.6525" cy="44.0485" r="2.06626" transform="rotate(180 85.6525 44.0485)" fill="#F37435"/>
<circle cx="78.0763" cy="44.0485" r="2.06626" transform="rotate(180 78.0763 44.0485)" fill="#F37435"/>
<circle cx="70.5001" cy="44.0485" r="2.06626" transform="rotate(180 70.5001 44.0485)" fill="#F37435"/>
<circle cx="62.924" cy="44.0485" r="2.06626" transform="rotate(180 62.924 44.0485)" fill="#F37435"/>
<circle cx="55.3473" cy="44.0485" r="2.06626" transform="rotate(180 55.3473 44.0485)" fill="#F37435"/>
<circle cx="100.805" cy="37.1598" r="2.06626" transform="rotate(180 100.805 37.1598)" fill="#F37435"/>
<circle cx="93.2291" cy="37.1598" r="2.06626" transform="rotate(180 93.2291 37.1598)" fill="#F37435"/>
<circle cx="85.6525" cy="37.1598" r="2.06626" transform="rotate(180 85.6525 37.1598)" fill="#F37435"/>
<circle cx="78.0763" cy="37.1598" r="2.06626" transform="rotate(180 78.0763 37.1598)" fill="#F37435"/>
<circle cx="70.5001" cy="37.1598" r="2.06626" transform="rotate(180 70.5001 37.1598)" fill="#F37435"/>
<circle cx="62.924" cy="37.1598" r="2.06626" transform="rotate(180 62.924 37.1598)" fill="#F37435"/>
<circle cx="55.3473" cy="37.1598" r="2.06626" transform="rotate(180 55.3473 37.1598)" fill="#F37435"/>
<circle cx="100.805" cy="30.2731" r="2.06626" transform="rotate(180 100.805 30.2731)" fill="#F37435"/>
<circle cx="93.2291" cy="30.2731" r="2.06626" transform="rotate(180 93.2291 30.2731)" fill="#F37435"/>
<circle cx="85.6525" cy="30.2731" r="2.06626" transform="rotate(180 85.6525 30.2731)" fill="#F37435"/>
<circle cx="78.0763" cy="30.2731" r="2.06626" transform="rotate(180 78.0763 30.2731)" fill="#F37435"/>
<circle cx="70.5001" cy="30.2731" r="2.06626" transform="rotate(180 70.5001 30.2731)" fill="#F37435"/>
<circle cx="62.924" cy="30.2731" r="2.06626" transform="rotate(180 62.924 30.2731)" fill="#F37435"/>
<circle cx="55.3473" cy="30.2731" r="2.06626" transform="rotate(180 55.3473 30.2731)" fill="#F37435"/>
<circle cx="100.805" cy="23.3844" r="2.06626" transform="rotate(180 100.805 23.3844)" fill="#F37435"/>
<circle cx="93.2291" cy="23.3844" r="2.06626" transform="rotate(180 93.2291 23.3844)" fill="#F37435"/>
<circle cx="85.6525" cy="23.3844" r="2.06626" transform="rotate(180 85.6525 23.3844)" fill="#F37435"/>
<circle cx="78.0763" cy="23.3844" r="2.06626" transform="rotate(180 78.0763 23.3844)" fill="#F37435"/>
<circle cx="70.5001" cy="23.3844" r="2.06626" transform="rotate(180 70.5001 23.3844)" fill="#F37435"/>
<circle cx="62.924" cy="23.3844" r="2.06626" transform="rotate(180 62.924 23.3844)" fill="#F37435"/>
<circle cx="55.3473" cy="23.3844" r="2.06626" transform="rotate(180 55.3473 23.3844)" fill="#F37435"/>
<circle cx="100.805" cy="16.4975" r="2.06626" transform="rotate(180 100.805 16.4975)" fill="#F37435"/>
<circle cx="93.2291" cy="16.4975" r="2.06626" transform="rotate(180 93.2291 16.4975)" fill="#F37435"/>
<circle cx="85.6525" cy="16.4975" r="2.06626" transform="rotate(180 85.6525 16.4975)" fill="#F37435"/>
<circle cx="78.0763" cy="16.4975" r="2.06626" transform="rotate(180 78.0763 16.4975)" fill="#F37435"/>
<circle cx="70.5001" cy="16.4975" r="2.06626" transform="rotate(180 70.5001 16.4975)" fill="#F37435"/>
<circle cx="62.924" cy="16.4975" r="2.06626" transform="rotate(180 62.924 16.4975)" fill="#F37435"/>
<circle cx="55.3473" cy="16.4975" r="2.06626" transform="rotate(180 55.3473 16.4975)" fill="#F37435"/>
<circle cx="100.805" cy="9.60903" r="2.06626" transform="rotate(180 100.805 9.60903)" fill="#F37435"/>
<circle cx="93.2291" cy="9.60903" r="2.06626" transform="rotate(180 93.2291 9.60903)" fill="#F37435"/>
<circle cx="85.6525" cy="9.60903" r="2.06626" transform="rotate(180 85.6525 9.60903)" fill="#F37435"/>
<circle cx="78.0763" cy="9.60903" r="2.06626" transform="rotate(180 78.0763 9.60903)" fill="#F37435"/>
<circle cx="70.5001" cy="9.60903" r="2.06626" transform="rotate(180 70.5001 9.60903)" fill="#F37435"/>
<circle cx="62.924" cy="9.60903" r="2.06626" transform="rotate(180 62.924 9.60903)" fill="#F37435"/>
<circle cx="55.3473" cy="9.60903" r="2.06626" transform="rotate(180 55.3473 9.60903)" fill="#F37435"/>
<circle cx="100.805" cy="2.72247" r="2.06626" transform="rotate(180 100.805 2.72247)" fill="#F37435"/>
<circle cx="93.2291" cy="2.72247" r="2.06626" transform="rotate(180 93.2291 2.72247)" fill="#F37435"/>
<circle cx="85.6525" cy="2.72247" r="2.06626" transform="rotate(180 85.6525 2.72247)" fill="#F37435"/>
<circle cx="78.0763" cy="2.72247" r="2.06626" transform="rotate(180 78.0763 2.72247)" fill="#F37435"/>
<circle cx="70.5001" cy="2.72247" r="2.06626" transform="rotate(180 70.5001 2.72247)" fill="#F37435"/>
<circle cx="62.924" cy="2.72247" r="2.06626" transform="rotate(180 62.924 2.72247)" fill="#F37435"/>
<circle cx="55.3473" cy="2.72247" r="2.06626" transform="rotate(180 55.3473 2.72247)" fill="#F37435"/>
<circle cx="47.7526" cy="50.9352" r="2.06626" transform="rotate(180 47.7526 50.9352)" fill="#F37435"/>
<circle cx="40.1764" cy="50.9352" r="2.06626" transform="rotate(180 40.1764 50.9352)" fill="#F37435"/>
<circle cx="32.6002" cy="50.9352" r="2.06626" transform="rotate(180 32.6002 50.9352)" fill="#F37435"/>
<circle cx="25.0236" cy="50.9352" r="2.06626" transform="rotate(180 25.0236 50.9352)" fill="#F37435"/>
<circle cx="17.4474" cy="50.9352" r="2.06626" transform="rotate(180 17.4474 50.9352)" fill="#F37435"/>
<circle cx="9.87124" cy="50.9352" r="2.06626" transform="rotate(180 9.87124 50.9352)" fill="#F37435"/>
<circle cx="2.29458" cy="50.9352" r="2.06626" transform="rotate(180 2.29458 50.9352)" fill="#F37435"/>
<circle cx="47.7526" cy="44.0485" r="2.06626" transform="rotate(180 47.7526 44.0485)" fill="#F37435"/>
<circle cx="40.1764" cy="44.0485" r="2.06626" transform="rotate(180 40.1764 44.0485)" fill="#F37435"/>
<circle cx="32.6002" cy="44.0485" r="2.06626" transform="rotate(180 32.6002 44.0485)" fill="#F37435"/>
<circle cx="25.0236" cy="44.0485" r="2.06626" transform="rotate(180 25.0236 44.0485)" fill="#F37435"/>
<circle cx="17.4474" cy="44.0485" r="2.06626" transform="rotate(180 17.4474 44.0485)" fill="#F37435"/>
<circle cx="9.87124" cy="44.0485" r="2.06626" transform="rotate(180 9.87124 44.0485)" fill="#F37435"/>
<circle cx="2.29458" cy="44.0485" r="2.06626" transform="rotate(180 2.29458 44.0485)" fill="#F37435"/>
<circle cx="47.7526" cy="37.1598" r="2.06626" transform="rotate(180 47.7526 37.1598)" fill="#F37435"/>
<circle cx="40.1764" cy="37.1598" r="2.06626" transform="rotate(180 40.1764 37.1598)" fill="#F37435"/>
<circle cx="32.6002" cy="37.1598" r="2.06626" transform="rotate(180 32.6002 37.1598)" fill="#F37435"/>
<circle cx="25.0236" cy="37.1598" r="2.06626" transform="rotate(180 25.0236 37.1598)" fill="#F37435"/>
<circle cx="17.4474" cy="37.1598" r="2.06626" transform="rotate(180 17.4474 37.1598)" fill="#F37435"/>
<circle cx="9.87124" cy="37.1598" r="2.06626" transform="rotate(180 9.87124 37.1598)" fill="#F37435"/>
<circle cx="2.29458" cy="37.1598" r="2.06626" transform="rotate(180 2.29458 37.1598)" fill="#F37435"/>
<circle cx="47.7526" cy="30.2731" r="2.06626" transform="rotate(180 47.7526 30.2731)" fill="#F37435"/>
<circle cx="40.1764" cy="30.2731" r="2.06626" transform="rotate(180 40.1764 30.2731)" fill="#F37435"/>
<circle cx="32.6002" cy="30.2731" r="2.06626" transform="rotate(180 32.6002 30.2731)" fill="#F37435"/>
<circle cx="25.0236" cy="30.2731" r="2.06626" transform="rotate(180 25.0236 30.2731)" fill="#F37435"/>
<circle cx="17.4474" cy="30.2731" r="2.06626" transform="rotate(180 17.4474 30.2731)" fill="#F37435"/>
<circle cx="9.87124" cy="30.2731" r="2.06626" transform="rotate(180 9.87124 30.2731)" fill="#F37435"/>
<circle cx="2.29458" cy="30.2731" r="2.06626" transform="rotate(180 2.29458 30.2731)" fill="#F37435"/>
<circle cx="47.7526" cy="23.3844" r="2.06626" transform="rotate(180 47.7526 23.3844)" fill="#F37435"/>
<circle cx="40.1764" cy="23.3844" r="2.06626" transform="rotate(180 40.1764 23.3844)" fill="#F37435"/>
<circle cx="32.6002" cy="23.3844" r="2.06626" transform="rotate(180 32.6002 23.3844)" fill="#F37435"/>
<circle cx="25.0236" cy="23.3844" r="2.06626" transform="rotate(180 25.0236 23.3844)" fill="#F37435"/>
<circle cx="17.4474" cy="23.3844" r="2.06626" transform="rotate(180 17.4474 23.3844)" fill="#F37435"/>
<circle cx="9.87124" cy="23.3844" r="2.06626" transform="rotate(180 9.87124 23.3844)" fill="#F37435"/>
<circle cx="2.29458" cy="23.3844" r="2.06626" transform="rotate(180 2.29458 23.3844)" fill="#F37435"/>
<circle cx="47.7526" cy="16.4975" r="2.06626" transform="rotate(180 47.7526 16.4975)" fill="#F37435"/>
<circle cx="40.1764" cy="16.4975" r="2.06626" transform="rotate(180 40.1764 16.4975)" fill="#F37435"/>
<circle cx="32.6002" cy="16.4975" r="2.06626" transform="rotate(180 32.6002 16.4975)" fill="#F37435"/>
<circle cx="25.0236" cy="16.4975" r="2.06626" transform="rotate(180 25.0236 16.4975)" fill="#F37435"/>
<circle cx="17.4474" cy="16.4975" r="2.06626" transform="rotate(180 17.4474 16.4975)" fill="#F37435"/>
<circle cx="9.87124" cy="16.4975" r="2.06626" transform="rotate(180 9.87124 16.4975)" fill="#F37435"/>
<circle cx="2.29458" cy="16.4975" r="2.06626" transform="rotate(180 2.29458 16.4975)" fill="#F37435"/>
<circle cx="47.7526" cy="9.60903" r="2.06626" transform="rotate(180 47.7526 9.60903)" fill="#F37435"/>
<circle cx="40.1764" cy="9.60903" r="2.06626" transform="rotate(180 40.1764 9.60903)" fill="#F37435"/>
<circle cx="32.6002" cy="9.60903" r="2.06626" transform="rotate(180 32.6002 9.60903)" fill="#F37435"/>
<circle cx="25.0236" cy="9.60903" r="2.06626" transform="rotate(180 25.0236 9.60903)" fill="#F37435"/>
<circle cx="17.4474" cy="9.60903" r="2.06626" transform="rotate(180 17.4474 9.60903)" fill="#F37435"/>
<circle cx="9.87124" cy="9.60903" r="2.06626" transform="rotate(180 9.87124 9.60903)" fill="#F37435"/>
<circle cx="2.29458" cy="9.60903" r="2.06626" transform="rotate(180 2.29458 9.60903)" fill="#F37435"/>
<circle cx="47.7526" cy="2.72247" r="2.06626" transform="rotate(180 47.7526 2.72247)" fill="#F37435"/>
<circle cx="40.1764" cy="2.72247" r="2.06626" transform="rotate(180 40.1764 2.72247)" fill="#F37435"/>
<circle cx="32.5998" cy="2.72247" r="2.06626" transform="rotate(180 32.5998 2.72247)" fill="#F37435"/>
<circle cx="25.0236" cy="2.72247" r="2.06626" transform="rotate(180 25.0236 2.72247)" fill="#F37435"/>
<circle cx="17.4474" cy="2.72247" r="2.06626" transform="rotate(180 17.4474 2.72247)" fill="#F37435"/>
<circle cx="9.87124" cy="2.72247" r="2.06626" transform="rotate(180 9.87124 2.72247)" fill="#F37435"/>
<circle cx="2.29458" cy="2.72247" r="2.06626" transform="rotate(180 2.29458 2.72247)" fill="#F37435"/>
</svg>
