<svg width="209" height="54" viewBox="0 0 209 54" fill="none" xmlns="http://www.w3.org/2000/svg">
<circle cx="206.853" cy="50.9625" r="2.06626" transform="rotate(180 206.853 50.9625)" fill="#F37435"/>
<circle cx="199.277" cy="50.9625" r="2.06626" transform="rotate(180 199.277 50.9625)" fill="#F37435"/>
<circle cx="191.7" cy="50.9625" r="2.06626" transform="rotate(180 191.7 50.9625)" fill="#F37435"/>
<circle cx="184.124" cy="50.9625" r="2.06626" transform="rotate(180 184.124 50.9625)" fill="#F37435"/>
<circle cx="176.548" cy="50.9625" r="2.06626" transform="rotate(180 176.548 50.9625)" fill="#F37435"/>
<circle cx="168.971" cy="50.9625" r="2.06626" transform="rotate(180 168.971 50.9625)" fill="#F37435"/>
<circle cx="161.395" cy="50.9625" r="2.06626" transform="rotate(180 161.395 50.9625)" fill="#F37435"/>
<circle cx="206.853" cy="44.0758" r="2.06626" transform="rotate(180 206.853 44.0758)" fill="#F37435"/>
<circle cx="199.277" cy="44.0758" r="2.06626" transform="rotate(180 199.277 44.0758)" fill="#F37435"/>
<circle cx="191.7" cy="44.0758" r="2.06626" transform="rotate(180 191.7 44.0758)" fill="#F37435"/>
<circle cx="184.123" cy="44.0758" r="2.06626" transform="rotate(180 184.123 44.0758)" fill="#F37435"/>
<circle cx="176.547" cy="44.0758" r="2.06626" transform="rotate(180 176.547 44.0758)" fill="#F37435"/>
<circle cx="168.971" cy="44.0758" r="2.06626" transform="rotate(180 168.971 44.0758)" fill="#F37435"/>
<circle cx="161.395" cy="44.0758" r="2.06626" transform="rotate(180 161.395 44.0758)" fill="#F37435"/>
<circle cx="206.853" cy="37.1872" r="2.06626" transform="rotate(180 206.853 37.1872)" fill="#F37435"/>
<circle cx="199.277" cy="37.1872" r="2.06626" transform="rotate(180 199.277 37.1872)" fill="#F37435"/>
<circle cx="191.7" cy="37.1872" r="2.06626" transform="rotate(180 191.7 37.1872)" fill="#F37435"/>
<circle cx="184.124" cy="37.1872" r="2.06626" transform="rotate(180 184.124 37.1872)" fill="#F37435"/>
<circle cx="176.548" cy="37.1872" r="2.06626" transform="rotate(180 176.548 37.1872)" fill="#F37435"/>
<circle cx="168.971" cy="37.1872" r="2.06626" transform="rotate(180 168.971 37.1872)" fill="#F37435"/>
<circle cx="161.395" cy="37.1872" r="2.06626" transform="rotate(180 161.395 37.1872)" fill="#F37435"/>
<circle cx="206.853" cy="30.3004" r="2.06626" transform="rotate(180 206.853 30.3004)" fill="#F37435"/>
<circle cx="199.277" cy="30.3004" r="2.06626" transform="rotate(180 199.277 30.3004)" fill="#F37435"/>
<circle cx="191.7" cy="30.3004" r="2.06626" transform="rotate(180 191.7 30.3004)" fill="#F37435"/>
<circle cx="184.124" cy="30.3004" r="2.06626" transform="rotate(180 184.124 30.3004)" fill="#F37435"/>
<circle cx="176.548" cy="30.3004" r="2.06626" transform="rotate(180 176.548 30.3004)" fill="#F37435"/>
<circle cx="168.971" cy="30.3004" r="2.06626" transform="rotate(180 168.971 30.3004)" fill="#F37435"/>
<circle cx="161.395" cy="30.3004" r="2.06626" transform="rotate(180 161.395 30.3004)" fill="#F37435"/>
<circle cx="206.853" cy="23.4118" r="2.06626" transform="rotate(180 206.853 23.4118)" fill="#F37435"/>
<circle cx="199.277" cy="23.4118" r="2.06626" transform="rotate(180 199.277 23.4118)" fill="#F37435"/>
<circle cx="191.7" cy="23.4118" r="2.06626" transform="rotate(180 191.7 23.4118)" fill="#F37435"/>
<circle cx="184.123" cy="23.4118" r="2.06626" transform="rotate(180 184.123 23.4118)" fill="#F37435"/>
<circle cx="176.547" cy="23.4118" r="2.06626" transform="rotate(180 176.547 23.4118)" fill="#F37435"/>
<circle cx="168.972" cy="23.4118" r="2.06626" transform="rotate(180 168.972 23.4118)" fill="#F37435"/>
<circle cx="161.396" cy="23.4118" r="2.06626" transform="rotate(180 161.396 23.4118)" fill="#F37435"/>
<circle cx="206.853" cy="16.5248" r="2.06626" transform="rotate(180 206.853 16.5248)" fill="#F37435"/>
<circle cx="199.277" cy="16.5248" r="2.06626" transform="rotate(180 199.277 16.5248)" fill="#F37435"/>
<circle cx="191.7" cy="16.5248" r="2.06626" transform="rotate(180 191.7 16.5248)" fill="#F37435"/>
<circle cx="184.124" cy="16.5248" r="2.06626" transform="rotate(180 184.124 16.5248)" fill="#F37435"/>
<circle cx="176.548" cy="16.5248" r="2.06626" transform="rotate(180 176.548 16.5248)" fill="#F37435"/>
<circle cx="168.971" cy="16.5248" r="2.06626" transform="rotate(180 168.971 16.5248)" fill="#F37435"/>
<circle cx="161.395" cy="16.5248" r="2.06626" transform="rotate(180 161.395 16.5248)" fill="#F37435"/>
<circle cx="206.853" cy="9.63638" r="2.06626" transform="rotate(180 206.853 9.63638)" fill="#F37435"/>
<circle cx="199.277" cy="9.63638" r="2.06626" transform="rotate(180 199.277 9.63638)" fill="#F37435"/>
<circle cx="191.7" cy="9.63638" r="2.06626" transform="rotate(180 191.7 9.63638)" fill="#F37435"/>
<circle cx="184.124" cy="9.63637" r="2.06626" transform="rotate(180 184.124 9.63637)" fill="#F37435"/>
<circle cx="176.548" cy="9.63637" r="2.06626" transform="rotate(180 176.548 9.63637)" fill="#F37435"/>
<circle cx="168.972" cy="9.63638" r="2.06626" transform="rotate(180 168.972 9.63638)" fill="#F37435"/>
<circle cx="161.396" cy="9.63638" r="2.06626" transform="rotate(180 161.396 9.63638)" fill="#F37435"/>
<circle cx="206.853" cy="2.74978" r="2.06626" transform="rotate(180 206.853 2.74978)" fill="#F37435"/>
<circle cx="199.277" cy="2.74978" r="2.06626" transform="rotate(180 199.277 2.74978)" fill="#F37435"/>
<circle cx="191.7" cy="2.74978" r="2.06626" transform="rotate(180 191.7 2.74978)" fill="#F37435"/>
<circle cx="184.124" cy="2.74978" r="2.06626" transform="rotate(180 184.124 2.74978)" fill="#F37435"/>
<circle cx="176.548" cy="2.74978" r="2.06626" transform="rotate(180 176.548 2.74978)" fill="#F37435"/>
<circle cx="168.971" cy="2.74978" r="2.06626" transform="rotate(180 168.971 2.74978)" fill="#F37435"/>
<circle cx="161.395" cy="2.74978" r="2.06626" transform="rotate(180 161.395 2.74978)" fill="#F37435"/>
<circle cx="153.8" cy="50.9625" r="2.06626" transform="rotate(180 153.8 50.9625)" fill="#F37435"/>
<circle cx="146.224" cy="50.9625" r="2.06626" transform="rotate(180 146.224 50.9625)" fill="#F37435"/>
<circle cx="138.648" cy="50.9625" r="2.06626" transform="rotate(180 138.648 50.9625)" fill="#F37435"/>
<circle cx="131.071" cy="50.9625" r="2.06626" transform="rotate(180 131.071 50.9625)" fill="#F37435"/>
<circle cx="123.494" cy="50.9625" r="2.06626" transform="rotate(180 123.494 50.9625)" fill="#F37435"/>
<circle cx="115.918" cy="50.9625" r="2.06626" transform="rotate(180 115.918 50.9625)" fill="#F37435"/>
<circle cx="108.342" cy="50.9625" r="2.06626" transform="rotate(180 108.342 50.9625)" fill="#F37435"/>
<circle cx="153.8" cy="44.0758" r="2.06626" transform="rotate(180 153.8 44.0758)" fill="#F37435"/>
<circle cx="146.224" cy="44.0758" r="2.06626" transform="rotate(180 146.224 44.0758)" fill="#F37435"/>
<circle cx="138.648" cy="44.0758" r="2.06626" transform="rotate(180 138.648 44.0758)" fill="#F37435"/>
<circle cx="131.07" cy="44.0758" r="2.06626" transform="rotate(180 131.07 44.0758)" fill="#F37435"/>
<circle cx="123.494" cy="44.0758" r="2.06626" transform="rotate(180 123.494 44.0758)" fill="#F37435"/>
<circle cx="115.918" cy="44.0758" r="2.06626" transform="rotate(180 115.918 44.0758)" fill="#F37435"/>
<circle cx="108.342" cy="44.0758" r="2.06626" transform="rotate(180 108.342 44.0758)" fill="#F37435"/>
<circle cx="153.8" cy="37.1871" r="2.06626" transform="rotate(180 153.8 37.1871)" fill="#F37435"/>
<circle cx="146.224" cy="37.1871" r="2.06626" transform="rotate(180 146.224 37.1871)" fill="#F37435"/>
<circle cx="138.647" cy="37.1871" r="2.06626" transform="rotate(180 138.647 37.1871)" fill="#F37435"/>
<circle cx="131.071" cy="37.1871" r="2.06626" transform="rotate(180 131.071 37.1871)" fill="#F37435"/>
<circle cx="123.495" cy="37.1871" r="2.06626" transform="rotate(180 123.495 37.1871)" fill="#F37435"/>
<circle cx="115.918" cy="37.1871" r="2.06626" transform="rotate(180 115.918 37.1871)" fill="#F37435"/>
<circle cx="108.342" cy="37.1871" r="2.06626" transform="rotate(180 108.342 37.1871)" fill="#F37435"/>
<circle cx="153.8" cy="30.3004" r="2.06626" transform="rotate(180 153.8 30.3004)" fill="#F37435"/>
<circle cx="146.224" cy="30.3004" r="2.06626" transform="rotate(180 146.224 30.3004)" fill="#F37435"/>
<circle cx="138.648" cy="30.3004" r="2.06626" transform="rotate(180 138.648 30.3004)" fill="#F37435"/>
<circle cx="131.071" cy="30.3004" r="2.06626" transform="rotate(180 131.071 30.3004)" fill="#F37435"/>
<circle cx="123.495" cy="30.3004" r="2.06626" transform="rotate(180 123.495 30.3004)" fill="#F37435"/>
<circle cx="115.918" cy="30.3004" r="2.06626" transform="rotate(180 115.918 30.3004)" fill="#F37435"/>
<circle cx="108.342" cy="30.3004" r="2.06626" transform="rotate(180 108.342 30.3004)" fill="#F37435"/>
<circle cx="153.8" cy="23.4117" r="2.06626" transform="rotate(180 153.8 23.4117)" fill="#F37435"/>
<circle cx="146.224" cy="23.4117" r="2.06626" transform="rotate(180 146.224 23.4117)" fill="#F37435"/>
<circle cx="138.648" cy="23.4117" r="2.06626" transform="rotate(180 138.648 23.4117)" fill="#F37435"/>
<circle cx="131.07" cy="23.4117" r="2.06626" transform="rotate(180 131.07 23.4117)" fill="#F37435"/>
<circle cx="123.494" cy="23.4117" r="2.06626" transform="rotate(180 123.494 23.4117)" fill="#F37435"/>
<circle cx="115.919" cy="23.4117" r="2.06626" transform="rotate(180 115.919 23.4117)" fill="#F37435"/>
<circle cx="108.343" cy="23.4117" r="2.06626" transform="rotate(180 108.343 23.4117)" fill="#F37435"/>
<circle cx="153.8" cy="16.5248" r="2.06626" transform="rotate(180 153.8 16.5248)" fill="#F37435"/>
<circle cx="146.224" cy="16.5248" r="2.06626" transform="rotate(180 146.224 16.5248)" fill="#F37435"/>
<circle cx="138.648" cy="16.5248" r="2.06626" transform="rotate(180 138.648 16.5248)" fill="#F37435"/>
<circle cx="131.071" cy="16.5248" r="2.06626" transform="rotate(180 131.071 16.5248)" fill="#F37435"/>
<circle cx="123.494" cy="16.5248" r="2.06626" transform="rotate(180 123.494 16.5248)" fill="#F37435"/>
<circle cx="115.918" cy="16.5248" r="2.06626" transform="rotate(180 115.918 16.5248)" fill="#F37435"/>
<circle cx="108.342" cy="16.5248" r="2.06626" transform="rotate(180 108.342 16.5248)" fill="#F37435"/>
<circle cx="153.8" cy="9.63635" r="2.06626" transform="rotate(180 153.8 9.63635)" fill="#F37435"/>
<circle cx="146.224" cy="9.63635" r="2.06626" transform="rotate(180 146.224 9.63635)" fill="#F37435"/>
<circle cx="138.648" cy="9.63636" r="2.06626" transform="rotate(180 138.648 9.63636)" fill="#F37435"/>
<circle cx="131.071" cy="9.63635" r="2.06626" transform="rotate(180 131.071 9.63635)" fill="#F37435"/>
<circle cx="123.495" cy="9.63635" r="2.06626" transform="rotate(180 123.495 9.63635)" fill="#F37435"/>
<circle cx="115.919" cy="9.63635" r="2.06626" transform="rotate(180 115.919 9.63635)" fill="#F37435"/>
<circle cx="108.343" cy="9.63635" r="2.06626" transform="rotate(180 108.343 9.63635)" fill="#F37435"/>
<circle cx="153.8" cy="2.74962" r="2.06626" transform="rotate(180 153.8 2.74962)" fill="#F37435"/>
<circle cx="146.224" cy="2.74976" r="2.06626" transform="rotate(180 146.224 2.74976)" fill="#F37435"/>
<circle cx="138.648" cy="2.74976" r="2.06626" transform="rotate(180 138.648 2.74976)" fill="#F37435"/>
<circle cx="131.071" cy="2.74975" r="2.06626" transform="rotate(180 131.071 2.74975)" fill="#F37435"/>
<circle cx="123.494" cy="2.74975" r="2.06626" transform="rotate(180 123.494 2.74975)" fill="#F37435"/>
<circle cx="115.918" cy="2.74976" r="2.06626" transform="rotate(180 115.918 2.74976)" fill="#F37435"/>
<circle cx="108.342" cy="2.74976" r="2.06626" transform="rotate(180 108.342 2.74976)" fill="#F37435"/>
<circle cx="101.202" cy="50.9625" r="2.06626" transform="rotate(180 101.202 50.9625)" fill="#F37435"/>
<circle cx="93.6261" cy="50.9625" r="2.06626" transform="rotate(180 93.6261 50.9625)" fill="#F37435"/>
<circle cx="86.0499" cy="50.9625" r="2.06626" transform="rotate(180 86.0499 50.9625)" fill="#F37435"/>
<circle cx="78.4738" cy="50.9625" r="2.06626" transform="rotate(180 78.4738 50.9625)" fill="#F37435"/>
<circle cx="70.8976" cy="50.9625" r="2.06626" transform="rotate(180 70.8976 50.9625)" fill="#F37435"/>
<circle cx="63.3205" cy="50.9625" r="2.06626" transform="rotate(180 63.3205 50.9625)" fill="#F37435"/>
<circle cx="55.7443" cy="50.9625" r="2.06626" transform="rotate(180 55.7443 50.9625)" fill="#F37435"/>
<circle cx="101.202" cy="44.0758" r="2.06626" transform="rotate(180 101.202 44.0758)" fill="#F37435"/>
<circle cx="93.6261" cy="44.0758" r="2.06626" transform="rotate(180 93.6261 44.0758)" fill="#F37435"/>
<circle cx="86.0499" cy="44.0758" r="2.06626" transform="rotate(180 86.0499 44.0758)" fill="#F37435"/>
<circle cx="78.4728" cy="44.0758" r="2.06626" transform="rotate(180 78.4728 44.0758)" fill="#F37435"/>
<circle cx="70.8966" cy="44.0758" r="2.06626" transform="rotate(180 70.8966 44.0758)" fill="#F37435"/>
<circle cx="63.3205" cy="44.0758" r="2.06626" transform="rotate(180 63.3205 44.0758)" fill="#F37435"/>
<circle cx="55.7443" cy="44.0758" r="2.06626" transform="rotate(180 55.7443 44.0758)" fill="#F37435"/>
<circle cx="101.202" cy="37.1871" r="2.06626" transform="rotate(180 101.202 37.1871)" fill="#F37435"/>
<circle cx="93.6261" cy="37.1871" r="2.06626" transform="rotate(180 93.6261 37.1871)" fill="#F37435"/>
<circle cx="86.0499" cy="37.1871" r="2.06626" transform="rotate(180 86.0499 37.1871)" fill="#F37435"/>
<circle cx="78.4738" cy="37.1871" r="2.06626" transform="rotate(180 78.4738 37.1871)" fill="#F37435"/>
<circle cx="70.8976" cy="37.1871" r="2.06626" transform="rotate(180 70.8976 37.1871)" fill="#F37435"/>
<circle cx="63.3205" cy="37.1871" r="2.06626" transform="rotate(180 63.3205 37.1871)" fill="#F37435"/>
<circle cx="55.7443" cy="37.1871" r="2.06626" transform="rotate(180 55.7443 37.1871)" fill="#F37435"/>
<circle cx="101.202" cy="30.3004" r="2.06626" transform="rotate(180 101.202 30.3004)" fill="#F37435"/>
<circle cx="93.6261" cy="30.3004" r="2.06626" transform="rotate(180 93.6261 30.3004)" fill="#F37435"/>
<circle cx="86.0499" cy="30.3004" r="2.06626" transform="rotate(180 86.0499 30.3004)" fill="#F37435"/>
<circle cx="78.4738" cy="30.3004" r="2.06626" transform="rotate(180 78.4738 30.3004)" fill="#F37435"/>
<circle cx="70.8976" cy="30.3004" r="2.06626" transform="rotate(180 70.8976 30.3004)" fill="#F37435"/>
<circle cx="63.3205" cy="30.3004" r="2.06626" transform="rotate(180 63.3205 30.3004)" fill="#F37435"/>
<circle cx="55.7443" cy="30.3004" r="2.06626" transform="rotate(180 55.7443 30.3004)" fill="#F37435"/>
<circle cx="101.202" cy="23.4117" r="2.06626" transform="rotate(180 101.202 23.4117)" fill="#F37435"/>
<circle cx="93.6261" cy="23.4117" r="2.06626" transform="rotate(180 93.6261 23.4117)" fill="#F37435"/>
<circle cx="86.0499" cy="23.4117" r="2.06626" transform="rotate(180 86.0499 23.4117)" fill="#F37435"/>
<circle cx="78.4728" cy="23.4117" r="2.06626" transform="rotate(180 78.4728 23.4117)" fill="#F37435"/>
<circle cx="70.8966" cy="23.4117" r="2.06626" transform="rotate(180 70.8966 23.4117)" fill="#F37435"/>
<circle cx="63.3214" cy="23.4117" r="2.06626" transform="rotate(180 63.3214 23.4117)" fill="#F37435"/>
<circle cx="55.7453" cy="23.4117" r="2.06626" transform="rotate(180 55.7453 23.4117)" fill="#F37435"/>
<circle cx="101.202" cy="16.5248" r="2.06626" transform="rotate(180 101.202 16.5248)" fill="#F37435"/>
<circle cx="93.6261" cy="16.5248" r="2.06626" transform="rotate(180 93.6261 16.5248)" fill="#F37435"/>
<circle cx="86.0499" cy="16.5248" r="2.06626" transform="rotate(180 86.0499 16.5248)" fill="#F37435"/>
<circle cx="78.4738" cy="16.5248" r="2.06626" transform="rotate(180 78.4738 16.5248)" fill="#F37435"/>
<circle cx="70.8976" cy="16.5248" r="2.06626" transform="rotate(180 70.8976 16.5248)" fill="#F37435"/>
<circle cx="63.3205" cy="16.5248" r="2.06626" transform="rotate(180 63.3205 16.5248)" fill="#F37435"/>
<circle cx="55.7443" cy="16.5248" r="2.06626" transform="rotate(180 55.7443 16.5248)" fill="#F37435"/>
<circle cx="101.202" cy="9.63635" r="2.06626" transform="rotate(180 101.202 9.63635)" fill="#F37435"/>
<circle cx="93.6261" cy="9.63635" r="2.06626" transform="rotate(180 93.6261 9.63635)" fill="#F37435"/>
<circle cx="86.0499" cy="9.63635" r="2.06626" transform="rotate(180 86.0499 9.63635)" fill="#F37435"/>
<circle cx="78.4738" cy="9.63634" r="2.06626" transform="rotate(180 78.4738 9.63634)" fill="#F37435"/>
<circle cx="70.8976" cy="9.63634" r="2.06626" transform="rotate(180 70.8976 9.63634)" fill="#F37435"/>
<circle cx="63.3214" cy="9.63635" r="2.06626" transform="rotate(180 63.3214 9.63635)" fill="#F37435"/>
<circle cx="55.7453" cy="9.63635" r="2.06626" transform="rotate(180 55.7453 9.63635)" fill="#F37435"/>
<circle cx="101.202" cy="2.74975" r="2.06626" transform="rotate(180 101.202 2.74975)" fill="#F37435"/>
<circle cx="93.6261" cy="2.74975" r="2.06626" transform="rotate(180 93.6261 2.74975)" fill="#F37435"/>
<circle cx="86.0499" cy="2.74975" r="2.06626" transform="rotate(180 86.0499 2.74975)" fill="#F37435"/>
<circle cx="78.4738" cy="2.74975" r="2.06626" transform="rotate(180 78.4738 2.74975)" fill="#F37435"/>
<circle cx="70.8976" cy="2.74975" r="2.06626" transform="rotate(180 70.8976 2.74975)" fill="#F37435"/>
<circle cx="63.3205" cy="2.74975" r="2.06626" transform="rotate(180 63.3205 2.74975)" fill="#F37435"/>
<circle cx="55.7443" cy="2.74975" r="2.06626" transform="rotate(180 55.7443 2.74975)" fill="#F37435"/>
<circle cx="48.1496" cy="50.9625" r="2.06626" transform="rotate(180 48.1496 50.9625)" fill="#F37435"/>
<circle cx="40.5734" cy="50.9625" r="2.06626" transform="rotate(180 40.5734 50.9625)" fill="#F37435"/>
<circle cx="32.9972" cy="50.9625" r="2.06626" transform="rotate(180 32.9972 50.9625)" fill="#F37435"/>
<circle cx="25.421" cy="50.9625" r="2.06626" transform="rotate(180 25.421 50.9625)" fill="#F37435"/>
<circle cx="17.8439" cy="50.9625" r="2.06626" transform="rotate(180 17.8439 50.9625)" fill="#F37435"/>
<circle cx="10.2677" cy="50.9625" r="2.06626" transform="rotate(180 10.2677 50.9625)" fill="#F37435"/>
<circle cx="2.69155" cy="50.9625" r="2.06626" transform="rotate(180 2.69155 50.9625)" fill="#F37435"/>
<circle cx="48.1496" cy="44.0758" r="2.06626" transform="rotate(180 48.1496 44.0758)" fill="#F37435"/>
<circle cx="40.5734" cy="44.0758" r="2.06626" transform="rotate(180 40.5734 44.0758)" fill="#F37435"/>
<circle cx="32.9972" cy="44.0758" r="2.06626" transform="rotate(180 32.9972 44.0758)" fill="#F37435"/>
<circle cx="25.4201" cy="44.0758" r="2.06626" transform="rotate(180 25.4201 44.0758)" fill="#F37435"/>
<circle cx="17.8439" cy="44.0758" r="2.06626" transform="rotate(180 17.8439 44.0758)" fill="#F37435"/>
<circle cx="10.2677" cy="44.0758" r="2.06626" transform="rotate(180 10.2677 44.0758)" fill="#F37435"/>
<circle cx="2.69155" cy="44.0758" r="2.06626" transform="rotate(180 2.69155 44.0758)" fill="#F37435"/>
<circle cx="48.1496" cy="37.1871" r="2.06626" transform="rotate(180 48.1496 37.1871)" fill="#F37435"/>
<circle cx="40.5734" cy="37.1871" r="2.06626" transform="rotate(180 40.5734 37.1871)" fill="#F37435"/>
<circle cx="32.9962" cy="37.1871" r="2.06626" transform="rotate(180 32.9962 37.1871)" fill="#F37435"/>
<circle cx="25.421" cy="37.1871" r="2.06626" transform="rotate(180 25.421 37.1871)" fill="#F37435"/>
<circle cx="17.8449" cy="37.1871" r="2.06626" transform="rotate(180 17.8449 37.1871)" fill="#F37435"/>
<circle cx="10.2677" cy="37.1871" r="2.06626" transform="rotate(180 10.2677 37.1871)" fill="#F37435"/>
<circle cx="2.69155" cy="37.1871" r="2.06626" transform="rotate(180 2.69155 37.1871)" fill="#F37435"/>
<circle cx="48.1496" cy="30.3004" r="2.06626" transform="rotate(180 48.1496 30.3004)" fill="#F37435"/>
<circle cx="40.5734" cy="30.3004" r="2.06626" transform="rotate(180 40.5734 30.3004)" fill="#F37435"/>
<circle cx="32.9972" cy="30.3004" r="2.06626" transform="rotate(180 32.9972 30.3004)" fill="#F37435"/>
<circle cx="25.421" cy="30.3004" r="2.06626" transform="rotate(180 25.421 30.3004)" fill="#F37435"/>
<circle cx="17.8449" cy="30.3004" r="2.06626" transform="rotate(180 17.8449 30.3004)" fill="#F37435"/>
<circle cx="10.2677" cy="30.3004" r="2.06626" transform="rotate(180 10.2677 30.3004)" fill="#F37435"/>
<circle cx="2.69155" cy="30.3004" r="2.06626" transform="rotate(180 2.69155 30.3004)" fill="#F37435"/>
<circle cx="48.1496" cy="23.4117" r="2.06626" transform="rotate(180 48.1496 23.4117)" fill="#F37435"/>
<circle cx="40.5734" cy="23.4117" r="2.06626" transform="rotate(180 40.5734 23.4117)" fill="#F37435"/>
<circle cx="32.9972" cy="23.4117" r="2.06626" transform="rotate(180 32.9972 23.4117)" fill="#F37435"/>
<circle cx="25.4201" cy="23.4117" r="2.06626" transform="rotate(180 25.4201 23.4117)" fill="#F37435"/>
<circle cx="17.8439" cy="23.4117" r="2.06626" transform="rotate(180 17.8439 23.4117)" fill="#F37435"/>
<circle cx="10.2687" cy="23.4117" r="2.06626" transform="rotate(180 10.2687 23.4117)" fill="#F37435"/>
<circle cx="2.69155" cy="23.4117" r="2.06626" transform="rotate(180 2.69155 23.4117)" fill="#F37435"/>
<circle cx="48.1496" cy="16.5248" r="2.06626" transform="rotate(180 48.1496 16.5248)" fill="#F37435"/>
<circle cx="40.5734" cy="16.5248" r="2.06626" transform="rotate(180 40.5734 16.5248)" fill="#F37435"/>
<circle cx="32.9972" cy="16.5248" r="2.06626" transform="rotate(180 32.9972 16.5248)" fill="#F37435"/>
<circle cx="25.421" cy="16.5248" r="2.06626" transform="rotate(180 25.421 16.5248)" fill="#F37435"/>
<circle cx="17.8439" cy="16.5248" r="2.06626" transform="rotate(180 17.8439 16.5248)" fill="#F37435"/>
<circle cx="10.2677" cy="16.5248" r="2.06626" transform="rotate(180 10.2677 16.5248)" fill="#F37435"/>
<circle cx="2.69155" cy="16.5248" r="2.06626" transform="rotate(180 2.69155 16.5248)" fill="#F37435"/>
<circle cx="48.1496" cy="9.63632" r="2.06626" transform="rotate(180 48.1496 9.63632)" fill="#F37435"/>
<circle cx="40.5734" cy="9.63632" r="2.06626" transform="rotate(180 40.5734 9.63632)" fill="#F37435"/>
<circle cx="32.9972" cy="9.63632" r="2.06626" transform="rotate(180 32.9972 9.63632)" fill="#F37435"/>
<circle cx="25.421" cy="9.63632" r="2.06626" transform="rotate(180 25.421 9.63632)" fill="#F37435"/>
<circle cx="17.8449" cy="9.63632" r="2.06626" transform="rotate(180 17.8449 9.63632)" fill="#F37435"/>
<circle cx="10.2687" cy="9.63632" r="2.06626" transform="rotate(180 10.2687 9.63632)" fill="#F37435"/>
<circle cx="2.69155" cy="9.63632" r="2.06626" transform="rotate(180 2.69155 9.63632)" fill="#F37435"/>
<circle cx="48.1496" cy="2.74973" r="2.06626" transform="rotate(180 48.1496 2.74973)" fill="#F37435"/>
<circle cx="40.5734" cy="2.74973" r="2.06626" transform="rotate(180 40.5734 2.74973)" fill="#F37435"/>
<circle cx="32.9972" cy="2.74973" r="2.06626" transform="rotate(180 32.9972 2.74973)" fill="#F37435"/>
<circle cx="25.421" cy="2.74972" r="2.06626" transform="rotate(180 25.421 2.74972)" fill="#F37435"/>
<circle cx="17.8439" cy="2.74972" r="2.06626" transform="rotate(180 17.8439 2.74972)" fill="#F37435"/>
<circle cx="10.2677" cy="2.74973" r="2.06626" transform="rotate(180 10.2677 2.74973)" fill="#F37435"/>
<circle cx="2.69155" cy="2.7496" r="2.06626" transform="rotate(180 2.69155 2.7496)" fill="#F37435"/>
</svg>
