<svg width="48" height="112" viewBox="0 0 48 112" fill="none" xmlns="http://www.w3.org/2000/svg">
<path d="M22.4433 25.6232C22.4433 25.6232 10.3192 23.927 13.1535 9.30194C13.1535 9.30194 26.6994 12.3402 22.4433 25.6232Z" fill="#F37435"/>
<path opacity="0.1" d="M22.4433 25.6232C22.4433 25.6232 10.3192 23.927 13.1535 9.30194C13.1535 9.30194 26.6994 12.3402 22.4433 25.6232Z" fill="black"/>
<path d="M21.8308 22.5699C21.5936 21.8302 21.3146 21.1038 21.0051 20.39C20.9959 20.2964 20.9821 20.2035 20.9741 20.1134C20.9563 19.912 20.9396 19.7112 20.9235 19.5098C20.8896 19.0737 20.8615 18.6364 20.8362 18.1998C20.7846 17.3264 20.7289 16.452 20.7157 15.5769C20.7151 15.5293 20.6422 15.5316 20.6416 15.5786C20.6341 16.4543 20.6209 17.3287 20.6548 18.2044C20.672 18.6416 20.6967 19.0783 20.726 19.5149C20.7323 19.6119 20.7398 19.7089 20.7467 19.8058C20.0691 18.3484 19.2485 16.9552 18.316 15.6521C17.8997 15.0702 17.4615 14.5114 16.9901 13.9726C16.5066 13.42 15.9961 12.8938 15.5075 12.3464C15.4759 12.3108 15.4236 12.3653 15.4564 12.3998C16.3481 13.3288 17.0854 14.4322 17.7929 15.504C18.1609 16.0612 18.5089 16.6333 18.8402 17.2145C18.8024 17.1996 18.7645 17.1853 18.7277 17.1704C18.5841 17.1113 18.4406 17.0516 18.2953 16.9959C17.9663 16.8691 17.6361 16.744 17.3054 16.6218C16.6548 16.3808 16.0036 16.1433 15.3547 15.8971C15.3163 15.8822 15.2893 15.9499 15.3277 15.9654C15.972 16.2224 16.6106 16.4938 17.2474 16.7687C17.5603 16.9035 17.8733 17.0372 18.1862 17.1721C18.343 17.2398 18.5015 17.3029 18.6594 17.3672C18.765 17.4102 18.8695 17.463 18.9809 17.4808C19.2256 17.9197 19.4679 18.3593 19.6907 18.8086C20.2517 19.9395 20.7513 21.1084 21.1722 22.299C21.202 22.3828 21.2302 22.4666 21.2594 22.5503C20.9603 22.3484 20.5784 22.2164 20.266 22.0718C19.8486 21.879 19.4288 21.6919 19.0114 21.5003C18.1615 21.1101 17.3163 20.7142 16.5015 20.254C16.4601 20.2305 16.4239 20.2959 16.4659 20.3188C17.299 20.7738 18.115 21.2576 18.9499 21.7103C19.3668 21.9364 19.7866 22.1567 20.2138 22.3633C20.5646 22.5331 20.9591 22.7695 21.353 22.8189C21.7326 23.9378 22.0507 25.0699 22.1478 26.2554C22.2833 27.9091 22.2678 29.5766 22.3062 31.2343C22.3068 31.2635 22.3482 31.2612 22.3505 31.2331C22.471 29.7292 22.5388 28.2115 22.5463 26.7024C22.5526 25.2662 22.2666 23.9315 21.8308 22.5699Z" fill="#263238"/>
<path d="M19.9639 13.97C19.8691 14.8209 19.7842 15.693 19.8433 16.5491C19.845 16.5732 19.8789 16.5714 19.88 16.5485C19.9289 15.693 19.9363 14.8404 20.0356 13.9884C20.0408 13.9408 19.969 13.923 19.9639 13.97Z" fill="#263238"/>
<path d="M16.4975 14.7012C15.9607 14.4734 15.4273 14.26 14.9386 13.9358C14.899 13.9094 14.8623 13.9754 14.903 14.0006C15.3922 14.3058 15.9165 14.6031 16.478 14.7522C16.5067 14.7603 16.5268 14.7138 16.4975 14.7012Z" fill="#263238"/>
<path d="M22.8311 48.8419C22.8207 47.5032 22.796 46.1645 22.78 44.8258C22.7547 40.3794 22.7179 35.9336 22.6381 31.4878C22.5744 27.9583 22.4917 24.43 22.3912 20.9005C22.3906 20.8805 22.3774 20.8661 22.3608 20.8552C22.3556 19.8912 22.3516 18.9278 22.3458 17.9638C22.3458 17.9391 22.3171 17.9277 22.2878 17.9282C22.2586 17.9288 22.2299 17.9414 22.2299 17.9655C22.2241 18.9313 22.2178 19.8964 22.2115 20.8621C22.1971 20.873 22.1845 20.8856 22.1839 20.904C22.0059 27.1854 21.8463 33.468 21.8095 39.7511C21.8021 41.0284 21.8026 42.3063 21.7975 43.5836C21.7544 47.6799 21.7354 51.7763 21.7504 55.8727C21.7458 56.5251 21.7383 57.177 21.736 57.8294C21.7228 61.5775 21.7751 65.325 21.7762 69.0725C21.7762 69.2744 22.0002 69.3743 22.2385 69.384C22.5101 69.3949 22.8001 69.2865 22.8001 69.0564C22.8018 64.9233 22.8288 60.7908 22.8282 56.6577C22.8408 54.0514 22.8506 51.4464 22.8311 48.8419Z" fill="#263238"/>
<path d="M17.7681 44.7751C17.7681 44.7751 11.9369 40.4578 6.40256 43.3744C0.867648 46.2911 0 57.537 0 57.537C0 57.537 8.12694 58.6984 13.245 53.8308C18.1764 49.14 17.7681 44.7751 17.7681 44.7751Z" fill="#F37435"/>
<path d="M19.3572 45.0415C18.3018 44.5985 17.1269 44.4889 15.979 44.6008C15.7465 44.5486 15.4996 44.548 15.2641 44.5314C14.9902 44.5118 14.7163 44.4912 14.4424 44.4699C13.8757 44.4258 13.3083 44.3919 12.7422 44.3494C11.5914 44.2634 10.4378 44.1934 9.28995 44.078C9.2486 44.074 9.24056 44.1457 9.28191 44.1509C10.4177 44.2961 11.5495 44.4573 12.6893 44.5727C13.2756 44.6318 13.8619 44.6926 14.4493 44.7345C14.5871 44.7442 14.7307 44.7597 14.876 44.7758C14.702 44.8148 14.5286 44.8561 14.3586 44.9037C13.4439 45.1625 12.563 45.5332 11.716 45.9768C11.2566 46.0594 10.8001 46.1873 10.3494 46.2935C9.62759 46.4633 8.90924 46.6492 8.19261 46.8369C6.77658 47.2076 5.37549 47.6247 3.97037 48.0333C3.92443 48.0465 3.94568 48.1153 3.99161 48.1038C5.39558 47.7596 6.80759 47.444 8.21443 47.11C8.89833 46.9476 9.5828 46.787 10.265 46.6188C10.4413 46.5752 10.621 46.5351 10.8013 46.4949C9.2308 47.4612 7.81822 48.7006 6.65657 50.0961C5.49607 51.4893 4.57215 53.0139 3.77628 54.636C3.75561 54.6779 3.81475 54.7181 3.83887 54.6756C4.78174 53.0254 5.96693 51.4709 7.32496 50.1036C7.2997 50.181 7.27328 50.2585 7.24917 50.3359C7.14064 50.6791 7.03326 51.0222 6.92473 51.3653C6.70883 52.0516 6.49062 52.7367 6.28505 53.4264C6.27127 53.4729 6.34075 53.4878 6.35683 53.4442C6.60259 52.7792 6.83573 52.1101 7.07058 51.4417C7.186 51.1134 7.30142 50.7852 7.41684 50.4576C7.47656 50.2877 7.53398 50.1167 7.5914 49.9457C7.6092 49.893 7.62987 49.8413 7.64767 49.7897C8.30286 49.1568 8.99135 48.5629 9.71602 48.0281C10.6721 47.3229 11.7172 46.7267 12.8116 46.2551C12.7915 46.356 12.7732 46.457 12.7525 46.5534C12.6951 46.8191 12.6359 47.0842 12.5808 47.3504C12.4665 47.9019 12.3592 48.4556 12.2518 49.0081C12.0324 50.1357 11.8963 51.2776 11.6844 52.4062C11.6758 52.4527 11.7453 52.4705 11.7562 52.424C12.0181 51.2896 12.3551 50.1736 12.6078 49.0368C12.7341 48.4688 12.8627 47.9001 12.9805 47.3304C13.0356 47.0641 13.0884 46.7973 13.1424 46.531C13.1722 46.3824 13.2073 46.2338 13.2245 46.0852C13.3307 46.0433 13.4341 45.9945 13.5409 45.955C15.0706 45.3892 16.7617 44.9778 18.3931 45.2905C19.9532 45.5894 21.2906 46.6355 21.9027 48.101C21.9555 48.2278 22.1559 48.1486 22.1266 48.0189C21.8085 46.6194 20.6383 45.5791 19.3572 45.0415Z" fill="#263238"/>
<path d="M10.4296 49.8433C10.2648 50.5811 10.1006 51.3196 9.93754 52.0586C9.78194 52.7637 9.58902 53.4924 9.52988 54.213C9.52758 54.2417 9.56892 54.2423 9.57753 54.2182C9.81582 53.5239 9.93122 52.7672 10.073 52.0482C10.2166 51.3196 10.3596 50.5909 10.5014 49.8616C10.5106 49.8152 10.4399 49.7968 10.4296 49.8433Z" fill="#263238"/>
<path d="M4.79039 51.7195C4.04798 52.0959 3.32797 52.5233 2.55283 52.832C2.50345 52.8515 2.53446 52.9232 2.58326 52.8991C3.33026 52.5273 4.10253 52.198 4.80819 51.7482C4.82599 51.7367 4.80934 51.7103 4.79039 51.7195Z" fill="#263238"/>
<path d="M19.0791 36.8453C19.0791 36.8453 11.9519 37.2998 8.63694 32.6032C5.32139 27.9066 6.06558 21.2 6.06558 21.2C6.06558 21.2 13.5523 22.1089 16.525 25.4817C19.4977 28.8545 19.0791 36.8453 19.0791 36.8453Z" fill="#F37435"/>
<path d="M22.424 43.8725C22.1777 43.1093 21.8711 42.3576 21.5834 41.6088C21.3066 40.8899 21.0109 40.1789 20.6968 39.4754C20.0565 38.0398 19.3497 36.6385 18.5601 35.2792C18.0577 34.4139 17.5185 33.5739 16.9632 32.7459C16.9517 32.6196 16.9265 32.4934 16.9075 32.3666C16.8742 32.1462 16.8426 31.9253 16.8082 31.7056C16.7375 31.2546 16.6583 30.8053 16.5831 30.3548C16.4188 29.3713 16.2162 28.3947 16.0594 27.4101C16.0519 27.3642 15.9784 27.3647 15.9853 27.4118C16.1289 28.3832 16.2271 29.361 16.3632 30.3336C16.4303 30.811 16.4924 31.2896 16.5653 31.7664C16.5917 31.9391 16.6193 32.1112 16.6462 32.2834C15.5569 30.6985 14.3861 29.1722 13.1205 27.7136C12.95 27.5168 12.7743 27.3251 12.6003 27.1318C12.5825 27.0778 12.5555 27.0245 12.5343 26.9688C12.4814 26.8334 12.4297 26.6974 12.3792 26.5608C12.2747 26.2785 12.1719 25.9951 12.0703 25.7116C11.8699 25.1539 11.6913 24.591 11.5397 24.0183C11.5276 23.9724 11.4576 23.9936 11.4691 24.0395C11.6132 24.6237 11.7648 25.2078 11.9359 25.7851C12.0186 26.0639 12.1099 26.3388 12.2087 26.6131C12.2253 26.659 12.2425 26.7043 12.2592 26.7502C11.3479 25.7581 10.3982 24.8016 9.43805 23.8565C9.40418 23.8232 9.35364 23.876 9.38695 23.9099C11.2491 25.8155 12.8954 27.9196 14.4372 30.0915C14.2632 30.0358 14.0846 29.9916 13.9095 29.9578C13.3611 29.8516 12.8076 29.7736 12.2535 29.7036C11.0924 29.5561 9.93418 29.4092 8.7777 29.2273C8.73119 29.2198 8.71281 29.2898 8.7599 29.299C9.86413 29.5165 10.9586 29.765 12.0554 30.0169C12.5727 30.1356 13.0924 30.2372 13.6132 30.3393C14.0473 30.4248 14.4498 30.5574 14.8644 30.6957C14.9793 30.8604 15.0987 31.0227 15.2124 31.1886C15.7355 31.9494 16.2374 32.7252 16.7289 33.5079C16.4866 33.4597 16.2443 33.4132 16.0014 33.3661C15.4513 33.2594 14.8983 33.1601 14.3453 33.0689C13.2583 32.8899 12.1702 32.7017 11.0958 32.4572C11.0493 32.4469 11.0315 32.5181 11.078 32.529C12.1679 32.7843 13.248 33.0833 14.3298 33.3707C14.8512 33.5096 15.3778 33.637 15.9049 33.7535C16.1691 33.812 16.4326 33.8699 16.6973 33.9245C16.8116 33.948 16.9173 33.9778 17.0183 33.9795C18.0594 35.6665 19.0367 37.3937 19.9411 39.1552C20.3391 39.9305 20.7209 40.7131 21.0924 41.5009C21.4737 42.3094 21.7993 43.1351 22.1513 43.9557C22.2219 44.1192 22.482 44.0515 22.424 43.8725Z" fill="#263238"/>
<path d="M15.1291 27.504C14.993 26.8247 14.8494 26.1471 14.699 25.4706C14.6887 25.4241 14.6186 25.4459 14.6284 25.4918C14.7633 26.1591 14.8919 26.8275 15.0131 27.4977C15.1331 28.1621 15.2301 28.8431 15.4173 29.4926C15.4207 29.5047 15.4397 29.5018 15.4391 29.4892C15.4035 28.8242 15.26 28.1569 15.1291 27.504Z" fill="#263238"/>
<path d="M10.9718 27.3064C10.6411 27.1417 10.292 27.0086 9.94749 26.8755C9.7672 26.8055 9.58691 26.7355 9.40719 26.6643C9.31532 26.6276 9.22346 26.5909 9.13159 26.5542C9.03398 26.5151 8.91455 26.4853 8.83072 26.4222C8.77732 26.382 8.74287 26.4761 8.79627 26.4847C8.90134 26.5019 9.00412 26.5656 9.10116 26.6092C9.19073 26.6494 9.28087 26.6896 9.37102 26.7297C9.54442 26.8072 9.71782 26.8846 9.89122 26.9615C10.2346 27.1136 10.5848 27.2662 10.9437 27.3781C10.9856 27.3913 11.0109 27.3259 10.9718 27.3064Z" fill="#263238"/>
<path d="M26.374 31.2462C26.374 31.2462 30.6881 23.1946 37.2498 21.9483C43.812 20.7014 47.8275 27.4482 47.8275 27.4482C47.8275 27.4482 43.0413 33.5563 37.0195 34.6225C30.9976 35.6886 26.374 31.2462 26.374 31.2462Z" fill="#F37435"/>
<path d="M41.6478 25.5563C39.9475 25.3233 38.2065 25.3503 36.5016 25.6177C36.5998 25.5637 36.6974 25.5098 36.7944 25.461C37.2814 25.2143 37.766 24.9635 38.2501 24.7116C39.2573 24.1878 40.2759 23.63 41.3314 23.2083C41.3807 23.1888 41.3503 23.1188 41.3009 23.1411C40.2742 23.6191 39.2102 24.0191 38.1806 24.4924C37.6655 24.7289 37.1591 24.9756 36.6584 25.2413C36.3351 25.4128 35.9762 25.5746 35.6581 25.7795C34.2162 26.075 32.8088 26.5329 31.4875 27.1641C31.7608 26.8668 32.0353 26.5696 32.3081 26.2712C32.9196 25.6022 33.5208 24.8998 34.1932 24.2899C34.2288 24.2578 34.1749 24.2073 34.1398 24.2388C33.4531 24.862 32.7278 25.4392 32.0617 26.0871C31.7384 26.4015 31.4295 26.7274 31.128 27.0625C30.9782 27.2295 30.8277 27.4022 30.6847 27.5812C27.8309 29.1311 25.4036 31.4705 23.8021 34.2988C22.892 35.906 22.2569 37.644 21.8871 39.4521C21.8779 39.4974 21.9434 39.5226 21.9572 39.4762C22.8581 36.4367 24.559 33.5803 26.7812 31.319C29.1918 28.8654 32.2369 27.0929 35.5725 26.2362C37.553 25.7278 39.6001 25.5505 41.6397 25.6854C41.723 25.6911 41.7299 25.5672 41.6478 25.5563Z" fill="#263238"/>
<path opacity="0.1" d="M47.8299 27.4488C47.8299 27.4488 43.0426 33.5575 37.019 34.6225C32.4258 35.4367 28.6469 33.0422 27.1126 31.8636L26.7812 31.3197C26.7812 31.3197 29.8878 28.7031 35.7644 27.1934C41.6403 25.6838 47.8299 27.4488 47.8299 27.4488Z" fill="black"/>
<path d="M37.8361 22.6856C37.3378 22.9892 36.8428 23.2915 36.3789 23.6467C35.9224 23.9961 35.4981 24.3765 35.1134 24.804C35.0795 24.8418 35.1323 24.89 35.1697 24.8573C35.6055 24.4792 36.043 24.1011 36.4954 23.7431C36.9393 23.3914 37.3917 23.0437 37.8758 22.7488C37.9159 22.7241 37.8769 22.661 37.8361 22.6856Z" fill="#263238"/>
<path d="M41.4375 24.0481C41.1946 24.1496 40.946 24.2368 40.7031 24.3378C40.4596 24.4388 40.2162 24.5398 39.9727 24.6408C39.9205 24.6626 39.9452 24.7475 39.9986 24.7257C40.2426 24.6264 40.4866 24.5277 40.7306 24.429C40.9752 24.3298 41.2141 24.2179 41.4593 24.1186C41.5029 24.1014 41.4817 24.0297 41.4375 24.0481Z" fill="#263238"/>
<path d="M25.5137 41.3778C25.5137 41.3778 26.6661 49.3646 32.6765 52.1585C38.6863 54.9523 46.0139 52.1585 46.0139 52.1585C46.0139 52.1585 43.1319 34.8784 25.5137 41.3778Z" fill="#F37435"/>
<path d="M41.8723 46.9632C41.3182 46.9 40.7669 46.8054 40.218 46.7055C39.9487 46.6562 39.6793 46.6057 39.41 46.5529C39.2734 46.5259 39.131 46.4932 38.988 46.4685C38.8261 46.3176 38.667 46.1644 38.501 46.0181C37.3635 45.0163 36.1295 44.128 34.8255 43.3557C34.1152 42.9351 33.3784 42.5581 32.6228 42.2247C32.6607 42.2264 32.698 42.2281 32.7359 42.2299C33.3951 42.258 34.0549 42.2849 34.7141 42.3159C36.0336 42.3773 37.352 42.406 38.6704 42.4915C38.7181 42.4944 38.7158 42.4209 38.6687 42.4175C37.3451 42.328 36.029 42.1828 34.7077 42.0692C34.0669 42.0141 33.4261 41.9562 32.7858 41.8982C32.4557 41.8684 32.1261 41.8403 31.7959 41.8121C31.7115 41.8047 31.6265 41.7944 31.5421 41.7852C31.1993 41.6572 30.8542 41.5367 30.505 41.4283C28.8616 40.9187 27.0988 40.7167 25.4146 41.1477C23.9026 41.5344 22.3936 42.5248 22.002 44.1177C21.9882 44.1728 22.0743 44.2106 22.0979 44.155C22.6618 42.8237 24.1398 42.1541 25.4749 41.877C26.3724 41.6911 27.2905 41.7014 28.1967 41.8242C28.234 42.2333 28.3885 42.6539 28.4999 43.0315C28.6664 43.5932 28.83 44.1561 29.0006 44.7167C29.3411 45.8385 29.7166 46.9494 30.0491 48.0735C30.0629 48.1194 30.1312 48.0982 30.1197 48.0523C29.8407 46.9316 29.6052 45.8001 29.3348 44.6771C29.2021 44.1257 29.0632 43.5754 28.9265 43.0252C28.8386 42.6723 28.7651 42.2557 28.6239 41.8896C29.1522 41.982 29.6747 42.1076 30.1835 42.2568C31.1068 42.5277 32.0169 42.8651 32.907 43.2541C32.9954 43.8233 33.1223 44.3879 33.2532 44.9491C33.4175 45.6543 33.6006 46.3526 33.824 47.0418C33.8384 47.0854 33.9004 47.0653 33.8912 47.0217C33.882 46.9781 33.8734 46.9351 33.8642 46.8914C33.8636 46.8903 33.8625 46.8897 33.8625 46.8897C33.7276 46.2367 33.5834 45.5855 33.4456 44.9331C33.3342 44.4069 33.2326 43.8784 33.1183 43.3534C33.8648 43.6885 34.5986 44.0551 35.309 44.462C35.3233 44.6249 35.3635 44.7913 35.3865 44.9399C35.4301 45.2136 35.4795 45.4868 35.53 45.7593C35.6432 46.3756 35.766 46.9896 35.9136 47.5984C36.1978 48.7706 36.5171 49.9429 36.9466 51.0716C36.938 51.0848 36.9346 51.1026 36.9478 51.1181C36.9593 51.1313 36.9702 51.1445 36.9817 51.1577C37.0075 51.1881 37.05 51.1525 37.0425 51.1204C36.7646 49.9366 36.4471 48.7632 36.1869 47.5754C36.0572 46.9821 35.9262 46.3894 35.8068 45.7938C35.7471 45.4965 35.6925 45.1981 35.6363 44.8998C35.6202 44.816 35.6081 44.7248 35.5949 44.6324C36.4063 45.1121 37.1913 45.6308 37.9354 46.192C39.2177 47.1594 40.4465 48.264 41.5174 49.4598C41.5605 49.508 41.6455 49.4403 41.6059 49.3881C41.1476 48.7861 40.6917 48.1974 40.1732 47.642C39.8711 47.3184 39.557 47.0056 39.2372 46.6992C39.2705 46.7044 39.3044 46.7113 39.3371 46.7164C39.6185 46.7641 39.901 46.8054 40.1835 46.8433C40.7394 46.9173 41.2969 46.9718 41.8539 47.0355C41.901 47.0401 41.9194 46.9683 41.8723 46.9632Z" fill="#263238"/>
<path d="M37.6478 49.6707C37.6386 49.6012 37.6272 49.5318 37.6134 49.4635C37.5962 49.3752 37.5531 49.2908 37.5405 49.2019C37.5405 49.2002 37.5387 49.2008 37.5387 49.199C37.4147 48.6654 37.3102 48.1278 37.2143 47.5879C37.2074 47.5506 37.1477 47.5615 37.1495 47.5982C37.1753 48.3114 37.3516 49.0194 37.6065 49.6827C37.6145 49.7039 37.6524 49.7016 37.649 49.6758C37.649 49.6747 37.6484 49.6729 37.6478 49.6707Z" fill="#263238"/>
<path d="M32.618 49.543C32.6163 49.5206 32.5996 49.5103 32.5824 49.5091C32.4136 48.8023 32.2517 48.0942 32.1059 47.3822C32.0289 47.0081 31.9508 46.634 31.879 46.2588C31.8406 46.0568 31.8033 45.8543 31.7671 45.6517C31.7361 45.4773 31.7206 45.2908 31.6379 45.1325C31.6235 45.1055 31.5753 45.1118 31.5707 45.1428C31.5208 45.4785 31.6591 45.8847 31.7212 46.2146C31.7946 46.6042 31.8704 46.9938 31.9566 47.381C32.1311 48.1688 32.3286 48.9537 32.5508 49.7294C32.5635 49.7731 32.6341 49.7633 32.6306 49.7168C32.6261 49.6589 32.622 49.6009 32.618 49.543Z" fill="#263238"/>
<path d="M41.3239 44.6628C40.2261 44.5125 39.1294 44.3535 38.0299 44.2204C37.9834 44.2147 37.9644 44.2853 38.0121 44.2921C39.1082 44.4539 40.2077 44.5899 41.3061 44.7345C41.3526 44.7408 41.371 44.6691 41.3239 44.6628Z" fill="#263238"/>
<path d="M22.4347 22.6469C22.4347 22.6469 18.7574 6.52414 36.0931 0C36.0931 0 40.8959 21.2221 22.4347 22.6469Z" fill="#F37435"/>
<path d="M26.1764 13.5033C26.2413 13.462 26.3045 13.4224 26.3624 13.3903C26.6903 13.2101 27.0159 13.0259 27.3421 12.8429L29.353 11.7188C30.676 10.9792 31.9823 10.2103 33.314 9.48612C33.3559 9.46317 33.3168 9.40062 33.2749 9.423C31.9404 10.1483 30.583 10.8271 29.2399 11.5363L27.2525 12.5858C26.982 12.7287 26.711 12.871 26.4411 13.0144C27.0194 11.9185 27.6372 10.8437 28.3159 9.80917C29.2221 8.4286 30.2143 7.11287 31.2485 5.82525C31.2961 5.76615 31.2186 5.69041 31.1629 5.74377C29.6338 7.20583 28.3102 8.87789 27.1549 10.6544C27.1566 10.5976 27.1577 10.5408 27.16 10.4868C27.1801 10.0857 27.1899 9.68465 27.1962 9.28299C27.2077 8.49631 27.1698 7.7079 27.1933 6.92179C27.1951 6.87416 27.1216 6.87646 27.1193 6.92351C27.0871 7.69815 26.9935 8.46992 26.9499 9.24398C26.9281 9.63072 26.9114 10.0163 26.8999 10.4036C26.8936 10.6125 26.8741 10.8506 26.8815 11.0796C26.5244 11.6471 26.1816 12.2232 25.8571 12.8073C25.2795 13.8476 24.7627 14.9367 24.3079 16.0539C24.2907 15.6522 24.2665 15.2511 24.2424 14.85C24.1907 13.9675 24.0828 13.0885 24.0455 12.2048C24.0437 12.1572 23.9702 12.1589 23.9714 12.2065C23.9898 13.0896 23.9484 13.9727 23.976 14.8563C23.9898 15.2976 24.0035 15.7389 24.0323 16.1795C24.0432 16.3413 24.0512 16.5066 24.0627 16.6719C23.5103 18.1184 23.0664 19.6074 22.7535 21.1022C22.4153 22.7169 22.278 24.335 22.1075 25.9709C22.1063 25.983 22.1247 25.9824 22.1258 25.9703C22.278 24.5117 22.6478 23.0388 23.0458 21.6289C23.2605 20.8681 23.4862 20.1107 23.7302 19.3601C24.4514 19.0204 25.1422 18.597 25.8388 18.2114C26.5617 17.8109 27.2898 17.4195 28.0145 17.0219C29.4598 16.2295 30.904 15.4227 32.3969 14.7221C32.44 14.702 32.4009 14.64 32.3579 14.659C30.846 15.3429 29.3231 15.9936 27.8393 16.7384C27.1003 17.1097 26.3739 17.5056 25.6533 17.9113C25.0515 18.2498 24.4325 18.5895 23.8577 18.9791C24.0259 18.4776 24.2011 17.9778 24.3929 17.4838C24.9206 16.1308 25.5149 14.7995 26.1764 13.5033Z" fill="#263238"/>
<path d="M24.7153 9.81718C24.7118 9.77013 24.6383 9.77128 24.6412 9.8189C24.7032 10.7386 24.7342 11.6578 24.8324 12.5747C24.8376 12.6257 24.9156 12.6257 24.9139 12.5729C24.8818 11.6509 24.783 10.7363 24.7153 9.81718Z" fill="#263238"/>
<path d="M33.0255 12.8966C31.9398 13.3333 30.846 13.7475 29.7665 14.1991C29.7361 14.2117 29.7499 14.2605 29.7814 14.2484C30.877 13.8387 31.9576 13.3918 33.0468 12.9672C33.0916 12.95 33.0697 12.8788 33.0255 12.8966Z" fill="#263238"/>
<path d="M34.6731 5.45947C33.6126 5.9506 32.5837 6.49452 31.5904 7.11188C31.5398 7.14344 31.5875 7.22033 31.6392 7.19049C32.6445 6.60296 33.6683 6.03953 34.7121 5.522C34.7552 5.50135 34.7156 5.43996 34.6731 5.45947Z" fill="#263238"/>
<path d="M34.412 57.5114H9.41162V83.8438H34.412V57.5114Z" fill="#37474F"/>
<path d="M8.9702 66.8289H7.69141V111.933H8.9702V66.8289Z" fill="#263238"/>
<path d="M35.998 66.8289H34.7192V111.933H35.998V66.8289Z" fill="#263238"/>
<path d="M23.1651 66.8289H21.8857V111.933H23.1651V66.8289Z" fill="#263238"/>
<path d="M35.3585 82.1555H8.33105V85.8015H35.3585V82.1555Z" fill="#263238"/>
</svg>
