<svg width="37" height="32" viewBox="0 0 37 32" fill="none" xmlns="http://www.w3.org/2000/svg">
<g filter="url(#filter0_d_2316_4198)">
<path d="M31.3095 1.2749C31.3095 1.2749 29.9002 2.41141 27.9227 2.61598C27.9227 2.61598 24.8086 -0.861787 20.3534 2.16139C18.3531 3.57066 18.1713 6.5484 18.5122 7.61671C18.5122 7.61671 12.4659 8.09406 7.19244 1.91137C7.19244 1.91137 4.82848 6.00287 8.73809 9.27606C8.73809 9.27606 7.58255 9.45789 6.48412 8.5487C6.48412 8.5487 5.96493 12.7766 10.6929 13.9586C10.6929 13.9586 10.3747 14.5041 8.46533 13.9586C8.46533 13.9586 8.78354 17.4136 13.2842 17.9137C13.2842 17.9137 10.8528 20.414 5.38574 20.0958C5.38574 20.0958 14.4207 26.8695 24.1948 18.6866C29.6502 14.0495 29.4683 7.36675 29.3774 6.36663C29.3774 6.36663 31.5317 4.73003 32.0912 3.68441C32.0912 3.68441 30.423 4.22994 29.0592 4.22994C29.0592 4.22983 30.8776 3.27515 31.3095 1.2749Z" fill="#61B2E4"/>
<path d="M31.3095 1.2749C31.3095 1.2749 29.9002 2.41141 27.9227 2.61598C27.9227 2.61598 24.8086 -0.861787 20.3534 2.16139C18.3531 3.57066 18.1713 6.5484 18.5122 7.61672C18.5122 7.61672 12.4659 8.09406 7.19244 1.91137C7.19244 1.91137 4.82848 6.00287 8.73809 9.27606C8.73809 9.27606 7.58255 9.45789 6.48412 8.5487C6.48412 8.5487 5.96493 12.7766 10.6929 13.9586C10.6929 13.9586 10.3747 14.5041 8.46533 13.9586C8.46533 13.9586 8.78354 17.4136 13.2842 17.9137C13.2842 17.9137 10.8528 20.414 5.38574 20.0958C5.38574 20.0958 14.4207 26.8695 24.1948 18.6866C29.6502 14.0495 29.4683 7.36675 29.3774 6.36663C29.3774 6.36663 31.5317 4.73003 32.0912 3.68441C32.0912 3.68441 30.423 4.22994 29.0592 4.22994C29.0592 4.22983 30.8776 3.27515 31.3095 1.2749Z" stroke="black" stroke-miterlimit="10" stroke-linecap="round" stroke-linejoin="round"/>
</g>
<defs>
<filter id="filter0_d_2316_4198" x="0.885742" y="0.42627" width="35.7051" height="30.8022" filterUnits="userSpaceOnUse" color-interpolation-filters="sRGB">
<feFlood flood-opacity="0" result="BackgroundImageFix"/>
<feColorMatrix in="SourceAlpha" type="matrix" values="0 0 0 0 0 0 0 0 0 0 0 0 0 0 0 0 0 0 127 0" result="hardAlpha"/>
<feOffset dy="4"/>
<feGaussianBlur stdDeviation="2"/>
<feComposite in2="hardAlpha" operator="out"/>
<feColorMatrix type="matrix" values="0 0 0 0 0 0 0 0 0 0 0 0 0 0 0 0 0 0 0.25 0"/>
<feBlend mode="normal" in2="BackgroundImageFix" result="effect1_dropShadow_2316_4198"/>
<feBlend mode="normal" in="SourceGraphic" in2="effect1_dropShadow_2316_4198" result="shape"/>
</filter>
</defs>
</svg>
