<svg width="50" height="108" viewBox="0 0 50 108" fill="none" xmlns="http://www.w3.org/2000/svg">
<circle cx="47.5241" cy="50.3493" r="2.06626" transform="rotate(180 47.5241 50.3493)" fill="#F37435"/>
<circle cx="39.9479" cy="50.3493" r="2.06626" transform="rotate(180 39.9479 50.3493)" fill="#F37435"/>
<circle cx="32.3712" cy="50.3493" r="2.06626" transform="rotate(180 32.3712 50.3493)" fill="#F37435"/>
<circle cx="24.7951" cy="50.3493" r="2.06626" transform="rotate(180 24.7951 50.3493)" fill="#F37435"/>
<circle cx="17.2189" cy="50.3493" r="2.06626" transform="rotate(180 17.2189 50.3493)" fill="#F37435"/>
<circle cx="9.64272" cy="50.3493" r="2.06626" transform="rotate(180 9.64272 50.3493)" fill="#F37435"/>
<circle cx="2.06655" cy="50.3493" r="2.06626" transform="rotate(180 2.06655 50.3493)" fill="#F37435"/>
<circle cx="47.5241" cy="43.4625" r="2.06626" transform="rotate(180 47.5241 43.4625)" fill="#F37435"/>
<circle cx="39.9479" cy="43.4625" r="2.06626" transform="rotate(180 39.9479 43.4625)" fill="#F37435"/>
<circle cx="32.3712" cy="43.4625" r="2.06626" transform="rotate(180 32.3712 43.4625)" fill="#F37435"/>
<circle cx="24.7951" cy="43.4625" r="2.06626" transform="rotate(180 24.7951 43.4625)" fill="#F37435"/>
<circle cx="17.2189" cy="43.4625" r="2.06626" transform="rotate(180 17.2189 43.4625)" fill="#F37435"/>
<circle cx="9.64272" cy="43.4625" r="2.06626" transform="rotate(180 9.64272 43.4625)" fill="#F37435"/>
<circle cx="2.06655" cy="43.4625" r="2.06626" transform="rotate(180 2.06655 43.4625)" fill="#F37435"/>
<circle cx="47.5241" cy="36.5739" r="2.06626" transform="rotate(180 47.5241 36.5739)" fill="#F37435"/>
<circle cx="39.9479" cy="36.5739" r="2.06626" transform="rotate(180 39.9479 36.5739)" fill="#F37435"/>
<circle cx="32.3712" cy="36.5739" r="2.06626" transform="rotate(180 32.3712 36.5739)" fill="#F37435"/>
<circle cx="24.7951" cy="36.5739" r="2.06626" transform="rotate(180 24.7951 36.5739)" fill="#F37435"/>
<circle cx="17.2189" cy="36.5739" r="2.06626" transform="rotate(180 17.2189 36.5739)" fill="#F37435"/>
<circle cx="9.64272" cy="36.5739" r="2.06626" transform="rotate(180 9.64272 36.5739)" fill="#F37435"/>
<circle cx="2.06655" cy="36.5739" r="2.06626" transform="rotate(180 2.06655 36.5739)" fill="#F37435"/>
<circle cx="47.5241" cy="29.6872" r="2.06626" transform="rotate(180 47.5241 29.6872)" fill="#F37435"/>
<circle cx="39.9479" cy="29.6872" r="2.06626" transform="rotate(180 39.9479 29.6872)" fill="#F37435"/>
<circle cx="32.3712" cy="29.6872" r="2.06626" transform="rotate(180 32.3712 29.6872)" fill="#F37435"/>
<circle cx="24.7951" cy="29.6872" r="2.06626" transform="rotate(180 24.7951 29.6872)" fill="#F37435"/>
<circle cx="17.2189" cy="29.6872" r="2.06626" transform="rotate(180 17.2189 29.6872)" fill="#F37435"/>
<circle cx="9.64272" cy="29.6872" r="2.06626" transform="rotate(180 9.64272 29.6872)" fill="#F37435"/>
<circle cx="2.06655" cy="29.6872" r="2.06626" transform="rotate(180 2.06655 29.6872)" fill="#F37435"/>
<circle cx="47.5241" cy="22.7985" r="2.06626" transform="rotate(180 47.5241 22.7985)" fill="#F37435"/>
<circle cx="39.9479" cy="22.7985" r="2.06626" transform="rotate(180 39.9479 22.7985)" fill="#F37435"/>
<circle cx="32.3712" cy="22.7985" r="2.06626" transform="rotate(180 32.3712 22.7985)" fill="#F37435"/>
<circle cx="24.7951" cy="22.7985" r="2.06626" transform="rotate(180 24.7951 22.7985)" fill="#F37435"/>
<circle cx="17.2189" cy="22.7985" r="2.06626" transform="rotate(180 17.2189 22.7985)" fill="#F37435"/>
<circle cx="9.64272" cy="22.7985" r="2.06626" transform="rotate(180 9.64272 22.7985)" fill="#F37435"/>
<circle cx="2.06655" cy="22.7985" r="2.06626" transform="rotate(180 2.06655 22.7985)" fill="#F37435"/>
<circle cx="47.5241" cy="15.9116" r="2.06626" transform="rotate(180 47.5241 15.9116)" fill="#F37435"/>
<circle cx="39.9479" cy="15.9116" r="2.06626" transform="rotate(180 39.9479 15.9116)" fill="#F37435"/>
<circle cx="32.3712" cy="15.9116" r="2.06626" transform="rotate(180 32.3712 15.9116)" fill="#F37435"/>
<circle cx="24.7951" cy="15.9116" r="2.06626" transform="rotate(180 24.7951 15.9116)" fill="#F37435"/>
<circle cx="17.2189" cy="15.9116" r="2.06626" transform="rotate(180 17.2189 15.9116)" fill="#F37435"/>
<circle cx="9.64272" cy="15.9116" r="2.06626" transform="rotate(180 9.64272 15.9116)" fill="#F37435"/>
<circle cx="2.06655" cy="15.9116" r="2.06626" transform="rotate(180 2.06655 15.9116)" fill="#F37435"/>
<circle cx="47.5241" cy="9.0231" r="2.06626" transform="rotate(180 47.5241 9.0231)" fill="#F37435"/>
<circle cx="39.9479" cy="9.0231" r="2.06626" transform="rotate(180 39.9479 9.0231)" fill="#F37435"/>
<circle cx="32.3712" cy="9.0231" r="2.06626" transform="rotate(180 32.3712 9.0231)" fill="#F37435"/>
<circle cx="24.7951" cy="9.02309" r="2.06626" transform="rotate(180 24.7951 9.02309)" fill="#F37435"/>
<circle cx="17.2189" cy="9.02309" r="2.06626" transform="rotate(180 17.2189 9.02309)" fill="#F37435"/>
<circle cx="9.64272" cy="9.0231" r="2.06626" transform="rotate(180 9.64272 9.0231)" fill="#F37435"/>
<circle cx="2.06655" cy="9.0231" r="2.06626" transform="rotate(180 2.06655 9.0231)" fill="#F37435"/>
<circle cx="47.5241" cy="2.13657" r="2.06626" transform="rotate(180 47.5241 2.13657)" fill="#F37435"/>
<circle cx="39.9479" cy="2.13657" r="2.06626" transform="rotate(180 39.9479 2.13657)" fill="#F37435"/>
<circle cx="32.3712" cy="2.13657" r="2.06626" transform="rotate(180 32.3712 2.13657)" fill="#F37435"/>
<circle cx="24.7951" cy="2.13657" r="2.06626" transform="rotate(180 24.7951 2.13657)" fill="#F37435"/>
<circle cx="17.2189" cy="2.13657" r="2.06626" transform="rotate(180 17.2189 2.13657)" fill="#F37435"/>
<circle cx="9.64272" cy="2.13657" r="2.06626" transform="rotate(180 9.64272 2.13657)" fill="#F37435"/>
<circle cx="2.06606" cy="2.13657" r="2.06626" transform="rotate(180 2.06606 2.13657)" fill="#F37435"/>
<circle cx="47.5241" cy="105.455" r="2.06626" transform="rotate(180 47.5241 105.455)" fill="#F37435"/>
<circle cx="39.9479" cy="105.455" r="2.06626" transform="rotate(180 39.9479 105.455)" fill="#F37435"/>
<circle cx="32.3712" cy="105.455" r="2.06626" transform="rotate(180 32.3712 105.455)" fill="#F37435"/>
<circle cx="24.7951" cy="105.455" r="2.06626" transform="rotate(180 24.7951 105.455)" fill="#F37435"/>
<circle cx="17.2189" cy="105.455" r="2.06626" transform="rotate(180 17.2189 105.455)" fill="#F37435"/>
<circle cx="9.64272" cy="105.455" r="2.06626" transform="rotate(180 9.64272 105.455)" fill="#F37435"/>
<circle cx="2.06655" cy="105.455" r="2.06626" transform="rotate(180 2.06655 105.455)" fill="#F37435"/>
<circle cx="47.5241" cy="98.568" r="2.06626" transform="rotate(180 47.5241 98.568)" fill="#F37435"/>
<circle cx="39.9479" cy="98.568" r="2.06626" transform="rotate(180 39.9479 98.568)" fill="#F37435"/>
<circle cx="32.3712" cy="98.568" r="2.06626" transform="rotate(180 32.3712 98.568)" fill="#F37435"/>
<circle cx="24.7951" cy="98.568" r="2.06626" transform="rotate(180 24.7951 98.568)" fill="#F37435"/>
<circle cx="17.2189" cy="98.568" r="2.06626" transform="rotate(180 17.2189 98.568)" fill="#F37435"/>
<circle cx="9.64272" cy="98.568" r="2.06626" transform="rotate(180 9.64272 98.568)" fill="#F37435"/>
<circle cx="2.06655" cy="98.568" r="2.06626" transform="rotate(180 2.06655 98.568)" fill="#F37435"/>
<circle cx="47.5241" cy="91.6793" r="2.06626" transform="rotate(180 47.5241 91.6793)" fill="#F37435"/>
<circle cx="39.9479" cy="91.6793" r="2.06626" transform="rotate(180 39.9479 91.6793)" fill="#F37435"/>
<circle cx="32.3712" cy="91.6793" r="2.06626" transform="rotate(180 32.3712 91.6793)" fill="#F37435"/>
<circle cx="24.7951" cy="91.6793" r="2.06626" transform="rotate(180 24.7951 91.6793)" fill="#F37435"/>
<circle cx="17.2189" cy="91.6793" r="2.06626" transform="rotate(180 17.2189 91.6793)" fill="#F37435"/>
<circle cx="9.64272" cy="91.6793" r="2.06626" transform="rotate(180 9.64272 91.6793)" fill="#F37435"/>
<circle cx="2.06655" cy="91.6793" r="2.06626" transform="rotate(180 2.06655 91.6793)" fill="#F37435"/>
<circle cx="47.5241" cy="84.7926" r="2.06626" transform="rotate(180 47.5241 84.7926)" fill="#F37435"/>
<circle cx="39.9479" cy="84.7926" r="2.06626" transform="rotate(180 39.9479 84.7926)" fill="#F37435"/>
<circle cx="32.3712" cy="84.7926" r="2.06626" transform="rotate(180 32.3712 84.7926)" fill="#F37435"/>
<circle cx="24.7951" cy="84.7926" r="2.06626" transform="rotate(180 24.7951 84.7926)" fill="#F37435"/>
<circle cx="17.2189" cy="84.7926" r="2.06626" transform="rotate(180 17.2189 84.7926)" fill="#F37435"/>
<circle cx="9.64272" cy="84.7926" r="2.06626" transform="rotate(180 9.64272 84.7926)" fill="#F37435"/>
<circle cx="2.06655" cy="84.7926" r="2.06626" transform="rotate(180 2.06655 84.7926)" fill="#F37435"/>
<circle cx="47.5241" cy="77.904" r="2.06626" transform="rotate(180 47.5241 77.904)" fill="#F37435"/>
<circle cx="39.9479" cy="77.904" r="2.06626" transform="rotate(180 39.9479 77.904)" fill="#F37435"/>
<circle cx="32.3712" cy="77.904" r="2.06626" transform="rotate(180 32.3712 77.904)" fill="#F37435"/>
<circle cx="24.7951" cy="77.904" r="2.06626" transform="rotate(180 24.7951 77.904)" fill="#F37435"/>
<circle cx="17.2189" cy="77.904" r="2.06626" transform="rotate(180 17.2189 77.904)" fill="#F37435"/>
<circle cx="9.64272" cy="77.904" r="2.06626" transform="rotate(180 9.64272 77.904)" fill="#F37435"/>
<circle cx="2.06655" cy="77.904" r="2.06626" transform="rotate(180 2.06655 77.904)" fill="#F37435"/>
<circle cx="47.5241" cy="71.0171" r="2.06626" transform="rotate(180 47.5241 71.0171)" fill="#F37435"/>
<circle cx="39.9479" cy="71.0171" r="2.06626" transform="rotate(180 39.9479 71.0171)" fill="#F37435"/>
<circle cx="32.3712" cy="71.0171" r="2.06626" transform="rotate(180 32.3712 71.0171)" fill="#F37435"/>
<circle cx="24.7951" cy="71.0171" r="2.06626" transform="rotate(180 24.7951 71.0171)" fill="#F37435"/>
<circle cx="17.2189" cy="71.0171" r="2.06626" transform="rotate(180 17.2189 71.0171)" fill="#F37435"/>
<circle cx="9.64272" cy="71.0171" r="2.06626" transform="rotate(180 9.64272 71.0171)" fill="#F37435"/>
<circle cx="2.06655" cy="71.0171" r="2.06626" transform="rotate(180 2.06655 71.0171)" fill="#F37435"/>
<circle cx="47.5241" cy="64.1286" r="2.06626" transform="rotate(180 47.5241 64.1286)" fill="#F37435"/>
<circle cx="39.9479" cy="64.1286" r="2.06626" transform="rotate(180 39.9479 64.1286)" fill="#F37435"/>
<circle cx="32.3712" cy="64.1286" r="2.06626" transform="rotate(180 32.3712 64.1286)" fill="#F37435"/>
<circle cx="24.7951" cy="64.1286" r="2.06626" transform="rotate(180 24.7951 64.1286)" fill="#F37435"/>
<circle cx="17.2189" cy="64.1286" r="2.06626" transform="rotate(180 17.2189 64.1286)" fill="#F37435"/>
<circle cx="9.64272" cy="64.1286" r="2.06626" transform="rotate(180 9.64272 64.1286)" fill="#F37435"/>
<circle cx="2.06655" cy="64.1286" r="2.06626" transform="rotate(180 2.06655 64.1286)" fill="#F37435"/>
<circle cx="47.5241" cy="57.242" r="2.06626" transform="rotate(180 47.5241 57.242)" fill="#F37435"/>
<circle cx="39.9479" cy="57.242" r="2.06626" transform="rotate(180 39.9479 57.242)" fill="#F37435"/>
<circle cx="32.3712" cy="57.242" r="2.06626" transform="rotate(180 32.3712 57.242)" fill="#F37435"/>
<circle cx="24.7951" cy="57.242" r="2.06626" transform="rotate(180 24.7951 57.242)" fill="#F37435"/>
<circle cx="17.2189" cy="57.242" r="2.06626" transform="rotate(180 17.2189 57.242)" fill="#F37435"/>
<circle cx="9.64272" cy="57.242" r="2.06626" transform="rotate(180 9.64272 57.242)" fill="#F37435"/>
<circle cx="2.06606" cy="57.242" r="2.06626" transform="rotate(180 2.06606 57.242)" fill="#F37435"/>
</svg>
