<svg width="71" height="42" viewBox="0 0 71 42" fill="none" xmlns="http://www.w3.org/2000/svg">
<path d="M50.3507 8.29165L52.9473 13.8014L56.3932 12.9588L56.5297 12.9243L58.2515 12.5042L53.2692 8.15442L53.1519 8.054L52.7196 7.67529C52.6659 7.62852 52.5954 7.60936 52.5241 7.62392L50.4971 8.00263C50.3653 8.02793 50.2917 8.16976 50.3507 8.29165Z" fill="#C6C4C4"/>
<path d="M57.7361 12.3806L53.1081 8.34047L52.9931 8.24234L52.5584 7.86133L50.5928 8.23544L53.082 13.5182L57.7361 12.3806Z" fill="white"/>
<path d="M52.1053 8.58825C52.1176 8.60512 56.3915 12.9603 56.3915 12.9603L56.5279 12.9258L52.2096 8.52693C52.195 8.49013 52.1973 8.44643 52.2172 8.40963C52.2364 8.37054 52.2732 8.3437 52.3177 8.33374L53.2675 8.15512L53.1502 8.05469L52.2954 8.21338C52.2149 8.22794 52.1467 8.27931 52.1076 8.3529C52.0716 8.42727 52.0685 8.51236 52.1053 8.58825Z" fill="#333333"/>
<path d="M16.7368 19.2998C16.7368 19.2998 18.0301 19.217 18.0708 18.2611C18.1114 17.3043 17.2972 17.1211 17.2972 17.1211L15.7402 17.2131L16.7368 19.2998Z" fill="#808080"/>
<path d="M17.8267 18.7471C17.8267 18.7471 19.12 18.6643 19.1606 17.7083C19.2012 16.7516 18.3871 16.5684 18.3871 16.5684L16.8301 16.6611L17.8267 18.7471Z" fill="#808080"/>
<path d="M16.8402 19.1976C16.8402 19.1976 16.0054 20.1137 14.6216 20.4902C13.2379 20.8666 12.4743 20.6695 12.4743 20.6695L11.7314 17.1347C11.7314 17.1347 12.2405 16.4807 13.8688 16.4094C15.4971 16.3381 16.6777 17.0327 16.6777 17.0327C16.6777 17.0327 17.4711 18.2003 16.8402 19.1976Z" fill="#006D8D"/>
<path d="M10.9748 19.0609C11.148 20.0583 11.897 20.7736 12.6476 20.6578C13.3981 20.542 13.8657 19.6397 13.6925 18.6424C13.5192 17.645 12.7702 16.9297 12.0197 17.0455C11.2692 17.1612 10.8008 18.0636 10.9748 19.0609Z" fill="#C6C4C4"/>
<path d="M11.2988 19.0098C11.4306 19.7695 11.9995 20.3138 12.5714 20.2264C12.6618 20.2118 12.7446 20.185 12.8228 20.1413C13.2429 19.9213 13.4798 19.3325 13.3671 18.6932C13.2376 17.9457 12.681 17.4083 12.1214 17.4765C11.5242 17.5662 11.1669 18.2524 11.2988 19.0098Z" fill="#4D4D4D"/>
<path d="M11.5807 18.9247C11.7103 19.6721 12.2623 20.2072 12.8242 20.1413C13.2443 19.9213 13.4812 19.3325 13.3685 18.6932C13.2389 17.9457 12.6824 17.4083 12.1227 17.4765C11.7049 17.6958 11.468 18.2846 11.5807 18.9247Z" fill="#333333"/>
<path d="M12.2249 18.7956C12.2594 19.0141 12.4234 19.1689 12.5921 19.1429C12.7608 19.116 12.8696 18.9182 12.8359 18.6997C12.8021 18.4813 12.6373 18.3264 12.4687 18.3525C12.3 18.3793 12.1911 18.5771 12.2249 18.7956Z" fill="#999999"/>
<g opacity="0.4">
<path d="M12.1813 20.0026C12.182 20.0049 13.0322 20.2242 14.5739 19.8049C15.9331 19.4246 16.1593 17.5832 14.4091 16.769L13.6187 16.4386C13.6187 16.4386 16.9704 16.2807 17.8826 16.6625C18.0643 16.6387 18.8317 17.7526 19.1583 17.528C19.1629 17.5847 19.1644 17.6445 19.1614 17.7081C19.1269 18.5154 18.2038 18.6994 17.9148 18.7377C17.5622 19.246 16.7381 19.3004 16.7381 19.3004C16.4766 19.5488 15.7246 20.1897 14.6222 20.4902C13.2384 20.8666 12.4741 20.6696 12.4741 20.6696C11.8792 20.6604 11.3135 20.1537 11.0674 19.4231C11.3763 19.7796 11.7719 19.998 12.1813 20.0026Z" fill="#590E0E"/>
</g>
<path d="M13.357 13.9795C13.357 13.9795 14.6503 13.8967 14.6909 12.9407C14.7315 11.984 13.9174 11.8008 13.9174 11.8008L12.3604 11.8935L13.357 13.9795Z" fill="#808080"/>
<path d="M14.4458 13.4268C14.4458 13.4268 15.7391 13.3448 15.7797 12.388C15.8204 11.4313 15.0062 11.248 15.0062 11.248L13.4492 11.3408L14.4458 13.4268Z" fill="#808080"/>
<path d="M13.4593 13.8773C13.4593 13.8773 12.6253 14.7934 11.2407 15.1698C9.85699 15.5463 9.09344 15.3492 9.09344 15.3492L8.35059 11.8143C8.35059 11.8143 8.85962 11.1604 10.4879 11.0891C12.1162 11.0178 13.2968 11.7124 13.2968 11.7124C13.2968 11.7124 14.0903 12.8799 13.4593 13.8773Z" fill="#006D8D"/>
<path d="M7.59392 13.7406C7.76718 14.738 8.51615 15.4533 9.26667 15.3375C10.0172 15.2217 10.4848 14.3194 10.3116 13.322C10.1383 12.3247 9.38933 11.6094 8.63881 11.7252C7.88829 11.8409 7.4199 12.7433 7.59392 13.7406Z" fill="#C6C4C4"/>
<path d="M7.92016 13.6895C8.05202 14.4492 8.62085 14.9935 9.19275 14.9061C9.28321 14.8915 9.36601 14.8647 9.44421 14.821C9.86431 14.601 10.1012 14.0122 9.98927 13.3729C9.85971 12.6254 9.30315 12.088 8.74351 12.1562C8.14478 12.2459 7.78753 12.932 7.92016 13.6895Z" fill="#4D4D4D"/>
<path d="M8.19987 13.6024C8.32943 14.3499 8.8814 14.885 9.44257 14.8191C9.86267 14.599 10.0996 14.0103 9.98763 13.3709C9.85807 12.6234 9.30151 12.086 8.74187 12.1543C8.32407 12.3743 8.08718 12.9631 8.19987 13.6024Z" fill="#333333"/>
<path d="M8.84402 13.4745C8.87775 13.693 9.04258 13.8478 9.21123 13.8218C9.37989 13.7949 9.48951 13.5972 9.45501 13.3794C9.42128 13.161 9.25648 13.0061 9.08782 13.0322C8.91917 13.0582 8.81029 13.256 8.84402 13.4745Z" fill="#999999"/>
<g opacity="0.4">
<path d="M8.79968 14.6823C8.80044 14.6839 9.65063 14.9039 11.1923 14.4845C12.5515 14.1043 12.7777 12.2629 11.0275 11.4487L10.2371 11.1183C10.2371 11.1183 13.5887 10.9604 14.501 11.3422C14.6827 11.3184 15.4501 12.4323 15.7767 12.2077C15.7813 12.2644 15.7828 12.3242 15.7797 12.3878C15.7452 13.1951 14.8222 13.3791 14.5332 13.4174C14.1806 13.9264 13.3565 13.9801 13.3565 13.9801C13.0958 14.2285 12.343 14.8694 11.2406 15.1699C9.85684 15.5463 9.09329 15.3493 9.09329 15.3493C8.49839 15.3401 7.93261 14.8334 7.68652 14.1028C7.99471 14.4592 8.3903 14.6777 8.79968 14.6823Z" fill="#590E0E"/>
</g>
<path d="M4.84177 0.659827L16.0597 18.9606L25.0967 17.5339L25.2507 17.5094L28.5579 16.9866L23.6094 12.9687L23.4898 12.8713L15.0639 6.03001L14.942 5.92958L8.59666 0.776354L8.46941 0.673626L7.71966 0.0656964C7.65373 0.0120329 7.56555 -0.010199 7.48276 0.00436676L4.92838 0.465872C4.83945 0.484271 4.79577 0.584698 4.84177 0.659827Z" fill="#C6C4C4"/>
<path d="M7.47966 0.501953L14.7541 6.40953L27.398 16.6754L18.3994 18.0959L5.85059 0.796336L7.47966 0.501953Z" fill="white"/>
<path d="M7.39384 1.13073C7.4038 1.143 25.0959 17.5334 25.0959 17.5334L25.25 17.5088L20.9738 13.5477L23.6086 12.9689L23.489 12.8715L20.8657 13.4457L13.28 6.41889L15.0631 6.03021L14.9412 5.92978L13.1703 6.31846L7.49427 1.06021C7.48431 1.04334 7.48431 1.02341 7.49427 1.00424C7.50117 0.984311 7.52111 0.972045 7.54104 0.967445L8.59589 0.776556L8.46865 0.673828L7.52111 0.847086C7.45978 0.857052 7.40611 0.898449 7.38158 0.954412C7.35705 1.01114 7.35934 1.07707 7.39384 1.13073Z" fill="#333333"/>
<path d="M30.448 29.2163C30.3545 29.7744 30.6704 30.2274 31.1533 30.2274C31.6363 30.2274 32.104 29.7751 32.1975 29.2163C32.291 28.6582 31.9752 28.2051 31.4922 28.2051C31.0092 28.2051 30.5416 28.6582 30.448 29.2163Z" fill="#1A1A1A"/>
<path d="M32.0453 29.2933L31.6489 29.0856C31.4189 28.9629 31.2035 29.3623 31.4136 29.4996L31.7915 29.7456L32.0453 29.2933Z" fill="#B3B3B3"/>
<path d="M31.4959 29.8178C31.4024 30.3759 31.7182 30.829 32.2012 30.829C32.6842 30.829 33.1518 30.3767 33.2453 29.8178C33.3389 29.2597 33.023 28.8066 32.54 28.8066C32.0563 28.8066 31.5894 29.2589 31.4959 29.8178Z" fill="#1A1A1A"/>
<path d="M31.7469 28.181L31.5338 28.9353L31.8466 29.1906C31.8466 29.1906 31.6902 29.485 31.7002 29.5172C31.7094 29.5494 31.2134 29.82 31.2134 29.82H30.2666V29.6651C30.2666 29.6651 31.0079 28.9008 31.0079 28.8778C31.0079 28.8548 31.2218 28.125 31.2218 28.125L31.7469 28.181Z" fill="#B3B3B3"/>
<path d="M28.6688 29.8198C28.5752 30.3779 28.8911 30.8309 29.374 30.8309C29.857 30.8309 30.3246 30.3786 30.4182 29.8198C30.5117 29.2617 30.1959 28.8086 29.7129 28.8086C29.2292 28.8086 28.7623 29.2617 28.6688 29.8198Z" fill="#1A1A1A"/>
<path d="M30.265 29.8949L29.8686 29.6872C29.6387 29.5645 29.4232 29.9639 29.6333 30.1011L30.0112 30.3472L30.265 29.8949Z" fill="#B3B3B3"/>
<path d="M29.7166 30.4194C29.6231 30.9775 29.9389 31.4305 30.4219 31.4305C30.9049 31.4305 31.3725 30.9782 31.4653 30.4194C31.5588 29.8613 31.2429 29.4082 30.76 29.4082C30.2778 29.4082 29.8101 29.8613 29.7166 30.4194Z" fill="#1A1A1A"/>
<path d="M32.2355 27.5119L31.9227 28.5729C31.7855 28.7538 30.9361 28.5805 30.8311 28.2831L31.1209 27.1914L32.2355 27.5119Z" fill="#B3B3B3"/>
<path d="M6.34258 29.5424C6.24905 30.1005 6.56491 30.5536 7.04788 30.5536C7.53085 30.5536 7.99849 30.1013 8.09202 29.5424C8.18554 28.9843 7.86969 28.5312 7.38672 28.5312C6.90298 28.5312 6.43611 28.9843 6.34258 29.5424Z" fill="#1A1A1A"/>
<path d="M7.93979 29.6176L7.54345 29.4098C7.31346 29.2872 7.09803 29.6866 7.30809 29.8238L7.68604 30.0699L7.93979 29.6176Z" fill="#B3B3B3"/>
<path d="M7.51367 29.5427L7.86477 28.0547L8.46734 28.1612L8.05642 29.6899L7.51367 29.5427Z" fill="#B3B3B3"/>
<path d="M7.39141 30.142C7.29788 30.7001 7.61374 31.1532 8.09671 31.1532C8.57968 31.1532 9.04731 30.7009 9.14007 30.142C9.2336 29.5839 8.91774 29.1309 8.43477 29.1309C7.95257 29.1309 7.48493 29.5839 7.39141 30.142Z" fill="#1A1A1A"/>
<path d="M37.1656 31.0225C37.1656 31.0225 38.4588 30.9397 38.4995 29.9837C38.5401 29.0277 37.726 28.8438 37.726 28.8438L36.1689 28.9365L37.1656 31.0225Z" fill="#808080"/>
<path d="M38.2534 30.4678C38.2534 30.4678 39.5467 30.385 39.5873 29.429C39.628 28.4723 38.8138 28.2891 38.8138 28.2891L37.2568 28.3811L38.2534 30.4678Z" fill="#808080"/>
<path d="M37.2679 30.9183C37.2679 30.9183 36.4331 31.8344 35.0493 32.2109C33.6656 32.5873 32.902 32.3903 32.902 32.3903L32.1592 28.8554C32.1592 28.8554 32.6682 28.2014 34.2965 28.1301C35.9248 28.0588 37.1054 28.7534 37.1054 28.7534C37.1054 28.7534 37.8989 29.921 37.2679 30.9183Z" fill="#006D8D"/>
<path d="M31.4022 30.7816C31.5755 31.779 32.3245 32.4943 33.075 32.3785C33.8255 32.2627 34.2932 31.3604 34.1199 30.3631C33.9466 29.3657 33.1977 28.6504 32.4471 28.7662C31.6974 28.882 31.229 29.7843 31.4022 30.7816Z" fill="#C6C4C4"/>
<path d="M31.7266 30.7305C31.8584 31.4902 32.4273 32.0345 32.9992 31.9471C33.0896 31.9325 33.1724 31.9057 33.2506 31.862C33.6707 31.642 33.9076 31.0532 33.7949 30.4139C33.6653 29.6664 33.1088 29.129 32.5491 29.1972C31.9512 29.2869 31.5947 29.9731 31.7266 30.7305Z" fill="#4D4D4D"/>
<path d="M32.0075 30.6454C32.137 31.3928 32.689 31.9279 33.251 31.862C33.6711 31.642 33.9079 31.0532 33.7953 30.4139C33.6657 29.6664 33.1091 29.129 32.5495 29.1972C32.1317 29.4173 31.8948 30.006 32.0075 30.6454Z" fill="#333333"/>
<path d="M32.6516 30.5163C32.6854 30.7348 32.8502 30.8896 33.0189 30.8636C33.1875 30.8375 33.2971 30.6389 33.2626 30.4205C33.2281 30.202 33.0641 30.0471 32.8954 30.0732C32.7268 30.1 32.6179 30.2978 32.6516 30.5163Z" fill="#999999"/>
<g opacity="0.4">
<path d="M32.6083 31.724C32.609 31.7263 33.4592 31.9455 35.0009 31.5262C36.3601 31.146 36.5862 29.3045 34.8361 28.4904L33.8241 28.1255C33.8241 28.1255 38.0313 28.518 38.4246 27.9514C38.6063 27.9277 39.2587 29.474 39.586 29.2501C39.5906 29.3068 39.5922 29.3666 39.5891 29.4303C39.5546 30.2375 38.6316 30.4215 38.3426 30.4598C37.9899 30.9689 37.1658 31.0225 37.1658 31.0225C36.9044 31.2709 36.1524 31.9118 35.05 32.2123C33.6662 32.5887 32.9019 32.3917 32.9019 32.3917C32.307 32.3825 31.7412 31.8758 31.4951 31.1452C31.8033 31.5009 32.1989 31.7186 32.6083 31.724Z" fill="#590E0E"/>
</g>
<path d="M47.9312 33.919C47.9312 33.919 49.2245 33.8362 49.2651 32.8802C49.3057 31.9242 48.4916 31.7402 48.4916 31.7402L46.9346 31.833L47.9312 33.919Z" fill="#808080"/>
<path d="M49.021 33.3662C49.021 33.3662 50.3143 33.2834 50.3549 32.3275C50.3956 31.3707 49.5814 31.1875 49.5814 31.1875L48.0244 31.2795L49.021 33.3662Z" fill="#808080"/>
<path d="M48.0338 33.8168C48.0338 33.8168 47.1989 34.7329 45.8152 35.1093C44.4314 35.4857 43.6679 35.2887 43.6679 35.2887L42.9258 31.7538C42.9258 31.7538 43.4348 31.0999 45.0631 31.0286C46.6914 30.9573 47.872 31.6518 47.872 31.6518C47.872 31.6518 48.6647 32.8194 48.0338 33.8168Z" fill="#006D8D"/>
<path d="M42.1689 33.6801C42.3421 34.6775 43.0911 35.3927 43.8417 35.277C44.5922 35.1612 45.0598 34.2589 44.8866 33.2615C44.7133 32.2641 43.9643 31.5489 43.2138 31.6646C42.4633 31.7804 41.9956 32.6827 42.1689 33.6801Z" fill="#C6C4C4"/>
<path d="M42.4941 33.627C42.626 34.3867 43.1948 34.931 43.7667 34.8436C43.8572 34.829 43.94 34.8022 44.0182 34.7585C44.4383 34.5385 44.6752 33.9497 44.5625 33.3104C44.4329 32.5629 43.8764 32.0255 43.3167 32.0937C42.7188 32.1834 42.3623 32.8695 42.4941 33.627Z" fill="#4D4D4D"/>
<path d="M42.775 33.5419C42.9046 34.2893 43.4565 34.8244 44.0185 34.7585C44.4386 34.5385 44.6755 33.9497 44.5628 33.3104C44.4332 32.5629 43.8766 32.0255 43.317 32.0937C42.9 32.3137 42.6623 32.9025 42.775 33.5419Z" fill="#333333"/>
<path d="M43.4194 33.414C43.4532 33.6324 43.618 33.7873 43.7866 33.7612C43.9553 33.7352 44.0649 33.5366 44.0304 33.3189C43.9967 33.1004 43.8319 32.9455 43.6632 32.9716C43.4946 32.9977 43.3849 33.1955 43.4194 33.414Z" fill="#999999"/>
<g opacity="0.4">
<path d="M43.3748 34.6212C43.3748 34.6235 44.2258 34.8428 45.7675 34.4234C47.1267 34.0432 47.3528 32.2018 45.6019 31.3876L44.59 31.022C44.59 31.022 48.7972 31.4145 49.1904 30.8479C49.3721 30.8242 50.0245 32.3704 50.3519 32.1466C50.3565 32.2033 50.358 32.2631 50.3549 32.3267C50.3204 33.134 49.3974 33.318 49.1084 33.3563C48.7558 33.8653 47.9316 33.919 47.9316 33.919C47.671 34.1674 46.9182 34.8083 45.8158 35.1088C44.432 35.4852 43.6685 35.2882 43.6685 35.2882C43.0736 35.279 42.5078 34.7723 42.2617 34.0417C42.5699 34.3982 42.9655 34.6159 43.3748 34.6212Z" fill="#590E0E"/>
</g>
<path d="M0.449976 26.2629C0.838653 26.749 1.46879 27.245 2.32051 27.7525C4.03007 28.7713 6.27015 28.9346 6.27015 28.9346C6.27015 28.9346 6.28472 28.9323 6.31385 28.927C6.6435 28.8756 8.79003 28.5383 11.8948 28.0522C20.5991 26.6892 36.8338 24.1471 41.6259 23.4042C42.1342 23.326 42.5152 23.2678 42.7421 23.2333C43.5923 23.1037 44.4686 22.9304 45.3556 22.7058C45.7412 22.6085 46.1275 22.5034 46.5155 22.3861C46.9816 22.2497 47.4507 22.0956 47.9176 21.9269C49.5421 21.3481 51.1443 20.5938 52.6338 19.6531C55.7279 17.699 61.6317 13.0587 61.6317 13.0587C61.6317 13.0587 61.6485 13.0441 61.6784 13.015C61.7007 12.9927 61.7175 12.9782 61.7344 12.959C61.9008 12.7735 62.1154 12.4047 61.0605 12.5289C56.2983 12.854 43.7196 14.3604 43.7196 14.3604C43.7196 14.3604 43.2336 14.4363 42.3688 14.5704C42.3052 14.5827 42.2392 14.5927 42.171 14.6049C41.6873 14.6785 41.1131 14.769 40.4538 14.871C39.6013 15.0051 38.6101 15.1615 37.5107 15.3325C29.429 16.5951 15.5808 18.7593 9.08901 19.7482C7.21079 20.0342 5.94816 20.222 5.61851 20.2634C5.45522 20.2825 5.29883 20.3094 5.14934 20.3416C3.64217 20.6444 2.80502 21.4233 2.43091 21.9315C2.38951 21.9898 2.35271 22.0442 2.32128 22.0948C2.20629 22.2781 1.92572 22.5617 1.59607 22.8914C1.17136 23.3161 0.663076 23.822 0.338029 24.2858C0.196204 24.4882 0.0911928 24.6837 0.0428957 24.8623C-0.0797636 25.3131 0.0620658 25.7815 0.449976 26.2629Z" fill="#C6C4C4"/>
<path d="M1.91945 23.2599C2.33113 22.849 2.59715 22.5769 2.73591 22.3538C2.76274 22.3101 2.79416 22.2649 2.82406 22.2227C3.06094 21.9007 3.77161 21.1188 5.25042 20.8213C5.39301 20.7906 5.53636 20.7669 5.67818 20.75C6.09062 20.6979 7.80019 20.4403 9.16094 20.2333C15.773 19.226 29.918 17.015 37.5443 15.8229L37.5842 15.8176C38.5701 15.6642 39.4701 15.5224 40.2597 15.3975L42.1893 15.0969L42.3648 15.0954L42.3986 15.0632C42.4124 15.0609 42.4262 15.0578 42.44 15.0555L43.7762 14.8478C43.8996 14.8332 55.98 13.3881 60.8718 13.0332C60.405 13.3966 45.4995 16.1396 45.255 16.1687L43.9188 16.3764C43.905 16.3787 43.8912 16.3818 43.8774 16.3841L43.8436 16.4163L43.6681 16.4178L41.7385 16.7183C40.9481 16.8425 40.0489 16.9844 39.063 17.1385L39.0231 17.1438C31.396 18.3359 17.2519 20.5461 10.6398 21.5542C9.27825 21.7612 7.56945 22.0195 7.15701 22.0717C7.01442 22.0885 6.87181 22.1123 6.72845 22.143C5.24964 22.4404 4.539 23.2224 4.30211 23.5443C4.27221 23.5865 4.24077 23.6317 4.21393 23.6754C4.07441 23.8978 3.8084 24.1699 3.41819 24.5601C3.31086 24.6674 3.22195 24.7564 3.13302 24.8468C2.64851 25.3382 1.85811 25.3474 1.3621 24.8675C1.07922 24.5946 1.06466 24.1431 1.33375 23.8571C1.52694 23.6524 1.72933 23.45 1.91945 23.2599Z" fill="white"/>
<path d="M41.626 23.4063C42.1342 23.3281 42.5152 23.2698 42.7422 23.2353C43.5923 23.1058 44.4686 22.9325 45.3556 22.7079C47.0038 17.1445 43.4942 15.3905 40.4538 14.873C39.6013 15.0072 38.6101 15.1636 37.5107 15.3346C41.5332 16.4668 42.9906 19.564 41.626 23.4063Z" fill="#006D8D"/>
<path d="M6.31392 28.9268C6.64357 28.8754 8.79011 28.5381 11.8949 28.0521C11.9685 27.8466 12.0413 27.632 12.1126 27.4074C13.6121 22.7279 11.563 20.6496 9.08908 19.748C7.21086 20.034 5.94823 20.2218 5.61859 20.2632C5.4553 20.2824 5.29891 20.3092 5.14941 20.3414C8.09707 21.8954 8.58542 25.0968 6.31392 28.9268Z" fill="#006D8D"/>
<path d="M46.5161 22.386C46.9823 22.2496 47.4514 22.0955 47.9183 21.9268C49.2415 16.8794 46.4326 15.8414 43.166 15.0625C47.2874 16.9553 47.7565 18.7055 46.5161 22.386Z" fill="#006D8D"/>
<path d="M1.5957 22.8914C1.93302 23.8658 3.81813 24.5887 5.96236 25.038L5.93555 23.9854C4.09183 23.4994 2.44818 22.8301 2.43055 21.9316C2.38915 21.9899 2.35235 22.0443 2.32091 22.0949C2.20669 22.2789 1.92535 22.5618 1.5957 22.8914Z" fill="#1A1A1A"/>
<path d="M24.7273 22.9876C24.6345 23.0022 24.5586 22.914 24.5586 22.7913V22.5039C24.5586 22.382 24.6345 22.27 24.7273 22.2555C24.82 22.2409 24.8959 22.3291 24.8959 22.4517V22.7392C24.8959 22.8619 24.82 22.9738 24.7273 22.9876Z" fill="#333333"/>
<path d="M25.9206 22.806C25.8278 22.8205 25.752 22.7324 25.752 22.6097V22.3222C25.752 22.2003 25.8278 22.0884 25.9206 22.0738C26.0134 22.0593 26.0893 22.1474 26.0893 22.2701V22.5576C26.09 22.6795 26.0134 22.7914 25.9206 22.806Z" fill="#333333"/>
<path d="M27.1149 22.6243C27.0222 22.6389 26.9463 22.5507 26.9463 22.4281V22.1406C26.9463 22.0179 27.0222 21.9068 27.1149 21.8922C27.2077 21.8776 27.2836 21.9658 27.2836 22.0885V22.3759C27.2836 22.4978 27.2077 22.6098 27.1149 22.6243Z" fill="#333333"/>
<path d="M28.3093 22.4427C28.2165 22.4572 28.1406 22.3691 28.1406 22.2464V21.9589C28.1406 21.8363 28.2165 21.7251 28.3093 21.7106C28.402 21.696 28.4779 21.7842 28.4779 21.9068V22.1943C28.4779 22.3162 28.402 22.4281 28.3093 22.4427Z" fill="#333333"/>
<path d="M29.5036 22.2591C29.4109 22.2737 29.335 22.1855 29.335 22.0628V21.7753C29.335 21.6535 29.4109 21.5415 29.5036 21.527C29.5964 21.5124 29.6723 21.6006 29.6723 21.7232V22.0107C29.6723 22.1334 29.5964 22.2453 29.5036 22.2591Z" fill="#333333"/>
<path d="M30.697 22.0774C30.6042 22.092 30.5283 22.0038 30.5283 21.8812V21.5937C30.5283 21.4718 30.6042 21.3599 30.697 21.3453C30.7897 21.3308 30.8656 21.4189 30.8656 21.5416V21.8291C30.8656 21.951 30.7897 22.0629 30.697 22.0774Z" fill="#333333"/>
<path d="M31.8903 21.8958C31.7976 21.9104 31.7217 21.8222 31.7217 21.6995V21.4121C31.7217 21.2894 31.7976 21.1782 31.8903 21.1637C31.9831 21.1491 32.059 21.2373 32.059 21.3599V21.6482C32.0598 21.7693 31.9839 21.8812 31.8903 21.8958Z" fill="#333333"/>
<path d="M33.0847 21.7142C32.9919 21.7287 32.916 21.6406 32.916 21.5179V21.2304C32.916 21.1078 32.9919 20.9966 33.0847 20.982C33.1774 20.9675 33.2533 21.0556 33.2533 21.1783V21.4658C33.2533 21.5877 33.1774 21.6996 33.0847 21.7142Z" fill="#333333"/>
<path d="M34.278 21.5325C34.1853 21.5471 34.1094 21.4589 34.1094 21.3363V21.0488C34.1094 20.9269 34.1853 20.815 34.278 20.8004C34.3708 20.7858 34.4467 20.874 34.4467 20.9967V21.2841C34.4467 21.4068 34.3708 21.518 34.278 21.5325Z" fill="#333333"/>
<path d="M35.4724 21.3517C35.3796 21.3662 35.3037 21.2781 35.3037 21.1554V20.8671C35.3037 20.7453 35.3796 20.6333 35.4724 20.6188C35.5651 20.6042 35.641 20.6924 35.641 20.815V21.1025C35.641 21.2252 35.5651 21.3371 35.4724 21.3517Z" fill="#333333"/>
<path d="M36.6667 21.1692C36.5739 21.1838 36.498 21.0956 36.498 20.973V20.6855C36.498 20.5628 36.5739 20.4517 36.6667 20.4371C36.7595 20.4226 36.8354 20.5107 36.8354 20.6334V20.9209C36.8354 21.0428 36.7595 21.1547 36.6667 21.1692Z" fill="#333333"/>
<path d="M40.3181 20.5521C40.2253 20.5666 40.1494 20.4785 40.1494 20.3558V20.0683C40.1494 19.9457 40.2253 19.8345 40.3181 19.8199C40.4108 19.8054 40.4867 19.8935 40.4867 20.0162V20.3044C40.4867 20.4256 40.4108 20.5375 40.3181 20.5521Z" fill="#333333"/>
<path d="M41.5358 20.3548C41.4431 20.3694 41.3672 20.2812 41.3672 20.1585V19.8711C41.3672 19.7484 41.4431 19.6372 41.5358 19.6227C41.6286 19.6081 41.7045 19.6963 41.7045 19.8189V20.1064C41.7053 20.2283 41.6286 20.3402 41.5358 20.3548Z" fill="#333333"/>
<path d="M42.7556 20.1595C42.6628 20.174 42.5869 20.0859 42.5869 19.9632V19.6757C42.5869 19.5538 42.6628 19.4419 42.7556 19.4274C42.8483 19.4128 42.9242 19.501 42.9242 19.6236V19.9111C42.9242 20.033 42.8483 20.1449 42.7556 20.1595Z" fill="#333333"/>
<path d="M43.9743 19.9622C43.8816 19.9768 43.8057 19.8886 43.8057 19.766V19.4785C43.8057 19.3566 43.8816 19.2447 43.9743 19.2301C44.0671 19.2155 44.143 19.3037 44.143 19.4256V19.7131C44.143 19.8357 44.0671 19.9476 43.9743 19.9622Z" fill="#333333"/>
<path d="M45.194 19.7669C45.1013 19.7815 45.0254 19.6933 45.0254 19.5706V19.2832C45.0254 19.1613 45.1013 19.0493 45.194 19.0348C45.2868 19.0202 45.3627 19.1084 45.3627 19.231V19.5185C45.3627 19.6404 45.2868 19.7523 45.194 19.7669Z" fill="#333333"/>
<path d="M46.4128 19.5716C46.32 19.5862 46.2441 19.498 46.2441 19.3753V19.0878C46.2441 18.9652 46.32 18.854 46.4128 18.8395C46.5056 18.8249 46.5815 18.9131 46.5815 19.0357V19.3232C46.5815 19.4451 46.5056 19.557 46.4128 19.5716Z" fill="#333333"/>
<path d="M47.6315 19.3743C47.5388 19.3889 47.4629 19.3007 47.4629 19.1781V18.8906C47.4629 18.7679 47.5388 18.6568 47.6315 18.6422C47.7243 18.6276 47.8002 18.7158 47.8002 18.8385V19.1259C47.8002 19.2478 47.7243 19.3598 47.6315 19.3743Z" fill="#333333"/>
<path d="M48.8493 19.179C48.7566 19.1936 48.6807 19.1054 48.6807 18.9828V18.6953C48.6807 18.5726 48.7566 18.4615 48.8493 18.4469C48.9421 18.4323 49.018 18.5205 49.018 18.6431V18.9306C49.0187 19.0525 48.9421 19.1644 48.8493 19.179Z" fill="#333333"/>
<path d="M50.0681 18.9817C49.9753 18.9963 49.8994 18.9081 49.8994 18.7855V18.498C49.8994 18.3761 49.9753 18.2642 50.0681 18.2496C50.1608 18.2351 50.2367 18.3232 50.2367 18.4459V18.7334C50.2367 18.856 50.1608 18.9672 50.0681 18.9817Z" fill="#333333"/>
<path d="M10.7917 25.3255C10.6989 25.3401 10.623 25.2519 10.623 25.1292V24.8418C10.623 24.7199 10.6989 24.6079 10.7917 24.5934C10.8845 24.5788 10.9604 24.667 10.9604 24.7896V25.0771C10.9604 25.199 10.8845 25.3109 10.7917 25.3255Z" fill="#333333"/>
<path d="M12.0671 25.1224C11.9743 25.1369 11.8984 25.0488 11.8984 24.9261V24.6386C11.8984 24.5167 11.9743 24.4048 12.0671 24.3902C12.1599 24.3757 12.2358 24.4638 12.2358 24.5857V24.874C12.2358 24.9959 12.1599 25.1078 12.0671 25.1224Z" fill="#333333"/>
<path d="M13.3435 24.9192C13.2507 24.9338 13.1748 24.8456 13.1748 24.723V24.4355C13.1748 24.3136 13.2507 24.2017 13.3435 24.1871C13.4362 24.1726 13.5121 24.2607 13.5121 24.3834V24.6709C13.5121 24.7928 13.4362 24.9047 13.3435 24.9192Z" fill="#333333"/>
<path d="M14.6189 24.7161C14.5261 24.7307 14.4502 24.6425 14.4502 24.5199V24.2324C14.4502 24.1105 14.5261 23.9986 14.6189 23.984C14.7116 23.9694 14.7875 24.0576 14.7875 24.1803V24.4677C14.7875 24.5896 14.7116 24.7016 14.6189 24.7161Z" fill="#333333"/>
<path d="M15.8942 24.513C15.8015 24.5276 15.7256 24.4394 15.7256 24.3167V24.0293C15.7256 23.9074 15.8015 23.7954 15.8942 23.7809C15.987 23.7663 16.0629 23.8545 16.0629 23.9764V24.2638C16.0629 24.3865 15.9878 24.4984 15.8942 24.513Z" fill="#333333"/>
<path d="M17.1696 24.3099C17.0769 24.3244 17.001 24.2363 17.001 24.1136V23.8261C17.001 23.7042 17.0769 23.5923 17.1696 23.5777C17.2624 23.5632 17.3383 23.6513 17.3383 23.774V24.0615C17.3391 24.1841 17.2632 24.2961 17.1696 24.3099Z" fill="#333333"/>
<path d="M18.447 24.1067C18.3542 24.1213 18.2783 24.0331 18.2783 23.9105V23.623C18.2783 23.5011 18.3542 23.3892 18.447 23.3746C18.5397 23.3601 18.6156 23.4482 18.6156 23.5709V23.8584C18.6156 23.981 18.5397 24.0922 18.447 24.1067Z" fill="#333333"/>
<path d="M19.7224 23.9024C19.6296 23.917 19.5537 23.8288 19.5537 23.7062V23.4179C19.5537 23.296 19.6296 23.1841 19.7224 23.1695C19.8151 23.155 19.891 23.2431 19.891 23.3658V23.6533C19.891 23.7759 19.8151 23.8879 19.7224 23.9024Z" fill="#333333"/>
<path d="M20.9987 23.7005C20.906 23.7151 20.8301 23.6269 20.8301 23.5042V23.2168C20.8301 23.0949 20.906 22.9829 20.9987 22.9684C21.0915 22.9538 21.1674 23.042 21.1674 23.1646V23.4521C21.1674 23.574 21.0915 23.6859 20.9987 23.7005Z" fill="#333333"/>
<path d="M22.5448 24.8016C22.4774 24.7679 22.4145 24.7173 22.3586 24.6529C22.2259 24.4988 22.1523 24.2826 22.1523 24.0465V23.0039C22.1523 22.5409 22.4383 22.1192 22.7902 22.0648C22.9696 22.0364 23.142 22.1062 23.2754 22.261C23.4081 22.4151 23.4817 22.6306 23.4817 22.8674V23.91C23.4817 24.3731 23.1957 24.7947 22.8438 24.8492C22.7388 24.8652 22.6376 24.8484 22.5448 24.8016ZM23.0876 22.2334C23.014 22.1966 22.9305 22.1836 22.8431 22.1974C22.5211 22.248 22.2589 22.6336 22.2589 23.0583V24.1002C22.2589 24.2918 22.3133 24.4597 22.4115 24.5739C22.5104 24.6882 22.6437 24.7388 22.7894 24.7158C23.1114 24.6652 23.3736 24.2796 23.3736 23.8548V22.8122C23.3736 22.6206 23.3192 22.4527 23.221 22.3385C23.1819 22.294 23.1367 22.258 23.0876 22.2334Z" fill="#333333"/>
<path d="M38.3896 22.5106C38.3221 22.4769 38.2592 22.4263 38.2033 22.3619C38.0707 22.2078 37.9971 21.9924 37.9971 21.7555V20.7136C37.9971 20.2506 38.283 19.829 38.6349 19.7738C38.8143 19.7454 38.9868 19.8152 39.1194 19.9693C39.252 20.1233 39.3256 20.3395 39.3256 20.5764V21.619C39.3256 22.0821 39.0397 22.5037 38.6878 22.5581C38.5835 22.5742 38.4823 22.5574 38.3896 22.5106ZM38.9323 19.9424C38.8588 19.9056 38.7752 19.8926 38.6878 19.9064C38.3658 19.957 38.1036 20.3426 38.1036 20.7673V21.8099C38.1036 22.0016 38.158 22.1695 38.2562 22.2837C38.3543 22.3979 38.4885 22.4485 38.6341 22.4255C38.9561 22.3749 39.2183 21.9893 39.2183 21.5646V20.522C39.2183 20.3303 39.1639 20.1624 39.0657 20.0475C39.0266 20.0022 38.9814 19.967 38.9323 19.9424Z" fill="#333333"/>
<path d="M22.8474 23.3607C22.7546 23.3752 22.6787 23.2871 22.6787 23.1644V22.8769C22.6787 22.7543 22.7546 22.6431 22.8474 22.6285C22.9401 22.614 23.016 22.7021 23.016 22.8248V23.1123C23.016 23.2342 22.9401 23.3461 22.8474 23.3607Z" fill="#333333"/>
<path d="M38.696 21.0032C38.6032 21.0178 38.5273 20.9296 38.5273 20.807V20.5195C38.5273 20.3976 38.6032 20.2857 38.696 20.2711C38.7888 20.2565 38.8647 20.3447 38.8647 20.4674V20.7548C38.8647 20.8775 38.7888 20.9894 38.696 21.0032Z" fill="#333333"/>
<path d="M10.4589 26.9071C10.3915 26.8734 10.3286 26.8228 10.2726 26.7584C10.14 26.6043 10.0664 26.3889 10.0664 26.152V25.1101C10.0664 24.6471 10.3524 24.2254 10.7042 24.1703C10.8836 24.1419 11.0561 24.2116 11.1895 24.3665C11.3221 24.5206 11.3957 24.7368 11.3957 24.9729V26.0155C11.3957 26.4785 11.1098 26.9002 10.7579 26.9546C10.6529 26.97 10.5517 26.9539 10.4589 26.9071ZM11.0017 24.3389C10.9281 24.3013 10.8445 24.2891 10.7571 24.3021C10.4352 24.3527 10.173 24.7383 10.173 25.163V26.2056C10.173 26.3973 10.2274 26.5652 10.3255 26.6794C10.4237 26.7936 10.5578 26.8442 10.7035 26.8212C11.0255 26.7706 11.2876 26.385 11.2876 25.9603V24.9177C11.2876 24.7261 11.2332 24.5582 11.1351 24.4439C11.096 24.3987 11.0507 24.3634 11.0017 24.3389Z" fill="#333333"/>
<g opacity="0.1">
<path d="M0.452148 26.2659C0.837759 26.7496 1.46791 27.2456 2.32039 27.7531C4.02995 28.772 6.27003 28.9353 6.27003 28.9353C6.27003 28.9353 6.2846 28.933 6.31373 28.9276C6.64338 28.8762 8.78991 28.5389 11.8947 28.0529C20.5989 26.6898 36.8337 24.1477 41.6258 23.4049C42.1341 23.3267 42.5151 23.2684 42.742 23.2339C43.5922 23.1044 44.4685 22.9311 45.3554 22.7065C45.741 22.6091 46.1274 22.5041 46.5153 22.3868C46.9814 22.2503 47.4506 22.0962 47.9175 21.9276C49.542 21.3488 51.1442 20.5944 52.6337 19.6538C55.7278 17.6997 61.6316 13.0593 61.6316 13.0593C61.6316 13.0593 61.6484 13.0448 61.6783 13.0156C58.5911 14.7183 54.1049 16.8993 52.6345 17.8292C51.145 18.7691 49.5427 19.5242 47.9182 20.103C47.4514 20.2717 46.983 20.425 46.5161 20.5622C46.1274 20.6795 45.7418 20.7846 45.3562 20.8819C44.47 21.1065 43.593 21.2798 42.7428 21.4094C42.5159 21.4439 42.1348 21.5021 41.6266 21.5803C36.8344 22.3232 20.6005 24.8653 11.8955 26.2283C8.79145 26.7144 6.64415 27.0517 6.3145 27.1023C6.28537 27.1069 6.2708 27.1099 6.2708 27.1099C6.2708 27.1099 2.16478 27.2824 0.452148 26.2659Z" fill="#590E0E"/>
</g>
<path d="M24.5585 25.8207L67.4218 36.9528C67.6295 37.0065 67.8442 37.0142 68.0565 36.9751L70.4208 36.545C70.5159 36.5281 70.5304 36.3932 70.4407 36.3549L68.748 35.6419L68.5426 35.5538L56.5802 30.5079L56.4116 30.4373L45.2695 25.7356L45.094 25.662L36.4971 22.0352L32.5283 22.604L32.2791 22.6408L24.8958 23.701C23.4791 23.9088 23.6109 25.616 24.5585 25.8207Z" fill="#C6C4C4"/>
<path d="M32.3497 23.1255L32.5973 23.0887L36.4319 22.5391L56.2222 30.8883L68.3502 36.0032L68.5579 36.0929L69.0486 36.2991L68.1884 36.4555L26.1699 24.0125L32.3497 23.1255Z" fill="white"/>
<path d="M56.2575 15.6627L68.1202 18.559C68.2689 18.5958 68.4253 18.6027 68.5748 18.5782L70.5143 18.283C70.6171 18.2662 70.6339 18.1243 70.5389 18.0829L69.0953 17.4574L68.8853 17.3646L60.1657 13.5859L58.7421 14.0451L58.5566 14.1065L56.2583 14.8486C55.911 14.9912 55.7791 15.514 56.2575 15.6627Z" fill="#C6C4C4"/>
<path d="M68.3967 18.3493C68.4427 18.3493 68.4894 18.3454 68.5347 18.3385L69.9974 18.1154L68.9977 17.6823L68.7861 17.5888L60.1532 13.8477L58.817 14.2785L58.633 14.3391L56.3331 15.0819C56.248 15.1179 56.1875 15.2237 56.1905 15.2989C56.1913 15.3211 56.1944 15.3878 56.3301 15.43L68.1782 18.3224C68.2502 18.3408 68.3238 18.3493 68.3967 18.3493Z" fill="white"/>
<path d="M58.5566 14.1082L67.6005 17.591C67.7009 17.6155 67.8006 17.6278 67.901 17.6278C67.9623 17.6278 68.0229 17.6232 68.0865 17.6132L69.0954 17.4591L68.8853 17.3663L68.0673 17.4936C67.9232 17.5158 67.7791 17.5105 67.6373 17.4737L58.7422 14.0469L58.5566 14.1082Z" fill="#333333"/>
<path d="M55.1781 13.5864L58.2186 13.105L58.3673 13.0805L59.7986 12.8535L64.4757 2.36081C64.5125 2.27571 64.4443 2.18218 64.3538 2.19445L63.6186 2.28721L63.4722 2.30408L62.1973 2.46277C62.146 2.47043 62.1023 2.49726 62.0731 2.53866L54.5825 13.1334C54.387 13.3672 54.6384 13.5059 55.1781 13.5864Z" fill="#006D8D"/>
<path d="M32.2783 22.6423L67.0254 35.8067C67.155 35.8412 67.2868 35.858 67.4187 35.858C67.5115 35.858 67.6019 35.8504 67.6924 35.8335L68.7473 35.6434L68.5418 35.5552L67.6702 35.7139C67.4701 35.7507 67.26 35.7431 67.0622 35.6917L54.8799 31.0759L56.5794 30.5093L56.4108 30.4388L54.6989 31.0076L42.7872 26.4938L45.2687 25.7363L45.0932 25.6628L42.5993 26.4225L32.5267 22.6055L32.2783 22.6423Z" fill="#333333"/>
<path d="M58.2188 13.1069L58.3682 13.0823L63.6188 2.28906L63.4724 2.3067L58.2188 13.1069Z" fill="#333333"/>
<path d="M29.4063 40.7662C21.9067 36.4873 19.1656 28.4993 19.2306 18.3223C22.6223 18.8866 26.0139 19.1692 29.4063 19.1692C32.7979 19.1692 36.1896 18.8866 39.5813 18.3223C39.6469 28.4993 36.9058 36.4873 29.4063 40.7662Z" fill="#F37435"/>
<path d="M29.4063 41.7421C21.9067 37.4632 19.1656 29.4745 19.2306 19.2988C22.6223 19.8632 26.0139 20.1457 29.4063 20.1457C32.7979 20.1457 36.1896 19.8632 39.5813 19.2988C39.6469 29.4752 36.9058 37.4632 29.4063 41.7421Z" fill="#FFC366"/>
<path d="M38.2721 20.8145C38.058 30.265 35.1479 36.6365 29.4051 40.2334C23.6691 36.6358 20.7584 30.2643 20.5381 20.8145C23.494 21.2297 26.469 21.4431 29.4051 21.4431C32.3412 21.4431 35.3162 21.229 38.2591 20.8145C38.266 20.8145 38.2659 20.8145 38.2721 20.8145Z" fill="#F37435"/>
<path d="M38.2588 20.8145C37.9544 29.9989 35.0505 36.2083 29.4048 39.7408C23.766 36.2083 20.862 29.9989 20.5508 20.8145C23.4937 21.2297 26.4688 21.4431 29.4048 21.4431C32.3416 21.4431 35.3166 21.2297 38.2588 20.8145Z" fill="#F37435"/>
<path opacity="0.3" d="M26.918 21.7077C25.8851 21.6639 24.8487 21.6003 23.8096 21.5059C27.1855 25.6719 31.2688 29.0683 35.9157 31.3922C36.1757 30.7628 36.4062 30.1027 36.6162 29.42C32.8852 27.6906 29.7296 24.8873 26.918 21.7077Z" fill="white"/>
<path opacity="0.3" d="M22.1662 21.3399C21.7407 21.2914 21.3151 21.2469 20.8896 21.1895C20.9724 23.1507 21.1831 24.9628 21.5088 26.645C24.2574 30.9485 28.2585 34.3484 32.8446 36.4109C33.8584 35.2623 34.7169 33.9557 35.427 32.4904C30.3361 29.96 25.8321 26.0314 22.1662 21.3399Z" fill="white"/>
</svg>
