<svg width="222" height="24" viewBox="0 0 222 24" fill="none" xmlns="http://www.w3.org/2000/svg">
<path d="M221.232 8.81699C221.644 8.45021 221.682 7.81816 221.315 7.40527L215.336 0.676861C214.969 0.263972 214.337 0.226596 213.924 0.593378C213.511 0.960161 213.474 1.59221 213.841 2.0051L219.156 7.98591L213.176 13.2989C212.763 13.6656 212.726 14.2977 213.093 14.7106C213.46 15.1235 214.092 15.1608 214.505 14.7941L221.232 8.81699ZM0.839512 24.0086C83.1704 5.46477 131.671 3.81446 220.509 9.06763L220.626 7.07116C131.657 1.81023 82.9608 3.4618 0.399507 22.0575L0.839512 24.0086Z" fill="#006D8D"/>
</svg>
