<svg width="113" height="112" viewBox="0 0 113 112" fill="none" xmlns="http://www.w3.org/2000/svg">
<g filter="url(#filter0_d_2068_42920)">
<circle cx="56.5" cy="51.962" r="47.5" fill="white"/>
<circle cx="56.5" cy="51.962" r="47" stroke="#006D8D"/>
</g>
<path d="M59.9255 28.9425C45.6539 28.9425 34.0845 40.5119 34.0845 54.7835C34.0845 61.5486 36.6853 67.7054 40.9402 72.3117C45.0121 75.0939 49.9202 76.7405 55.2103 76.7988C55.3069 76.7998 55.4031 76.8025 55.4999 76.8025C69.7715 76.8025 81.3409 65.2331 81.3409 50.9615C81.3409 50.9375 81.3401 50.9137 81.34 50.8897C81.321 43.9208 78.5429 37.6015 74.041 32.9644C74.191 33.1189 74.339 33.2751 74.4851 33.4332C70.3389 30.6002 65.326 28.9425 59.9255 28.9425Z" fill="#006D8D"/>
<path d="M40.9403 72.3124C40.9399 72.3121 40.9394 72.3117 40.9389 72.3115C40.7367 72.1733 40.5369 72.032 40.3389 71.8882C40.3176 71.8728 40.2964 71.8573 40.2752 71.8418C40.0865 71.704 39.8995 71.5637 39.7147 71.4209C39.703 71.4119 39.6913 71.403 39.6796 71.394C39.0839 70.932 38.5091 70.4444 37.9564 69.933C37.935 69.9133 37.9137 69.8934 37.8923 69.8735C37.7271 69.7195 37.5639 69.5636 37.4028 69.4055C37.386 69.389 37.3691 69.3728 37.3524 69.3563C36.8208 68.8317 36.3119 68.2843 35.8271 67.7155C35.8034 67.6877 35.7799 67.6597 35.7563 67.6318C35.6182 67.4683 35.482 67.3031 35.3478 67.1362C35.3255 67.1086 35.3031 67.081 35.281 67.0533C34.9693 66.6622 34.6683 66.2623 34.3794 65.8532C34.377 65.8499 34.3747 65.8465 34.3724 65.8431C34.2364 65.6504 34.1035 65.4554 33.9727 65.2589C33.9471 65.2205 33.9218 65.1817 33.8964 65.1431C33.7859 64.9751 33.6774 64.8058 33.5708 64.6352C33.5448 64.5936 33.5187 64.5521 33.4929 64.5104C33.3742 64.318 33.2577 64.1241 33.1439 63.9284C33.136 63.9148 33.1279 63.9015 33.12 63.8879C32.9932 63.6688 32.8694 63.4477 32.7489 63.2246C32.7432 63.2141 32.7379 63.2035 32.7322 63.193C32.6243 62.9924 32.5193 62.7902 32.4165 62.5866C32.3908 62.5356 32.3658 62.4844 32.3404 62.4332C32.2566 62.2643 32.1745 62.0944 32.0943 61.9234C32.068 61.8672 32.0415 61.8111 32.0155 61.7547C31.9306 61.5702 31.8479 61.3844 31.7672 61.1976C31.7513 61.161 31.7349 61.1248 31.7193 61.0881C31.6218 60.8595 31.5273 60.6294 31.4362 60.3974C31.4293 60.3796 31.4228 60.3616 31.4159 60.3439C31.3354 60.1375 31.2578 59.9297 31.1826 59.7208C31.1598 59.6578 31.138 59.5943 31.1157 59.531C31.0566 59.3625 30.999 59.1933 30.9432 59.0233C30.9202 58.9534 30.8973 58.8835 30.875 58.8133C30.8183 58.6353 30.7638 58.4563 30.7108 58.2766C30.6944 58.2208 30.6771 58.1654 30.661 58.1093C30.5931 57.8725 30.5278 57.6345 30.4664 57.3951C30.461 57.3737 30.4562 57.352 30.4508 57.3307C30.3965 57.1165 30.3451 56.9013 30.2962 56.6852C30.2797 56.612 30.2642 56.5385 30.2483 56.465C30.2117 56.2962 30.1765 56.1268 30.1432 55.9567C30.1273 55.8758 30.1117 55.7949 30.0966 55.7137C30.0642 55.5394 30.034 55.3645 30.0051 55.1891C29.9935 55.1187 29.9812 55.0486 29.9701 54.9781C29.932 54.7338 29.8966 54.4886 29.8654 54.2422C29.863 54.2236 29.8612 54.2049 29.859 54.1863C29.8307 53.9593 29.8058 53.7315 29.7834 53.5027C29.7757 53.4235 29.7693 53.3439 29.7623 53.2644C29.7471 53.0924 29.7333 52.9201 29.7216 52.7472C29.7155 52.6594 29.7099 52.5716 29.7048 52.4836C29.6947 52.3088 29.6866 52.1334 29.68 51.9577C29.677 51.8788 29.6732 51.8002 29.671 51.7211C29.6644 51.4927 29.6606 51.2637 29.6599 51.0338H22.0009C22.0009 51.0098 22 50.986 22 50.962C22 69.3667 36.8424 84.3021 55.2103 84.4581V76.7994C49.9203 76.7412 45.0121 75.0945 40.9403 72.3124Z" fill="#0A9ECA"/>
<path d="M81.3402 50.8898C81.3402 50.9138 81.3411 50.9376 81.3411 50.9616C81.3411 65.2332 69.7717 76.8025 55.5001 76.8025C55.4033 76.8025 55.3071 76.7999 55.2104 76.7989V84.4579C55.3071 84.4587 55.4033 84.4616 55.5001 84.4616C74.0017 84.4616 89.0002 69.4631 89.0002 50.9615C89.0002 50.9375 88.9993 50.9137 88.9993 50.8898H81.3402V50.8898Z" fill="#18CAFF"/>
<path d="M29.6599 51.0338C29.6599 51.0098 29.659 50.9861 29.659 50.9621C29.659 36.6905 41.2284 25.1211 55.5 25.1211C55.5968 25.1211 55.6931 25.1237 55.7897 25.1247V17.4657C55.693 17.4649 55.5969 17.462 55.5 17.462C36.9984 17.462 22 32.4605 22 50.9621C22 50.9861 22.0009 51.0098 22.0009 51.0338H29.6599Z" fill="#18CAFF"/>
<path d="M55.5001 25.1202C41.2286 25.1202 29.6592 36.6896 29.6592 50.9612C29.6592 51.2152 29.6638 51.4681 29.6711 51.7203C29.6734 51.7994 29.6771 51.878 29.6801 51.9569C29.6868 52.1326 29.6948 52.308 29.705 52.4828C29.7101 52.5708 29.7157 52.6586 29.7217 52.7464C29.7335 52.9192 29.7472 53.0916 29.7624 53.2635C29.7694 53.343 29.7758 53.4227 29.7836 53.5019C29.8059 53.7306 29.8309 53.9585 29.8591 54.1854C29.8614 54.204 29.8631 54.2227 29.8655 54.2413C29.8968 54.4878 29.9321 54.733 29.9703 54.9772C29.9813 55.0478 29.9937 55.1179 30.0053 55.1882C30.0341 55.3636 30.0644 55.5386 30.0968 55.7128C30.1119 55.794 30.1275 55.875 30.1433 55.9559C30.1766 56.1259 30.2118 56.2953 30.2485 56.4642C30.2644 56.5376 30.2798 56.6111 30.2964 56.6843C30.3452 56.9005 30.3966 57.1157 30.4509 57.3298C30.4564 57.3512 30.4611 57.3728 30.4666 57.3942C30.528 57.6337 30.5932 57.8717 30.6612 58.1085C30.6773 58.1645 30.6945 58.2199 30.711 58.2758C30.7639 58.4555 30.8185 58.6345 30.8751 58.8125C30.8975 58.8826 30.9204 58.9525 30.9433 59.0224C30.9991 59.1925 31.0567 59.3617 31.1159 59.5302C31.1381 59.5935 31.16 59.6569 31.1827 59.72C31.258 59.9289 31.3356 60.1367 31.416 60.343C31.423 60.3608 31.4295 60.3788 31.4364 60.3966C31.5275 60.6285 31.622 60.8587 31.7194 61.0873C31.735 61.1239 31.7515 61.1601 31.7673 61.1967C31.848 61.3836 31.9307 61.5693 32.0157 61.7538C32.0416 61.8103 32.0681 61.8664 32.0944 61.9226C32.1747 62.0936 32.2567 62.2635 32.3405 62.4324C32.3659 62.4835 32.391 62.5348 32.4167 62.5857C32.5194 62.7893 32.6244 62.9916 32.7324 63.1921C32.738 63.2026 32.7434 63.2132 32.7491 63.2237C32.8695 63.4468 32.9933 63.6679 33.1201 63.8871C33.128 63.9006 33.1362 63.914 33.1441 63.9275C33.2579 64.1232 33.3743 64.3171 33.4931 64.5095C33.5188 64.5513 33.545 64.5927 33.571 64.6344C33.6776 64.805 33.7861 64.9743 33.8966 65.1422C33.922 65.1808 33.9472 65.2196 33.9729 65.2581C34.1037 65.4546 34.2365 65.6496 34.3725 65.8423C34.3749 65.8456 34.3771 65.849 34.3795 65.8523C34.6685 66.2614 34.9695 66.6613 35.2812 67.0524C35.3033 67.0802 35.3257 67.1077 35.348 67.1353C35.4821 67.3023 35.6182 67.4675 35.7565 67.631C35.7801 67.6589 35.8035 67.6869 35.8272 67.7147C36.3121 68.2833 36.8208 68.8309 37.3525 69.3554C37.3693 69.3719 37.3862 69.3882 37.4029 69.4046C37.5641 69.5627 37.7272 69.7187 37.8925 69.8726C37.9138 69.8925 37.9351 69.9124 37.9565 69.9322C38.5092 70.4435 39.084 70.9312 39.6798 71.3932C39.6914 71.4022 39.7032 71.411 39.7149 71.42C39.8997 71.5628 40.0866 71.7031 40.2754 71.841C40.2966 71.8565 40.3178 71.872 40.339 71.8874C40.537 72.0311 40.7369 72.1725 40.9391 72.3106C40.9395 72.3109 40.94 72.3113 40.9404 72.3115L40.9404 72.3115C36.6855 67.7052 34.0847 61.5484 34.0847 54.7833C34.0847 40.5117 45.6541 28.9423 59.9257 28.9423C65.3262 28.9423 70.3391 30.6 74.4853 33.433C74.3393 33.2749 74.1912 33.1187 74.0413 32.9642C74.0374 32.9603 74.0336 32.9563 74.0297 32.9524C73.8836 32.802 73.7355 32.6534 73.5858 32.5067C73.5788 32.4998 73.5717 32.4929 73.5647 32.4861C73.4174 32.342 73.2683 32.1997 73.1176 32.0591C73.1089 32.051 73.1002 32.0429 73.0915 32.0348C72.942 31.8958 72.7908 31.7585 72.638 31.623C72.6281 31.6141 72.6181 31.6053 72.6081 31.5964C72.4556 31.4615 72.3014 31.3285 72.1457 31.1972C72.1357 31.1887 72.1257 31.1802 72.1157 31.1718C71.9589 31.0399 71.8003 30.91 71.6403 30.7818C71.6314 30.7747 71.6226 30.7675 71.6138 30.7604C71.4509 30.6302 71.2863 30.502 71.1201 30.3758C71.1144 30.3714 71.1087 30.3669 71.1028 30.3625C70.9314 30.2324 70.7583 30.1043 70.5836 29.9785C70.5832 29.9782 70.5829 29.978 70.5826 29.9778C69.1719 28.9618 67.6546 28.0848 66.0508 27.3663C66.0259 27.3551 66.0007 27.3445 65.9758 27.3334C65.8047 27.2574 65.6328 27.1829 65.4598 27.1106C65.4165 27.0925 65.3729 27.0752 65.3295 27.0573C65.174 26.9933 65.018 26.9303 64.8611 26.8692C64.8056 26.8476 64.7497 26.8269 64.694 26.8057C64.5483 26.7502 64.4022 26.6955 64.2552 26.6425C64.1908 26.6193 64.1259 26.5969 64.0611 26.5741C63.9219 26.5253 63.7823 26.4771 63.642 26.4305C63.5709 26.4069 63.4995 26.3841 63.4281 26.3611C63.2931 26.3176 63.1577 26.2749 63.0218 26.2336C62.9452 26.2104 62.8684 26.1877 62.7915 26.1651C62.6598 26.1264 62.5277 26.0886 62.3951 26.052C62.314 26.0296 62.2328 26.0077 62.1515 25.9861C62.022 25.9517 61.892 25.9183 61.7618 25.8859C61.6768 25.8647 61.5918 25.8439 61.5065 25.8236C61.3788 25.7932 61.2507 25.764 61.1223 25.7355C61.0341 25.7159 60.9459 25.6965 60.8574 25.6778C60.7306 25.6511 60.6031 25.6256 60.4755 25.6008C60.3851 25.5831 60.2946 25.5654 60.2038 25.5487C60.0773 25.5254 59.9503 25.5037 59.823 25.4822C59.7305 25.4666 59.638 25.4508 59.5451 25.4362C59.4183 25.4163 59.2909 25.3981 59.1634 25.38C59.0697 25.3667 58.9761 25.3529 58.8821 25.3406C58.7539 25.3238 58.6251 25.3091 58.4964 25.2942C58.4024 25.2834 58.3087 25.2718 58.2144 25.262C58.0832 25.2483 57.9513 25.2368 57.8196 25.2251C57.7272 25.2168 57.6351 25.2077 57.5424 25.2004C57.405 25.1897 57.267 25.1815 57.129 25.1729C57.0412 25.1674 56.9539 25.1607 56.8659 25.1562C56.7137 25.1482 56.5608 25.1431 56.408 25.1378C56.3336 25.1353 56.2596 25.1313 56.1851 25.1294C55.9574 25.1234 55.7291 25.1202 55.5001 25.1202Z" fill="#003D4F"/>
<path d="M63.8535 49.8331C63.9778 50.1839 64.0491 50.5593 64.0491 50.9512V61.7022C64.0491 63.5586 62.5302 65.0775 60.6737 65.0775H50.326C49.7299 65.0775 49.1696 64.9194 48.6821 64.6453C49.1474 65.9543 50.3976 66.8999 51.861 66.8999H62.2088C64.0653 66.8999 65.5841 65.3809 65.5841 63.5245V52.7736C65.5841 51.5138 64.8836 50.412 63.8535 49.8331Z" fill="#003D4F"/>
<path d="M60.6738 65.0762C62.5303 65.0762 64.0491 63.5572 64.0491 61.7008V50.9499C64.0491 50.5579 63.9779 50.1825 63.8536 49.8318C63.6888 49.3667 63.4266 48.9474 63.0887 48.6003C62.6923 48.193 62.1954 47.885 61.6382 47.7176V44.6336C61.6384 43.6385 61.3963 42.6962 60.9716 41.8625C60.6756 41.2814 60.2917 40.7527 59.8359 40.2975C58.7279 39.1881 57.1887 38.495 55.4999 38.4952C53.8111 38.495 52.2719 39.1881 51.1638 40.2975C50.0544 41.4056 49.3613 42.9449 49.3616 44.6336V47.7175C47.9715 48.1352 46.9507 49.4284 46.9507 50.9498V61.7008C46.9507 62.9611 47.6518 64.0643 48.6822 64.6439C49.1697 64.918 49.73 65.0761 50.3261 65.0761L60.6738 65.0762ZM56.8485 59.7655H54.1515C53.8976 59.7655 53.6943 59.5572 53.6724 59.2995C53.6693 59.2627 53.6698 59.2249 53.6745 59.1865L54.197 54.8875C53.9154 54.6253 53.712 54.2802 53.628 53.8904C53.6 53.7606 53.5852 53.6257 53.5852 53.4874C53.5852 53.2891 53.6154 53.0978 53.6713 52.918C53.9138 52.1386 54.6408 51.5726 55.5 51.5726C55.6287 51.5726 55.7544 51.5858 55.8761 51.6101C55.8778 51.6104 55.8797 51.6105 55.8815 51.6109C56.7561 51.7878 57.4147 52.5606 57.4147 53.4874C57.4147 54.0409 57.1784 54.538 56.803 54.8875L57.3254 59.1865C57.3627 59.4934 57.1386 59.7655 56.8485 59.7655ZM55.5 40.4649C55.6635 40.465 55.824 40.477 55.9828 40.4955C56.9354 40.6068 57.7916 41.04 58.4432 41.6903C58.7743 42.0221 59.0455 42.4091 59.2509 42.8325C59.516 43.3791 59.6685 43.988 59.6686 44.6336V47.5746H51.3312V44.6336C51.3313 44.5524 51.3389 44.473 51.3435 44.3929C51.4044 43.3436 51.8518 42.3965 52.5566 41.6903C53.3167 40.9317 54.3542 40.4652 55.5 40.4649Z" fill="white"/>
<path d="M54.1516 59.7663H54.9147C54.6244 59.7663 54.4003 59.4943 54.4376 59.1874L54.9601 54.8883C54.5847 54.5388 54.3484 54.0417 54.3484 53.4882C54.3484 52.5614 55.007 51.7886 55.8817 51.6117C55.8799 51.6113 55.878 51.6112 55.8763 51.6109C55.7546 51.5866 55.6289 51.5735 55.5002 51.5735C54.641 51.5735 53.914 52.1394 53.6715 52.9188C53.6156 53.0987 53.5854 53.2899 53.5854 53.4882C53.5854 53.6265 53.6002 53.7614 53.6282 53.8913C53.7123 54.281 53.9156 54.6261 54.1972 54.8883L53.6747 59.1874C53.67 59.2257 53.6694 59.2636 53.6726 59.3003C53.6945 59.5581 53.8978 59.7663 54.1516 59.7663Z" fill="#003D4F"/>
<path d="M55.7896 17.4657V25.1247C55.9214 25.1262 56.0534 25.1267 56.1847 25.1302C56.2592 25.1321 56.3332 25.1361 56.4077 25.1387C56.5605 25.144 56.7133 25.1491 56.8655 25.157C56.9535 25.1616 57.0409 25.1682 57.1286 25.1737C57.2666 25.1823 57.4047 25.1905 57.5421 25.2012C57.6347 25.2085 57.7268 25.2177 57.8192 25.2259C57.951 25.2376 58.0828 25.2491 58.2141 25.2628C58.3083 25.2726 58.402 25.2842 58.496 25.295C58.6247 25.3099 58.7535 25.3247 58.8817 25.3414C58.9758 25.3537 59.0694 25.3675 59.1631 25.3808C59.2905 25.3989 59.4179 25.4171 59.5448 25.437C59.6376 25.4516 59.7301 25.4675 59.8227 25.4831C59.9499 25.5045 60.0769 25.5262 60.2034 25.5495C60.2943 25.5662 60.3847 25.5839 60.4752 25.6016C60.6027 25.6264 60.7301 25.6519 60.8571 25.6786C60.9456 25.6973 61.0337 25.7167 61.1219 25.7363C61.2503 25.7648 61.3784 25.794 61.5062 25.8244C61.5914 25.8447 61.6765 25.8655 61.7614 25.8867C61.8917 25.9192 62.0217 25.9525 62.1512 25.9869C62.2325 26.0086 62.3137 26.0305 62.3947 26.0528C62.5273 26.0895 62.6594 26.1273 62.7912 26.1659C62.8681 26.1885 62.9449 26.2112 63.0214 26.2344C63.1574 26.2757 63.2927 26.3185 63.4277 26.3619C63.4991 26.3849 63.5705 26.4078 63.6416 26.4314C63.782 26.4779 63.9215 26.5261 64.0608 26.575C64.1255 26.5977 64.1904 26.6201 64.2549 26.6433C64.4019 26.6963 64.5479 26.751 64.6937 26.8065C64.7493 26.8277 64.8052 26.8484 64.8607 26.87C65.0177 26.9311 65.1737 26.9942 65.3291 27.0582C65.3725 27.076 65.4161 27.0933 65.4594 27.1114C65.6324 27.1837 65.8043 27.2583 65.9754 27.3342C66.0003 27.3453 66.0255 27.3559 66.0504 27.3671C67.6544 28.0854 69.1714 28.9627 70.5822 29.9786C70.5826 29.9788 70.5829 29.9791 70.5832 29.9793C70.7579 30.1052 70.931 30.2332 71.1024 30.3633C71.1083 30.3677 71.114 30.3722 71.1198 30.3766C71.2859 30.5028 71.4504 30.6311 71.6134 30.7612C71.6222 30.7683 71.6311 30.7755 71.6399 30.7826C71.8 30.9108 71.9584 31.0408 72.1153 31.1726C72.1253 31.1811 72.1353 31.1896 72.1453 31.198C72.3011 31.3293 72.4552 31.4624 72.6078 31.5973C72.6178 31.6061 72.6277 31.615 72.6377 31.6238C72.7905 31.7593 72.9416 31.8966 73.0912 32.0356C73.0999 32.0437 73.1086 32.0518 73.1173 32.0599C73.268 32.2005 73.417 32.3428 73.5643 32.4869C73.5714 32.4937 73.5784 32.5006 73.5854 32.5075C73.7352 32.6542 73.8832 32.8028 74.0293 32.9532C74.0332 32.9572 74.0371 32.9611 74.0409 32.9651C78.5428 37.6022 81.3209 43.9214 81.3399 50.8904H88.9989C88.999 50.9143 88.9998 50.9381 88.9998 50.9621C88.9999 32.5574 74.1574 17.6216 55.7896 17.4657Z" fill="#0A9ECA"/>
<path d="M52.7817 46.4575V47.5761H59.6687V44.6351C59.6685 43.9895 59.516 43.3806 59.2509 42.834C58.6046 42.4372 57.8474 42.2042 57.035 42.2042C54.6898 42.2042 52.7817 44.1123 52.7817 46.4575Z" fill="#006D8D"/>
<path d="M55.983 40.4964C55.8243 40.4779 55.6637 40.4659 55.5002 40.4658C54.3544 40.4661 53.3169 40.9326 52.5569 41.6912C51.852 42.3973 51.4046 43.3444 51.3438 44.3939C52.0731 42.3879 53.8348 40.8747 55.983 40.4964Z" fill="#006D8D"/>
<path d="M61.6383 47.7194C62.1954 47.8868 62.6924 48.1948 63.0888 48.6021V46.4578C63.0888 44.6219 62.2663 42.9755 60.9717 41.8644C61.3963 42.698 61.6385 43.6403 61.6383 44.6355L61.6383 47.7194Z" fill="#003D4F"/>
<path d="M51.3438 44.3946C51.3392 44.4747 51.3316 44.554 51.3315 44.6353V47.5762H52.782V46.4576C52.782 44.1124 54.69 42.2044 57.0353 42.2044C57.8477 42.2044 58.6048 42.4374 59.2512 42.8341C59.0458 42.4108 58.7746 42.0238 58.4435 41.692C57.7919 41.0416 56.9357 40.6085 55.9831 40.4972C53.8349 40.8754 52.0732 42.3886 51.3438 44.3946Z" fill="#003D4F"/>
<defs>
<filter id="filter0_d_2068_42920" x="0.8" y="0.262036" width="111.4" height="111.4" filterUnits="userSpaceOnUse" color-interpolation-filters="sRGB">
<feFlood flood-opacity="0" result="BackgroundImageFix"/>
<feColorMatrix in="SourceAlpha" type="matrix" values="0 0 0 0 0 0 0 0 0 0 0 0 0 0 0 0 0 0 127 0" result="hardAlpha"/>
<feOffset dy="4"/>
<feGaussianBlur stdDeviation="4.1"/>
<feComposite in2="hardAlpha" operator="out"/>
<feColorMatrix type="matrix" values="0 0 0 0 0.0117647 0 0 0 0 0.698039 0 0 0 0 0.898039 0 0 0 0.25 0"/>
<feBlend mode="normal" in2="BackgroundImageFix" result="effect1_dropShadow_2068_42920"/>
<feBlend mode="normal" in="SourceGraphic" in2="effect1_dropShadow_2068_42920" result="shape"/>
</filter>
</defs>
</svg>
