<svg width="113" height="112" viewBox="0 0 113 112" fill="none" xmlns="http://www.w3.org/2000/svg">
<g filter="url(#filter0_d_2068_42915)">
<circle cx="56.5" cy="51.962" r="47.5" fill="white"/>
<circle cx="56.5" cy="51.962" r="47" stroke="#006D8D"/>
</g>
<path d="M32.9445 59.3067L32.4704 59.4606L32.9445 59.3066C32.7086 58.58 32.2875 57.8977 31.8166 57.2547C31.4877 56.8056 31.1172 56.3534 30.7552 55.9116C30.6029 55.7257 30.4521 55.5417 30.3065 55.3605C29.2854 54.0894 28.5 52.923 28.5 51.6744C28.5 50.4258 29.2854 49.2594 30.3065 47.9883C30.4521 47.8071 30.6029 47.623 30.7552 47.4371C31.1172 46.9954 31.4877 46.5431 31.8166 46.0941C32.2875 45.451 32.7086 44.7688 32.9445 44.0421C33.1872 43.2946 33.2558 42.48 33.2591 41.6703C33.2615 41.0788 33.2283 40.4636 33.1961 39.8667C33.1845 39.6517 33.1731 39.4391 33.1634 39.2309C33.0878 37.596 33.1317 36.2187 33.8334 35.2545C34.5438 34.2785 35.8491 33.808 37.4276 33.3767C37.634 33.3203 37.8452 33.2645 38.0587 33.208C38.6312 33.0565 39.2201 32.9007 39.7747 32.7195C40.541 32.469 41.291 32.1556 41.9211 31.6971L41.9211 31.6971C42.5461 31.2422 43.0708 30.6269 43.5416 29.9766C43.8768 29.5136 44.2001 29.01 44.5151 28.5194C44.6393 28.3259 44.7622 28.1345 44.8841 27.9483C45.7793 26.5805 46.6358 25.4796 47.799 25.1019C48.9129 24.7403 50.2228 25.1259 51.7559 25.7054C51.9394 25.7748 52.126 25.8468 52.3148 25.9196C52.8849 26.1395 53.4744 26.3669 54.0548 26.5515C54.8318 26.7988 55.6356 26.9846 56.4327 26.9846C57.2297 26.9846 58.0335 26.7988 58.8106 26.5515C59.3909 26.3669 59.9805 26.1395 60.5506 25.9196C60.7393 25.8468 60.926 25.7748 61.1094 25.7054C62.6426 25.1259 63.9525 24.7403 65.0664 25.1019C66.2296 25.4796 67.0861 26.5805 67.9814 27.9483C68.1032 28.1345 68.2262 28.326 68.3504 28.5195C68.6653 29.01 68.9886 29.5136 69.3238 29.9766C69.7946 30.6269 70.3193 31.2422 70.9443 31.6971C71.5743 32.1556 72.3244 32.4691 73.0907 32.7195C73.6453 32.9008 74.2342 33.0566 74.8068 33.208C75.0202 33.2645 75.2314 33.3204 75.4378 33.3768C77.0163 33.8081 78.3216 34.2785 79.032 35.2546L79.4363 34.9604L79.032 35.2546C79.7337 36.2188 79.7776 37.5961 79.702 39.2309C79.6923 39.4392 79.6809 39.6518 79.6693 39.8668C79.6371 40.4637 79.6039 41.0789 79.6063 41.6704C79.6096 42.48 79.6781 43.2946 79.9208 44.0422C80.1568 44.7688 80.5779 45.4511 81.0487 46.0941C81.3776 46.5431 81.7481 46.9953 82.1101 47.437C82.2624 47.6229 82.4132 47.807 82.5588 47.9882C83.5799 49.2593 84.3653 50.4257 84.3653 51.6743C84.3653 52.9229 83.5799 54.0893 82.5588 55.3604C82.4132 55.5416 82.2624 55.7257 82.1101 55.9116C81.7481 56.3533 81.3775 56.8055 81.0487 57.2546C80.5778 57.8976 80.1567 58.5799 79.9208 59.3066C79.6781 60.0541 79.6095 60.8687 79.6063 61.6784C79.6039 62.2699 79.637 62.8851 79.6692 63.482C79.6808 63.697 79.6923 63.9096 79.7019 64.1178C79.7775 65.7527 79.7337 67.13 79.0319 68.0942C78.3216 69.0702 77.0163 69.5407 75.4377 69.972C75.2314 70.0284 75.0202 70.0842 74.8068 70.1407C74.2342 70.2922 73.6453 70.448 73.0907 70.6292C72.3243 70.8797 71.5743 71.1932 70.9443 71.6517C70.3193 72.1065 69.7945 72.7219 69.3238 73.3721C68.9885 73.8352 68.6652 74.3387 68.3503 74.8293C68.2261 75.0228 68.1031 75.2143 67.9813 75.4005C67.0861 76.7683 66.2296 77.8691 65.0664 78.2468C63.9525 78.6085 62.6426 78.2229 61.1094 77.6434C60.926 77.574 60.7393 77.502 60.5506 77.4292C59.9805 77.2093 59.391 76.9819 58.8106 76.7972C58.0335 76.55 57.2297 76.3642 56.4327 76.3642C55.6356 76.3642 54.8318 76.55 54.0548 76.7972C53.4744 76.9819 52.8849 77.2093 52.3147 77.4292C52.126 77.502 51.9394 77.574 51.7559 77.6434C50.2228 78.2229 48.9129 78.6085 47.799 78.2468C46.6357 77.8691 45.7792 76.7683 44.884 75.4005C44.7621 75.2143 44.6392 75.0228 44.515 74.8293C44.2 74.3388 43.8768 73.8352 43.5415 73.3721C43.0707 72.7219 42.546 72.1065 41.921 71.6517C41.291 71.1932 40.541 70.8797 39.7746 70.6293C39.22 70.448 38.6311 70.2922 38.0585 70.1407C37.845 70.0842 37.6339 70.0284 37.4276 69.972C35.849 69.5407 34.5437 69.0703 33.8334 68.0943C33.1316 67.13 33.0878 65.7527 33.1634 64.1179C33.173 63.9096 33.1845 63.697 33.1961 63.482C33.2282 62.8851 33.2614 62.27 33.259 61.6785C33.2558 60.8688 33.1872 60.0542 32.9445 59.3067Z" fill="#006D8D" stroke="#006D8D"/>
<path d="M52.1307 64.3258L42.7351 55.7875L45.7516 52.468L51.2551 57.4693L51.6455 57.824L51.9789 57.4152L65.4675 40.8765L68.9434 43.7114L52.1307 64.3258Z" fill="white" stroke="#006D8D"/>
<defs>
<filter id="filter0_d_2068_42915" x="0.8" y="0.262036" width="111.4" height="111.4" filterUnits="userSpaceOnUse" color-interpolation-filters="sRGB">
<feFlood flood-opacity="0" result="BackgroundImageFix"/>
<feColorMatrix in="SourceAlpha" type="matrix" values="0 0 0 0 0 0 0 0 0 0 0 0 0 0 0 0 0 0 127 0" result="hardAlpha"/>
<feOffset dy="4"/>
<feGaussianBlur stdDeviation="4.1"/>
<feComposite in2="hardAlpha" operator="out"/>
<feColorMatrix type="matrix" values="0 0 0 0 0.0117647 0 0 0 0 0.698039 0 0 0 0 0.898039 0 0 0 0.25 0"/>
<feBlend mode="normal" in2="BackgroundImageFix" result="effect1_dropShadow_2068_42915"/>
<feBlend mode="normal" in="SourceGraphic" in2="effect1_dropShadow_2068_42915" result="shape"/>
</filter>
</defs>
</svg>
