<svg width="113" height="112" viewBox="0 0 113 112" fill="none" xmlns="http://www.w3.org/2000/svg">
<g filter="url(#filter0_d_2068_42950)">
<circle cx="56.5" cy="51.962" r="47.5" fill="white"/>
<circle cx="56.5" cy="51.962" r="47" stroke="#006D8D"/>
</g>
<path d="M38.8281 74.9571V71.2787H47.5621V74.9571H38.8281Z" fill="white" stroke="#006D8D"/>
<path d="M38.7088 74.5763V75.0763H39.2088H47.1812H47.6812V74.5763V71.6593V71.1593H47.1812H39.2088H38.7088V71.6593V74.5763ZM48.062 75.8378H38.328C38.1173 75.8378 37.9473 75.6677 37.9473 75.457V70.7786C37.9473 70.5679 38.1173 70.3978 38.328 70.3978H48.062C48.2727 70.3978 48.4428 70.5679 48.4428 70.7786V75.457C48.4428 75.6677 48.2727 75.8378 48.062 75.8378Z" fill="#333133" stroke="#006D8D"/>
<path d="M65.5703 74.9571V71.2787H74.3035V74.9571H65.5703Z" fill="white" stroke="#006D8D"/>
<path d="M65.451 74.5763V75.0763H65.951H73.9234H74.4234V74.5763V71.6593V71.1593H73.9234H65.951H65.451V71.6593V74.5763ZM74.8034 75.8378H65.0702C64.86 75.8378 64.6895 75.6674 64.6895 75.457V70.7786C64.6895 70.5679 64.8595 70.3978 65.0702 70.3978H74.8034C75.0136 70.3978 75.1841 70.5682 75.1841 70.7786V75.457C75.1841 75.6677 75.0141 75.8378 74.8034 75.8378Z" fill="#333133" stroke="#006D8D"/>
<path d="M76.0644 41.4103V41.4458L76.0695 41.4809L79.8948 68.3075C79.8765 69.9297 78.5561 71.2404 76.9296 71.2404H36.2017C34.5752 71.2404 33.2548 69.9297 33.2365 68.3075L37.0626 41.4809L37.0676 41.4458V41.4103C37.0676 39.7717 38.3958 38.4425 40.0338 38.4425H49.6569V41.8451V42.3451H50.1569H62.9744H63.4744V41.8451V38.4425H73.0975C74.7363 38.4425 76.0644 39.7718 76.0644 41.4103Z" fill="#006D8D" stroke="#006D8D"/>
<path d="M32.3585 68.2236L32.3585 68.2236C32.3568 68.2342 32.3555 68.2504 32.3555 68.2725C32.3555 70.3931 34.0815 72.1203 36.2016 72.1203H76.9303C79.0495 72.1203 80.7756 70.394 80.7764 68.2725L32.3585 68.2236ZM32.3585 68.2236L32.3593 68.2182M32.3585 68.2236L32.3593 68.2182M32.3593 68.2182L36.1826 41.4135L36.187 41.3821M32.3593 68.2182L36.187 41.3821M36.187 41.3821L36.1875 41.3504M36.187 41.3821L36.1875 41.3504M36.1875 41.3504C36.2187 39.2563 37.9326 37.5616 40.0337 37.5616H50.156C50.3667 37.5616 50.5368 37.7317 50.5368 37.9424V40.9642V41.4642M36.1875 41.3504L50.5368 41.4642M50.5368 41.4642H51.0368M50.5368 41.4642H51.0368M51.0368 41.4642H62.0935H62.5935M51.0368 41.4642H62.5935M62.5935 41.4642V40.9642M62.5935 41.4642V40.9642M62.5935 40.9642V37.9424C62.5935 37.7317 62.7636 37.5616 62.9742 37.5616H73.0974C75.1993 37.5616 76.9132 39.2563 76.9444 41.3504L76.9448 41.3821M62.5935 40.9642L76.9448 41.3821M76.9448 41.3821L76.9493 41.4135M76.9448 41.3821L76.9493 41.4135M76.9493 41.4135L80.7729 68.2143M76.9493 41.4135L80.7729 68.2143M80.7729 68.2143C80.7729 68.2148 80.773 68.2152 80.773 68.2157M80.7729 68.2143L80.773 68.2157M80.773 68.2157C80.7752 68.232 80.7764 68.2506 80.7764 68.2723L80.773 68.2157ZM33.1228 68.2596L33.117 68.3001L33.1179 68.341C33.1542 70.0117 34.5238 71.3587 36.2016 71.3587H76.9295C78.6085 71.3587 79.9759 70.0114 80.0132 68.3413L80.0141 68.3002L80.0083 68.2596L76.1866 41.4637L76.1866 41.4637L76.1858 41.4583C76.1841 41.4474 76.1828 41.432 76.1828 41.4094C76.1828 39.7074 74.7997 38.3232 73.0974 38.3232H63.8558H63.3558V38.8232V41.845C63.3558 42.0553 63.186 42.2257 62.9742 42.2257H50.1568C49.9461 42.2257 49.7761 42.0556 49.7761 41.845V38.8232V38.3232H49.2761H40.0337C38.3313 38.3232 36.9483 39.7074 36.9483 41.4094C36.9483 41.4245 36.9471 41.4439 36.9442 41.466C36.9441 41.4665 36.944 41.467 36.9439 41.4676L33.1228 68.2596Z" fill="#333133" stroke="#006D8D"/>
<path d="M67.5067 43.1721L67.5067 43.1722C67.4715 45.8212 67.4969 46.6122 67.5046 46.8548C67.5059 46.8942 67.5067 46.9191 67.5067 46.9352V46.9353V46.9353V46.9353V46.9354V46.9354V46.9355V46.9355V46.9355V46.9356V46.9356V46.9356V46.9357V46.9357V46.9358V46.9358V46.9359V46.9359V46.936V46.936V46.9361V46.9362V46.9362V46.9363V46.9364V46.9364V46.9365V46.9366V46.9366V46.9367V46.9368V46.9369V46.937V46.937V46.9371V46.9372V46.9373V46.9374V46.9375V46.9376V46.9377V46.9378V46.9379V46.938V46.9381V46.9382V46.9383V46.9384V46.9385V46.9387V46.9388V46.9389V46.939V46.9391V46.9393V46.9394V46.9395V46.9396V46.9398V46.9399V46.94V46.9402V46.9403V46.9404V46.9406V46.9407V46.9409V46.941V46.9412V46.9413V46.9415V46.9416V46.9418V46.9419V46.9421V46.9422V46.9424V46.9426V46.9427V46.9429V46.9431V46.9432V46.9434V46.9436V46.9438V46.9439V46.9441V46.9443V46.9445V46.9446V46.9448V46.945V46.9452V46.9454V46.9456V46.9458V46.946V46.9462V46.9464V46.9466V46.9467V46.9469V46.9472V46.9474V46.9476V46.9478V46.948V46.9482V46.9484V46.9486V46.9488V46.949V46.9493V46.9495V46.9497V46.9499V46.9501V46.9504V46.9506V46.9508V46.951V46.9513V46.9515V46.9517V46.952V46.9522V46.9524V46.9527V46.9529V46.9531V46.9534V46.9536V46.9539V46.9541V46.9544V46.9546V46.9549V46.9551V46.9554V46.9556V46.9559V46.9561V46.9564V46.9566V46.9569V46.9572V46.9574V46.9577V46.9579V46.9582V46.9585V46.9587V46.959V46.9593V46.9596V46.9598V46.9601V46.9604V46.9606V46.9609V46.9612V46.9615V46.9618V46.962V46.9623V46.9626V46.9629V46.9632V46.9635V46.9638V46.964V46.9643V46.9646V46.9649V46.9652V46.9655V46.9658V46.9661V46.9664V46.9667V46.967V46.9673V46.9676V46.9679V46.9682V46.9685V46.9688V46.9691V46.9694V46.9697V46.97V46.9704V46.9707V46.971V46.9713V46.9716V46.9719V46.9722V46.9726V46.9729V46.9732V46.9735V46.9738V46.9741V46.9745V46.9748V46.9751V46.9754V46.9758V46.9761V46.9764V46.9767V46.9771V46.9774V46.9777V46.9781V46.9784V46.9787V46.9791V46.9794V46.9797V46.9801V46.9804V46.9807V46.9811V46.9814V46.9818V46.9821V46.9824V46.9828V46.9831V46.9835V46.9838V46.9842V46.9845V46.9849V46.9852V46.9856V46.9859V46.9862V46.9866V46.9869V46.9873V46.9876V46.988V46.9884V46.9887V46.9891V46.9894V46.9898V46.9901V46.9905V46.9908V46.9912V46.9916V46.9919V46.9923V46.9926V46.993V46.9934V46.9937V46.9941V46.9944V46.9948V46.9952V46.9955V46.9959V46.9963V46.9966V46.997V46.9974V46.9977V46.9981V46.9985V46.9988V46.9992V46.9996V46.9999V47.0003V47.0007V47.001V47.0014V47.0018V47.0022V47.0025V47.0029V47.0033V47.0036V47.004V47.0044V47.0048V47.0051V47.0055V47.0059V47.0063V47.0066V47.007V47.0074V47.0078V47.0082V47.0085V47.0089V47.0093V47.0097V47.01V47.0104V47.0108V47.0112V47.0116V47.0119V47.0123V47.0127V47.0131V47.0135V47.0138V47.0142V47.0146V47.015V47.0154V47.0158V47.0161V47.0165V47.0169V47.0173V47.0177V47.018V47.0184V47.0188V47.0192V47.0196V47.02V47.0203V47.0207V47.0211V47.0215V47.0219V47.0223V47.0226V47.023V47.0234V47.0238V47.0242V47.0246V47.025V47.0253V47.0257V47.0261V47.0265V47.0269V47.0273V47.0276V47.028V47.0284V47.0288V47.0292V47.0296V47.0299V47.0303V47.0307V47.0311V47.0315V47.0319V47.0323V47.0326V47.033V47.0334V47.0338V47.0342V47.0346V47.0349V47.0353V47.0357V47.0361V47.0365V47.0368V47.0372V47.0376V47.038V47.0384V47.0388V47.0391V47.0395V47.0399V47.0403V47.0407V47.041V47.0414V47.0418V47.0422V47.0426V47.0429V47.0433V47.0437V47.0441V47.0444V47.0448V47.0452V47.0456V47.0459V47.0463V47.0467V47.0471V47.0475V47.0478V47.0482V47.0486V47.0489V47.0493V47.0497V47.0501V47.0504V47.0508V47.0512V47.0516V47.0519V47.0523V47.0527V47.053V47.0534V47.0538V47.0541V47.0545V47.0549V47.0552V47.0556V47.056V47.0563V47.0567V47.0571V47.0574V47.0578V47.0582V47.0585V47.0589V47.0592V47.0596V47.06V47.0603V47.0607V47.061V47.0614V47.0618V47.0621V47.0625V47.0628V47.0632V47.0635V47.0639V47.0642V47.0646V47.0649V47.0653V47.0656V47.066V47.0663V47.0667V47.067V47.0674V47.0677V47.0681V47.0684V47.0688V47.0691V47.0695V47.0698V47.0701V47.0705V47.0708V47.0712V47.0715V47.0718V47.0722V47.0725V47.0729V47.0732V47.0735V47.0739V47.0742V47.0745V47.0749V47.0752V47.0755V47.0758V47.0762V47.0765V47.0768V47.0771V47.0775V47.0778V47.0781V47.0784V47.0788V47.0791V47.0794V47.0797V47.08V47.0804V47.0807V47.081V47.0813V47.0816V47.0819V47.0822V47.0825C67.5067 47.2154 67.6094 47.312 67.7289 47.312H82.9396C83.0585 47.312 83.1626 47.2136 83.1626 47.0825V47.0594L83.1648 47.0364L83.1648 47.0364L83.1648 47.0359L83.165 47.0337L83.1659 47.0239L83.1694 46.9835C83.1725 46.9475 83.1769 46.8936 83.1823 46.8234C83.193 46.683 83.2075 46.4772 83.2223 46.2182C83.252 45.6998 83.2828 44.9691 83.2876 44.1218C83.2973 42.4202 83.2013 40.2768 82.7911 38.4425C82.6916 37.9972 82.5715 37.5673 82.4305 37.154C81.173 33.4767 78.3131 30.9849 75.0058 29.5624C73.8646 29.0728 72.1526 28.7117 70.1878 28.4526C68.2335 28.1949 66.0699 28.0429 64.0492 27.9552C62.0296 27.8675 60.1593 27.8443 58.7936 27.843C58.1109 27.8423 57.5547 27.8471 57.1696 27.8521C56.977 27.8546 56.8273 27.8572 56.7258 27.8591L56.6106 27.8614L56.5815 27.862L56.5743 27.8622L56.5726 27.8622L56.5722 27.8622L56.5601 27.3624M67.5067 43.1721L38.1239 29.5625C39.2641 29.0732 40.975 28.7123 42.9389 28.4533C44.892 28.1956 47.0546 28.0436 49.0744 27.9558C51.093 27.868 52.9625 27.8446 54.3276 27.8432C55.01 27.8425 55.5659 27.8472 55.9509 27.8522C56.1434 27.8547 56.2931 27.8572 56.3945 27.8591L56.5097 27.8614L56.5388 27.862L56.546 27.8622L56.5477 27.8622L56.5481 27.8622L56.5601 27.3624M67.5067 43.1721C67.5306 41.3306 67.9187 40.178 68.275 39.5017C68.4536 39.1625 68.6266 38.9387 68.7471 38.805C68.8075 38.738 68.8551 38.6931 68.8844 38.6672C68.8989 38.6543 68.9092 38.646 68.9144 38.6419L68.9196 38.6377L68.9208 38.6369L68.9232 38.6351L68.9322 38.6279L68.9324 38.6278C68.9341 38.6265 68.9427 38.6196 68.953 38.6104C68.9601 38.604 68.9815 38.5829 68.9953 38.5678C69.0348 38.5165 69.0923 38.0916 68.8552 37.8036L68.8584 37.7978C68.5805 37.6471 68.1712 37.5448 67.7276 37.4664C67.2675 37.3851 66.711 37.3203 66.1008 37.2683C64.8792 37.1641 63.4099 37.1084 61.9991 37.0801C60.5867 37.0517 59.2256 37.0507 58.2182 37.0568C57.7143 37.0598 57.2985 37.0646 57.0085 37.0687C56.8635 37.0707 56.7499 37.0726 56.6725 37.0739L56.584 37.0755L56.5633 37.0759M67.5067 43.1721L56.5633 37.0759M56.5601 27.3624L56.5721 27.8622L56.5601 27.8625L56.5482 27.8622L56.5601 27.3624ZM56.5633 37.0759L56.5426 37.0755L56.4542 37.0739C56.3767 37.0726 56.2631 37.0707 56.1181 37.0687C55.8281 37.0646 55.4123 37.0598 54.9084 37.0568C53.9009 37.0507 52.5397 37.0517 51.127 37.08C49.716 37.1082 48.2463 37.1639 47.0242 37.2679C46.4137 37.3199 45.857 37.3847 45.3965 37.4659C44.9525 37.5441 44.543 37.6464 44.2649 37.7966L43.5202 38.1989L44.2263 38.6534C44.2264 38.6534 44.2265 38.6535 44.2265 38.6535C44.2303 38.6563 44.2395 38.6631 44.2534 38.6745C44.281 38.6971 44.3274 38.7379 44.3868 38.8004C44.5052 38.9251 44.6771 39.1381 44.8552 39.4695C45.2106 40.1305 45.6007 41.2809 45.6224 43.1704C45.6395 44.7057 45.6319 45.6428 45.6201 46.1939C45.6143 46.4694 45.6074 46.6475 45.6021 46.7551C45.5995 46.8089 45.5972 46.8447 45.5958 46.8661L45.5942 46.8876L45.5941 46.8895L45.5941 46.8897L45.594 46.8899L45.594 46.8902L45.594 46.8907L45.5939 46.8908L45.5858 46.9776L45.6084 47.0632C45.6096 47.0679 45.6108 47.0724 45.6119 47.0766C45.6134 47.0817 45.6147 47.0864 45.6159 47.0906L45.6211 47.1086C45.6092 47.2266 45.5117 47.3116 45.4013 47.3112H45.3993H30.187C30.0685 47.3112 29.9648 47.2117 29.9648 47.0841V47.0611L29.9627 47.0383L29.9627 47.0382L29.9626 47.0378L29.9624 47.0355L29.9616 47.0257L29.9581 46.9853C29.955 46.9492 29.9506 46.8953 29.9453 46.8251C29.9346 46.6845 29.9202 46.4786 29.9054 46.2193C29.8759 45.7006 29.8452 44.9693 29.8405 44.1215C29.8309 42.419 29.9265 40.2748 30.3347 38.4407L56.5633 37.0759ZM30.3348 38.4405C31.3154 34.0461 34.4448 31.1434 38.1237 29.5625L30.3348 38.4405Z" fill="#31D0FF" stroke="#006D8D"/>
<path d="M29.086 47.0551V47.0862C29.086 47.6975 29.5823 48.1932 30.189 48.1932H45.3973H45.3973H45.3973H45.3973H45.3973H45.3973H45.3974H45.3974H45.3974H45.3974H45.3974H45.3974H45.3975H45.3975H45.3975H45.3975H45.3975H45.3976H45.3976H45.3976H45.3976H45.3976H45.3976H45.3976H45.3977H45.3977H45.3977H45.3977H45.3977H45.3978H45.3978H45.3978H45.3978H45.3978H45.3979H45.3979H45.3979H45.3979H45.3979H45.398H45.398H45.398H45.398H45.398H45.3981H45.3981H45.3981H45.3981H45.3982H45.3982H45.3982H45.3982H45.3983H45.3983H45.3983H45.3983H45.3984H45.3984H45.3984H45.3984H45.3985H45.3985H45.3985H45.3986H45.3986H45.3986H45.3986H45.3987H45.3987H45.3987H45.3987H45.3988H45.3988H45.3988H45.3988H45.3988H45.3988H45.3989H45.3989H45.3989H45.3989H45.3989H45.3989H45.399H45.399H45.399H45.399H45.399H45.399H45.399H45.3991H45.3991H45.3991H45.3991H45.3991H45.3991H45.3992H45.3992H45.3992H45.3992H45.3992H45.3992H45.3993H45.3993H45.3993H45.3993H45.3993H45.3993H45.3994H45.3994H45.3994H45.3994H45.3994H45.3994H45.3995H45.3995H45.3995H45.3995H45.3995H45.3995H45.3995H45.3996H45.3996H45.3996H45.3996H45.3996H45.3997H45.3997H45.3997H45.3997H45.3997H45.3997H45.3998H45.3998H45.3998H45.3998H45.3998H45.3998H45.3999H45.3999H45.3999H45.3999H45.3999H45.3999H45.4H45.4H45.4H45.4H45.4H45.4001H45.4001H45.4001H45.4001H45.4001H45.4001H45.4002H45.4002H45.4002H45.4002H45.4002H45.4002H45.4003H45.4003H45.4003H45.4003H45.4003H45.4004H45.4004H45.4004H45.4004H45.4004H45.4004H45.4005H45.4005H45.4005H45.4005H45.4005H45.4006H45.4006H45.4006H45.4006H45.4006H45.4007H45.4007H45.4007H45.4007H45.4007H45.4007H45.4008H45.4008H45.4008H45.4008H45.4008H45.4009H45.4009H45.4009H45.4009H45.4009H45.4009H45.401H45.401H45.401H45.401H45.401H45.4011H45.4011H45.4011H45.4011H45.4011H45.4012H45.4012H45.4012H45.4012H45.4012H45.4012H45.4013H45.4013H45.4013H45.4013H45.4013H45.4014H45.4014H45.4014H45.4014H45.4014H45.4015H45.4015H45.4015H45.4015H45.4015H45.4015H45.4016H45.4016H45.4016H45.4016H45.4016H45.4017H45.4017H45.4017H45.4017H45.4017H45.4018H45.4018H45.4018H45.4018H45.4018H45.4018H45.4019H45.4019H45.4019H45.4019H45.4019H45.402H45.402H45.402H45.402H45.402H45.4021H45.4021H45.4021H45.4021H45.4021H45.4021H45.4022H45.4022H45.4022H45.4022H45.4022H45.4023H45.4023H45.4023H45.4023H45.4023H45.4023H45.4024H45.4024H45.4024H45.4024H45.4024H45.4025H45.4025H45.4025H45.4025H45.4025H45.4025H45.4026H45.4026H45.4026H45.4026H45.4026H45.4027H45.4027H45.4027H45.4027H45.4027H45.4028H45.4028H45.4028H45.4028H45.4028H45.4028H45.4029H45.4029H45.4029H45.4029H45.4029H45.4029H45.403H45.403H45.403H45.403H45.403H45.4031H45.4031H45.4031H45.4031H45.4031H45.4031H45.4032H45.4032H45.4032H45.4032H45.4032H45.4032H45.4033H45.4033H45.4033H45.4033H45.4033H45.4034H45.4034H45.4034H45.4034H45.4034H45.4034H45.4035H45.4035H45.4035H45.4035H45.4035H45.4035H45.4036H45.4036H45.4036H45.4036H45.4036H45.4036H45.4037H45.4037H45.4037H45.4037H45.4037H45.4037H45.4038H45.4038H45.4038H45.4038H45.4038H45.4038H45.4038H45.4039H45.4039H45.4039H45.4039H45.4039H45.4039H45.404H45.404H45.404H45.404H45.404H45.404H45.4041H45.4041H45.4041H45.4041H45.4041H45.4041H45.4041H45.4042H45.4042H45.4042H45.4042H45.4042H45.4043H45.4043H45.4043H45.4043H45.4043H45.4044H45.4044H45.4044H45.4044H45.4045C46.0087 48.1932 46.5048 47.6985 46.5042 47.085V47.0846C46.5042 47.0358 46.4985 46.9918 46.491 46.9548L46.4784 46.8926L46.4817 46.8292C46.4993 46.496 46.5307 45.5315 46.5043 43.1596C46.4802 41.0862 46.0361 39.7842 45.604 39.0014L45.2508 38.3612L45.9755 38.2642C47.3431 38.0812 49.88 37.9339 53.911 37.9339C54.6804 37.9339 55.3404 37.9396 55.8131 37.9452C56.0494 37.948 56.2389 37.9508 56.3718 37.9529L56.5273 37.9555C56.5682 37.9561 56.5827 37.9564 56.5821 37.9564C56.5812 37.9564 56.842 37.9509 57.3193 37.9452C57.7871 37.9396 58.4465 37.9339 59.2155 37.9339C63.2665 37.9339 65.8078 38.0828 67.1696 38.2676L67.8917 38.3656L67.5404 39.0041C67.106 39.7935 66.6518 41.103 66.6255 43.1602C66.6255 43.1603 66.6255 43.1603 66.6255 43.1604L66.1255 43.154C66.1031 44.9475 66.1015 46.207 66.1255 46.9349L29.086 47.0551ZM29.086 47.0551L29.0821 47.0242C29.0822 47.0249 29.0821 47.0241 29.0819 47.0215C29.0812 47.0149 29.0794 46.9965 29.0765 46.9631C29.0727 46.9209 29.0677 46.8612 29.0619 46.7853C29.0502 46.6335 29.0352 46.4181 29.0202 46.1505C28.9903 45.6152 28.9607 44.8727 28.9582 44.0147C28.9531 42.2926 29.0574 40.1313 29.4759 38.2507C30.4177 34.0359 33.3465 30.6586 37.7781 28.7543M29.086 47.0551L37.7781 28.7543M37.7781 28.7543C39.5522 27.9933 42.5214 27.5388 45.6912 27.2801C48.8405 27.023 52.1187 26.9636 54.4683 26.9636C55.684 26.9636 56.4715 26.9799 56.5645 26.9818L56.5723 26.982L56.5834 26.9822L56.5944 26.9819L56.5945 26.9819L56.5949 26.9819L56.5965 26.9819L56.6032 26.9817L56.6305 26.9811L56.7384 26.9788C56.8334 26.977 56.9737 26.9745 57.1538 26.972C57.514 26.967 58.0335 26.962 58.6695 26.962C61.0182 26.962 64.2954 27.0216 67.4439 27.2788C70.6128 27.5378 73.5815 27.9924 75.3557 28.7535C79.2568 30.4303 82.0524 33.3191 83.2663 36.8682L37.7781 28.7543ZM45.7142 46.8919C45.7234 46.7771 45.7732 45.9723 45.7419 43.17L45.7419 43.1699C45.7224 41.468 45.4036 40.3441 45.0646 39.6273C44.8953 39.2695 44.7224 39.0162 44.5828 38.8457C44.5131 38.7606 44.4521 38.6966 44.4046 38.6507C44.3808 38.6278 44.3605 38.6096 44.3442 38.5955C44.336 38.5885 44.329 38.5826 44.3231 38.5778C44.3183 38.5739 44.311 38.5681 44.3146 38.571L44.3077 38.5655L44.3003 38.56C44.1889 38.4773 44.1271 38.3394 44.1353 38.2185C44.1464 38.0681 44.2247 37.9548 44.3209 37.9031L44.3221 37.9025C44.3257 37.9005 44.3296 37.8984 44.3337 37.8961C44.5868 37.7579 45.6559 37.174 53.9102 37.174C54.6746 37.174 55.3315 37.1794 55.8016 37.1849C56.0366 37.1876 56.2248 37.1904 56.3563 37.1925L56.5096 37.1952L56.5519 37.196L56.5639 37.1962L56.5674 37.1963L56.5685 37.1963L56.5689 37.1963L56.5798 37.1966L56.5907 37.1963H56.5907L56.5908 37.1963L56.5913 37.1963L56.5936 37.1963L56.603 37.1961L56.6401 37.1954L56.7848 37.1929C56.9114 37.1908 57.0962 37.188 57.3289 37.1852C57.7943 37.1796 58.4509 37.174 59.2147 37.174C67.4687 37.174 68.5375 37.7592 68.7899 37.8974C68.794 37.8997 68.798 37.9018 68.8017 37.9038L68.8018 37.9039C68.9169 37.9663 68.9923 38.0841 69.0005 38.2162C69.0079 38.3474 68.9471 38.473 68.8404 38.5484L67.5546 39.4568H68.1646C68.1335 39.5165 68.1022 39.5795 68.0709 39.6461C67.7316 40.3699 67.4075 41.4961 67.3855 43.1698C67.3622 44.9371 67.3612 46.1797 67.3825 46.8568L67.3853 46.9486L67.3878 46.9546V47.4317H67.8878H82.795H83.2588L83.2936 46.9693C83.3581 46.1141 83.6568 41.7608 82.9099 38.4162C82.8107 37.9718 82.6873 37.534 82.5445 37.1149L82.5443 37.1143C81.0676 32.7972 77.6309 30.5611 75.0536 29.4536L75.0534 29.4535C73.1896 28.6537 69.9829 28.2292 66.8484 27.9979C63.6885 27.7649 60.5158 27.7236 58.6679 27.7236C58.0251 27.7236 57.5026 27.7286 57.1397 27.7336C56.7739 27.7387 56.5902 27.7433 56.5823 27.7436C56.5814 27.7435 56.5784 27.7435 56.5724 27.7434L56.5387 27.7428L56.419 27.7406C56.3172 27.7388 56.1727 27.7364 55.9898 27.734C55.624 27.7292 55.1049 27.7244 54.4667 27.7244C52.6184 27.7244 49.4445 27.7655 46.2836 27.9983C43.1481 28.2294 39.9406 28.6537 38.0771 29.4535L38.0769 29.4536C33.923 31.2386 31.1113 34.4159 30.2182 38.4155L30.2182 38.4157C29.4519 41.8565 29.787 46.3552 29.8371 46.9722L29.8745 47.4317H30.3355H45.2139H45.7284L45.7137 46.9174C45.7135 46.9092 45.7136 46.902 45.7142 46.8919ZM45.7142 46.8919C45.7138 46.8974 45.7134 46.9013 45.7132 46.9037L45.2155 46.8556M45.7142 46.8919C45.7143 46.8909 45.7143 46.8899 45.7144 46.8889L45.2155 46.8556M45.2155 46.8556C45.2148 46.8664 45.2142 46.8772 45.2139 46.8884L43.6365 38.1833C43.6157 38.4828 43.7607 38.7822 44.0025 38.9616L44.0028 38.9619C44.0284 38.9821 45.2045 39.912 45.2419 43.1756C45.2748 46.1117 45.2179 46.8308 45.2155 46.8556ZM83.2667 36.8694C83.4177 37.3149 83.5481 37.7785 83.6538 38.25L83.2667 36.8694Z" fill="#333133" stroke="#006D8D"/>
<path d="M28.961 44.1866L28.961 44.1859C28.9582 43.9753 29.127 43.8029 29.3363 43.8004L29.3368 43.8004L46.1138 43.5907H46.1138H46.1138H46.1139H46.1139H46.1139H46.1139H46.1139H46.114H46.114H46.114H46.114H46.1141H46.1141H46.1141H46.1141H46.1142H46.1142H46.1142H46.1142H46.1142H46.1143H46.1143H46.1143H46.1143H46.1144H46.1144H46.1144H46.1144H46.1145H46.1145H46.1145H46.1145H46.1146H46.1146H46.1146H46.1146H46.1146H46.1147H46.1147H46.1147H46.1147H46.1148H46.1148H46.1148H46.1148H46.1149H46.1149H46.1149H46.1149H46.115H46.115H46.115H46.115H46.115H46.1151H46.1151H46.1151H46.1151H46.1152H46.1152H46.1152H46.1152H46.1153H46.1153H46.1153H46.1153H46.1153H46.1154H46.1154H46.1154H46.1154H46.1155H46.1155H46.1155H46.1155H46.1156H46.1156H46.1156H46.1156H46.1156H46.1157H46.1157H46.1157H46.1157H46.1158H46.1158H46.1158H46.1158H46.1159H46.1159H46.1159H46.1159H46.1159H46.116H46.116H46.116H46.116H46.1161H46.1161H46.1161H46.1161H46.1162H46.1162H46.1162H46.1162H46.1163H46.1163H46.1163H46.1163H46.1163H46.1164H46.1164H46.1164H46.1164H46.1165H46.1165H46.1165H46.1165H46.1166H46.1166H46.1166H46.1166H46.1166H46.1167H46.1167H46.1167H46.1167H46.1168H46.1168H46.1168H46.1168H46.1168H46.1169H46.1169H46.1169H46.1169H46.117H46.117H46.117H46.117H46.1171H46.1171H46.1171H46.1171H46.1171H46.1172H46.1172H46.1172H46.1172H46.1173H46.1173H46.1173H46.1173H46.1174H46.1174H46.1174H46.1174H46.1174H46.1175H46.1175H46.1175H46.1175H46.1176H46.1176H46.1176H46.1176H46.1177H46.1177H46.1177H46.1177H46.1177H46.1178H46.1178H46.1178H46.1178H46.1179H46.1179H46.1179H46.1179H46.1179H46.118H46.118H46.118H46.118H46.1181H46.1181H46.1181H46.1181H46.1181H46.1182H46.1182H46.1182H46.1182H46.1183H46.1183H46.1183H46.1183H46.1184H46.1184H46.1184H46.1184H46.1184H46.1185H46.1185H46.1185H46.1185H46.1186H46.1186H46.1186H46.1186H46.1186H46.1187H46.1187H46.1187H46.1187H46.1188H46.1188H46.1188H46.1188H46.1188H46.1189H46.1189H46.1189H46.1189H46.119H46.119H46.119H46.119H46.119H46.1191H46.1191H46.1191H46.1191H46.1192H46.1192H46.1192H46.1192H46.1192H46.1193H46.1193H46.1193H46.1193H46.1194H46.1194H46.1194H46.1194H46.1194H46.1195H46.1195H46.1195H46.1195H46.1196H46.1196H46.1196H46.1196H46.1196H46.1197H46.1197H46.1197H46.1197H46.1198H46.1198H46.1198H46.1198H46.1198H46.1199H46.1199H46.1199H46.1199H46.1199H46.12H46.12H46.12H46.12H46.1201H46.1201H46.1201H46.1201H46.1201H46.1202H46.1202H46.1202H46.1202H46.1203H46.1203H46.1203H46.1203H46.1203H46.1204H46.1204H46.1204H46.1204H46.1204H46.1205H46.1205H46.1205H46.1205H46.1206H46.1206H46.1206H46.1206H46.1206H46.1207H46.1207H46.1207H46.1207H46.1207H46.1208H46.1208H46.1208H46.1208H46.1209H46.1209H46.1209H46.1209H46.1209H46.121H46.121H46.121H46.121H46.121H46.1211H46.1211H46.1211H46.1211H46.1212H46.1212H46.1212H46.1212H46.1212H46.1213H46.1213H46.1213H46.1213H46.1213H46.1214H46.1214H46.1214H46.1214H46.1214H46.1215H46.1215H46.1215H46.1215H46.1216H46.1216H46.1216H46.1216H46.1216H46.1217H46.1217H46.1217H46.1217H46.1217H46.1218H46.1218H46.1218H46.1218H46.1218H46.1219H46.1219H46.1219H46.1219H46.1219H46.122H46.122H46.122H46.122H46.122H46.1221H46.1221H46.1221H46.1221H46.1222H46.1222H46.1222H46.1222H46.1222H46.1223H46.1223H46.1223H46.1223H46.1223H46.1224H46.1224H46.1224H46.1224H46.1224H46.1225H46.1225H46.1225H46.1225H46.1225H46.1226H46.1226H46.1226H46.1226H46.1226H46.1227H46.1227H46.1227H46.1227H46.1227H46.1228H46.1228H46.1228H46.1228H46.1228H46.1229H46.1229H46.1229H46.1229H46.1229H46.123H46.123H46.123H46.123H46.123H46.1231H46.1231H46.1231H46.1231H46.1231H46.1232H46.1232H46.1232H46.1232H46.1232H46.1233H46.1233H46.1233H46.1233H46.1233H46.1234H46.1234H46.1234H46.1234H46.1234H46.1235H46.1235H46.1235H46.1235H46.1235H46.1235H46.1236H46.1236H46.1236H46.1236H46.1236H46.1237H46.1237H46.1237H46.1237H46.1237H46.1238H46.1238H46.1238H46.1238H46.1238H46.1239H46.1239H46.1239H46.1239H46.1239H46.124H46.124H46.124H46.124H46.124H46.124H46.1241H46.1241H46.1241H46.1241H46.1241H46.1242H46.1242H46.1242H46.1242C46.3325 43.5907 46.5019 43.7573 46.505 43.9663C46.5073 44.1774 46.3388 44.3495 46.1289 44.3523C46.1289 44.3523 46.1289 44.3523 46.1288 44.3523L29.3522 44.562H29.3522H29.3521H29.3521H29.3521H29.3521H29.352H29.352H29.352H29.352H29.3519H29.3519H29.3519H29.3518H29.3518H29.3518H29.3518H29.3517H29.3517H29.3517H29.3517H29.3516H29.3516H29.3516H29.3515H29.3515H29.3515H29.3515H29.3514H29.3514H29.3514H29.3514H29.3513H29.3513H29.3513H29.3512H29.3512H29.3512H29.3512H29.3511H29.3511H29.3511H29.3511H29.351H29.351H29.351H29.351H29.3509H29.3509H29.3509H29.3508H29.3508H29.3508H29.3508H29.3507H29.3507H29.3507H29.3507H29.3506H29.3506H29.3506H29.3506H29.3505H29.3505H29.3505H29.3505H29.3504H29.3504H29.3504H29.3503H29.3503H29.3503H29.3503H29.3502H29.3502H29.3502H29.3502H29.3501H29.3501H29.3501H29.3501H29.35H29.35H29.35H29.35H29.3499H29.3499H29.3499H29.3499H29.3498H29.3498H29.3498H29.3497H29.3497H29.3497H29.3497H29.3496H29.3496H29.3496H29.3496H29.3495H29.3495H29.3495H29.3495H29.3494H29.3494H29.3494H29.3494H29.3493H29.3493H29.3493H29.3493H29.3492H29.3492H29.3492H29.3492H29.3491H29.3491H29.3491H29.3491H29.349H29.349H29.349H29.349H29.3489H29.3489H29.3489H29.3489H29.3488H29.3488H29.3488H29.3488H29.3487H29.3487H29.3487H29.3487H29.3486H29.3486H29.3486H29.3486H29.3485H29.3485H29.3485H29.3485H29.3484H29.3484H29.3484H29.3484H29.3483H29.3483H29.3483H29.3483H29.3482H29.3482H29.3482H29.3482H29.3482H29.3481H29.3481H29.3481H29.3481H29.348H29.348H29.348H29.348H29.3479H29.3479H29.3479H29.3479H29.3478H29.3478H29.3478H29.3478H29.3477H29.3477H29.3477H29.3477H29.3477H29.3476H29.3476H29.3476H29.3476H29.3475H29.3475H29.3475H29.3475H29.3474H29.3474H29.3474H29.3474H29.3473H29.3473H29.3473H29.3473H29.3473H29.3472H29.3472H29.3472H29.3472H29.3471H29.3471H29.3471H29.3471H29.347H29.347H29.347H29.347H29.347H29.3469H29.3469H29.3469H29.3469H29.3468H29.3468H29.3468H29.3468H29.3467H29.3467H29.3467H29.3467H29.3467H29.3466H29.3466H29.3466H29.3466H29.3465H29.3465H29.3465H29.3465H29.3465H29.3464H29.3464H29.3464H29.3464H29.3463H29.3463H29.3463H29.3463H29.3463H29.3462H29.3462H29.3462H29.3462H29.3461H29.3461H29.3461H29.3461H29.3461H29.346H29.346H29.346H29.346H29.346H29.3459H29.3459H29.3459H29.3459H29.3458H29.3458H29.3458H29.3458H29.3458H29.3457H29.3457H29.3457H29.3457H29.3457H29.3456H29.3456H29.3456H29.3456H29.3455H29.3455H29.3455H29.3455H29.3455H29.3454H29.3454H29.3454H29.3454H29.3454H29.3453H29.3453H29.3453H29.3453H29.3453H29.3452H29.3452H29.3452H29.3452H29.3452H29.3451H29.3451H29.3451H29.3451H29.345H29.345H29.345H29.345H29.345H29.3449H29.3449H29.3449H29.3449H29.3449H29.3448H29.3448H29.3448H29.3448H29.3448H29.3447H29.3447H29.3447H29.3447H29.3447H29.3446H29.3446H29.3446H29.3446H29.3446H29.3445H29.3445H29.3445H29.3445H29.3445H29.3445H29.3444H29.3444H29.3444H29.3444H29.3444H29.3443H29.3443H29.3443H29.3443H29.3443H29.3442H29.3442H29.3442H29.3442H29.3442H29.3441H29.3441H29.3441H29.3441H29.3441H29.3441H29.344H29.344H29.344H29.344H29.344H29.3439H29.3439H29.3439H29.3439H29.3439H29.3438H29.3438H29.3438H29.3438H29.3438H29.3438H29.3437H29.3437H29.3437H29.3437H29.3437H29.3436H29.3436H29.3436H29.3436H29.3436H29.3436H29.3435H29.3435H29.3435H29.3435H29.3435H29.3434H29.3434H29.3434H29.3434H29.3434H29.3434H29.3433H29.3433H29.3433H29.3433H29.3433H29.3433H29.3432H29.3432H29.3432H29.3432H29.3432H29.3432H29.3431H29.3431H29.3431H29.3431H29.3431H29.343H29.343H29.343H29.343H29.343H29.343H29.3429H29.3429H29.3429H29.3429H29.3429H29.3429H29.3428H29.3428H29.3428H29.3428H29.3428H29.3428H29.3427H29.3427H29.3427H29.3427H29.3427H29.3427H29.3427H29.3426H29.3426H29.3426H29.3426H29.3426H29.3426H29.3425H29.3425H29.3425H29.3425H29.3425H29.3425H29.3424H29.3424H29.3424H29.3424H29.3424H29.3424H29.3424H29.3423H29.3423H29.3423H29.3423H29.3423H29.3423H29.3422H29.3422H29.3422H29.3422H29.3422H29.3422H29.3422H29.3421H29.3421H29.3421H29.3421H29.3421H29.3421H29.342H29.342H29.342H29.342H29.342H29.342H29.342H29.3419H29.3419H29.3419H29.3419H29.3419H29.3419H29.3419H29.3418H29.3418H29.3418H29.3418H29.3418H29.3418C29.1326 44.562 28.9634 44.3945 28.961 44.1866Z" fill="#333133" stroke="#006D8D"/>
<path d="M67.0117 44.0904C66.8032 44.0904 66.6337 43.9235 66.6309 43.7143L66.6309 43.7142C66.6282 43.5044 66.7963 43.3317 67.007 43.3288C67.007 43.3288 67.007 43.3288 67.0071 43.3288L83.7741 43.1183H83.7741H83.7742H83.7742H83.7742H83.7742H83.7742H83.7743H83.7743H83.7743H83.7743H83.7743H83.7744H83.7744H83.7744H83.7744H83.7744H83.7745H83.7745H83.7745H83.7745H83.7745H83.7746H83.7746H83.7746H83.7746H83.7746H83.7747H83.7747H83.7747H83.7747H83.7747H83.7748H83.7748H83.7748H83.7748H83.7748H83.7749H83.7749H83.7749H83.7749H83.7749H83.775H83.775H83.775H83.775H83.775H83.7751H83.7751H83.7751H83.7751H83.7751H83.7752H83.7752H83.7752H83.7752H83.7752H83.7753H83.7753H83.7753H83.7753H83.7753H83.7754H83.7754H83.7754H83.7754H83.7754H83.7755H83.7755H83.7755H83.7755H83.7756H83.7756H83.7756H83.7756H83.7756H83.7757H83.7757H83.7757H83.7757H83.7757H83.7758H83.7758H83.7758H83.7758H83.7758H83.7759H83.7759H83.7759H83.7759H83.7759H83.776H83.776H83.776H83.776H83.7761H83.7761H83.7761H83.7761H83.7761H83.7762H83.7762H83.7762H83.7762H83.7762H83.7763H83.7763H83.7763H83.7763H83.7763H83.7764H83.7764H83.7764H83.7764H83.7765H83.7765H83.7765H83.7765H83.7765H83.7766H83.7766H83.7766H83.7766H83.7766H83.7767H83.7767H83.7767H83.7767H83.7767H83.7768H83.7768H83.7768H83.7768H83.7769H83.7769H83.7769H83.7769H83.7769H83.777H83.777H83.777H83.777H83.777H83.7771H83.7771H83.7771H83.7771H83.7772H83.7772H83.7772H83.7772H83.7772H83.7773H83.7773H83.7773H83.7773H83.7774H83.7774H83.7774H83.7774H83.7774H83.7775H83.7775H83.7775H83.7775H83.7775H83.7776H83.7776H83.7776H83.7776H83.7777H83.7777H83.7777H83.7777H83.7777H83.7778H83.7778H83.7778H83.7778H83.7779H83.7779H83.7779H83.7779H83.7779H83.778H83.778H83.778H83.778H83.7781H83.7781H83.7781H83.7781H83.7781H83.7782H83.7782H83.7782H83.7782H83.7782H83.7783H83.7783H83.7783H83.7783H83.7784H83.7784H83.7784H83.7784H83.7785H83.7785H83.7785H83.7785H83.7785H83.7786H83.7786H83.7786H83.7786H83.7787H83.7787H83.7787H83.7787H83.7787H83.7788H83.7788H83.7788H83.7788H83.7789H83.7789H83.7789H83.7789H83.7789H83.779H83.779H83.779H83.779H83.7791H83.7791H83.7791H83.7791H83.7791H83.7792H83.7792H83.7792H83.7792H83.7793H83.7793H83.7793H83.7793H83.7793H83.7794H83.7794H83.7794H83.7794H83.7795H83.7795H83.7795H83.7795H83.7795H83.7796H83.7796H83.7796H83.7796H83.7797H83.7797H83.7797H83.7797H83.7798H83.7798H83.7798H83.7798H83.7798H83.7799H83.7799H83.7799H83.7799H83.78H83.78H83.78H83.78H83.78H83.7801H83.7801H83.7801H83.7801H83.7802H83.7802H83.7802H83.7802H83.7803H83.7803H83.7803H83.7803H83.7803H83.7804H83.7804H83.7804H83.7804H83.7805H83.7805H83.7805H83.7805H83.7806H83.7806H83.7806H83.7806H83.7806H83.7807H83.7807H83.7807H83.7807H83.7808H83.7808H83.7808H83.7808H83.7808H83.7809H83.7809H83.7809H83.7809H83.781H83.781H83.781H83.781H83.7811H83.7811H83.7811H83.7811H83.7811H83.7812H83.7812H83.7812H83.7812H83.7813H83.7813H83.7813H83.7813H83.7814H83.7814H83.7814H83.7814H83.7815H83.7815H83.7815H83.7815H83.7815H83.7816H83.7816H83.7816H83.7816H83.7817H83.7817H83.7817H83.7817H83.7818H83.7818H83.7818H83.7818H83.7818H83.7819H83.7819H83.7819H83.7819H83.782H83.782H83.782H83.782H83.7821H83.7821H83.7821H83.7821H83.7821H83.7822H83.7822H83.7822H83.7822H83.7823H83.7823H83.7823H83.7823H83.7824H83.7824H83.7824H83.7824H83.7824H83.7825H83.7825H83.7825H83.7825H83.7826H83.7826H83.7826H83.7826H83.7827H83.7827H83.7827H83.7827H83.7828H83.7828H83.7828H83.7828H83.7828H83.7829H83.7829H83.7829H83.7829H83.783H83.783H83.783H83.783H83.7831H83.7831H83.7831H83.7831H83.7831H83.7832H83.7832H83.7832H83.7832H83.7833H83.7833H83.7833H83.7833H83.7834H83.7834H83.7834H83.7834H83.7835H83.7835H83.7835H83.7835H83.7835H83.7836H83.7836H83.7836H83.7836H83.7837H83.7837H83.7837H83.7837H83.7838H83.7838H83.7838H83.7838H83.7839H83.7839H83.7839H83.7839H83.7839H83.784H83.784H83.784H83.784H83.7841H83.7841H83.7841H83.7841H83.7842H83.7842H83.7842H83.7842H83.7843H83.7843H83.7843H83.7843H83.7843H83.7844H83.7844H83.7844H83.7844H83.7845H83.7845H83.7845H83.7845C83.9934 43.1183 84.1631 43.2855 84.1661 43.4939C84.1684 43.7049 84 43.877 83.7901 43.8798C83.7901 43.8798 83.79 43.8798 83.79 43.8798L67.0221 44.0904H67.0221H67.0221H67.022H67.022H67.022H67.022H67.022H67.0219H67.0219H67.0219H67.0219H67.0219H67.0218H67.0218H67.0218H67.0218H67.0218H67.0217H67.0217H67.0217H67.0217H67.0217H67.0216H67.0216H67.0216H67.0216H67.0216H67.0215H67.0215H67.0215H67.0215H67.0214H67.0214H67.0214H67.0214H67.0214H67.0213H67.0213H67.0213H67.0213H67.0213H67.0212H67.0212H67.0212H67.0212H67.0211H67.0211H67.0211H67.0211H67.0211H67.021H67.021H67.021H67.021H67.021H67.0209H67.0209H67.0209H67.0209H67.0208H67.0208H67.0208H67.0208H67.0208H67.0207H67.0207H67.0207H67.0207H67.0206H67.0206H67.0206H67.0206H67.0206H67.0205H67.0205H67.0205H67.0205H67.0205H67.0204H67.0204H67.0204H67.0204H67.0203H67.0203H67.0203H67.0203H67.0203H67.0202H67.0202H67.0202H67.0202H67.0201H67.0201H67.0201H67.0201H67.02H67.02H67.02H67.02H67.02H67.0199H67.0199H67.0199H67.0199H67.0198H67.0198H67.0198H67.0198H67.0198H67.0197H67.0197H67.0197H67.0197H67.0196H67.0196H67.0196H67.0196H67.0196H67.0195H67.0195H67.0195H67.0195H67.0194H67.0194H67.0194H67.0194H67.0193H67.0193H67.0193H67.0193H67.0193H67.0192H67.0192H67.0192H67.0192H67.0191H67.0191H67.0191H67.0191H67.019H67.019H67.019H67.019H67.019H67.0189H67.0189H67.0189H67.0189H67.0188H67.0188H67.0188H67.0188H67.0187H67.0187H67.0187H67.0187H67.0187H67.0186H67.0186H67.0186H67.0186H67.0185H67.0185H67.0185H67.0185H67.0184H67.0184H67.0184H67.0184H67.0184H67.0183H67.0183H67.0183H67.0183H67.0182H67.0182H67.0182H67.0182H67.0181H67.0181H67.0181H67.0181H67.018H67.018H67.018H67.018H67.018H67.0179H67.0179H67.0179H67.0179H67.0178H67.0178H67.0178H67.0178H67.0177H67.0177H67.0177H67.0177H67.0177H67.0176H67.0176H67.0176H67.0176H67.0175H67.0175H67.0175H67.0175H67.0174H67.0174H67.0174H67.0174H67.0173H67.0173H67.0173H67.0173H67.0173H67.0172H67.0172H67.0172H67.0172H67.0171H67.0171H67.0171H67.0171H67.017H67.017H67.017H67.017H67.0169H67.0169H67.0169H67.0169H67.0169H67.0168H67.0168H67.0168H67.0168H67.0167H67.0167H67.0167H67.0167H67.0166H67.0166H67.0166H67.0166H67.0165H67.0165H67.0165H67.0165H67.0165H67.0164H67.0164H67.0164H67.0164H67.0163H67.0163H67.0163H67.0163H67.0162H67.0162H67.0162H67.0162H67.0162H67.0161H67.0161H67.0161H67.0161H67.016H67.016H67.016H67.016H67.0159H67.0159H67.0159H67.0159H67.0159H67.0158H67.0158H67.0158H67.0158H67.0157H67.0157H67.0157H67.0157H67.0156H67.0156H67.0156H67.0156H67.0155H67.0155H67.0155H67.0155H67.0155H67.0154H67.0154H67.0154H67.0154H67.0153H67.0153H67.0153H67.0153H67.0153H67.0152H67.0152H67.0152H67.0152H67.0151H67.0151H67.0151H67.0151H67.015H67.015H67.015H67.015H67.015H67.0149H67.0149H67.0149H67.0149H67.0148H67.0148H67.0148H67.0148H67.0148H67.0147H67.0147H67.0147H67.0147H67.0146H67.0146H67.0146H67.0146H67.0145H67.0145H67.0145H67.0145H67.0145H67.0144H67.0144H67.0144H67.0144H67.0143H67.0143H67.0143H67.0143H67.0143H67.0142H67.0142H67.0142H67.0142H67.0141H67.0141H67.0141H67.0141H67.0141H67.014H67.014H67.014H67.014H67.0139H67.0139H67.0139H67.0139H67.0139H67.0138H67.0138H67.0138H67.0138H67.0138H67.0137H67.0137H67.0137H67.0137H67.0136H67.0136H67.0136H67.0136H67.0136H67.0135H67.0135H67.0135H67.0135H67.0134H67.0134H67.0134H67.0134H67.0134H67.0133H67.0133H67.0133H67.0133H67.0133H67.0132H67.0132H67.0132H67.0132H67.0132H67.0131H67.0131H67.0131H67.0131H67.013H67.013H67.013H67.013H67.013H67.0129H67.0129H67.0129H67.0129H67.0129H67.0128H67.0128H67.0128H67.0128H67.0128H67.0127H67.0127H67.0127H67.0127H67.0127H67.0126H67.0126H67.0126H67.0126H67.0126H67.0125H67.0125H67.0125H67.0125H67.0125H67.0124H67.0124H67.0124H67.0124H67.0124H67.0123H67.0123H67.0123H67.0123H67.0123H67.0122H67.0122H67.0122H67.0122H67.0122H67.0121H67.0121H67.0121H67.0121H67.0121H67.012H67.012H67.012H67.012H67.012H67.0119H67.0119H67.0119H67.0119H67.0119H67.0118H67.0118H67.0118H67.0118H67.0118H67.0118H67.0117H67.0117H67.0117Z" fill="#333133" stroke="#006D8D"/>
<path d="M87.9141 46.4747C87.5946 49.2203 85.962 51.6688 83.5511 53.0244L87.1422 45.4979C87.6242 45.5532 87.9709 45.9911 87.9141 46.4747Z" fill="#333133" stroke="#006D8D"/>
<path d="M84.9637 55.4819L84.9643 55.4816C88.1467 53.6899 90.2989 50.4591 90.7227 46.8364C90.748 46.6227 90.9397 46.4767 91.1397 46.5022L91.1446 46.5027C91.355 46.5275 91.5035 46.7163 91.479 46.9246L91.479 46.9249C91.0268 50.7869 88.7311 54.2338 85.3376 56.1444L85.3362 56.1452C85.2776 56.1784 85.215 56.1938 85.1513 56.1938C85.0172 56.1938 84.8889 56.1238 84.818 55.9986C84.716 55.8176 84.7805 55.5848 84.9637 55.4819Z" fill="#333133" stroke="#006D8D"/>
<path d="M84.7285 56.0169L84.7284 56.0167C84.6261 55.835 84.6903 55.6023 84.8749 55.4985C88.0561 53.7098 90.209 50.4789 90.6352 46.8555L90.6352 46.8555C90.66 46.645 90.8543 46.4967 91.0539 46.5215L91.0571 46.5218C91.2671 46.5465 91.416 46.7366 91.3916 46.9435L91.3916 46.9437C90.9372 50.8064 88.6419 54.2523 85.2518 56.1616C85.1877 56.1962 85.1227 56.2113 85.0615 56.2113C84.9271 56.2113 84.7981 56.1405 84.7285 56.0169Z" fill="#333133" stroke="#006D8D"/>
<path d="M86.2091 59.6917L86.2085 59.6905C86.1141 59.5009 86.1907 59.2728 86.3785 59.1789C91.2451 56.7488 94.3716 52.0548 94.7391 46.631L94.7391 46.6309C94.7523 46.4364 94.9262 46.2708 95.1508 46.2766C95.3579 46.2946 95.5129 46.4753 95.4989 46.6819C95.1122 52.382 91.8325 57.3059 86.7186 59.8601L86.7173 59.8608C86.6643 59.8874 86.6072 59.9003 86.5489 59.9003C86.4066 59.9003 86.2735 59.8218 86.2091 59.6917Z" fill="#333133" stroke="#006D8D"/>
<path d="M26.5828 46.4164L26.5828 46.4169C26.8838 49.0031 28.4217 51.3111 30.6939 52.5884L26.5828 46.4164ZM26.5828 46.4164C26.5581 46.2068 26.7087 46.0183 26.915 45.9946L26.915 45.9946M26.5828 46.4164L26.915 45.9946M26.915 45.9946L26.9168 45.9944M26.915 45.9946L26.9168 45.9944M26.9168 45.9944C27.1361 45.9685 27.3142 46.1136 27.339 46.3275L27.3391 46.3277M26.9168 45.9944L27.3391 46.3277M27.3391 46.3277C27.6131 48.6751 29.0063 50.7661 31.0683 51.9238L31.3131 51.4878L31.068 51.9237C31.2517 52.0269 31.3168 52.2594 31.2135 52.443L31.2131 52.4438M27.3391 46.3277L31.2131 52.4438M31.2131 52.4438C31.1446 52.5662 31.0163 52.6373 30.8807 52.6373C30.817 52.6373 30.7537 52.6219 30.6941 52.5885L31.2131 52.4438Z" fill="#333133" stroke="#006D8D"/>
<path d="M28.6651 56.1455L28.6634 56.1445C25.2699 54.2347 22.9735 50.787 22.5213 46.925L22.5213 46.9248C22.4968 46.7165 22.6453 46.5276 22.8557 46.5029L22.8557 46.5029L22.8604 46.5023C23.0649 46.4763 23.2521 46.6207 23.2776 46.8368L23.7742 46.7782L23.2776 46.8363C23.7013 50.4592 25.8544 53.69 29.036 55.4818L29.0365 55.4821C29.2191 55.5846 29.2839 55.8172 29.1814 55.999L29.181 55.9995C29.1111 56.1238 28.9833 56.1939 28.8489 56.1939C28.786 56.1939 28.7226 56.1781 28.6651 56.1455Z" fill="#333133" stroke="#006D8D"/>
<path d="M23.3647 46.8535C23.7901 50.4769 25.9437 53.7077 29.1246 55.4963C29.3095 55.6008 29.3731 55.8328 29.2707 56.0147L29.2697 56.0164C29.201 56.1395 29.0728 56.2101 28.9384 56.2101C28.8744 56.2101 28.8115 56.1946 28.7535 56.1618L28.7528 56.1614C25.3603 54.2533 23.0637 50.8057 22.6091 46.9417L22.6091 46.9417C22.5847 46.7338 22.7337 46.5445 22.9429 46.5199L22.9429 46.5199L22.9462 46.5195C23.1444 46.4948 23.34 46.6434 23.3647 46.8535ZM23.3647 46.8535L23.8612 46.7952L23.3647 46.8535Z" fill="#333133" stroke="#006D8D"/>
<path d="M27.2813 59.8599L27.2814 59.86C27.3365 59.8875 27.3934 59.9001 27.451 59.9001C27.5936 59.9001 27.7266 59.8219 27.792 59.6906L27.7926 59.6893C27.8862 59.5024 27.8106 59.2732 27.6221 59.1786C22.7541 56.7478 19.6266 52.0547 19.2615 46.6307L27.2813 59.8599ZM27.2813 59.8599C22.1665 57.3048 18.8869 52.3809 18.5009 46.6817L18.5009 46.6817M27.2813 59.8599L18.5009 46.6817M18.5009 46.6817C18.4869 46.4755 18.6419 46.2948 18.8478 46.2765M18.5009 46.6817L18.8478 46.2765M18.8478 46.2765C19.0798 46.2726 19.2484 46.438 19.2615 46.6305L18.8478 46.2765Z" fill="#333133" stroke="#006D8D"/>
<path d="M65.0761 57.6417C65.0761 62.3417 61.2654 66.151 56.5652 66.151C51.8667 66.151 48.0566 62.3418 48.0566 57.6417C48.0566 52.9432 51.8666 49.1339 56.5652 49.1339C61.2655 49.1339 65.0761 52.9433 65.0761 57.6417Z" fill="white" stroke="#006D8D"/>
<path d="M65.9568 57.6424V57.6424C65.9576 62.8205 61.7449 67.0333 56.5651 67.0333C51.3886 67.0333 47.1758 62.8206 47.1758 57.6424C47.1758 52.4658 51.3885 48.2531 56.5651 48.2531C61.7441 48.2531 65.9568 52.4659 65.9568 57.6424ZM56.5651 49.0154C51.8067 49.0154 47.9373 52.8856 47.9373 57.6424C47.9373 62.4007 51.8075 66.271 56.5651 66.271C61.3233 66.271 65.1961 62.4001 65.1961 57.6424C65.1961 52.8853 61.3241 49.0154 56.5651 49.0154Z" fill="#333133" stroke="#006D8D"/>
<path d="M56.566 63.1609C59.6137 63.1609 62.0856 60.6887 62.0856 57.6437C62.0856 54.5949 59.613 52.1249 56.566 52.1241V63.1609ZM56.566 63.1609C53.5194 63.1609 51.0488 60.6889 51.0488 57.6437M56.566 63.1609L51.0488 57.6437M51.0488 57.6437C51.0488 54.5945 53.5194 52.1242 56.5659 52.1241L51.0488 57.6437Z" fill="white" stroke="#006D8D"/>
<path d="M56.5649 64.0416C53.0378 64.0416 50.167 61.1708 50.167 57.6436C50.167 54.1155 53.038 51.2433 56.5649 51.2433C60.0944 51.2433 62.9653 54.1149 62.9653 57.6436C62.9653 61.1699 60.0945 64.0416 56.5649 64.0416ZM56.5649 52.0048C53.4557 52.0048 50.9285 54.534 50.9285 57.6428C50.9285 60.751 53.4567 63.2792 56.5649 63.2792C59.6753 63.2792 62.2045 60.7513 62.2045 57.6428C62.2045 54.5337 59.6754 52.0048 56.5649 52.0048Z" fill="#333133" stroke="#006D8D"/>
<defs>
<filter id="filter0_d_2068_42950" x="0.8" y="0.262036" width="111.4" height="111.4" filterUnits="userSpaceOnUse" color-interpolation-filters="sRGB">
<feFlood flood-opacity="0" result="BackgroundImageFix"/>
<feColorMatrix in="SourceAlpha" type="matrix" values="0 0 0 0 0 0 0 0 0 0 0 0 0 0 0 0 0 0 127 0" result="hardAlpha"/>
<feOffset dy="4"/>
<feGaussianBlur stdDeviation="4.1"/>
<feComposite in2="hardAlpha" operator="out"/>
<feColorMatrix type="matrix" values="0 0 0 0 0.01125 0 0 0 0 0.698298 0 0 0 0 0.9 0 0 0 0.25 0"/>
<feBlend mode="normal" in2="BackgroundImageFix" result="effect1_dropShadow_2068_42950"/>
<feBlend mode="normal" in="SourceGraphic" in2="effect1_dropShadow_2068_42950" result="shape"/>
</filter>
</defs>
</svg>
