<svg width="113" height="112" viewBox="0 0 113 112" fill="none" xmlns="http://www.w3.org/2000/svg">
<g filter="url(#filter0_d_2068_42936)">
<circle cx="56.5" cy="51.962" r="47.5" fill="white"/>
<circle cx="56.5" cy="51.962" r="47" stroke="#006D8D"/>
</g>
<path d="M88.5428 64.0472L88.5428 64.0471C88.7081 63.6486 88.7394 63.1785 88.6731 62.6276C88.6065 62.0744 88.447 61.48 88.2637 60.8437C88.2384 60.7559 88.2126 60.6672 88.1866 60.5777C88.0283 60.0331 87.8622 59.462 87.7523 58.9068C87.624 58.2584 87.5619 57.586 87.6892 56.9426C87.8138 56.3127 88.1277 55.7258 88.4921 55.185C88.7947 54.736 89.1532 54.2894 89.4972 53.8609C89.5664 53.7747 89.6349 53.6894 89.7023 53.6048C90.1143 53.088 90.4895 52.5958 90.7632 52.1027C91.0355 51.6118 91.1891 51.1514 91.1891 50.7002C91.1891 50.2489 91.0355 49.7885 90.7632 49.2977C90.4895 48.8046 90.1143 48.3124 89.7022 47.7957C89.6346 47.7109 89.5658 47.6252 89.4964 47.5388C89.1525 47.1105 88.7943 46.6644 88.4918 46.2159C88.1272 45.6752 87.8132 45.0886 87.6883 44.459L87.6882 44.4587C87.561 43.8152 87.6233 43.1428 87.7516 42.4945C87.8616 41.9394 88.0276 41.3684 88.1859 40.824C88.212 40.7344 88.2378 40.6455 88.2632 40.5576C88.4465 39.9213 88.606 39.3269 88.6726 38.7737C88.739 38.2228 88.7076 37.7527 88.5423 37.3542L88.5423 37.3541C88.3728 36.9453 88.0578 36.5842 87.6191 36.2381C87.1785 35.8905 86.6438 35.5813 86.0643 35.2618C85.9754 35.2129 85.8854 35.1636 85.7946 35.1139C85.3061 34.8464 84.7957 34.567 84.3362 34.262C83.7897 33.8993 83.2726 33.474 82.9123 32.9358M88.5428 64.0472L83.3278 32.6577M88.5428 64.0472C88.3733 64.456 88.0583 64.8171 87.6196 65.1632C87.179 65.5108 86.6443 65.82 86.0648 66.1395C85.9759 66.1885 85.8859 66.2378 85.795 66.2875C85.3065 66.5549 84.7962 66.8343 84.3367 67.1393C83.7902 67.502 83.2731 67.9273 82.9128 68.4655C82.5505 69.0067 82.3522 69.6488 82.2237 70.2943C82.1146 70.8423 82.0499 71.4271 81.9881 71.986C81.9774 72.0835 81.9667 72.1802 81.9558 72.2758C81.8813 72.9336 81.8 73.545 81.6481 74.0836C81.4969 74.6199 81.2854 75.0461 80.976 75.3554C80.6666 75.6647 80.2403 75.8761 79.7039 76.0274C79.1653 76.1792 78.5538 76.2605 77.8961 76.3349C77.8006 76.3458 77.704 76.3564 77.6067 76.3672C77.0477 76.429 76.4627 76.4936 75.9147 76.6028C75.2693 76.7313 74.6272 76.9295 74.086 77.2918L74.3641 77.7073M88.5428 64.0472L74.3641 77.7073M82.9123 32.9358L83.3278 32.6577M82.9123 32.9358C82.9123 32.9358 82.9123 32.9358 82.9123 32.9359L83.3278 32.6577M82.9123 32.9358C82.55 32.3947 82.3517 31.7527 82.2232 31.1073C82.1141 30.5592 82.0494 29.9742 81.9877 29.4152C81.9769 29.3179 81.9662 29.2213 81.9554 29.1259C81.8809 28.4681 81.7997 27.8565 81.6478 27.3179C81.4966 26.7815 81.2852 26.3552 80.9759 26.0458M83.3278 32.6577C82.7548 31.802 82.6199 30.5829 82.4851 29.3644C82.3285 27.9493 82.172 26.5351 81.3295 25.6923L80.9759 26.0458M80.9759 26.0458C80.9759 26.0458 80.9759 26.0458 80.9759 26.0458C80.9759 26.0458 80.9759 26.0458 80.9759 26.0458ZM74.3641 77.7073L74.086 77.2918C73.5478 77.6521 73.1224 78.1692 72.7597 78.7157C72.4548 79.1752 72.1754 79.6856 71.908 80.1741C71.8582 80.2649 71.8089 80.355 71.76 80.4438C71.4405 81.0233 71.1313 81.5581 70.7837 81.9986C70.4376 82.4373 70.0765 82.7523 69.6677 82.9218L69.6676 82.9219M74.3641 77.7073L69.6676 82.9219M69.6676 82.9219C69.2691 83.0871 68.799 83.1185 68.2481 83.0521C67.6949 82.9855 67.1005 82.8261 66.4642 82.6427C66.3764 82.6174 66.2877 82.5917 66.1983 82.5657C65.6537 82.4073 65.0825 82.2412 64.5272 82.1314C63.8789 82.0031 63.2065 81.9409 62.563 82.0683C61.9331 82.1929 61.3463 82.5067 60.8055 82.8712C60.3566 83.1737 59.9101 83.5322 59.4816 83.8762C59.3955 83.9454 59.3101 84.0139 59.2255 84.0814C58.7088 84.4934 58.2166 84.8686 57.7235 85.1422C57.2328 85.4146 56.7724 85.5682 56.3211 85.5682C55.8699 85.5682 55.4095 85.4146 54.9186 85.1422C54.4255 84.8686 53.9333 84.4934 53.4165 84.0813C53.3319 84.0139 53.2466 83.9454 53.1604 83.8763C52.7318 83.5322 52.2853 83.1737 51.8363 82.8711C51.2955 82.5067 50.7087 82.1929 50.0787 82.0683C49.4353 81.9409 48.7629 82.0031 48.1145 82.1314C47.5593 82.2412 46.9881 82.4073 46.4435 82.5657C46.3541 82.5917 46.2654 82.6174 46.1776 82.6427C45.5413 82.8261 44.9469 82.9855 44.3937 83.0521C43.8428 83.1185 43.3727 83.0871 42.9742 82.9219L42.9741 82.9218C42.5653 82.7523 42.2042 82.4373 41.8581 81.9986C41.5105 81.5581 41.2013 81.0233 40.8818 80.4438C40.8328 80.3549 40.7835 80.2649 40.7338 80.174C40.4664 79.6855 40.187 79.1752 39.882 78.7157C39.5193 78.1692 39.094 77.6521 38.5558 77.2918L38.2777 77.7073M69.6676 82.9219L69.8592 83.3837C68.7724 83.8344 67.4179 83.4408 66.0553 83.0448C64.8732 82.7013 63.6849 82.3559 62.6601 82.5587C61.6802 82.7526 60.744 83.5041 59.7995 84.2622C58.6804 85.1606 57.5496 86.0682 56.3211 86.0682C55.0926 86.0682 53.9617 85.1606 52.8424 84.2622C51.8979 83.5041 50.9615 82.7526 49.9817 82.5587C48.9569 82.3559 47.7686 82.7013 46.5864 83.0448C45.2239 83.4408 43.8694 83.8344 42.7826 83.3837C41.6683 82.9217 40.9793 81.6634 40.2927 80.4097C39.7069 79.3398 39.1228 78.2731 38.2777 77.7073M38.2777 77.7073L38.5558 77.2918C38.0146 76.9295 37.3725 76.7313 36.7271 76.6028C36.179 76.4936 35.5941 76.429 35.0351 76.3672C34.9377 76.3564 34.8412 76.3457 34.7457 76.3349C34.0879 76.2605 33.4765 76.1792 32.9379 76.0274C32.4016 75.8762 31.9753 75.6648 31.6659 75.3555M38.2777 77.7073L31.6659 75.3555M31.6659 75.3555C31.3566 75.0461 31.1451 74.6198 30.9939 74.0834C30.842 73.5447 30.7607 72.9332 30.6862 72.2754C30.6754 72.1798 30.6647 72.0831 30.6539 71.9856C30.5921 71.4268 30.5274 70.8419 30.4183 70.294C30.2899 69.6487 30.0917 69.0066 29.7295 68.4655L29.7295 68.4655C29.3692 67.9273 28.8521 67.502 28.3056 67.1393C27.8461 66.8343 27.3358 66.5549 26.8473 66.2875C26.7564 66.2378 26.6664 66.1885 26.5775 66.1395C25.998 65.82 25.4633 65.5108 25.0227 65.1632C24.584 64.8171 24.269 64.456 24.0995 64.0472L24.0995 64.0471C23.9342 63.6486 23.9028 63.1785 23.9692 62.6276C24.0358 62.0744 24.1952 61.48 24.3786 60.8437C24.4039 60.7559 24.4297 60.6672 24.4557 60.5777C24.614 60.0331 24.7801 59.462 24.89 58.9068C25.0183 58.2584 25.0804 57.586 24.9531 56.9426L31.6659 75.3555ZM31.6659 26.0453C31.3566 26.3547 31.1452 26.781 30.9939 27.3174C30.8421 27.856 30.7608 28.4675 30.6864 29.1252C30.6756 29.2207 30.6649 29.3172 30.6541 29.4146C30.5923 29.9736 30.5277 30.5585 30.4185 31.1066C30.29 31.752 30.0918 32.3941 29.7295 32.9353L29.3218 32.6624L29.7295 32.9353C29.3692 33.4735 28.8521 33.8989 28.3056 34.2616C27.8461 34.5665 27.3357 34.8459 26.8472 35.1134C26.7564 35.1631 26.6663 35.2124 26.5775 35.2613C25.998 35.5808 25.4633 35.89 25.0227 36.2376C24.584 36.5837 24.269 36.9448 24.0995 37.3536L24.0995 37.3537C23.9342 37.7522 23.9028 38.2223 23.9692 38.7732C24.0358 39.3264 24.1952 39.9208 24.3786 40.5571C24.4039 40.6449 24.4297 40.7337 24.4557 40.8231C24.614 41.3677 24.7801 41.9388 24.89 42.4941C25.0182 43.1424 25.0804 43.8148 24.9531 44.4582L31.6659 26.0453ZM31.6659 26.0453C31.9752 25.7361 32.4014 25.5247 32.9377 25.3735C33.4762 25.2216 34.0877 25.1404 34.7455 25.0659C34.841 25.0551 34.9375 25.0444 35.0349 25.0336C35.5939 24.9719 36.1789 24.9072 36.727 24.7981C37.3725 24.6696 38.0146 24.4713 38.5558 24.109L38.2829 23.7014L38.5558 24.109C39.094 23.7487 39.5193 23.2316 39.882 22.6851C40.187 22.2256 40.4664 21.7153 40.7338 21.2267C40.7835 21.1359 40.8328 21.0459 40.8818 20.957C41.2013 20.3775 41.5105 19.8428 41.8581 19.4022C42.2042 18.9635 42.5653 18.6485 42.9741 18.479L42.9742 18.479C43.3727 18.3137 43.8428 18.2823 44.3937 18.3487C44.9468 18.4153 45.5413 18.5748 46.1776 18.7581C46.2655 18.7835 46.3544 18.8093 46.444 18.8354C46.9884 18.9937 47.5594 19.1597 48.1145 19.2697C48.7628 19.398 49.4352 19.4603 50.0787 19.3331L50.0787 19.333C50.7087 19.2084 51.2955 18.8946 51.8362 18.5301C52.2853 18.2275 52.7317 17.8691 53.1603 17.525C53.2464 17.4559 53.3317 17.3873 53.4163 17.32C53.933 16.9079 54.4252 16.5327 54.9182 16.2591C55.409 15.9867 55.8694 15.8331 56.3206 15.8331C56.7719 15.8331 57.2323 15.9867 57.7231 16.2591C58.2161 16.5327 58.7083 16.9079 59.2251 17.32C59.3096 17.3873 59.3949 17.4558 59.4809 17.5249C59.9096 17.869 60.3561 18.2275 60.8053 18.5302C61.3461 18.8946 61.933 19.2084 62.5631 19.3331C63.2065 19.4604 63.8789 19.3982 64.5272 19.2699C65.0825 19.1601 65.6536 18.994 66.1982 18.8357C66.2876 18.8097 66.3764 18.7839 66.4642 18.7586C67.1005 18.5752 67.6949 18.4158 68.2481 18.3492C68.799 18.2828 69.2691 18.3142 69.6676 18.4795L69.6677 18.4795C70.0765 18.649 70.4376 18.964 70.7837 19.4027C71.1313 19.8433 71.4405 20.378 71.76 20.9575C71.8089 21.0463 71.8582 21.1364 71.9079 21.2272C72.1754 21.7157 72.4547 22.2261 72.7597 22.6856C73.1224 23.2321 73.5478 23.7492 74.086 24.1095L74.3641 23.694L31.6659 26.0453ZM24.1502 46.216C24.5146 45.6752 24.8284 45.0883 24.9531 44.4583V56.9425C24.8284 56.3126 24.5146 55.7258 24.1502 55.1851C23.8476 54.7361 23.4891 54.2896 23.145 53.861C23.0759 53.7749 23.0074 53.6896 22.94 53.605C22.5279 53.0883 22.1527 52.5961 21.8791 52.1031C21.6067 51.6123 21.4531 51.1519 21.4531 50.7007C21.4531 50.2494 21.6067 49.789 21.8791 49.2982C22.1527 48.8052 22.5279 48.313 22.94 47.7962C23.0073 47.7118 23.0758 47.6265 23.1448 47.5404C23.489 47.1118 23.8475 46.6652 24.1502 46.216Z" fill="#006D8D" stroke="#006D8D"/>
<path d="M76.5263 30.4429C87.7228 41.6394 87.7228 59.7925 76.5263 70.989C65.3298 82.1855 47.1767 82.1855 35.9802 70.989C24.7837 59.7925 24.7837 41.6394 35.9802 30.4429C47.1767 19.2464 65.3298 19.2464 76.5263 30.4429Z" fill="white" stroke="#006D8D"/>
<mask id="path-5-inside-1_2068_42936" fill="white">
<path d="M42.0568 50.462V41.7348H45.108C45.7159 41.7348 46.2173 41.8399 46.6122 42.0501C47.0071 42.2575 47.3011 42.5373 47.4943 42.8896C47.6875 43.239 47.7841 43.6268 47.7841 44.0529C47.7841 44.4279 47.7173 44.7376 47.5838 44.9819C47.4531 45.2262 47.2798 45.4194 47.0639 45.5615C46.8509 45.7035 46.6193 45.8086 46.3693 45.8768V45.962C46.6364 45.9791 46.9048 46.0728 47.1747 46.2433C47.4446 46.4137 47.6705 46.6581 47.8523 46.9762C48.0341 47.2944 48.125 47.6836 48.125 48.1439C48.125 48.5814 48.0256 48.9748 47.8267 49.3243C47.6278 49.6737 47.3139 49.9507 46.8849 50.1552C46.456 50.3598 45.8977 50.462 45.2102 50.462H42.0568ZM43.1136 49.5245H45.2102C45.9006 49.5245 46.3906 49.391 46.6804 49.124C46.973 48.8541 47.1193 48.5274 47.1193 48.1439C47.1193 47.8484 47.044 47.5757 46.8935 47.3257C46.7429 47.0728 46.5284 46.8711 46.25 46.7206C45.9716 46.5671 45.642 46.4904 45.2614 46.4904H43.1136V49.5245ZM43.1136 45.57H45.0739C45.392 45.57 45.679 45.5075 45.9347 45.3825C46.1932 45.2575 46.3977 45.0814 46.5483 44.8541C46.7017 44.6268 46.7784 44.3598 46.7784 44.0529C46.7784 43.6694 46.6449 43.3441 46.3778 43.0771C46.1108 42.8072 45.6875 42.6723 45.108 42.6723H43.1136V45.57ZM49.8615 50.462V41.7348H55.1286V42.6723H50.9183V45.6211H54.8558V46.5586H50.9183V49.5245H55.1967V50.462H49.8615ZM61.8061 43.9166C61.755 43.4848 61.5476 43.1495 61.1839 42.9109C60.8203 42.6723 60.3743 42.5529 59.8459 42.5529C59.4595 42.5529 59.1214 42.6154 58.8317 42.7404C58.5447 42.8654 58.3203 43.0373 58.1584 43.2561C57.9993 43.4748 57.9197 43.7234 57.9197 44.0018C57.9197 44.2348 57.9751 44.435 58.0859 44.6027C58.1996 44.7674 58.3445 44.9052 58.5206 45.016C58.6967 45.124 58.8814 45.2135 59.0746 45.2845C59.2678 45.3527 59.4453 45.4081 59.6072 45.4507L60.4936 45.6893C60.7209 45.749 60.9737 45.8314 61.2521 45.9365C61.5334 46.0416 61.8018 46.185 62.0575 46.3669C62.3161 46.5458 62.5291 46.776 62.6967 47.0572C62.8643 47.3385 62.9482 47.6836 62.9482 48.0927C62.9482 48.5643 62.8246 48.9904 62.5774 49.3711C62.3331 49.7518 61.9751 50.0544 61.5036 50.2788C61.0348 50.5032 60.4652 50.6154 59.7947 50.6154C59.1697 50.6154 58.6286 50.5146 58.1712 50.3129C57.7166 50.1112 57.3587 49.8299 57.0973 49.4691C56.8388 49.1083 56.6925 48.6893 56.6584 48.212H57.7493C57.7777 48.5416 57.8885 48.8143 58.0817 49.0302C58.2777 49.2433 58.5249 49.4024 58.8232 49.5075C59.1243 49.6098 59.4482 49.6609 59.7947 49.6609C60.1982 49.6609 60.5604 49.5956 60.8814 49.4649C61.2024 49.3314 61.4567 49.1467 61.6442 48.9109C61.8317 48.6723 61.9254 48.3939 61.9254 48.0757C61.9254 47.7859 61.8445 47.5501 61.6825 47.3683C61.5206 47.1865 61.3075 47.0387 61.0433 46.9251C60.7791 46.8115 60.4936 46.712 60.1868 46.6268L59.1129 46.32C58.4311 46.124 57.8913 45.8441 57.4936 45.4805C57.0959 45.1169 56.897 44.641 56.897 44.0529C56.897 43.5643 57.0291 43.1382 57.2933 42.7745C57.5604 42.4081 57.9183 42.124 58.3672 41.9223C58.8189 41.7177 59.3232 41.6154 59.88 41.6154C60.4425 41.6154 60.9425 41.7163 61.38 41.918C61.8175 42.1169 62.1641 42.3896 62.4197 42.7362C62.6783 43.0828 62.8146 43.4762 62.8288 43.9166H61.8061ZM64.2085 42.6723V41.7348H70.7539V42.6723H68.0096V50.462H66.9528V42.6723H64.2085Z"/>
</mask>
<path d="M42.0568 50.462V41.7348H45.108C45.7159 41.7348 46.2173 41.8399 46.6122 42.0501C47.0071 42.2575 47.3011 42.5373 47.4943 42.8896C47.6875 43.239 47.7841 43.6268 47.7841 44.0529C47.7841 44.4279 47.7173 44.7376 47.5838 44.9819C47.4531 45.2262 47.2798 45.4194 47.0639 45.5615C46.8509 45.7035 46.6193 45.8086 46.3693 45.8768V45.962C46.6364 45.9791 46.9048 46.0728 47.1747 46.2433C47.4446 46.4137 47.6705 46.6581 47.8523 46.9762C48.0341 47.2944 48.125 47.6836 48.125 48.1439C48.125 48.5814 48.0256 48.9748 47.8267 49.3243C47.6278 49.6737 47.3139 49.9507 46.8849 50.1552C46.456 50.3598 45.8977 50.462 45.2102 50.462H42.0568ZM43.1136 49.5245H45.2102C45.9006 49.5245 46.3906 49.391 46.6804 49.124C46.973 48.8541 47.1193 48.5274 47.1193 48.1439C47.1193 47.8484 47.044 47.5757 46.8935 47.3257C46.7429 47.0728 46.5284 46.8711 46.25 46.7206C45.9716 46.5671 45.642 46.4904 45.2614 46.4904H43.1136V49.5245ZM43.1136 45.57H45.0739C45.392 45.57 45.679 45.5075 45.9347 45.3825C46.1932 45.2575 46.3977 45.0814 46.5483 44.8541C46.7017 44.6268 46.7784 44.3598 46.7784 44.0529C46.7784 43.6694 46.6449 43.3441 46.3778 43.0771C46.1108 42.8072 45.6875 42.6723 45.108 42.6723H43.1136V45.57ZM49.8615 50.462V41.7348H55.1286V42.6723H50.9183V45.6211H54.8558V46.5586H50.9183V49.5245H55.1967V50.462H49.8615ZM61.8061 43.9166C61.755 43.4848 61.5476 43.1495 61.1839 42.9109C60.8203 42.6723 60.3743 42.5529 59.8459 42.5529C59.4595 42.5529 59.1214 42.6154 58.8317 42.7404C58.5447 42.8654 58.3203 43.0373 58.1584 43.2561C57.9993 43.4748 57.9197 43.7234 57.9197 44.0018C57.9197 44.2348 57.9751 44.435 58.0859 44.6027C58.1996 44.7674 58.3445 44.9052 58.5206 45.016C58.6967 45.124 58.8814 45.2135 59.0746 45.2845C59.2678 45.3527 59.4453 45.4081 59.6072 45.4507L60.4936 45.6893C60.7209 45.749 60.9737 45.8314 61.2521 45.9365C61.5334 46.0416 61.8018 46.185 62.0575 46.3669C62.3161 46.5458 62.5291 46.776 62.6967 47.0572C62.8643 47.3385 62.9482 47.6836 62.9482 48.0927C62.9482 48.5643 62.8246 48.9904 62.5774 49.3711C62.3331 49.7518 61.9751 50.0544 61.5036 50.2788C61.0348 50.5032 60.4652 50.6154 59.7947 50.6154C59.1697 50.6154 58.6286 50.5146 58.1712 50.3129C57.7166 50.1112 57.3587 49.8299 57.0973 49.4691C56.8388 49.1083 56.6925 48.6893 56.6584 48.212H57.7493C57.7777 48.5416 57.8885 48.8143 58.0817 49.0302C58.2777 49.2433 58.5249 49.4024 58.8232 49.5075C59.1243 49.6098 59.4482 49.6609 59.7947 49.6609C60.1982 49.6609 60.5604 49.5956 60.8814 49.4649C61.2024 49.3314 61.4567 49.1467 61.6442 48.9109C61.8317 48.6723 61.9254 48.3939 61.9254 48.0757C61.9254 47.7859 61.8445 47.5501 61.6825 47.3683C61.5206 47.1865 61.3075 47.0387 61.0433 46.9251C60.7791 46.8115 60.4936 46.712 60.1868 46.6268L59.1129 46.32C58.4311 46.124 57.8913 45.8441 57.4936 45.4805C57.0959 45.1169 56.897 44.641 56.897 44.0529C56.897 43.5643 57.0291 43.1382 57.2933 42.7745C57.5604 42.4081 57.9183 42.124 58.3672 41.9223C58.8189 41.7177 59.3232 41.6154 59.88 41.6154C60.4425 41.6154 60.9425 41.7163 61.38 41.918C61.8175 42.1169 62.1641 42.3896 62.4197 42.7362C62.6783 43.0828 62.8146 43.4762 62.8288 43.9166H61.8061ZM64.2085 42.6723V41.7348H70.7539V42.6723H68.0096V50.462H66.9528V42.6723H64.2085Z" fill="#006D8D"/>
<path d="M42.0568 50.462H41.0568V51.462H42.0568V50.462ZM42.0568 41.7348V40.7348H41.0568V41.7348H42.0568ZM46.6122 42.0501L46.1423 42.9328L46.1473 42.9354L46.6122 42.0501ZM47.4943 42.8896L46.6175 43.3704L46.6192 43.3734L47.4943 42.8896ZM47.5838 44.9819L46.7063 44.5023L46.702 44.5103L47.5838 44.9819ZM47.0639 45.5615L46.5143 44.726L46.5092 44.7294L47.0639 45.5615ZM46.3693 45.8768L46.1062 44.912L45.3693 45.113V45.8768H46.3693ZM46.3693 45.962H45.3693V46.9002L46.3056 46.96L46.3693 45.962ZM47.1747 46.2433L46.6407 47.0888L46.6407 47.0888L47.1747 46.2433ZM47.8267 49.3243L48.6958 49.8189L47.8267 49.3243ZM46.8849 50.1552L46.4545 49.2526H46.4545L46.8849 50.1552ZM43.1136 49.5245H42.1136V50.5245H43.1136V49.5245ZM46.6804 49.124L47.3581 49.8593L47.3584 49.859L46.6804 49.124ZM46.8935 47.3257L46.0343 47.8373L46.0368 47.8416L46.8935 47.3257ZM46.25 46.7206L45.7674 47.5964L45.7743 47.6002L46.25 46.7206ZM43.1136 46.4904V45.4904H42.1136V46.4904H43.1136ZM43.1136 45.57H42.1136V46.57H43.1136V45.57ZM45.9347 45.3825L45.4994 44.4822L45.4954 44.4841L45.9347 45.3825ZM46.5483 44.8541L45.7194 44.2946L45.7146 44.3018L46.5483 44.8541ZM46.3778 43.0771L45.667 43.7805L45.6707 43.7842L46.3778 43.0771ZM43.1136 42.6723V41.6723H42.1136V42.6723H43.1136ZM43.0568 50.462V41.7348H41.0568V50.462H43.0568ZM42.0568 42.7348H45.108V40.7348H42.0568V42.7348ZM45.108 42.7348C45.6082 42.7348 45.9346 42.8222 46.1423 42.9328L47.0821 41.1674C46.5001 40.8575 45.8237 40.7348 45.108 40.7348V42.7348ZM46.1473 42.9354C46.388 43.0619 46.5291 43.2093 46.6175 43.3704L48.3711 42.4088C48.0732 41.8654 47.6262 41.4531 47.0772 41.1648L46.1473 42.9354ZM46.6192 43.3734C46.725 43.5648 46.7841 43.7843 46.7841 44.0529H48.7841C48.7841 43.4693 48.65 42.9133 48.3695 42.4058L46.6192 43.3734ZM46.7841 44.0529C46.7841 44.3161 46.7364 44.4473 46.7063 44.5024L48.4613 45.4615C48.6983 45.0279 48.7841 44.5398 48.7841 44.0529H46.7841ZM46.702 44.5103C46.6442 44.6184 46.5809 44.6822 46.5143 44.7261L47.6135 46.3969C47.9788 46.1566 48.2621 45.834 48.4656 45.4536L46.702 44.5103ZM46.5092 44.7294C46.3867 44.8111 46.2538 44.8718 46.1062 44.912L46.6324 46.8416C46.9849 46.7455 47.315 46.5959 47.6186 46.3935L46.5092 44.7294ZM45.3693 45.8768V45.962H47.3693V45.8768H45.3693ZM46.3056 46.96C46.3762 46.9645 46.4851 46.9905 46.6407 47.0888L47.7087 45.3978C47.3245 45.1552 46.8966 44.9937 46.433 44.9641L46.3056 46.96ZM46.6407 47.0888C46.753 47.1597 46.8713 47.275 46.984 47.4724L48.7205 46.4801C48.4696 46.0411 48.1362 45.6678 47.7087 45.3978L46.6407 47.0888ZM46.984 47.4724C47.0601 47.6054 47.125 47.8138 47.125 48.1439H49.125C49.125 47.5535 49.0081 46.9834 48.7205 46.4801L46.984 47.4724ZM47.125 48.1439C47.125 48.4237 47.0632 48.644 46.9576 48.8296L48.6958 49.8189C48.9879 49.3056 49.125 48.7391 49.125 48.1439H47.125ZM46.9576 48.8296C46.8772 48.9709 46.7334 49.1196 46.4545 49.2526L47.3153 51.0579C47.8944 50.7817 48.3785 50.3764 48.6958 49.8189L46.9576 48.8296ZM46.4545 49.2526C46.2063 49.371 45.8103 49.462 45.2102 49.462V51.462C45.9851 51.462 46.7057 51.3486 47.3153 51.0579L46.4545 49.2526ZM45.2102 49.462H42.0568V51.462H45.2102V49.462ZM43.1136 50.5245H45.2102V48.5245H43.1136V50.5245ZM45.2102 50.5245C45.9791 50.5245 46.7872 50.3854 47.3581 49.8593L46.0027 48.3886C46.0048 48.3867 45.9663 48.4231 45.8326 48.4596C45.6977 48.4963 45.4961 48.5245 45.2102 48.5245V50.5245ZM47.3584 49.859C47.8475 49.408 48.1193 48.8184 48.1193 48.1439H46.1193C46.1193 48.2364 46.0986 48.3002 46.0024 48.3889L47.3584 49.859ZM48.1193 48.1439C48.1193 47.669 47.9957 47.2175 47.7501 46.8097L46.0368 47.8416C46.0924 47.9338 46.1193 48.0278 46.1193 48.1439H48.1193ZM47.7527 46.814C47.5028 46.3945 47.1504 46.0706 46.7257 45.841L45.7743 47.6002C45.9065 47.6716 45.983 47.7512 46.0343 47.8373L47.7527 46.814ZM46.7326 45.8447C46.2798 45.5952 45.7775 45.4904 45.2614 45.4904V47.4904C45.5065 47.4904 45.6634 47.5391 45.7674 47.5964L46.7326 45.8447ZM45.2614 45.4904H43.1136V47.4904H45.2614V45.4904ZM42.1136 46.4904V49.5245H44.1136V46.4904H42.1136ZM43.1136 46.57H45.0739V44.57H43.1136V46.57ZM45.0739 46.57C45.5261 46.57 45.966 46.4803 46.3739 46.2809L45.4954 44.4841C45.3919 44.5347 45.2579 44.57 45.0739 44.57V46.57ZM46.37 46.2828C46.7811 46.084 47.1269 45.7914 47.3819 45.4064L45.7146 44.3018C45.6686 44.3713 45.6052 44.431 45.4994 44.4822L46.37 46.2828ZM47.3771 45.4136C47.6551 45.0017 47.7784 44.5345 47.7784 44.0529H45.7784C45.7784 44.185 45.7483 44.2519 45.7194 44.2946L47.3771 45.4136ZM47.7784 44.0529C47.7784 43.4088 47.5428 42.8278 47.0849 42.37L45.6707 43.7842C45.747 43.8605 45.7784 43.93 45.7784 44.0529H47.7784ZM47.0887 42.3737C46.5549 41.8343 45.8164 41.6723 45.108 41.6723V43.6723C45.5586 43.6723 45.6667 43.7801 45.667 43.7804L47.0887 42.3737ZM45.108 41.6723H43.1136V43.6723H45.108V41.6723ZM42.1136 42.6723V45.57H44.1136V42.6723H42.1136ZM49.8615 50.462H48.8615V51.462H49.8615V50.462ZM49.8615 41.7348V40.7348H48.8615V41.7348H49.8615ZM55.1286 41.7348H56.1286V40.7348H55.1286V41.7348ZM55.1286 42.6723V43.6723H56.1286V42.6723H55.1286ZM50.9183 42.6723V41.6723H49.9183V42.6723H50.9183ZM50.9183 45.6211H49.9183V46.6211H50.9183V45.6211ZM54.8558 45.6211H55.8558V44.6211H54.8558V45.6211ZM54.8558 46.5586V47.5586H55.8558V46.5586H54.8558ZM50.9183 46.5586V45.5586H49.9183V46.5586H50.9183ZM50.9183 49.5245H49.9183V50.5245H50.9183V49.5245ZM55.1967 49.5245H56.1967V48.5245H55.1967V49.5245ZM55.1967 50.462V51.462H56.1967V50.462H55.1967ZM50.8615 50.462V41.7348H48.8615V50.462H50.8615ZM49.8615 42.7348H55.1286V40.7348H49.8615V42.7348ZM54.1286 41.7348V42.6723H56.1286V41.7348H54.1286ZM55.1286 41.6723H50.9183V43.6723H55.1286V41.6723ZM49.9183 42.6723V45.6211H51.9183V42.6723H49.9183ZM50.9183 46.6211H54.8558V44.6211H50.9183V46.6211ZM53.8558 45.6211V46.5586H55.8558V45.6211H53.8558ZM54.8558 45.5586H50.9183V47.5586H54.8558V45.5586ZM49.9183 46.5586V49.5245H51.9183V46.5586H49.9183ZM50.9183 50.5245H55.1967V48.5245H50.9183V50.5245ZM54.1967 49.5245V50.462H56.1967V49.5245H54.1967ZM55.1967 49.462H49.8615V51.462H55.1967V49.462ZM61.8061 43.9166L60.813 44.0342L60.9175 44.9166H61.8061V43.9166ZM61.1839 42.9109L60.6353 43.7469L61.1839 42.9109ZM58.8317 42.7404L58.4356 41.8222L58.4323 41.8237L58.8317 42.7404ZM58.1584 43.2561L57.3546 42.6611L57.3496 42.6679L58.1584 43.2561ZM58.0859 44.6027L57.2517 45.1541L57.2571 45.1623L57.2627 45.1704L58.0859 44.6027ZM58.5206 45.016L57.9881 45.8625L57.998 45.8686L58.5206 45.016ZM59.0746 45.2845L58.7295 46.2231L58.7418 46.2275L59.0746 45.2845ZM59.6072 45.4507L59.8672 44.485L59.8617 44.4836L59.6072 45.4507ZM60.4936 45.6893L60.2336 46.6549L60.2397 46.6565L60.4936 45.6893ZM61.2521 45.9365L60.8989 46.872L60.902 46.8732L61.2521 45.9365ZM62.0575 46.3669L61.478 47.1819L61.4883 47.1891L62.0575 46.3669ZM62.6967 47.0572L63.5558 46.5453V46.5453L62.6967 47.0572ZM62.5774 49.3711L61.7387 48.8266L61.7358 48.831L62.5774 49.3711ZM61.5036 50.2788L61.0738 49.3758L61.0717 49.3768L61.5036 50.2788ZM58.1712 50.3129L57.7656 51.2269L57.7677 51.2279L58.1712 50.3129ZM57.0973 49.4691L56.2844 50.0516L56.2875 50.0558L57.0973 49.4691ZM56.6584 48.212V47.212H55.5844L55.6609 48.2833L56.6584 48.212ZM57.7493 48.212L58.7456 48.1261L58.6668 47.212H57.7493V48.212ZM58.0817 49.0302L57.3364 49.6971L57.3457 49.7073L58.0817 49.0302ZM58.8232 49.5075L58.4908 50.4507L58.5016 50.4544L58.8232 49.5075ZM60.8814 49.4649L61.2584 50.3911L61.2654 50.3882L60.8814 49.4649ZM61.6442 48.9109L62.4269 49.5333L62.4305 49.5287L61.6442 48.9109ZM61.6825 47.3683L62.4293 46.7032L61.6825 47.3683ZM61.0433 46.9251L60.6482 47.8437L61.0433 46.9251ZM60.1868 46.6268L59.9121 47.5884L59.9191 47.5903L60.1868 46.6268ZM59.1129 46.32L58.8366 47.2811L58.8382 47.2815L59.1129 46.32ZM57.4936 45.4805L56.8188 46.2185L56.8188 46.2185L57.4936 45.4805ZM57.2933 42.7745L56.4851 42.1856L56.4843 42.1867L57.2933 42.7745ZM58.3672 41.9223L58.7771 42.8344L58.7797 42.8332L58.3672 41.9223ZM61.38 41.918L60.9613 42.8261L60.9662 42.8284L61.38 41.918ZM62.4197 42.7362L61.615 43.3298L61.6182 43.3341L62.4197 42.7362ZM62.8288 43.9166V44.9166H63.8616L63.8283 43.8843L62.8288 43.9166ZM62.7992 43.799C62.7133 43.0737 62.3432 42.4755 61.7326 42.0749L60.6353 43.7469C60.752 43.8235 60.7967 43.8958 60.813 44.0342L62.7992 43.799ZM61.7326 42.0749C61.1739 41.7082 60.527 41.5529 59.8459 41.5529V43.5529C60.2216 43.5529 60.4667 43.6363 60.6353 43.7469L61.7326 42.0749ZM59.8459 41.5529C59.3531 41.5529 58.8752 41.6326 58.4356 41.8222L59.2278 43.6587C59.3677 43.5983 59.566 43.5529 59.8459 43.5529V41.5529ZM58.4323 41.8237C58.0091 42.008 57.6356 42.2815 57.3546 42.6611L58.9621 43.851C59.005 43.7931 59.0804 43.7229 59.2311 43.6572L58.4323 41.8237ZM57.3496 42.6679C57.0624 43.0629 56.9197 43.5187 56.9197 44.0018H58.9197C58.9197 43.9281 58.9362 43.8868 58.9671 43.8442L57.3496 42.6679ZM56.9197 44.0018C56.9197 44.3988 57.0164 44.7981 57.2517 45.1541L58.9202 44.0512C58.9246 44.058 58.9258 44.0626 58.9251 44.0602C58.9241 44.0566 58.9197 44.0389 58.9197 44.0018H56.9197ZM57.2627 45.1704C57.4564 45.4513 57.7018 45.6824 57.9881 45.8625L59.053 44.1696C58.9871 44.1281 58.9427 44.0836 58.9091 44.0349L57.2627 45.1704ZM57.998 45.8686C58.2302 46.0109 58.4742 46.1292 58.7295 46.2231L59.4196 44.3459C59.2885 44.2977 59.1633 44.2371 59.0432 44.1634L57.998 45.8686ZM58.7418 46.2275C58.9553 46.3028 59.1593 46.3668 59.3528 46.4177L59.8617 44.4836C59.7313 44.4493 59.5803 44.4025 59.4074 44.3415L58.7418 46.2275ZM59.3473 46.4163L60.2336 46.6549L60.7536 44.7237L59.8672 44.4851L59.3473 46.4163ZM60.2397 46.6565C60.4259 46.7054 60.6449 46.7761 60.8989 46.872L61.6053 45.0009C61.3025 44.8866 61.0159 44.7925 60.7475 44.7221L60.2397 46.6565ZM60.902 46.8732C61.0983 46.9465 61.29 47.0481 61.478 47.1818L62.6371 45.5519C62.3137 45.322 61.9685 45.1366 61.6022 44.9998L60.902 46.8732ZM61.4883 47.1891C61.6243 47.2832 61.7403 47.4057 61.8377 47.5691L63.5558 46.5453C63.318 46.1462 63.0078 45.8085 62.6267 45.5447L61.4883 47.1891ZM61.8377 47.5691C61.8926 47.6613 61.9482 47.8193 61.9482 48.0927H63.9482C63.9482 47.548 63.8361 47.0156 63.5558 46.5453L61.8377 47.5691ZM61.9482 48.0927C61.9482 48.379 61.8763 48.6146 61.7387 48.8266L63.4161 49.9157C63.7728 49.3663 63.9482 48.7496 63.9482 48.0927H61.9482ZM61.7358 48.831C61.6071 49.0317 61.4035 49.2189 61.0738 49.3758L61.9333 51.1818C62.5468 50.8898 63.0591 50.472 63.419 49.9113L61.7358 48.831ZM61.0717 49.3768C60.771 49.5208 60.3575 49.6154 59.7947 49.6154V51.6154C60.5729 51.6154 61.2986 51.4856 61.9354 51.1807L61.0717 49.3768ZM59.7947 49.6154C59.275 49.6154 58.8773 49.5314 58.5747 49.3979L57.7677 51.2279C58.3798 51.4978 59.0645 51.6154 59.7947 51.6154V49.6154ZM58.5768 49.3988C58.2643 49.2602 58.0533 49.0843 57.9071 48.8825L56.2875 50.0558C56.664 50.5756 57.1689 50.9622 57.7656 51.2269L58.5768 49.3988ZM57.9102 48.8867C57.7676 48.6877 57.6778 48.4488 57.6558 48.1408L55.6609 48.2833C55.7071 48.9298 55.91 49.529 56.2844 50.0516L57.9102 48.8867ZM56.6584 49.212H57.7493V47.212H56.6584V49.212ZM56.753 48.2979C56.7972 48.8113 56.9789 49.2974 57.3364 49.697L58.8269 48.3634C58.7981 48.3312 58.7582 48.2719 58.7456 48.1261L56.753 48.2979ZM57.3457 49.7073C57.6625 50.0516 58.0528 50.2963 58.4908 50.4506L59.1555 48.5643C58.9969 48.5084 58.8929 48.435 58.8176 48.3532L57.3457 49.7073ZM58.5016 50.4544C58.9152 50.5948 59.3486 50.6609 59.7947 50.6609V48.6609C59.5477 48.6609 59.3334 48.6247 59.1447 48.5606L58.5016 50.4544ZM59.7947 50.6609C60.3065 50.6609 60.7997 50.5778 61.2584 50.3911L60.5044 48.5387C60.321 48.6133 60.0898 48.6609 59.7947 48.6609V50.6609ZM61.2654 50.3882C61.7184 50.1998 62.1188 49.9207 62.4269 49.5333L60.8615 48.2885C60.7945 48.3727 60.6865 48.4629 60.4974 48.5416L61.2654 50.3882ZM62.4305 49.5287C62.7635 49.1049 62.9254 48.6062 62.9254 48.0757H60.9254C60.9254 48.1815 60.8999 48.2396 60.8579 48.2931L62.4305 49.5287ZM62.9254 48.0757C62.9254 47.5898 62.7843 47.1018 62.4293 46.7032L60.9358 48.0334C60.932 48.0292 60.928 48.0237 60.9244 48.0175C60.9208 48.0114 60.9192 48.0072 60.9189 48.0063C60.9182 48.0042 60.9254 48.0237 60.9254 48.0757H62.9254ZM62.4293 46.7032C62.154 46.3941 61.8129 46.1675 61.4384 46.0065L60.6482 47.8437C60.8022 47.91 60.8872 47.9788 60.9358 48.0334L62.4293 46.7032ZM61.4384 46.0065C61.1287 45.8732 60.8002 45.7593 60.4544 45.6633L59.9191 47.5903C60.1871 47.6647 60.4296 47.7497 60.6482 47.8437L61.4384 46.0065ZM60.4615 45.6653L59.3876 45.3585L58.8382 47.2815L59.9121 47.5883L60.4615 45.6653ZM59.3892 45.3589C58.8106 45.1926 58.4221 44.9745 58.1684 44.7425L56.8188 46.2185C57.3606 46.7138 58.0516 47.0554 58.8366 47.2811L59.3892 45.3589ZM58.1684 44.7425C57.9981 44.5868 57.897 44.3889 57.897 44.0529H55.897C55.897 44.8932 56.1937 45.647 56.8188 46.2185L58.1684 44.7425ZM57.897 44.0529C57.897 43.7561 57.9732 43.5401 58.1023 43.3623L56.4843 42.1867C56.085 42.7363 55.897 43.3725 55.897 44.0529H57.897ZM58.1015 43.3635C58.2575 43.1494 58.4729 42.9711 58.7771 42.8344L57.9573 41.0101C57.3638 41.2768 56.8632 41.6668 56.4851 42.1856L58.1015 43.3635ZM58.7797 42.8332C59.0867 42.6942 59.4479 42.6154 59.88 42.6154V40.6154C59.1984 40.6154 58.5511 40.7412 57.9547 41.0113L58.7797 42.8332ZM59.88 42.6154C60.322 42.6154 60.6753 42.6943 60.9613 42.8261L61.7987 41.0099C61.2097 40.7383 60.563 40.6154 59.88 40.6154V42.6154ZM60.9662 42.8284C61.2668 42.965 61.4718 43.1357 61.615 43.3298L63.2245 42.1425C62.8563 41.6434 62.3681 41.2687 61.7938 41.0076L60.9662 42.8284ZM61.6182 43.3341C61.752 43.5135 61.8216 43.7087 61.8294 43.9488L63.8283 43.8843C63.8077 43.2438 63.6045 42.652 63.2213 42.1383L61.6182 43.3341ZM62.8288 42.9166H61.8061V44.9166H62.8288V42.9166ZM64.2085 42.6723H63.2085V43.6723H64.2085V42.6723ZM64.2085 41.7348V40.7348H63.2085V41.7348H64.2085ZM70.7539 41.7348H71.7539V40.7348H70.7539V41.7348ZM70.7539 42.6723V43.6723H71.7539V42.6723H70.7539ZM68.0096 42.6723V41.6723H67.0096V42.6723H68.0096ZM68.0096 50.462V51.462H69.0096V50.462H68.0096ZM66.9528 50.462H65.9528V51.462H66.9528V50.462ZM66.9528 42.6723H67.9528V41.6723H66.9528V42.6723ZM65.2085 42.6723V41.7348H63.2085V42.6723H65.2085ZM64.2085 42.7348H70.7539V40.7348H64.2085V42.7348ZM69.7539 41.7348V42.6723H71.7539V41.7348H69.7539ZM70.7539 41.6723H68.0096V43.6723H70.7539V41.6723ZM67.0096 42.6723V50.462H69.0096V42.6723H67.0096ZM68.0096 49.462H66.9528V51.462H68.0096V49.462ZM67.9528 50.462V42.6723H65.9528V50.462H67.9528ZM66.9528 41.6723H64.2085V43.6723H66.9528V41.6723Z" fill="#006D8D" mask="url(#path-5-inside-1_2068_42936)"/>
<mask id="path-7-inside-2_2068_42936" fill="white">
<path d="M40.0568 65.462V56.7348H43.0057C43.6903 56.7348 44.25 56.8583 44.6847 57.1055C45.1222 57.3498 45.446 57.6808 45.6562 58.0984C45.8665 58.516 45.9716 58.9819 45.9716 59.4961C45.9716 60.0103 45.8665 60.4777 45.6562 60.8981C45.4489 61.3186 45.1278 61.6538 44.6932 61.9038C44.2585 62.151 43.7017 62.2745 43.0227 62.2745H40.9091V61.337H42.9886C43.4574 61.337 43.8338 61.2561 44.1179 61.0941C44.402 60.9322 44.608 60.7135 44.7358 60.4379C44.8665 60.1595 44.9318 59.8456 44.9318 59.4961C44.9318 59.1467 44.8665 58.8342 44.7358 58.5586C44.608 58.2831 44.4006 58.0671 44.1136 57.9109C43.8267 57.7518 43.446 57.6723 42.9716 57.6723H41.1136V65.462H40.0568ZM47.674 65.462V56.7348H50.6229C51.3047 56.7348 51.8643 56.8512 52.3018 57.0842C52.7393 57.3143 53.0632 57.6311 53.2734 58.0345C53.4837 58.4379 53.5888 58.8967 53.5888 59.4109C53.5888 59.9251 53.4837 60.3811 53.2734 60.7788C53.0632 61.1765 52.7408 61.489 52.3061 61.7163C51.8714 61.9407 51.3161 62.0529 50.6399 62.0529H48.2536V61.0984H50.6058C51.0717 61.0984 51.4467 61.0302 51.7308 60.8939C52.0178 60.7575 52.2251 60.5643 52.353 60.3143C52.4837 60.0615 52.549 59.7603 52.549 59.4109C52.549 59.0615 52.4837 58.7561 52.353 58.4947C52.2223 58.2333 52.0135 58.0316 51.7266 57.8896C51.4396 57.7447 51.0604 57.6723 50.5888 57.6723H48.7308V65.462H47.674ZM51.782 61.5416L53.9297 65.462H52.7024L50.5888 61.5416H51.782ZM56.4066 56.7348V65.462H55.3498V56.7348H56.4066ZM65.5483 59.462H64.4915C64.429 59.1581 64.3196 58.891 64.1634 58.6609C64.0099 58.4308 63.8224 58.2376 63.6009 58.0814C63.3821 57.9223 63.1392 57.8029 62.8722 57.7234C62.6051 57.6439 62.3267 57.6041 62.0369 57.6041C61.5085 57.6041 61.0298 57.7376 60.6009 58.0046C60.1747 58.2717 59.8352 58.6652 59.5824 59.185C59.3324 59.7049 59.2074 60.3427 59.2074 61.0984C59.2074 61.8541 59.3324 62.4919 59.5824 63.0118C59.8352 63.5316 60.1747 63.9251 60.6009 64.1921C61.0298 64.4592 61.5085 64.5927 62.0369 64.5927C62.3267 64.5927 62.6051 64.5529 62.8722 64.4734C63.1392 64.3939 63.3821 64.276 63.6009 64.1197C63.8224 63.9606 64.0099 63.766 64.1634 63.5359C64.3196 63.3029 64.429 63.0359 64.4915 62.7348H65.5483C65.4688 63.1808 65.3239 63.5799 65.1136 63.9322C64.9034 64.2845 64.642 64.5842 64.3295 64.8314C64.017 65.0757 63.6662 65.2618 63.277 65.3896C62.8906 65.5174 62.4773 65.5814 62.0369 65.5814C61.2926 65.5814 60.6307 65.3995 60.0511 65.0359C59.4716 64.6723 59.0156 64.1552 58.6832 63.4848C58.3509 62.8143 58.1847 62.0189 58.1847 61.0984C58.1847 60.1779 58.3509 59.3825 58.6832 58.712C59.0156 58.0416 59.4716 57.5245 60.0511 57.1609C60.6307 56.7973 61.2926 56.6154 62.0369 56.6154C62.4773 56.6154 62.8906 56.6794 63.277 56.8072C63.6662 56.935 64.017 57.1225 64.3295 57.3697C64.642 57.614 64.9034 57.9123 65.1136 58.2646C65.3239 58.614 65.4688 59.0132 65.5483 59.462ZM67.256 65.462V56.7348H72.5231V57.6723H68.3129V60.6211H72.2504V61.5586H68.3129V64.5245H72.5913V65.462H67.256Z"/>
</mask>
<path d="M40.0568 65.462V56.7348H43.0057C43.6903 56.7348 44.25 56.8583 44.6847 57.1055C45.1222 57.3498 45.446 57.6808 45.6562 58.0984C45.8665 58.516 45.9716 58.9819 45.9716 59.4961C45.9716 60.0103 45.8665 60.4777 45.6562 60.8981C45.4489 61.3186 45.1278 61.6538 44.6932 61.9038C44.2585 62.151 43.7017 62.2745 43.0227 62.2745H40.9091V61.337H42.9886C43.4574 61.337 43.8338 61.2561 44.1179 61.0941C44.402 60.9322 44.608 60.7135 44.7358 60.4379C44.8665 60.1595 44.9318 59.8456 44.9318 59.4961C44.9318 59.1467 44.8665 58.8342 44.7358 58.5586C44.608 58.2831 44.4006 58.0671 44.1136 57.9109C43.8267 57.7518 43.446 57.6723 42.9716 57.6723H41.1136V65.462H40.0568ZM47.674 65.462V56.7348H50.6229C51.3047 56.7348 51.8643 56.8512 52.3018 57.0842C52.7393 57.3143 53.0632 57.6311 53.2734 58.0345C53.4837 58.4379 53.5888 58.8967 53.5888 59.4109C53.5888 59.9251 53.4837 60.3811 53.2734 60.7788C53.0632 61.1765 52.7408 61.489 52.3061 61.7163C51.8714 61.9407 51.3161 62.0529 50.6399 62.0529H48.2536V61.0984H50.6058C51.0717 61.0984 51.4467 61.0302 51.7308 60.8939C52.0178 60.7575 52.2251 60.5643 52.353 60.3143C52.4837 60.0615 52.549 59.7603 52.549 59.4109C52.549 59.0615 52.4837 58.7561 52.353 58.4947C52.2223 58.2333 52.0135 58.0316 51.7266 57.8896C51.4396 57.7447 51.0604 57.6723 50.5888 57.6723H48.7308V65.462H47.674ZM51.782 61.5416L53.9297 65.462H52.7024L50.5888 61.5416H51.782ZM56.4066 56.7348V65.462H55.3498V56.7348H56.4066ZM65.5483 59.462H64.4915C64.429 59.1581 64.3196 58.891 64.1634 58.6609C64.0099 58.4308 63.8224 58.2376 63.6009 58.0814C63.3821 57.9223 63.1392 57.8029 62.8722 57.7234C62.6051 57.6439 62.3267 57.6041 62.0369 57.6041C61.5085 57.6041 61.0298 57.7376 60.6009 58.0046C60.1747 58.2717 59.8352 58.6652 59.5824 59.185C59.3324 59.7049 59.2074 60.3427 59.2074 61.0984C59.2074 61.8541 59.3324 62.4919 59.5824 63.0118C59.8352 63.5316 60.1747 63.9251 60.6009 64.1921C61.0298 64.4592 61.5085 64.5927 62.0369 64.5927C62.3267 64.5927 62.6051 64.5529 62.8722 64.4734C63.1392 64.3939 63.3821 64.276 63.6009 64.1197C63.8224 63.9606 64.0099 63.766 64.1634 63.5359C64.3196 63.3029 64.429 63.0359 64.4915 62.7348H65.5483C65.4688 63.1808 65.3239 63.5799 65.1136 63.9322C64.9034 64.2845 64.642 64.5842 64.3295 64.8314C64.017 65.0757 63.6662 65.2618 63.277 65.3896C62.8906 65.5174 62.4773 65.5814 62.0369 65.5814C61.2926 65.5814 60.6307 65.3995 60.0511 65.0359C59.4716 64.6723 59.0156 64.1552 58.6832 63.4848C58.3509 62.8143 58.1847 62.0189 58.1847 61.0984C58.1847 60.1779 58.3509 59.3825 58.6832 58.712C59.0156 58.0416 59.4716 57.5245 60.0511 57.1609C60.6307 56.7973 61.2926 56.6154 62.0369 56.6154C62.4773 56.6154 62.8906 56.6794 63.277 56.8072C63.6662 56.935 64.017 57.1225 64.3295 57.3697C64.642 57.614 64.9034 57.9123 65.1136 58.2646C65.3239 58.614 65.4688 59.0132 65.5483 59.462ZM67.256 65.462V56.7348H72.5231V57.6723H68.3129V60.6211H72.2504V61.5586H68.3129V64.5245H72.5913V65.462H67.256Z" fill="#006D8D"/>
<path d="M40.0568 65.462H39.0568V66.462H40.0568V65.462ZM40.0568 56.7348V55.7348H39.0568V56.7348H40.0568ZM44.6847 57.1055L44.1903 57.9748L44.1971 57.9786L44.6847 57.1055ZM45.6562 58.0984L44.763 58.548L44.763 58.548L45.6562 58.0984ZM45.6562 60.8981L44.7618 60.4509L44.7594 60.4558L45.6562 60.8981ZM44.6932 61.9038L45.1875 62.7731L45.1918 62.7706L44.6932 61.9038ZM40.9091 62.2745H39.9091V63.2745H40.9091V62.2745ZM40.9091 61.337V60.337H39.9091V61.337H40.9091ZM44.1179 61.0941L43.6227 60.2254H43.6227L44.1179 61.0941ZM44.7358 60.4379L43.8305 60.013L43.8287 60.0171L44.7358 60.4379ZM44.7358 58.5586L43.8286 58.9795L43.8322 58.9871L44.7358 58.5586ZM44.1136 57.9109L43.6287 58.7855L43.6354 58.7891L44.1136 57.9109ZM41.1136 57.6723V56.6723H40.1136V57.6723H41.1136ZM41.1136 65.462V66.462H42.1136V65.462H41.1136ZM41.0568 65.462V56.7348H39.0568V65.462H41.0568ZM40.0568 57.7348H43.0057V55.7348H40.0568V57.7348ZM43.0057 57.7348C43.5782 57.7348 43.9519 57.8392 44.1904 57.9748L45.179 56.2362C44.5481 55.8775 43.8024 55.7348 43.0057 55.7348V57.7348ZM44.1971 57.9786C44.4733 58.1328 44.6492 58.3219 44.763 58.548L46.5495 57.6488C46.2428 57.0396 45.7711 56.5668 45.1722 56.2324L44.1971 57.9786ZM44.763 58.548C44.8963 58.8127 44.9716 59.1222 44.9716 59.4961H46.9716C46.9716 58.8416 46.8367 58.2193 46.5495 57.6488L44.763 58.548ZM44.9716 59.4961C44.9716 59.8699 44.8963 60.182 44.7618 60.4509L46.5507 61.3453C46.8367 60.7733 46.9716 60.1508 46.9716 59.4961H44.9716ZM44.7594 60.4558C44.6459 60.6858 44.4699 60.8786 44.1946 61.037L45.1918 62.7706C45.7858 62.429 46.2518 61.9513 46.5531 61.3405L44.7594 60.4558ZM44.1989 61.0345C43.9593 61.1707 43.5879 61.2745 43.0227 61.2745V63.2745C43.8155 63.2745 44.5577 63.1312 45.1875 62.7731L44.1989 61.0345ZM43.0227 61.2745H40.9091V63.2745H43.0227V61.2745ZM41.9091 62.2745V61.337H39.9091V62.2745H41.9091ZM40.9091 62.337H42.9886V60.337H40.9091V62.337ZM42.9886 62.337C43.5602 62.337 44.1267 62.2402 44.6131 61.9629L43.6227 60.2254C43.5409 60.272 43.3546 60.337 42.9886 60.337V62.337ZM44.6131 61.9629C45.0631 61.7064 45.4209 61.3374 45.6429 60.8587L43.8287 60.0171C43.7951 60.0895 43.7408 60.158 43.6227 60.2254L44.6131 61.9629ZM45.641 60.8628C45.8421 60.4344 45.9318 59.9724 45.9318 59.4961H43.9318C43.9318 59.7187 43.8908 59.8845 43.8306 60.013L45.641 60.8628ZM45.9318 59.4961C45.9318 59.0201 45.8422 58.5579 45.6393 58.1301L43.8322 58.9871C43.8908 59.1105 43.9318 59.2733 43.9318 59.4961H45.9318ZM45.6429 58.1378C45.4179 57.6527 45.052 57.2833 44.5919 57.0327L43.6354 58.7891C43.7491 58.851 43.798 58.9134 43.8287 58.9795L45.6429 58.1378ZM44.5985 57.0363C44.1117 56.7664 43.5449 56.6723 42.9716 56.6723V58.6723C43.3472 58.6723 43.5418 58.7372 43.6287 58.7855L44.5985 57.0363ZM42.9716 56.6723H41.1136V58.6723H42.9716V56.6723ZM40.1136 57.6723V65.462H42.1136V57.6723H40.1136ZM41.1136 64.462H40.0568V66.462H41.1136V64.462ZM47.674 65.462H46.674V66.462H47.674V65.462ZM47.674 56.7348V55.7348H46.674V56.7348H47.674ZM52.3018 57.0842L51.8318 57.9669L51.8363 57.9692L52.3018 57.0842ZM53.2734 58.0345L52.3866 58.4966V58.4966L53.2734 58.0345ZM53.2734 60.7788L52.3893 60.3115V60.3115L53.2734 60.7788ZM52.3061 61.7163L52.7649 62.6049L52.7695 62.6025L52.3061 61.7163ZM48.2536 62.0529H47.2536V63.0529H48.2536V62.0529ZM48.2536 61.0984V60.0984H47.2536V61.0984H48.2536ZM51.7308 60.8939L51.3016 59.9907L51.2981 59.9923L51.7308 60.8939ZM52.353 60.3143L51.4646 59.8552L51.4626 59.859L52.353 60.3143ZM51.7266 57.8896L51.2758 58.7823L51.2829 58.7858L51.7266 57.8896ZM48.7308 57.6723V56.6723H47.7308V57.6723H48.7308ZM48.7308 65.462V66.462H49.7308V65.462H48.7308ZM51.782 61.5416L52.659 61.0611L52.3744 60.5416H51.782V61.5416ZM53.9297 65.462V66.462H55.6177L54.8067 64.9816L53.9297 65.462ZM52.7024 65.462L51.8222 65.9366L52.1055 66.462H52.7024V65.462ZM50.5888 61.5416V60.5416H48.9136L49.7086 62.0161L50.5888 61.5416ZM48.674 65.462V56.7348H46.674V65.462H48.674ZM47.674 57.7348H50.6229V55.7348H47.674V57.7348ZM50.6229 57.7348C51.1993 57.7348 51.5831 57.8344 51.8319 57.9669L52.7718 56.2015C52.1456 55.8681 51.4101 55.7348 50.6229 55.7348V57.7348ZM51.8363 57.9692C52.11 58.1132 52.2787 58.2895 52.3866 58.4966L54.1602 57.5723C53.8477 56.9726 53.3687 56.5154 52.7674 56.1992L51.8363 57.9692ZM52.3866 58.4966C52.5133 58.7396 52.5888 59.0364 52.5888 59.4109H54.5888C54.5888 58.757 54.4541 58.1361 54.1602 57.5723L52.3866 58.4966ZM52.5888 59.4109C52.5888 59.7857 52.5132 60.0772 52.3893 60.3115L54.1575 61.2461C54.4541 60.6849 54.5888 60.0645 54.5888 59.4109H52.5888ZM52.3893 60.3115C52.2823 60.514 52.115 60.6878 51.8428 60.8301L52.7695 62.6025C53.3666 62.2903 53.8441 61.839 54.1575 61.2461L52.3893 60.3115ZM51.8473 60.8278C51.5982 60.9564 51.2141 61.0529 50.6399 61.0529V63.0529C51.418 63.0529 52.1447 62.9251 52.7649 62.6048L51.8473 60.8278ZM50.6399 61.0529H48.2536V63.0529H50.6399V61.0529ZM49.2536 62.0529V61.0984H47.2536V62.0529H49.2536ZM48.2536 62.0984H50.6058V60.0984H48.2536V62.0984ZM50.6058 62.0984C51.1557 62.0984 51.6955 62.02 52.1636 61.7954L51.2981 59.9923C51.1979 60.0404 50.9877 60.0984 50.6058 60.0984V62.0984ZM52.1601 61.797C52.6184 61.5792 53.0023 61.241 53.2433 60.7696L51.4626 59.859C51.448 59.8876 51.4171 59.9357 51.3016 59.9907L52.1601 61.797ZM53.2413 60.7735C53.4602 60.3499 53.549 59.8843 53.549 59.4109H51.549C51.549 59.6364 51.5071 59.773 51.4646 59.8552L53.2413 60.7735ZM53.549 59.4109C53.549 58.9363 53.4598 58.4724 53.2474 58.0475L51.4586 58.9419C51.5075 59.0398 51.549 59.1866 51.549 59.4109H53.549ZM53.2474 58.0475C53.0099 57.5726 52.6325 57.2223 52.1702 56.9934L51.2829 58.7858C51.3945 58.841 51.4347 58.8941 51.4586 58.9419L53.2474 58.0475ZM52.1773 56.9969C51.7007 56.7563 51.1494 56.6723 50.5888 56.6723V58.6723C50.9714 58.6723 51.1786 58.7331 51.2758 58.7822L52.1773 56.9969ZM50.5888 56.6723H48.7308V58.6723H50.5888V56.6723ZM47.7308 57.6723V65.462H49.7308V57.6723H47.7308ZM48.7308 64.462H47.674V66.462H48.7308V64.462ZM50.9049 62.022L53.0527 65.9425L54.8067 64.9816L52.659 61.0611L50.9049 62.022ZM53.9297 64.462H52.7024V66.462H53.9297V64.462ZM53.5826 64.9875L51.469 61.067L49.7086 62.0161L51.8222 65.9366L53.5826 64.9875ZM50.5888 62.5416H51.782V60.5416H50.5888V62.5416ZM56.4066 56.7348H57.4066V55.7348H56.4066V56.7348ZM56.4066 65.462V66.462H57.4066V65.462H56.4066ZM55.3498 65.462H54.3498V66.462H55.3498V65.462ZM55.3498 56.7348V55.7348H54.3498V56.7348H55.3498ZM55.4066 56.7348V65.462H57.4066V56.7348H55.4066ZM56.4066 64.462H55.3498V66.462H56.4066V64.462ZM56.3498 65.462V56.7348H54.3498V65.462H56.3498ZM55.3498 57.7348H56.4066V55.7348H55.3498V57.7348ZM65.5483 59.462V60.462H66.7411L66.533 59.2875L65.5483 59.462ZM64.4915 59.462L63.512 59.6634L63.6762 60.462H64.4915V59.462ZM64.1634 58.6609L63.3313 59.2156L63.336 59.2227L64.1634 58.6609ZM63.6009 58.0814L63.0127 58.8901L63.0186 58.8944L63.0246 58.8986L63.6009 58.0814ZM62.8722 57.7234L62.5867 58.6818H62.5867L62.8722 57.7234ZM60.6009 58.0046L60.0724 57.1557L60.0698 57.1573L60.6009 58.0046ZM59.5824 59.185L58.6831 58.7477L58.6812 58.7517L59.5824 59.185ZM59.5824 63.0118L58.6812 63.4451L58.6831 63.4491L59.5824 63.0118ZM60.6009 64.1922L60.0698 65.0395L60.0724 65.0411L60.6009 64.1922ZM62.8722 64.4734L62.5867 63.515L62.8722 64.4734ZM63.6009 64.1197L64.1821 64.9334L64.1841 64.932L63.6009 64.1197ZM64.1634 63.5359L63.3329 62.9789L63.3313 62.9812L64.1634 63.5359ZM64.4915 62.7348V61.7348H63.6777L63.5123 62.5315L64.4915 62.7348ZM65.5483 62.7348L66.5328 62.9103L66.7424 61.7348H65.5483V62.7348ZM65.1136 63.9322L64.2549 63.4197L64.2549 63.4197L65.1136 63.9322ZM64.3295 64.8314L64.9455 65.6192L64.9499 65.6157L64.3295 64.8314ZM63.277 65.3896L62.9649 64.4395L62.9629 64.4402L63.277 65.3896ZM60.0511 65.0359L59.5196 65.883L60.0511 65.0359ZM58.6832 63.4848L59.5792 63.0406L58.6832 63.4848ZM63.277 56.8072L62.9629 57.7566L62.9649 57.7573L63.277 56.8072ZM64.3295 57.3697L63.7092 58.1541L63.7136 58.1575L64.3295 57.3697ZM65.1136 58.2646L64.2549 58.7771L64.2568 58.7801L65.1136 58.2646ZM65.5483 58.462H64.4915V60.462H65.5483V58.462ZM65.471 59.2606C65.385 58.8426 65.229 58.4501 64.9907 58.0991L63.336 59.2227C63.4102 59.3319 63.4729 59.4735 63.512 59.6634L65.471 59.2606ZM64.9954 58.1062C64.775 57.7756 64.5015 57.4928 64.1771 57.2641L63.0246 58.8986C63.1434 58.9824 63.2449 59.0859 63.3313 59.2156L64.9954 58.1062ZM64.189 57.2726C63.8758 57.0448 63.53 56.8759 63.1576 56.765L62.5867 58.6818C62.7484 58.73 62.8884 58.7997 63.0127 58.8901L64.189 57.2726ZM63.1576 56.765C62.7943 56.6568 62.4195 56.6041 62.0369 56.6041V58.6041C62.2339 58.6041 62.4159 58.6309 62.5867 58.6818L63.1576 56.765ZM62.0369 56.6041C61.3307 56.6041 60.6674 56.7853 60.0724 57.1557L61.1293 58.8536C61.3923 58.6899 61.6864 58.6041 62.0369 58.6041V56.6041ZM60.0698 57.1573C59.4623 57.538 59.0054 58.0851 58.6831 58.7477L60.4817 59.6224C60.6651 59.2452 60.8871 59.0054 61.1319 58.852L60.0698 57.1573ZM58.6812 58.7517C58.3492 59.4419 58.2074 60.2373 58.2074 61.0984H60.2074C60.2074 60.4481 60.3155 59.9679 60.4836 59.6184L58.6812 58.7517ZM58.2074 61.0984C58.2074 61.9595 58.3492 62.7549 58.6812 63.4451L60.4836 62.5784C60.3155 62.2289 60.2074 61.7487 60.2074 61.0984H58.2074ZM58.6831 63.4491C59.0054 64.1117 59.4623 64.6588 60.0698 65.0395L61.1319 63.3448C60.8871 63.1914 60.6651 62.9516 60.4817 62.5744L58.6831 63.4491ZM60.0724 65.0411C60.6674 65.4115 61.3307 65.5927 62.0369 65.5927V63.5927C61.6864 63.5927 61.3923 63.5069 61.1293 63.3432L60.0724 65.0411ZM62.0369 65.5927C62.4195 65.5927 62.7943 65.54 63.1576 65.4318L62.5867 63.515C62.4159 63.5659 62.2339 63.5927 62.0369 63.5927V65.5927ZM63.1576 65.4318C63.5267 65.3219 63.8702 65.1562 64.1821 64.9334L63.0196 63.306C62.894 63.3957 62.7517 63.4658 62.5867 63.515L63.1576 65.4318ZM64.1841 64.932C64.5048 64.7018 64.7762 64.4194 64.9954 64.0906L63.3313 62.9812C63.2437 63.1126 63.1401 63.2195 63.0176 63.3074L64.1841 64.932ZM64.9938 64.0929C65.2287 63.7428 65.3844 63.3533 65.4706 62.938L63.5123 62.5315C63.4735 62.7185 63.4105 62.8631 63.3329 62.9789L64.9938 64.0929ZM64.4915 63.7348H65.5483V61.7348H64.4915V63.7348ZM64.5638 62.5592C64.5033 62.8986 64.3971 63.1815 64.2549 63.4197L65.9723 64.4447C66.2506 63.9783 66.4342 63.4629 66.5328 62.9103L64.5638 62.5592ZM64.2549 63.4197C64.1051 63.6708 63.9236 63.8775 63.7092 64.047L64.9499 65.6157C65.3605 65.2909 65.7017 64.8981 65.9723 64.4447L64.2549 63.4197ZM63.7136 64.0435C63.4952 64.2143 63.2479 64.3466 62.9649 64.4395L63.5891 66.3397C64.0845 66.1769 64.5388 65.9371 64.9455 65.6192L63.7136 64.0435ZM62.9629 64.4402C62.6858 64.5319 62.3793 64.5814 62.0369 64.5814V66.5814C62.5753 66.5814 63.0954 66.503 63.5911 66.339L62.9629 64.4402ZM62.0369 64.5814C61.4635 64.5814 60.989 64.4438 60.5826 64.1888L59.5196 65.883C60.2724 66.3553 61.1218 66.5814 62.0369 66.5814V64.5814ZM60.5826 64.1888C60.1739 63.9324 59.8375 63.5617 59.5792 63.0406L57.7873 63.9289C58.1937 64.7487 58.7693 65.4121 59.5196 65.883L60.5826 64.1888ZM59.5792 63.0406C59.3292 62.5363 59.1847 61.8995 59.1847 61.0984H57.1847C57.1847 62.1382 57.3725 63.0923 57.7873 63.9289L59.5792 63.0406ZM59.1847 61.0984C59.1847 60.2973 59.3292 59.6605 59.5792 59.1562L57.7873 58.2679C57.3725 59.1045 57.1847 60.0586 57.1847 61.0984H59.1847ZM59.5792 59.1562C59.8375 58.6351 60.1739 58.2644 60.5826 58.008L59.5196 56.3138C58.7693 56.7847 58.1937 57.4481 57.7873 58.2679L59.5792 59.1562ZM60.5826 58.008C60.989 57.753 61.4635 57.6154 62.0369 57.6154V55.6154C61.1218 55.6154 60.2724 55.8415 59.5196 56.3138L60.5826 58.008ZM62.0369 57.6154C62.3793 57.6154 62.6858 57.6649 62.9629 57.7566L63.5911 55.8578C63.0954 55.6938 62.5753 55.6154 62.0369 55.6154V57.6154ZM62.9649 57.7573C63.2456 57.8495 63.4915 57.9819 63.7092 58.154L64.9499 56.5854C64.5426 56.2632 64.0868 56.0206 63.5891 55.8571L62.9649 57.7573ZM63.7136 58.1575C63.9256 58.3232 64.1057 58.5271 64.2549 58.777L65.9723 57.7521C65.7011 57.2976 65.3585 56.9048 64.9455 56.5819L63.7136 58.1575ZM64.2568 58.7801C64.3969 59.013 64.5029 59.2941 64.5636 59.6365L66.533 59.2875C66.4346 58.7323 66.2509 58.215 65.9705 57.7491L64.2568 58.7801ZM67.256 65.462H66.256V66.462H67.256V65.462ZM67.256 56.7348V55.7348H66.256V56.7348H67.256ZM72.5231 56.7348H73.5231V55.7348H72.5231V56.7348ZM72.5231 57.6723V58.6723H73.5231V57.6723H72.5231ZM68.3129 57.6723V56.6723H67.3129V57.6723H68.3129ZM68.3129 60.6211H67.3129V61.6211H68.3129V60.6211ZM72.2504 60.6211H73.2504V59.6211H72.2504V60.6211ZM72.2504 61.5586V62.5586H73.2504V61.5586H72.2504ZM68.3129 61.5586V60.5586H67.3129V61.5586H68.3129ZM68.3129 64.5245H67.3129V65.5245H68.3129V64.5245ZM72.5913 64.5245H73.5913V63.5245H72.5913V64.5245ZM72.5913 65.462V66.462H73.5913V65.462H72.5913ZM68.256 65.462V56.7348H66.256V65.462H68.256ZM67.256 57.7348H72.5231V55.7348H67.256V57.7348ZM71.5231 56.7348V57.6723H73.5231V56.7348H71.5231ZM72.5231 56.6723H68.3129V58.6723H72.5231V56.6723ZM67.3129 57.6723V60.6211H69.3129V57.6723H67.3129ZM68.3129 61.6211H72.2504V59.6211H68.3129V61.6211ZM71.2504 60.6211V61.5586H73.2504V60.6211H71.2504ZM72.2504 60.5586H68.3129V62.5586H72.2504V60.5586ZM67.3129 61.5586V64.5245H69.3129V61.5586H67.3129ZM68.3129 65.5245H72.5913V63.5245H68.3129V65.5245ZM71.5913 64.5245V65.462H73.5913V64.5245H71.5913ZM72.5913 64.462H67.256V66.462H72.5913V64.462Z" fill="#006D8D" mask="url(#path-7-inside-2_2068_42936)"/>
<mask id="path-9-inside-3_2068_42936" fill="white">
<path d="M57.2746 77.4049L57.2654 76.9718C57.8345 76.9597 58.4103 76.9289 58.9775 76.8807L59.0146 77.3124C58.4378 77.3611 57.8524 77.3924 57.2746 77.4049ZM55.9678 77.4001C55.3857 77.3842 54.8002 77.3495 54.2287 77.2965L54.2687 76.8648C54.8315 76.9173 55.4069 76.9515 55.9798 76.9669L55.9678 77.4001ZM60.3132 77.1688L60.2559 76.74C60.8187 76.6638 61.3878 76.568 61.9463 76.4547L62.0325 76.8797C61.4644 76.9949 60.8857 77.0922 60.3132 77.1688ZM52.9306 77.1447C52.3538 77.0633 51.7765 76.9621 51.2141 76.8441L51.3028 76.42C51.856 76.5357 52.4241 76.6354 52.9913 76.7159L52.9306 77.1447ZM63.3061 76.5891L63.1996 76.1694C63.7514 76.0292 64.305 75.8692 64.8452 75.6929L64.9796 76.1049C64.4298 76.2841 63.867 76.447 63.3061 76.5891ZM49.9415 76.5453C49.3826 76.3993 48.8207 76.2326 48.2714 76.0499L48.4082 75.6389C48.9484 75.8186 49.5016 75.983 50.0514 76.1266L49.9415 76.5453ZM66.2122 75.6698L66.058 75.2645C66.5871 75.064 67.1177 74.8414 67.6371 74.6044L67.8173 74.9975C67.2897 75.2394 66.75 75.4654 66.2122 75.6698ZM47.0393 75.6057C46.4981 75.396 45.9584 75.1652 45.4347 74.9209L45.6183 74.5282C46.1334 74.7691 46.6639 74.9951 47.1959 75.2023L47.0393 75.6057ZM68.9902 74.4256L68.7907 74.0415C69.2952 73.7794 69.7983 73.4975 70.2845 73.2036L70.5086 73.5741C70.0142 73.8729 69.5029 74.1591 68.9902 74.4256ZM44.2618 74.3384C43.7505 74.069 43.2407 73.7784 42.7468 73.4744L42.9738 73.1053C43.46 73.404 43.9616 73.6898 44.4642 73.9548L44.2618 74.3384ZM71.6096 72.8711L71.3677 72.5116C71.839 72.1945 72.3064 71.8572 72.7565 71.5093L73.0215 71.8519C72.5637 72.2056 72.0886 72.5482 71.6096 72.8711ZM41.6491 72.7622C41.1721 72.4355 40.6989 72.089 40.243 71.7319L40.5105 71.3908C40.9591 71.7425 41.4246 72.0832 41.8939 72.4041L41.6491 72.7622ZM74.0353 71.0284L73.7544 70.6983C74.1871 70.3292 74.6136 69.9408 75.0212 69.5448L75.3234 69.8556C74.909 70.2584 74.4758 70.653 74.0353 71.0284ZM39.234 70.9002C38.7955 70.5205 38.3652 70.1225 37.9542 69.7173L38.2587 69.4093C38.663 69.8079 39.0861 70.1991 39.5173 70.5726L39.234 70.9002ZM76.2389 68.9217L75.9223 68.6263C76.3107 68.21 76.6899 67.7758 77.0508 67.3354L77.3857 67.6096C77.0195 68.0572 76.6336 68.4991 76.2389 68.9217ZM37.0458 68.7776C36.6555 68.3526 36.2724 67.9088 35.9086 67.4578L36.2464 67.186C36.6045 67.6293 36.9803 68.0664 37.3648 68.4842L37.0458 68.7776ZM78.1905 66.5774L77.8421 66.3201C78.1818 65.8609 78.5095 65.3862 78.8174 64.9092L79.1812 65.1434C78.8684 65.6291 78.535 66.111 78.1905 66.5774ZM35.114 66.4208C34.7739 65.9539 34.4442 65.4696 34.1349 64.981L34.5006 64.7492C34.8056 65.2296 35.1299 65.7062 35.4644 66.1654L35.114 66.4208ZM79.8621 64.0269L79.4862 63.8105C79.772 63.3152 80.0437 62.8063 80.2948 62.297L80.6832 62.4883C80.4287 63.0053 80.1526 63.5233 79.8621 64.0269ZM33.4627 63.8621C33.1765 63.3571 32.9042 62.8386 32.6536 62.3206L33.0435 62.1317C33.2897 62.6411 33.5571 63.1514 33.839 63.6477L33.4627 63.8621ZM81.2334 61.2995L80.8359 61.128C81.0629 60.6018 81.2749 60.0645 81.4652 59.5311L81.8729 59.6766C81.6796 60.2187 81.4643 60.7647 81.2334 61.2995ZM32.1144 61.1323C31.8875 60.5989 31.6769 60.053 31.4875 59.5099L31.8961 59.3668C32.0826 59.9012 32.2898 60.438 32.5129 60.9632L32.1144 61.1323ZM82.2825 58.4315L81.8681 58.3062C82.0329 57.7607 82.1813 57.2037 82.309 56.6505L82.7311 56.7478C82.6015 57.3107 82.4502 57.8768 82.2825 58.4315ZM31.0866 58.2652C30.9237 57.712 30.7768 57.1444 30.6491 56.5782L31.0722 56.4833C31.1974 57.0398 31.342 57.5983 31.502 58.1423L31.0866 58.2652ZM82.9942 55.4675L82.5677 55.3904C82.6689 54.8319 82.7528 54.2619 82.8164 53.6943L83.2472 53.7434C83.1821 54.3197 83.0968 54.8999 82.9942 55.4675ZM30.3946 55.2969C30.2959 54.7293 30.2149 54.1487 30.1532 53.5719L30.584 53.5251C30.6447 54.0927 30.7247 54.6642 30.8211 55.2227L30.3946 55.2969ZM83.3628 52.4424L82.9306 52.4144C82.9667 51.8482 82.9855 51.2719 82.9855 50.7009L82.985 50.6098H83.4182L83.4187 50.698C83.4187 51.2806 83.3999 51.8665 83.3628 52.4424ZM30.0453 52.2694C30.0154 51.748 30 51.2203 30 50.7009L30.0005 50.5269L30.4337 50.5303L30.4332 50.7009C30.4332 51.2122 30.4481 51.7311 30.4775 52.2448L30.0453 52.2694ZM82.9503 49.3252C82.9209 48.7595 82.8728 48.1846 82.8063 47.617L83.2371 47.5668C83.3045 48.1436 83.3532 48.7277 83.3826 49.303L82.9503 49.3252ZM30.4727 49.2447L30.0405 49.2211C30.0718 48.6438 30.1229 48.0603 30.1918 47.4854L30.6216 47.537C30.5542 48.1022 30.504 48.6766 30.4727 49.2447ZM82.6265 46.3444C82.5316 45.7777 82.4174 45.2124 82.2887 44.6636L82.7099 44.5643C82.8409 45.1219 82.9566 45.6967 83.0535 46.2721L82.6265 46.3444ZM30.8066 46.2644L30.3792 46.1916C30.4761 45.622 30.5932 45.0476 30.7276 44.4839L31.1493 44.5846C31.0167 45.1392 30.9016 45.7039 30.8066 46.2644ZM81.9635 43.4194C81.8064 42.873 81.6291 42.3251 81.4353 41.7888L81.843 41.6413C82.0391 42.1868 82.2194 42.7443 82.3793 43.299L81.9635 43.4194ZM31.4779 43.3423L31.0616 43.2214C31.223 42.6682 31.4046 42.1112 31.6032 41.5652L32.0103 41.7131C31.8152 42.2504 31.6364 42.7983 31.4779 43.3423ZM80.9713 40.5933C80.7526 40.07 80.5135 39.5457 80.2606 39.0354L80.6489 38.8431C80.9058 39.3616 81.1486 39.8941 81.3713 40.4266L80.9713 40.5933ZM32.4811 40.5138L32.0817 40.3456C32.3067 39.8107 32.552 39.2778 32.8107 38.7612L33.1981 38.9549C32.9437 39.4628 32.7023 39.9876 32.4811 40.5138ZM79.6621 37.9001C79.3855 37.4052 79.0882 36.9113 78.7779 36.4324L79.1417 36.1972C79.4568 36.6839 79.7589 37.1855 80.0404 37.6886L79.6621 37.9001ZM33.8034 37.8172L33.4261 37.6047C33.7089 37.1021 34.0139 36.6005 34.331 36.1143L34.6939 36.3514C34.3816 36.8299 34.0819 37.3233 33.8034 37.8172ZM78.0527 35.3723C77.7216 34.9121 77.3703 34.4548 77.0075 34.0144L77.3419 33.7392C77.711 34.1869 78.0681 34.6514 78.4044 35.1193L78.0527 35.3723ZM35.4234 35.2918L35.0731 35.0369C35.4114 34.5704 35.7713 34.1069 36.1414 33.6597L36.4748 33.9363C36.1105 34.3762 35.7569 34.8321 35.4234 35.2918ZM76.1666 33.0419C75.7821 32.6189 75.3807 32.2045 74.9735 31.8108L75.2747 31.4995C75.6886 31.8999 76.0963 32.3206 76.4871 32.7509L76.1666 33.0419ZM37.32 32.9668L37.0001 32.6738C37.3909 32.2474 37.8005 31.8277 38.2173 31.4272L38.5175 31.7395C38.1074 32.1341 37.7046 32.5466 37.32 32.9668ZM74.0281 30.9391C73.5988 30.5632 73.1526 30.197 72.7025 29.851L72.9666 29.5075C73.4239 29.8592 73.8768 30.2312 74.3134 30.6134L74.0281 30.9391ZM39.4667 30.8726L39.1824 30.5459C39.6205 30.1647 40.0749 29.7947 40.5331 29.4453L40.7953 29.7898C40.3447 30.1334 39.898 30.4977 39.4667 30.8726ZM71.6626 29.0916C71.1947 28.7673 70.71 28.4541 70.2218 28.1606L70.4454 27.7891C70.9413 28.0869 71.4337 28.4054 71.9098 28.735L71.6626 29.0916ZM41.8361 29.0362L41.5908 28.6791C42.0703 28.3495 42.5627 28.0339 43.0566 27.74L43.2783 28.1125C42.7926 28.4011 42.3074 28.7119 41.8361 29.0362ZM69.103 27.5255C68.6013 27.2567 68.0838 27.0003 67.5648 26.7647L67.7441 26.3705C68.2717 26.61 68.7974 26.8702 69.3077 27.1439L69.103 27.5255ZM44.3972 27.4817L44.1943 27.0991C44.7022 26.8288 45.2284 26.571 45.7565 26.3329L45.9343 26.7281C45.4149 26.9627 44.8974 27.2162 44.3972 27.4817ZM66.379 26.2606C65.846 26.0501 65.3025 25.8549 64.7628 25.6814L64.8958 25.2694C65.4441 25.4453 65.9964 25.6434 66.538 25.8578L66.379 26.2606ZM47.1173 26.2303L46.9593 25.8265C47.4999 25.6145 48.0521 25.4188 48.6015 25.2444L48.7325 25.6574C48.1924 25.8289 47.6493 26.0216 47.1173 26.2303ZM63.5292 25.3186C62.9789 25.1712 62.4175 25.0396 61.8595 24.9288L61.9443 24.5038C62.511 24.6165 63.082 24.7495 63.6415 24.8994L63.5292 25.3186ZM49.9671 25.2974L49.8563 24.8787C50.4162 24.7307 50.9877 24.5992 51.5548 24.4883L51.6377 24.9134C51.0802 25.0223 50.5179 25.1514 49.9671 25.2974ZM60.5942 24.7095C60.0323 24.6262 59.4594 24.5601 58.8908 24.5134L58.9264 24.0821C59.5042 24.1294 60.0863 24.1963 60.6578 24.2816L60.5942 24.7095ZM52.9045 24.6984L52.8429 24.2696C53.4134 24.1872 53.9955 24.1221 54.5742 24.0759L54.6089 24.5076C54.0398 24.5529 53.4664 24.617 52.9045 24.6984ZM57.6076 24.4397C57.0365 24.4204 56.4617 24.4194 55.8926 24.4373L55.8791 24.0041C56.4569 23.9862 57.0433 23.9872 57.622 24.0065L57.6076 24.4397Z"/>
</mask>
<path d="M57.2746 77.4049L57.2654 76.9718C57.8345 76.9597 58.4103 76.9289 58.9775 76.8807L59.0146 77.3124C58.4378 77.3611 57.8524 77.3924 57.2746 77.4049ZM55.9678 77.4001C55.3857 77.3842 54.8002 77.3495 54.2287 77.2965L54.2687 76.8648C54.8315 76.9173 55.4069 76.9515 55.9798 76.9669L55.9678 77.4001ZM60.3132 77.1688L60.2559 76.74C60.8187 76.6638 61.3878 76.568 61.9463 76.4547L62.0325 76.8797C61.4644 76.9949 60.8857 77.0922 60.3132 77.1688ZM52.9306 77.1447C52.3538 77.0633 51.7765 76.9621 51.2141 76.8441L51.3028 76.42C51.856 76.5357 52.4241 76.6354 52.9913 76.7159L52.9306 77.1447ZM63.3061 76.5891L63.1996 76.1694C63.7514 76.0292 64.305 75.8692 64.8452 75.6929L64.9796 76.1049C64.4298 76.2841 63.867 76.447 63.3061 76.5891ZM49.9415 76.5453C49.3826 76.3993 48.8207 76.2326 48.2714 76.0499L48.4082 75.6389C48.9484 75.8186 49.5016 75.983 50.0514 76.1266L49.9415 76.5453ZM66.2122 75.6698L66.058 75.2645C66.5871 75.064 67.1177 74.8414 67.6371 74.6044L67.8173 74.9975C67.2897 75.2394 66.75 75.4654 66.2122 75.6698ZM47.0393 75.6057C46.4981 75.396 45.9584 75.1652 45.4347 74.9209L45.6183 74.5282C46.1334 74.7691 46.6639 74.9951 47.1959 75.2023L47.0393 75.6057ZM68.9902 74.4256L68.7907 74.0415C69.2952 73.7794 69.7983 73.4975 70.2845 73.2036L70.5086 73.5741C70.0142 73.8729 69.5029 74.1591 68.9902 74.4256ZM44.2618 74.3384C43.7505 74.069 43.2407 73.7784 42.7468 73.4744L42.9738 73.1053C43.46 73.404 43.9616 73.6898 44.4642 73.9548L44.2618 74.3384ZM71.6096 72.8711L71.3677 72.5116C71.839 72.1945 72.3064 71.8572 72.7565 71.5093L73.0215 71.8519C72.5637 72.2056 72.0886 72.5482 71.6096 72.8711ZM41.6491 72.7622C41.1721 72.4355 40.6989 72.089 40.243 71.7319L40.5105 71.3908C40.9591 71.7425 41.4246 72.0832 41.8939 72.4041L41.6491 72.7622ZM74.0353 71.0284L73.7544 70.6983C74.1871 70.3292 74.6136 69.9408 75.0212 69.5448L75.3234 69.8556C74.909 70.2584 74.4758 70.653 74.0353 71.0284ZM39.234 70.9002C38.7955 70.5205 38.3652 70.1225 37.9542 69.7173L38.2587 69.4093C38.663 69.8079 39.0861 70.1991 39.5173 70.5726L39.234 70.9002ZM76.2389 68.9217L75.9223 68.6263C76.3107 68.21 76.6899 67.7758 77.0508 67.3354L77.3857 67.6096C77.0195 68.0572 76.6336 68.4991 76.2389 68.9217ZM37.0458 68.7776C36.6555 68.3526 36.2724 67.9088 35.9086 67.4578L36.2464 67.186C36.6045 67.6293 36.9803 68.0664 37.3648 68.4842L37.0458 68.7776ZM78.1905 66.5774L77.8421 66.3201C78.1818 65.8609 78.5095 65.3862 78.8174 64.9092L79.1812 65.1434C78.8684 65.6291 78.535 66.111 78.1905 66.5774ZM35.114 66.4208C34.7739 65.9539 34.4442 65.4696 34.1349 64.981L34.5006 64.7492C34.8056 65.2296 35.1299 65.7062 35.4644 66.1654L35.114 66.4208ZM79.8621 64.0269L79.4862 63.8105C79.772 63.3152 80.0437 62.8063 80.2948 62.297L80.6832 62.4883C80.4287 63.0053 80.1526 63.5233 79.8621 64.0269ZM33.4627 63.8621C33.1765 63.3571 32.9042 62.8386 32.6536 62.3206L33.0435 62.1317C33.2897 62.6411 33.5571 63.1514 33.839 63.6477L33.4627 63.8621ZM81.2334 61.2995L80.8359 61.128C81.0629 60.6018 81.2749 60.0645 81.4652 59.5311L81.8729 59.6766C81.6796 60.2187 81.4643 60.7647 81.2334 61.2995ZM32.1144 61.1323C31.8875 60.5989 31.6769 60.053 31.4875 59.5099L31.8961 59.3668C32.0826 59.9012 32.2898 60.438 32.5129 60.9632L32.1144 61.1323ZM82.2825 58.4315L81.8681 58.3062C82.0329 57.7607 82.1813 57.2037 82.309 56.6505L82.7311 56.7478C82.6015 57.3107 82.4502 57.8768 82.2825 58.4315ZM31.0866 58.2652C30.9237 57.712 30.7768 57.1444 30.6491 56.5782L31.0722 56.4833C31.1974 57.0398 31.342 57.5983 31.502 58.1423L31.0866 58.2652ZM82.9942 55.4675L82.5677 55.3904C82.6689 54.8319 82.7528 54.2619 82.8164 53.6943L83.2472 53.7434C83.1821 54.3197 83.0968 54.8999 82.9942 55.4675ZM30.3946 55.2969C30.2959 54.7293 30.2149 54.1487 30.1532 53.5719L30.584 53.5251C30.6447 54.0927 30.7247 54.6642 30.8211 55.2227L30.3946 55.2969ZM83.3628 52.4424L82.9306 52.4144C82.9667 51.8482 82.9855 51.2719 82.9855 50.7009L82.985 50.6098H83.4182L83.4187 50.698C83.4187 51.2806 83.3999 51.8665 83.3628 52.4424ZM30.0453 52.2694C30.0154 51.748 30 51.2203 30 50.7009L30.0005 50.5269L30.4337 50.5303L30.4332 50.7009C30.4332 51.2122 30.4481 51.7311 30.4775 52.2448L30.0453 52.2694ZM82.9503 49.3252C82.9209 48.7595 82.8728 48.1846 82.8063 47.617L83.2371 47.5668C83.3045 48.1436 83.3532 48.7277 83.3826 49.303L82.9503 49.3252ZM30.4727 49.2447L30.0405 49.2211C30.0718 48.6438 30.1229 48.0603 30.1918 47.4854L30.6216 47.537C30.5542 48.1022 30.504 48.6766 30.4727 49.2447ZM82.6265 46.3444C82.5316 45.7777 82.4174 45.2124 82.2887 44.6636L82.7099 44.5643C82.8409 45.1219 82.9566 45.6967 83.0535 46.2721L82.6265 46.3444ZM30.8066 46.2644L30.3792 46.1916C30.4761 45.622 30.5932 45.0476 30.7276 44.4839L31.1493 44.5846C31.0167 45.1392 30.9016 45.7039 30.8066 46.2644ZM81.9635 43.4194C81.8064 42.873 81.6291 42.3251 81.4353 41.7888L81.843 41.6413C82.0391 42.1868 82.2194 42.7443 82.3793 43.299L81.9635 43.4194ZM31.4779 43.3423L31.0616 43.2214C31.223 42.6682 31.4046 42.1112 31.6032 41.5652L32.0103 41.7131C31.8152 42.2504 31.6364 42.7983 31.4779 43.3423ZM80.9713 40.5933C80.7526 40.07 80.5135 39.5457 80.2606 39.0354L80.6489 38.8431C80.9058 39.3616 81.1486 39.8941 81.3713 40.4266L80.9713 40.5933ZM32.4811 40.5138L32.0817 40.3456C32.3067 39.8107 32.552 39.2778 32.8107 38.7612L33.1981 38.9549C32.9437 39.4628 32.7023 39.9876 32.4811 40.5138ZM79.6621 37.9001C79.3855 37.4052 79.0882 36.9113 78.7779 36.4324L79.1417 36.1972C79.4568 36.6839 79.7589 37.1855 80.0404 37.6886L79.6621 37.9001ZM33.8034 37.8172L33.4261 37.6047C33.7089 37.1021 34.0139 36.6005 34.331 36.1143L34.6939 36.3514C34.3816 36.8299 34.0819 37.3233 33.8034 37.8172ZM78.0527 35.3723C77.7216 34.9121 77.3703 34.4548 77.0075 34.0144L77.3419 33.7392C77.711 34.1869 78.0681 34.6514 78.4044 35.1193L78.0527 35.3723ZM35.4234 35.2918L35.0731 35.0369C35.4114 34.5704 35.7713 34.1069 36.1414 33.6597L36.4748 33.9363C36.1105 34.3762 35.7569 34.8321 35.4234 35.2918ZM76.1666 33.0419C75.7821 32.6189 75.3807 32.2045 74.9735 31.8108L75.2747 31.4995C75.6886 31.8999 76.0963 32.3206 76.4871 32.7509L76.1666 33.0419ZM37.32 32.9668L37.0001 32.6738C37.3909 32.2474 37.8005 31.8277 38.2173 31.4272L38.5175 31.7395C38.1074 32.1341 37.7046 32.5466 37.32 32.9668ZM74.0281 30.9391C73.5988 30.5632 73.1526 30.197 72.7025 29.851L72.9666 29.5075C73.4239 29.8592 73.8768 30.2312 74.3134 30.6134L74.0281 30.9391ZM39.4667 30.8726L39.1824 30.5459C39.6205 30.1647 40.0749 29.7947 40.5331 29.4453L40.7953 29.7898C40.3447 30.1334 39.898 30.4977 39.4667 30.8726ZM71.6626 29.0916C71.1947 28.7673 70.71 28.4541 70.2218 28.1606L70.4454 27.7891C70.9413 28.0869 71.4337 28.4054 71.9098 28.735L71.6626 29.0916ZM41.8361 29.0362L41.5908 28.6791C42.0703 28.3495 42.5627 28.0339 43.0566 27.74L43.2783 28.1125C42.7926 28.4011 42.3074 28.7119 41.8361 29.0362ZM69.103 27.5255C68.6013 27.2567 68.0838 27.0003 67.5648 26.7647L67.7441 26.3705C68.2717 26.61 68.7974 26.8702 69.3077 27.1439L69.103 27.5255ZM44.3972 27.4817L44.1943 27.0991C44.7022 26.8288 45.2284 26.571 45.7565 26.3329L45.9343 26.7281C45.4149 26.9627 44.8974 27.2162 44.3972 27.4817ZM66.379 26.2606C65.846 26.0501 65.3025 25.8549 64.7628 25.6814L64.8958 25.2694C65.4441 25.4453 65.9964 25.6434 66.538 25.8578L66.379 26.2606ZM47.1173 26.2303L46.9593 25.8265C47.4999 25.6145 48.0521 25.4188 48.6015 25.2444L48.7325 25.6574C48.1924 25.8289 47.6493 26.0216 47.1173 26.2303ZM63.5292 25.3186C62.9789 25.1712 62.4175 25.0396 61.8595 24.9288L61.9443 24.5038C62.511 24.6165 63.082 24.7495 63.6415 24.8994L63.5292 25.3186ZM49.9671 25.2974L49.8563 24.8787C50.4162 24.7307 50.9877 24.5992 51.5548 24.4883L51.6377 24.9134C51.0802 25.0223 50.5179 25.1514 49.9671 25.2974ZM60.5942 24.7095C60.0323 24.6262 59.4594 24.5601 58.8908 24.5134L58.9264 24.0821C59.5042 24.1294 60.0863 24.1963 60.6578 24.2816L60.5942 24.7095ZM52.9045 24.6984L52.8429 24.2696C53.4134 24.1872 53.9955 24.1221 54.5742 24.0759L54.6089 24.5076C54.0398 24.5529 53.4664 24.617 52.9045 24.6984ZM57.6076 24.4397C57.0365 24.4204 56.4617 24.4194 55.8926 24.4373L55.8791 24.0041C56.4569 23.9862 57.0433 23.9872 57.622 24.0065L57.6076 24.4397Z" fill="#006D8D" stroke="#006D8D" stroke-width="2" mask="url(#path-9-inside-3_2068_42936)"/>
<path d="M56.3216 29.0625L56.9994 30.4357L57.1157 30.6713L57.3758 30.7092L58.891 30.9296L57.7946 31.9982L57.6063 32.1817L57.6507 32.4408L57.9097 33.9504L56.5543 33.2379L56.3216 33.1156L56.089 33.2379L54.7335 33.9504L54.9925 32.4408L55.0369 32.1817L54.8487 31.9982L53.7522 30.9296L55.2675 30.7092L55.5275 30.6713L55.6439 30.4357L56.3216 29.0625Z" fill="#F2B130" stroke="#006D8D"/>
<path d="M42.7194 33.5019L42.9185 33.9052L43.0349 34.1409L43.295 34.1786L43.7395 34.2432L43.4177 34.557L43.2295 34.7405L43.274 34.9995L43.3499 35.4425L42.9518 35.2333L42.7192 35.111L42.4865 35.2333L42.089 35.4423L42.1649 34.9995L42.2093 34.7405L42.0212 34.557L41.6993 34.2432L42.1439 34.1786L42.4041 34.1409L42.5204 33.9051L42.7194 33.5019Z" fill="#F2B130" stroke="#006D8D"/>
<path d="M71.0096 33.5019L71.2085 33.9051L71.3248 34.1409L71.585 34.1786L72.0296 34.2432L71.7077 34.557L71.5196 34.7405L71.564 34.9995L71.64 35.4423L71.2424 35.2333L71.0098 35.111L70.7771 35.2333L70.379 35.4425L70.4549 34.9995L70.4994 34.7405L70.3112 34.557L69.9894 34.2432L70.4339 34.1786L70.6941 34.1409L70.8104 33.9052L71.0096 33.5019Z" fill="#F2B130" stroke="#006D8D"/>
<defs>
<filter id="filter0_d_2068_42936" x="0.8" y="0.262036" width="111.4" height="111.4" filterUnits="userSpaceOnUse" color-interpolation-filters="sRGB">
<feFlood flood-opacity="0" result="BackgroundImageFix"/>
<feColorMatrix in="SourceAlpha" type="matrix" values="0 0 0 0 0 0 0 0 0 0 0 0 0 0 0 0 0 0 127 0" result="hardAlpha"/>
<feOffset dy="4"/>
<feGaussianBlur stdDeviation="4.1"/>
<feComposite in2="hardAlpha" operator="out"/>
<feColorMatrix type="matrix" values="0 0 0 0 0.0117647 0 0 0 0 0.698039 0 0 0 0 0.898039 0 0 0 0.25 0"/>
<feBlend mode="normal" in2="BackgroundImageFix" result="effect1_dropShadow_2068_42936"/>
<feBlend mode="normal" in="SourceGraphic" in2="effect1_dropShadow_2068_42936" result="shape"/>
</filter>
</defs>
</svg>
