<svg width="34" height="35" viewBox="0 0 34 35" fill="none" xmlns="http://www.w3.org/2000/svg">
<path d="M17.2765 34C26.2658 34 33.5531 26.6127 33.5531 17.5C33.5531 8.3873 26.2658 1 17.2765 1C8.28726 1 1 8.3873 1 17.5C1 26.6127 8.28726 34 17.2765 34Z" fill="#FFC3A6"/>
<path d="M17.2765 34C26.2658 34 33.5531 26.6127 33.5531 17.5C33.5531 8.3873 26.2658 1 17.2765 1C8.28726 1 1 8.3873 1 17.5C1 26.6127 8.28726 34 17.2765 34Z" stroke="#080C3E" stroke-width="0.5705" stroke-miterlimit="10" stroke-linecap="round" stroke-linejoin="round"/>
<path d="M26.9178 16.8173C26.8717 16.6879 26.8063 16.5649 26.7211 16.4526C26.6514 16.3608 26.5708 16.2809 26.4829 16.2114V16.177C26.4829 13.8412 25.5963 11.6387 23.9864 9.97513C22.3748 8.30974 20.24 7.39258 17.9754 7.39258C15.7108 7.39258 13.5761 8.30974 11.9644 9.97513C10.3546 11.6387 9.46795 13.8412 9.46795 16.177V16.2502C9.39877 16.3104 9.33488 16.3777 9.27803 16.4527C9.19283 16.5649 9.12743 16.6879 9.08131 16.8173C8.27594 17.0066 7.57046 17.4869 7.09148 18.1749C6.60117 18.8792 6.39249 19.7384 6.5039 20.5943C6.72478 22.2913 8.16226 23.5711 9.84759 23.5711C9.89957 23.5711 9.95232 23.5698 10.0044 23.5674C10.0136 23.5669 10.0224 23.5645 10.0314 23.5632C10.2773 23.8514 10.6394 24.0328 11.0377 24.0328C11.0959 24.0328 11.1548 24.0289 11.2127 24.0212L11.4246 23.993C12.1524 23.8962 12.6667 23.2187 12.5709 22.4827L11.8662 17.0684C11.8231 16.7371 11.6615 16.4465 11.4285 16.2376V15.9858C11.4285 14.3116 12.0468 12.7808 13.0642 11.6139C13.1074 11.6374 13.1561 11.6511 13.2072 11.6511H13.8826C14.3425 11.6511 14.7986 11.5117 15.2014 11.2481C16.0196 10.7125 16.9789 10.4294 17.9754 10.4294C18.972 10.4294 19.9312 10.7125 20.7495 11.2481C21.1523 11.5117 21.6083 11.6511 22.0683 11.6511H22.7436C22.7947 11.6511 22.8434 11.6374 22.8866 11.6139C23.904 12.7808 24.5223 14.3116 24.5223 15.9858V16.2844C24.3158 16.489 24.173 16.7608 24.133 17.0683L23.4282 22.4827C23.3818 22.8392 23.4755 23.1926 23.692 23.4779C23.8223 23.6496 23.9882 23.7833 24.1761 23.8735C24.1226 23.9337 24.0664 23.9938 24.0066 24.0535C23.0179 25.0401 21.5267 25.5352 19.6604 25.5057C19.6204 25.0103 19.2252 24.6058 18.7207 24.5755L18.0746 24.5367C18.0546 24.5355 18.0348 24.5349 18.015 24.5349C17.4846 24.535 17.0446 24.9543 17.0131 25.4896C16.9803 26.0483 17.4031 26.5297 17.9556 26.5629L18.6017 26.6017C18.6217 26.6029 18.6415 26.6035 18.6613 26.6035C19.1365 26.6035 19.5382 26.2665 19.6394 25.8114C19.7008 25.8125 19.7623 25.8138 19.8223 25.8138C22.1568 25.8138 23.4974 24.9977 24.2325 24.2578C24.3252 24.1646 24.4101 24.0707 24.4886 23.9772C24.5171 23.9829 24.5455 23.9891 24.5746 23.993L24.7864 24.0212C24.8444 24.0289 24.9033 24.0328 24.9614 24.0328C25.3597 24.0328 25.7219 23.8514 25.9677 23.5632C25.9768 23.5644 25.9856 23.5669 25.9948 23.5673C26.0468 23.5698 26.0996 23.571 26.1516 23.571C27.8369 23.571 29.2744 22.2913 29.4952 20.5942C29.6066 19.7384 29.398 18.8791 28.9077 18.1749C28.4287 17.4869 27.7232 17.0066 26.9178 16.8173Z" fill="#6E2885"/>
<path d="M17.9758 7.69922C13.5036 7.69922 9.83792 11.4465 9.77246 16.0525C9.89392 15.9955 10.0243 15.9564 10.1609 15.9382L10.3727 15.91C10.4307 15.9023 10.4896 15.8984 10.5478 15.8984C10.6092 15.8984 10.6694 15.9041 10.7289 15.9124C10.8688 15.932 11.0028 15.9727 11.1262 16.0335V15.9865C11.1262 12.1776 14.2085 9.06121 17.9758 9.06121C21.743 9.06121 24.8253 12.1776 24.8253 15.9865V16.0597C24.9482 15.9928 25.0818 15.9443 25.2229 15.9192C25.2976 15.9059 25.3741 15.8984 25.4521 15.8984C25.5102 15.8984 25.5691 15.9023 25.6271 15.91L25.8389 15.9382C25.9576 15.954 26.0712 15.9864 26.1788 16.0318C26.1027 11.4353 22.4412 7.69922 17.9758 7.69922Z" fill="#D6F1FF"/>
<path d="M29.2213 20.0765C29.2209 20.0561 29.22 20.0359 29.2191 20.0157C29.2178 19.9832 29.2162 19.9508 29.2139 19.9186C29.2125 19.8987 29.2108 19.8789 29.209 19.8591C29.206 19.8263 29.2026 19.7936 29.1986 19.761C29.1963 19.7424 29.1939 19.7238 29.1913 19.7053C29.1865 19.6711 29.181 19.6371 29.1751 19.6032C29.1722 19.5867 29.1695 19.5703 29.1663 19.5539C29.1592 19.5166 29.1512 19.4797 29.1428 19.4428C29.1399 19.4302 29.1373 19.4175 29.1342 19.405C29.1234 19.3602 29.1116 19.3158 29.0988 19.2717L29.0952 19.2586C29.0506 19.1071 28.9949 18.96 28.9288 18.8184L28.9266 18.8137C28.9056 18.769 28.8836 18.7248 28.8606 18.6811L28.8533 18.6677C28.8315 18.6268 28.8088 18.5864 28.7853 18.5466C28.7822 18.5414 28.7791 18.5363 28.776 18.5311C28.7524 18.4918 28.728 18.453 28.7028 18.4148L28.6936 18.401C28.6673 18.3617 28.6403 18.3231 28.6123 18.2851L28.6057 18.2761C28.5785 18.2393 28.5502 18.2033 28.5213 18.1677L28.5124 18.1562L28.5134 18.1583C28.1265 17.6855 27.6019 17.3272 26.9908 17.1523C26.9993 17.2498 26.9983 17.3488 26.9854 17.4482L26.353 22.3066L26.2807 22.8625C26.262 23.0057 26.2202 23.1406 26.1611 23.2653C26.175 23.2653 26.1888 23.2645 26.2027 23.2642C26.2347 23.2637 26.2666 23.2633 26.2984 23.2618C26.3174 23.2609 26.3362 23.2591 26.355 23.2578C26.3838 23.2559 26.4125 23.2542 26.441 23.2514C26.461 23.2495 26.4807 23.2467 26.5005 23.2444C26.5278 23.2413 26.5551 23.2383 26.5822 23.2344C26.6024 23.2315 26.6224 23.2278 26.6425 23.2245C26.6689 23.2201 26.6954 23.216 26.7216 23.2109C26.7419 23.207 26.7619 23.2024 26.7821 23.1981C26.8078 23.1926 26.8336 23.1872 26.8591 23.1811C26.8793 23.1762 26.8992 23.1707 26.9192 23.1654C26.9444 23.1588 26.9696 23.1523 26.9945 23.145C27.0146 23.1392 27.0344 23.1327 27.0543 23.1265C27.0788 23.1188 27.1034 23.1112 27.1277 23.1029C27.1474 23.0961 27.1668 23.0888 27.1864 23.0817C27.2105 23.0729 27.2347 23.0641 27.2586 23.0547C27.2779 23.0471 27.2969 23.039 27.316 23.031C27.3397 23.0211 27.3633 23.0112 27.3867 23.0007C27.4057 22.9923 27.4243 22.9834 27.4431 22.9745C27.4662 22.9636 27.4893 22.9526 27.5121 22.9411C27.5306 22.9318 27.5489 22.9221 27.5672 22.9124C27.5898 22.9005 27.6123 22.8884 27.6345 22.8759C27.6525 22.8658 27.6703 22.8554 27.6881 22.8449C27.7102 22.8319 27.7322 22.8188 27.7539 22.8053C27.7714 22.7944 27.7886 22.7833 27.8058 22.7721C27.8273 22.7581 27.8487 22.7439 27.8699 22.7294C27.8868 22.7178 27.9035 22.7059 27.9203 22.6939C27.9411 22.679 27.9618 22.6639 27.9823 22.6484C27.9987 22.636 28.015 22.6234 28.0311 22.6107C28.0513 22.5948 28.0713 22.5788 28.0911 22.5624C28.1069 22.5493 28.1226 22.5361 28.1381 22.5227C28.1576 22.5059 28.1769 22.4888 28.1961 22.4715C28.2113 22.4577 28.2263 22.4439 28.2412 22.4298C28.26 22.4121 28.2785 22.3941 28.2969 22.3759C28.3115 22.3615 28.326 22.3469 28.3404 22.3321C28.3583 22.3136 28.376 22.2948 28.3935 22.2759C28.4075 22.2607 28.4214 22.2455 28.4351 22.23C28.4523 22.2107 28.469 22.1911 28.4857 22.1713C28.499 22.1555 28.5124 22.1396 28.5254 22.1235C28.5417 22.1034 28.5576 22.0829 28.5734 22.0623C28.5861 22.0459 28.5987 22.0295 28.611 22.0129C28.6265 21.9919 28.6415 21.9706 28.6564 21.9492C28.6683 21.9322 28.6803 21.9153 28.6919 21.898C28.7064 21.8763 28.7204 21.8543 28.7343 21.8322C28.7455 21.8146 28.7568 21.797 28.7677 21.7791C28.7813 21.7567 28.7943 21.7339 28.8073 21.7111C28.8177 21.693 28.8282 21.6749 28.8383 21.6566C28.851 21.6334 28.863 21.6097 28.8751 21.5861C28.8846 21.5675 28.8944 21.5491 28.9036 21.5302C28.9152 21.5063 28.9262 21.482 28.9373 21.4577C28.946 21.4386 28.955 21.4197 28.9633 21.4003C28.974 21.3756 28.9839 21.3505 28.994 21.3254C29.0018 21.306 29.0099 21.2867 29.0174 21.2671C29.0271 21.2414 29.036 21.2153 29.045 21.1893C29.0519 21.1697 29.059 21.1503 29.0655 21.1306C29.0743 21.1037 29.0821 21.0765 29.0902 21.0493C29.096 21.0298 29.1022 21.0106 29.1076 20.9909C29.1155 20.9623 29.1224 20.9333 29.1295 20.9044C29.1341 20.8856 29.1392 20.8672 29.1434 20.8483C29.1507 20.8161 29.1569 20.7834 29.1632 20.7508C29.1663 20.7348 29.17 20.719 29.1729 20.7028C29.1816 20.6539 29.1892 20.6045 29.1957 20.5547C29.2027 20.5011 29.2081 20.4478 29.2123 20.3945C29.2137 20.3774 29.2142 20.3604 29.2153 20.3433C29.2176 20.3072 29.2197 20.2711 29.2208 20.2352C29.2214 20.2153 29.2213 20.1955 29.2215 20.1757C29.2218 20.1425 29.222 20.1094 29.2213 20.0765Z" fill="#D6F1FF"/>
<path d="M9.01443 17.4481C9.0015 17.3488 9.00057 17.2498 9.00904 17.1523C8.97344 17.1625 8.93783 17.1728 8.90284 17.1842L8.89903 17.1855C8.8069 17.2158 8.71684 17.2501 8.62909 17.2885C7.40042 17.8258 6.62015 19.1411 6.80414 20.5547C6.87578 21.1051 7.08519 21.6025 7.39192 22.0169L7.39165 22.0168L7.39678 22.0233C7.42974 22.0675 7.46391 22.1108 7.49906 22.1531C7.50423 22.1593 7.50937 22.1656 7.51458 22.1718C7.59101 22.2624 7.67229 22.3484 7.75809 22.4293L7.77323 22.4433C7.81171 22.4791 7.85108 22.5138 7.89128 22.5476C7.89738 22.5527 7.90341 22.5579 7.90954 22.563C7.99926 22.6372 8.09308 22.7062 8.19048 22.7698C8.19904 22.7754 8.20769 22.7808 8.21629 22.7863C8.25844 22.8132 8.30124 22.8391 8.34467 22.864C8.35209 22.8682 8.3594 22.8726 8.36685 22.8768C8.41771 22.9053 8.46933 22.9326 8.52181 22.9582L8.53179 22.9628C8.57916 22.9858 8.62729 23.0072 8.67587 23.0277C8.68819 23.0329 8.70056 23.038 8.71297 23.043C8.7579 23.0612 8.8033 23.0784 8.84917 23.0945C8.85755 23.0975 8.8658 23.1007 8.87421 23.1036C8.9281 23.122 8.9826 23.1388 9.03765 23.1542C9.04829 23.1571 9.05907 23.1597 9.06975 23.1626C9.11426 23.1745 9.15912 23.1853 9.2043 23.1952C9.21961 23.1986 9.23489 23.2019 9.25026 23.205C9.29913 23.2149 9.34832 23.2237 9.39788 23.2312C9.40506 23.2323 9.41214 23.2337 9.41932 23.2347C9.47551 23.2428 9.53219 23.249 9.58916 23.2539C9.60423 23.2552 9.61939 23.256 9.6345 23.2571C9.67824 23.2602 9.72218 23.2623 9.7663 23.2635C9.78294 23.264 9.79954 23.2645 9.81623 23.2647C9.82354 23.2648 9.83094 23.2643 9.83826 23.2644C9.77947 23.1399 9.73777 23.0053 9.71919 22.8625L9.01443 17.4481Z" fill="#D6F1FF"/>
<path d="M26.6793 17.0965C26.6678 17.0293 26.6499 16.9639 26.6261 16.9013C26.6023 16.8387 26.5726 16.7788 26.5376 16.7223C26.5027 16.6658 26.4625 16.6128 26.4176 16.5641C26.3727 16.5154 26.3231 16.4709 26.2694 16.4314C26.1352 16.3328 25.9755 16.2657 25.7994 16.2423L25.7658 16.2378L25.5876 16.2141C25.542 16.208 25.4968 16.2051 25.452 16.2051C24.9436 16.2051 24.5015 16.5861 24.4333 17.1096L23.7286 22.524C23.683 22.8744 23.8163 23.206 24.0563 23.4274L24.0551 23.4273C24.0693 23.4404 24.0842 23.4528 24.0991 23.4651C24.1068 23.4715 24.1145 23.4778 24.1224 23.484C24.1366 23.4951 24.1511 23.5058 24.1659 23.5161C24.1759 23.5231 24.186 23.5296 24.1962 23.5362C24.2103 23.5453 24.2242 23.5545 24.2388 23.5629C24.2621 23.5764 24.2859 23.5891 24.3104 23.6007C24.3209 23.6058 24.3319 23.61 24.3426 23.6147C24.3605 23.6225 24.3784 23.6299 24.3968 23.6367C24.408 23.6408 24.4194 23.6446 24.4308 23.6483C24.4505 23.6548 24.4706 23.6607 24.4909 23.666C24.5009 23.6686 24.5109 23.6714 24.521 23.6737C24.5515 23.6807 24.5824 23.6867 24.6141 23.691L24.6144 23.691L24.8262 23.7192C24.8576 23.7234 24.8888 23.7255 24.9198 23.7268C24.927 23.7271 24.9342 23.7274 24.9414 23.7275C24.9625 23.7279 24.9833 23.7271 25.0042 23.7262C25.0177 23.7257 25.0313 23.7254 25.0448 23.7243C25.0652 23.7227 25.0853 23.7198 25.1054 23.7169C25.1175 23.7151 25.1298 23.7139 25.1418 23.7118C25.1648 23.7076 25.1875 23.7021 25.2101 23.6963C25.2187 23.6942 25.2276 23.6926 25.2361 23.6902C25.267 23.6815 25.2975 23.6714 25.3273 23.6599C25.3336 23.6574 25.3396 23.6543 25.3459 23.6517C25.3691 23.6422 25.3922 23.6323 25.4146 23.6211C25.4251 23.6159 25.435 23.6099 25.4452 23.6043C25.463 23.5947 25.4807 23.5851 25.4978 23.5745C25.5089 23.5676 25.5194 23.5601 25.5302 23.5528C25.5458 23.5423 25.5613 23.5318 25.5763 23.5204C25.5872 23.5122 25.5976 23.5035 25.6081 23.4949C25.6222 23.4833 25.6362 23.4716 25.6496 23.4593C25.6599 23.45 25.6698 23.4402 25.6797 23.4304C25.6925 23.4178 25.7051 23.4049 25.7173 23.3915C25.7267 23.3811 25.7359 23.3705 25.745 23.3597C25.7566 23.3459 25.7678 23.3317 25.7787 23.3173C25.7872 23.306 25.7955 23.2947 25.8036 23.2831C25.814 23.268 25.8238 23.2525 25.8335 23.2369C25.8408 23.225 25.8482 23.2131 25.855 23.2008C25.8643 23.1844 25.8727 23.1675 25.881 23.1505C25.8871 23.1382 25.8934 23.126 25.899 23.1134C25.907 23.0953 25.914 23.0766 25.9211 23.0579C25.9257 23.0456 25.9307 23.0336 25.9348 23.0211C25.9419 23 25.9477 22.9783 25.9534 22.9565C25.9562 22.9458 25.9597 22.9353 25.9622 22.9244C25.9697 22.8915 25.976 22.8579 25.9804 22.8236L26.6852 17.4093C26.6898 17.3737 26.6926 17.3383 26.6936 17.3031C26.6957 17.2329 26.6907 17.1637 26.6793 17.0965Z" fill="#F37435"/>
<path d="M11.5664 17.1091C11.562 17.0748 11.5557 17.0413 11.5481 17.0083C11.5456 16.9974 11.5422 16.987 11.5394 16.9762C11.5336 16.9545 11.5279 16.9327 11.5208 16.9116C11.5167 16.8991 11.5116 16.8871 11.507 16.8749C11.5 16.8562 11.493 16.8375 11.4849 16.8193C11.4793 16.8067 11.4731 16.7945 11.467 16.7822C11.4587 16.7652 11.4502 16.7483 11.441 16.7319C11.4341 16.7196 11.4268 16.7077 11.4194 16.6958C11.4098 16.6802 11.3999 16.6647 11.3896 16.6497C11.3815 16.638 11.3731 16.6267 11.3646 16.6154C11.3538 16.601 11.3426 16.5869 11.331 16.5731C11.3219 16.5623 11.3127 16.5516 11.3032 16.5412C11.2911 16.5279 11.2785 16.515 11.2657 16.5023C11.2558 16.4925 11.2459 16.4828 11.2356 16.4734C11.2222 16.4611 11.2082 16.4494 11.1941 16.4379C11.1836 16.4292 11.1732 16.4205 11.1623 16.4123C11.1473 16.401 11.1318 16.3904 11.1162 16.3799C11.1054 16.3727 11.0949 16.3651 11.0838 16.3582C11.0667 16.3476 11.049 16.3381 11.0313 16.3285C11.0211 16.3229 11.0111 16.3169 11.0006 16.3116C10.9783 16.3005 10.9554 16.2907 10.9324 16.2812C10.9259 16.2786 10.9197 16.2754 10.9132 16.2729C10.8834 16.2613 10.853 16.2512 10.8221 16.2425C10.8135 16.2401 10.8046 16.2386 10.7959 16.2364C10.7734 16.2306 10.7508 16.2251 10.7278 16.221C10.7158 16.2188 10.7034 16.2176 10.6912 16.2158C10.6712 16.2129 10.6512 16.2101 10.6308 16.2084C10.6173 16.2073 10.6036 16.2071 10.59 16.2065C10.5692 16.2056 10.5485 16.2048 10.5275 16.2052C10.5202 16.2053 10.513 16.2056 10.5057 16.2059C10.4748 16.2072 10.4437 16.2093 10.4124 16.2135L10.4122 16.2135L10.3977 16.2155L10.2003 16.2417C9.63701 16.3167 9.24044 16.8392 9.31458 17.4087L10.0193 22.8231C10.0323 22.9232 10.0596 23.0177 10.098 23.1055L10.0979 23.1056L10.0989 23.1076C10.1151 23.1445 10.1332 23.1803 10.1533 23.2147L10.1562 23.2194C10.1765 23.2536 10.1983 23.2867 10.2221 23.3181L10.2245 23.3215C10.2389 23.3404 10.2542 23.3586 10.2698 23.3765L10.28 23.3881C10.2946 23.4042 10.3098 23.4198 10.3253 23.4349C10.3304 23.4399 10.3355 23.4448 10.3406 23.4497C10.3555 23.4636 10.3709 23.4772 10.3866 23.4902C10.393 23.4956 10.3996 23.5008 10.4062 23.506C10.4215 23.5181 10.437 23.5299 10.4529 23.5411C10.4606 23.5466 10.4686 23.5517 10.4765 23.5569C10.492 23.5672 10.5076 23.5774 10.5237 23.5869C10.5327 23.5922 10.5419 23.5969 10.5511 23.6019C10.5668 23.6105 10.5825 23.6192 10.5986 23.627C10.6092 23.6321 10.6202 23.6364 10.6309 23.6411C10.6543 23.6514 10.6781 23.6609 10.7024 23.6694C10.7203 23.6757 10.7381 23.6822 10.7564 23.6875C10.768 23.6909 10.78 23.6933 10.7919 23.6963C10.8086 23.7005 10.8253 23.7048 10.8424 23.7082C10.8546 23.7106 10.8671 23.7123 10.8794 23.7143C10.8965 23.717 10.9135 23.7196 10.9307 23.7215C10.9433 23.7228 10.956 23.7236 10.9687 23.7244C10.9861 23.7256 11.0035 23.7266 11.021 23.7269C11.0375 23.7271 11.0541 23.7271 11.0708 23.7266C11.0787 23.7263 11.0866 23.7262 11.0946 23.7258C11.1208 23.7243 11.1471 23.7222 11.1736 23.7186L11.3854 23.6905C11.4558 23.6811 11.5236 23.6647 11.5882 23.6422C11.6529 23.6196 11.7143 23.5908 11.7719 23.5566C11.8871 23.4882 11.9872 23.398 12.0673 23.2924C12.1074 23.2397 12.1425 23.183 12.172 23.1232C12.1868 23.0934 12.2001 23.0627 12.212 23.0314C12.2358 22.9688 12.2538 22.9035 12.2652 22.8362C12.2824 22.7354 12.2851 22.6303 12.2712 22.5235L11.5664 17.1091Z" fill="#F37435"/>
<path d="M20.9146 10.9919C21.2595 11.2177 21.658 11.3458 22.0689 11.3458H22.6396C21.4513 10.1253 19.7997 9.36719 17.9761 9.36719C16.1524 9.36719 14.5008 10.1253 13.3125 11.3458H13.8832C14.2941 11.3458 14.6926 11.2177 15.0375 10.9919C15.872 10.4457 16.8856 10.1241 17.9761 10.1241C19.0665 10.1241 20.0801 10.4457 20.9146 10.9919Z" fill="#F37435"/>
<path d="M25.2226 15.9196C25.1124 11.8965 21.8941 8.64062 17.9754 8.64062C14.059 8.64062 10.8422 11.8928 10.7285 15.9128C10.8685 15.9324 11.0025 15.9731 11.1259 16.0338V15.9868C11.1259 12.178 14.2082 9.06158 17.9754 9.06158C21.7426 9.06158 24.825 12.178 24.825 15.9868V16.0601C24.9479 15.9931 25.0815 15.9447 25.2226 15.9196Z" fill="#006D8D"/>
<path d="M29.2191 20.0157C29.2178 19.9833 29.2162 19.9509 29.2139 19.9186C29.2125 19.8988 29.2108 19.879 29.209 19.8592C29.206 19.8263 29.2026 19.7936 29.1986 19.7611C29.1963 19.7425 29.1939 19.7239 29.1913 19.7054C29.1865 19.6712 29.181 19.6371 29.1751 19.6032C29.1722 19.5868 29.1695 19.5703 29.1663 19.554C29.1592 19.5167 29.1512 19.4797 29.1428 19.4429C29.1399 19.4303 29.1373 19.4176 29.1342 19.405C29.1234 19.3602 29.1116 19.3158 29.0988 19.2717L29.0952 19.2586C29.0506 19.1071 28.9949 18.96 28.9288 18.8184L28.9266 18.8138C28.9056 18.769 28.8836 18.7248 28.8606 18.6812L28.8533 18.6677C28.8315 18.6268 28.8088 18.5864 28.7853 18.5467C28.7822 18.5415 28.7791 18.5363 28.776 18.5312C28.7524 18.4919 28.728 18.4531 28.7028 18.4148L28.6936 18.401C28.6673 18.3618 28.6403 18.3231 28.6123 18.2852L28.6057 18.2762C28.5755 18.2354 28.5445 18.1954 28.5124 18.1562C29.1137 19.3015 29.3642 20.9519 28.1564 21.589C27.515 21.8883 26.9139 21.8626 26.353 22.3067L26.2807 22.8626C26.262 23.0057 26.2202 23.1406 26.1611 23.2653C26.175 23.2653 26.1888 23.2645 26.2027 23.2643C26.2347 23.2637 26.2666 23.2634 26.2984 23.2618C26.3174 23.2609 26.3362 23.2591 26.355 23.2578C26.3838 23.2559 26.4125 23.2542 26.441 23.2515C26.461 23.2495 26.4807 23.2468 26.5005 23.2445C26.5278 23.2413 26.5551 23.2384 26.5822 23.2345C26.6024 23.2315 26.6224 23.2279 26.6425 23.2245C26.6689 23.2202 26.6954 23.216 26.7216 23.211C26.7419 23.2071 26.7619 23.2024 26.7821 23.1981C26.8078 23.1926 26.8336 23.1873 26.8591 23.1811C26.8793 23.1763 26.8992 23.1707 26.9192 23.1654C26.9444 23.1588 26.9696 23.1523 26.9945 23.1451C27.0146 23.1392 27.0344 23.1328 27.0543 23.1265C27.0788 23.1188 27.1034 23.1112 27.1277 23.1029C27.1474 23.0962 27.1668 23.0889 27.1864 23.0818C27.2105 23.0729 27.2347 23.0641 27.2586 23.0547C27.2779 23.0471 27.2969 23.039 27.316 23.0311C27.3397 23.0212 27.3633 23.0113 27.3867 23.0008C27.4057 22.9923 27.4243 22.9834 27.4431 22.9746C27.4662 22.9636 27.4893 22.9527 27.5121 22.9412C27.5306 22.9318 27.5489 22.9221 27.5672 22.9125C27.5898 22.9005 27.6123 22.8885 27.6345 22.876C27.6525 22.8659 27.6703 22.8554 27.6881 22.8449C27.7102 22.8319 27.7322 22.8188 27.7539 22.8053C27.7714 22.7944 27.7886 22.7833 27.8058 22.7721C27.8273 22.7581 27.8487 22.744 27.8699 22.7294C27.8868 22.7178 27.9035 22.7059 27.9203 22.694C27.9411 22.6791 27.9618 22.6639 27.9823 22.6485C27.9987 22.6361 28.015 22.6235 28.0311 22.6108C28.0513 22.5949 28.0713 22.5788 28.0911 22.5624C28.1069 22.5493 28.1226 22.5361 28.1381 22.5227C28.1576 22.5059 28.1769 22.4888 28.1961 22.4715C28.2113 22.4578 28.2263 22.4439 28.2412 22.4298C28.26 22.4121 28.2785 22.3941 28.2969 22.376C28.3115 22.3615 28.326 22.3469 28.3404 22.3322C28.3583 22.3137 28.376 22.2949 28.3935 22.2759C28.4075 22.2607 28.4214 22.2455 28.4351 22.2301C28.4523 22.2108 28.469 22.1911 28.4857 22.1713C28.499 22.1555 28.5124 22.1397 28.5254 22.1236C28.5417 22.1034 28.5576 22.0829 28.5734 22.0624C28.5861 22.0459 28.5987 22.0296 28.611 22.0129C28.6265 21.9919 28.6415 21.9706 28.6564 21.9492C28.6683 21.9322 28.6803 21.9153 28.6919 21.898C28.7064 21.8764 28.7204 21.8543 28.7343 21.8323C28.7455 21.8146 28.7568 21.7971 28.7677 21.7791C28.7813 21.7568 28.7943 21.734 28.8073 21.7112C28.8177 21.693 28.8282 21.675 28.8383 21.6566C28.851 21.6334 28.863 21.6098 28.8751 21.5862C28.8846 21.5676 28.8944 21.5491 28.9036 21.5303C28.9152 21.5064 28.9262 21.482 28.9373 21.4578C28.946 21.4387 28.955 21.4197 28.9633 21.4004C28.974 21.3757 28.9839 21.3505 28.994 21.3254C29.0018 21.306 29.0099 21.2868 29.0174 21.2671C29.0271 21.2415 29.036 21.2153 29.045 21.1893C29.0519 21.1697 29.059 21.1504 29.0655 21.1306C29.0743 21.1038 29.0821 21.0765 29.0902 21.0493C29.096 21.0299 29.1022 21.0106 29.1076 20.991C29.1155 20.9624 29.1224 20.9333 29.1295 20.9044C29.1341 20.8857 29.1392 20.8672 29.1434 20.8483C29.1507 20.8161 29.1569 20.7835 29.1632 20.7508C29.1663 20.7348 29.17 20.719 29.1729 20.7029C29.1816 20.6539 29.1892 20.6046 29.1957 20.5547C29.2027 20.5012 29.2081 20.4478 29.2123 20.3946C29.2137 20.3774 29.2142 20.3604 29.2153 20.3433C29.2176 20.3072 29.2197 20.2712 29.2208 20.2353C29.2214 20.2153 29.2213 20.1956 29.2215 20.1757C29.2218 20.1426 29.222 20.1095 29.2213 20.0765C29.2209 20.0562 29.22 20.036 29.2191 20.0157Z" fill="#006D8D"/>
<path d="M25.8031 23.2816C25.8135 23.2665 25.8234 23.2511 25.833 23.2354C25.8404 23.2235 25.8477 23.2116 25.8546 23.1994C25.8638 23.183 25.8723 23.166 25.8806 23.1491C25.8867 23.1367 25.8929 23.1245 25.8985 23.1119C25.9066 23.0938 25.9136 23.0751 25.9206 23.0564C25.9252 23.0441 25.9302 23.0321 25.9344 23.0197C25.9414 22.9985 25.9472 22.9768 25.953 22.955C25.9558 22.9443 25.9592 22.9338 25.9617 22.9229C25.9693 22.89 25.9755 22.8564 25.98 22.8222L26.6847 17.4078C26.6894 17.3722 26.6922 17.3368 26.6932 17.3017C26.6953 17.2314 26.6903 17.1623 26.6788 17.095C26.6673 17.0278 26.6494 16.9625 26.6256 16.8999C26.6018 16.8372 26.5721 16.7773 26.5372 16.7208C26.5023 16.6644 26.462 16.6114 26.4171 16.5626C26.3722 16.5139 26.3226 16.4694 26.269 16.43C26.1348 16.3314 25.975 16.2642 25.799 16.2408L25.7653 16.2363C25.9602 16.7028 26.3774 17.1273 26.2794 17.6721C26.0979 18.4676 25.5669 18.8329 25.4459 19.5673C25.3248 20.6076 25.6041 21.1668 25.2505 22.5676C25.19 22.9348 24.8874 23.1796 24.5847 23.3632C24.4096 23.4222 24.2283 23.4427 24.0547 23.4258C24.0689 23.439 24.0838 23.4513 24.0987 23.4636C24.1064 23.47 24.114 23.4764 24.1219 23.4825C24.1361 23.4936 24.1507 23.5043 24.1655 23.5147C24.1754 23.5216 24.1856 23.5281 24.1958 23.5347C24.2098 23.5438 24.2238 23.553 24.2383 23.5614C24.2616 23.5749 24.2855 23.5876 24.31 23.5993C24.3205 23.6043 24.3315 23.6085 24.3422 23.6132C24.36 23.621 24.378 23.6285 24.3964 23.6353C24.4076 23.6394 24.419 23.6432 24.4303 23.6469C24.4501 23.6534 24.4702 23.6592 24.4905 23.6645C24.5005 23.6671 24.5104 23.6699 24.5205 23.6722C24.5511 23.6792 24.582 23.6853 24.6137 23.6895L24.6139 23.6895L24.8258 23.7177C24.8571 23.7219 24.8883 23.7241 24.9194 23.7254C24.9266 23.7257 24.9338 23.7259 24.941 23.7261C24.962 23.7265 24.9829 23.7257 25.0037 23.7248C25.0173 23.7242 25.0309 23.724 25.0443 23.7229C25.0647 23.7212 25.0849 23.7183 25.105 23.7154C25.1171 23.7137 25.1293 23.7125 25.1413 23.7103C25.1644 23.7061 25.187 23.7006 25.2096 23.6949C25.2183 23.6927 25.2271 23.6911 25.2357 23.6887C25.2666 23.68 25.297 23.6699 25.3268 23.6584C25.3332 23.656 25.3392 23.6528 25.3455 23.6503C25.3687 23.6407 25.3918 23.6308 25.4142 23.6196C25.4246 23.6144 25.4345 23.6084 25.4448 23.6029C25.4625 23.5933 25.4803 23.5837 25.4974 23.573C25.5084 23.5662 25.519 23.5586 25.5298 23.5513C25.5454 23.5409 25.5609 23.5303 25.5759 23.519C25.5867 23.5108 25.5971 23.502 25.6077 23.4934C25.6217 23.4819 25.6357 23.4702 25.6492 23.4579C25.6595 23.4485 25.6694 23.4388 25.6793 23.429C25.6921 23.4163 25.7046 23.4034 25.7168 23.3901C25.7263 23.3797 25.7355 23.369 25.7445 23.3582C25.7561 23.3444 25.7674 23.3303 25.7783 23.3158C25.7867 23.3045 25.7951 23.2932 25.8031 23.2816Z" fill="#FFAAD0"/>
<path d="M7.89121 22.5476C7.8973 22.5527 7.90334 22.5579 7.90947 22.563C7.99919 22.6372 8.09301 22.7062 8.19041 22.7698C8.19896 22.7753 8.20761 22.7808 8.21622 22.7863C8.25837 22.8132 8.30117 22.8391 8.3446 22.8639C8.35201 22.8682 8.35933 22.8726 8.36678 22.8768C8.41763 22.9053 8.46925 22.9325 8.52173 22.9582L8.53172 22.9628C8.57908 22.9857 8.62721 23.0072 8.6758 23.0277C8.68812 23.0329 8.70048 23.0379 8.71289 23.043C8.75782 23.0612 8.80323 23.0784 8.8491 23.0945C8.85748 23.0975 8.86573 23.1007 8.87414 23.1035C8.92802 23.1219 8.98253 23.1388 9.03757 23.1542C9.04822 23.1571 9.059 23.1597 9.06967 23.1625C9.11418 23.1744 9.15905 23.1853 9.20423 23.1952C9.21953 23.1985 9.23482 23.2018 9.25019 23.2049C9.29905 23.2148 9.34825 23.2236 9.39781 23.2311C9.40498 23.2322 9.41206 23.2336 9.41925 23.2347C9.47543 23.2427 9.53212 23.2489 9.58909 23.2538C9.60416 23.2551 9.61931 23.256 9.63443 23.257C9.67816 23.2601 9.7221 23.2623 9.76622 23.2635C9.78287 23.2639 9.79947 23.2645 9.81615 23.2647C9.82347 23.2647 9.83087 23.2643 9.83819 23.2643C9.7794 23.1399 9.7377 23.0053 9.71912 22.8625L9.01438 17.4481C9.00144 17.3488 9.00052 17.2498 9.00898 17.1523C8.97338 17.1625 8.93778 17.1728 8.90278 17.1842L8.89898 17.1855C8.80685 17.2158 8.71678 17.2501 8.62903 17.2885C8.65916 17.4304 8.69 17.5711 8.71996 17.7109C8.74323 17.7284 8.76142 17.7532 8.76966 17.7837C8.77931 17.8194 8.77322 17.8552 8.75675 17.8852C8.94513 18.7919 9.06608 19.668 8.66687 20.6098C8.48528 20.977 8.84844 21.4666 8.60634 21.7725C8.29615 22.1907 7.80946 22.2116 7.39187 22.0169L7.3916 22.0168L7.39673 22.0233C7.42969 22.0675 7.46386 22.1108 7.49901 22.1531C7.50418 22.1593 7.50932 22.1656 7.51453 22.1718C7.59096 22.2624 7.67223 22.3484 7.75803 22.4293L7.77318 22.4433C7.81163 22.479 7.85102 22.5138 7.89121 22.5476Z" fill="#006D8D"/>
<path d="M8.6045 17.6883C8.3591 17.7561 8.13822 17.8929 7.94692 18.0567C7.39206 18.5504 6.99258 19.3347 7.13572 20.0948C7.16549 20.2338 7.36686 20.2345 7.39771 20.0948C7.57417 19.4692 7.89108 18.9064 8.29126 18.4022C8.42545 18.2349 8.57022 18.0782 8.73013 17.9208C8.74119 17.9106 8.74972 17.8983 8.75689 17.8853C8.77336 17.8553 8.77945 17.8195 8.7698 17.7838C8.76156 17.7533 8.74338 17.7285 8.7201 17.711C8.68805 17.6869 8.64605 17.6769 8.6045 17.6883Z" fill="white"/>
<path d="M11.5479 17.0083C11.5454 16.9974 11.542 16.987 11.5391 16.9762C11.5334 16.9545 11.5276 16.9327 11.5206 16.9116C11.5164 16.8991 11.5114 16.8871 11.5068 16.8749C11.4998 16.8562 11.4928 16.8375 11.4847 16.8193C11.4791 16.8067 11.4729 16.7945 11.4668 16.7822C11.4585 16.7652 11.45 16.7483 11.4408 16.7319C11.4339 16.7196 11.4266 16.7077 11.4192 16.6958C11.4096 16.6802 11.3997 16.6647 11.3893 16.6497C11.3813 16.638 11.3729 16.6267 11.3644 16.6154C11.3536 16.601 11.3423 16.5869 11.3308 16.5731C11.3217 16.5623 11.3125 16.5516 11.303 16.5412C11.2908 16.5279 11.2783 16.515 11.2655 16.5023C11.2556 16.4925 11.2457 16.4828 11.2354 16.4734C11.2219 16.4611 11.208 16.4494 11.1939 16.4379C11.1833 16.4292 11.1729 16.4205 11.1621 16.4123C11.1471 16.401 11.1316 16.3904 11.116 16.3799C11.1052 16.3727 11.0947 16.3651 11.0836 16.3582C11.0665 16.3476 11.0488 16.3381 11.0311 16.3285C11.0208 16.3229 11.0109 16.3169 11.0004 16.3116C10.9781 16.3005 10.9552 16.2907 10.9321 16.2812C10.9257 16.2786 10.9195 16.2754 10.913 16.2729C10.8832 16.2613 10.8528 16.2512 10.8219 16.2425C10.8133 16.2401 10.8044 16.2386 10.7957 16.2364C10.7732 16.2306 10.7506 16.2251 10.7276 16.221C10.7155 16.2188 10.7032 16.2176 10.691 16.2158C10.671 16.2129 10.6509 16.2101 10.6306 16.2084C10.6171 16.2073 10.6034 16.2071 10.5898 16.2065C10.569 16.2056 10.5483 16.2048 10.5273 16.2052C10.52 16.2053 10.5128 16.2056 10.5055 16.2059C10.4746 16.2072 10.4435 16.2093 10.4122 16.2135L10.412 16.2135L10.3975 16.2155C10.9937 16.9124 10.2622 18.0059 10.4826 18.8969C10.7247 19.6312 11.1483 20.2432 11.3904 20.9775C11.7129 21.9013 10.9852 22.8246 10.0977 23.1056C10.1308 23.182 10.1728 23.2532 10.2219 23.3182L10.2243 23.3215C10.2387 23.3404 10.254 23.3586 10.2696 23.3765L10.2798 23.3881C10.2943 23.4042 10.3096 23.4198 10.3251 23.435C10.3302 23.4399 10.3352 23.4448 10.3404 23.4497C10.3553 23.4637 10.3706 23.4772 10.3863 23.4902C10.3928 23.4956 10.3994 23.5008 10.406 23.5061C10.4213 23.5181 10.4367 23.5299 10.4526 23.5411C10.4604 23.5466 10.4683 23.5517 10.4762 23.5569C10.4918 23.5672 10.5074 23.5774 10.5235 23.5869C10.5325 23.5922 10.5417 23.5969 10.5508 23.6019C10.5666 23.6105 10.5822 23.6192 10.5984 23.627C10.609 23.6321 10.6199 23.6364 10.6307 23.6411C10.6541 23.6514 10.6779 23.6609 10.7022 23.6695C10.72 23.6758 10.7379 23.6822 10.7561 23.6875C10.7678 23.6909 10.7798 23.6933 10.7917 23.6963C10.8084 23.7005 10.8251 23.7049 10.8422 23.7082C10.8544 23.7106 10.8668 23.7123 10.8792 23.7143C10.8962 23.717 10.9133 23.7196 10.9305 23.7215C10.9431 23.7228 10.9558 23.7236 10.9685 23.7244C10.9859 23.7256 11.0032 23.7266 11.0208 23.7269C11.0373 23.7271 11.0539 23.7271 11.0706 23.7266C11.0785 23.7263 11.0864 23.7262 11.0944 23.7258C11.1206 23.7243 11.1469 23.7222 11.1733 23.7187L11.3852 23.6905C11.4556 23.6811 11.5234 23.6647 11.588 23.6422C11.6526 23.6196 11.714 23.5908 11.7716 23.5566C11.8869 23.4882 11.987 23.398 12.0671 23.2925C12.1072 23.2397 12.1423 23.183 12.1718 23.1232C12.1865 23.0934 12.1999 23.0627 12.2118 23.0314C12.2356 22.9688 12.2535 22.9035 12.265 22.8362C12.2822 22.7354 12.2848 22.6303 12.2709 22.5235L11.5662 17.1091C11.5617 17.0748 11.5555 17.0413 11.5479 17.0083Z" fill="#FFAAD0"/>
<path d="M18.7032 24.8818L18.0572 24.843C18.0432 24.8422 18.0293 24.8418 18.0155 24.8418C17.6484 24.8418 17.3377 25.1336 17.3157 25.5087C17.2928 25.8979 17.5891 26.2352 17.974 26.2583L18.6201 26.2971C18.6341 26.298 18.648 26.2984 18.6618 26.2984C19.0288 26.2984 19.3395 26.0066 19.3616 25.6315C19.3844 25.2423 19.0882 24.905 18.7032 24.8818Z" fill="#F37435"/>
<path d="M7.27486 20.3244C7.13739 20.3198 7.02226 20.4287 7.01772 20.5677C7.01317 20.7067 7.12092 20.8231 7.25838 20.8277C7.39585 20.8323 7.51098 20.7233 7.51551 20.5843C7.52007 20.4454 7.41233 20.329 7.27486 20.3244Z" fill="white"/>
<path d="M24.2295 21.7837C24.3764 21.828 24.5309 21.7435 24.5746 21.595C24.6184 21.4465 24.5348 21.2903 24.3879 21.2461C24.2411 21.2019 24.0866 21.2864 24.0429 21.4349C23.9991 21.5833 24.0827 21.7395 24.2295 21.7837Z" fill="white"/>
<path d="M24.5291 21.0406C24.7456 20.3164 24.877 19.5759 24.9867 18.8304C25.0395 18.4587 25.0825 18.0856 25.1142 17.7111C25.133 17.4503 25.1553 17.1852 25.2292 16.941C25.2411 16.8903 25.2796 16.833 25.2868 16.8046C25.3584 16.7944 25.4083 16.7274 25.3981 16.655C25.388 16.5825 25.3218 16.5321 25.2501 16.5423C25.1032 16.5512 24.9957 16.6771 24.9264 16.7876C24.7675 17.0539 24.694 17.3536 24.6366 17.6484C24.5625 18.0166 24.4998 18.3861 24.4468 18.757C24.3442 19.5021 24.2641 20.2475 24.2698 21.0028C24.2715 21.1538 24.4854 21.1837 24.5291 21.0406Z" fill="white"/>
<path d="M27.5174 18.2539C27.4006 18.2539 27.4004 18.4375 27.5174 18.4375C27.6342 18.4375 27.6344 18.2539 27.5174 18.2539Z" fill="white"/>
<path d="M28.3807 19.791C28.4975 19.791 28.4977 19.6074 28.3807 19.6074C28.2638 19.6074 28.2636 19.791 28.3807 19.791Z" fill="white"/>
<path d="M27.3231 20.4805C27.2062 20.4805 27.206 20.664 27.3231 20.664C27.4399 20.664 27.4401 20.4805 27.3231 20.4805Z" fill="white"/>
<path d="M28.0564 21.7031C27.9396 21.7031 27.9394 21.8867 28.0564 21.8867C28.1733 21.8867 28.1735 21.7031 28.0564 21.7031Z" fill="white"/>
<path d="M26.6756 22.8145C26.5588 22.8145 26.5586 22.998 26.6756 22.998C26.7924 22.998 26.7926 22.8145 26.6756 22.8145Z" fill="white"/>
<path d="M8.98614 22.6035C9.10298 22.6035 9.10317 22.4199 8.98614 22.4199C8.8693 22.4199 8.86911 22.6035 8.98614 22.6035Z" fill="white"/>
<path d="M7.77813 21.2656C7.66129 21.2656 7.6611 21.4492 7.77813 21.4492C7.89496 21.4492 7.89514 21.2656 7.77813 21.2656Z" fill="white"/>
<path d="M8.53301 19.3555C8.64985 19.3555 8.65004 19.1719 8.53301 19.1719C8.41617 19.1719 8.41599 19.3555 8.53301 19.3555Z" fill="white"/>
<path d="M8.85626 20.6406C8.97309 20.6406 8.97328 20.457 8.85626 20.457C8.73942 20.457 8.73922 20.6406 8.85626 20.6406Z" fill="white"/>
</svg>
