<svg width="103" height="53" viewBox="0 0 103 53" fill="none" xmlns="http://www.w3.org/2000/svg">
<circle cx="100.688" cy="50.9357" r="2.06626" transform="rotate(180 100.688 50.9357)" fill="#F37435"/>
<circle cx="93.112" cy="50.9357" r="2.06626" transform="rotate(180 93.112 50.9357)" fill="#F37435"/>
<circle cx="85.5353" cy="50.9357" r="2.06626" transform="rotate(180 85.5353 50.9357)" fill="#F37435"/>
<circle cx="77.9591" cy="50.9357" r="2.06626" transform="rotate(180 77.9591 50.9357)" fill="#F37435"/>
<circle cx="70.383" cy="50.9357" r="2.06626" transform="rotate(180 70.383 50.9357)" fill="#F37435"/>
<circle cx="62.8068" cy="50.9357" r="2.06626" transform="rotate(180 62.8068 50.9357)" fill="#F37435"/>
<circle cx="55.2301" cy="50.9357" r="2.06626" transform="rotate(180 55.2301 50.9357)" fill="#F37435"/>
<circle cx="100.688" cy="44.049" r="2.06626" transform="rotate(180 100.688 44.049)" fill="#F37435"/>
<circle cx="93.112" cy="44.049" r="2.06626" transform="rotate(180 93.112 44.049)" fill="#F37435"/>
<circle cx="85.5353" cy="44.049" r="2.06626" transform="rotate(180 85.5353 44.049)" fill="#F37435"/>
<circle cx="77.9591" cy="44.049" r="2.06626" transform="rotate(180 77.9591 44.049)" fill="#F37435"/>
<circle cx="70.383" cy="44.049" r="2.06626" transform="rotate(180 70.383 44.049)" fill="#F37435"/>
<circle cx="62.8068" cy="44.049" r="2.06626" transform="rotate(180 62.8068 44.049)" fill="#F37435"/>
<circle cx="55.2301" cy="44.049" r="2.06626" transform="rotate(180 55.2301 44.049)" fill="#F37435"/>
<circle cx="100.688" cy="37.1603" r="2.06626" transform="rotate(180 100.688 37.1603)" fill="#F37435"/>
<circle cx="93.112" cy="37.1603" r="2.06626" transform="rotate(180 93.112 37.1603)" fill="#F37435"/>
<circle cx="85.5353" cy="37.1603" r="2.06626" transform="rotate(180 85.5353 37.1603)" fill="#F37435"/>
<circle cx="77.9591" cy="37.1603" r="2.06626" transform="rotate(180 77.9591 37.1603)" fill="#F37435"/>
<circle cx="70.383" cy="37.1603" r="2.06626" transform="rotate(180 70.383 37.1603)" fill="#F37435"/>
<circle cx="62.8068" cy="37.1603" r="2.06626" transform="rotate(180 62.8068 37.1603)" fill="#F37435"/>
<circle cx="55.2301" cy="37.1603" r="2.06626" transform="rotate(180 55.2301 37.1603)" fill="#F37435"/>
<circle cx="100.688" cy="30.2736" r="2.06626" transform="rotate(180 100.688 30.2736)" fill="#F37435"/>
<circle cx="93.112" cy="30.2736" r="2.06626" transform="rotate(180 93.112 30.2736)" fill="#F37435"/>
<circle cx="85.5353" cy="30.2736" r="2.06626" transform="rotate(180 85.5353 30.2736)" fill="#F37435"/>
<circle cx="77.9591" cy="30.2736" r="2.06626" transform="rotate(180 77.9591 30.2736)" fill="#F37435"/>
<circle cx="70.383" cy="30.2736" r="2.06626" transform="rotate(180 70.383 30.2736)" fill="#F37435"/>
<circle cx="62.8068" cy="30.2736" r="2.06626" transform="rotate(180 62.8068 30.2736)" fill="#F37435"/>
<circle cx="55.2301" cy="30.2736" r="2.06626" transform="rotate(180 55.2301 30.2736)" fill="#F37435"/>
<circle cx="100.688" cy="23.3849" r="2.06626" transform="rotate(180 100.688 23.3849)" fill="#F37435"/>
<circle cx="93.112" cy="23.3849" r="2.06626" transform="rotate(180 93.112 23.3849)" fill="#F37435"/>
<circle cx="85.5353" cy="23.3849" r="2.06626" transform="rotate(180 85.5353 23.3849)" fill="#F37435"/>
<circle cx="77.9591" cy="23.3849" r="2.06626" transform="rotate(180 77.9591 23.3849)" fill="#F37435"/>
<circle cx="70.383" cy="23.3849" r="2.06626" transform="rotate(180 70.383 23.3849)" fill="#F37435"/>
<circle cx="62.8068" cy="23.3849" r="2.06626" transform="rotate(180 62.8068 23.3849)" fill="#F37435"/>
<circle cx="55.2301" cy="23.3849" r="2.06626" transform="rotate(180 55.2301 23.3849)" fill="#F37435"/>
<circle cx="100.688" cy="16.4982" r="2.06626" transform="rotate(180 100.688 16.4982)" fill="#F37435"/>
<circle cx="93.112" cy="16.4982" r="2.06626" transform="rotate(180 93.112 16.4982)" fill="#F37435"/>
<circle cx="85.5353" cy="16.4982" r="2.06626" transform="rotate(180 85.5353 16.4982)" fill="#F37435"/>
<circle cx="77.9591" cy="16.4982" r="2.06626" transform="rotate(180 77.9591 16.4982)" fill="#F37435"/>
<circle cx="70.383" cy="16.4982" r="2.06626" transform="rotate(180 70.383 16.4982)" fill="#F37435"/>
<circle cx="62.8068" cy="16.4982" r="2.06626" transform="rotate(180 62.8068 16.4982)" fill="#F37435"/>
<circle cx="55.2301" cy="16.4982" r="2.06626" transform="rotate(180 55.2301 16.4982)" fill="#F37435"/>
<circle cx="100.688" cy="9.60952" r="2.06626" transform="rotate(180 100.688 9.60952)" fill="#F37435"/>
<circle cx="93.112" cy="9.60952" r="2.06626" transform="rotate(180 93.112 9.60952)" fill="#F37435"/>
<circle cx="85.5353" cy="9.60952" r="2.06626" transform="rotate(180 85.5353 9.60952)" fill="#F37435"/>
<circle cx="77.9591" cy="9.60952" r="2.06626" transform="rotate(180 77.9591 9.60952)" fill="#F37435"/>
<circle cx="70.383" cy="9.60952" r="2.06626" transform="rotate(180 70.383 9.60952)" fill="#F37435"/>
<circle cx="62.8068" cy="9.60952" r="2.06626" transform="rotate(180 62.8068 9.60952)" fill="#F37435"/>
<circle cx="55.2301" cy="9.60952" r="2.06626" transform="rotate(180 55.2301 9.60952)" fill="#F37435"/>
<circle cx="100.688" cy="2.7228" r="2.06626" transform="rotate(180 100.688 2.7228)" fill="#F37435"/>
<circle cx="93.112" cy="2.7228" r="2.06626" transform="rotate(180 93.112 2.7228)" fill="#F37435"/>
<circle cx="85.5353" cy="2.7228" r="2.06626" transform="rotate(180 85.5353 2.7228)" fill="#F37435"/>
<circle cx="77.9591" cy="2.7228" r="2.06626" transform="rotate(180 77.9591 2.7228)" fill="#F37435"/>
<circle cx="70.383" cy="2.7228" r="2.06626" transform="rotate(180 70.383 2.7228)" fill="#F37435"/>
<circle cx="62.8068" cy="2.7228" r="2.06626" transform="rotate(180 62.8068 2.7228)" fill="#F37435"/>
<circle cx="55.2301" cy="2.7228" r="2.06626" transform="rotate(180 55.2301 2.7228)" fill="#F37435"/>
<circle cx="47.6354" cy="50.9357" r="2.06626" transform="rotate(180 47.6354 50.9357)" fill="#F37435"/>
<circle cx="40.0592" cy="50.9357" r="2.06626" transform="rotate(180 40.0592 50.9357)" fill="#F37435"/>
<circle cx="32.4831" cy="50.9357" r="2.06626" transform="rotate(180 32.4831 50.9357)" fill="#F37435"/>
<circle cx="24.9064" cy="50.9357" r="2.06626" transform="rotate(180 24.9064 50.9357)" fill="#F37435"/>
<circle cx="17.3302" cy="50.9357" r="2.06626" transform="rotate(180 17.3302 50.9357)" fill="#F37435"/>
<circle cx="9.75405" cy="50.9357" r="2.06626" transform="rotate(180 9.75405 50.9357)" fill="#F37435"/>
<circle cx="2.17739" cy="50.9357" r="2.06626" transform="rotate(180 2.17739 50.9357)" fill="#F37435"/>
<circle cx="47.6354" cy="44.049" r="2.06626" transform="rotate(180 47.6354 44.049)" fill="#F37435"/>
<circle cx="40.0592" cy="44.049" r="2.06626" transform="rotate(180 40.0592 44.049)" fill="#F37435"/>
<circle cx="32.4831" cy="44.049" r="2.06626" transform="rotate(180 32.4831 44.049)" fill="#F37435"/>
<circle cx="24.9064" cy="44.049" r="2.06626" transform="rotate(180 24.9064 44.049)" fill="#F37435"/>
<circle cx="17.3302" cy="44.049" r="2.06626" transform="rotate(180 17.3302 44.049)" fill="#F37435"/>
<circle cx="9.75405" cy="44.049" r="2.06626" transform="rotate(180 9.75405 44.049)" fill="#F37435"/>
<circle cx="2.17739" cy="44.049" r="2.06626" transform="rotate(180 2.17739 44.049)" fill="#F37435"/>
<circle cx="47.6354" cy="37.1603" r="2.06626" transform="rotate(180 47.6354 37.1603)" fill="#F37435"/>
<circle cx="40.0592" cy="37.1603" r="2.06626" transform="rotate(180 40.0592 37.1603)" fill="#F37435"/>
<circle cx="32.4831" cy="37.1603" r="2.06626" transform="rotate(180 32.4831 37.1603)" fill="#F37435"/>
<circle cx="24.9064" cy="37.1603" r="2.06626" transform="rotate(180 24.9064 37.1603)" fill="#F37435"/>
<circle cx="17.3302" cy="37.1603" r="2.06626" transform="rotate(180 17.3302 37.1603)" fill="#F37435"/>
<circle cx="9.75405" cy="37.1603" r="2.06626" transform="rotate(180 9.75405 37.1603)" fill="#F37435"/>
<circle cx="2.17739" cy="37.1603" r="2.06626" transform="rotate(180 2.17739 37.1603)" fill="#F37435"/>
<circle cx="47.6354" cy="30.2736" r="2.06626" transform="rotate(180 47.6354 30.2736)" fill="#F37435"/>
<circle cx="40.0592" cy="30.2736" r="2.06626" transform="rotate(180 40.0592 30.2736)" fill="#F37435"/>
<circle cx="32.4831" cy="30.2736" r="2.06626" transform="rotate(180 32.4831 30.2736)" fill="#F37435"/>
<circle cx="24.9064" cy="30.2736" r="2.06626" transform="rotate(180 24.9064 30.2736)" fill="#F37435"/>
<circle cx="17.3302" cy="30.2736" r="2.06626" transform="rotate(180 17.3302 30.2736)" fill="#F37435"/>
<circle cx="9.75405" cy="30.2736" r="2.06626" transform="rotate(180 9.75405 30.2736)" fill="#F37435"/>
<circle cx="2.17739" cy="30.2736" r="2.06626" transform="rotate(180 2.17739 30.2736)" fill="#F37435"/>
<circle cx="47.6354" cy="23.3849" r="2.06626" transform="rotate(180 47.6354 23.3849)" fill="#F37435"/>
<circle cx="40.0592" cy="23.3849" r="2.06626" transform="rotate(180 40.0592 23.3849)" fill="#F37435"/>
<circle cx="32.4831" cy="23.3849" r="2.06626" transform="rotate(180 32.4831 23.3849)" fill="#F37435"/>
<circle cx="24.9064" cy="23.3849" r="2.06626" transform="rotate(180 24.9064 23.3849)" fill="#F37435"/>
<circle cx="17.3302" cy="23.3849" r="2.06626" transform="rotate(180 17.3302 23.3849)" fill="#F37435"/>
<circle cx="9.75405" cy="23.3849" r="2.06626" transform="rotate(180 9.75405 23.3849)" fill="#F37435"/>
<circle cx="2.17739" cy="23.3849" r="2.06626" transform="rotate(180 2.17739 23.3849)" fill="#F37435"/>
<circle cx="47.6354" cy="16.4982" r="2.06626" transform="rotate(180 47.6354 16.4982)" fill="#F37435"/>
<circle cx="40.0592" cy="16.4982" r="2.06626" transform="rotate(180 40.0592 16.4982)" fill="#F37435"/>
<circle cx="32.4831" cy="16.4982" r="2.06626" transform="rotate(180 32.4831 16.4982)" fill="#F37435"/>
<circle cx="24.9064" cy="16.4982" r="2.06626" transform="rotate(180 24.9064 16.4982)" fill="#F37435"/>
<circle cx="17.3302" cy="16.4982" r="2.06626" transform="rotate(180 17.3302 16.4982)" fill="#F37435"/>
<circle cx="9.75405" cy="16.4982" r="2.06626" transform="rotate(180 9.75405 16.4982)" fill="#F37435"/>
<circle cx="2.17739" cy="16.4982" r="2.06626" transform="rotate(180 2.17739 16.4982)" fill="#F37435"/>
<circle cx="47.6354" cy="9.60952" r="2.06626" transform="rotate(180 47.6354 9.60952)" fill="#F37435"/>
<circle cx="40.0592" cy="9.60952" r="2.06626" transform="rotate(180 40.0592 9.60952)" fill="#F37435"/>
<circle cx="32.4831" cy="9.60952" r="2.06626" transform="rotate(180 32.4831 9.60952)" fill="#F37435"/>
<circle cx="24.9064" cy="9.60952" r="2.06626" transform="rotate(180 24.9064 9.60952)" fill="#F37435"/>
<circle cx="17.3302" cy="9.60952" r="2.06626" transform="rotate(180 17.3302 9.60952)" fill="#F37435"/>
<circle cx="9.75405" cy="9.60952" r="2.06626" transform="rotate(180 9.75405 9.60952)" fill="#F37435"/>
<circle cx="2.17739" cy="9.60952" r="2.06626" transform="rotate(180 2.17739 9.60952)" fill="#F37435"/>
<circle cx="47.6354" cy="2.7228" r="2.06626" transform="rotate(180 47.6354 2.7228)" fill="#F37435"/>
<circle cx="40.0592" cy="2.7228" r="2.06626" transform="rotate(180 40.0592 2.7228)" fill="#F37435"/>
<circle cx="32.4826" cy="2.7228" r="2.06626" transform="rotate(180 32.4826 2.7228)" fill="#F37435"/>
<circle cx="24.9064" cy="2.7228" r="2.06626" transform="rotate(180 24.9064 2.7228)" fill="#F37435"/>
<circle cx="17.3302" cy="2.7228" r="2.06626" transform="rotate(180 17.3302 2.7228)" fill="#F37435"/>
<circle cx="9.75405" cy="2.7228" r="2.06626" transform="rotate(180 9.75405 2.7228)" fill="#F37435"/>
<circle cx="2.17739" cy="2.7228" r="2.06626" transform="rotate(180 2.17739 2.7228)" fill="#F37435"/>
</svg>
