<svg width="46" height="52" viewBox="0 0 46 52" fill="none" xmlns="http://www.w3.org/2000/svg">
<path d="M38.9459 37.1824C38.7163 36.2266 38.4743 35.1949 38.2305 34.0462C36.7555 27.1143 35.4073 26.9866 34.7011 26.6018C33.9949 26.2161 26.3559 22.3027 26.3559 22.3027L22.9927 24.0991V37.1824H38.9459Z" fill="url(#paint0_linear_2444_20114)"/>
<path d="M22.991 37.1824V24.0991L19.6236 22.3027C19.6236 22.3027 11.9871 26.2161 11.2818 26.6018C10.5755 26.9866 9.22741 27.1143 7.75071 34.0462C7.50529 35.1949 7.26486 36.2266 7.03613 37.1824H22.991Z" fill="url(#paint1_linear_2444_20114)"/>
<path d="M19.9013 18.2519L22.9657 17.832L26.0309 18.2519C26.0309 18.2519 25.8056 21.0175 26.3557 22.3022C26.3557 22.3022 24.7028 24.2263 22.9657 24.0986C21.231 24.2255 19.5757 22.3022 19.5757 22.3022C20.1275 21.0167 19.9013 18.2519 19.9013 18.2519Z" fill="#F4C297"/>
<path d="M16.3647 11.4669H16.4975C16.4407 11.017 16.3848 10.5737 16.3305 10.1538C16.0484 7.98177 15.4098 1.63086 22.992 1.63086C30.5733 1.63086 29.9355 7.98177 29.6517 10.1538C29.5975 10.5737 29.5415 11.017 29.4873 11.4669H29.6167C30.7695 10.6138 30.8688 12.8435 30.3863 13.6048C29.9873 14.235 29.9781 14.3043 29.7394 14.998C29.5616 15.5105 29.2669 15.579 29.0206 15.5231C28.9889 15.8244 28.9622 16.0907 28.9447 16.301C28.837 17.4731 26.0205 19.8213 25.3819 20.5567C24.7842 21.2429 23.7883 20.9741 23.4678 20.9607C23.1456 20.944 22.992 20.9365 22.992 20.9365C22.992 20.9365 22.8367 20.9449 22.5136 20.9607C22.1948 20.9741 21.1989 21.2429 20.6012 20.5567C19.9609 19.8213 17.1444 17.4739 17.0392 16.301C17.02 16.0907 16.995 15.8252 16.9616 15.5231C16.7162 15.579 16.4215 15.5105 16.2454 14.998C16.0033 14.3043 15.9958 14.235 15.5959 13.6048C15.1151 12.8435 15.2128 10.6138 16.3647 11.4669Z" fill="url(#paint2_linear_2444_20114)"/>
<path d="M16.624 10.7491C16.624 11.1339 17.3151 14.1683 17.4312 15.1366C17.6524 16.9739 18.9722 17.8304 19.3561 18.2528C19.7418 18.6752 21.0115 19.1001 21.5508 19.2921C22.09 19.4849 23.8948 19.4849 24.4324 19.2921C24.9716 19.1001 26.2422 18.6752 26.627 18.2528C27.011 17.8304 28.3307 16.9739 28.5503 15.1366C28.668 14.1683 29.3583 11.1339 29.3583 10.7491C29.3583 10.492 29.4836 10.5863 29.5595 10.8818C29.5345 11.0763 29.5111 11.2716 29.4877 11.4678C29.4877 11.4678 29.0904 15.5415 29.0211 15.5239C28.9894 15.8253 28.9626 16.0916 28.9451 16.3019C28.9343 16.4055 28.8992 16.5181 28.8525 16.6342C28.7097 16.8579 28.4868 17.2202 28.2055 17.6534C27.2956 18.7795 25.8248 20.05 25.3832 20.5567C24.7855 21.2429 23.7896 20.9741 23.469 20.9608C23.1468 20.9441 22.9933 20.9366 22.9933 20.9366C22.9933 20.9366 22.838 20.9449 22.5149 20.9608C22.196 20.9741 21.2002 21.2429 20.6025 20.5567C20.1625 20.05 18.6892 18.7787 17.7801 17.6534C17.4988 17.221 17.2759 16.8579 17.1323 16.6342C17.0864 16.5173 17.0497 16.4055 17.0414 16.3019C17.0222 16.0916 16.9971 15.8261 16.9637 15.5239C16.8944 15.5415 16.4996 11.4678 16.4996 11.4678C16.4729 11.2716 16.4487 11.0763 16.4253 10.8818C16.4996 10.5863 16.624 10.4928 16.624 10.7491Z" fill="#582D11"/>
<path d="M20.9776 17.2417C21.8265 16.4721 22.991 16.2676 22.991 16.2676C22.991 16.2676 24.1555 16.4721 25.0028 17.2417C25.8509 18.0114 25.0028 19.3971 25.0028 19.3971L24.815 19.155C25.7307 17.301 22.991 17.1908 22.991 17.1908C22.991 17.1908 20.2513 17.301 21.1645 19.155L20.9767 19.3971C20.9767 19.3971 20.1294 18.0114 20.9776 17.2417Z" fill="#582D11"/>
<path d="M22.3738 19.293C22.6393 19.0384 22.9915 19.0785 22.9915 19.0785C22.9915 19.0785 23.3421 19.0384 23.6076 19.293C23.873 19.551 24.4365 19.3615 24.4365 19.3615L23.3012 20.2947L22.9915 19.9875L22.681 20.2947L21.5474 19.3615C21.5474 19.3615 22.1092 19.5501 22.3738 19.293Z" fill="#582D11"/>
<path d="M17.5863 0.00195312C17.5863 0.00195312 17.2799 0.855916 23.7452 0.855916C23.7494 0.855916 23.7502 0.856756 23.7544 0.856756C23.8863 0.856756 24.0315 0.860094 24.191 0.870946C30.3758 1.14058 30.0393 7.03153 30.0393 7.03153L30.0302 7.02651C30.0786 8.50822 29.7714 9.99078 29.4876 11.4675L29.3582 10.7488C29.3582 10.7488 29.2956 10.0358 29.0093 9.16267C28.9926 9.11509 28.9767 9.07087 28.96 9.02496C28.8748 8.78454 28.773 8.53411 28.6536 8.28368C26.9716 4.93293 22.9922 6.02395 22.9922 6.02395C22.9922 6.02395 19.0096 4.9321 17.3275 8.28786C17.2098 8.53245 17.1113 8.77535 17.0278 9.01326C17.0095 9.06585 16.9911 9.11427 16.9744 9.16769C16.6897 10.0375 16.6246 10.7496 16.6246 10.7496L16.4986 11.4683C16.3183 10.5434 16.1305 9.61513 16.0261 8.68604C16.0261 8.68186 16.0244 8.67684 16.0244 8.67016C15.3232 3.74754 17.5863 0.00195312 17.5863 0.00195312Z" fill="#582D11"/>
<path d="M22.9917 24.0991L25.38 26.8272L27.6522 22.9664L26.355 22.3027C26.355 22.3027 24.4375 23.7769 22.9917 24.0991Z" fill="url(#paint3_linear_2444_20114)"/>
<path d="M22.9918 24.0991L20.6018 26.8272L18.3296 22.9664L19.6243 22.3027C19.6243 22.3027 21.5476 23.7769 22.9918 24.0991Z" fill="url(#paint4_linear_2444_20114)"/>
<path d="M23.4072 26.8268L24.1736 25.4486L22.9915 24.0996L21.8087 25.4486L22.575 26.8268L21.5474 33.5709L22.9915 35.869L24.4373 33.5709L23.4072 26.8268Z" fill="url(#paint5_linear_2444_20114)"/>
<path d="M33.4264 38.6535C33.3697 38.6535 33.2762 38.6727 33.1526 38.7111C33.1234 38.7211 33.0858 38.7311 33.0516 38.7445C31.0682 39.3973 22.9927 43.4876 22.9927 43.4876V35.5715L29.5022 23.9132L29.7418 23.8965C31.6358 24.8907 34.2011 26.2455 34.8255 26.607C35.3981 26.9442 35.8523 27.5377 36.5702 28.6021C37.1269 29.4302 37.8398 30.5396 38.8941 32.0388C41.3141 35.4747 43.856 40.4341 43.856 40.4341C43.856 40.4341 46.5264 44.2498 43.856 46.0303C42.8501 46.704 41.1372 47.5671 39.3933 48.381C36.6954 49.6482 33.9265 50.7977 33.5892 50.9346C33.5692 50.9446 33.55 50.9505 33.55 50.9505V50.9346L33.3154 49.5155L32.8788 46.8618L32.4088 43.9943C32.4088 43.9943 32.595 43.9601 32.8788 43.8992C33.2186 43.8299 33.6994 43.7222 34.2011 43.5861C35.2905 43.2965 36.4516 42.8807 36.3256 42.4684C36.096 41.7071 34.3163 38.6535 33.4264 38.6535Z" fill="url(#paint6_linear_2444_20114)"/>
<path d="M12.557 38.6535C12.6163 38.6535 12.7089 38.6727 12.83 38.7111C12.8617 38.7211 12.8976 38.7311 12.9343 38.7445C14.9186 39.3973 22.9924 43.4876 22.9924 43.4876V35.5715L16.4829 23.9132L16.2425 23.8965C14.3476 24.8907 11.784 26.2455 11.1588 26.607C10.5853 26.9442 10.1353 27.5377 9.41494 28.6021C8.85815 29.4302 8.14359 30.5396 7.09012 32.0388C4.67513 35.4747 2.12826 40.4341 2.12826 40.4341C2.12826 40.4341 -0.54216 44.2498 2.12826 46.0303C3.13499 46.704 4.84711 47.5671 6.59261 48.381C9.28891 49.6482 12.0578 50.7977 12.3951 50.9346C12.4159 50.9446 12.4343 50.9505 12.4343 50.9505V50.9346L12.6689 49.5155L13.1038 46.8618L13.5771 43.9943C13.5771 43.9943 13.3876 43.9601 13.1038 43.8992C12.7665 43.8299 12.2866 43.7222 11.784 43.5861C10.6938 43.2965 9.53183 42.8807 9.65787 42.4684C9.88827 41.7071 11.6697 38.6535 12.557 38.6535Z" fill="url(#paint7_linear_2444_20114)"/>
<path d="M34.058 50.9933C34.058 51.5493 33.6089 52.0017 33.0529 52.0017H12.9851C12.4266 52.0017 11.9775 51.5493 11.9775 50.9933C11.9775 50.4382 12.4266 49.9883 12.9851 49.9883H33.0529C33.6089 49.9883 34.058 50.4382 34.058 50.9933Z" fill="url(#paint8_linear_2444_20114)"/>
<path d="M34.058 49.3813C34.058 49.9113 33.6281 50.3412 33.0997 50.3412H12.9375C12.4058 50.3412 11.9775 49.9105 11.9775 49.3813V36.6227C11.9775 36.0926 12.4058 35.666 12.9375 35.666H33.0997C33.6289 35.666 34.058 36.0934 34.058 36.6227V49.3813Z" fill="url(#paint9_linear_2444_20114)"/>
<path d="M23.8819 44.5753C24.3076 43.8524 24.6298 43.6754 24.6499 42.9275C24.6557 42.8974 24.6557 42.8707 24.6557 42.8398C24.6557 41.9366 23.9203 41.2012 23.0171 41.2012C22.113 41.2012 21.3784 41.9366 21.3784 42.8398C21.3784 42.8699 21.3784 42.8966 21.3793 42.9275C21.4026 43.6746 21.7257 43.8516 22.1514 44.5753C22.2499 44.7423 22.2766 44.9125 22.285 45.0327H22.1197V45.4501H22.2983C22.29 45.471 22.2841 45.4986 22.2841 45.5261C22.2841 45.5862 22.3108 45.6421 22.3559 45.6847C22.3108 45.7281 22.2841 45.7807 22.2841 45.8425C22.2841 45.9017 22.3084 45.956 22.3509 45.9969C22.3084 46.0361 22.2841 46.0829 22.2841 46.1355C22.2841 46.234 22.3726 46.3183 22.4995 46.3433C22.5638 46.527 22.7708 46.6597 23.0171 46.6597C23.2625 46.6597 23.4712 46.527 23.5329 46.3433C23.659 46.3183 23.7508 46.234 23.7508 46.1355C23.7508 46.0829 23.7241 46.0361 23.6824 45.9969C23.7241 45.956 23.7508 45.9026 23.7508 45.8425C23.7508 45.7815 23.7225 45.7281 23.6757 45.6847C23.7225 45.6413 23.7508 45.5862 23.7508 45.5261C23.7508 45.4986 23.745 45.4718 23.7341 45.4501H23.9153V45.0327H23.75C23.7533 44.9125 23.7834 44.7423 23.8819 44.5753Z" fill="white"/>
<path d="M23.203 40.7943C23.203 40.9278 23.1196 41.038 23.0169 41.038C22.9134 41.038 22.8315 40.9278 22.8315 40.7943V39.9854C22.8315 39.8527 22.9134 39.7441 23.0169 39.7441C23.1196 39.7441 23.203 39.8527 23.203 39.9854V40.7943Z" fill="white"/>
<path d="M22.076 40.9419C22.1461 41.0579 22.1261 41.194 22.0376 41.2441C21.9516 41.2975 21.8231 41.2432 21.7546 41.1272L21.3523 40.4285C21.2872 40.3125 21.303 40.1731 21.3923 40.1247C21.4817 40.0746 21.6086 40.1255 21.6753 40.2432L22.076 40.9419Z" fill="white"/>
<path d="M21.1758 41.635C21.2918 41.7001 21.3444 41.8287 21.2943 41.913C21.2417 42.0056 21.1065 42.0232 20.9905 41.9539L20.2918 41.5515C20.1757 41.4847 20.1223 41.3587 20.1741 41.2702C20.225 41.1809 20.3611 41.1617 20.4754 41.2327L21.1758 41.635Z" fill="white"/>
<path d="M20.7446 42.6816C20.8765 42.6816 20.9834 42.7668 20.9834 42.8669C20.9834 42.9713 20.8765 43.0531 20.7446 43.0531H19.9366C19.8022 43.0531 19.6953 42.9713 19.6953 42.8669C19.6953 42.7668 19.8022 42.6816 19.9366 42.6816H20.7446Z" fill="white"/>
<path d="M20.8925 43.8085C21.0102 43.7392 21.1463 43.7618 21.1964 43.8469C21.2473 43.9379 21.1939 44.0639 21.0762 44.1307L20.3775 44.5331C20.2623 44.6007 20.1254 44.5832 20.0761 44.4964C20.0269 44.4079 20.0761 44.281 20.193 44.2134L20.8925 43.8085Z" fill="white"/>
<path d="M21.4623 44.6717C21.5157 44.5757 21.6326 44.5415 21.7211 44.5907C21.8087 44.6425 21.8388 44.7611 21.7828 44.8562L21.4506 45.4288C21.3947 45.5265 21.2786 45.5607 21.1885 45.5082C21.1017 45.4572 21.0733 45.3412 21.13 45.2452L21.4623 44.6717Z" fill="white"/>
<path d="M23.9577 40.9419C23.8901 41.0579 23.9076 41.194 23.9961 41.2441C24.0846 41.2975 24.2098 41.2432 24.2774 41.1272L24.6823 40.4285C24.7499 40.3125 24.7315 40.1731 24.6456 40.1247C24.5554 40.0746 24.4285 40.1255 24.3634 40.2432L23.9577 40.9419Z" fill="white"/>
<path d="M24.8563 41.635C24.7411 41.7001 24.6876 41.8287 24.7385 41.913C24.7911 42.0056 24.9264 42.0232 25.0416 41.9539L25.7394 41.5515C25.8563 41.4847 25.9089 41.3587 25.8596 41.2702C25.8071 41.1809 25.6701 41.1617 25.5583 41.2327L24.8563 41.635Z" fill="white"/>
<path d="M25.2913 42.6816C25.1577 42.6816 25.0483 42.7668 25.0483 42.8669C25.0483 42.9713 25.1577 43.0531 25.2913 43.0531H26.0977C26.2329 43.0531 26.3389 42.9713 26.3389 42.8669C26.3389 42.7668 26.2329 42.6816 26.0977 42.6816H25.2913Z" fill="white"/>
<path d="M25.1416 43.8085C25.0247 43.7392 24.8887 43.7618 24.8369 43.8469C24.7877 43.9379 24.8394 44.0639 24.9563 44.1307L25.655 44.5331C25.7702 44.6007 25.9054 44.5832 25.9564 44.4964C26.0073 44.4079 25.9563 44.281 25.8395 44.2134L25.1416 43.8085Z" fill="white"/>
<path d="M24.5722 44.6717C24.5188 44.5757 24.4019 44.5415 24.3126 44.5907C24.2249 44.6425 24.1965 44.7611 24.2524 44.8562L24.5847 45.4288C24.6389 45.5265 24.7567 45.5607 24.846 45.5082C24.9311 45.4572 24.9603 45.3412 24.9052 45.2452L24.5722 44.6717Z" fill="white"/>
<defs>
<linearGradient id="paint0_linear_2444_20114" x1="30.9688" y1="37.182" x2="30.9688" y2="22.3021" gradientUnits="userSpaceOnUse">
<stop stop-color="#9DDEF2"/>
<stop offset="0.1864" stop-color="#A2DFF2"/>
<stop offset="0.4064" stop-color="#B0E4F4"/>
<stop offset="0.6431" stop-color="#C8EBF6"/>
<stop offset="0.8902" stop-color="#E9F5F9"/>
<stop offset="1" stop-color="#FAFAFA"/>
</linearGradient>
<linearGradient id="paint1_linear_2444_20114" x1="15.0137" y1="37.182" x2="15.0137" y2="22.3021" gradientUnits="userSpaceOnUse">
<stop stop-color="#9DDEF2"/>
<stop offset="0.1864" stop-color="#A2DFF2"/>
<stop offset="0.4064" stop-color="#B0E4F4"/>
<stop offset="0.6431" stop-color="#C8EBF6"/>
<stop offset="0.8902" stop-color="#E9F5F9"/>
<stop offset="1" stop-color="#FAFAFA"/>
</linearGradient>
<linearGradient id="paint2_linear_2444_20114" x1="22.9912" y1="21.0233" x2="22.9912" y2="1.63053" gradientUnits="userSpaceOnUse">
<stop offset="0.0242" stop-color="#F7BB7C"/>
<stop offset="1" stop-color="#FFD1A1"/>
</linearGradient>
<linearGradient id="paint3_linear_2444_20114" x1="25.3222" y1="26.8266" x2="25.3222" y2="22.3022" gradientUnits="userSpaceOnUse">
<stop stop-color="#9DDEF2"/>
<stop offset="0.1864" stop-color="#A2DFF2"/>
<stop offset="0.4064" stop-color="#B0E4F4"/>
<stop offset="0.6431" stop-color="#C8EBF6"/>
<stop offset="0.8902" stop-color="#E9F5F9"/>
<stop offset="1" stop-color="#FAFAFA"/>
</linearGradient>
<linearGradient id="paint4_linear_2444_20114" x1="20.6609" y1="26.8266" x2="20.6609" y2="22.3022" gradientUnits="userSpaceOnUse">
<stop stop-color="#9DDEF2"/>
<stop offset="0.1864" stop-color="#A2DFF2"/>
<stop offset="0.4064" stop-color="#B0E4F4"/>
<stop offset="0.6431" stop-color="#C8EBF6"/>
<stop offset="0.8902" stop-color="#E9F5F9"/>
<stop offset="1" stop-color="#FAFAFA"/>
</linearGradient>
<linearGradient id="paint5_linear_2444_20114" x1="22.9921" y1="35.8692" x2="22.9921" y2="24.0994" gradientUnits="userSpaceOnUse">
<stop stop-color="#5EA814"/>
<stop offset="0.351" stop-color="#62A914"/>
<stop offset="0.6685" stop-color="#6DAD12"/>
<stop offset="0.9721" stop-color="#7FB410"/>
<stop offset="1" stop-color="#81B510"/>
</linearGradient>
<linearGradient id="paint6_linear_2444_20114" x1="34.0181" y1="50.951" x2="34.0181" y2="23.8969" gradientUnits="userSpaceOnUse">
<stop stop-color="#062A54"/>
<stop offset="0.2719" stop-color="#072C58"/>
<stop offset="0.5179" stop-color="#083263"/>
<stop offset="0.7539" stop-color="#0B3C75"/>
<stop offset="0.9825" stop-color="#104B8F"/>
<stop offset="1" stop-color="#104C91"/>
</linearGradient>
<linearGradient id="paint7_linear_2444_20114" x1="11.967" y1="50.951" x2="11.967" y2="23.8969" gradientUnits="userSpaceOnUse">
<stop stop-color="#062A54"/>
<stop offset="0.2719" stop-color="#072C58"/>
<stop offset="0.5179" stop-color="#083263"/>
<stop offset="0.7539" stop-color="#0B3C75"/>
<stop offset="0.9825" stop-color="#104B8F"/>
<stop offset="1" stop-color="#104C91"/>
</linearGradient>
<linearGradient id="paint8_linear_2444_20114" x1="11.9775" y1="50.9953" x2="34.058" y2="50.9953" gradientUnits="userSpaceOnUse">
<stop stop-color="#FF7B00"/>
<stop offset="0.0242" stop-color="#FF7D01"/>
<stop offset="0.6742" stop-color="#FFAB0F"/>
<stop offset="1" stop-color="#FFBD14"/>
</linearGradient>
<linearGradient id="paint9_linear_2444_20114" x1="23.0177" y1="50.3414" x2="23.0177" y2="35.6653" gradientUnits="userSpaceOnUse">
<stop stop-color="#9DDEF2"/>
<stop offset="0.1739" stop-color="#A4E0F3"/>
<stop offset="0.4291" stop-color="#B8E6F4"/>
<stop offset="0.7328" stop-color="#D8F0F7"/>
<stop offset="1" stop-color="#FAFAFA"/>
</linearGradient>
</defs>
</svg>
