<svg width="47" height="52" viewBox="0 0 47 52" fill="none" xmlns="http://www.w3.org/2000/svg">
<path d="M40.5262 36.2507C40.088 40.8132 40.9254 47.3112 40.4879 51.3515C40.4879 51.3589 40.4879 51.3589 40.4879 51.367H16.6237C16.6237 51.367 16.6237 51.3589 16.6237 51.3515C16.6163 51.3206 16.6163 51.2669 16.6082 51.1903C16.5081 50.2454 16.4852 49.1701 16.4933 48.0256C16.5007 46.328 16.5934 44.4772 16.6546 42.6338C16.7312 40.3065 16.7695 37.9947 16.5625 36.0511C16.5013 35.4443 16.4086 34.8683 16.2937 34.3462C15.756 31.9187 15.541 28.8233 14.834 23.2319C14.8414 23.2319 14.8495 23.2245 14.8569 23.2245C17.8602 21.9725 21.793 20.2675 22.4456 19.6452C23.713 20.1365 27.246 20.2749 28.5517 20.4207C28.5591 20.4207 28.5591 20.4207 28.5591 20.4207C28.7587 20.3979 29.0121 20.3744 29.3044 20.3515C30.8945 20.2211 33.5907 20.0599 34.666 19.6445C35.3192 20.2668 39.2749 21.9792 42.2775 23.2312C41.5706 28.8226 41.3555 31.9181 40.8179 34.3455C40.6875 34.9295 40.5954 35.5666 40.5262 36.2507Z" fill="#EDEDED"/>
<path d="M27.6947 26.7024L27.0898 23.8268L28.5549 23.7871L30.0193 23.8268L29.4145 26.7024H27.6947Z" fill="#E94E1B"/>
<path d="M27.6946 26.7031L26.2705 41.6662L28.5548 43.6877L30.8384 41.6662L29.4143 26.7031H27.6946Z" fill="#CF4518"/>
<path d="M16.6912 42.6322L18.2658 51.3499V51.3654H10.8693V51.3499L10.1777 40.9192C11.007 35.5193 12.6744 29.5361 14.8323 23.2148L14.8552 23.2229L21.3377 24.9279L18.1193 37.1786L16.6912 42.6322Z" fill="#EDEDED"/>
<path d="M29.3039 51.3509H10.8698L7.21387 39.115C8.04317 33.7151 10.4712 27.6345 14.8335 23.2158L14.8564 23.2238C17.8597 21.9718 21.7925 20.2668 22.4451 19.6445C23.7125 20.1358 29.308 38.7433 29.308 38.7433C29.5479 42.2474 29.3039 51.3509 29.3039 51.3509Z" fill="#575756"/>
<path d="M28.8919 51.3509H46.2494L46.941 40.9201C46.1117 35.5202 44.4443 29.537 42.2864 23.2158L42.2635 23.2238C39.2602 21.9718 35.3274 20.2668 34.6748 19.6445C33.4074 20.1358 28.7199 38.7433 28.7199 38.7433C28.4793 42.2474 28.8919 51.3509 28.8919 51.3509Z" fill="#575756"/>
<path opacity="0.2" d="M30.278 51.3683H16.6247C16.5683 50.8683 16.3089 42.2432 16.3465 41.2385C16.4735 37.6109 16.9789 26.668 17.1583 26.668C17.2101 27.7957 17.2625 28.9227 17.3142 30.0457C17.4654 33.254 17.6348 36.5423 18.8855 39.4953C19.112 40.0329 19.3855 40.5564 19.6966 41.0618C21.0273 43.213 23.0837 44.9489 25.528 45.3642C23.3015 45.0531 21.079 44.7412 18.8525 44.4348C21.862 47.1996 26.3862 50.0517 30.278 51.3683Z" fill="#1D1D1B"/>
<path opacity="0.2" d="M41.3485 51.3486H33.9668C36.3774 50.5327 37.7833 45.6517 38.5763 42.9863C38.8922 41.9292 39.1093 40.7975 39.2558 39.6416C39.8694 34.7962 39.2134 29.5925 39.0999 28.1113C39.1987 28.989 40.3546 33.032 40.7323 38.5656C40.7847 39.3109 41.448 50.7115 41.3485 51.3486Z" fill="#1D1D1B"/>
<path d="M24.3809 16.3262L24.4071 17.595C24.4003 17.6017 24.4071 17.6017 24.4071 17.6017L24.4266 18.9552V18.9619L24.4393 19.5668L24.5173 23.9135L27.0939 23.8611L28.4864 23.8349H28.4931L28.604 23.8282L29.8795 23.802L32.5281 23.7502L32.645 19.5594L32.6578 19.0258L32.6967 17.679V17.6723L32.729 16.5594L24.3809 16.3262Z" fill="#F2C799"/>
<path d="M28.4943 0.761791C32.2322 0.746334 35.2127 3.20602 34.9352 7.63613C34.9029 8.14957 34.8451 8.64217 34.7443 9.15763C35.5763 8.68653 36.3048 9.50911 36.0125 10.7692C35.8062 11.6576 35.3734 12.8505 34.8814 13.0293C34.2914 13.2443 34.1119 12.8767 34.0777 12.8653C33.8142 14.1455 33.708 15.2887 33.251 15.9681C32.7114 16.7719 32.2947 17.3767 31.907 17.8317C31.0279 18.864 30.2981 19.1193 28.62 19.1301C28.6166 19.1301 28.6133 19.1301 28.6106 19.1301C28.6072 19.1301 28.6046 19.1301 28.6012 19.1301C26.9231 19.1408 26.1899 18.8942 25.2981 17.8734C24.905 17.4231 24.4809 16.8236 23.9305 16.0273C23.4654 15.3539 23.3445 14.2121 23.0649 12.9352C23.0306 12.9473 22.8559 13.3169 22.2632 13.1093C21.7685 12.9365 21.3209 11.749 21.1032 10.8633C20.7947 9.60723 21.5131 8.77524 22.3512 9.23559C22.2437 8.72081 22.1791 8.22887 22.1408 7.7161C21.8075 3.2907 24.7564 0.794049 28.4943 0.761791Z" fill="#FFD2A1"/>
<path d="M33.8781 2.04635C35.3142 3.71906 35.7659 5.5813 35.2054 9.02418C34.6435 9.34072 34.3465 9.7594 34.1321 11.4691C33.7242 11.5847 33.5474 11.6109 33.1765 11.7379C35.409 2.61692 31.8761 2.45697 30.9056 2.26812C30.1166 2.1149 26.8888 2.13506 26.1019 2.29904C25.1341 2.49998 21.6032 2.70496 23.952 11.797C23.579 11.6747 23.4016 11.6505 22.993 11.5403C22.7564 9.83332 22.4547 9.41799 21.8888 9.10885C21.2847 5.67404 21.8949 3.94353 23.1267 2.1149C24.8371 -0.423408 31.3115 -0.942901 33.8781 2.04635Z" fill="#3C3C3B"/>
<path d="M26.2653 0.777782C25.7909 0.781815 25.3702 0.960583 24.9535 1.18841C24.3775 1.50427 22.9064 3.63666 23.2136 4.13868C24.4595 6.1743 28.3184 6.75561 31.0415 6.83222C30.7425 6.60238 30.2297 6.14271 30.1289 5.7079C31.5993 6.3571 33.2902 6.49284 34.8453 6.08625C34.3587 4.75426 33.8386 3.36986 32.8029 2.40077C31.9616 1.61381 30.844 1.17227 29.7109 0.96461C28.5778 0.757621 27.4179 0.767702 26.2653 0.777782Z" fill="#3C3C3B"/>
<path d="M24.5312 26.3069C23.0789 24.2579 22.2066 22.1154 22.0225 19.8613L24.4203 18.5273C24.8612 20.6019 26.3457 22.5912 28.554 23.7955L24.5312 26.3069Z" fill="#DADADA"/>
<path d="M32.5775 26.3069C34.0298 24.2579 34.9021 22.1154 35.0863 19.8613L32.6884 18.5273C32.2476 20.6019 30.763 22.5912 28.5547 23.7955L32.5775 26.3069Z" fill="#DADADA"/>
<path d="M29.304 38.7378C29.1965 38.592 29.0964 38.4461 28.9889 38.3003C28.8968 38.1773 28.8121 38.0624 28.72 37.9394C25.2026 33.1081 20.4243 26.7176 20.4243 26.7176C20.4243 26.7176 23.1125 25.3198 22.9203 25.1121L19.9707 25.2122L20.5157 20.7344L23.212 19.1289C25.1703 25.604 27.1219 31.096 28.8497 37.1256C28.9418 37.4408 29.0339 37.7633 29.1186 38.0859C29.1811 38.2996 29.2422 38.5147 29.304 38.7378Z" fill="#3C3C3B"/>
<path d="M36.6858 26.7183C36.6858 26.7183 32.3457 32.7707 29.1199 38.0859C29.0742 38.1551 29.0278 38.2317 28.9895 38.301C28.8974 38.178 28.8128 38.0631 28.7207 37.9401C28.759 37.6639 28.8054 37.395 28.8511 37.1256C29.9573 30.5583 31.9465 25.5738 33.8974 19.1289L36.5937 20.7344L37.1387 25.2122L34.1891 25.1121C33.9976 25.3204 36.6858 26.7183 36.6858 26.7183Z" fill="#3C3C3B"/>
<path d="M28.9722 42.5831C29.3037 42.5831 29.5723 42.3144 29.5723 41.983C29.5723 41.6515 29.3037 41.3828 28.9722 41.3828C28.6408 41.3828 28.3721 41.6515 28.3721 41.983C28.3721 42.3144 28.6408 42.5831 28.9722 42.5831Z" fill="#3C3C3B"/>
<path d="M28.9722 48.4874C29.3037 48.4874 29.5723 48.2187 29.5723 47.8872C29.5723 47.5558 29.3037 47.2871 28.9722 47.2871C28.6408 47.2871 28.3721 47.5558 28.3721 47.8872C28.3721 48.2187 28.6408 48.4874 28.9722 48.4874Z" fill="#3C3C3B"/>
<path d="M38.5107 36.9688H33.6465V38.1489H38.5107V36.9688Z" fill="#3C3C3B"/>
<path d="M18.3524 26.5527H1.28516V50.9276H18.3524V26.5527Z" fill="white"/>
<path d="M18.6946 51.2725H0.941406V26.2109H18.6946V51.2725ZM1.62815 50.5858H18.0086V26.897H1.62815V50.5858Z" fill="#77A7FB"/>
<path d="M3.59766 28.4766H3.93435V31.3381H3.59766V28.4766Z" fill="#77A7FB"/>
<path d="M5.31145 28.4766H5.60875V31.3381H5.36124L4.71909 29.3737L4.73841 30.0961V31.3381H4.42773V28.4766H4.68191L5.34563 30.4246L5.31145 29.5966V28.4766Z" fill="#77A7FB"/>
<path d="M6.04461 29.363C6.02529 29.2947 6.01562 29.2129 6.01562 29.117C6.01562 28.9097 6.05427 28.7454 6.13008 28.6242C6.20738 28.5024 6.35231 28.4414 6.56859 28.4414C6.84582 28.4414 7.01008 28.5744 7.05914 28.8413C7.08069 28.9565 7.09185 29.1014 7.09185 29.2753V29.4448H6.77001V29.253C6.77001 29.0709 6.76035 28.9483 6.74177 28.8851C6.72393 28.8219 6.70089 28.7803 6.67413 28.7603C6.64663 28.7394 6.61172 28.729 6.56787 28.729C6.48685 28.729 6.42738 28.7588 6.39244 28.8182C6.35602 28.8784 6.33894 28.9661 6.33894 29.0836C6.33894 29.201 6.35529 29.2857 6.38725 29.3407C6.41995 29.395 6.46008 29.4463 6.50765 29.4961C6.55596 29.5451 6.58199 29.5734 6.58719 29.5793L6.78339 29.7859C7.01677 30.0312 7.13422 30.3047 7.13422 30.6087C7.13422 30.8555 7.09632 31.045 7.01976 31.1751C6.94321 31.3059 6.79753 31.3713 6.58347 31.3713C6.32408 31.3713 6.16057 31.2576 6.0907 31.0294C6.05057 30.9016 6.03048 30.7343 6.03048 30.527C6.03048 30.521 6.03048 30.5158 6.03048 30.5106V30.2326H6.35676V30.524C6.35676 30.7328 6.37312 30.8793 6.40285 30.9603C6.43333 31.042 6.48981 31.0829 6.57156 31.0829C6.65406 31.0829 6.7113 31.0636 6.74252 31.0249C6.77448 30.9863 6.79232 30.9276 6.79677 30.8488C6.80198 30.77 6.80496 30.6808 6.80496 30.5827C6.80496 30.3843 6.71724 30.197 6.54258 30.023L6.35529 29.8357C6.18806 29.6648 6.08475 29.5072 6.04461 29.363Z" fill="#77A7FB"/>
<path d="M8.2738 28.4766H8.60902V30.6037C8.60902 30.8713 8.56665 31.0668 8.4834 31.1894C8.39942 31.3121 8.25299 31.373 8.04636 31.373C7.83974 31.373 7.69257 31.3121 7.6071 31.1894C7.52163 31.0668 7.47852 30.8713 7.47852 30.6037V28.4766H7.81521V30.5956C7.81521 30.7866 7.82265 30.9003 7.83825 30.9382C7.85461 30.9754 7.87096 31.0051 7.88732 31.0266C7.91853 31.0675 7.97055 31.0891 8.04561 31.0891C8.12068 31.0891 8.1757 31.066 8.21138 31.0207C8.24779 30.9754 8.26638 30.9077 8.26935 30.8178C8.27232 30.7279 8.27305 30.6543 8.27305 30.5985V28.4766H8.2738Z" fill="#77A7FB"/>
<path d="M9.06055 28.4766H9.66035C9.83056 28.4766 9.95393 28.5115 10.0283 28.5821C10.1033 28.6527 10.1472 28.7724 10.1635 28.9411C10.1695 29.0102 10.1732 29.1187 10.1732 29.2659C10.1732 29.4131 10.1539 29.5364 10.116 29.636C10.0773 29.7356 10.0089 29.8003 9.91231 29.83C9.98366 29.8419 10.0379 29.8798 10.0743 29.943C10.1115 30.0062 10.1375 30.1072 10.1524 30.2455C10.168 30.3837 10.1747 30.5889 10.1747 30.8616C10.1747 31.1337 10.1836 31.2935 10.2007 31.3388H9.86624C9.84914 31.3046 9.84022 30.9828 9.84022 30.3748C9.84022 30.1704 9.82016 30.0508 9.78002 30.0181C9.73989 29.9854 9.67892 29.9683 9.59791 29.9683L9.39724 29.9571V31.3388H9.0613V28.4766H9.06055ZM9.83947 29.1774C9.83947 28.9574 9.81942 28.8304 9.78002 28.7954C9.74063 28.7605 9.68339 28.7426 9.60907 28.7426H9.39724V29.7089H9.61204C9.67745 29.7089 9.72428 29.6962 9.75476 29.6717C9.78523 29.6472 9.80677 29.5989 9.82015 29.529C9.83353 29.4584 9.83947 29.3476 9.83947 29.1975V29.1774Z" fill="#77A7FB"/>
<path d="M10.9184 28.4766H11.3235L11.7969 31.3381H11.4796L11.3986 30.7918H10.8798L10.8047 31.3381H10.4844L10.9184 28.4766ZM10.9169 30.5183H11.3562L11.1303 29.0058H11.1251L10.9169 30.5183Z" fill="#77A7FB"/>
<path d="M13.0204 28.4766H13.3178V31.3381H13.0702L12.4281 29.3737L12.4474 30.0961V31.3381H12.1367V28.4766H12.3909L13.0546 30.4246L13.0204 29.5966V28.4766Z" fill="#77A7FB"/>
<path d="M13.7539 29.3033C13.7539 29.0863 13.7717 28.9272 13.8074 28.8254C13.8438 28.7236 13.8817 28.6485 13.9241 28.6009C14.0163 28.4969 14.1508 28.4448 14.3277 28.4434C14.5744 28.4441 14.7342 28.5534 14.8056 28.7696C14.8472 28.8945 14.868 29.0603 14.868 29.2676V29.5842H14.538V29.2654C14.538 29.0818 14.5276 28.9584 14.5083 28.8938C14.4882 28.8291 14.4644 28.7867 14.4355 28.7652C14.4072 28.7444 14.3715 28.734 14.3277 28.734C14.2377 28.734 14.1761 28.7763 14.1411 28.8611C14.1069 28.9465 14.0906 29.0803 14.0906 29.2632V30.5029C14.0906 30.7192 14.1062 30.8708 14.1374 30.957C14.1679 31.0432 14.2281 31.0863 14.3158 31.0863C14.4042 31.0863 14.463 31.0425 14.4927 30.9563C14.5224 30.8693 14.538 30.7177 14.538 30.5007V30.184H14.871V30.4977C14.871 30.798 14.8301 31.0187 14.7484 31.1607C14.6666 31.3019 14.5239 31.3732 14.3203 31.3732C14.1166 31.3732 13.9709 31.2997 13.884 31.1547C13.7977 31.0091 13.7539 30.789 13.7539 30.4955V29.3033Z" fill="#77A7FB"/>
<path d="M15.2793 28.4766H16.1341V28.756H15.6152V29.7349H16.1065V30.0151H15.6152V31.0586H16.1407V31.3381H15.2793V28.4766Z" fill="#77A7FB"/>
<path d="M6.12695 32.4727H6.70222C6.95567 32.4727 7.11472 32.5782 7.18013 32.7885C7.22175 32.9208 7.24183 33.0754 7.24183 33.2523C7.24183 33.4285 7.23663 33.5615 7.22697 33.6507C7.20541 33.8462 7.15338 33.9881 7.07237 34.0781C6.99135 34.1673 6.86796 34.2119 6.70222 34.2119H6.4629V35.3356H6.12695V32.4727ZM6.90513 33.2813C6.90513 33.0851 6.88951 32.9461 6.85904 32.8629C6.82783 32.7804 6.76688 32.7395 6.6762 32.7395H6.4629V33.9317H6.66804C6.76317 33.9317 6.82635 33.89 6.85757 33.8068C6.88953 33.7228 6.90513 33.5667 6.90513 33.3363V33.2813Z" fill="#77A7FB"/>
<path d="M7.54274 33.2499C7.54274 32.9243 7.60071 32.7014 7.71814 32.5802C7.80956 32.4851 7.9441 32.4375 8.1195 32.4375C8.37518 32.4375 8.53944 32.543 8.61005 32.7526C8.65316 32.8768 8.67397 33.0432 8.67397 33.2499V34.5119C8.67397 34.8099 8.6316 35.027 8.54835 35.163C8.46511 35.299 8.3187 35.3666 8.11059 35.3666C7.90174 35.3666 7.75458 35.2983 7.66985 35.1622C7.58438 35.0255 7.54199 34.8085 7.54199 34.5119V33.2499H7.54274ZM8.33727 33.2305C8.33727 33.047 8.32242 32.9176 8.29343 32.8411C8.2637 32.7645 8.20497 32.7266 8.11578 32.7266C8.02734 32.7266 7.96565 32.766 7.93072 32.8441C7.89579 32.9221 7.87869 33.0507 7.87869 33.2298V34.5156C7.87869 34.7334 7.89355 34.882 7.92403 34.9608C7.9545 35.0396 8.01545 35.079 8.10762 35.079C8.19978 35.079 8.26073 35.0389 8.29121 34.9593C8.32168 34.8798 8.33652 34.7319 8.33652 34.5156V33.2305H8.33727Z" fill="#77A7FB"/>
<path d="M9.10938 32.4727H9.44607V35.0562H9.97452V35.3349H9.10938V32.4727Z" fill="#77A7FB"/>
<path d="M10.293 32.4727H10.6296V35.3349H10.293V32.4727Z" fill="#77A7FB"/>
<path d="M11.0918 33.2982C11.0918 33.0812 11.1089 32.9221 11.1453 32.8195C11.181 32.7177 11.2204 32.6426 11.262 32.5951C11.3542 32.491 11.4887 32.4382 11.6656 32.4375C11.9123 32.4382 12.0721 32.5468 12.1435 32.7638C12.1851 32.8887 12.2052 33.0544 12.2052 33.2618V33.5784H11.8759V33.2595C11.8759 33.076 11.8655 32.9526 11.8455 32.8879C11.8261 32.824 11.8009 32.7809 11.7726 32.7601C11.7451 32.7393 11.7087 32.7281 11.6656 32.7281C11.5757 32.7281 11.5132 32.7705 11.479 32.856C11.4449 32.9407 11.4278 33.0752 11.4278 33.258V34.497C11.4278 34.7141 11.4441 34.8657 11.4753 34.9512C11.5058 35.0374 11.5653 35.0805 11.6537 35.0805C11.7421 35.0805 11.8009 35.0366 11.8306 34.9504C11.8603 34.8635 11.8759 34.7118 11.8759 34.4948V34.1782H12.2089V34.4918C12.2089 34.7921 12.1673 35.0129 12.0863 35.1548C12.0045 35.296 11.8611 35.3666 11.6574 35.3666C11.4545 35.3666 11.3088 35.2938 11.2219 35.1474C11.1357 35.0017 11.0918 34.7817 11.0918 34.4881V33.2982Z" fill="#77A7FB"/>
<path d="M13.3815 32.4727H13.7115L13.2499 34.1331V35.3349H12.9133V34.1331L12.416 32.4727H12.7423L13.0805 33.6433H13.0872L13.3815 32.4727Z" fill="#77A7FB"/>
<path d="M16.3782 36.6855H3.25391V37.0289H16.3782V36.6855Z" fill="#77A7FB"/>
<path d="M16.3802 37.8867H3.25586V38.2294H16.3802V37.8867Z" fill="#77A7FB"/>
<path d="M16.3782 39.2734H3.25391V39.6168H16.3782V39.2734Z" fill="#77A7FB"/>
<path d="M16.3802 40.4746H3.25586V40.8172H16.3802V40.4746Z" fill="#77A7FB"/>
<path d="M16.3782 41.7324H3.25391V42.0758H16.3782V41.7324Z" fill="#77A7FB"/>
<path d="M16.3802 42.9336H3.25586V43.277H16.3802V42.9336Z" fill="#77A7FB"/>
<path d="M16.3782 44.3203H3.25391V44.6637H16.3782V44.3203Z" fill="#77A7FB"/>
<path d="M16.3802 45.5195H3.25586V45.8629H16.3802V45.5195Z" fill="#77A7FB"/>
<path d="M14.2815 47.3235C14.7066 47.3235 15.0537 47.6698 15.0537 48.0957C15.0537 48.5216 14.7066 48.8679 14.2815 48.8679C13.8564 48.8679 13.5093 48.5216 13.5093 48.0957C13.5093 47.6691 13.8564 47.3235 14.2815 47.3235ZM14.2815 46.6367C13.4758 46.6367 12.8232 47.29 12.8232 48.095C12.8232 48.9007 13.4758 49.5532 14.2815 49.5532C15.0872 49.5532 15.7398 48.9007 15.7398 48.095C15.7398 47.29 15.0872 46.6367 14.2815 46.6367Z" fill="#999999"/>
<path d="M13.1301 27.5113C13.5703 27.393 13.8324 26.9407 13.7141 26.4999L13.7135 26.4965C13.6651 26.3151 13.5461 26.1605 13.3828 26.0678C13.2202 25.9744 13.0266 25.9501 12.8452 25.9999L9.29075 27.0241C8.87542 27.1356 8.62811 27.5624 8.73967 27.9784L8.74572 28.0019C8.85055 28.3944 9.25378 28.6276 9.64625 28.5221L13.1301 27.5113Z" fill="#F0C997"/>
<path d="M10.4717 27.6347C10.4683 28.0493 10.8024 28.388 11.217 28.3914C11.6317 28.3947 11.9704 28.0607 11.9731 27.6461L11.9852 26.0204C11.9885 25.6058 11.6545 25.2671 11.2399 25.2637C10.8252 25.2603 10.4865 25.5943 10.4838 26.009L10.4717 27.6347Z" fill="#FAD8AC"/>
<path d="M8.97073 27.5597C8.96737 28.0099 9.3007 28.3775 9.71535 28.3809C10.13 28.3842 10.4687 28.0214 10.4721 27.5711L10.4855 25.8056C10.4889 25.3553 10.1555 24.9878 9.74089 24.9844C9.32624 24.9817 8.98752 25.3439 8.98416 25.7942L8.97073 27.5597Z" fill="#FAD8AC"/>
<path d="M7.46878 27.548C7.46541 27.9982 7.79875 28.3658 8.2134 28.3692C8.62805 28.3726 8.96677 28.0097 8.97013 27.5594L8.98356 25.7939C8.98692 25.3437 8.65359 24.976 8.23893 24.9727C7.82428 24.9693 7.48558 25.3322 7.48222 25.7825L7.46878 27.548Z" fill="#FAD8AC"/>
<path d="M6.22463 27.3878C6.22194 27.7614 6.49815 28.0666 6.84224 28.0686C7.18633 28.0713 7.46724 27.7702 7.46992 27.3965L7.48068 25.9315C7.48337 25.5578 7.20715 25.2527 6.86307 25.25C6.51898 25.2473 6.23807 25.5484 6.23539 25.9221L6.22463 27.3878Z" fill="#FAD8AC"/>
<path d="M27.3363 15.2037C27.1733 15.3527 27.9063 16.1177 28.8313 16.1407C29.8793 16.1667 30.4403 15.3457 30.3133 15.2217C30.2203 15.1317 29.7853 15.3007 28.9193 15.3287C27.9723 15.3597 27.4723 15.0797 27.3363 15.2037Z" fill="#CE3045"/>
<path d="M27.7988 15.2218C27.9528 15.3918 28.3088 15.6308 28.7928 15.6728C29.4528 15.7298 29.8208 15.4338 29.9458 15.2188C29.1808 15.3228 28.4758 15.3188 27.7988 15.2218Z" fill="#F5E8D0"/>
<path d="M27.0046 10.7708C27.0046 11.1169 26.7243 11.3971 26.3783 11.3971C26.0322 11.3971 25.752 11.1169 25.752 10.7708C25.752 10.4247 26.0322 10.1445 26.3783 10.1445C26.7243 10.1445 27.0046 10.4264 27.0046 10.7708Z" fill="#55382F"/>
<path d="M31.2789 11.4309C31.6342 11.4309 31.9222 11.1429 31.9222 10.7877C31.9222 10.4325 31.6342 10.1445 31.2789 10.1445C30.9237 10.1445 30.6357 10.4325 30.6357 10.7877C30.6357 11.1429 30.9237 11.4309 31.2789 11.4309Z" fill="#55382F"/>
<path d="M26.3436 10.5966C26.3436 10.7317 26.2356 10.8397 26.1005 10.8397C25.9655 10.8397 25.8574 10.7317 25.8574 10.5966C25.8574 10.4616 25.9672 10.3535 26.1005 10.3535C26.2356 10.3535 26.3436 10.4632 26.3436 10.5966Z" fill="white"/>
<path d="M31.2439 10.6444C31.2439 10.7828 31.1324 10.8942 30.994 10.8942C30.8556 10.8942 30.7441 10.7828 30.7441 10.6444C30.7441 10.5059 30.8556 10.3945 30.994 10.3945C31.1307 10.3945 31.2439 10.5059 31.2439 10.6444Z" fill="white"/>
<path d="M27.6188 9.84603H25.2757C25.0916 9.84603 24.9414 9.69579 24.9414 9.51178V9.3362C24.9414 9.1522 25.0916 9.00195 25.2757 9.00195H27.6188C27.8028 9.00195 27.9531 9.1522 27.9531 9.3362V9.51178C27.9531 9.69747 27.8045 9.84603 27.6188 9.84603Z" fill="#3C3C3B"/>
<path d="M32.6188 9.84603H30.2757C30.0916 9.84603 29.9414 9.69579 29.9414 9.51178V9.3362C29.9414 9.1522 30.0916 9.00195 30.2757 9.00195H32.6188C32.8028 9.00195 32.9531 9.1522 32.9531 9.3362V9.51178C32.9531 9.69579 32.8028 9.84603 32.6188 9.84603Z" fill="#3C3C3B"/>
<path d="M28.471 13.7717L29.21 13.6908C29.441 13.6658 29.566 13.4157 29.461 13.2107C29.461 13.2107 29.398 13.3648 29.202 13.4538C28.931 13.5778 28.544 13.6247 28.385 13.4857C28.247 13.3647 28.48 12.6607 28.695 12.0938C28.553 12.0938 28.34 12.5177 28.299 12.6807L28.114 13.3657C28.06 13.5887 28.243 13.7967 28.471 13.7717Z" fill="#DDA078"/>
</svg>
