<svg width="52" height="42" viewBox="0 0 52 42" fill="none" xmlns="http://www.w3.org/2000/svg">
<path d="M9.35313 10.0808C8.09177 10.0808 7.06934 11.1257 7.06934 12.4132V39.6507C7.06934 40.9389 8.09177 41.9831 9.35313 41.9831H29.5343V10.0801H9.35313V10.0808Z" fill="#FBD099"/>
<path d="M52.0001 39.65V12.4125C52.0001 11.1243 50.9777 10.0801 49.7163 10.0801H29.5352V41.9831H49.7163C50.9777 41.9824 52.0001 40.9389 52.0001 39.65Z" fill="#F9B256"/>
<path d="M12.8492 12.9863C11.5886 12.9863 10.5654 14.0312 10.5654 15.3187V36.611C10.5654 37.8992 11.5879 38.9434 12.8492 38.9434H29.5484V12.9863H12.8492Z" fill="#F0851D"/>
<path d="M48.503 36.611V15.3187C48.503 14.0312 47.4806 12.9863 46.2193 12.9863H29.5479V38.9434H46.2193C47.4806 38.9434 48.503 37.8992 48.503 36.611Z" fill="#E8721B"/>
<path d="M19.3732 2.33239H29.6482V0H19.3739C17.4847 0 15.9482 1.56983 15.9482 3.4986V8.3762H17.0575C17.0797 8.3762 17.0978 8.38613 17.1186 8.38897C17.1401 8.38613 17.1582 8.3762 17.1797 8.3762H18.232V3.4986C18.2313 2.8552 18.7432 2.33239 19.3732 2.33239Z" fill="#CCCCCC"/>
<path d="M19.6518 8.375H18.2314H17.1791C17.1576 8.375 17.1388 8.38493 17.118 8.38777C17.0971 8.38493 17.0784 8.375 17.0569 8.375H15.9476H14.5848C14.2688 8.375 14.0132 8.63605 14.0132 8.95881C14.0132 8.97512 14.0215 8.99003 14.0229 9.00563H15.9483H18.2321H20.2144C20.2158 8.99003 20.2235 8.97512 20.2235 8.95881C20.2235 8.63675 19.9678 8.375 19.6518 8.375Z" fill="#B2B2B2"/>
<path d="M20.2143 9.00586H14.0221H13.4727V10.0784H20.7061V9.00586H20.2143Z" fill="#F0851D"/>
<path d="M40.8806 8.38897C40.9021 8.38613 40.9201 8.3762 40.9417 8.3762H42.0225V3.4986C42.0225 1.56983 40.486 0 38.5968 0H29.6484V2.33241H38.5975C39.2268 2.33241 39.7394 2.8552 39.7394 3.49788V8.37548H40.8201C40.841 8.37619 40.8597 8.38613 40.8806 8.38897Z" fill="#B2B2B2"/>
<path d="M43.4145 8.37695H42.0226H40.9418C40.9203 8.37695 40.9015 8.38689 40.8807 8.38973C40.8598 8.38689 40.8411 8.37695 40.8195 8.37695H39.7388H38.3475C38.0315 8.37695 37.7759 8.638 37.7759 8.96076C37.7759 8.97708 37.7842 8.99198 37.7856 9.00758H39.7395H42.0233H43.9778C43.9792 8.99198 43.9875 8.97708 43.9875 8.96076C43.9861 8.63871 43.7305 8.37695 43.4145 8.37695Z" fill="#999999"/>
<path d="M43.9771 9.00781H37.7849H37.2646V10.0804H44.4974V9.00781H43.9771Z" fill="#E8721B"/>
<path d="M37.4208 25.4534C37.4208 29.8373 33.9409 33.3905 29.6484 33.3905C25.3558 33.3905 21.876 29.8366 21.876 25.4534C21.876 21.0688 25.3558 17.5156 29.6484 17.5156C33.9409 17.5149 37.4208 21.0688 37.4208 25.4534Z" fill="#D3362D"/>
<path d="M31.0451 20.4492H28.2515V30.4584H31.0451V20.4492Z" fill="white"/>
<path d="M34.5486 24.0273H24.748V26.8811H34.5486V24.0273Z" fill="white"/>
<path d="M7.07023 27.2266H2.63184V28.2551H7.07023V27.2266Z" fill="#D3362D"/>
<path d="M2.2898 25.0039C1.85221 25.0039 1.49658 25.3664 1.49658 25.814V27.4789H2.63083H7.06922V27.4228V25.0046H2.2898V25.0039Z" fill="#E84C43"/>
<path d="M11.7385 27.2441H7.06885V28.2557H11.7385V27.2441Z" fill="#B71C18"/>
<path d="M12.2236 25.0039H7.06982V27.4221V27.4782H11.7395H13.0168V25.8133C13.0162 25.3664 12.6619 25.0039 12.2236 25.0039Z" fill="#D3362D"/>
<path d="M1.93788 39.4583V32.1249H7.07017V27.9623L2.63039 27.9609L0.176423 30.0436C0.0923781 30.1252 0.0430698 30.2373 0.0187594 30.3586C0.00764602 30.4153 0 30.4742 0 30.5345V41.3382C0 41.7042 0.289641 42 0.648046 42H7.07087V39.4583H1.93788Z" fill="#77A7FB"/>
<path d="M7.07027 32.125H1.93799V39.4584H7.07027V32.125Z" fill="white"/>
<path d="M14.14 41.338V30.5351C14.14 30.4741 14.1303 30.4152 14.1164 30.3591C14.0921 30.2619 14.049 30.1733 13.983 30.1059C13.5017 29.6058 11.7353 27.9629 11.7353 27.9629H7.06982V32.1255H12.2021V39.4589H7.06982V42.0005H13.4926C13.8497 41.9998 14.14 41.704 14.14 41.338Z" fill="#4385F5"/>
<path d="M12.2016 32.125H7.06934V39.4584H12.2016V32.125Z" fill="#CCCCCC"/>
<path d="M11.9607 30.8145C11.9607 31.0415 11.7801 31.2259 11.5572 31.2259H9.49632C9.27336 31.2259 9.09277 31.0415 9.09277 30.8145C9.09277 30.5875 9.27336 30.4023 9.49632 30.4023H11.5572C11.7808 30.4023 11.9607 30.5875 11.9607 30.8145Z" fill="white"/>
</svg>
