<svg width="48" height="45" viewBox="0 0 48 45" fill="none" xmlns="http://www.w3.org/2000/svg">
<path d="M43.4112 13.9366L5.78516 22.1875L9.26157 38.0407L46.8877 29.7898L43.4112 13.9366Z" fill="#BADBAC"/>
<path d="M9.05559 38.3634L5.46484 21.9855L43.6153 13.6211L47.2061 29.999L9.05559 38.3634ZM6.1041 22.3951L9.46459 37.7242L46.5668 29.59L43.2058 14.2609L6.1041 22.3951Z" fill="#83B88E"/>
<path d="M42.2916 19.1668C39.2183 19.4207 38.4685 16.8669 38.4379 16.758L38.3327 16.3828L37.9521 16.4649L34.7827 17.1595L14.9644 21.5049L11.7955 22.1994L11.4155 22.2842L11.4772 22.6685C11.4955 22.7801 11.8825 25.4134 8.98517 26.4691L8.64648 26.5926L9.10325 28.674L9.56216 30.7673L10.0184 32.8487L10.3775 32.8192C13.4508 32.5659 14.2011 35.1196 14.2312 35.2281L14.3359 35.6027L14.7164 35.5211L17.8853 34.826L37.7042 30.4806L40.8736 29.7861L41.2536 29.7013L41.1918 29.317C41.1741 29.2054 40.7872 26.5722 43.6844 25.5164L44.0226 25.393L43.5664 23.3115L43.1074 21.2182L42.6507 19.1368L42.2916 19.1668ZM42.3023 21.3954L42.7613 23.4886L43.0656 24.8772C40.5569 25.964 40.3304 28.1614 40.3497 29.0583L37.5281 29.6772L17.7087 34.0226L14.8871 34.6414C14.5296 33.8191 13.4046 31.9175 10.671 31.9803L10.3667 30.5918L9.90781 28.499L9.60348 27.1105C12.1127 26.0236 12.3387 23.8262 12.3194 22.9293L15.141 22.3105L34.9604 17.9651L37.782 17.3468C38.14 18.1691 39.2644 20.0707 41.998 20.0079L42.3023 21.3954Z" fill="#83B88E"/>
<path d="M31.2147 24.9226C31.8057 27.6176 30.0999 30.2808 27.405 30.8718C24.7101 31.4627 22.0468 29.757 21.4559 27.062C20.8649 24.3671 22.5706 21.7038 25.2656 21.1129C27.9605 20.5225 30.6238 22.2282 31.2147 24.9226Z" fill="#83B88E"/>
<path d="M27.0729 24.2118C26.7053 23.9831 26.4138 23.8672 25.9716 23.9643C25.4719 24.0738 25.2207 24.4549 25.3248 24.9299C25.5851 26.1177 27.7986 25.289 28.1845 27.05C28.3552 27.8283 27.9822 28.4767 27.2275 28.7536L27.4089 29.5813L26.9178 29.6891L26.7402 28.8781C26.2051 28.9436 25.6232 28.7966 25.2094 28.5529L25.4182 28.0172C25.8369 28.2432 26.3086 28.3972 26.8083 28.2877C27.4143 28.1546 27.644 27.7526 27.5329 27.2449C27.242 25.9175 25.0194 26.7054 24.6695 25.1081C24.5095 24.3792 24.8697 23.7507 25.5572 23.4797L25.3774 22.6606L25.8685 22.5527L26.0462 23.3637C26.5829 23.3058 26.9828 23.4845 27.3456 23.7309L27.0729 24.2118Z" fill="white"/>
<path d="M34.4275 23.2951L33.9482 23.6906L33.667 23.3793L34.3927 22.6735L34.8451 22.5742L35.406 25.1323L35.8912 25.0502L35.9771 25.4425L34.3706 25.7946L34.2875 25.4157L34.7244 25.2912C34.8113 25.2675 34.85 25.2251 34.8247 25.1097L34.4275 23.2951Z" fill="#83B88E"/>
<path d="M38.0683 23.3977C38.3082 24.4921 38.0318 25.0412 37.3298 25.1952C36.6234 25.3503 36.1656 24.9618 35.93 23.8861C35.697 22.8239 36.0271 22.2534 36.6873 22.1085C37.3335 21.9668 37.8295 22.3087 38.0683 23.3977ZM37.5208 23.5276C37.3367 22.6876 37.0775 22.4976 36.7726 22.5642C36.4495 22.635 36.3084 22.942 36.5 23.8142C36.6749 24.6129 36.9283 24.819 37.2423 24.7503C37.5471 24.6832 37.7135 24.4052 37.5208 23.5276Z" fill="#83B88E"/>
<path d="M40.538 22.8567C40.7779 23.9511 40.5015 24.5002 39.7995 24.6542C39.0931 24.8094 38.6353 24.4208 38.3997 23.3452C38.1667 22.283 38.4968 21.7124 39.157 21.5675C39.8032 21.4258 40.2992 21.7672 40.538 22.8567ZM39.9906 22.9866C39.8065 22.1461 39.5467 21.9566 39.2424 22.0232C38.9192 22.094 38.7781 22.4005 38.9697 23.2732C39.1447 24.0719 39.398 24.278 39.712 24.2088C40.0163 24.1422 40.1827 23.8636 39.9906 22.9866Z" fill="#83B88E"/>
<path d="M16.8041 30.0638C15.7612 30.2925 14.7269 29.6302 14.4983 28.5873C14.2696 27.5444 14.932 26.5101 15.9748 26.2815C17.0177 26.0528 18.052 26.7152 18.2806 27.758C18.5093 28.8009 17.847 29.8347 16.8041 30.0638ZM16.1514 27.086C15.5524 27.2175 15.1719 27.8117 15.3034 28.4107C15.4349 29.0097 16.029 29.3902 16.628 29.2587C17.227 29.1272 17.6076 28.5331 17.4766 27.9341C17.3446 27.3351 16.7504 26.9551 16.1514 27.086Z" fill="#83B88E"/>
<path d="M31.8028 0.38051L1.31445 23.9199L11.2324 36.7658L41.7208 13.2263L31.8028 0.38051Z" fill="#BADBAC"/>
<path d="M11.1876 37.1418L0.941406 23.8705L31.8562 0.00195312L42.1024 13.2732L11.1876 37.1418ZM1.6939 23.9676L11.2848 36.3898L41.3494 13.1766L31.759 0.75499L1.6939 23.9676Z" fill="#83B88E"/>
<path d="M33.0301 5.58082C30.3604 7.12339 28.5908 5.13533 28.5167 5.04999L28.2617 4.75586L27.9526 4.99256L25.3843 6.97525L9.32418 19.3749L6.75645 21.3576L6.4489 21.5964L6.66896 21.9179C6.73283 22.0113 8.20831 24.2264 6.04045 26.419L5.78711 26.6755L7.08975 28.3625L8.39938 30.0585L9.70204 31.7455L10.0139 31.5657C12.6836 30.0231 14.4532 32.0106 14.5273 32.096L14.7822 32.3901L15.0908 32.1534L17.6591 30.1707L33.7192 17.7706L36.2875 15.7879L36.5945 15.549L36.3745 15.2275C36.3106 15.1347 34.8351 12.919 37.0035 10.7265L37.2569 10.4699L35.9542 8.78297L34.6446 7.08689L33.3425 5.39994L33.0301 5.58082ZM33.9924 7.59089L35.3021 9.28696L36.1705 10.412C34.3671 12.4671 35.1019 14.5502 35.5023 15.3526L33.2158 17.1184L17.1557 29.518L14.8686 31.2839C14.194 30.693 12.3642 29.4547 9.91995 30.6801L9.05098 29.5551L7.74135 27.859L6.87292 26.734C8.67688 24.6794 7.94209 22.5958 7.54115 21.7934L9.82764 20.0281L25.8878 7.62792L28.1743 5.8626C28.8489 6.45355 30.6787 7.69125 33.1235 6.46643L33.9924 7.59089Z" fill="#83B88E"/>
<path d="M25.4757 15.519C27.1621 17.7029 26.7585 20.8396 24.5745 22.5255C22.3911 24.2114 19.2539 23.8083 17.568 21.6243C15.8821 19.4409 16.2852 16.3037 18.4692 14.6178C20.6526 12.9319 23.7898 13.335 25.4757 15.519Z" fill="#83B88E"/>
<path d="M21.4282 16.6465C20.9983 16.5971 20.6848 16.6164 20.3263 16.8934C19.9216 17.2063 19.8572 17.6582 20.1545 18.0431C20.8974 19.0054 22.5446 17.3104 23.646 18.7371C24.1328 19.3677 24.0727 20.1132 23.5091 20.6865L24.0271 21.3568L23.6288 21.6644L23.1216 21.0074C22.6659 21.2957 22.0771 21.4111 21.5989 21.3676L21.5586 20.7944C22.0336 20.8196 22.5258 20.7573 22.9311 20.4449C23.4222 20.066 23.4576 19.6039 23.1404 19.1927C22.3101 18.1171 20.6371 19.7794 19.6382 18.4853C19.182 17.8944 19.2394 17.1725 19.745 16.6336L19.2324 15.9697L19.6307 15.6621L20.1379 16.3191C20.5984 16.0378 21.0364 16.0282 21.4701 16.0958L21.4282 16.6465Z" fill="white"/>
<path d="M27.6858 12.6741L27.4212 13.2366L27.0342 13.0756L27.3884 12.1271L27.755 11.8438L29.3555 13.9166L29.7592 13.6354L30.0045 13.9531L28.7023 14.9584L28.4656 14.6514L28.807 14.3514C28.8752 14.2929 28.8929 14.2381 28.8204 14.1442L27.6858 12.6741Z" fill="#83B88E"/>
<path d="M31.0206 11.2103C31.7049 12.097 31.6904 12.7115 31.1215 13.1506C30.5493 13.5923 29.9691 13.4372 29.296 12.5655C28.6316 11.7046 28.6858 11.0482 29.2209 10.6349C29.7442 10.2308 30.3389 10.3268 31.0206 11.2103ZM30.581 11.5613C30.0555 10.8802 29.7394 10.8195 29.4925 11.0101C29.2306 11.2124 29.2343 11.5495 29.7802 12.2569C30.2799 12.9042 30.5966 12.982 30.8515 12.7856C31.0984 12.5951 31.1295 12.2719 30.581 11.5613Z" fill="#83B88E"/>
<path d="M33.0215 9.66523C33.7059 10.5519 33.6914 11.1665 33.1225 11.6061C32.5498 12.0478 31.9701 11.8927 31.297 11.0205C30.6325 10.1601 30.6868 9.50314 31.2219 9.08985C31.7452 8.68569 32.3399 8.78231 33.0215 9.66523ZM32.582 10.0168C32.056 9.33568 31.7404 9.27503 31.4935 9.46557C31.2315 9.66791 31.2353 10.0055 31.7812 10.7124C32.2809 11.3592 32.5975 11.4375 32.8525 11.2411C33.0994 11.05 33.131 10.7274 32.582 10.0168Z" fill="#83B88E"/>
<path d="M14.6452 26.3267C13.8004 26.9789 12.582 26.8227 11.9294 25.9779C11.2767 25.133 11.4334 23.9147 12.2788 23.262C13.1236 22.6099 14.342 22.7666 14.9947 23.6114C15.6473 24.4562 15.4901 25.6746 14.6452 26.3267ZM12.7822 23.9141C12.297 24.2888 12.2069 24.9887 12.5815 25.4744C12.9561 25.9596 13.6555 26.0498 14.1412 25.6746C14.6265 25.3 14.7166 24.6001 14.342 24.1149C13.9674 23.6291 13.268 23.5395 12.7822 23.9141Z" fill="#83B88E"/>
<path d="M11.3154 24.1641H5.69419L1.86138 29.0188C1.86138 29.0188 1.47815 38.5152 11.3149 44.2567L11.3154 24.1641Z" fill="#B2B2B2"/>
<path d="M11.3154 24.1641H16.9366L20.7695 29.0188C20.7695 29.0188 21.1527 38.5152 11.3154 44.2567V24.1641Z" fill="#9B9B9B"/>
<path d="M11.3153 25.5977H6.29901L3.33517 29.2813C3.33517 29.2813 2.68948 37.1197 11.3159 42.6722V25.5977H11.3153Z" fill="#E84C43"/>
<path d="M11.3154 25.5977H16.3323L19.2961 29.2813C19.2961 29.2813 19.9418 37.1197 11.3154 42.6722V25.5977Z" fill="#D3362D"/>
<path d="M36.8858 44.5372C39.2907 44.5372 41.2403 42.5876 41.2403 40.1826C41.2403 37.7777 39.2907 35.8281 36.8858 35.8281C34.4808 35.8281 32.5312 37.7777 32.5312 40.1826C32.5312 42.5876 34.4808 44.5372 36.8858 44.5372Z" fill="#F9B256"/>
<path d="M36.8858 43.7657C38.8635 43.7657 40.4669 42.1624 40.4669 40.1846C40.4669 38.2068 38.8635 36.6035 36.8858 36.6035C34.908 36.6035 33.3047 38.2068 33.3047 40.1846C33.3047 42.1624 34.908 43.7657 36.8858 43.7657Z" fill="#FFE167"/>
<path d="M36.8852 43.8993C34.8365 43.8993 33.1699 42.2327 33.1699 40.184C33.1699 38.1353 34.8365 36.4688 36.8852 36.4688C38.9339 36.4688 40.6005 38.1353 40.6005 40.184C40.6005 42.2327 38.9339 43.8993 36.8852 43.8993ZM36.8852 36.7371C34.9846 36.7371 33.4383 38.2834 33.4383 40.184C33.4383 42.0846 34.9846 43.6309 36.8852 43.6309C38.7858 43.6309 40.3321 42.0846 40.3321 40.184C40.3321 38.2834 38.7858 36.7371 36.8852 36.7371Z" fill="white"/>
<path d="M36.7851 38.8864L36.0385 39.2691L35.7578 38.7775L36.9193 38.0566H37.5446V41.591L38.208 41.6232V42.1653H35.9875V41.642L36.5999 41.6039C36.7212 41.5975 36.7851 41.5529 36.7851 41.393V38.8864Z" fill="#FBCB43"/>
<path d="M27.6992 43.2949H27.0068V44.7344H27.6992V43.2949Z" fill="#F9B256"/>
<path d="M23.5425 43.2949H22.8496V44.7344H23.5425V43.2949Z" fill="#F9B256"/>
<path d="M26.314 43.2949H25.6211V44.7344H26.314V43.2949Z" fill="#F9B256"/>
<path d="M24.9283 43.2949H24.2354V44.7344H24.9283V43.2949Z" fill="#F9B256"/>
<path d="M29.0855 43.2949H28.3926V44.7344H29.0855V43.2949Z" fill="#F9B256"/>
<path d="M22.1578 43.2949H21.4648V44.7344H22.1578V43.2949Z" fill="#F9B256"/>
<path d="M21.4644 43.2949H20.7715V44.7344H21.4644V43.2949Z" fill="#FFE167"/>
<path d="M22.8496 43.2949H22.1572V44.7344H22.8496V43.2949Z" fill="#FFE167"/>
<path d="M24.2359 43.2949H23.543V44.7344H24.2359V43.2949Z" fill="#FFE167"/>
<path d="M25.6216 43.2949H24.9287V44.7344H25.6216V43.2949Z" fill="#FFE167"/>
<path d="M27.0074 43.2949H26.3145V44.7344H27.0074V43.2949Z" fill="#FFE167"/>
<path d="M28.3921 43.2949H27.6992V44.7344H28.3921V43.2949Z" fill="#FFE167"/>
<path d="M29.7789 43.2949H29.0859V44.7344H29.7789V43.2949Z" fill="#FFE167"/>
<path d="M29.7778 43.2938V44.7333H20.7703V43.2938H29.7778ZM30.0461 43.0254H29.7778H20.7703H20.502V43.2938V44.7333V45.0016H20.7703H29.7778H30.0461V44.7333V43.2938V43.0254Z" fill="#F5B400"/>
<path d="M28.7378 41.5723H28.0449V43.0118H28.7378V41.5723Z" fill="#F9B256"/>
<path d="M24.5816 41.5723H23.8887V43.0118H24.5816V41.5723Z" fill="#F9B256"/>
<path d="M27.3521 41.5723H26.6592V43.0118H27.3521V41.5723Z" fill="#F9B256"/>
<path d="M25.9664 41.5723H25.2734V43.0118H25.9664V41.5723Z" fill="#F9B256"/>
<path d="M30.1246 41.5723H29.4316V43.0118H30.1246V41.5723Z" fill="#F9B256"/>
<path d="M23.1959 41.5723H22.5029V43.0118H23.1959V41.5723Z" fill="#F9B256"/>
<path d="M22.502 41.5723H21.8096V43.0118H22.502V41.5723Z" fill="#FFE167"/>
<path d="M23.8882 41.5723H23.1953V43.0118H23.8882V41.5723Z" fill="#FFE167"/>
<path d="M25.2734 41.5723H24.5811V43.0118H25.2734V41.5723Z" fill="#FFE167"/>
<path d="M26.6597 41.5723H25.9668V43.0118H26.6597V41.5723Z" fill="#FFE167"/>
<path d="M28.0455 41.5723H27.3525V43.0118H28.0455V41.5723Z" fill="#FFE167"/>
<path d="M29.4312 41.5723H28.7383V43.0118H29.4312V41.5723Z" fill="#FFE167"/>
<path d="M30.8164 41.5723H30.124V43.0118H30.8164V41.5723Z" fill="#FFE167"/>
<path d="M30.8163 41.5711V43.0106H21.8094V41.5711H30.8163ZM31.0847 41.3027H30.8163H21.8094H21.541V41.5711V43.0106V43.279H21.8094H30.8163H31.0847V43.0106V41.5711V41.3027Z" fill="#F5B400"/>
<path d="M28.7378 36.3457H28.0449V37.7852H28.7378V36.3457Z" fill="#F9B256"/>
<path d="M24.5816 36.3457H23.8887V37.7852H24.5816V36.3457Z" fill="#F9B256"/>
<path d="M27.3521 36.3457H26.6592V37.7852H27.3521V36.3457Z" fill="#F9B256"/>
<path d="M25.9664 36.3457H25.2734V37.7852H25.9664V36.3457Z" fill="#F9B256"/>
<path d="M30.1246 36.3457H29.4316V37.7852H30.1246V36.3457Z" fill="#F9B256"/>
<path d="M23.1959 36.3457H22.5029V37.7852H23.1959V36.3457Z" fill="#F9B256"/>
<path d="M22.502 36.3457H21.8096V37.7852H22.502V36.3457Z" fill="#FFE167"/>
<path d="M23.8882 36.3457H23.1953V37.7852H23.8882V36.3457Z" fill="#FFE167"/>
<path d="M25.2734 36.3457H24.5811V37.7852H25.2734V36.3457Z" fill="#FFE167"/>
<path d="M26.6597 36.3457H25.9668V37.7852H26.6597V36.3457Z" fill="#FFE167"/>
<path d="M28.0455 36.3457H27.3525V37.7852H28.0455V36.3457Z" fill="#FFE167"/>
<path d="M29.4312 36.3457H28.7383V37.7852H29.4312V36.3457Z" fill="#FFE167"/>
<path d="M30.8164 36.3457H30.124V37.7852H30.8164V36.3457Z" fill="#FFE167"/>
<path d="M30.8163 36.3465V37.786H21.8094V36.3465H30.8163ZM31.0847 36.0781H30.8163H21.8094H21.541V36.3465V37.786V38.0544H21.8094H30.8163H31.0847V37.786V36.3465V36.0781Z" fill="#F5B400"/>
<path d="M27.0855 39.8477H26.3926V41.2872H27.0855V39.8477Z" fill="#F9B256"/>
<path d="M22.9283 39.8477H22.2354V41.2872H22.9283V39.8477Z" fill="#F9B256"/>
<path d="M25.6998 39.8477H25.0068V41.2872H25.6998V39.8477Z" fill="#F9B256"/>
<path d="M24.314 39.8477H23.6211V41.2872H24.314V39.8477Z" fill="#F9B256"/>
<path d="M28.4707 39.8477H27.7783V41.2872H28.4707V39.8477Z" fill="#F9B256"/>
<path d="M21.5425 39.8477H20.8496V41.2872H21.5425V39.8477Z" fill="#F9B256"/>
<path d="M20.8496 39.8477H20.1572V41.2872H20.8496V39.8477Z" fill="#FFE167"/>
<path d="M22.2359 39.8477H21.543V41.2872H22.2359V39.8477Z" fill="#FFE167"/>
<path d="M23.6207 39.8477H22.9277V41.2872H23.6207V39.8477Z" fill="#FFE167"/>
<path d="M25.0074 39.8477H24.3145V41.2872H25.0074V39.8477Z" fill="#FFE167"/>
<path d="M26.3931 39.8477H25.7002V41.2872H26.3931V39.8477Z" fill="#FFE167"/>
<path d="M27.7779 39.8477H27.085V41.2872H27.7779V39.8477Z" fill="#FFE167"/>
<path d="M29.1636 39.8477H28.4707V41.2872H29.1636V39.8477Z" fill="#FFE167"/>
<path d="M29.164 39.8484V41.288H20.157V39.8484H29.164ZM29.4323 39.5801H29.164H20.157H19.8887V39.8484V41.288V41.5563H20.157H29.164H29.4323V41.288V39.8484V39.5801Z" fill="#F5B400"/>
<path d="M27.0855 38.0859H26.3926V39.5255H27.0855V38.0859Z" fill="#F9B256"/>
<path d="M22.9283 38.0859H22.2354V39.5255H22.9283V38.0859Z" fill="#F9B256"/>
<path d="M25.6998 38.0859H25.0068V39.5255H25.6998V38.0859Z" fill="#F9B256"/>
<path d="M24.314 38.0859H23.6211V39.5255H24.314V38.0859Z" fill="#F9B256"/>
<path d="M28.4707 38.0859H27.7783V39.5255H28.4707V38.0859Z" fill="#F9B256"/>
<path d="M21.5425 38.0859H20.8496V39.5255H21.5425V38.0859Z" fill="#F9B256"/>
<path d="M20.8496 38.0859H20.1572V39.5255H20.8496V38.0859Z" fill="#FFE167"/>
<path d="M22.2359 38.0859H21.543V39.5255H22.2359V38.0859Z" fill="#FFE167"/>
<path d="M23.6207 38.0859H22.9277V39.5255H23.6207V38.0859Z" fill="#FFE167"/>
<path d="M25.0074 38.0859H24.3145V39.5255H25.0074V38.0859Z" fill="#FFE167"/>
<path d="M26.3931 38.0859H25.7002V39.5255H26.3931V38.0859Z" fill="#FFE167"/>
<path d="M27.7779 38.0859H27.085V39.5255H27.7779V38.0859Z" fill="#FFE167"/>
<path d="M29.1636 38.0859H28.4707V39.5255H29.1636V38.0859Z" fill="#FFE167"/>
<path d="M29.164 38.0867V39.5262H20.157V38.0867H29.164ZM29.4323 37.8184H29.164H20.157H19.8887V38.0867V39.5262V39.7946H20.157H29.164H29.4323V39.5262V38.0867V37.8184Z" fill="#F5B400"/>
<path d="M8.74268 29.7295C8.74268 29.7295 7.84903 29.4713 7.30209 28.8482C6.88344 28.371 6.58824 27.3958 6.58717 27.3984C6.58663 27.3958 6.29089 28.371 5.87224 28.8482C5.3253 29.4713 4.43164 29.7295 4.43164 29.7295C4.43164 29.7295 5.3033 30.0402 5.79709 30.585C6.2925 31.1314 6.58984 31.9778 6.58984 31.9795C6.58984 31.9795 6.8813 31.1314 7.37616 30.585C7.87103 30.0402 8.74268 29.7295 8.74268 29.7295Z" fill="white"/>
</svg>
