<svg width="1466" height="235" viewBox="0 0 1466 235" fill="none" xmlns="http://www.w3.org/2000/svg">
<rect width="1466" height="235" fill="#F9F1ED"/>
<path d="M0 100.001C491.5 235.001 935 -21.5 1466 100.001V235.001H0V100.001Z" fill="white"/>
<circle cx="406.125" cy="131.623" r="1.87487" transform="rotate(-180 406.125 131.623)" fill="#F37435"/>
<circle cx="399.25" cy="131.623" r="1.87487" transform="rotate(-180 399.25 131.623)" fill="#F37435"/>
<circle cx="392.376" cy="131.623" r="1.87487" transform="rotate(-180 392.376 131.623)" fill="#F37435"/>
<circle cx="385.501" cy="131.623" r="1.87487" transform="rotate(-180 385.501 131.623)" fill="#F37435"/>
<circle cx="378.627" cy="131.623" r="1.87487" transform="rotate(-180 378.627 131.623)" fill="#F37435"/>
<circle cx="371.752" cy="131.623" r="1.87487" transform="rotate(-180 371.752 131.623)" fill="#F37435"/>
<circle cx="364.878" cy="131.623" r="1.87487" transform="rotate(-180 364.878 131.623)" fill="#F37435"/>
<circle cx="406.125" cy="125.373" r="1.87487" transform="rotate(-180 406.125 125.373)" fill="#F37435"/>
<circle cx="399.25" cy="125.373" r="1.87487" transform="rotate(-180 399.25 125.373)" fill="#F37435"/>
<circle cx="392.376" cy="125.373" r="1.87487" transform="rotate(-180 392.376 125.373)" fill="#F37435"/>
<circle cx="385.501" cy="125.373" r="1.87487" transform="rotate(-180 385.501 125.373)" fill="#F37435"/>
<circle cx="378.627" cy="125.373" r="1.87487" transform="rotate(-180 378.627 125.373)" fill="#F37435"/>
<circle cx="371.752" cy="125.373" r="1.87487" transform="rotate(-180 371.752 125.373)" fill="#F37435"/>
<circle cx="364.878" cy="125.373" r="1.87487" transform="rotate(-180 364.878 125.373)" fill="#F37435"/>
<circle cx="406.125" cy="119.123" r="1.87487" transform="rotate(-180 406.125 119.123)" fill="#F37435"/>
<circle cx="399.25" cy="119.123" r="1.87487" transform="rotate(-180 399.25 119.123)" fill="#F37435"/>
<circle cx="392.376" cy="119.123" r="1.87487" transform="rotate(-180 392.376 119.123)" fill="#F37435"/>
<circle cx="385.502" cy="119.123" r="1.87487" transform="rotate(-180 385.502 119.123)" fill="#F37435"/>
<circle cx="378.627" cy="119.123" r="1.87487" transform="rotate(-180 378.627 119.123)" fill="#F37435"/>
<circle cx="371.752" cy="119.123" r="1.87487" transform="rotate(-180 371.752 119.123)" fill="#F37435"/>
<circle cx="364.878" cy="119.123" r="1.87487" transform="rotate(-180 364.878 119.123)" fill="#F37435"/>
<circle cx="406.125" cy="112.875" r="1.87487" transform="rotate(-180 406.125 112.875)" fill="#F37435"/>
<circle cx="399.25" cy="112.875" r="1.87487" transform="rotate(-180 399.25 112.875)" fill="#F37435"/>
<circle cx="392.376" cy="112.875" r="1.87487" transform="rotate(-180 392.376 112.875)" fill="#F37435"/>
<circle cx="385.502" cy="112.875" r="1.87487" transform="rotate(-180 385.502 112.875)" fill="#F37435"/>
<circle cx="378.627" cy="112.875" r="1.87487" transform="rotate(-180 378.627 112.875)" fill="#F37435"/>
<circle cx="371.752" cy="112.875" r="1.87487" transform="rotate(-180 371.752 112.875)" fill="#F37435"/>
<circle cx="364.878" cy="112.875" r="1.87487" transform="rotate(-180 364.878 112.875)" fill="#F37435"/>
<circle cx="406.125" cy="106.625" r="1.87487" transform="rotate(-180 406.125 106.625)" fill="#F37435"/>
<circle cx="399.251" cy="106.625" r="1.87487" transform="rotate(-180 399.251 106.625)" fill="#F37435"/>
<circle cx="392.376" cy="106.625" r="1.87487" transform="rotate(-180 392.376 106.625)" fill="#F37435"/>
<circle cx="385.501" cy="106.625" r="1.87487" transform="rotate(-180 385.501 106.625)" fill="#F37435"/>
<circle cx="378.627" cy="106.625" r="1.87487" transform="rotate(-180 378.627 106.625)" fill="#F37435"/>
<circle cx="371.753" cy="106.625" r="1.87487" transform="rotate(-180 371.753 106.625)" fill="#F37435"/>
<circle cx="364.878" cy="106.625" r="1.87487" transform="rotate(-180 364.878 106.625)" fill="#F37435"/>
<circle cx="406.125" cy="100.375" r="1.87487" transform="rotate(-180 406.125 100.375)" fill="#F37435"/>
<circle cx="399.25" cy="100.375" r="1.87487" transform="rotate(-180 399.25 100.375)" fill="#F37435"/>
<circle cx="392.376" cy="100.375" r="1.87487" transform="rotate(-180 392.376 100.375)" fill="#F37435"/>
<circle cx="385.501" cy="100.375" r="1.87487" transform="rotate(-180 385.501 100.375)" fill="#F37435"/>
<circle cx="378.627" cy="100.375" r="1.87487" transform="rotate(-180 378.627 100.375)" fill="#F37435"/>
<circle cx="371.752" cy="100.375" r="1.87487" transform="rotate(-180 371.752 100.375)" fill="#F37435"/>
<circle cx="364.878" cy="100.375" r="1.87487" transform="rotate(-180 364.878 100.375)" fill="#F37435"/>
<circle cx="406.125" cy="94.1251" r="1.87487" transform="rotate(-180 406.125 94.1251)" fill="#F37435"/>
<circle cx="399.251" cy="94.1251" r="1.87487" transform="rotate(-180 399.251 94.1251)" fill="#F37435"/>
<circle cx="392.376" cy="94.1251" r="1.87487" transform="rotate(-180 392.376 94.1251)" fill="#F37435"/>
<circle cx="385.502" cy="94.1251" r="1.87487" transform="rotate(-180 385.502 94.1251)" fill="#F37435"/>
<circle cx="378.627" cy="94.1251" r="1.87487" transform="rotate(-180 378.627 94.1251)" fill="#F37435"/>
<circle cx="371.753" cy="94.1251" r="1.87487" transform="rotate(-180 371.753 94.1251)" fill="#F37435"/>
<circle cx="364.878" cy="94.1251" r="1.87487" transform="rotate(-180 364.878 94.1251)" fill="#F37435"/>
<circle cx="406.125" cy="87.8751" r="1.87487" transform="rotate(-180 406.125 87.8751)" fill="#F37435"/>
<circle cx="399.25" cy="87.8751" r="1.87487" transform="rotate(-180 399.25 87.8751)" fill="#F37435"/>
<circle cx="392.376" cy="87.8751" r="1.87487" transform="rotate(-180 392.376 87.8751)" fill="#F37435"/>
<circle cx="385.501" cy="87.8751" r="1.87487" transform="rotate(-180 385.501 87.8751)" fill="#F37435"/>
<circle cx="378.627" cy="87.8751" r="1.87487" transform="rotate(-180 378.627 87.8751)" fill="#F37435"/>
<circle cx="371.752" cy="87.8751" r="1.87487" transform="rotate(-180 371.752 87.8751)" fill="#F37435"/>
<circle cx="364.878" cy="87.8751" r="1.87487" transform="rotate(-180 364.878 87.8751)" fill="#F37435"/>
<circle cx="357.986" cy="131.623" r="1.87487" transform="rotate(-180 357.986 131.623)" fill="#F37435"/>
<circle cx="351.112" cy="131.623" r="1.87487" transform="rotate(-180 351.112 131.623)" fill="#F37435"/>
<circle cx="344.237" cy="131.623" r="1.87487" transform="rotate(-180 344.237 131.623)" fill="#F37435"/>
<circle cx="337.362" cy="131.623" r="1.87487" transform="rotate(-180 337.362 131.623)" fill="#F37435"/>
<circle cx="330.488" cy="131.623" r="1.87487" transform="rotate(-180 330.488 131.623)" fill="#F37435"/>
<circle cx="323.613" cy="131.623" r="1.87487" transform="rotate(-180 323.613 131.623)" fill="#F37435"/>
<circle cx="316.739" cy="131.623" r="1.87487" transform="rotate(-180 316.739 131.623)" fill="#F37435"/>
<circle cx="357.986" cy="125.373" r="1.87487" transform="rotate(-180 357.986 125.373)" fill="#F37435"/>
<circle cx="351.111" cy="125.373" r="1.87487" transform="rotate(-180 351.111 125.373)" fill="#F37435"/>
<circle cx="344.237" cy="125.373" r="1.87487" transform="rotate(-180 344.237 125.373)" fill="#F37435"/>
<circle cx="337.362" cy="125.373" r="1.87487" transform="rotate(-180 337.362 125.373)" fill="#F37435"/>
<circle cx="330.488" cy="125.373" r="1.87487" transform="rotate(-180 330.488 125.373)" fill="#F37435"/>
<circle cx="323.613" cy="125.373" r="1.87487" transform="rotate(-180 323.613 125.373)" fill="#F37435"/>
<circle cx="316.739" cy="125.373" r="1.87487" transform="rotate(-180 316.739 125.373)" fill="#F37435"/>
<circle cx="357.986" cy="119.123" r="1.87487" transform="rotate(-180 357.986 119.123)" fill="#F37435"/>
<circle cx="351.111" cy="119.123" r="1.87487" transform="rotate(-180 351.111 119.123)" fill="#F37435"/>
<circle cx="344.237" cy="119.123" r="1.87487" transform="rotate(-180 344.237 119.123)" fill="#F37435"/>
<circle cx="337.363" cy="119.123" r="1.87487" transform="rotate(-180 337.363 119.123)" fill="#F37435"/>
<circle cx="330.488" cy="119.123" r="1.87487" transform="rotate(-180 330.488 119.123)" fill="#F37435"/>
<circle cx="323.613" cy="119.123" r="1.87487" transform="rotate(-180 323.613 119.123)" fill="#F37435"/>
<circle cx="316.739" cy="119.123" r="1.87487" transform="rotate(-180 316.739 119.123)" fill="#F37435"/>
<circle cx="357.986" cy="112.875" r="1.87487" transform="rotate(-180 357.986 112.875)" fill="#F37435"/>
<circle cx="351.111" cy="112.875" r="1.87487" transform="rotate(-180 351.111 112.875)" fill="#F37435"/>
<circle cx="344.237" cy="112.875" r="1.87487" transform="rotate(-180 344.237 112.875)" fill="#F37435"/>
<circle cx="337.363" cy="112.875" r="1.87487" transform="rotate(-180 337.363 112.875)" fill="#F37435"/>
<circle cx="330.488" cy="112.875" r="1.87487" transform="rotate(-180 330.488 112.875)" fill="#F37435"/>
<circle cx="323.613" cy="112.875" r="1.87487" transform="rotate(-180 323.613 112.875)" fill="#F37435"/>
<circle cx="316.739" cy="112.875" r="1.87487" transform="rotate(-180 316.739 112.875)" fill="#F37435"/>
<circle cx="357.986" cy="106.625" r="1.87487" transform="rotate(-180 357.986 106.625)" fill="#F37435"/>
<circle cx="351.112" cy="106.625" r="1.87487" transform="rotate(-180 351.112 106.625)" fill="#F37435"/>
<circle cx="344.237" cy="106.625" r="1.87487" transform="rotate(-180 344.237 106.625)" fill="#F37435"/>
<circle cx="337.362" cy="106.625" r="1.87487" transform="rotate(-180 337.362 106.625)" fill="#F37435"/>
<circle cx="330.488" cy="106.625" r="1.87487" transform="rotate(-180 330.488 106.625)" fill="#F37435"/>
<circle cx="323.614" cy="106.625" r="1.87487" transform="rotate(-180 323.614 106.625)" fill="#F37435"/>
<circle cx="316.739" cy="106.625" r="1.87487" transform="rotate(-180 316.739 106.625)" fill="#F37435"/>
<circle cx="357.986" cy="100.375" r="1.87487" transform="rotate(-180 357.986 100.375)" fill="#F37435"/>
<circle cx="351.111" cy="100.375" r="1.87487" transform="rotate(-180 351.111 100.375)" fill="#F37435"/>
<circle cx="344.237" cy="100.375" r="1.87487" transform="rotate(-180 344.237 100.375)" fill="#F37435"/>
<circle cx="337.362" cy="100.375" r="1.87487" transform="rotate(-180 337.362 100.375)" fill="#F37435"/>
<circle cx="330.488" cy="100.375" r="1.87487" transform="rotate(-180 330.488 100.375)" fill="#F37435"/>
<circle cx="323.613" cy="100.375" r="1.87487" transform="rotate(-180 323.613 100.375)" fill="#F37435"/>
<circle cx="316.739" cy="100.375" r="1.87487" transform="rotate(-180 316.739 100.375)" fill="#F37435"/>
<circle cx="357.986" cy="94.1251" r="1.87487" transform="rotate(-180 357.986 94.1251)" fill="#F37435"/>
<circle cx="351.112" cy="94.1251" r="1.87487" transform="rotate(-180 351.112 94.1251)" fill="#F37435"/>
<circle cx="344.237" cy="94.1251" r="1.87487" transform="rotate(-180 344.237 94.1251)" fill="#F37435"/>
<circle cx="337.363" cy="94.1251" r="1.87487" transform="rotate(-180 337.363 94.1251)" fill="#F37435"/>
<circle cx="330.488" cy="94.1251" r="1.87487" transform="rotate(-180 330.488 94.1251)" fill="#F37435"/>
<circle cx="323.614" cy="94.1251" r="1.87487" transform="rotate(-180 323.614 94.1251)" fill="#F37435"/>
<circle cx="316.739" cy="94.1251" r="1.87487" transform="rotate(-180 316.739 94.1251)" fill="#F37435"/>
<circle cx="357.986" cy="87.8751" r="1.87487" transform="rotate(-180 357.986 87.8751)" fill="#F37435"/>
<circle cx="351.111" cy="87.8751" r="1.87487" transform="rotate(-180 351.111 87.8751)" fill="#F37435"/>
<circle cx="344.237" cy="87.8751" r="1.87487" transform="rotate(-180 344.237 87.8751)" fill="#F37435"/>
<circle cx="337.362" cy="87.8751" r="1.87487" transform="rotate(-180 337.362 87.8751)" fill="#F37435"/>
<circle cx="330.488" cy="87.8751" r="1.87487" transform="rotate(-180 330.488 87.8751)" fill="#F37435"/>
<circle cx="323.613" cy="87.8751" r="1.87487" transform="rotate(-180 323.613 87.8751)" fill="#F37435"/>
<circle cx="316.739" cy="87.8751" r="1.87487" transform="rotate(-180 316.739 87.8751)" fill="#F37435"/>
<circle cx="310.261" cy="131.623" r="1.87487" transform="rotate(-180 310.261 131.623)" fill="#F37435"/>
<circle cx="303.386" cy="131.623" r="1.87487" transform="rotate(-180 303.386 131.623)" fill="#F37435"/>
<circle cx="296.512" cy="131.623" r="1.87487" transform="rotate(-180 296.512 131.623)" fill="#F37435"/>
<circle cx="289.637" cy="131.623" r="1.87487" transform="rotate(-180 289.637 131.623)" fill="#F37435"/>
<circle cx="282.763" cy="131.623" r="1.87487" transform="rotate(-180 282.763 131.623)" fill="#F37435"/>
<circle cx="275.888" cy="131.623" r="1.87487" transform="rotate(-180 275.888 131.623)" fill="#F37435"/>
<circle cx="269.014" cy="131.623" r="1.87487" transform="rotate(-180 269.014 131.623)" fill="#F37435"/>
<circle cx="310.261" cy="125.373" r="1.87487" transform="rotate(-180 310.261 125.373)" fill="#F37435"/>
<circle cx="303.386" cy="125.373" r="1.87487" transform="rotate(-180 303.386 125.373)" fill="#F37435"/>
<circle cx="296.512" cy="125.373" r="1.87487" transform="rotate(-180 296.512 125.373)" fill="#F37435"/>
<circle cx="289.637" cy="125.373" r="1.87487" transform="rotate(-180 289.637 125.373)" fill="#F37435"/>
<circle cx="282.763" cy="125.373" r="1.87487" transform="rotate(-180 282.763 125.373)" fill="#F37435"/>
<circle cx="275.888" cy="125.373" r="1.87487" transform="rotate(-180 275.888 125.373)" fill="#F37435"/>
<circle cx="269.014" cy="125.373" r="1.87487" transform="rotate(-180 269.014 125.373)" fill="#F37435"/>
<circle cx="310.261" cy="119.123" r="1.87487" transform="rotate(-180 310.261 119.123)" fill="#F37435"/>
<circle cx="303.386" cy="119.123" r="1.87487" transform="rotate(-180 303.386 119.123)" fill="#F37435"/>
<circle cx="296.512" cy="119.123" r="1.87487" transform="rotate(-180 296.512 119.123)" fill="#F37435"/>
<circle cx="289.638" cy="119.123" r="1.87487" transform="rotate(-180 289.638 119.123)" fill="#F37435"/>
<circle cx="282.763" cy="119.123" r="1.87487" transform="rotate(-180 282.763 119.123)" fill="#F37435"/>
<circle cx="275.888" cy="119.123" r="1.87487" transform="rotate(-180 275.888 119.123)" fill="#F37435"/>
<circle cx="269.014" cy="119.123" r="1.87487" transform="rotate(-180 269.014 119.123)" fill="#F37435"/>
<circle cx="310.261" cy="112.875" r="1.87487" transform="rotate(-180 310.261 112.875)" fill="#F37435"/>
<circle cx="303.386" cy="112.875" r="1.87487" transform="rotate(-180 303.386 112.875)" fill="#F37435"/>
<circle cx="296.512" cy="112.875" r="1.87487" transform="rotate(-180 296.512 112.875)" fill="#F37435"/>
<circle cx="289.638" cy="112.875" r="1.87487" transform="rotate(-180 289.638 112.875)" fill="#F37435"/>
<circle cx="282.763" cy="112.875" r="1.87487" transform="rotate(-180 282.763 112.875)" fill="#F37435"/>
<circle cx="275.888" cy="112.875" r="1.87487" transform="rotate(-180 275.888 112.875)" fill="#F37435"/>
<circle cx="269.014" cy="112.875" r="1.87487" transform="rotate(-180 269.014 112.875)" fill="#F37435"/>
<circle cx="310.261" cy="106.625" r="1.87487" transform="rotate(-180 310.261 106.625)" fill="#F37435"/>
<circle cx="303.387" cy="106.625" r="1.87487" transform="rotate(-180 303.387 106.625)" fill="#F37435"/>
<circle cx="296.512" cy="106.625" r="1.87487" transform="rotate(-180 296.512 106.625)" fill="#F37435"/>
<circle cx="289.637" cy="106.625" r="1.87487" transform="rotate(-180 289.637 106.625)" fill="#F37435"/>
<circle cx="282.763" cy="106.625" r="1.87487" transform="rotate(-180 282.763 106.625)" fill="#F37435"/>
<circle cx="275.889" cy="106.625" r="1.87487" transform="rotate(-180 275.889 106.625)" fill="#F37435"/>
<circle cx="269.014" cy="106.625" r="1.87487" transform="rotate(-180 269.014 106.625)" fill="#F37435"/>
<circle cx="310.261" cy="100.375" r="1.87487" transform="rotate(-180 310.261 100.375)" fill="#F37435"/>
<circle cx="303.386" cy="100.375" r="1.87487" transform="rotate(-180 303.386 100.375)" fill="#F37435"/>
<circle cx="296.512" cy="100.375" r="1.87487" transform="rotate(-180 296.512 100.375)" fill="#F37435"/>
<circle cx="289.637" cy="100.375" r="1.87487" transform="rotate(-180 289.637 100.375)" fill="#F37435"/>
<circle cx="282.763" cy="100.375" r="1.87487" transform="rotate(-180 282.763 100.375)" fill="#F37435"/>
<circle cx="275.888" cy="100.375" r="1.87487" transform="rotate(-180 275.888 100.375)" fill="#F37435"/>
<circle cx="269.014" cy="100.375" r="1.87487" transform="rotate(-180 269.014 100.375)" fill="#F37435"/>
<circle cx="310.261" cy="94.1251" r="1.87487" transform="rotate(-180 310.261 94.1251)" fill="#F37435"/>
<circle cx="303.387" cy="94.1251" r="1.87487" transform="rotate(-180 303.387 94.1251)" fill="#F37435"/>
<circle cx="296.512" cy="94.1251" r="1.87487" transform="rotate(-180 296.512 94.1251)" fill="#F37435"/>
<circle cx="289.638" cy="94.1251" r="1.87487" transform="rotate(-180 289.638 94.1251)" fill="#F37435"/>
<circle cx="282.763" cy="94.1251" r="1.87487" transform="rotate(-180 282.763 94.1251)" fill="#F37435"/>
<circle cx="275.889" cy="94.1251" r="1.87487" transform="rotate(-180 275.889 94.1251)" fill="#F37435"/>
<circle cx="269.014" cy="94.1251" r="1.87487" transform="rotate(-180 269.014 94.1251)" fill="#F37435"/>
<circle cx="310.261" cy="87.8751" r="1.87487" transform="rotate(-180 310.261 87.8751)" fill="#F37435"/>
<circle cx="303.386" cy="87.8751" r="1.87487" transform="rotate(-180 303.386 87.8751)" fill="#F37435"/>
<circle cx="296.512" cy="87.8751" r="1.87487" transform="rotate(-180 296.512 87.8751)" fill="#F37435"/>
<circle cx="289.637" cy="87.8751" r="1.87487" transform="rotate(-180 289.637 87.8751)" fill="#F37435"/>
<circle cx="282.763" cy="87.8751" r="1.87487" transform="rotate(-180 282.763 87.8751)" fill="#F37435"/>
<circle cx="275.888" cy="87.8751" r="1.87487" transform="rotate(-180 275.888 87.8751)" fill="#F37435"/>
<circle cx="269.014" cy="87.8751" r="1.87487" transform="rotate(-180 269.014 87.8751)" fill="#F37435"/>
<circle cx="262.122" cy="131.623" r="1.87487" transform="rotate(-180 262.122 131.623)" fill="#F37435"/>
<circle cx="255.247" cy="131.623" r="1.87487" transform="rotate(-180 255.247 131.623)" fill="#F37435"/>
<circle cx="248.373" cy="131.623" r="1.87487" transform="rotate(-180 248.373 131.623)" fill="#F37435"/>
<circle cx="241.498" cy="131.623" r="1.87487" transform="rotate(-180 241.498 131.623)" fill="#F37435"/>
<circle cx="234.624" cy="131.623" r="1.87487" transform="rotate(-180 234.624 131.623)" fill="#F37435"/>
<circle cx="227.749" cy="131.623" r="1.87487" transform="rotate(-180 227.749 131.623)" fill="#F37435"/>
<circle cx="220.875" cy="131.623" r="1.87487" transform="rotate(-180 220.875 131.623)" fill="#F37435"/>
<circle cx="262.122" cy="125.373" r="1.87487" transform="rotate(-180 262.122 125.373)" fill="#F37435"/>
<circle cx="255.247" cy="125.373" r="1.87487" transform="rotate(-180 255.247 125.373)" fill="#F37435"/>
<circle cx="248.373" cy="125.373" r="1.87487" transform="rotate(-180 248.373 125.373)" fill="#F37435"/>
<circle cx="241.498" cy="125.373" r="1.87487" transform="rotate(-180 241.498 125.373)" fill="#F37435"/>
<circle cx="234.624" cy="125.373" r="1.87487" transform="rotate(-180 234.624 125.373)" fill="#F37435"/>
<circle cx="227.749" cy="125.373" r="1.87487" transform="rotate(-180 227.749 125.373)" fill="#F37435"/>
<circle cx="220.875" cy="125.373" r="1.87487" transform="rotate(-180 220.875 125.373)" fill="#F37435"/>
<circle cx="262.122" cy="119.123" r="1.87487" transform="rotate(-180 262.122 119.123)" fill="#F37435"/>
<circle cx="255.247" cy="119.123" r="1.87487" transform="rotate(-180 255.247 119.123)" fill="#F37435"/>
<circle cx="248.373" cy="119.123" r="1.87487" transform="rotate(-180 248.373 119.123)" fill="#F37435"/>
<circle cx="241.499" cy="119.123" r="1.87487" transform="rotate(-180 241.499 119.123)" fill="#F37435"/>
<circle cx="234.624" cy="119.123" r="1.87487" transform="rotate(-180 234.624 119.123)" fill="#F37435"/>
<circle cx="227.749" cy="119.123" r="1.87487" transform="rotate(-180 227.749 119.123)" fill="#F37435"/>
<circle cx="220.875" cy="119.123" r="1.87487" transform="rotate(-180 220.875 119.123)" fill="#F37435"/>
<circle cx="262.122" cy="112.875" r="1.87487" transform="rotate(-180 262.122 112.875)" fill="#F37435"/>
<circle cx="255.247" cy="112.875" r="1.87487" transform="rotate(-180 255.247 112.875)" fill="#F37435"/>
<circle cx="248.373" cy="112.875" r="1.87487" transform="rotate(-180 248.373 112.875)" fill="#F37435"/>
<circle cx="241.499" cy="112.875" r="1.87487" transform="rotate(-180 241.499 112.875)" fill="#F37435"/>
<circle cx="234.624" cy="112.875" r="1.87487" transform="rotate(-180 234.624 112.875)" fill="#F37435"/>
<circle cx="227.749" cy="112.875" r="1.87487" transform="rotate(-180 227.749 112.875)" fill="#F37435"/>
<circle cx="220.875" cy="112.875" r="1.87487" transform="rotate(-180 220.875 112.875)" fill="#F37435"/>
<circle cx="262.122" cy="106.625" r="1.87487" transform="rotate(-180 262.122 106.625)" fill="#F37435"/>
<circle cx="255.248" cy="106.625" r="1.87487" transform="rotate(-180 255.248 106.625)" fill="#F37435"/>
<circle cx="248.373" cy="106.625" r="1.87487" transform="rotate(-180 248.373 106.625)" fill="#F37435"/>
<circle cx="241.498" cy="106.625" r="1.87487" transform="rotate(-180 241.498 106.625)" fill="#F37435"/>
<circle cx="234.624" cy="106.625" r="1.87487" transform="rotate(-180 234.624 106.625)" fill="#F37435"/>
<circle cx="227.75" cy="106.625" r="1.87487" transform="rotate(-180 227.75 106.625)" fill="#F37435"/>
<circle cx="220.875" cy="106.625" r="1.87487" transform="rotate(-180 220.875 106.625)" fill="#F37435"/>
<circle cx="262.122" cy="100.375" r="1.87487" transform="rotate(-180 262.122 100.375)" fill="#F37435"/>
<circle cx="255.247" cy="100.375" r="1.87487" transform="rotate(-180 255.247 100.375)" fill="#F37435"/>
<circle cx="248.373" cy="100.375" r="1.87487" transform="rotate(-180 248.373 100.375)" fill="#F37435"/>
<circle cx="241.498" cy="100.375" r="1.87487" transform="rotate(-180 241.498 100.375)" fill="#F37435"/>
<circle cx="234.624" cy="100.375" r="1.87487" transform="rotate(-180 234.624 100.375)" fill="#F37435"/>
<circle cx="227.749" cy="100.375" r="1.87487" transform="rotate(-180 227.749 100.375)" fill="#F37435"/>
<circle cx="220.875" cy="100.375" r="1.87487" transform="rotate(-180 220.875 100.375)" fill="#F37435"/>
<circle cx="262.122" cy="94.1251" r="1.87487" transform="rotate(-180 262.122 94.1251)" fill="#F37435"/>
<circle cx="255.248" cy="94.1251" r="1.87487" transform="rotate(-180 255.248 94.1251)" fill="#F37435"/>
<circle cx="248.373" cy="94.1251" r="1.87487" transform="rotate(-180 248.373 94.1251)" fill="#F37435"/>
<circle cx="241.499" cy="94.1251" r="1.87487" transform="rotate(-180 241.499 94.1251)" fill="#F37435"/>
<circle cx="234.624" cy="94.1251" r="1.87487" transform="rotate(-180 234.624 94.1251)" fill="#F37435"/>
<circle cx="227.75" cy="94.1251" r="1.87487" transform="rotate(-180 227.75 94.1251)" fill="#F37435"/>
<circle cx="220.875" cy="94.1251" r="1.87487" transform="rotate(-180 220.875 94.1251)" fill="#F37435"/>
<circle cx="262.122" cy="87.8751" r="1.87487" transform="rotate(-180 262.122 87.8751)" fill="#F37435"/>
<circle cx="255.247" cy="87.8751" r="1.87487" transform="rotate(-180 255.247 87.8751)" fill="#F37435"/>
<circle cx="248.373" cy="87.8751" r="1.87487" transform="rotate(-180 248.373 87.8751)" fill="#F37435"/>
<circle cx="241.498" cy="87.8751" r="1.87487" transform="rotate(-180 241.498 87.8751)" fill="#F37435"/>
<circle cx="234.624" cy="87.8751" r="1.87487" transform="rotate(-180 234.624 87.8751)" fill="#F37435"/>
<circle cx="227.749" cy="87.8751" r="1.87487" transform="rotate(-180 227.749 87.8751)" fill="#F37435"/>
<circle cx="220.875" cy="87.8751" r="1.87487" transform="rotate(-180 220.875 87.8751)" fill="#F37435"/>
</svg>
