<svg width="71" height="45" viewBox="0 0 71 45" fill="none" xmlns="http://www.w3.org/2000/svg">
<path d="M61.1892 3.54297H55.3577L51.382 8.57886C51.382 8.57886 50.9844 18.4307 61.1892 24.3875V3.54297Z" fill="#B2B2B2"/>
<path d="M61.189 3.54297H67.0205L70.9968 8.57886C70.9968 8.57886 71.3944 18.4307 61.1895 24.3875L61.189 3.54297Z" fill="#9B9B9B"/>
<path d="M61.1887 5.03125H55.9841L52.9093 8.85271C52.9093 8.85271 52.2395 16.984 61.1887 22.7448V5.03125Z" fill="#E24434"/>
<path d="M61.1895 5.03125H66.3936L69.4683 8.85271C69.4683 8.85271 70.1382 16.984 61.189 22.7448L61.1895 5.03125Z" fill="#D32920"/>
<path d="M58.5207 9.31475C58.5207 9.31475 57.5935 9.04748 57.0261 8.40046C56.5918 7.90544 56.2856 6.89371 56.285 6.89649C56.2839 6.89371 55.9777 7.906 55.5433 8.40046C54.9759 9.04693 54.0488 9.31475 54.0488 9.31475C54.0488 9.31475 54.9531 9.63715 55.4654 10.2029C55.9793 10.7697 56.2872 11.6478 56.2884 11.6495C56.2884 11.6495 56.5907 10.7697 57.1041 10.2029C57.6158 9.63715 58.5207 9.31475 58.5207 9.31475Z" fill="white"/>
<path d="M11.7001 12.495C11.354 13.0931 10.9112 13.628 10.3943 14.0804C11.229 7.32745 4.27584 5.87891 4.27584 5.87891C4.99148 6.48107 5.44886 8.64231 3.86761 10.1479C1.95985 11.9645 2.76845 13.8006 3.09692 14.7679C2.16306 14.2181 1.38394 13.4334 0.840897 12.4949C0.306979 13.4174 0 14.4876 0 15.6302C0 19.0933 2.80749 21.9007 6.27052 21.9007C9.73355 21.9007 12.5412 19.0932 12.5412 15.6302C12.5412 14.4877 12.2341 13.4175 11.7001 12.495Z" fill="#EF470C"/>
<path d="M6.60513 12.2031C6.60513 12.2031 3.03453 14.3451 5.71185 19.3652C5.71185 19.3652 7.84134 19.1144 8.05466 16.7548C8.19467 15.2058 5.94454 14.7491 6.60513 12.2031Z" fill="#EDCA58"/>
<path d="M2.87023 2.6582C2.87023 2.6582 0.451873 4.14228 1.60608 5.84613C2.76028 7.54997 3.14506 7.95076 2.87023 9.09696C2.87023 9.09696 4.10687 8.26449 3.5436 6.45068C2.98005 4.63687 2.37549 3.64754 2.87023 2.6582Z" fill="#EF470C"/>
<path d="M23.7687 36.6251L18.0537 35.1232C18.779 30.3829 20.2472 25.131 22.1367 19.5879L27.8517 21.0898L23.7687 36.6251Z" fill="#EDEDED"/>
<path d="M44.5942 36.6251L50.3093 35.1232C49.5839 30.3829 48.1157 25.131 46.2262 19.5879L40.5112 21.0898L44.5942 36.6251Z" fill="#EDEDED"/>
<path d="M26.3695 35.2725L23.5997 39.9467C20.035 38.7751 16.6564 36.5971 13.6048 33.3924C12.773 32.5147 11.9613 31.5622 11.1787 30.5315L12.5572 27.0781C16.5567 28.7883 20.2918 30.7675 23.6367 33.1565C24.5805 33.8279 25.4912 34.5316 26.3695 35.2725Z" fill="#EDEDED"/>
<path d="M57.1825 30.5321C56.3958 31.5669 55.5842 32.5234 54.7524 33.4018C54.7483 33.4058 54.7483 33.4058 54.7443 33.4058C51.6967 36.6064 48.3269 38.7757 44.7656 39.948L42.9772 36.9381L41.9917 35.2738C42.5094 34.839 43.0352 34.417 43.5731 34.0024C43.9998 33.6795 44.4299 33.3647 44.8688 33.0587C48.1725 30.7108 51.8619 28.7653 55.808 27.0801L57.1825 30.5321Z" fill="#EDEDED"/>
<path d="M23.7108 44.2921C23.2652 40.2145 24.3046 33.2794 23.4195 29.3501C22.9456 27.2253 22.7576 24.5067 22.1367 19.6006C24.7765 18.5031 28.2468 16.9938 28.8177 16.4512C29.9313 16.8853 33.0315 17.0026 34.1795 17.1286H34.1815H34.1835C35.3315 17.0033 38.431 16.8853 39.5447 16.4512C40.1149 16.9938 43.5859 18.5031 46.2257 19.6006C45.6048 24.5067 45.4167 27.2253 44.9428 29.3501C44.0577 33.2794 45.0972 40.2145 44.6516 44.2921H23.7108Z" fill="#EDEDED"/>
<path d="M33.4272 22.6468L32.896 20.1223L34.1815 20.0879L35.467 20.1223L34.9358 22.6468H33.4272Z" fill="#005B6B"/>
<path d="M4.84542 26.0456L4.38636 25.7315L3.77496 25.1666L3.18309 23.5164C3.10018 23.2852 2.88851 23.1375 2.6573 23.1254L2.46518 22.5895C2.35463 22.2821 2.01555 22.1217 1.70816 22.2322L1.6967 22.2363C1.62188 22.2632 1.55582 22.3037 1.50054 22.3542C1.31854 22.2585 1.09339 22.2511 0.897899 22.3556L0.886441 22.3617C0.573659 22.5288 0.455019 22.9185 0.622195 23.2312L1.80928 25.4531C1.81266 25.4598 1.81804 25.4652 1.82141 25.4719C1.83287 25.4922 1.84636 25.5104 1.85984 25.5292C1.87197 25.5461 1.88411 25.5623 1.89759 25.5771C1.91107 25.5919 1.92523 25.6054 1.94006 25.6189C1.95759 25.6351 1.9751 25.6506 1.99398 25.6647C2.00005 25.6695 2.00477 25.6748 2.01084 25.6789L4.08369 27.11C4.37557 27.3116 4.77599 27.2381 4.97755 26.9462L4.98496 26.9354C5.18652 26.6449 5.13798 26.2472 4.84542 26.0456Z" fill="#F5C08C"/>
<path d="M9.93597 26.1576L8.02219 25.5523C7.90018 25.526 7.78289 25.4801 7.67638 25.4154L5.70936 24.2358C5.40602 24.0517 5.011 24.1488 4.82697 24.4521L4.82022 24.4629C4.63619 24.7663 4.73326 25.1613 5.03661 25.3453L6.30054 26.1111C6.30054 26.1124 10.1146 26.196 9.93597 26.1576Z" fill="#F5C08C"/>
<path d="M10.072 26.2047C8.49262 25.6108 4.7817 26.0113 4.7817 26.0113L2.63806 25.0567L1.15167 23.2259C0.927873 22.9502 0.523422 22.9084 0.247715 23.1322L0.237604 23.1403C-0.0381025 23.3641 -0.0799017 23.7685 0.143899 24.0442C0.143899 24.0442 1.96532 26.1798 1.97206 26.1832C1.97206 26.1832 3.5508 27.2577 4.07255 27.5496C4.17097 27.6042 4.31859 27.6567 4.46555 27.7201C5.07358 27.981 6.7912 28.6659 8.35241 28.8135L10.3814 29.3521L11.4189 27.075L10.072 26.2047Z" fill="#FFCF9F"/>
<path d="M10.7008 26.4111L9.36182 29.8242L11.1735 30.5349L12.5124 27.1219L10.7008 26.4111Z" fill="#DADADA"/>
<path d="M10.3137 29.8354C10.4802 29.9008 10.6683 29.8186 10.7344 29.6521C10.7998 29.4856 10.7175 29.2968 10.551 29.2314C10.3845 29.1661 10.1958 29.2483 10.1304 29.4148C10.065 29.582 10.1472 29.7701 10.3137 29.8354Z" fill="white"/>
<path d="M63.5158 26.0456L63.9749 25.7315L64.5856 25.1666L65.1775 23.5164C65.2604 23.2852 65.4721 23.1375 65.7033 23.1254L65.8954 22.5895C66.0059 22.2821 66.345 22.1217 66.6524 22.2322L66.6639 22.2363C66.7387 22.2632 66.8047 22.3037 66.86 22.3542C67.0427 22.2585 67.2672 22.2511 67.4627 22.3556L67.4741 22.3617C67.7869 22.5288 67.9056 22.9185 67.7384 23.2312L66.552 25.4531C66.5486 25.4598 66.5432 25.4652 66.5392 25.4719C66.5277 25.4922 66.5142 25.5104 66.5007 25.5292C66.4886 25.5461 66.4765 25.5623 66.463 25.5771C66.4502 25.5919 66.4353 25.6054 66.4205 25.6189C66.403 25.6351 66.3855 25.6506 66.3666 25.6647C66.3605 25.6695 66.3558 25.6748 66.3497 25.6789L64.2769 27.11C63.985 27.3116 63.5846 27.2381 63.383 26.9462L63.3756 26.9354C63.1747 26.6449 63.2233 26.2472 63.5158 26.0456Z" fill="#F5C08C"/>
<path d="M58.426 26.1576L60.3397 25.5523C60.4617 25.526 60.579 25.4801 60.6862 25.4154L62.6532 24.2358C62.9566 24.0517 63.3516 24.1488 63.5356 24.4521L63.5424 24.4629C63.7264 24.7663 63.6293 25.1613 63.326 25.3453L62.062 26.1111C62.0614 26.1124 58.248 26.196 58.426 26.1576Z" fill="#F5C08C"/>
<path d="M58.2897 26.2047C59.8691 25.6108 63.5801 26.0113 63.5801 26.0113L65.7237 25.0567L67.2101 23.2259C67.4339 22.9502 67.8383 22.9084 68.1141 23.1322L68.1242 23.1403C68.3999 23.3641 68.4417 23.7685 68.2179 24.0442C68.2179 24.0442 66.3964 26.1798 66.3897 26.1832C66.3897 26.1832 64.811 27.2577 64.2892 27.5496C64.1908 27.6042 64.0432 27.6567 63.8962 27.7201C63.2882 27.981 61.5699 28.6659 60.0094 28.8135L57.9803 29.3521L56.9429 27.075L58.2897 26.2047Z" fill="#FFCF9F"/>
<path d="M57.651 26.4104L55.8394 27.1211L57.1783 30.5342L58.99 29.8234L57.651 26.4104Z" fill="#DADADA"/>
<path d="M58.0481 29.8354C57.8816 29.9008 57.6935 29.8186 57.6274 29.6521C57.5621 29.4856 57.6443 29.2968 57.8108 29.2314C57.9773 29.1661 58.1654 29.2483 58.2314 29.4148C58.2968 29.582 58.2146 29.7701 58.0481 29.8354Z" fill="white"/>
<path d="M33.427 22.6465L32.1772 35.7779L34.1813 37.5522L36.1861 35.7779L34.9357 22.6465H33.427Z" fill="#006F82"/>
<path d="M30.519 13.541L30.542 14.6546C30.5366 14.6607 30.542 14.6607 30.542 14.6607L30.5588 15.8485V15.8545L30.5703 16.3857L30.639 20.2004L32.9006 20.1546L34.1228 20.1317H34.1288L34.2259 20.1263L35.3449 20.1034L37.6692 20.0575L37.7723 16.3796L37.7838 15.9111L37.8182 14.7288V14.7234L37.8465 13.7466L30.519 13.541Z" fill="#F2C799"/>
<path d="M34.1278 0.666078C37.408 0.652596 40.0241 2.81106 39.7808 6.69927C39.7525 7.14956 39.7019 7.58166 39.6129 8.03466C40.343 7.62143 40.9827 8.34339 40.7259 9.44892C40.5452 10.2282 40.165 11.275 39.7336 11.4328C39.2159 11.6215 39.0581 11.2993 39.0278 11.2892C38.7966 12.4129 38.7029 13.416 38.3025 14.0126C37.8286 14.7177 37.4632 15.2482 37.1228 15.6479C36.3516 16.5539 35.7112 16.7784 34.2383 16.7878C34.2356 16.7878 34.2329 16.7878 34.2296 16.7878C34.2269 16.7878 34.2242 16.7878 34.2208 16.7878C32.7479 16.7973 32.1048 16.5809 31.3222 15.685C30.977 15.29 30.6049 14.7635 30.1216 14.0645C29.7138 13.474 29.6073 12.4716 29.3619 11.3505C29.3323 11.3607 29.1786 11.6856 28.6581 11.5036C28.224 11.3519 27.831 10.3097 27.6403 9.5325C27.3693 8.43035 28.0002 7.7003 28.735 8.10409C28.6406 7.65244 28.584 7.22102 28.5503 6.77072C28.2598 2.88656 30.8476 0.695065 34.1278 0.666078Z" fill="#FFD2A1"/>
<path d="M38.8535 1.79412C40.1141 3.2623 40.5104 4.89632 40.0183 7.91763C39.5249 8.19536 39.2647 8.56275 39.0766 10.064C38.7187 10.1651 38.5636 10.1887 38.2374 10.2999C40.197 2.29497 37.0961 2.15476 36.2447 1.98893C35.5518 1.85411 32.7199 1.87231 32.0289 2.0159C31.1796 2.19251 28.0807 2.37182 30.1421 10.3518C29.8145 10.2439 29.6595 10.2231 29.3002 10.1267C29.0932 8.62813 28.8276 8.26412 28.3308 7.99246C27.8003 4.97789 28.3362 3.45914 29.4175 1.85478C30.9187 -0.373112 36.6013 -0.829478 38.8535 1.79412Z" fill="#3C3C3B"/>
<path d="M32.1713 0.679537C31.7547 0.683582 31.3853 0.839975 31.0207 1.04018C30.5151 1.31724 29.2235 3.18921 29.4938 3.6294C30.5872 5.41576 33.9739 5.92605 36.3642 5.99346C36.1013 5.79123 35.6517 5.38812 35.5634 5.00658C36.8536 5.57687 38.338 5.69551 39.7031 5.33891C39.2763 4.17002 38.8193 2.9553 37.9106 2.10458C37.1725 1.41363 36.1917 1.02603 35.1967 0.84402C34.2011 0.662013 33.1832 0.670774 32.1713 0.679537Z" fill="#3C3C3B"/>
<path d="M30.6503 22.3006C29.3756 20.5021 28.6105 18.622 28.4487 16.6436L30.5533 15.4727C30.9402 17.2934 32.2432 19.0393 34.1813 20.0956L30.6503 22.3006Z" fill="#DADADA"/>
<path d="M37.7121 22.3006C38.9868 20.5021 39.7519 18.622 39.9137 16.6436L37.8092 15.4727C37.4222 17.2934 36.1192 19.0393 34.1812 20.0956L37.7121 22.3006Z" fill="#DADADA"/>
<path opacity="0.05" d="M35.6943 44.2936H23.7533C23.7035 43.8547 23.6664 40.9083 23.6415 40.2375V40.2085L23.6003 39.9477C20.0357 38.7761 16.6571 36.5981 13.6055 33.3934C17.8368 36.0183 22.5238 38.3575 23.5882 34.598C23.5882 34.598 23.6044 34.0392 23.6381 33.1568C23.75 29.973 24.023 22.6152 24.1807 22.6152C24.2266 23.6048 24.2717 24.5944 24.3176 25.5799C24.4504 28.3956 24.5994 31.2814 25.6961 33.8734C25.895 34.3452 26.1349 34.805 26.4086 35.2478C27.5762 37.136 29.3814 38.6595 31.5264 39.0241C29.5722 38.7511 27.622 38.4775 25.6678 38.2085C28.3076 40.6346 32.2787 43.1382 35.6943 44.2936Z" fill="#1D1D1B"/>
<path opacity="0.05" d="M54.744 33.4051C51.6964 36.6058 48.3266 38.775 44.7653 39.9473V40.2371C44.7073 40.7919 44.6372 43.7175 44.5503 44.2763H38.9316C41.0476 43.5598 42.2812 39.2765 42.9769 36.9374C43.254 36.0099 43.4447 35.0162 43.5728 34.0017C44.1108 29.7495 43.5357 25.1825 43.436 23.8828C43.5229 24.6526 44.5375 28.2011 44.8684 33.058C44.9143 33.7119 44.9473 34.3954 44.9635 35.0951C46.3016 38.1171 50.7237 35.898 54.744 33.4051Z" fill="#1D1D1B"/>
</svg>
