<svg width="43" height="42" viewBox="0 0 43 42" fill="none" xmlns="http://www.w3.org/2000/svg">
<g clip-path="url(#clip0_2162_19378)">
<path d="M42.0326 22.6333C41.9714 21.3962 41.5117 20.2112 40.7564 19.228C39.0531 17.0103 38.721 15.2497 38.721 15.2497C37.3836 11.7454 36.1948 9.41054 35.3209 7.92864C34.4016 6.37246 32.8115 5.32424 31.0184 5.09376C27.4126 4.6276 16.1432 4.6276 12.5374 5.09376C11.6523 5.20877 10.805 5.52381 10.0597 6.01499C9.31445 6.50617 8.69083 7.1606 8.23612 7.92864C7.3623 9.41054 6.17475 11.7454 4.83604 15.2497C4.83604 15.2497 4.504 17.0103 2.80069 19.228C2.04673 20.2112 1.58569 21.3962 1.52585 22.6333C1.39693 25.3171 2.17439 25.907 2.86977 31.9806C2.89612 32.2113 3.00657 32.4243 3.18001 32.5787C3.35345 32.7332 3.57772 32.8183 3.80997 32.8179H39.7499C40.2317 32.8179 40.6353 32.4571 40.6901 31.9806C40.8854 30.2773 41.4649 26.8225 41.4649 26.8225C41.9726 25.1049 42.0833 23.705 42.0326 22.6333Z" fill="#E95353"/>
<path d="M37.9642 15.1082C36.9094 12.4687 35.8338 10.1637 34.7634 8.32629C33.9521 6.93679 32.521 5.96671 30.9375 5.75444C27.3238 5.27519 16.2095 5.27914 12.6218 5.75444C11.0384 5.96671 9.60715 6.93688 8.79587 8.32629C7.71113 10.1871 6.62119 12.5233 5.58203 15.1082C16.3594 15.9559 27.1868 15.9559 37.9642 15.1082Z" fill="#168DE2"/>
<path d="M36.4341 18.1619C36.0225 18.2908 35.6397 18.4719 35.3194 18.6516C34.7359 18.9771 34.1369 19.2806 33.5119 19.5176C32.4753 19.9109 32.2995 20.4982 32.2995 20.4982C32.2683 20.5385 32.2383 20.5789 32.2096 20.6205C31.4231 21.7886 32.4557 23.3435 33.8504 23.1455C35.8675 22.8603 37.5291 22.2757 38.373 21.9371C38.8561 21.743 39.2337 21.3394 39.3574 20.8328C39.3692 20.7846 39.3796 20.7364 39.3886 20.6895C39.6987 19.0175 38.0579 17.6554 36.4341 18.1619Z" fill="white"/>
<path d="M38.5882 27.5215H36.3445C36.0073 27.5215 35.838 27.9291 36.0762 28.1687L38.32 30.4124C38.5583 30.6507 38.9672 30.4814 38.9672 30.1442V27.9004C38.9673 27.8507 38.9575 27.8014 38.9385 27.7554C38.9194 27.7094 38.8915 27.6676 38.8563 27.6324C38.8211 27.5972 38.7793 27.5692 38.7333 27.5502C38.6873 27.5312 38.638 27.5214 38.5882 27.5215Z" fill="#FFE21F"/>
<path d="M40.688 31.9784C40.6617 32.2096 40.5512 32.423 40.3775 32.578C40.2039 32.7329 39.9793 32.8184 39.7466 32.8183H35.4297V35.3237C35.4297 36.2106 36.1485 36.9307 37.0366 36.9307H39.7479C40.6347 36.9307 41.3549 36.2119 41.3549 35.3237V27.4805C41.1764 28.5665 40.83 30.7374 40.688 31.9784Z" fill="#454545"/>
<path d="M42.5831 13.3562C42.4529 12.7728 41.9047 12.377 41.3069 12.377H40.2235C39.5294 12.377 38.9668 12.9395 38.9668 13.6336V14.4058H38.3926L38.722 15.1884H39.9852C40.6389 15.1884 41.2861 15.0477 41.8799 14.7756C42.1424 14.6558 42.3555 14.4493 42.4836 14.1908C42.6116 13.9323 42.6468 13.6376 42.5831 13.3562Z" fill="#ED6262"/>
<path d="M37.1441 21.7647C38.0164 21.7647 38.7237 21.0575 38.7237 20.1851C38.7237 19.3127 38.0164 18.6055 37.1441 18.6055C36.2717 18.6055 35.5645 19.3127 35.5645 20.1851C35.5645 21.0575 36.2717 21.7647 37.1441 21.7647Z" fill="#FFBD49"/>
<path d="M33.9669 22.592C34.6077 22.592 35.1272 22.0726 35.1272 21.4318C35.1272 20.791 34.6077 20.2715 33.9669 20.2715C33.3261 20.2715 32.8066 20.791 32.8066 21.4318C32.8066 22.0726 33.3261 22.592 33.9669 22.592Z" fill="#FFDB6F"/>
<path d="M30.9596 21.4316L29.1456 24.5908H14.4097L12.5957 21.4316H30.9596Z" fill="#6F6F6F"/>
<path d="M11.347 20.619C11.3191 20.5768 11.2891 20.5359 11.2571 20.4966C11.2571 20.4966 11.0813 19.9094 10.0447 19.5161C9.41969 19.279 8.82193 18.9756 8.23726 18.6501C7.91563 18.4704 7.53408 18.2893 7.12256 18.1604C5.49999 17.6525 3.85795 19.0159 4.16657 20.688C4.17571 20.7362 4.18612 20.7831 4.19653 20.8313C4.32024 21.3378 4.69785 21.7415 5.18097 21.9356C6.02482 22.2741 7.68642 22.8588 9.7049 23.144C11.1009 23.3419 12.1335 21.7871 11.347 20.619Z" fill="white"/>
<path d="M7.21255 27.5215H4.9688C4.91902 27.5214 4.86971 27.5312 4.82371 27.5502C4.77771 27.5692 4.73591 27.5972 4.70071 27.6324C4.66551 27.6676 4.6376 27.7094 4.61858 27.7554C4.59955 27.8014 4.58979 27.8507 4.58984 27.9004V30.1442C4.58984 30.4814 4.99876 30.6507 5.23704 30.4124L7.48079 28.1687C7.71908 27.9304 7.54979 27.5215 7.21255 27.5215Z" fill="#FFE21F"/>
<path d="M36.7183 31.4357C34.3821 27.3937 31.6956 27.52 31.6956 27.52H11.8616C11.8616 27.52 9.17642 27.3937 6.83891 31.4357H2.80078L2.8503 31.9566C2.87184 32.192 2.98064 32.4109 3.15533 32.5702C3.33002 32.7295 3.55796 32.8176 3.79437 32.8174H39.7642C40.0006 32.8176 40.2286 32.7295 40.4033 32.5702C40.578 32.4109 40.6868 32.1921 40.7084 31.9567L40.7579 31.4358L36.7183 31.4357Z" fill="#777777"/>
<path d="M3.80939 32.8202C3.57674 32.8201 3.35224 32.7345 3.17863 32.5796C3.00503 32.4247 2.89444 32.2114 2.86793 31.9802C2.726 30.7392 2.37827 28.5672 2.20117 27.4824V35.3257C2.20117 36.2125 2.91996 36.9326 3.80813 36.9326H6.5193C7.40612 36.9326 8.12626 36.2139 8.12626 35.3257V32.8202H3.80939V32.8202Z" fill="#454545"/>
<path d="M4.58902 14.4038V13.6316C4.58902 12.9375 4.02642 12.375 3.33365 12.375H2.25026C1.65258 12.375 1.10434 12.7709 0.974074 13.3542C0.910715 13.6354 0.94602 13.9298 1.07406 14.188C1.2021 14.4463 1.41509 14.6526 1.67726 14.7723C2.27188 15.0444 2.91812 15.1852 3.57202 15.1851H4.83519L5.16463 14.4025H4.58902V14.4038Z" fill="#ED6262"/>
<path d="M6.41163 21.7647C7.28402 21.7647 7.99123 21.0575 7.99123 20.1851C7.99123 19.3127 7.28402 18.6055 6.41163 18.6055C5.53924 18.6055 4.83203 19.3127 4.83203 20.1851C4.83203 21.0575 5.53924 21.7647 6.41163 21.7647Z" fill="#FFBD49"/>
<path d="M9.58996 22.592C10.2308 22.592 10.7502 22.0726 10.7502 21.4318C10.7502 20.791 10.2308 20.2715 9.58996 20.2715C8.94916 20.2715 8.42969 20.791 8.42969 21.4318C8.42969 22.0726 8.94916 22.592 9.58996 22.592Z" fill="#FFDB6F"/>
<path d="M30.1756 28.627H13.3796C13.2536 28.627 13.1327 28.6771 13.0435 28.7662C12.9544 28.8553 12.9043 28.9762 12.9043 29.1023C12.9042 29.1647 12.9164 29.2265 12.9403 29.2843C12.9642 29.342 12.9992 29.3944 13.0433 29.4385C13.0875 29.4827 13.1399 29.5177 13.1976 29.5416C13.2553 29.5654 13.3172 29.5777 13.3796 29.5776H30.1743C30.3003 29.5775 30.4212 29.5275 30.5104 29.4383C30.5995 29.3492 30.6496 29.2283 30.6496 29.1023C30.6509 28.8392 30.4373 28.627 30.1756 28.627ZM30.1756 30.5243H13.3796C13.2536 30.5243 13.1327 30.5744 13.0435 30.6636C12.9544 30.7527 12.9043 30.8736 12.9043 30.9996C12.9042 31.0621 12.9164 31.1239 12.9403 31.1816C12.9642 31.2393 12.9992 31.2918 13.0433 31.3359C13.0875 31.3801 13.1399 31.4151 13.1976 31.4389C13.2553 31.4628 13.3172 31.475 13.3796 31.4749H30.1743C30.3003 31.4749 30.4212 31.4248 30.5104 31.3357C30.5995 31.2466 30.6496 31.1257 30.6496 30.9996C30.6509 30.7366 30.4373 30.5243 30.1756 30.5243Z" fill="#6F6F6F"/>
<path d="M36.2029 11.0823V11.245C36.2029 11.9 35.665 12.4248 34.997 12.3975C34.3811 12.3585 33.9097 11.8076 33.9097 11.1786V8.84247C33.9097 8.29162 33.4513 7.8723 32.9005 7.88665H32.8615C32.3106 7.87364 31.8523 8.29296 31.8523 8.84247V10.956C31.8523 11.611 31.2884 12.1358 30.6334 12.0954C30.0174 12.0694 29.5461 11.5055 29.5461 10.8896V9.05213C29.5461 8.50128 29.0877 8.04293 28.5239 8.04293H28.4457C27.9209 8.04293 27.4886 8.47526 27.4886 9.00009V11.3896C27.4886 12.0446 26.9377 12.5681 26.2697 12.5421C25.6537 12.5031 25.1954 11.9522 25.1954 11.3232V8.11973C25.1954 7.60925 24.75 7.17692 24.2252 7.21595H24.1471C23.6092 7.21595 23.1782 7.64828 23.1782 8.17311V11.4482C23.1782 12.0772 22.6678 12.6007 22.0258 12.6007C21.4098 12.6007 20.8993 12.1032 20.8863 11.4873V8.73839C20.8863 8.1094 20.415 7.5599 19.799 7.51953C19.131 7.49351 18.5931 8.017 18.5931 8.672L18.5801 11.2114C18.5801 11.8664 18.0436 12.3898 17.3743 12.3638C16.77 12.3261 16.3117 11.7948 16.2934 11.1931V8.21348C16.2934 7.5949 15.8285 7.04146 15.2099 7.00503C14.5471 6.97641 14.0001 7.49855 14.0001 8.1549V11.2763C13.9819 11.9157 13.4454 12.4248 12.7877 12.3988C12.1718 12.3598 11.7134 11.809 11.7134 11.18V8.84247C11.7134 8.29162 11.242 7.8723 10.6912 7.88665H10.6652C10.1013 7.87364 9.64297 8.29296 9.64297 8.84247V10.956C9.64297 11.611 9.09212 12.1358 8.43712 12.0954C7.86672 12.0733 7.44219 11.5967 7.36934 11.0445C6.76377 12.2985 6.16349 13.6567 5.58008 15.1074C16.3574 15.9564 27.1849 15.9564 37.9623 15.1074C37.3814 13.6529 36.7928 12.3115 36.2029 11.0823Z" fill="#3AA2EB"/>
</g>
<defs>
<clipPath id="clip0_2162_19378">
<rect width="41.67" height="41.67" fill="white" transform="translate(0.941406 0.00195312)"/>
</clipPath>
</defs>
</svg>
