<svg width="42" height="42" viewBox="0 0 42 42" fill="none" xmlns="http://www.w3.org/2000/svg">
<g clip-path="url(#clip0_2162_19407)">
<path d="M22.3303 1.22275V30.6847C22.3303 31.3683 21.7932 31.9055 21.1095 31.9055C20.4257 31.9055 19.8887 31.3683 19.8887 30.6847V1.22275C19.8887 0.539024 20.4257 0.00195312 21.1095 0.00195312C21.7932 0.00195312 22.3303 0.539024 22.3303 1.22275Z" fill="#C5C9F7"/>
<path d="M23.552 31.9064V34.0551C23.552 36.3012 22.6241 38.3523 21.1104 39.7683C20.1825 40.6473 19.0106 41.2577 17.692 41.5264C17.2039 41.6239 16.7155 41.6729 16.2516 41.6729C14.5424 41.6729 12.8822 41.0869 11.5638 40.0126C9.87907 38.5964 8.90234 36.5454 8.90234 34.348C8.90234 33.0052 10.0011 31.9064 11.3439 31.9064C12.6868 31.9064 13.7855 33.0052 13.7855 34.348C13.7855 35.6909 14.8843 36.7896 16.2271 36.7896C17.57 36.7896 18.6688 35.6909 18.6688 34.348V31.9064C18.6688 30.5636 19.7675 29.4648 21.1104 29.4648C22.4532 29.4648 23.552 30.5636 23.552 31.9064Z" fill="#063E8B"/>
<path d="M21.1113 0.00195312L32.1799 21.1933C33.0636 20.0399 34.3692 19.3631 35.8423 19.3631C37.4232 19.3631 38.8323 20.1177 39.7098 21.4328C40.0155 21.8897 40.578 22.0775 41.0796 21.924C41.3303 21.848 41.55 21.6934 41.706 21.483C41.8621 21.2726 41.9463 21.0175 41.9463 20.7556C41.9463 9.31178 32.5551 0.00195312 21.1113 0.00195312Z" fill="#136EF1"/>
<path d="M0.275391 20.7556C0.275366 21.0175 0.359616 21.2725 0.515688 21.4829C0.671761 21.6933 0.891375 21.8479 1.14208 21.9239C1.65831 22.0788 2.21386 21.8798 2.5119 21.4327C3.38933 20.1177 4.87993 19.363 6.46078 19.363C7.93388 19.363 9.23949 20.0398 10.1232 21.1932L21.1104 0.00195312C9.6666 0.00195312 0.275391 9.31178 0.275391 20.7556Z" fill="#1689FC"/>
<path d="M32.1788 19.5348V21.1951C31.373 22.2694 30.3721 22.074 29.9327 21.4391C29.0535 20.1207 27.5806 19.3639 25.9935 19.3639C24.4063 19.3639 23.0148 20.1207 22.1356 21.4391C21.8916 21.781 21.5008 21.952 21.1103 21.952C20.7197 21.952 20.3289 21.781 20.0849 21.4391C19.2057 20.1207 17.8142 19.3639 16.2271 19.3639C14.6399 19.3639 13.2484 20.1207 12.3692 21.4391C11.9298 22.0739 10.9288 22.2694 10.123 21.1951V19.5348C10.123 8.57197 14.9573 0.00195312 21.1103 0.00195312C27.2632 0.00195312 32.1788 8.57197 32.1788 19.5348Z" fill="#17ACE8"/>
<path d="M32.1799 19.5348V21.1951C31.3741 22.2694 30.3731 22.074 29.9337 21.4391C29.0546 20.1207 27.5817 19.3639 25.9945 19.3639C24.4074 19.3639 23.0159 20.1207 22.1367 21.4391C21.8926 21.781 21.5019 21.952 21.1113 21.952V0.00195312C27.2642 0.00195312 32.1799 8.57197 32.1799 19.5348Z" fill="#1689FC"/>
</g>
<defs>
<clipPath id="clip0_2162_19407">
<rect width="41.67" height="41.67" fill="white" transform="translate(0.273438 0.00195312)"/>
</clipPath>
</defs>
</svg>
