<svg width="43" height="42" viewBox="0 0 43 42" fill="none" xmlns="http://www.w3.org/2000/svg">
<g clip-path="url(#clip0_2162_19417)">
<path fill-rule="evenodd" clip-rule="evenodd" d="M42.6132 0.916385L42.2539 5.54463C42.24 5.73552 42.1715 5.91839 42.0566 6.07147C41.9418 6.22454 41.7853 6.34138 41.6059 6.40807C41.4265 6.47476 41.2317 6.48849 41.0447 6.44763C40.8577 6.40676 40.6864 6.31303 40.5512 6.17758L39.5095 5.13511L32.5822 12.0717C32.0426 12.6101 31.3115 12.9124 30.5493 12.9124C29.7871 12.9124 29.056 12.6101 28.5165 12.0717L25.31 8.86386C25.1753 8.72917 24.9926 8.65351 24.8021 8.65351C24.6116 8.65351 24.4289 8.72917 24.2942 8.86386L13.7538 19.4085C13.4869 19.6757 13.17 19.8877 12.8211 20.0323C12.4722 20.1769 12.0983 20.2514 11.7206 20.2514C11.3429 20.2514 10.969 20.1769 10.6201 20.0323C10.2712 19.8877 9.95429 19.6757 9.68739 19.4085L7.91785 17.6383C7.78315 17.5038 7.6006 17.4283 7.41027 17.4283C7.21994 17.4283 7.03738 17.5038 6.90268 17.6383L3.3945 21.1407C2.83195 21.6939 1.93102 21.6939 1.36847 21.1407C1.23386 21.0085 1.12693 20.8508 1.05394 20.6768C0.980952 20.5028 0.943359 20.316 0.943359 20.1273C0.943359 19.9387 0.980952 19.7519 1.05394 19.5779C1.12693 19.4039 1.23386 19.2462 1.36847 19.114L5.37742 15.0964C5.6443 14.8293 5.9612 14.6174 6.31001 14.4729C6.65882 14.3283 7.03269 14.2539 7.41027 14.2539C7.78784 14.2539 8.16172 14.3283 8.51052 14.4729C8.85933 14.6174 9.17623 14.8293 9.44312 15.0964L11.7199 17.3746L22.7696 6.32415C23.0365 6.05706 23.3534 5.84518 23.7022 5.70062C24.051 5.55606 24.4249 5.48166 24.8025 5.48166C25.18 5.48166 25.5539 5.55606 25.9027 5.70062C26.2515 5.84518 26.5684 6.05706 26.8353 6.32415L30.0403 9.52843C30.107 9.59522 30.1863 9.64822 30.2735 9.68437C30.3607 9.72053 30.4542 9.73914 30.5486 9.73914C30.643 9.73914 30.7365 9.72053 30.8237 9.68437C30.911 9.64822 30.9902 9.59522 31.0569 9.52843L37.4813 3.10119L36.4395 2.05944C36.3046 1.92458 36.2113 1.75379 36.1707 1.56741C36.1301 1.38102 36.144 1.1869 36.2106 1.00815C36.2772 0.829413 36.3938 0.673587 36.5465 0.559237C36.6992 0.444888 36.8815 0.376833 37.0718 0.36318L41.7058 0.0018003C41.8276 -0.00612177 41.9497 0.0121638 42.0639 0.0554245C42.178 0.0986853 42.2816 0.165916 42.3676 0.252586C42.4536 0.339256 42.52 0.443352 42.5624 0.557858C42.6047 0.672364 42.622 0.794619 42.6132 0.916385Z" fill="#4FBA6F"/>
<path d="M11.7204 38.7988H3.09901C2.30543 38.7988 1.66211 39.4421 1.66211 40.2357C1.66211 41.0293 2.30543 41.6726 3.09901 41.6726H11.7204C12.514 41.6726 13.1573 41.0293 13.1573 40.2357C13.1573 39.4421 12.514 38.7988 11.7204 38.7988Z" fill="#F0C419"/>
<path d="M26.0895 38.7988H17.4681C16.6746 38.7988 16.0312 39.4421 16.0312 40.2357C16.0312 41.0293 16.6746 41.6726 17.4681 41.6726H26.0895C26.8831 41.6726 27.5264 41.0293 27.5264 40.2357C27.5264 39.4421 26.8831 38.7988 26.0895 38.7988Z" fill="#F0C419"/>
<path d="M26.0895 35.9238H17.4681C16.6746 35.9238 16.0312 36.5671 16.0312 37.3607C16.0312 38.1543 16.6746 38.7976 17.4681 38.7976H26.0895C26.8831 38.7976 27.5264 38.1543 27.5264 37.3607C27.5264 36.5671 26.8831 35.9238 26.0895 35.9238Z" fill="#F3D55B"/>
<path d="M26.0895 33.0508H17.4681C16.6746 33.0508 16.0312 33.6941 16.0312 34.4877C16.0312 35.2813 16.6746 35.9246 17.4681 35.9246H26.0895C26.8831 35.9246 27.5264 35.2813 27.5264 34.4877C27.5264 33.6941 26.8831 33.0508 26.0895 33.0508Z" fill="#F0C419"/>
<path d="M40.4587 38.7988H31.8373C31.0437 38.7988 30.4004 39.4421 30.4004 40.2357C30.4004 41.0293 31.0437 41.6726 31.8373 41.6726H40.4587C41.2522 41.6726 41.8956 41.0293 41.8956 40.2357C41.8956 39.4421 41.2522 38.7988 40.4587 38.7988Z" fill="#F0C419"/>
<path d="M21.7785 33.0512C25.3496 33.0512 28.2446 30.1563 28.2446 26.5852C28.2446 23.0141 25.3496 20.1191 21.7785 20.1191C18.2074 20.1191 15.3125 23.0141 15.3125 26.5852C15.3125 30.1563 18.2074 33.0512 21.7785 33.0512Z" fill="#F3D55B"/>
<path d="M40.4587 35.9238H31.8373C31.0437 35.9238 30.4004 36.5671 30.4004 37.3607C30.4004 38.1543 31.0437 38.7976 31.8373 38.7976H40.4587C41.2522 38.7976 41.8956 38.1543 41.8956 37.3607C41.8956 36.5671 41.2522 35.9238 40.4587 35.9238Z" fill="#F3D55B"/>
<path d="M40.4587 33.0508H31.8373C31.0437 33.0508 30.4004 33.6941 30.4004 34.4877C30.4004 35.2813 31.0437 35.9246 31.8373 35.9246H40.4587C41.2522 35.9246 41.8956 35.2813 41.8956 34.4877C41.8956 33.6941 41.2522 33.0508 40.4587 33.0508Z" fill="#F0C419"/>
<path d="M40.4587 30.1777H31.8373C31.0437 30.1777 30.4004 30.8211 30.4004 31.6146C30.4004 32.4082 31.0437 33.0515 31.8373 33.0515H40.4587C41.2522 33.0515 41.8956 32.4082 41.8956 31.6146C41.8956 30.8211 41.2522 30.1777 40.4587 30.1777Z" fill="#F3D55B"/>
<path d="M40.4587 27.3027H31.8373C31.0437 27.3027 30.4004 27.9461 30.4004 28.7396C30.4004 29.5332 31.0437 30.1765 31.8373 30.1765H40.4587C41.2522 30.1765 41.8956 29.5332 41.8956 28.7396C41.8956 27.9461 41.2522 27.3027 40.4587 27.3027Z" fill="#F0C419"/>
<path d="M36.1477 27.3032C39.7188 27.3032 42.6137 24.4082 42.6137 20.8371C42.6137 17.266 39.7188 14.3711 36.1477 14.3711C32.5766 14.3711 29.6816 17.266 29.6816 20.8371C29.6816 24.4082 32.5766 27.3032 36.1477 27.3032Z" fill="#F3D55B"/>
<path d="M7.40939 38.7973C10.9805 38.7973 13.8754 35.9024 13.8754 32.3313C13.8754 28.7602 10.9805 25.8652 7.40939 25.8652C3.8383 25.8652 0.943359 28.7602 0.943359 32.3313C0.943359 35.9024 3.8383 38.7973 7.40939 38.7973Z" fill="#F3D55B"/>
<path fill-rule="evenodd" clip-rule="evenodd" d="M21.7792 25.8652C21.6531 25.8651 21.5293 25.8318 21.4202 25.7687C21.311 25.7055 21.2204 25.6148 21.1575 25.5055C21.0945 25.3963 21.0614 25.2724 21.0615 25.1463C21.0615 25.0202 21.0948 24.8964 21.1579 24.7872C21.221 24.6781 21.3117 24.5874 21.4209 24.5244C21.5301 24.4614 21.654 24.4283 21.7801 24.4283C21.9062 24.4284 22.03 24.4616 22.1392 24.5246C22.2484 24.5877 22.3391 24.6784 22.4021 24.7875C22.4477 24.8722 22.5098 24.9469 22.5848 25.0071C22.6597 25.0674 22.746 25.112 22.8386 25.1382C22.9311 25.1645 23.0279 25.1719 23.1234 25.1601C23.2188 25.1482 23.3109 25.1173 23.3942 25.0692C23.4774 25.0211 23.5502 24.9567 23.6081 24.88C23.6661 24.8032 23.708 24.7156 23.7315 24.6224C23.755 24.5291 23.7595 24.4321 23.7447 24.337C23.73 24.242 23.6963 24.1509 23.6457 24.0691C23.3853 23.632 22.9786 23.3012 22.4977 23.1351V22.9914C22.4977 22.8009 22.422 22.6181 22.2872 22.4834C22.1525 22.3487 21.9698 22.273 21.7792 22.273C21.5887 22.273 21.4059 22.3487 21.2712 22.4834C21.1365 22.6181 21.0608 22.8009 21.0608 22.9914V23.1236C20.5818 23.2923 20.178 23.6251 19.9209 24.063C19.6637 24.5009 19.5699 25.0157 19.6559 25.5162C19.742 26.0167 20.0024 26.4705 20.391 26.7974C20.7796 27.1243 21.2714 27.3031 21.7792 27.3021C21.9053 27.3022 22.0291 27.3355 22.1383 27.3987C22.2474 27.4618 22.338 27.5526 22.401 27.6618C22.4639 27.771 22.497 27.8949 22.497 28.021C22.4969 28.1471 22.4636 28.2709 22.4005 28.3801C22.3374 28.4892 22.2467 28.5799 22.1375 28.6429C22.0283 28.7059 21.9044 28.739 21.7783 28.739C21.6523 28.739 21.5284 28.7058 21.4192 28.6427C21.31 28.5797 21.2194 28.489 21.1563 28.3798C21.058 28.2209 20.9018 28.1066 20.7206 28.061C20.5395 28.0155 20.3477 28.0422 20.186 28.1357C20.0242 28.2291 19.9052 28.3819 19.8542 28.5616C19.8032 28.7413 19.8242 28.9337 19.9127 29.0982C20.1735 29.5356 20.5807 29.8665 21.0622 30.0322V30.1759C21.0622 30.3665 21.1379 30.5492 21.2726 30.6839C21.4074 30.8187 21.5901 30.8944 21.7807 30.8944C21.9712 30.8944 22.1539 30.8187 22.2887 30.6839C22.4234 30.5492 22.4991 30.3665 22.4991 30.1759V30.0437C22.9782 29.875 23.3821 29.5421 23.6392 29.104C23.8963 28.6659 23.9901 28.151 23.9038 27.6504C23.8176 27.1499 23.5569 26.696 23.1681 26.3692C22.7792 26.0425 22.2872 25.8639 21.7792 25.8652ZM38.3035 22.273C38.3035 21.7013 38.0764 21.1531 37.6722 20.7489C37.268 20.3447 36.7198 20.1176 36.1482 20.1176C36.0221 20.1175 35.8983 20.0842 35.7891 20.0211C35.68 19.9579 35.5894 19.8672 35.5264 19.758C35.4635 19.6487 35.4304 19.5248 35.4304 19.3987C35.4305 19.2727 35.4638 19.1488 35.5269 19.0397C35.59 18.9305 35.6807 18.8399 35.7899 18.7769C35.8991 18.7139 36.023 18.6807 36.1491 18.6807C36.2751 18.6808 36.399 18.714 36.5082 18.777C36.6174 18.8401 36.708 18.9308 36.7711 19.04C36.8694 19.1988 37.0256 19.3131 37.2068 19.3587C37.3879 19.4043 37.5797 19.3775 37.7414 19.2841C37.9032 19.1906 38.0222 19.0379 38.0732 18.8582C38.1242 18.6785 38.1032 18.486 38.0147 18.3215C37.7546 17.8841 37.3478 17.5532 36.8666 17.3875V17.2438C36.8666 17.0533 36.7909 16.8706 36.6562 16.7358C36.5215 16.6011 36.3387 16.5254 36.1482 16.5254C35.9576 16.5254 35.7749 16.6011 35.6402 16.7358C35.5054 16.8706 35.4297 17.0533 35.4297 17.2438V17.376C34.9508 17.5447 34.5469 17.8775 34.2898 18.3154C34.0327 18.7533 33.9388 19.2681 34.0249 19.7686C34.1109 20.2691 34.3713 20.7229 34.76 21.0498C35.1486 21.3767 35.6404 21.5555 36.1482 21.5545C36.2743 21.5547 36.3981 21.588 36.5072 21.6511C36.6164 21.7142 36.707 21.805 36.7699 21.9142C36.8329 22.0234 36.866 22.1473 36.8659 22.2734C36.8659 22.3995 36.8326 22.5233 36.7695 22.6325C36.7064 22.7417 36.6157 22.8323 36.5065 22.8953C36.3973 22.9583 36.2734 22.9915 36.1473 22.9914C36.0212 22.9914 35.8974 22.9582 35.7882 22.8951C35.679 22.8321 35.5883 22.7414 35.5253 22.6322C35.427 22.4734 35.2707 22.359 35.0896 22.3134C34.9084 22.2679 34.7167 22.2947 34.5549 22.3881C34.3932 22.4815 34.2742 22.6343 34.2232 22.814C34.1722 22.9937 34.1931 23.1862 34.2817 23.3506C34.5424 23.7889 34.9498 24.1194 35.4312 24.2846V24.4283C35.4312 24.6189 35.5069 24.8016 35.6416 24.9363C35.7763 25.0711 35.9591 25.1468 36.1496 25.1468C36.3402 25.1468 36.5229 25.0711 36.6576 24.9363C36.7924 24.8016 36.8681 24.6189 36.8681 24.4283V24.2961C37.2866 24.1478 37.6491 23.8739 37.906 23.5118C38.163 23.1496 38.3018 22.717 38.3035 22.273ZM7.41025 31.6128C7.28417 31.6127 7.16034 31.5794 7.0512 31.5162C6.94206 31.4531 6.85146 31.3624 6.7885 31.2531C6.72554 31.1439 6.69243 31.02 6.69251 30.8939C6.69258 30.7678 6.72584 30.644 6.78893 30.5348C6.85203 30.4257 6.94274 30.335 7.05196 30.272C7.16117 30.209 7.28504 30.1759 7.41113 30.1759C7.53721 30.1759 7.66107 30.2092 7.77025 30.2722C7.87944 30.3353 7.97011 30.4259 8.03315 30.5351C8.07872 30.6198 8.14084 30.6945 8.21581 30.7547C8.29078 30.815 8.37708 30.8595 8.46959 30.8858C8.56211 30.9121 8.65896 30.9195 8.75439 30.9076C8.84983 30.8958 8.94192 30.8649 9.02519 30.8168C9.10847 30.7687 9.18124 30.7043 9.23918 30.6276C9.29713 30.5508 9.33908 30.4632 9.36254 30.3699C9.38601 30.2767 9.39051 30.1797 9.37577 30.0846C9.36104 29.9896 9.32738 29.8985 9.27678 29.8167C9.01632 29.3796 8.60964 29.0488 8.1287 28.8827V28.739C8.1287 28.5485 8.05301 28.3657 7.91827 28.231C7.78354 28.0963 7.6008 28.0206 7.41025 28.0206C7.21971 28.0206 7.03697 28.0963 6.90223 28.231C6.7675 28.3657 6.69181 28.5485 6.69181 28.739V28.8712C6.21283 29.0399 5.80902 29.3727 5.55189 29.8106C5.29476 30.2485 5.20091 30.7633 5.28696 31.2638C5.37301 31.7642 5.63341 32.2181 6.02204 32.545C6.41066 32.8719 6.90244 33.0507 7.41025 33.0497C7.53634 33.0498 7.66017 33.0831 7.76931 33.1463C7.87845 33.2094 7.96905 33.3001 8.03201 33.4094C8.09497 33.5186 8.12808 33.6425 8.128 33.7686C8.12792 33.8947 8.09467 34.0185 8.03157 34.1277C7.96848 34.2368 7.87777 34.3275 7.76855 34.3905C7.65933 34.4535 7.53546 34.4866 7.40938 34.4866C7.28329 34.4866 7.15944 34.4534 7.05025 34.3903C6.94107 34.3272 6.8504 34.2366 6.78736 34.1274C6.74179 34.0427 6.67967 33.968 6.6047 33.9078C6.52973 33.8475 6.44343 33.803 6.35091 33.7767C6.2584 33.7504 6.16155 33.743 6.06611 33.7549C5.97068 33.7667 5.87859 33.7976 5.79531 33.8457C5.71204 33.8938 5.63927 33.9582 5.58132 34.0349C5.52337 34.1117 5.48143 34.1993 5.45796 34.2926C5.4345 34.3858 5.43 34.4828 5.44473 34.5779C5.45947 34.6729 5.49313 34.764 5.54373 34.8458C5.80454 35.2832 6.21177 35.614 6.69324 35.7798V35.9235C6.69324 36.114 6.76894 36.2968 6.90367 36.4315C7.03841 36.5662 7.22115 36.6419 7.41169 36.6419C7.60223 36.6419 7.78497 36.5662 7.91971 36.4315C8.05445 36.2968 8.13014 36.114 8.13014 35.9235V35.7913C8.60923 35.6226 9.01313 35.2897 9.27025 34.8516C9.52737 34.4135 9.62111 33.8986 9.53487 33.398C9.44863 32.8975 9.18797 32.4436 8.79909 32.1168C8.4102 31.79 7.9182 31.6115 7.41025 31.6128Z" fill="#B19046"/>
</g>
<defs>
<clipPath id="clip0_2162_19417">
<rect width="41.67" height="41.67" fill="white" transform="translate(0.941406 0.00195312)"/>
</clipPath>
</defs>
</svg>
