<svg width="43" height="42" viewBox="0 0 43 42" fill="none" xmlns="http://www.w3.org/2000/svg">
<g clip-path="url(#clip0_2162_19445)">
<path d="M21.7919 34.9975H11.8351C10.8954 34.9983 9.97935 34.7031 9.21702 34.1536C8.45469 33.6041 7.88489 32.8284 7.58855 31.9367L3.80676 20.5911C3.527 19.7527 3.3845 18.8746 3.38477 17.9907C3.38477 13.4564 7.07362 9.76758 11.6078 9.76758H22.0192C26.5535 9.76758 30.2424 13.4564 30.2424 17.9907C30.2426 18.8746 30.1001 19.7527 29.8204 20.5911L26.0385 31.9368C25.7422 32.8285 25.1724 33.6042 24.41 34.1537C23.6477 34.7031 22.7316 34.9984 21.7919 34.9975Z" fill="#EF5CA2"/>
<path d="M22.0201 9.76758H16.8145V34.9975H21.7928C22.7325 34.9983 23.6486 34.7031 24.411 34.1536C25.1733 33.6042 25.7431 32.8284 26.0395 31.9367L29.8214 20.591C30.1011 19.7526 30.2436 18.8745 30.2433 17.9906C30.2433 13.4564 26.5544 9.76758 22.0201 9.76758Z" fill="#EA1C81"/>
<path d="M19.2555 8.95449C18.9599 8.95478 18.6743 8.84742 18.452 8.65247C17.9447 8.2085 17.8932 7.4372 18.3372 6.92984L24.0343 0.418897C24.1489 0.287933 24.2901 0.182978 24.4486 0.111068C24.607 0.0391578 24.779 0.00195485 24.9531 0.00195313L31.464 0.00195312C32.1382 0.00195312 32.6848 0.548546 32.6848 1.22275C32.6848 1.89696 32.1382 2.44355 31.464 2.44355H25.5071L20.1748 8.53755C20.0602 8.66872 19.9189 8.77382 19.7604 8.84574C19.6018 8.91767 19.4296 8.95475 19.2555 8.95449Z" fill="#453D81"/>
<path d="M14.3727 8.95449C14.1985 8.95476 14.0264 8.91768 13.8678 8.84576C13.7092 8.77383 13.5679 8.66873 13.4534 8.53755L8.1211 2.44355H2.16416C1.48995 2.44355 0.943359 1.89696 0.943359 1.22275C0.943359 0.548546 1.48995 0.00195312 2.16416 0.00195312H8.6751C8.84911 0.00195485 9.02111 0.0391578 9.17957 0.111068C9.33803 0.182978 9.47929 0.287933 9.59387 0.418897L15.2909 6.92984C15.7349 7.4372 15.6835 8.2085 15.1761 8.65247C14.9539 8.84742 14.6683 8.95478 14.3727 8.95449Z" fill="#6B61B1"/>
<path d="M19.2544 8.97297H14.3712C13.697 8.97297 13.1504 8.42637 13.1504 7.75217V3.66436C13.1504 1.64491 14.7933 0.00195312 16.8128 0.00195312C18.8322 0.00195312 20.4752 1.64491 20.4752 3.66436V7.75217C20.4752 8.42637 19.9286 8.97297 19.2544 8.97297Z" fill="#EF5CA2"/>
<path d="M19.2561 8.97297C19.9303 8.97297 20.4769 8.42637 20.4769 7.75217V3.66436C20.4769 1.64491 18.8339 0.00195312 16.8145 0.00195312V8.97297H19.2561Z" fill="#EA1C81"/>
<path d="M16.8136 16.2795C19.7352 16.2795 22.1037 13.911 22.1037 10.9894C22.1037 8.06769 19.7352 5.69922 16.8136 5.69922C13.8919 5.69922 11.5234 8.06769 11.5234 10.9894C11.5234 13.911 13.8919 16.2795 16.8136 16.2795Z" fill="#E789DA"/>
<path d="M22.1046 10.9894C22.1046 8.07237 19.7314 5.69922 16.8145 5.69922V16.2795C19.7314 16.2795 22.1046 13.9063 22.1046 10.9894Z" fill="#EF5CA2"/>
<path d="M16.8134 13.8377C18.3866 13.8377 19.6619 12.5624 19.6619 10.9892C19.6619 9.41596 18.3866 8.14062 16.8134 8.14062C15.2402 8.14062 13.9648 9.41596 13.9648 10.9892C13.9648 12.5624 15.2402 13.8377 16.8134 13.8377Z" fill="#FFFA8C"/>
<path d="M19.663 10.9892C19.663 9.41848 18.3851 8.14062 16.8145 8.14062V13.8377C18.3851 13.8377 19.663 12.5598 19.663 10.9892Z" fill="#FFC178"/>
<path d="M16.8128 41.6718C14.7901 41.6718 13.1504 40.0321 13.1504 38.0094V29.5452C13.1504 27.5225 14.7901 25.8828 16.8128 25.8828C18.8355 25.8828 20.4752 27.5225 20.4752 29.5452V38.0094C20.4752 40.0321 18.8355 41.6718 16.8128 41.6718Z" fill="#6B61B1"/>
<path d="M16.8145 25.8828V41.6718C18.8372 41.6718 20.4769 40.0321 20.4769 38.0094V29.5452C20.4769 27.5225 18.8372 25.8828 16.8145 25.8828Z" fill="#453D81"/>
<path d="M33.254 34.5904C33.1358 34.5904 33.0177 34.5733 32.9032 34.5389C30.2797 33.7519 28.0287 32.1743 26.3938 29.9769C24.7588 27.7793 23.8945 25.17 23.8945 22.431V15.4646C23.8945 14.7903 24.4411 14.2437 25.1153 14.2437C26.658 14.2437 28.0449 13.3866 28.7348 12.0068L28.9066 11.6632C29.008 11.4604 29.1638 11.2898 29.3567 11.1706C29.5495 11.0514 29.7718 10.9883 29.9985 10.9883H36.5095C36.7362 10.9883 36.9584 11.0514 37.1513 11.1706C37.3442 11.2898 37.5 11.4603 37.6014 11.6631L37.7732 12.0068C38.4631 13.3866 39.85 14.2437 41.3927 14.2437C42.0669 14.2437 42.6135 14.7903 42.6135 15.4646V22.431C42.6135 25.17 41.7492 27.7793 40.1143 29.9769C38.4793 32.1743 36.2283 33.7519 33.6048 34.5389C33.491 34.5731 33.3728 34.5904 33.254 34.5904Z" fill="#9DDFF6"/>
<path d="M41.3926 14.2437C39.8499 14.2437 38.463 13.3866 37.7731 12.0069L37.6013 11.6632C37.5 11.4604 37.3441 11.2898 37.1512 11.1706C36.9584 11.0514 36.7361 10.9883 36.5094 10.9883H33.2539V34.5904C33.3721 34.5904 33.4903 34.5733 33.6047 34.5389C36.2282 33.7519 38.4792 32.1743 40.1142 29.9769C41.7491 27.7793 42.6134 25.17 42.6134 22.431V15.4646C42.6134 14.7903 42.0668 14.2437 41.3926 14.2437Z" fill="#6BA7FF"/>
<path d="M26.3359 16.5734V22.4328C26.3359 26.8486 29.1007 30.6842 33.2538 32.0902C37.4069 30.6842 40.1717 26.8486 40.1717 22.4328V16.5734C38.3241 16.2247 36.7179 15.0922 35.7666 13.4316H30.741C29.7897 15.0922 28.1835 16.2247 26.3359 16.5734Z" fill="#F5F5FF"/>
<path d="M35.7667 13.4316H33.2539V32.0901C37.407 30.6842 40.1718 26.8485 40.1718 22.4328V16.5733C38.3242 16.2247 36.718 15.0921 35.7667 13.4316Z" fill="#E2E7FA"/>
<path d="M32.1028 26.3131C31.9424 26.3133 31.7836 26.2819 31.6355 26.2205C31.4873 26.1591 31.3528 26.0691 31.2396 25.9555L28.9377 23.6535C28.4609 23.1768 28.4609 22.4039 28.9377 21.9271C29.4143 21.4503 30.1873 21.4503 30.6641 21.9271L32.1029 23.3658L35.8436 19.6252C36.3202 19.1484 37.0933 19.1484 37.57 19.6252C38.0468 20.1019 38.0468 20.8748 37.57 21.3516L32.9661 25.9555C32.8529 26.069 32.7183 26.1591 32.5701 26.2205C32.422 26.2818 32.2632 26.3133 32.1028 26.3131Z" fill="#6B61B1"/>
<path d="M35.8436 19.6252L33.2539 22.2149V25.6678L37.5701 21.3516C38.0469 20.8748 38.0469 20.1019 37.5701 19.6252C37.0933 19.1484 36.3203 19.1484 35.8436 19.6252Z" fill="#453D81"/>
</g>
<defs>
<clipPath id="clip0_2162_19445">
<rect width="41.67" height="41.67" fill="white" transform="translate(0.941406 0.00195312)"/>
</clipPath>
</defs>
</svg>
