<svg width="40" height="34" viewBox="0 0 40 34" fill="none" xmlns="http://www.w3.org/2000/svg">
<path d="M40.007 10.4455C40.007 12.3467 39.7336 14.2349 39.1997 16.0384C38.6624 17.8553 37.8664 19.5854 36.8362 21.1755C34.2199 25.2228 30.6052 28.528 26.3406 30.7726L20.4742 33.8588L14.6079 30.7726C10.3432 28.528 6.72858 25.2228 4.11223 21.1755C3.63693 20.4333 3.20721 19.6715 2.83609 18.8837H10.1023L10.7078 18.2326L14.6144 26.6968L17.8698 14.9771L20.4742 18.8837H26.6922C27.1479 19.6585 27.9748 20.1859 28.9384 20.1859C30.3774 20.1859 31.5428 19.0204 31.5428 17.5815C31.5428 16.1426 30.3774 14.9771 28.9384 14.9771C27.9748 14.9771 27.1479 15.5045 26.6922 16.2793H21.7764L17.2188 8.46617L13.9633 19.5348L10.7078 13.0238L8.70895 16.2793H1.82689C1.79434 16.2012 1.77481 16.1165 1.74876 16.0384C1.21487 14.2349 0.941406 12.3467 0.941406 10.4455C0.941406 8.71359 1.34508 7.00772 2.11989 5.46463C2.94032 3.82365 4.20139 2.44348 5.76186 1.47868C7.32233 0.513876 9.12058 0.00254572 10.9552 0.00195312C13.0257 0.00195312 14.992 0.653047 16.6197 1.78595C18.241 2.92536 19.5236 4.5531 20.2333 6.50638L20.4742 7.16398L20.7151 6.50638C21.4248 4.5531 22.7075 2.92536 24.3287 1.78595C25.9564 0.653047 27.9227 0.00195312 29.9932 0.00195312C31.8279 0.00254572 33.6261 0.513876 35.1866 1.47868C36.747 2.44348 38.0081 3.82365 38.8285 5.46463C39.6034 7.00772 40.007 8.71359 40.007 10.4455Z" fill="#E8394B"/>
<path d="M35.1896 1.47994C33.653 0.529339 31.869 0.00195312 29.9938 0.00195312C27.9234 0.00195312 25.9571 0.653047 24.3293 1.78595C22.6694 2.95183 21.4079 4.5997 20.7157 6.50638L20.4748 7.16398L20.2339 6.50638C19.5242 4.5531 18.2416 2.92536 16.6204 1.78595C14.9926 0.653047 13.0263 0.00195312 10.9559 0.00195312C10.9292 0.00195312 10.9031 0.00455762 10.8764 0.00455762C9.90361 2.49361 9.40498 5.14267 9.40625 7.81508C9.40625 9.8836 9.70055 11.8838 10.2462 13.7765L10.7084 13.0238L13.9639 19.5348L17.2194 8.46617L21.777 16.2793H26.6928C27.1486 15.5045 27.9754 14.9771 28.9391 14.9771C30.378 14.9771 31.5434 16.1426 31.5434 17.5815C31.5434 19.0204 30.378 20.1859 28.9391 20.1859C27.9754 20.1859 27.1486 19.6585 26.6928 18.8837H20.4748L17.8705 14.9771L15.6541 22.9563C19.1147 26.4377 23.7596 28.7412 28.9345 29.2087C32.0853 27.0935 34.7737 24.3606 36.8368 21.1755C37.867 19.5854 38.663 17.8553 39.2003 16.0384C39.7342 14.2349 40.0077 12.3467 40.0077 10.4455C40.0077 8.71359 39.604 7.00772 38.8292 5.46463C38.0092 3.82442 36.749 2.44473 35.1896 1.47994Z" fill="#FB525F"/>
<path d="M28.9001 3.60476C29.2738 2.26155 32.8275 1.81946 35.4742 4.44858C38.1209 7.07769 37.6814 10.6359 36.3102 11.0162C34.939 11.3964 33.435 9.71007 31.8261 8.08298C30.2179 6.45525 28.5264 4.94797 28.9001 3.60476Z" fill="#FD9CA7"/>
</svg>
