<svg width="63" height="48" viewBox="0 0 63 48" fill="none" xmlns="http://www.w3.org/2000/svg">
<path d="M57.7661 32.0742L35.5173 39.6111L31.2557 27.5318L53.5067 19.992L57.7661 32.0742Z" fill="url(#paint0_linear_1866_42261)"/>
<path d="M32.8782 28.2138L36.3641 38.0918L56.1432 31.3929L52.6598 21.5103L32.8782 28.2138ZM54.2249 29.5394C53.6007 29.7508 53.2718 30.4221 53.4892 31.0408C53.5076 31.0953 53.5359 31.1457 53.5632 31.1968L38.2719 36.377C38.2607 36.3197 38.2485 36.2639 38.2306 36.207C38.0133 35.5925 37.3308 35.2649 36.7061 35.4745C36.6495 35.495 36.5978 35.5213 36.5487 35.5465L34.6263 30.1043C34.6822 30.092 34.7416 30.083 34.7962 30.0638C35.4213 29.8526 35.7507 29.1781 35.5335 28.5628C35.5147 28.5065 35.4864 28.4561 35.4598 28.4051L50.7527 23.226C50.7618 23.2805 50.7746 23.3381 50.7919 23.3932C51.0097 24.0103 51.6916 24.3403 52.3162 24.1273C52.3741 24.1087 52.4242 24.0821 52.4758 24.0565L54.3953 29.5008C54.3402 29.5089 54.2823 29.5191 54.2249 29.5394Z" fill="#299FBB"/>
<path d="M45.3389 30.377C45.1836 30.3256 45.0089 30.2881 44.8106 30.2655L45.2454 31.4987C45.4442 31.4059 45.5775 31.2875 45.6412 31.147C45.7069 31.0052 45.7096 30.8509 45.6467 30.6802C45.596 30.5344 45.4934 30.4333 45.3389 30.377Z" fill="#299FBB"/>
<path d="M43.4906 28.7721C43.5413 28.9138 43.6376 29.0128 43.782 29.0689C43.9264 29.1251 44.0949 29.1647 44.2895 29.1891L43.8872 28.0473C43.6688 28.1323 43.5344 28.2387 43.4869 28.3638C43.438 28.492 43.4407 28.6264 43.4906 28.7721Z" fill="#299FBB"/>
<path d="M43.3232 26.1923C41.3207 26.871 40.2635 29.0266 40.9616 31.0059C41.6586 32.9858 43.8493 34.0386 45.8515 33.3616C47.8525 32.6819 48.9109 30.529 48.2132 28.5481C47.5157 26.5706 45.3257 25.5137 43.3232 26.1923ZM46.5589 31.3863C46.4233 31.7018 46.1764 31.9589 45.8186 32.1595L46.0484 32.8106L45.3124 33.0598L45.0974 32.4508C44.8253 32.5325 44.5792 32.5822 44.3574 32.6047C44.1374 32.6266 43.9613 32.624 43.8264 32.6023L43.8192 31.7079C43.9223 31.7296 44.0595 31.7392 44.2297 31.7331C44.3989 31.7277 44.5935 31.6985 44.8127 31.6447L44.3125 30.2227C44.142 30.2078 43.9721 30.1854 43.799 30.1533C43.6271 30.1231 43.4642 30.0719 43.3131 29.9978C43.1618 29.9245 43.0222 29.8199 42.8968 29.6887C42.776 29.5549 42.6743 29.3812 42.5988 29.1655C42.458 28.7653 42.4542 28.4164 42.5918 28.1214C42.7272 27.8293 42.9692 27.5854 43.3148 27.396L43.0894 26.7574L43.8252 26.509L44.0404 27.1172C44.2539 27.0623 44.4454 27.0275 44.617 27.0184C44.7879 27.0041 44.9478 27.0037 45.0994 27.0167L45.1167 27.8745C45.0238 27.8656 44.9088 27.8627 44.7719 27.8657C44.6386 27.8711 44.487 27.8898 44.3251 27.9234L44.7889 29.239C44.9586 29.2537 45.1331 29.2786 45.3106 29.3099C45.4881 29.3412 45.6549 29.3939 45.8113 29.4665C45.9658 29.5403 46.1062 29.6409 46.2328 29.7657C46.3592 29.8921 46.4598 30.0623 46.5357 30.2713C46.6849 30.6983 46.6925 31.0721 46.5589 31.3863Z" fill="#299FBB"/>
<path opacity="0.3636" d="M43.6258 23.518L31.255 27.5329L34.8951 37.8522L43.6258 23.518Z" fill="#8CD4D4"/>
<path opacity="0.3636" d="M43.6258 23.518L31.255 27.5329L34.8951 37.8522L43.6258 23.518Z" fill="#8CD4D4"/>
<path d="M51.5655 14.4785L36.1748 32.0014L26.3742 23.6101L41.7658 6.08659L51.5655 14.4785Z" fill="url(#paint1_linear_1866_42261)"/>
<path d="M28.1208 23.4025L36.1381 30.2642L49.8201 14.6872L41.8032 7.82313L28.1208 23.4025ZM47.2229 14.0251C46.7919 14.5159 46.8476 15.262 47.3487 15.6915C47.3942 15.7309 47.444 15.7602 47.4925 15.7918L36.9141 27.8338C36.8746 27.7896 36.8372 27.7475 36.7921 27.7065C36.2929 27.2799 35.5377 27.3313 35.1051 27.8218C35.066 27.8656 35.0349 27.9159 35.0052 27.9631L30.5883 24.182C30.6304 24.1446 30.6765 24.108 30.7148 24.064C31.1468 23.5717 31.0905 22.8248 30.5901 22.3962C30.5446 22.3568 30.4951 22.3259 30.4463 22.2959L41.0263 10.2542C41.0627 10.297 41.1008 10.34 41.1444 10.3799C41.6457 10.8086 42.4028 10.7567 42.8329 10.2657C42.8747 10.2208 42.9039 10.1718 42.9352 10.1248L47.3512 13.9067C47.3076 13.9429 47.2624 13.9789 47.2229 14.0251Z" fill="#299FBB"/>
<path d="M39.974 19.1342C39.8145 19.1641 39.6428 19.2184 39.4617 19.2969L40.4617 20.1547C40.5861 19.976 40.6425 19.8074 40.6258 19.6537C40.6093 19.4991 40.5333 19.3628 40.3944 19.2458C40.2748 19.1415 40.1358 19.1057 39.974 19.1342Z" fill="#299FBB"/>
<path d="M37.5641 18.6511C37.6798 18.7495 37.8135 18.7869 37.9665 18.7651C38.1213 18.7428 38.2849 18.6953 38.4647 18.6199L37.5387 17.8278C37.3939 18.0085 37.3318 18.1669 37.3541 18.2991C37.3776 18.434 37.4472 18.5507 37.5641 18.6511Z" fill="#299FBB"/>
<path d="M36.1132 16.4937C34.7291 18.0705 34.9082 20.4648 36.5142 21.8402C38.1187 23.2152 40.5448 23.0496 41.9304 21.4739C43.3146 19.8971 43.137 17.5039 41.5295 16.1274C39.9248 14.7532 37.499 14.9172 36.1132 16.4937ZM41.5397 19.4085C41.5827 19.7496 41.4995 20.0941 41.2926 20.4465L41.8201 20.896L41.3106 21.4768L40.8158 21.0535C40.6219 21.2594 40.4363 21.425 40.257 21.5524C40.0777 21.6798 39.9236 21.7659 39.7964 21.8109L39.3356 21.0382C39.4361 21.0058 39.5583 20.9473 39.7039 20.8572C39.8464 20.7706 40.0011 20.6495 40.1622 20.4945L39.0099 19.5055C38.8553 19.5764 38.6952 19.6413 38.5304 19.6994C38.3681 19.7572 38.2006 19.7938 38.0315 19.8035C37.8644 19.8151 37.6901 19.7936 37.5168 19.7397C37.3429 19.6848 37.1685 19.583 36.9953 19.4337C36.6696 19.1547 36.4902 18.8544 36.4584 18.5297C36.4275 18.2092 36.5133 17.8778 36.7153 17.5428L36.1976 17.0986L36.7061 16.5192L37.2008 16.9425C37.3567 16.7881 37.5053 16.6642 37.6473 16.5709C37.789 16.475 37.9267 16.396 38.0643 16.3311L38.5125 17.068C38.4276 17.1058 38.328 17.1601 38.2112 17.2305C38.0975 17.3015 37.9771 17.3913 37.8553 17.5017L38.9219 18.4154C39.0757 18.3443 39.2398 18.281 39.4086 18.2195C39.5772 18.1587 39.7479 18.1226 39.9188 18.1083C40.0893 18.0964 40.2619 18.1134 40.4339 18.1604C40.6086 18.207 40.7821 18.3045 40.9526 18.45C41.3004 18.7498 41.4946 19.0696 41.5397 19.4085Z" fill="#299FBB"/>
<path opacity="0.3636" d="M35.5803 13.1009L34.7668 30.7965L26.2984 24.016L35.5803 13.1009Z" fill="#8CD4D4"/>
<path d="M37.6314 2.48596L33.2227 25.3009L20.5086 22.8468L24.9167 0.0309419L37.6314 2.48596Z" fill="url(#paint2_linear_1866_42261)"/>
<path d="M21.911 21.8053L32.3103 23.8112L36.2296 3.52932L25.8297 1.52163L21.911 21.8053ZM33.653 4.23446C33.5294 4.87355 33.9555 5.49501 34.6053 5.61982C34.6632 5.63225 34.7226 5.63241 34.7806 5.63564L31.7502 21.3144C31.6933 21.2963 31.6389 21.2786 31.5796 21.2643C30.9313 21.1406 30.3057 21.5576 30.1817 22.1983C30.1709 22.2565 30.1686 22.3139 30.1657 22.3702L24.4354 21.2637C24.4535 21.211 24.4745 21.1563 24.4862 21.0982C24.609 20.459 24.1813 19.8372 23.5325 19.7118C23.4742 19.701 23.4153 19.6984 23.3587 19.6963L26.3901 4.01688C26.4426 4.03584 26.4986 4.05459 26.5565 4.06702C27.2058 4.19426 27.8329 3.77417 27.9556 3.13575C27.9685 3.07536 27.9696 3.01951 27.9717 2.96299L33.7029 4.06964C33.6841 4.12138 33.6639 4.17621 33.653 4.23446Z" fill="#299FBB"/>
<path d="M29.9826 12.2504C29.8587 12.3546 29.7406 12.4858 29.6224 12.6447L30.9199 12.8956C30.9384 12.6789 30.9003 12.5053 30.8082 12.3794C30.7159 12.2543 30.5818 12.1742 30.4014 12.1407C30.2473 12.1095 30.1074 12.1463 29.9826 12.2504Z" fill="#299FBB"/>
<path d="M27.6576 13.0192C27.8072 13.0478 27.9405 13.0148 28.0619 12.9201C28.184 12.8256 28.3014 12.7026 28.4197 12.548L27.2173 12.3164C27.1833 12.5445 27.2104 12.7144 27.2968 12.8166C27.3859 12.9227 27.505 12.9892 27.6576 13.0192Z" fill="#299FBB"/>
<path d="M25.311 11.8601C24.9148 13.9132 26.2837 15.9032 28.3654 16.3081C30.4485 16.7099 32.4599 15.37 32.8578 13.3172C33.2532 11.2638 31.8875 9.27443 29.8023 8.87058C27.72 8.46894 25.7081 9.80704 25.311 11.8601ZM31.4744 11.7162C31.6828 11.9909 31.7862 12.3315 31.786 12.7382L32.4696 12.8701L32.3229 13.6238L31.6819 13.5014C31.6194 13.7752 31.5421 14.0111 31.4517 14.2095C31.362 14.4087 31.2723 14.5586 31.1852 14.6622L30.3966 14.217C30.467 14.1397 30.5431 14.0274 30.6234 13.8791C30.7025 13.7322 30.7739 13.5505 30.8346 13.3366L29.3383 13.0471C29.2407 13.1847 29.1353 13.3199 29.0222 13.4513C28.9107 13.5829 28.7852 13.6952 28.645 13.788C28.5065 13.8803 28.345 13.9474 28.1677 13.9873C27.9892 14.0245 27.7879 14.0223 27.5618 13.9778C27.139 13.8976 26.8323 13.7235 26.6414 13.4579C26.4509 13.1949 26.3574 12.8645 26.3614 12.4735L25.6899 12.3439L25.8359 11.5892L26.4766 11.7132C26.5332 11.5028 26.5988 11.3207 26.6753 11.1701C26.7489 11.0172 26.8279 10.8803 26.9127 10.7572L27.6746 11.1748C27.6213 11.2503 27.5617 11.3455 27.4959 11.4655C27.4341 11.5821 27.3758 11.7203 27.3257 11.8775L28.7099 12.1445C28.8074 12.007 28.9156 11.8705 29.0312 11.7346C29.1452 11.5985 29.2746 11.4827 29.4147 11.3865C29.557 11.2916 29.7142 11.2203 29.8873 11.1763C30.0613 11.1316 30.2605 11.1317 30.4812 11.1736C30.9327 11.2616 31.2638 11.4436 31.4744 11.7162Z" fill="#299FBB"/>
<path d="M17.2956 37.7603C17.2956 38.4104 16.8265 38.9379 16.2455 38.9379H6.79612C6.21597 38.9379 5.74609 38.4104 5.74609 37.7603L7.49477 31.6042C7.82722 30.7154 7.96465 30.4258 8.54479 30.4258H14.4952C15.0754 30.4258 15.407 31.0257 15.5461 31.6042L17.2956 37.7603Z" fill="url(#paint3_linear_1866_42261)"/>
<path d="M16.2455 38.0044H6.79612C6.38549 38.0044 6.03329 37.7378 5.8613 37.3535L5.74609 37.7592C5.74609 38.4093 6.21597 38.9368 6.79612 38.9368H16.2455C16.8265 38.9368 17.2956 38.4093 17.2956 37.7592L17.1795 37.3535C17.0076 37.7378 16.6562 38.0044 16.2455 38.0044Z" fill="#F5D5A4"/>
<path d="M28.7243 37.7603C28.7243 38.4104 28.2536 38.9379 27.6751 38.9379H18.2248C17.6439 38.9379 17.1748 38.4104 17.1748 37.7603L18.9251 31.6042C19.2576 30.7154 19.395 30.4258 19.9752 30.4258H25.9248C26.5041 30.4258 26.8365 31.0257 26.9748 31.6042L28.7243 37.7603Z" fill="url(#paint4_linear_1866_42261)"/>
<path d="M27.6751 38.0044H18.2248C17.8142 38.0044 17.4628 37.7378 17.2908 37.3535L17.1748 37.7592C17.1748 38.4093 17.6439 38.9368 18.2248 38.9368H27.6751C28.2544 38.9368 28.7243 38.4093 28.7243 37.7592L28.6082 37.3535C28.4354 37.7378 28.0849 38.0044 27.6751 38.0044Z" fill="#F5D5A4"/>
<path d="M40.1545 37.7603C40.1545 38.4104 39.6846 38.9379 39.1044 38.9379H29.655C29.074 38.9379 28.605 38.4104 28.605 37.7603L30.3553 31.6042C30.6878 30.7154 30.8252 30.4258 31.4061 30.4258H37.3549C37.9359 30.4258 38.2659 31.0257 38.405 31.6042L40.1545 37.7603Z" fill="url(#paint5_linear_1866_42261)"/>
<path d="M39.1044 38.0044H29.655C29.2444 38.0044 28.8922 37.7378 28.7202 37.3535L28.605 37.7592C28.605 38.4093 29.074 38.9368 29.655 38.9368H39.1044C39.6846 38.9368 40.1545 38.4093 40.1545 37.7592L40.0392 37.3535C39.8664 37.7378 39.5159 38.0044 39.1044 38.0044Z" fill="#F5D5A4"/>
<path d="M23.0106 29.2486C23.0106 29.8995 22.5399 30.4254 21.9597 30.4254H12.5111C11.9318 30.4254 11.4619 29.8995 11.4619 29.2486L13.2122 23.0916C13.5447 22.2029 13.6821 21.9141 14.2614 21.9141H20.2119C20.7912 21.9141 21.1236 22.514 21.2611 23.0916L23.0106 29.2486Z" fill="url(#paint6_linear_1866_42261)"/>
<path d="M21.9604 29.4927H12.511C12.1012 29.4927 11.7506 29.2269 11.5761 28.8418L11.4609 29.2483C11.4609 29.8992 11.9308 30.4251 12.5101 30.4251H21.9596C22.5397 30.4251 23.0104 29.8992 23.0104 29.2483L22.8952 28.8418C22.7224 29.2269 22.371 29.4927 21.9604 29.4927Z" fill="#F5D5A4"/>
<path d="M34.4399 29.2486C34.4399 29.8995 33.9692 30.4254 33.3899 30.4254H23.9397C23.3595 30.4254 22.8896 29.8995 22.8896 29.2486L24.6391 23.0916C24.9716 22.2029 25.1098 21.9141 25.6883 21.9141H31.6396C32.2197 21.9141 32.5506 22.514 32.6888 23.0916L34.4399 29.2486Z" fill="url(#paint7_linear_1866_42261)"/>
<path d="M33.3891 29.4927H23.9397C23.529 29.4927 23.1785 29.2269 23.0057 28.8418L22.8896 29.2483C22.8896 29.8992 23.3595 30.4251 23.9397 30.4251H33.3891C33.9684 30.4251 34.4391 29.8992 34.4391 29.2483L34.3231 28.8418C34.1519 29.2269 33.7997 29.4927 33.3891 29.4927Z" fill="#F5D5A4"/>
<path d="M28.6646 20.7361C28.6646 21.3862 28.1947 21.9137 27.6145 21.9137H18.1643C17.585 21.9137 17.1143 21.3862 17.1143 20.7361L18.8654 14.5799C19.197 13.6904 19.3345 13.4023 19.9138 13.4023H25.865C26.4452 13.4023 26.7768 14.0014 26.9134 14.5799L28.6646 20.7361Z" fill="url(#paint8_linear_1866_42261)"/>
<path d="M27.6144 20.981H18.1641C17.7535 20.981 17.4021 20.7152 17.2293 20.3301L17.1133 20.7366C17.1133 21.3867 17.584 21.9142 18.1633 21.9142H27.6136C28.1929 21.9142 28.6636 21.3867 28.6636 20.7366L28.5476 20.3301C28.3764 20.7152 28.0242 20.981 27.6144 20.981Z" fill="#F5D5A4"/>
<path d="M11.5504 46.2701C11.5504 46.921 11.0806 47.4485 10.5004 47.4485H1.051C0.470033 47.4485 0.000976562 46.921 0.000976562 46.2701L1.75047 40.1131C2.08293 39.2244 2.21953 38.9355 2.79968 38.9355H8.7501C9.33025 38.9355 9.66106 39.5354 9.79931 40.1131L11.5504 46.2701Z" fill="url(#paint9_linear_1866_42261)"/>
<path d="M10.5003 46.5142H1.05085C0.64022 46.5142 0.288839 46.2492 0.116029 45.8633L0 46.2698C0 46.9207 0.46988 47.4482 1.05003 47.4482H10.4994C11.0796 47.4482 11.5495 46.9207 11.5495 46.2698L11.4343 45.8633C11.2623 46.2492 10.9101 46.5142 10.5003 46.5142Z" fill="#F5D5A4"/>
<path d="M22.9795 46.2701C22.9795 46.921 22.5104 47.4485 21.9294 47.4485H12.4808C11.8999 47.4485 11.4316 46.921 11.4316 46.2701L13.1803 40.1131C13.5119 39.2244 13.6502 38.9355 14.2303 38.9355H20.1799C20.7601 38.9355 21.0917 39.5354 21.23 40.1131L22.9795 46.2701Z" fill="url(#paint10_linear_1866_42261)"/>
<path d="M21.9293 46.5142H12.4807C12.0692 46.5142 11.7195 46.2492 11.545 45.8633L11.4307 46.2698C11.4307 46.9207 11.8997 47.4482 12.4799 47.4482H21.9285C22.5094 47.4482 22.9785 46.9207 22.9785 46.2698L22.8633 45.8633C22.6905 46.2492 22.3391 46.5142 21.9293 46.5142Z" fill="#F5D5A4"/>
<path d="M34.4092 46.2701C34.4092 46.921 33.9401 47.4485 33.36 47.4485H23.9089C23.3288 47.4485 22.8589 46.921 22.8589 46.2701L24.6092 40.1131C24.9408 39.2244 25.0791 38.9355 25.6592 38.9355H31.6088C32.189 38.9355 32.5198 39.5354 32.658 40.1131L34.4092 46.2701Z" fill="url(#paint11_linear_1866_42261)"/>
<path d="M33.359 46.5142H23.9088C23.4981 46.5142 23.1476 46.2492 22.9748 45.8633L22.8579 46.2698C22.8579 46.9207 23.3286 47.4482 23.9079 47.4482H33.3582C33.9383 47.4482 34.4074 46.9207 34.4074 46.2698L34.2914 45.8633C34.121 46.2492 33.7688 46.5142 33.359 46.5142Z" fill="#F5D5A4"/>
<path d="M45.8992 46.2701C45.8992 46.921 45.4285 47.4485 44.8484 47.4485H35.3998C34.8196 47.4485 34.3506 46.921 34.3506 46.2701L36.1009 40.1131C36.4317 39.2244 36.57 38.9355 37.1501 38.9355H43.0997C43.679 38.9355 44.0107 39.5354 44.1489 40.1131L45.8992 46.2701Z" fill="url(#paint12_linear_1866_42261)"/>
<path d="M44.8482 46.5142H35.3996C34.9898 46.5142 34.6376 46.2492 34.4648 45.8633L34.3496 46.2698C34.3496 46.9207 34.8187 47.4482 35.3988 47.4482H44.8474C45.4276 47.4482 45.8983 46.9207 45.8983 46.2698L45.7822 45.8633C45.6102 46.2492 45.2597 46.5142 44.8482 46.5142Z" fill="#F5D5A4"/>
<defs>
<linearGradient id="paint0_linear_1866_42261" x1="33.8483" y1="33.5759" x2="54.6668" y2="26.2088" gradientUnits="userSpaceOnUse">
<stop stop-color="#5EA814"/>
<stop offset="0.351" stop-color="#62A914"/>
<stop offset="0.6685" stop-color="#6DAD12"/>
<stop offset="0.9721" stop-color="#7FB410"/>
<stop offset="1" stop-color="#81B510"/>
</linearGradient>
<linearGradient id="paint1_linear_1866_42261" x1="31.6751" y1="27.5813" x2="45.9174" y2="10.914" gradientUnits="userSpaceOnUse">
<stop stop-color="#5EA814"/>
<stop offset="0.351" stop-color="#62A914"/>
<stop offset="0.6685" stop-color="#6DAD12"/>
<stop offset="0.9721" stop-color="#7FB410"/>
<stop offset="1" stop-color="#81B510"/>
</linearGradient>
<linearGradient id="paint2_linear_1866_42261" x1="27.0208" y1="23.7055" x2="31.0211" y2="2.1533" gradientUnits="userSpaceOnUse">
<stop stop-color="#5EA814"/>
<stop offset="0.351" stop-color="#62A914"/>
<stop offset="0.6685" stop-color="#6DAD12"/>
<stop offset="0.9721" stop-color="#7FB410"/>
<stop offset="1" stop-color="#81B510"/>
</linearGradient>
<linearGradient id="paint3_linear_1866_42261" x1="11.5208" y1="38.9373" x2="11.5208" y2="30.4255" gradientUnits="userSpaceOnUse">
<stop stop-color="#FF7B00"/>
<stop offset="0.0992" stop-color="#FF8B05"/>
<stop offset="0.277" stop-color="#FFA10C"/>
<stop offset="0.4713" stop-color="#FFB110"/>
<stop offset="0.6927" stop-color="#FFBA13"/>
<stop offset="1" stop-color="#FFBD14"/>
</linearGradient>
<linearGradient id="paint4_linear_1866_42261" x1="22.9497" y1="38.9373" x2="22.9497" y2="30.4255" gradientUnits="userSpaceOnUse">
<stop stop-color="#FF7B00"/>
<stop offset="0.0992" stop-color="#FF8B05"/>
<stop offset="0.277" stop-color="#FFA10C"/>
<stop offset="0.4713" stop-color="#FFB110"/>
<stop offset="0.6927" stop-color="#FFBA13"/>
<stop offset="1" stop-color="#FFBD14"/>
</linearGradient>
<linearGradient id="paint5_linear_1866_42261" x1="34.3796" y1="38.9373" x2="34.3796" y2="30.4255" gradientUnits="userSpaceOnUse">
<stop stop-color="#FF7B00"/>
<stop offset="0.0992" stop-color="#FF8B05"/>
<stop offset="0.277" stop-color="#FFA10C"/>
<stop offset="0.4713" stop-color="#FFB110"/>
<stop offset="0.6927" stop-color="#FFBA13"/>
<stop offset="1" stop-color="#FFBD14"/>
</linearGradient>
<linearGradient id="paint6_linear_1866_42261" x1="17.2361" y1="30.425" x2="17.2361" y2="21.9139" gradientUnits="userSpaceOnUse">
<stop stop-color="#FF7B00"/>
<stop offset="0.0992" stop-color="#FF8B05"/>
<stop offset="0.277" stop-color="#FFA10C"/>
<stop offset="0.4713" stop-color="#FFB110"/>
<stop offset="0.6927" stop-color="#FFBA13"/>
<stop offset="1" stop-color="#FFBD14"/>
</linearGradient>
<linearGradient id="paint7_linear_1866_42261" x1="28.6646" y1="30.425" x2="28.6646" y2="21.9139" gradientUnits="userSpaceOnUse">
<stop stop-color="#FF7B00"/>
<stop offset="0.0992" stop-color="#FF8B05"/>
<stop offset="0.277" stop-color="#FFA10C"/>
<stop offset="0.4713" stop-color="#FFB110"/>
<stop offset="0.6927" stop-color="#FFBA13"/>
<stop offset="1" stop-color="#FFBD14"/>
</linearGradient>
<linearGradient id="paint8_linear_1866_42261" x1="22.8893" y1="21.9135" x2="22.8893" y2="13.4023" gradientUnits="userSpaceOnUse">
<stop stop-color="#FF7B00"/>
<stop offset="0.0992" stop-color="#FF8B05"/>
<stop offset="0.277" stop-color="#FFA10C"/>
<stop offset="0.4713" stop-color="#FFB110"/>
<stop offset="0.6927" stop-color="#FFBA13"/>
<stop offset="1" stop-color="#FFBD14"/>
</linearGradient>
<linearGradient id="paint9_linear_1866_42261" x1="5.7758" y1="47.4481" x2="5.7758" y2="38.9358" gradientUnits="userSpaceOnUse">
<stop stop-color="#FF7B00"/>
<stop offset="0.0992" stop-color="#FF8B05"/>
<stop offset="0.277" stop-color="#FFA10C"/>
<stop offset="0.4713" stop-color="#FFB110"/>
<stop offset="0.6927" stop-color="#FFBA13"/>
<stop offset="1" stop-color="#FFBD14"/>
</linearGradient>
<linearGradient id="paint10_linear_1866_42261" x1="17.2051" y1="47.4481" x2="17.2051" y2="38.9358" gradientUnits="userSpaceOnUse">
<stop stop-color="#FF7B00"/>
<stop offset="0.0992" stop-color="#FF8B05"/>
<stop offset="0.277" stop-color="#FFA10C"/>
<stop offset="0.4713" stop-color="#FFB110"/>
<stop offset="0.6927" stop-color="#FFBA13"/>
<stop offset="1" stop-color="#FFBD14"/>
</linearGradient>
<linearGradient id="paint11_linear_1866_42261" x1="28.6338" y1="47.4481" x2="28.6338" y2="38.9358" gradientUnits="userSpaceOnUse">
<stop stop-color="#FF7B00"/>
<stop offset="0.0992" stop-color="#FF8B05"/>
<stop offset="0.277" stop-color="#FFA10C"/>
<stop offset="0.4713" stop-color="#FFB110"/>
<stop offset="0.6927" stop-color="#FFBA13"/>
<stop offset="1" stop-color="#FFBD14"/>
</linearGradient>
<linearGradient id="paint12_linear_1866_42261" x1="40.1247" y1="47.4481" x2="40.1247" y2="38.9358" gradientUnits="userSpaceOnUse">
<stop stop-color="#FF7B00"/>
<stop offset="0.0992" stop-color="#FF8B05"/>
<stop offset="0.277" stop-color="#FFA10C"/>
<stop offset="0.4713" stop-color="#FFB110"/>
<stop offset="0.6927" stop-color="#FFBA13"/>
<stop offset="1" stop-color="#FFBD14"/>
</linearGradient>
</defs>
</svg>
