<svg width="47" height="46" viewBox="0 0 47 46" fill="none" xmlns="http://www.w3.org/2000/svg">
<path d="M42.2874 32.5496C41.6636 32.1228 40.8285 32.3274 39.9583 32.8385C38.0626 32.1754 33.6406 36.7477 33.6406 36.7477C32.094 36.3661 28.7978 36.8513 28.7978 36.8513C28.0161 36.3193 25.7555 36.2508 23.5407 36.331C22.9361 36.2491 22.5595 36.204 22.5595 36.204L22.3874 36.3878C22.0233 36.4078 21.6709 36.4328 21.3302 36.4571C20.8141 36.3861 20.4942 36.3477 20.4942 36.3477L20.318 36.5372C19.1714 36.6375 18.3839 36.731 18.3839 36.731L12.27 43.2992C12.27 43.2992 13.7331 43.1881 15.6581 43.0695C18.5969 43.4236 25.7154 44.2888 27.3305 44.5385C28.2099 44.6721 28.9657 44.5652 29.5569 44.4082C31.5178 44.6462 32.8915 43.7359 32.8915 43.7359C32.8915 43.7359 35.1798 42.4524 37.5757 41.2047C39.9717 39.9537 41.8122 37.3181 41.8122 37.3181C41.8122 37.3181 45.9068 33.5809 44.4028 32.4402C43.8374 32.0092 43.0858 32.1354 42.2874 32.5496Z" fill="#E6AB6E"/>
<path d="M6.37767 12.7467C8.27338 13.4098 12.6928 8.83752 12.6928 8.83752C14.242 9.21917 17.5356 8.73313 17.5356 8.73313C18.3181 9.2676 20.5797 9.33526 22.7936 9.25342C23.3973 9.33693 23.7765 9.38118 23.7765 9.38118L23.9468 9.19913C24.3101 9.17826 24.6659 9.15321 25.0041 9.12816C25.5202 9.19914 25.8409 9.23838 25.8409 9.23838L26.0179 9.04798C27.162 8.94776 27.9495 8.85508 27.9495 8.85508L34.0651 2.28687C34.0651 2.28687 32.6045 2.3971 30.6804 2.51652C27.745 2.16076 20.6189 1.29642 19.0046 1.04839C18.1252 0.913105 17.3678 1.01833 16.7765 1.17868C14.8173 0.939834 13.4444 1.85012 13.4444 1.85012C13.4444 1.85012 11.1554 3.13284 8.75941 4.38134C6.3643 5.63234 4.52455 8.2688 4.52455 8.2688C4.52455 8.2688 0.429979 12.0043 1.93319 13.1459C2.50107 13.5752 3.25265 13.4482 4.05103 13.0348C4.67235 13.4624 5.50581 13.2561 6.37767 12.7467Z" fill="#E6AB6E"/>
<path d="M13.5899 5.49948C8.39045 5.40929 4.15225 9.574 4.12803 14.7659C4.10464 19.9787 8.30526 24.2629 13.5064 24.3389C18.7091 24.4291 22.9482 20.2827 22.9699 15.0716C22.9933 9.87464 18.7927 5.58383 13.5899 5.49948Z" fill="url(#paint0_linear_1866_42320)"/>
<path d="M22.9699 15.0715C22.9482 20.2818 18.7091 24.429 13.5064 24.3388C8.30526 24.2628 4.10464 19.9787 4.12803 14.7659C4.15225 9.57397 8.39128 5.4101 13.5899 5.49946C18.7927 5.58381 22.9933 9.87461 22.9699 15.0715Z" fill="#FFB82B"/>
<path d="M13.506 23.8746C8.38842 23.8044 4.26127 19.648 4.1502 14.543C4.14937 14.6206 4.12852 14.69 4.12852 14.7668C4.10513 19.9796 8.30575 24.2637 13.5069 24.3397C18.7096 24.4299 22.9487 20.2836 22.9704 15.0724C22.9704 14.9914 22.9495 14.9146 22.947 14.8311C22.8042 19.9361 18.6328 23.9631 13.506 23.8746Z" fill="#F5D5A4"/>
<path d="M13.5921 6.0423C18.6947 6.12582 22.8035 10.2588 22.943 15.3179C22.9455 15.2353 22.9688 15.1576 22.9688 15.0716C22.9922 9.87466 18.7916 5.58467 13.5888 5.49948C8.38937 5.40929 4.15117 9.574 4.12695 14.7659C4.12695 14.8678 4.15117 14.9647 4.15534 15.0683C4.31235 9.99409 8.47622 5.95712 13.5921 6.0423Z" fill="#FFB82B"/>
<path d="M21.0103 15.0389C20.9944 19.1728 17.6389 22.4464 13.5151 22.3813C9.39382 22.3153 6.06505 18.9248 6.08259 14.8043C6.10013 10.6746 9.45894 7.40099 13.5811 7.4678C17.704 7.53127 21.0312 10.9202 21.0103 15.0389Z" fill="url(#paint1_linear_1866_42320)"/>
<path d="M13.5186 22.0035C9.45995 21.9359 6.18463 18.6455 6.10696 14.6094C6.10279 14.6745 6.08357 14.7388 6.08357 14.8056C6.06603 18.9269 9.39482 22.3167 13.5161 22.3826C17.6399 22.4478 20.9954 19.1741 21.0113 15.0403C21.0113 14.9777 20.9954 14.9192 20.9937 14.8616C20.8685 18.8969 17.5748 22.0678 13.5186 22.0035Z" fill="#F5D5A4"/>
<path d="M13.5231 20.545C11.5255 20.51 9.70493 19.3675 8.7721 17.5578C8.34452 16.7311 8.12154 15.789 8.12655 14.8303C8.13824 11.727 10.4924 9.29688 13.4805 9.29688C16.6163 9.35199 18.9889 11.8607 18.9747 15.0065C18.9613 18.114 16.6047 20.545 13.6099 20.545H13.5231Z" fill="#F5D5A4"/>
<path d="M18.7463 15.0045C18.7354 17.8765 16.3971 20.1514 13.5268 20.1096C10.659 20.0603 8.33987 17.7111 8.35407 14.8342C8.36576 11.9722 10.7066 9.68151 13.5702 9.73328C16.4413 9.78255 18.7579 12.1376 18.7463 15.0045Z" fill="#FFD336"/>
<path d="M18.7172 15.2683C18.7172 15.26 18.7164 15.25 18.7164 15.2425C18.5561 17.7019 16.2996 19.6226 13.5262 19.5825C10.7628 19.5416 8.53214 17.5724 8.38349 15.1113C8.38349 15.1138 8.38184 15.1222 8.38184 15.1222C8.52214 17.8639 10.7569 20.0661 13.5262 20.1104C16.3071 20.1521 18.5686 18.0109 18.7172 15.2683Z" fill="#F5D5A4"/>
<path d="M13.5717 10.1291C16.3701 10.1767 18.6233 12.424 18.7268 15.1916C18.7285 15.1289 18.7452 15.0696 18.7452 15.0053C18.7569 12.1384 16.4403 9.78336 13.5692 9.73326C10.7056 9.68231 8.36472 11.973 8.35303 14.8341C8.35303 14.9059 8.37224 14.9736 8.37474 15.0454C8.48414 12.2728 10.769 10.079 13.5717 10.1291Z" fill="#FFB82B"/>
<path d="M13.0668 18.3288C12.767 18.3029 12.5131 18.2645 12.2968 18.2068C12.0831 18.1526 11.9144 18.0732 11.7866 17.9922L12.1064 16.9709C12.1983 17.0519 12.3261 17.1145 12.4956 17.1713C12.6643 17.2273 12.853 17.2699 13.071 17.2982L13.081 15.2422C12.9198 15.1445 12.7629 15.0309 12.605 14.9215C12.4497 14.8054 12.3111 14.6634 12.1866 14.5148C12.0639 14.3578 11.9628 14.1799 11.8918 13.9695C11.8083 13.7741 11.7749 13.5302 11.7749 13.2437C11.7766 12.7494 11.896 12.3769 12.1348 12.0871C12.3754 11.8007 12.6977 11.6195 13.0994 11.536L13.1019 10.6699L13.998 10.6883L13.9955 11.5159C14.2101 11.5351 14.408 11.5718 14.5734 11.627C14.7438 11.6729 14.9049 11.7322 15.0544 11.804L14.7362 12.7828C14.6477 12.7302 14.5416 12.6784 14.4097 12.6341C14.2844 12.5957 14.1441 12.5623 13.9905 12.5389L13.9771 14.4004C14.1433 14.4956 14.302 14.61 14.464 14.7361C14.6201 14.8505 14.7671 14.98 14.8941 15.1537C15.0185 15.3023 15.1254 15.4919 15.2047 15.6898C15.2849 15.8928 15.3267 16.1257 15.3267 16.4022C15.3225 16.9391 15.198 17.3626 14.9534 17.6665C14.7112 17.973 14.3771 18.1885 13.9596 18.277L13.9571 19.158L13.0635 19.1472L13.0668 18.3288ZM13.4911 12.5172C13.2614 12.5406 13.1061 12.6224 13.0234 12.7577C12.9365 12.8813 12.8956 13.0341 12.8956 13.177C12.8956 13.3774 12.9482 13.5536 13.061 13.6872C13.1754 13.8158 13.3165 13.9452 13.4819 14.0713L13.4911 12.5172ZM13.5813 17.3016C13.7817 17.2565 13.9337 17.1822 14.0331 17.031C14.1333 16.889 14.1834 16.7103 14.1867 16.4957C14.1884 16.2827 14.1333 16.1049 14.0214 15.9646C13.9078 15.8226 13.7667 15.6798 13.5896 15.5762L13.5813 17.3016Z" fill="url(#paint2_linear_1866_42320)"/>
<path d="M15.2062 15.6898C15.1268 15.4927 15.0199 15.3023 14.8955 15.1537C14.7694 14.98 14.6216 14.8505 14.4654 14.7361C14.3034 14.61 14.1448 14.4956 13.9786 14.4004L13.9919 12.5389C14.1456 12.5623 14.2859 12.5957 14.4112 12.6341C14.5423 12.6784 14.6483 12.7293 14.7377 12.7828L15.0559 11.804C14.9064 11.7322 14.7452 11.6729 14.5748 11.627C14.4095 11.5727 14.2107 11.5359 13.9969 11.5159L13.9994 10.6883L13.1034 10.6699L13.1009 11.536C12.6992 11.6195 12.3768 11.8007 12.1363 12.0871C11.8975 12.3769 11.778 12.7494 11.7764 13.2437C11.7764 13.5302 11.8098 13.7741 11.8933 13.9695C11.9643 14.1799 12.0645 14.3586 12.1881 14.5148C12.3125 14.6643 12.4511 14.8063 12.6065 14.9215C12.7643 15.0309 12.9213 15.1445 13.0825 15.2422L13.0725 17.2982C12.8537 17.2699 12.6658 17.2273 12.4971 17.1713C12.3275 17.1145 12.1998 17.0519 12.1079 16.9709L11.7881 17.9922C11.9158 18.0732 12.0845 18.1526 12.2983 18.2068C12.5146 18.2645 12.7685 18.3029 13.0683 18.3288L13.0658 19.1472L13.9593 19.158L13.9619 18.277C14.3794 18.1885 14.7135 17.973 14.9557 17.6665C15.2003 17.3634 15.3248 16.9391 15.3289 16.4022C15.3281 16.1266 15.2864 15.8928 15.2062 15.6898ZM14.8296 17.2991C14.6133 17.5763 14.3034 17.7651 13.9368 17.8402L13.7372 17.8878L13.7322 18.7179L13.2963 18.7129L13.2979 17.9104L13.0758 17.8912C12.7852 17.872 12.5397 17.8335 12.3309 17.7784C12.2632 17.7609 12.1989 17.7409 12.1405 17.715L12.2081 17.4987C12.2808 17.5362 12.3601 17.5722 12.457 17.5997C12.6332 17.6632 12.8286 17.705 13.0574 17.7342L13.2988 17.7642L13.3121 14.9265C13.3121 14.9265 12.8537 14.6309 12.7067 14.529C12.548 14.4104 12.4219 14.2868 12.31 14.1482C12.2098 14.0212 12.1338 13.8793 12.0803 13.7298C12.0261 13.592 12.0044 13.4433 12.0044 13.2429C12.0044 12.9047 12.0812 12.6659 12.2591 12.4537C12.467 12.2065 12.7576 12.0429 13.1259 11.9677L13.3247 11.9268L13.3297 11.1084L13.7681 11.1192L13.7664 11.9326L13.9844 11.951C14.1882 11.9677 14.3794 12.0036 14.5356 12.0554C14.5882 12.0696 14.64 12.0871 14.6909 12.1013L14.6358 12.2775C14.5773 12.2558 14.5155 12.2291 14.4487 12.2082C14.3218 12.1665 14.174 12.1347 14.0128 12.1038L13.7664 12.0579L13.7498 14.7253L13.9151 14.8146C14.0721 14.9048 14.2266 15.0142 14.3819 15.137C14.5473 15.2639 14.6684 15.3766 14.7636 15.5053C14.8713 15.6372 14.9565 15.7875 15.0233 15.9512C15.0759 16.084 15.1001 16.2259 15.1001 16.3963C15.0951 16.788 15.0091 17.0761 14.8296 17.2991Z" fill="#F5D5A4"/>
<path d="M36.9327 8.60688C36.9327 8.60688 34.8082 10.0875 33.5597 10.6404C31.147 11.7026 29.0208 13.9299 25.2235 13.0129C21.4279 12.0968 18.586 11.4772 16.1558 11.4195C15.0351 11.392 11.4116 11.6968 11.6629 9.31336C11.8926 7.12035 15.6506 7.7751 16.5024 7.71414C17.3517 7.65317 22.0117 7.51203 22.0117 7.51203C22.0117 7.51203 15.9162 6.45812 14.1825 5.34491C14.1825 5.34491 9.70792 6.95668 7.39966 7.25315C7.39966 7.25315 2.52843 14.0869 0.352958 12.5327C-1.18199 11.4329 2.78649 7.59555 2.78649 7.59555C2.78649 7.59555 4.55274 4.90732 6.91278 3.5895C9.27198 2.27252 11.5226 0.926296 11.5226 0.926296C11.5226 0.926296 12.9432 -0.0858634 14.9975 0.170517C17.0544 0.426898 28.5582 1.42319 28.5582 1.42319C28.5582 1.42319 31.5537 1.40651 32.6519 1.09083C33.6874 0.792695 35.0896 0.130454 35.0896 0.130454L36.9327 8.60688Z" fill="url(#paint3_linear_1866_42320)"/>
<path d="M34.1765 0.00835931L34.1397 12.7865L31.459 12.7773L31.4949 0L34.1765 0.00835931Z" fill="url(#paint4_linear_1866_42320)"/>
<path d="M39.5621 0.0278698L39.527 12.8051L34.1396 12.7859L34.1764 0.0078125L39.5621 0.0278698Z" fill="url(#paint5_linear_1866_42320)"/>
<path d="M32.072 21.0463C26.8725 20.957 22.6343 25.1217 22.6109 30.3128C22.5884 35.5264 26.7882 39.8106 31.9885 39.8874C37.1912 39.9751 41.4311 35.8287 41.4536 30.6193C41.4745 25.4198 37.2764 21.1307 32.072 21.0463Z" fill="url(#paint6_linear_1866_42320)"/>
<path d="M41.4532 30.6193C41.4306 35.8279 37.1916 39.9751 31.988 39.8874C26.7877 39.8106 22.5879 35.5264 22.6104 30.3128C22.6338 25.1217 26.8729 20.957 32.0715 21.0463C37.2759 21.1307 41.474 25.4198 41.4532 30.6193Z" fill="#FFB82B"/>
<path d="M31.9881 39.4214C26.8697 39.3504 22.7442 35.1941 22.6331 30.0898C22.6315 30.1675 22.6114 30.2368 22.6114 30.3137C22.5889 35.5273 26.7887 39.8114 31.9889 39.8883C37.1917 39.9759 41.4316 35.8296 41.4541 30.6201C41.4541 30.5383 41.4316 30.4606 41.4291 30.3771C41.2871 35.483 37.1149 39.5108 31.9881 39.4214Z" fill="#F5D5A4"/>
<path d="M32.0761 21.5892C37.1778 21.6718 41.2874 25.804 41.426 30.8648C41.4277 30.7813 41.4527 30.7036 41.4527 30.6193C41.4736 25.4198 37.2755 21.1307 32.0719 21.0463C26.8724 20.957 22.6342 25.1217 22.6108 30.3128C22.6108 30.4155 22.6342 30.5115 22.6384 30.6151C22.7954 25.5401 26.9593 21.504 32.0761 21.5892Z" fill="#FFB82B"/>
<path d="M39.494 30.5851C39.4765 34.718 36.1226 37.9934 31.9972 37.9274C27.8759 37.8606 24.5463 34.4708 24.568 30.3512C24.5838 26.2207 27.9435 22.9462 32.0631 23.0147C36.1878 23.0765 39.5116 26.4654 39.494 30.5851Z" fill="url(#paint7_linear_1866_42320)"/>
<path d="M32.0022 37.5484C27.9435 37.4824 24.6682 34.1896 24.5897 30.1543C24.5855 30.2186 24.568 30.2846 24.568 30.3514C24.5471 34.4718 27.8759 37.8607 31.9972 37.9275C36.1226 37.9935 39.4765 34.7182 39.494 30.5852C39.494 30.5234 39.4765 30.4641 39.4748 30.4073C39.3512 34.4418 36.0575 37.6136 32.0022 37.5484Z" fill="#F5D5A4"/>
<path d="M32.0068 36.0919C30.0075 36.0568 28.1878 34.9136 27.2541 33.1047C26.8266 32.2771 26.6053 31.3359 26.6094 30.3764C26.622 27.2731 28.9745 24.8438 31.9634 24.8438C35.0984 24.9005 37.471 27.4076 37.4584 30.5534C37.4434 33.6609 35.0875 36.0919 32.0928 36.0919H32.0068Z" fill="#F5D5A4"/>
<path d="M37.2294 30.5513C37.2169 33.4233 34.8794 35.6982 32.0091 35.6573C29.1422 35.608 26.8239 33.2596 26.8389 30.3818C26.849 27.5207 29.189 25.23 32.0542 25.2801C34.9237 25.3302 37.2428 27.6861 37.2294 30.5513Z" fill="#FFD336"/>
<path d="M37.2001 30.8144C37.2001 30.8068 37.2001 30.796 37.2001 30.7885C37.039 33.2487 34.7825 35.1686 32.0082 35.1294C29.2465 35.0876 27.0159 33.1185 26.8656 30.6582C26.8656 30.6615 26.8647 30.6691 26.8647 30.6691C27.005 33.4107 29.239 35.6138 32.0082 35.658C34.7892 35.6973 37.0507 33.5569 37.2001 30.8144Z" fill="#F5D5A4"/>
<path d="M32.0545 25.6748C34.8538 25.7232 37.1061 27.9697 37.2105 30.7381C37.2138 30.673 37.2289 30.6153 37.2289 30.5502C37.2422 27.6849 34.9231 25.3291 32.0537 25.2781C29.1884 25.2289 26.8484 27.5196 26.8384 30.3799C26.8384 30.4533 26.8559 30.5185 26.8576 30.5911C26.9686 27.8194 29.2519 25.6255 32.0545 25.6748Z" fill="#FFB82B"/>
<path d="M33.4199 27.8384V26.5039C31.1826 26.5039 29.7345 27.4518 29.4097 29.3207H28.7266V29.9129H29.3487C29.3454 29.9989 29.3387 30.0824 29.3387 30.1701C29.3387 30.2978 29.3462 30.4223 29.3554 30.5425H28.7266V31.4687H29.5341C30.0302 32.9894 31.4457 33.8028 33.4199 33.8028V32.4683C32.2533 32.4683 31.5593 32.1534 31.2219 31.4687H33.1351V30.5425H30.9922C30.9839 30.4214 30.9714 30.3037 30.9714 30.1701C30.9714 30.0807 30.9722 29.9972 30.9772 29.9129H33.136V29.3207H31.0423C31.2503 28.261 31.9418 27.8384 33.4199 27.8384Z" fill="url(#paint8_linear_1866_42320)"/>
<path d="M33.4199 27.8384V26.5039C31.1826 26.5039 29.7345 27.4518 29.4097 29.3207H28.7266V29.9129H29.3487C29.3454 29.9989 29.3387 30.0824 29.3387 30.1701C29.3387 30.2978 29.3462 30.4223 29.3554 30.5425H28.7266V31.4687H29.5341C30.0302 32.9894 31.4457 33.8028 33.4199 33.8028V32.4683C32.2533 32.4683 31.5593 32.1534 31.2219 31.4687H33.1351V30.5425H30.9922C30.9839 30.4214 30.9714 30.3037 30.9714 30.1701C30.9714 30.0807 30.9722 29.9972 30.9772 29.9129H33.136V29.3207H31.0423C31.2503 28.261 31.9418 27.8384 33.4199 27.8384ZM30.7325 29.2598L30.659 29.6339H30.6741C30.6741 29.6339 30.6557 30.0748 30.6557 30.1701C30.6557 30.2911 30.6649 30.3997 30.6741 30.51L30.6974 30.7964L30.9914 30.8574H32.8203V31.1555H30.7183L30.9405 31.6073C31.3021 32.3422 31.9927 32.7172 33.1051 32.7756V33.483C31.409 33.4003 30.2523 32.6604 29.8339 31.3718L29.7629 31.1555H29.0406V30.8574H29.6953L29.6686 30.5191C29.6602 30.4056 29.6519 30.2911 29.6519 30.1701L29.6778 29.6682L29.5141 29.6339H29.6744L29.7179 29.3742C30.0603 27.4075 31.6829 26.8881 33.1051 26.8238V27.5303C31.6737 27.5962 30.9572 28.1232 30.7325 29.2598Z" fill="#F5D5A4"/>
<path d="M9.40332 36.9802C9.40332 36.9802 11.527 35.4987 12.7755 34.9467C15.1873 33.8845 17.3135 31.6564 21.1091 32.5742C24.9056 33.4911 27.7491 34.1083 30.1793 34.1667C31.3001 34.1951 34.922 33.8912 34.6714 36.2737C34.4426 38.4684 30.6829 37.812 29.8336 37.8722C28.9835 37.9331 24.3227 38.0742 24.3227 38.0742C24.3227 38.0742 30.4173 39.129 32.1536 40.2422C32.1536 40.2422 36.6281 38.6313 38.9364 38.3331C38.9364 38.3331 43.8059 31.5002 45.9806 33.0544C47.5189 34.1525 43.5479 37.9907 43.5479 37.9907C43.5479 37.9907 41.7824 40.679 39.4232 41.9976C37.0649 43.3137 34.8126 44.6608 34.8126 44.6608C34.8126 44.6608 33.3937 45.6738 31.3393 45.4166C29.2808 45.1585 17.777 44.1622 17.777 44.1622C17.777 44.1622 14.7815 44.1806 13.6858 44.4946C12.6469 44.7936 11.2456 45.4558 11.2456 45.4558L9.40332 36.9802Z" fill="url(#paint9_linear_1866_42320)"/>
<path d="M12.1582 45.5761L12.1941 32.7988L14.8757 32.808L14.8389 45.5836L12.1582 45.5761Z" fill="url(#paint10_linear_1866_42320)"/>
<path d="M6.77051 45.5557L6.80723 32.7793L12.1937 32.7994L12.1578 45.5766L6.77051 45.5557Z" fill="url(#paint11_linear_1866_42320)"/>
<defs>
<linearGradient id="paint0_linear_1866_42320" x1="4.12819" y1="14.919" x2="22.9699" y2="14.919" gradientUnits="userSpaceOnUse">
<stop stop-color="#DD3F18"/>
<stop offset="0.4157" stop-color="#E74A1B"/>
<stop offset="1" stop-color="#FD6120"/>
</linearGradient>
<linearGradient id="paint1_linear_1866_42320" x1="13.547" y1="22.3821" x2="13.547" y2="7.4663" gradientUnits="userSpaceOnUse">
<stop stop-color="#FF7B00"/>
<stop offset="0.0242" stop-color="#FF7D01"/>
<stop offset="0.6742" stop-color="#FFAB0F"/>
<stop offset="1" stop-color="#FFBD14"/>
</linearGradient>
<linearGradient id="paint2_linear_1866_42320" x1="13.552" y1="19.1575" x2="13.552" y2="10.6703" gradientUnits="userSpaceOnUse">
<stop stop-color="#FF7B00"/>
<stop offset="0.0242" stop-color="#FF7D01"/>
<stop offset="0.6742" stop-color="#FFAB0F"/>
<stop offset="1" stop-color="#FFBD14"/>
</linearGradient>
<linearGradient id="paint3_linear_1866_42320" x1="18.4657" y1="13.2288" x2="18.4657" y2="0.127508" gradientUnits="userSpaceOnUse">
<stop offset="0.0242" stop-color="#F7BB7C"/>
<stop offset="1" stop-color="#FFD1A1"/>
</linearGradient>
<linearGradient id="paint4_linear_1866_42320" x1="32.8176" y1="12.7861" x2="32.8176" y2="0" gradientUnits="userSpaceOnUse">
<stop stop-color="#CDEFFA"/>
<stop offset="1" stop-color="#FAFAFA"/>
</linearGradient>
<linearGradient id="paint5_linear_1866_42320" x1="36.8508" y1="12.8051" x2="36.8508" y2="0.00764545" gradientUnits="userSpaceOnUse">
<stop stop-color="#062A54"/>
<stop offset="0.2719" stop-color="#072C58"/>
<stop offset="0.5179" stop-color="#083263"/>
<stop offset="0.7539" stop-color="#0B3C75"/>
<stop offset="0.9825" stop-color="#104B8F"/>
<stop offset="1" stop-color="#104C91"/>
</linearGradient>
<linearGradient id="paint6_linear_1866_42320" x1="22.611" y1="30.4668" x2="41.4535" y2="30.4668" gradientUnits="userSpaceOnUse">
<stop stop-color="#DD3F18"/>
<stop offset="0.4157" stop-color="#E74A1B"/>
<stop offset="1" stop-color="#FD6120"/>
</linearGradient>
<linearGradient id="paint7_linear_1866_42320" x1="32.0309" y1="37.9284" x2="32.0309" y2="23.0133" gradientUnits="userSpaceOnUse">
<stop stop-color="#FF7B00"/>
<stop offset="0.0242" stop-color="#FF7D01"/>
<stop offset="0.6742" stop-color="#FFAB0F"/>
<stop offset="1" stop-color="#FFBD14"/>
</linearGradient>
<linearGradient id="paint8_linear_1866_42320" x1="29.9622" y1="27.8761" x2="34.6545" y2="32.5683" gradientUnits="userSpaceOnUse">
<stop stop-color="#FFBD14"/>
<stop offset="0.0524" stop-color="#FFB612"/>
<stop offset="0.2728" stop-color="#FF9C0A"/>
<stop offset="0.5004" stop-color="#FF8A04"/>
<stop offset="0.7377" stop-color="#FF7F01"/>
<stop offset="1" stop-color="#FF7B00"/>
</linearGradient>
<linearGradient id="paint9_linear_1866_42320" x1="27.8687" y1="45.4599" x2="27.8687" y2="32.3579" gradientUnits="userSpaceOnUse">
<stop offset="0.0242" stop-color="#F7BB7C"/>
<stop offset="1" stop-color="#FFD1A1"/>
</linearGradient>
<linearGradient id="paint10_linear_1866_42320" x1="13.5169" y1="45.5836" x2="13.5169" y2="32.7992" gradientUnits="userSpaceOnUse">
<stop stop-color="#CDEFFA"/>
<stop offset="1" stop-color="#FAFAFA"/>
</linearGradient>
<linearGradient id="paint11_linear_1866_42320" x1="9.48212" y1="45.5768" x2="9.48212" y2="32.7793" gradientUnits="userSpaceOnUse">
<stop stop-color="#062A54"/>
<stop offset="0.2719" stop-color="#072C58"/>
<stop offset="0.5179" stop-color="#083263"/>
<stop offset="0.7539" stop-color="#0B3C75"/>
<stop offset="0.9825" stop-color="#104B8F"/>
<stop offset="1" stop-color="#104C91"/>
</linearGradient>
</defs>
</svg>
