<svg width="47" height="47" viewBox="0 0 47 47" fill="none" xmlns="http://www.w3.org/2000/svg">
<path d="M33.65 1.58151L33.2784 4.45805C32.6793 4.52258 32.159 4.31066 31.7114 3.84063L33.4027 1.48438L33.65 1.58151Z" fill="#FFD2A1"/>
<path d="M33.249 4.53184L28.3748 16.8953L27.8511 16.6888L32.7253 4.32534C32.9229 3.82407 33.4466 4.03057 33.249 4.53184Z" fill="#005B6B"/>
<path d="M32.7257 4.32381L27.8515 16.6872L27.3271 16.4807L32.202 4.11733C32.3942 3.62828 32.9179 3.83476 32.7257 4.32381Z" fill="#005B6B"/>
<path d="M32.2013 4.11875L27.3264 16.4822L26.8027 16.2757L31.6769 3.91228C31.8603 3.44768 32.3847 3.65416 32.2013 4.11875Z" fill="#005B6B"/>
<path d="M33.7381 0.661993L33.4092 1.49609L33.6411 1.58753L33.97 0.753429L33.7381 0.661993Z" fill="#3C3C3B"/>
<path d="M26.739 1.70477L4.34277 4.51953L8.01903 33.7704L30.4153 30.9556L26.739 1.70477Z" fill="#C6C6C6"/>
<path d="M28.2143 30.0053C28.3814 29.9591 28.4839 29.8043 28.4445 29.6596L20.2985 0.191709C20.2584 0.0470318 20.0907 -0.0331181 19.9236 0.0130698L0.238692 5.45509C0.0716006 5.50128 -0.0309772 5.65614 0.00841838 5.80082L8.15448 35.2694C8.19455 35.4141 8.36233 35.4942 8.52942 35.448L28.2143 30.0053Z" fill="#EDEDED"/>
<path d="M13.2417 11.9983L15.365 8.25236L14.2178 4.10156C13.1548 4.43235 12.2718 5.14418 11.7196 6.11752C11.1443 7.1323 10.9982 8.31077 11.3093 9.43558C11.6082 10.5128 12.2915 11.4183 13.2417 11.9983Z" fill="#FFB100"/>
<path d="M14.4961 4.02386L15.6209 8.09315L19.6902 6.96836C19.3587 5.90536 18.6476 5.02167 17.6742 4.47013C16.7016 3.91859 15.5781 3.76236 14.4961 4.02386Z" fill="#575756"/>
<path d="M15.8945 8.31658L18.354 9.71103L19.3899 10.2979C19.885 9.35444 20.0175 8.28125 19.7675 7.24609L15.8945 8.31658Z" fill="#E63F12"/>
<path d="M15.5745 8.4668L13.4927 12.1394C14.4782 12.657 15.6058 12.7786 16.6844 12.4804C17.7623 12.1822 18.6678 11.4989 19.2478 10.5486L15.5745 8.4668Z" fill="#005B6B"/>
<path d="M21.7187 12.579L19.0942 13.3047L21.5434 22.162L24.1679 21.4363L21.7187 12.579Z" fill="#005B6B"/>
<path d="M18.7392 15.1261L16.1147 15.8516L18.1247 23.1234L20.7492 22.3979L18.7392 15.1261Z" fill="#005B6B"/>
<path d="M16.1489 18.966L13.5244 19.6914L14.7321 24.0605L17.3565 23.3351L16.1489 18.966Z" fill="#005B6B"/>
<path d="M12.3379 18.2802L9.71338 19.0059L11.3642 24.9762L13.9887 24.2505L12.3379 18.2802Z" fill="#005B6B"/>
<path d="M8.43698 17.4953L5.8125 18.2207L7.94497 25.9357L10.5694 25.2103L8.43698 17.4953Z" fill="#005B6B"/>
<path d="M5.29577 11.9932L8.56241 15.395L9.87541 10.8649L8.81828 11.1254L7.49396 5.75069L4.98471 6.36862L6.30843 11.7436L5.29577 11.9932Z" fill="#E63F12"/>
<path d="M24.6271 23.0934L8.4292 27.5723L8.60117 28.1942L24.7991 23.7153L24.6271 23.0934Z" fill="#575756"/>
<path d="M24.9923 24.5365L8.79443 29.0137L8.96634 29.6356L25.1642 25.1584L24.9923 24.5365Z" fill="#575756"/>
<path d="M25.3839 25.9544L9.18604 30.4316L9.35794 31.0536L25.5558 26.5764L25.3839 25.9544Z" fill="#575756"/>
<path d="M25.7765 27.3705L9.57861 31.8477L9.75052 32.4696L25.9484 27.9924L25.7765 27.3705Z" fill="#575756"/>
<path d="M14.7502 46.9996C13.66 46.9996 12.7817 46.1145 12.7817 45.0244V25.167C12.7817 24.1502 13.5425 23.3086 14.5301 23.1911C14.6102 23.1836 14.6836 23.1836 14.7495 23.1836H44.7451C44.811 23.1836 44.8844 23.1836 44.9645 23.1911C45.9521 23.3079 46.7135 24.1495 46.7135 25.167V45.0244C46.7135 46.1145 45.8353 46.9996 44.7451 46.9996H14.7502Z" fill="#3C3C3B"/>
<path d="M22.4359 35.7107C20.7392 35.7107 19.1151 35.0288 17.9285 33.8157C15.5946 31.4295 12.7812 28.5251 12.7812 28.5251V25.167C12.7812 24.1502 13.542 23.3086 14.5296 23.1911C14.6098 23.1836 14.6831 23.1836 14.749 23.1836H44.7447C44.8105 23.1836 44.8839 23.1836 44.964 23.1911C45.9516 23.3079 46.7131 24.1495 46.7131 25.167V28.5251C46.7131 28.5251 43.8997 31.4295 41.5665 33.8157C40.3799 35.0288 38.7558 35.7107 37.0591 35.7107H22.4359Z" fill="#575756"/>
<path d="M29.039 39.1385C28.5412 39.1385 28.1377 38.7351 28.1377 38.2365V32.7422H31.36V38.2365C31.36 38.7344 30.9565 39.1385 30.458 39.1385H29.039Z" fill="#B3B3B3"/>
<path d="M31.6002 35.8926H27.897V36.7144H31.6002V35.8926Z" fill="#999999"/>
<path d="M27.4156 35.0944C27.0706 35.0944 26.79 34.8145 26.79 34.4688V33.3671C26.79 33.022 27.0699 32.7422 27.4156 32.7422H32.0806C32.4256 32.7422 32.7055 33.022 32.7055 33.3671V34.4688C32.7055 34.8138 32.4256 35.0944 32.0806 35.0944H27.4156Z" fill="#999999"/>
<path d="M29.0192 38.7539C28.738 38.7539 28.5098 38.5257 28.5098 38.2445V36.7148H30.9862V38.2445C30.9862 38.5257 30.758 38.7539 30.4768 38.7539H29.0192Z" fill="white"/>
<path d="M28.1727 33.9572C28.1727 34.1766 27.9948 34.3539 27.7761 34.3539C27.5574 34.3539 27.3794 34.1766 27.3794 33.9572C27.3794 33.7378 27.5574 33.5605 27.7761 33.5605C27.9948 33.5605 28.1727 33.7385 28.1727 33.9572Z" fill="#4D4D4D"/>
<path d="M31.3228 33.9572C31.3228 34.1766 31.5 34.3539 31.7194 34.3539C31.9388 34.3539 32.1161 34.1766 32.1161 33.9572C32.1161 33.7378 31.9388 33.5605 31.7194 33.5605C31.5 33.5605 31.3228 33.7385 31.3228 33.9572Z" fill="#4D4D4D"/>
<path d="M28.9905 37.2758C28.9008 37.2758 28.8281 37.2032 28.8281 37.1135C28.8281 37.0238 28.9008 36.9512 28.9905 36.9512H30.5052C30.5948 36.9512 30.6675 37.0238 30.6675 37.1135C30.6675 37.2032 30.5948 37.2758 30.5052 37.2758H28.9905Z" fill="#999999"/>
<path d="M28.9905 37.8969C28.9008 37.8969 28.8281 37.8243 28.8281 37.7346C28.8281 37.645 28.9008 37.5723 28.9905 37.5723H30.5052C30.5948 37.5723 30.6675 37.645 30.6675 37.7346C30.6675 37.8243 30.5948 37.8969 30.5052 37.8969H28.9905Z" fill="#999999"/>
<path d="M28.9905 38.518C28.9008 38.518 28.8281 38.4454 28.8281 38.3557C28.8281 38.266 28.9008 38.1934 28.9905 38.1934H30.5052C30.5948 38.1934 30.6675 38.266 30.6675 38.3557C30.6675 38.4454 30.5948 38.518 30.5052 38.518H28.9905Z" fill="#999999"/>
<path d="M29.7481 21.6388C28.5329 21.6388 27.3171 21.9723 26.2473 22.64C25.9369 22.8322 25.528 22.8078 25.3147 22.5435C25.1021 22.2807 25.219 21.8351 25.5986 21.5987C26.8668 20.8074 28.3074 20.4121 29.7481 20.4121C31.1887 20.4121 32.6294 20.8074 33.8975 21.5987C34.2772 21.8351 34.394 22.2807 34.1814 22.5435C33.9688 22.8078 33.5599 22.8322 33.2489 22.64C32.1791 21.973 30.9639 21.6388 29.7481 21.6388Z" fill="#3C3C3B"/>
</svg>
