<svg width="63" height="35" viewBox="0 0 63 35" fill="none" xmlns="http://www.w3.org/2000/svg">
<path d="M25.24 8.14258H3.22705V15.6969H25.24V8.14258Z" fill="#585A5B"/>
<path d="M30.2462 8.14258H14.5635V15.3637H30.2462V8.14258Z" fill="#6A6C6D"/>
<path d="M7.81518 9.55664H4.81738V12.2901H7.81518V9.55664Z" fill="#414142"/>
<path d="M7.82741 9.55664H5.16748V12.2901H7.82741V9.55664Z" fill="#7E7E7F"/>
<path d="M12.208 9.55664H9.20996V12.2901H12.208V9.55664Z" fill="#414142"/>
<path d="M12.22 9.55664H9.56006V12.2901H12.22V9.55664Z" fill="#7E7E7F"/>
<path d="M19.7647 9.55664H16.7666V12.2901H19.7647V9.55664Z" fill="#414142"/>
<path d="M19.7778 9.55664H17.1182V12.2901H19.7778V9.55664Z" fill="#7E7E7F"/>
<path d="M24.158 9.55664H21.1602V12.2901H24.158V9.55664Z" fill="#414142"/>
<path d="M24.1721 9.55664H21.5122V12.2901H24.1721V9.55664Z" fill="#7E7E7F"/>
<path d="M49.3464 4.78711H39.8359V10.2094H49.3464V4.78711Z" fill="#E74600"/>
<path d="M54.2305 4.78711H49.3477V10.2094H54.2305V4.78711Z" fill="#FF6B00"/>
<path d="M40.342 4.96875H40.1611V10.2098H40.342V4.96875Z" fill="#C43402"/>
<path d="M40.9936 4.96875H40.813V10.2098H40.9936V4.96875Z" fill="#C43402"/>
<path d="M41.8622 4.96875H41.6816V10.2098H41.8622V4.96875Z" fill="#C43402"/>
<path d="M42.7292 4.96875H42.5479V10.2098H42.7292V4.96875Z" fill="#C43402"/>
<path d="M43.8147 4.96875H43.6338V10.2098H43.8147V4.96875Z" fill="#C43402"/>
<path d="M44.8986 4.96875H44.7183V10.2098H44.8986V4.96875Z" fill="#C43402"/>
<path d="M46.2018 4.96875H46.0215V10.2098H46.2018V4.96875Z" fill="#C43402"/>
<path d="M47.2868 4.96875H47.106V10.2098H47.2868V4.96875Z" fill="#C43402"/>
<path d="M48.5876 4.96875H48.4072V10.2098H48.5876V4.96875Z" fill="#C43402"/>
<path d="M50.3239 4.96875H50.1431V10.2098H50.3239V4.96875Z" fill="#EF6203"/>
<path d="M51.4084 4.96875H51.2275V10.2098H51.4084V4.96875Z" fill="#EF6203"/>
<path d="M52.4938 4.96875H52.3135V10.2098H52.4938V4.96875Z" fill="#EF6203"/>
<path d="M53.5783 4.96875H53.3975V10.2098H53.5783V4.96875Z" fill="#EF6203"/>
<path d="M54.2337 4.66016H49.3379V4.97904H54.2337V4.66016Z" fill="#CD5A0D"/>
<path d="M49.3382 4.66016H39.8271V4.9862H49.3382V4.66016Z" fill="#B7520D"/>
<path d="M49.3382 10.082H39.8271V10.4073H49.3382V10.082Z" fill="#B7520D"/>
<path d="M54.2274 10.082H49.3315V10.4004H54.2274V10.082Z" fill="#CD5A0D"/>
<path d="M42.9441 0.105469H34.9307V4.674H42.9441V0.105469Z" fill="#0C83FD"/>
<path d="M47.0576 0.105469H42.9438V4.674H47.0576V0.105469Z" fill="#59B8E7"/>
<path d="M35.175 0.257812H35.0225V4.67392H35.175V0.257812Z" fill="#0F79D8"/>
<path d="M35.7228 0.257812H35.5703V4.67392H35.7228V0.257812Z" fill="#0F79D8"/>
<path d="M36.4535 0.257812H36.3018V4.67392H36.4535V0.257812Z" fill="#0F79D8"/>
<path d="M37.1857 0.257812H37.0332V4.67392H37.1857V0.257812Z" fill="#0F79D8"/>
<path d="M38.0992 0.257812H37.9473V4.67392H38.0992V0.257812Z" fill="#0F79D8"/>
<path d="M39.0137 0.257812H38.8623V4.67392H39.0137V0.257812Z" fill="#0F79D8"/>
<path d="M40.1105 0.257812H39.9585V4.67392H40.1105V0.257812Z" fill="#0F79D8"/>
<path d="M41.0245 0.257812H40.8726V4.67392H41.0245V0.257812Z" fill="#0F79D8"/>
<path d="M42.1224 0.257812H41.9702V4.67392H42.1224V0.257812Z" fill="#0F79D8"/>
<path d="M43.7669 0.257812H43.6152V4.67392H43.7669V0.257812Z" fill="#48A6CC"/>
<path d="M44.6821 0.257812H44.5293V4.67392H44.6821V0.257812Z" fill="#48A6CC"/>
<path d="M45.5961 0.257812H45.4438V4.67392H45.5961V0.257812Z" fill="#48A6CC"/>
<path d="M46.5091 0.257812H46.3574V4.67392H46.5091V0.257812Z" fill="#48A6CC"/>
<path d="M47.0621 0H42.9375V0.268777H47.0621V0Z" fill="#2769A0"/>
<path d="M42.9378 0H34.9238V0.274084H42.9378V0Z" fill="#205B95"/>
<path d="M42.9378 4.56836H34.9238V4.84244H42.9378V4.56836Z" fill="#205B95"/>
<path d="M47.0571 4.56836H42.9316V4.83688H47.0571V4.56836Z" fill="#2769A0"/>
<path d="M57.339 10.0625H47.4854V14.925H57.339V10.0625Z" fill="#46556B"/>
<path d="M62.3977 10.0625H57.3398V14.925H62.3977V10.0625Z" fill="#506A89"/>
<path d="M47.7847 10.2246H47.5972V14.9251H47.7847V10.2246Z" fill="#3B495B"/>
<path d="M48.4604 10.2246H48.2734V14.9251H48.4604V10.2246Z" fill="#3B495B"/>
<path d="M49.3598 10.2246H49.1729V14.9251H49.3598V10.2246Z" fill="#3B495B"/>
<path d="M50.258 10.2246H50.0713V14.9251H50.258V10.2246Z" fill="#3B495B"/>
<path d="M51.382 10.2246H51.1953V14.9251H51.382V10.2246Z" fill="#3B495B"/>
<path d="M52.5073 10.2246H52.3203V14.9251H52.5073V10.2246Z" fill="#3B495B"/>
<path d="M53.8556 10.2246H53.6689V14.9251H53.8556V10.2246Z" fill="#3B495B"/>
<path d="M54.9795 10.2246H54.792V14.9251H54.9795V10.2246Z" fill="#3B495B"/>
<path d="M56.3286 10.2246H56.1416V14.9251H56.3286V10.2246Z" fill="#3B495B"/>
<path d="M58.3523 10.2246H58.165V14.9251H58.3523V10.2246Z" fill="#577CA0"/>
<path d="M59.4753 10.2246H59.2881V14.9251H59.4753V10.2246Z" fill="#577CA0"/>
<path d="M60.5993 10.2246H60.4121V14.9251H60.5993V10.2246Z" fill="#577CA0"/>
<path d="M61.7238 10.2246H61.5371V14.9251H61.7238V10.2246Z" fill="#577CA0"/>
<path d="M62.4025 9.94922H57.3306V10.2347H62.4025V9.94922Z" fill="#3E4E5E"/>
<path d="M57.3312 9.94922H47.4775V10.2411H57.3312V9.94922Z" fill="#394656"/>
<path d="M57.3312 14.8125H47.4775V15.1046H57.3312V14.8125Z" fill="#394656"/>
<path d="M62.3966 14.8125H57.3242V15.0985H62.3966V14.8125Z" fill="#3E4E5E"/>
<g opacity="0.1">
<path d="M48.0139 15.4825L38.083 15.4473L38.0308 15.5766H48.0117L48.0139 15.4825Z" fill="black"/>
</g>
<path d="M47.6433 27.0449H8.17529C8.69375 28.101 9.26181 28.7141 9.59383 29.0104H47.664C47.5807 28.3101 47.5879 27.6456 47.6433 27.0449Z" fill="#BEBEBF"/>
<path d="M28.4558 9.55664H25.458V12.2901H28.4558V9.55664Z" fill="#414142"/>
<path d="M28.4697 9.55664H25.8101V12.2901H28.4697V9.55664Z" fill="#7E7E7F"/>
<path d="M32.5281 9.79102H23.0176V15.2136H32.5281V9.79102Z" fill="#E74600"/>
<path d="M37.4109 9.79102H32.5283V15.2136H37.4109V9.79102Z" fill="#FF6B00"/>
<path d="M23.5236 9.97266H23.3428V15.2139H23.5236V9.97266Z" fill="#C43402"/>
<path d="M24.1743 9.97266H23.9937V15.2139H24.1743V9.97266Z" fill="#C43402"/>
<path d="M25.0431 9.97266H24.8628V15.2139H25.0431V9.97266Z" fill="#C43402"/>
<path d="M25.9114 9.97266H25.73V15.2139H25.9114V9.97266Z" fill="#C43402"/>
<path d="M26.9958 9.97266H26.8149V15.2139H26.9958V9.97266Z" fill="#C43402"/>
<path d="M28.0805 9.97266H27.8999V15.2139H28.0805V9.97266Z" fill="#C43402"/>
<path d="M29.3823 9.97266H29.2017V15.2139H29.3823V9.97266Z" fill="#C43402"/>
<path d="M30.4675 9.97266H30.2861V15.2139H30.4675V9.97266Z" fill="#C43402"/>
<path d="M31.7687 9.97266H31.5884V15.2139H31.7687V9.97266Z" fill="#C43402"/>
<path d="M33.5043 9.97266H33.3237V15.2139H33.5043V9.97266Z" fill="#EF6203"/>
<path d="M34.59 9.97266H34.4092V15.2139H34.59V9.97266Z" fill="#EF6203"/>
<path d="M35.6745 9.97266H35.4941V15.2139H35.6745V9.97266Z" fill="#EF6203"/>
<path d="M36.7602 9.97266H36.5796V15.2139H36.7602V9.97266Z" fill="#EF6203"/>
<path d="M37.4156 9.66406H32.5195V9.98295H37.4156V9.66406Z" fill="#CD5A0D"/>
<path d="M32.5196 9.66406H23.0083V9.9901H32.5196V9.66406Z" fill="#B7520D"/>
<path d="M32.5196 15.0859H23.0083V15.4112H32.5196V15.0859Z" fill="#B7520D"/>
<path d="M37.4077 15.0859H32.5122V15.4043H37.4077V15.0859Z" fill="#CD5A0D"/>
<path d="M44.943 10.043H35.3784V15.4958H44.943V10.043Z" fill="#0C83FD"/>
<path d="M49.8537 10.043H44.9438V15.4958H49.8537V10.043Z" fill="#59B8E7"/>
<path d="M35.6692 10.2246H35.4873V15.4958H35.6692V10.2246Z" fill="#0F79D8"/>
<path d="M36.324 10.2246H36.1421V15.4958H36.324V10.2246Z" fill="#0F79D8"/>
<path d="M37.196 10.2246H37.0146V15.4958H37.196V10.2246Z" fill="#0F79D8"/>
<path d="M38.0696 10.2246H37.8877V15.4958H38.0696V10.2246Z" fill="#0F79D8"/>
<path d="M39.1607 10.2246H38.979V15.4958H39.1607V10.2246Z" fill="#0F79D8"/>
<path d="M40.2512 10.2246H40.0698V15.4958H40.2512V10.2246Z" fill="#0F79D8"/>
<path d="M41.5618 10.2246H41.3799V15.4958H41.5618V10.2246Z" fill="#0F79D8"/>
<path d="M42.6511 10.2246H42.4697V15.4958H42.6511V10.2246Z" fill="#0F79D8"/>
<path d="M43.96 10.2246H43.7783V15.4958H43.96V10.2246Z" fill="#0F79D8"/>
<path d="M45.925 10.2246H45.7437V15.4958H45.925V10.2246Z" fill="#48A6CC"/>
<path d="M47.0156 10.2246H46.834V15.4958H47.0156V10.2246Z" fill="#48A6CC"/>
<path d="M48.1079 10.2246H47.9263V15.4958H48.1079V10.2246Z" fill="#48A6CC"/>
<path d="M49.1975 10.2246H49.0166V15.4958H49.1975V10.2246Z" fill="#48A6CC"/>
<path d="M49.8577 9.91602H44.9346V10.2365H49.8577V9.91602Z" fill="#2769A0"/>
<path d="M44.934 9.91602H35.3691V10.2431H44.934V9.91602Z" fill="#205B95"/>
<path d="M44.934 15.3691H35.3691V15.6962H44.934V15.3691Z" fill="#205B95"/>
<path d="M49.8497 15.3691H44.9263V15.6896H49.8497V15.3691Z" fill="#2769A0"/>
<path d="M11.4834 15.5781V15.6338C12.4442 15.6635 13.4687 15.6987 14.5674 15.7406L14.3825 28.2099H32.9235L38.0302 15.5781H11.4834Z" fill="#C4C5C6"/>
<path d="M11.4835 15.633C3.79751 15.3937 0.459473 15.5114 0.459473 15.5114C1.28371 18.7516 5.34918 22.6325 5.34918 22.6325C6.82209 24.1509 7.99745 26.2479 8.87658 28.2091H14.3826L14.5674 15.7398C13.469 15.698 12.4443 15.6627 11.4835 15.633Z" fill="#C4C5C6"/>
<path d="M37.8893 15.8594L32.7832 28.4911H47.573L47.8703 15.8594H37.8893Z" fill="#C4C5C6"/>
<path d="M47.8307 15.25H0V18.5016H47.8307V15.25Z" fill="#BEBEBF"/>
<path d="M7.7327 17.252C7.7327 17.6788 7.38636 18.025 6.95939 18.025C6.53216 18.025 6.18555 17.6788 6.18555 17.252C6.18555 16.825 6.53216 16.4785 6.95939 16.4785C7.38636 16.4785 7.7327 16.8247 7.7327 17.252Z" fill="#11496E"/>
<path d="M6.95918 18.1572C6.45928 18.1572 6.05273 17.7511 6.05273 17.2517C6.05273 16.7521 6.45928 16.3457 6.95918 16.3457C7.45881 16.3457 7.86509 16.7521 7.86509 17.2517C7.86509 17.7511 7.45855 18.1572 6.95918 18.1572ZM6.95918 16.611C6.60567 16.611 6.31793 16.8986 6.31793 17.252C6.31793 17.6051 6.60541 17.8924 6.95918 17.8924C7.31242 17.8924 7.59989 17.6051 7.59989 17.252C7.59989 16.8984 7.31242 16.611 6.95918 16.611Z" fill="white"/>
<path d="M10.3279 17.252C10.3279 17.6788 9.98127 18.025 9.5551 18.025C9.12786 18.025 8.78125 17.6788 8.78125 17.252C8.78125 16.825 9.12786 16.4785 9.5551 16.4785C9.98127 16.4785 10.3279 16.8247 10.3279 17.252Z" fill="#11496E"/>
<path d="M9.55488 18.1572C9.05498 18.1572 8.64844 17.7511 8.64844 17.2517C8.64844 16.7521 9.05498 16.3457 9.55488 16.3457C10.054 16.3457 10.4603 16.7521 10.4603 17.2517C10.4603 17.7511 10.054 18.1572 9.55488 18.1572ZM9.55488 16.611C9.20137 16.611 8.91363 16.8986 8.91363 17.252C8.91363 17.6051 9.20137 17.8924 9.55488 17.8924C9.90786 17.8924 10.1951 17.6051 10.1951 17.252C10.1951 16.8984 9.90786 16.611 9.55488 16.611Z" fill="white"/>
<path d="M13.7842 17.252C13.7842 17.6788 13.4376 18.025 13.0109 18.025C12.5839 18.025 12.2373 17.6788 12.2373 17.252C12.2373 16.825 12.5839 16.4785 13.0109 16.4785C13.4376 16.4785 13.7842 16.8247 13.7842 17.252Z" fill="#11496E"/>
<path d="M13.0116 18.1572C12.512 18.1572 12.1055 17.7511 12.1055 17.2517C12.1055 16.7521 12.512 16.3457 13.0116 16.3457C13.5113 16.3457 13.9176 16.7521 13.9176 17.2517C13.9176 17.7511 13.5113 18.1572 13.0116 18.1572ZM13.0116 16.611C12.6584 16.611 12.3707 16.8986 12.3707 17.252C12.3707 17.6051 12.6584 17.8924 13.0116 17.8924C13.3649 17.8924 13.6524 17.6051 13.6524 17.252C13.6524 16.8984 13.3649 16.611 13.0116 16.611Z" fill="white"/>
<path d="M16.3795 17.252C16.3795 17.6788 16.0328 18.025 15.6067 18.025C15.1789 18.025 14.832 17.6788 14.832 17.252C14.832 16.825 15.1789 16.4785 15.6067 16.4785C16.0331 16.4785 16.3795 16.8247 16.3795 17.252Z" fill="#11496E"/>
<path d="M15.6065 18.1572C15.1063 18.1572 14.6992 17.7511 14.6992 17.2517C14.6992 16.7521 15.1063 16.3457 15.6065 16.3457C16.1056 16.3457 16.5118 16.7521 16.5118 17.2517C16.5118 17.7511 16.1058 18.1572 15.6065 18.1572ZM15.6065 16.611C15.2524 16.611 14.9644 16.8986 14.9644 17.252C14.9644 17.6051 15.2524 17.8924 15.6065 17.8924C15.9594 17.8924 16.2466 17.6051 16.2466 17.252C16.2466 16.8984 15.9594 16.611 15.6065 16.611Z" fill="white"/>
<path d="M19.8362 17.252C19.8362 17.6788 19.4896 18.025 19.0634 18.025C18.6359 18.025 18.2891 17.6788 18.2891 17.252C18.2891 16.825 18.6359 16.4785 19.0634 16.4785C19.4899 16.4785 19.8362 16.8247 19.8362 17.252Z" fill="#11496E"/>
<path d="M19.0642 18.1572C18.564 18.1572 18.1572 17.7511 18.1572 17.2517C18.1572 16.7521 18.564 16.3457 19.0642 16.3457C19.5633 16.3457 19.9696 16.7521 19.9696 17.2517C19.9696 17.7511 19.5636 18.1572 19.0642 18.1572ZM19.0642 16.611C18.7102 16.611 18.4224 16.8986 18.4224 17.252C18.4224 17.6051 18.7102 17.8924 19.0642 17.8924C19.4172 17.8924 19.7044 17.6051 19.7044 17.252C19.7044 16.8984 19.4172 16.611 19.0642 16.611Z" fill="white"/>
<path d="M22.4319 17.252C22.4319 17.6788 22.0853 18.025 21.6586 18.025C21.2319 18.025 20.8848 17.6788 20.8848 17.252C20.8848 16.825 21.2319 16.4785 21.6586 16.4785C22.0856 16.4785 22.4319 16.8247 22.4319 17.252Z" fill="#11496E"/>
<path d="M21.6594 18.1572C21.1595 18.1572 20.7529 17.7511 20.7529 17.2517C20.7529 16.7521 21.1595 16.3457 21.6594 16.3457C22.159 16.3457 22.5653 16.7521 22.5653 17.2517C22.5653 17.7511 22.159 18.1572 21.6594 18.1572ZM21.6594 16.611C21.3059 16.611 21.0181 16.8986 21.0181 17.252C21.0181 17.6051 21.3059 17.8924 21.6594 17.8924C22.0126 17.8924 22.3001 17.6051 22.3001 17.252C22.3001 16.8984 22.0126 16.611 21.6594 16.611Z" fill="white"/>
<path d="M25.889 17.252C25.889 17.6788 25.5423 18.025 25.1164 18.025C24.6889 18.025 24.3418 17.6788 24.3418 17.252C24.3418 16.825 24.6889 16.4785 25.1164 16.4785C25.5423 16.4785 25.889 16.8247 25.889 17.252Z" fill="#11496E"/>
<path d="M25.1162 18.1572C24.6161 18.1572 24.209 17.7511 24.209 17.2517C24.209 16.7521 24.6161 16.3457 25.1162 16.3457C25.6153 16.3457 26.0213 16.7521 26.0213 17.2517C26.0216 17.7511 25.6153 18.1572 25.1162 18.1572ZM25.1162 16.611C24.7622 16.611 24.4742 16.8986 24.4742 17.252C24.4742 17.6051 24.7622 17.8924 25.1162 17.8924C25.4692 17.8924 25.7561 17.6051 25.7561 17.252C25.7564 16.8984 25.4692 16.611 25.1162 16.611Z" fill="white"/>
<path d="M28.4848 17.252C28.4848 17.6788 28.1388 18.025 27.7123 18.025C27.2848 18.025 26.9385 17.6788 26.9385 17.252C26.9385 16.825 27.2848 16.4785 27.7123 16.4785C28.1388 16.4785 28.4848 16.8247 28.4848 17.252Z" fill="#11496E"/>
<path d="M27.7111 18.1572C27.2112 18.1572 26.8047 17.7511 26.8047 17.2517C26.8047 16.7521 27.2112 16.3457 27.7111 16.3457C28.2102 16.3457 28.6162 16.7521 28.6162 17.2517C28.6162 17.7511 28.2102 18.1572 27.7111 18.1572ZM27.7111 16.611C27.3576 16.611 27.0699 16.8986 27.0699 17.252C27.0699 17.6051 27.3576 17.8924 27.7111 17.8924C28.0641 17.8924 28.3511 17.6051 28.3511 17.252C28.3511 16.8984 28.0641 16.611 27.7111 16.611Z" fill="white"/>
<path d="M32.5462 17.252C32.5462 17.6788 32.1996 18.025 31.7729 18.025C31.3456 18.025 30.999 17.6788 30.999 17.252C30.999 16.825 31.3456 16.4785 31.7729 16.4785C32.1996 16.4785 32.5462 16.8247 32.5462 17.252Z" fill="#11496E"/>
<path d="M31.7727 18.1572C31.2728 18.1572 30.8662 17.7511 30.8662 17.2517C30.8662 16.7521 31.2728 16.3457 31.7727 16.3457C32.2723 16.3457 32.6786 16.7521 32.6786 17.2517C32.6786 17.7511 32.2723 18.1572 31.7727 18.1572ZM31.7727 16.611C31.4191 16.611 31.1314 16.8986 31.1314 17.252C31.1314 17.6051 31.4191 17.8924 31.7727 17.8924C32.1259 17.8924 32.4134 17.6051 32.4134 17.252C32.4134 16.8984 32.1259 16.611 31.7727 16.611Z" fill="white"/>
<path d="M35.1394 17.252C35.1394 17.6788 34.7928 18.025 34.3666 18.025C33.9394 18.025 33.5928 17.6788 33.5928 17.252C33.5928 16.825 33.9394 16.4785 34.3666 16.4785C34.7931 16.4785 35.1394 16.8247 35.1394 17.252Z" fill="#11496E"/>
<path d="M34.3674 18.1572C33.8675 18.1572 33.4609 17.7511 33.4609 17.2517C33.4609 16.7521 33.8675 16.3457 34.3674 16.3457C34.8667 16.3457 35.2728 16.7521 35.2728 17.2517C35.2728 17.7511 34.8667 18.1572 34.3674 18.1572ZM34.3674 16.611C34.0139 16.611 33.7261 16.8986 33.7261 17.252C33.7261 17.6051 34.0139 17.8924 34.3674 17.8924C34.7204 17.8924 35.0076 17.6051 35.0076 17.252C35.0076 16.8984 34.7204 16.611 34.3674 16.611Z" fill="white"/>
<path d="M38.5994 17.252C38.5994 17.6788 38.2528 18.025 37.8261 18.025C37.3986 18.025 37.0527 17.6788 37.0527 17.252C37.0527 16.825 37.3986 16.4785 37.8261 16.4785C38.253 16.4785 38.5994 16.8247 38.5994 17.252Z" fill="#11496E"/>
<path d="M37.8268 18.1572C37.3272 18.1572 36.9209 17.7511 36.9209 17.2517C36.9209 16.7521 37.3272 16.3457 37.8268 16.3457C38.3264 16.3457 38.7327 16.7521 38.7327 17.2517C38.7327 17.7511 38.3264 18.1572 37.8268 18.1572ZM37.8268 16.611C37.4736 16.611 37.1861 16.8986 37.1861 17.252C37.1861 17.6051 37.4736 17.8924 37.8268 17.8924C38.1801 17.8924 38.4675 17.6051 38.4675 17.252C38.4675 16.8984 38.1801 16.611 37.8268 16.611Z" fill="white"/>
<path d="M42.0222 17.2383C42.0222 17.6651 41.678 18.0113 41.2534 18.0113C40.8286 18.0113 40.4849 17.6651 40.4849 17.2383C40.4849 16.8113 40.8288 16.4648 41.2534 16.4648C41.6783 16.4648 42.0222 16.811 42.0222 17.2383Z" fill="#11496E"/>
<path d="M41.2532 18.1435C40.7562 18.1435 40.3521 17.7374 40.3521 17.238C40.3521 16.7384 40.7562 16.332 41.2532 16.332C41.7502 16.332 42.1546 16.7384 42.1546 17.238C42.1546 17.7374 41.7502 18.1435 41.2532 18.1435ZM41.2532 16.5971C40.9026 16.5971 40.6172 16.8847 40.6172 17.238C40.6172 17.5911 40.9026 17.8785 41.2532 17.8785C41.6041 17.8785 41.8894 17.5911 41.8894 17.238C41.8894 16.8847 41.6041 16.5971 41.2532 16.5971Z" fill="white"/>
<path d="M61.7181 15.5902C61.7181 15.5902 57.8939 15.2782 48.9801 15.2485C48.5356 15.2469 48.0819 15.2461 47.6119 15.2461L47.3213 29.011H52.9448C53.8807 26.9687 55.0924 24.8263 56.5597 23.2728C56.5597 23.2728 60.7708 19.1445 61.7181 15.5902Z" fill="#D1D2D3"/>
<path d="M61.8515 15.25H0V16.0068H61.8515V15.25Z" fill="#A4A4A5"/>
<path d="M61.8506 15.2461H47.6113V16.0063H61.8506V15.2461Z" fill="#BEBEBF"/>
<path d="M11.9214 20.375H7.20703V21.3733H11.9214V20.375Z" fill="#F2F3F4"/>
<path d="M11.9217 20.375H7.53955V21.3733H11.9217V20.375Z" fill="#F2F3F4"/>
<path d="M18.1369 20.375H13.4214V21.3733H18.1369V20.375Z" fill="#F2F3F4"/>
<path d="M18.1365 20.375H13.7544V21.3733H18.1365V20.375Z" fill="#F2F3F4"/>
<path d="M25.2359 20.375H20.5215V21.3733H25.2359V20.375Z" fill="#F2F3F4"/>
<path d="M25.2344 20.375H20.8525V21.3733H25.2344V20.375Z" fill="#F2F3F4"/>
<path d="M0.620132 13.5H0.0234375V15.4218H0.620132V13.5Z" fill="#A4A4A5"/>
<path d="M61.781 13.5H0.0234375V14.0633H61.781V13.5Z" fill="#A4A4A5"/>
<path d="M61.781 13.8809H0.0234375V14.1056H61.781V13.8809Z" fill="#BEBEBF"/>
<path d="M61.8694 13.4883H61.4053V15.4101H61.8694V13.4883Z" fill="#BEBEBF"/>
<path d="M50.4302 27.7561C48.5526 26.466 45.83 25.3045 43.4833 27.3689C41.1363 29.433 39.1656 28.4016 37.0064 27.3689C34.8469 26.3364 33.2509 26.0785 30.5295 27.627C27.8064 29.1748 26.3044 29.0457 23.8637 27.7561C21.4231 26.466 19.9216 26.466 18.044 27.3689C16.1661 28.272 14.2888 27.7561 11.9423 27.1101C9.59506 26.466 8.84454 25.3045 6.21564 27.1101C5.37868 27.6864 4.68493 27.9075 4.12695 27.9425V30.8344C4.68493 30.7994 5.37868 30.5786 6.21564 30.0026C8.84454 28.1972 9.59506 29.3569 11.9423 30.0026C14.2888 30.6478 16.1661 31.1642 18.044 30.2608C19.9216 29.3572 21.4231 29.3572 23.8637 30.6478C26.3044 31.9387 27.8064 32.067 30.5295 30.5192C33.2509 28.9712 34.8469 29.2294 37.0064 30.2608C39.1656 31.2935 41.1363 32.3252 43.4833 30.2608C45.8303 28.1975 48.5526 29.3572 50.4302 30.6478C51.9707 31.707 54.4588 31.4618 56.2361 30.6984V27.807C54.4588 28.5699 51.9704 28.8148 50.4302 27.7561Z" fill="#9CDCFE"/>
<path d="M50.4302 30.6483C48.5526 29.3576 45.83 28.1979 43.4833 30.2612C41.1363 32.3256 39.1656 31.294 37.0064 30.2612C34.8469 29.2296 33.2509 28.9717 30.5295 30.5197C27.8064 32.0677 26.3044 31.9392 23.8637 30.6483C21.4231 29.3576 19.9216 29.3576 18.044 30.2612C16.1661 31.1646 14.2888 30.6482 11.9423 30.0031C9.59506 29.3573 8.84454 28.1977 6.21564 30.0031C5.37868 30.5791 4.68493 30.7999 4.12695 30.8349V34.187C4.68493 34.1522 5.37868 33.9309 6.21564 33.356C8.84454 31.5492 9.59506 32.7105 11.9423 33.356C14.2888 34.0009 16.1661 34.5167 18.044 33.6141C19.9216 32.7108 21.4231 32.7108 23.8637 34.0009C26.3044 35.2913 27.8064 35.4203 30.5295 33.8718C33.2509 32.3243 34.8469 32.5819 37.0064 33.6141C39.1656 34.6461 41.1363 35.6777 43.4833 33.6141C45.8303 31.5492 48.5526 32.7108 50.4302 34.0009C51.9707 35.0596 54.4588 34.8149 56.2361 34.0512V30.6991C54.4588 31.4623 51.9704 31.7075 50.4302 30.6483Z" fill="#86D5FE"/>
<path d="M35.0187 4.85156H25.165V9.82327H35.0187V4.85156Z" fill="#46556B"/>
<path d="M40.0769 4.85156H35.019V9.82327H40.0769V4.85156Z" fill="#506A89"/>
<path d="M25.4648 5.01758H25.2773V9.82335H25.4648V5.01758Z" fill="#3B495B"/>
<path d="M26.1391 5.01758H25.9521V9.82335H26.1391V5.01758Z" fill="#3B495B"/>
<path d="M27.038 5.01758H26.8511V9.82335H27.038V5.01758Z" fill="#3B495B"/>
<path d="M27.9382 5.01758H27.7515V9.82335H27.9382V5.01758Z" fill="#3B495B"/>
<path d="M29.0617 5.01758H28.875V9.82335H29.0617V5.01758Z" fill="#3B495B"/>
<path d="M30.186 5.01758H29.999V9.82335H30.186V5.01758Z" fill="#3B495B"/>
<path d="M31.5343 5.01758H31.3477V9.82335H31.5343V5.01758Z" fill="#3B495B"/>
<path d="M32.6582 5.01758H32.4707V9.82335H32.6582V5.01758Z" fill="#3B495B"/>
<path d="M34.0073 5.01758H33.8203V9.82335H34.0073V5.01758Z" fill="#3B495B"/>
<path d="M36.031 5.01758H35.8438V9.82335H36.031V5.01758Z" fill="#577CA0"/>
<path d="M37.1545 5.01758H36.9673V9.82335H37.1545V5.01758Z" fill="#577CA0"/>
<path d="M38.2785 5.01758H38.0913V9.82335H38.2785V5.01758Z" fill="#577CA0"/>
<path d="M39.4025 5.01758H39.2158V9.82335H39.4025V5.01758Z" fill="#577CA0"/>
<path d="M40.0817 4.73633H35.0098V5.02791H40.0817V4.73633Z" fill="#3E4E5E"/>
<path d="M35.0099 4.73633H25.1562V5.03453H35.0099V4.73633Z" fill="#394656"/>
<path d="M35.0099 9.70703H25.1562V10.0058H35.0099V9.70703Z" fill="#394656"/>
<path d="M40.0749 9.70703H35.0024V9.99967H40.0749V9.70703Z" fill="#3E4E5E"/>
</svg>
