<svg width="49" height="48" viewBox="0 0 49 48" fill="none" xmlns="http://www.w3.org/2000/svg">
<circle cx="24.9414" cy="24.002" r="22.5" fill="white" stroke="#F37435" stroke-width="3"/>
<g clip-path="url(#clip0_2162_19437)">
<path fill-rule="evenodd" clip-rule="evenodd" d="M21.9414 17.002C21.9414 16.4715 22.1521 15.9628 22.5272 15.5877C22.9023 15.2127 23.411 15.002 23.9414 15.002H25.9414C26.4718 15.002 26.9805 15.2127 27.3556 15.5877C27.7307 15.9628 27.9414 16.4715 27.9414 17.002V21.002H31.9414C32.4718 21.002 32.9805 21.2127 33.3556 21.5877C33.7307 21.9628 33.9414 22.4715 33.9414 23.002V25.002C33.9414 25.5324 33.7307 26.0411 33.3556 26.4162C32.9805 26.7912 32.4718 27.002 31.9414 27.002H27.9414V31.002C27.9414 31.5324 27.7307 32.0411 27.3556 32.4162C26.9805 32.7912 26.4718 33.002 25.9414 33.002H23.9414C23.411 33.002 22.9023 32.7912 22.5272 32.4162C22.1521 32.0411 21.9414 31.5324 21.9414 31.002V27.002H17.9414C17.411 27.002 16.9023 26.7912 16.5272 26.4162C16.1521 26.0411 15.9414 25.5324 15.9414 25.002V23.002C15.9414 22.4715 16.1521 21.9628 16.5272 21.5877C16.9023 21.2127 17.411 21.002 17.9414 21.002H21.9414V17.002Z" fill="#F37435"/>
</g>
<defs>
<clipPath id="clip0_2162_19437">
<rect width="24" height="24" fill="white" transform="translate(12.9414 12.002)"/>
</clipPath>
</defs>
</svg>
