<svg width="54" height="41" viewBox="0 0 54 41" fill="none" xmlns="http://www.w3.org/2000/svg">
<path d="M12.3876 32.5782C11.2568 32.5782 10.3457 31.6601 10.3457 30.5293V9.93047C10.3457 8.87569 11.1349 8.00268 12.1593 7.88079C12.2425 7.87304 12.3186 7.87305 12.3869 7.87305H43.5025C43.5709 7.87305 43.6469 7.87304 43.7301 7.88079C44.7546 8.00198 45.5444 8.87499 45.5444 9.93047V30.5293C45.5444 31.6601 44.6334 32.5782 43.5025 32.5782H12.3876Z" fill="#3C3C3B"/>
<path d="M20.3598 20.8679C18.5998 20.8679 16.9151 20.1605 15.6841 18.9021C13.2632 16.4268 10.3447 13.414 10.3447 13.414V9.93047C10.3447 8.87569 11.1339 8.0027 12.1584 7.88081C12.2415 7.87306 12.3176 7.87305 12.3859 7.87305H43.5015C43.5699 7.87305 43.646 7.87306 43.7291 7.88081C44.7536 8.002 45.5434 8.87499 45.5434 9.93047V13.414C45.5434 13.414 42.625 16.4268 40.2047 18.9021C38.9738 20.1605 37.2891 20.8679 35.529 20.8679H20.3598Z" fill="#575756"/>
<path d="M27.2084 24.4242C26.692 24.4242 26.2734 24.0057 26.2734 23.4885V17.7891H29.616V23.4885C29.616 24.005 29.1975 24.4242 28.6803 24.4242H27.2084Z" fill="#B3B3B3"/>
<path d="M29.8649 21.0566H26.0234V21.9092H29.8649V21.0566Z" fill="#999999"/>
<path d="M25.5249 20.2291C25.167 20.2291 24.876 19.9388 24.876 19.5801V18.4373C24.876 18.0794 25.1663 17.7891 25.5249 17.7891H30.3641C30.722 17.7891 31.0123 18.0794 31.0123 18.4373V19.5801C31.0123 19.9381 30.722 20.2291 30.3641 20.2291H25.5249Z" fill="#999999"/>
<path d="M27.1886 24.0254C26.8969 24.0254 26.6602 23.7886 26.6602 23.4969V21.9102H29.2291V23.4969C29.2291 23.7886 28.9924 24.0254 28.7007 24.0254H27.1886Z" fill="white"/>
<path d="M26.3112 19.0501C26.3112 19.2777 26.1267 19.4616 25.8998 19.4616C25.6729 19.4616 25.4883 19.2777 25.4883 19.0501C25.4883 18.8226 25.6729 18.6387 25.8998 18.6387C26.1267 18.6387 26.3112 18.8233 26.3112 19.0501Z" fill="#4D4D4D"/>
<path d="M29.5791 19.0501C29.5791 19.2777 29.763 19.4616 29.9906 19.4616C30.2182 19.4616 30.4021 19.2777 30.4021 19.0501C30.4021 18.8226 30.2182 18.6387 29.9906 18.6387C29.763 18.6387 29.5791 18.8233 29.5791 19.0501Z" fill="#4D4D4D"/>
<path d="M27.1586 22.4911C27.0656 22.4911 26.9902 22.4157 26.9902 22.3227C26.9902 22.2297 27.0656 22.1543 27.1586 22.1543H28.7299C28.8229 22.1543 28.8983 22.2297 28.8983 22.3227C28.8983 22.4157 28.8229 22.4911 28.7299 22.4911H27.1586Z" fill="#999999"/>
<path d="M27.1586 23.1356C27.0656 23.1356 26.9902 23.0602 26.9902 22.9672C26.9902 22.8742 27.0656 22.7988 27.1586 22.7988H28.7299C28.8229 22.7988 28.8983 22.8742 28.8983 22.9672C28.8983 23.0602 28.8229 23.1356 28.7299 23.1356H27.1586Z" fill="#999999"/>
<path d="M27.1586 23.7802C27.0656 23.7802 26.9902 23.7048 26.9902 23.6118C26.9902 23.5188 27.0656 23.4434 27.1586 23.4434H28.7299C28.8229 23.4434 28.8983 23.5188 28.8983 23.6118C28.8983 23.7048 28.8229 23.7802 28.7299 23.7802H27.1586Z" fill="#999999"/>
<path d="M27.9444 6.27054C26.6839 6.27054 25.4226 6.6165 24.3129 7.30911C23.9909 7.50851 23.5668 7.48315 23.3455 7.20906C23.125 6.93639 23.2462 6.47416 23.64 6.22896C24.9555 5.40811 26.4499 4.99805 27.9444 4.99805C29.4388 4.99805 30.9333 5.40811 32.2488 6.22896C32.6426 6.47416 32.7638 6.93639 32.5433 7.20906C32.3227 7.48315 31.8986 7.50851 31.5759 7.30911C30.4661 6.6172 29.2056 6.27054 27.9444 6.27054Z" fill="#3C3C3B"/>
<path d="M7.09985 34.9741C5.66593 34.9741 4.51074 33.81 4.51074 32.3761V6.25721C4.51074 4.91977 5.51137 3.81281 6.81039 3.65825C6.91581 3.64843 7.01229 3.64844 7.09896 3.64844H46.5529C46.6395 3.64844 46.736 3.64843 46.8414 3.65825C48.1405 3.81192 49.142 4.91888 49.142 6.25721V32.3761C49.142 33.81 47.9868 34.9741 46.5529 34.9741H7.09985Z" fill="#3C3C3B"/>
<path d="M17.2087 20.1236C14.977 20.1236 12.8408 19.2267 11.28 17.6311C8.21027 14.4925 4.50977 10.6723 4.50977 10.6723V6.25526C4.50977 4.91782 5.51039 3.81089 6.80941 3.65633C6.91483 3.6465 7.01132 3.64648 7.09798 3.64648H46.5519C46.6386 3.64648 46.735 3.6465 46.8405 3.65633C48.1395 3.80999 49.141 4.91693 49.141 6.25526V10.6723C49.141 10.6723 45.4405 14.4925 42.3716 17.6311C40.8108 19.2267 38.6747 20.1236 36.4429 20.1236H17.2087Z" fill="#575756"/>
<path d="M25.8936 24.6339C25.2387 24.6339 24.708 24.1033 24.708 23.4475V16.2207H28.9464V23.4475C28.9464 24.1024 28.4157 24.6339 27.7599 24.6339H25.8936Z" fill="#B3B3B3"/>
<path d="M29.2615 20.3652H24.3906V21.4463H29.2615V20.3652Z" fill="#999999"/>
<path d="M23.7584 19.3146C23.3045 19.3146 22.9355 18.9465 22.9355 18.4917V17.0427C22.9355 16.5888 23.3036 16.2207 23.7584 16.2207H29.8943C30.3482 16.2207 30.7162 16.5888 30.7162 17.0427V18.4917C30.7162 18.9456 30.3482 19.3146 29.8943 19.3146H23.7584Z" fill="#999999"/>
<path d="M25.8673 24.1273C25.4975 24.1273 25.1973 23.8272 25.1973 23.4573V21.4453H28.4546V23.4573C28.4546 23.8272 28.1545 24.1273 27.7846 24.1273H25.8673Z" fill="white"/>
<path d="M24.7544 17.8186C24.7544 18.1072 24.5204 18.3404 24.2327 18.3404C23.945 18.3404 23.7109 18.1072 23.7109 17.8186C23.7109 17.53 23.945 17.2969 24.2327 17.2969C24.5204 17.2969 24.7544 17.5309 24.7544 17.8186Z" fill="#4D4D4D"/>
<path d="M28.8984 17.8186C28.8984 18.1072 29.1316 18.3404 29.4202 18.3404C29.7088 18.3404 29.9419 18.1072 29.9419 17.8186C29.9419 17.53 29.7088 17.2969 29.4202 17.2969C29.1316 17.2969 28.8984 17.5309 28.8984 17.8186Z" fill="#4D4D4D"/>
<path d="M25.8307 22.1829C25.7128 22.1829 25.6172 22.0873 25.6172 21.9694C25.6172 21.8514 25.7128 21.7559 25.8307 21.7559H27.823C27.941 21.7559 28.0366 21.8514 28.0366 21.9694C28.0366 22.0873 27.941 22.1829 27.823 22.1829H25.8307Z" fill="#999999"/>
<path d="M25.8307 23.0013C25.7128 23.0013 25.6172 22.9057 25.6172 22.7878C25.6172 22.6698 25.7128 22.5742 25.8307 22.5742H27.823C27.941 22.5742 28.0366 22.6698 28.0366 22.7878C28.0366 22.9057 27.941 23.0013 27.823 23.0013H25.8307Z" fill="#999999"/>
<path d="M25.8297 23.8177C25.7118 23.8177 25.6162 23.7221 25.6162 23.6042C25.6162 23.4862 25.7118 23.3906 25.8297 23.3906H27.8221C27.94 23.3906 28.0356 23.4862 28.0356 23.6042C28.0356 23.7221 27.94 23.8177 27.8221 23.8177H25.8297Z" fill="#999999"/>
<path d="M26.8262 1.61545C25.2278 1.61545 23.6287 2.05412 22.2215 2.93234C21.8132 3.18517 21.2754 3.15301 20.9949 2.80548C20.7153 2.45973 20.8689 1.87363 21.3683 1.56272C23.0363 0.521899 24.9312 0.00195312 26.8262 0.00195312C28.7211 0.00195312 30.616 0.521899 32.284 1.56272C32.7834 1.87363 32.9371 2.45973 32.6575 2.80548C32.3778 3.15301 31.84 3.18517 31.4308 2.93234C30.0237 2.05501 28.4254 1.61545 26.8262 1.61545Z" fill="#3C3C3B"/>
<path d="M51.271 28.0021C51.2691 26.9852 51.3042 22.1231 52.1085 20.5163C53.0081 18.7191 51.4835 17.2515 49.7295 18.8407C48.1629 20.26 46.8069 22.3763 46.9624 24.2301C48.586 25.1604 50.0611 26.5853 51.271 28.0021Z" fill="#FBD099"/>
<path d="M38.5784 29.9006L38.5778 29.9C38.4048 29.6398 38.2556 29.4098 38.1308 29.2136C37.4256 28.4933 36.3022 28.492 35.7612 28.9528C35.0873 29.5251 35.4603 31.2741 35.7574 31.8866C36.4551 33.1906 38.3239 36.4679 40.8089 39.1767C42.4031 40.1923 43.8637 40.465 44.9627 39.7967C45.3495 39.561 45.6128 38.7015 45.6479 38.0239C42.5542 35.5533 39.8999 31.8904 38.5784 29.9006Z" fill="#FBD099"/>
<path d="M42.3164 27.1437C41.6638 26.1989 40.1681 25.0875 38.9162 26.0548C37.6881 27.0014 38.4736 28.3987 38.9419 29.3547C40.1838 31.2347 42.8612 34.9879 45.9392 37.4855C48.5791 38.3148 49.9187 37.5883 50.3726 35.7571C46.2264 32.817 42.9414 28.079 42.3164 27.1437Z" fill="#FBD099"/>
<path d="M35.4637 32.6126L35.4624 32.6101C35.4349 32.5594 35.4066 32.5086 35.3809 32.4616C35.243 32.2365 34.9214 31.8547 34.3459 32.0014C34.0883 32.0672 33.6702 32.3274 33.5116 32.5957C33.2852 32.9813 33.2075 33.5404 33.2031 34.1153C33.2069 34.1987 33.2106 34.2827 33.2188 34.3679C33.4896 37.0592 35.6499 40.04 37.3149 40.6481C39.3391 41.3872 40.2149 40.7139 40.3516 39.5768C38.0559 37.0792 36.3031 34.1429 35.4637 32.6126Z" fill="#FBD099"/>
<path d="M53.6114 32.3461C53.592 32.2853 53.5669 32.2295 53.5469 32.1693C52.9256 31.1713 51.7358 29.3928 50.2062 27.7265C49.2921 26.7304 48.2565 25.7769 47.1494 25.0547C46.0963 24.3683 44.9785 23.8912 43.8382 23.7915C43.2953 23.7445 42.9286 23.8586 42.7073 24.1407C42.2258 24.7544 42.5205 26.074 42.6753 26.5304L42.7236 26.6727C42.8715 26.8984 46.4078 32.2395 50.8073 35.3326C53.4578 36.0773 54.081 33.8299 53.6114 32.3461Z" fill="#FBD099"/>
<path d="M41.8137 27.4736C41.3091 26.7796 40.4245 25.9239 39.4948 26.6241C38.5645 27.3238 39.3137 28.523 39.6829 29.0226C40.0528 29.5223 42.2983 28.1406 41.8137 27.4736Z" fill="#F9C38A"/>
<path d="M45.7497 25.2123C45.141 24.6418 44.1398 23.9867 43.38 24.8249C42.6196 25.663 43.5543 26.6711 43.9988 27.0811C44.4426 27.491 46.3346 25.7608 45.7497 25.2123Z" fill="#F9C38A"/>
<path d="M38.0735 30.2708C37.666 29.6822 36.9444 28.9525 36.1558 29.5186C35.3672 30.0846 35.969 31.0983 36.2674 31.5215C36.5671 31.9453 38.4653 30.8357 38.0735 30.2708Z" fill="#F9C38A"/>
<path d="M35.6353 33.7678C35.2968 33.1729 35.0153 32.2513 34.216 32.724C33.4167 33.1961 33.7665 34.2386 34.0154 34.6674C34.2643 35.0968 35.9606 34.3395 35.6353 33.7678Z" fill="#F9C38A"/>
<path d="M51.271 28.0021C51.2691 26.9852 51.3042 22.1231 52.1085 20.5163C53.0081 18.7191 51.4835 17.2515 49.7295 18.8407C48.1629 20.26 46.8069 22.3763 46.9624 24.2301C48.586 25.1604 50.0611 26.5853 51.271 28.0021Z" fill="#FBD099"/>
<path d="M38.5784 29.9006L38.5778 29.9C38.4048 29.6398 38.2556 29.4098 38.1308 29.2136C37.4256 28.4933 36.3022 28.492 35.7612 28.9528C35.0873 29.5251 35.4603 31.2741 35.7574 31.8866C36.4551 33.1906 38.3239 36.4679 40.8089 39.1767C42.4031 40.1923 43.8637 40.465 44.9627 39.7967C45.3495 39.561 45.6128 38.7015 45.6479 38.0239C42.5542 35.5533 39.8999 31.8904 38.5784 29.9006Z" fill="#FBD099"/>
<path d="M42.3164 27.1437C41.6638 26.1989 40.1681 25.0875 38.9162 26.0548C37.6881 27.0014 38.4736 28.3987 38.9419 29.3547C40.1838 31.2347 42.8612 34.9879 45.9392 37.4855C48.5791 38.3148 49.9187 37.5883 50.3726 35.7571C46.2264 32.817 42.9414 28.079 42.3164 27.1437Z" fill="#FBD099"/>
<path d="M35.4637 32.6126L35.4624 32.6101C35.4349 32.5594 35.4066 32.5086 35.3809 32.4616C35.243 32.2365 34.9214 31.8547 34.3459 32.0014C34.0883 32.0672 33.6702 32.3274 33.5116 32.5957C33.2852 32.9813 33.2075 33.5404 33.2031 34.1153C33.2069 34.1987 33.2106 34.2827 33.2188 34.3679C33.4896 37.0592 35.6499 40.04 37.3149 40.6481C39.3391 41.3872 40.2149 40.7139 40.3516 39.5768C38.0559 37.0792 36.3031 34.1429 35.4637 32.6126Z" fill="#FBD099"/>
<path d="M53.6114 32.3461C53.592 32.2853 53.5669 32.2295 53.5469 32.1693C52.9256 31.1713 51.7358 29.3928 50.2062 27.7265C49.2921 26.7304 48.2565 25.7769 47.1494 25.0547C46.0963 24.3683 44.9785 23.8912 43.8382 23.7915C43.2953 23.7445 42.9286 23.8586 42.7073 24.1407C42.2258 24.7544 42.5205 26.074 42.6753 26.5304L42.7236 26.6727C42.8715 26.8984 46.4078 32.2395 50.8073 35.3326C53.4578 36.0773 54.081 33.8299 53.6114 32.3461Z" fill="#FBD099"/>
<path d="M41.8137 27.4736C41.3091 26.7796 40.4245 25.9239 39.4948 26.6241C38.5645 27.3238 39.3137 28.523 39.6829 29.0226C40.0528 29.5223 42.2983 28.1406 41.8137 27.4736Z" fill="#F9C38A"/>
<path d="M45.7497 25.2123C45.141 24.6418 44.1398 23.9867 43.38 24.8249C42.6196 25.663 43.5543 26.6711 43.9988 27.0811C44.4426 27.491 46.3346 25.7608 45.7497 25.2123Z" fill="#F9C38A"/>
<path d="M38.0735 30.2708C37.666 29.6822 36.9444 28.9525 36.1558 29.5186C35.3672 30.0846 35.969 31.0983 36.2674 31.5215C36.5671 31.9453 38.4653 30.8357 38.0735 30.2708Z" fill="#F9C38A"/>
<path d="M35.6353 33.7678C35.2968 33.1729 35.0153 32.2513 34.216 32.724C33.4167 33.1961 33.7665 34.2386 34.0154 34.6674C34.2643 35.0968 35.9606 34.3395 35.6353 33.7678Z" fill="#F9C38A"/>
<path d="M8.00822 24.1261C8.08156 22.3094 6.75444 20.2664 5.22858 18.8853C3.47454 17.2968 1.94995 18.7637 2.84953 20.561C3.59115 22.0417 3.67828 26.2939 3.68643 27.7464C4.91451 26.3516 6.39209 24.9868 8.00822 24.1261Z" fill="#FBD099"/>
<path d="M18.9362 28.9977C18.3952 28.5369 17.2712 28.5382 16.5666 29.2585C16.4412 29.4547 16.2926 29.6848 16.1202 29.9443L16.1196 29.9456V29.9449C14.7981 31.9347 12.1439 35.5976 9.05078 38.0682C9.08589 38.7458 9.34918 39.6053 9.73597 39.841C10.8343 40.5093 12.2956 40.2366 13.8897 39.221C16.3747 36.5122 18.2435 33.2348 18.9412 31.9309C19.2371 31.3184 19.6095 29.57 18.9362 28.9977Z" fill="#FBD099"/>
<path d="M15.753 29.3993C16.2213 28.4433 17.0068 27.046 15.7787 26.0994C14.5268 25.1327 13.031 26.2436 12.3784 27.1889C11.7541 28.1236 8.46852 32.8617 4.32227 35.8018C4.77676 37.6329 6.1158 38.3595 8.75564 37.5301C11.8337 35.0326 14.5111 31.28 15.753 29.3993Z" fill="#FBD099"/>
<path d="M21.1841 32.6386C21.0261 32.3697 20.608 32.1102 20.3503 32.0444C19.7755 31.8977 19.4533 32.2801 19.3153 32.5045C19.2896 32.5521 19.2614 32.6029 19.2338 32.6531L19.2326 32.6556C18.3938 34.1858 16.641 37.1222 14.3447 39.6191C14.4814 40.7563 15.3572 41.4302 17.3814 40.6904C19.0464 40.0824 21.2067 37.1015 21.4775 34.4102C21.4863 34.3244 21.4894 34.241 21.4932 34.157C21.4881 33.5834 21.4104 33.0248 21.1841 32.6386Z" fill="#FBD099"/>
<path d="M11.9887 24.1856C11.7668 23.9035 11.4007 23.7894 10.8578 23.8364C9.8397 23.9255 8.83981 24.3154 7.88756 24.8859C6.56921 25.6764 5.34426 26.8148 4.29046 27.9921C2.85739 29.5932 1.74278 31.2601 1.14911 32.2142C1.12905 32.2744 1.10398 32.3302 1.08454 32.391C0.615001 33.8755 1.23813 36.1229 3.88925 35.3775C8.2894 32.2838 11.8263 26.9414 11.973 26.7176L12.0213 26.5753C12.1755 26.1183 12.4701 24.7987 11.9887 24.1856Z" fill="#FBD099"/>
<path d="M12.8808 27.5185C13.3855 26.8245 14.27 25.9688 15.1997 26.6691C16.13 27.3687 15.3815 28.5679 15.0116 29.0676C14.6417 29.5672 12.3956 28.1855 12.8808 27.5185Z" fill="#F9C38A"/>
<path d="M8.94513 25.2572C9.55384 24.6867 10.555 24.0316 11.3154 24.8698C12.0758 25.7079 11.1411 26.716 10.6967 27.126C10.2528 27.536 8.36024 25.8057 8.94513 25.2572Z" fill="#F9C38A"/>
<path d="M16.6214 30.3155C17.0288 29.7268 17.7504 28.9978 18.539 29.5632C19.3277 30.1293 18.7258 31.143 18.4274 31.5661C18.1284 31.9899 16.2296 30.8803 16.6214 30.3155Z" fill="#F9C38A"/>
<path d="M19.0589 33.815C19.3968 33.2201 19.6789 32.2985 20.4782 32.7706C21.2774 33.2426 20.9276 34.2851 20.6788 34.7146C20.4299 35.1434 18.7335 34.3861 19.0589 33.815Z" fill="#F9C38A"/>
<path d="M8.00822 24.1261C8.08156 22.3094 6.75444 20.2664 5.22858 18.8853C3.47454 17.2968 1.94995 18.7637 2.84953 20.561C3.59115 22.0417 3.67828 26.2939 3.68643 27.7464C4.91451 26.3516 6.39209 24.9868 8.00822 24.1261Z" fill="#FBD099"/>
<path d="M18.9362 28.9977C18.3952 28.5369 17.2712 28.5382 16.5666 29.2585C16.4412 29.4547 16.2926 29.6848 16.1202 29.9443L16.1196 29.9456V29.9449C14.7981 31.9347 12.1439 35.5976 9.05078 38.0682C9.08589 38.7458 9.34918 39.6053 9.73597 39.841C10.8343 40.5093 12.2956 40.2366 13.8897 39.221C16.3747 36.5122 18.2435 33.2348 18.9412 31.9309C19.2371 31.3184 19.6095 29.57 18.9362 28.9977Z" fill="#FBD099"/>
<path d="M15.753 29.3993C16.2213 28.4433 17.0068 27.046 15.7787 26.0994C14.5268 25.1327 13.031 26.2436 12.3784 27.1889C11.7541 28.1236 8.46852 32.8617 4.32227 35.8018C4.77676 37.6329 6.1158 38.3595 8.75564 37.5301C11.8337 35.0326 14.5111 31.28 15.753 29.3993Z" fill="#FBD099"/>
<path d="M21.1841 32.6386C21.0261 32.3697 20.608 32.1102 20.3503 32.0444C19.7755 31.8977 19.4533 32.2801 19.3153 32.5045C19.2896 32.5521 19.2614 32.6029 19.2338 32.6531L19.2326 32.6556C18.3938 34.1858 16.641 37.1222 14.3447 39.6191C14.4814 40.7563 15.3572 41.4302 17.3814 40.6904C19.0464 40.0824 21.2067 37.1015 21.4775 34.4102C21.4863 34.3244 21.4894 34.241 21.4932 34.157C21.4881 33.5834 21.4104 33.0248 21.1841 32.6386Z" fill="#FBD099"/>
<path d="M11.9887 24.1856C11.7668 23.9035 11.4007 23.7894 10.8578 23.8364C9.8397 23.9255 8.83981 24.3154 7.88756 24.8859C6.56921 25.6764 5.34426 26.8148 4.29046 27.9921C2.85739 29.5932 1.74278 31.2601 1.14911 32.2142C1.12905 32.2744 1.10398 32.3302 1.08454 32.391C0.615001 33.8755 1.23813 36.1229 3.88925 35.3775C8.2894 32.2838 11.8263 26.9414 11.973 26.7176L12.0213 26.5753C12.1755 26.1183 12.4701 24.7987 11.9887 24.1856Z" fill="#FBD099"/>
<path d="M12.8808 27.5185C13.3855 26.8245 14.27 25.9688 15.1997 26.6691C16.13 27.3687 15.3815 28.5679 15.0116 29.0676C14.6417 29.5672 12.3956 28.1855 12.8808 27.5185Z" fill="#F9C38A"/>
<path d="M8.94513 25.2572C9.55384 24.6867 10.555 24.0316 11.3154 24.8698C12.0758 25.7079 11.1411 26.716 10.6967 27.126C10.2528 27.536 8.36024 25.8057 8.94513 25.2572Z" fill="#F9C38A"/>
<path d="M16.6214 30.3155C17.0288 29.7268 17.7504 28.9978 18.539 29.5632C19.3277 30.1293 18.7258 31.143 18.4274 31.5661C18.1284 31.9899 16.2296 30.8803 16.6214 30.3155Z" fill="#F9C38A"/>
<path d="M19.0589 33.815C19.3968 33.2201 19.6789 32.2985 20.4782 32.7706C21.2774 33.2426 20.9276 34.2851 20.6788 34.7146C20.4299 35.1434 18.7335 34.3861 19.0589 33.815Z" fill="#F9C38A"/>
</svg>
