<svg width="189" height="48" viewBox="0 0 189 48" fill="none" xmlns="http://www.w3.org/2000/svg">
<circle cx="187.125" cy="45.6232" r="1.87487" transform="rotate(180 187.125 45.6232)" fill="#F37435"/>
<circle cx="180.251" cy="45.6232" r="1.87487" transform="rotate(180 180.251 45.6232)" fill="#F37435"/>
<circle cx="173.376" cy="45.6232" r="1.87487" transform="rotate(180 173.376 45.6232)" fill="#F37435"/>
<circle cx="166.502" cy="45.6232" r="1.87487" transform="rotate(180 166.502 45.6232)" fill="#F37435"/>
<circle cx="159.627" cy="45.6232" r="1.87487" transform="rotate(180 159.627 45.6232)" fill="#F37435"/>
<circle cx="152.753" cy="45.6232" r="1.87487" transform="rotate(180 152.753 45.6232)" fill="#F37435"/>
<circle cx="145.878" cy="45.6232" r="1.87487" transform="rotate(180 145.878 45.6232)" fill="#F37435"/>
<circle cx="187.125" cy="39.3732" r="1.87487" transform="rotate(180 187.125 39.3732)" fill="#F37435"/>
<circle cx="180.251" cy="39.3732" r="1.87487" transform="rotate(180 180.251 39.3732)" fill="#F37435"/>
<circle cx="173.376" cy="39.3732" r="1.87487" transform="rotate(180 173.376 39.3732)" fill="#F37435"/>
<circle cx="166.502" cy="39.3732" r="1.87487" transform="rotate(180 166.502 39.3732)" fill="#F37435"/>
<circle cx="159.627" cy="39.3732" r="1.87487" transform="rotate(180 159.627 39.3732)" fill="#F37435"/>
<circle cx="152.753" cy="39.3732" r="1.87487" transform="rotate(180 152.753 39.3732)" fill="#F37435"/>
<circle cx="145.878" cy="39.3732" r="1.87487" transform="rotate(180 145.878 39.3732)" fill="#F37435"/>
<circle cx="187.125" cy="33.1232" r="1.87487" transform="rotate(180 187.125 33.1232)" fill="#F37435"/>
<circle cx="180.251" cy="33.1232" r="1.87487" transform="rotate(180 180.251 33.1232)" fill="#F37435"/>
<circle cx="173.376" cy="33.1232" r="1.87487" transform="rotate(180 173.376 33.1232)" fill="#F37435"/>
<circle cx="166.502" cy="33.1232" r="1.87487" transform="rotate(180 166.502 33.1232)" fill="#F37435"/>
<circle cx="159.627" cy="33.1232" r="1.87487" transform="rotate(180 159.627 33.1232)" fill="#F37435"/>
<circle cx="152.753" cy="33.1232" r="1.87487" transform="rotate(180 152.753 33.1232)" fill="#F37435"/>
<circle cx="145.878" cy="33.1232" r="1.87487" transform="rotate(180 145.878 33.1232)" fill="#F37435"/>
<circle cx="187.125" cy="26.8751" r="1.87487" transform="rotate(180 187.125 26.8751)" fill="#F37435"/>
<circle cx="180.251" cy="26.8751" r="1.87487" transform="rotate(180 180.251 26.8751)" fill="#F37435"/>
<circle cx="173.376" cy="26.8751" r="1.87487" transform="rotate(180 173.376 26.8751)" fill="#F37435"/>
<circle cx="166.502" cy="26.8751" r="1.87487" transform="rotate(180 166.502 26.8751)" fill="#F37435"/>
<circle cx="159.627" cy="26.8751" r="1.87487" transform="rotate(180 159.627 26.8751)" fill="#F37435"/>
<circle cx="152.753" cy="26.8751" r="1.87487" transform="rotate(180 152.753 26.8751)" fill="#F37435"/>
<circle cx="145.878" cy="26.8751" r="1.87487" transform="rotate(180 145.878 26.8751)" fill="#F37435"/>
<circle cx="187.125" cy="20.6251" r="1.87487" transform="rotate(180 187.125 20.6251)" fill="#F37435"/>
<circle cx="180.251" cy="20.6251" r="1.87487" transform="rotate(180 180.251 20.6251)" fill="#F37435"/>
<circle cx="173.376" cy="20.6251" r="1.87487" transform="rotate(180 173.376 20.6251)" fill="#F37435"/>
<circle cx="166.502" cy="20.6251" r="1.87487" transform="rotate(180 166.502 20.6251)" fill="#F37435"/>
<circle cx="159.627" cy="20.6251" r="1.87487" transform="rotate(180 159.627 20.6251)" fill="#F37435"/>
<circle cx="152.753" cy="20.6251" r="1.87487" transform="rotate(180 152.753 20.6251)" fill="#F37435"/>
<circle cx="145.878" cy="20.6251" r="1.87487" transform="rotate(180 145.878 20.6251)" fill="#F37435"/>
<circle cx="187.125" cy="14.3751" r="1.87487" transform="rotate(180 187.125 14.3751)" fill="#F37435"/>
<circle cx="180.251" cy="14.3751" r="1.87487" transform="rotate(180 180.251 14.3751)" fill="#F37435"/>
<circle cx="173.376" cy="14.3751" r="1.87487" transform="rotate(180 173.376 14.3751)" fill="#F37435"/>
<circle cx="166.502" cy="14.3751" r="1.87487" transform="rotate(180 166.502 14.3751)" fill="#F37435"/>
<circle cx="159.627" cy="14.3751" r="1.87487" transform="rotate(180 159.627 14.3751)" fill="#F37435"/>
<circle cx="152.753" cy="14.3751" r="1.87487" transform="rotate(180 152.753 14.3751)" fill="#F37435"/>
<circle cx="145.878" cy="14.3751" r="1.87487" transform="rotate(180 145.878 14.3751)" fill="#F37435"/>
<circle cx="187.125" cy="8.12513" r="1.87487" transform="rotate(180 187.125 8.12513)" fill="#F37435"/>
<circle cx="180.251" cy="8.12513" r="1.87487" transform="rotate(180 180.251 8.12513)" fill="#F37435"/>
<circle cx="173.376" cy="8.12513" r="1.87487" transform="rotate(180 173.376 8.12513)" fill="#F37435"/>
<circle cx="166.502" cy="8.12513" r="1.87487" transform="rotate(180 166.502 8.12513)" fill="#F37435"/>
<circle cx="159.627" cy="8.12513" r="1.87487" transform="rotate(180 159.627 8.12513)" fill="#F37435"/>
<circle cx="152.753" cy="8.12513" r="1.87487" transform="rotate(180 152.753 8.12513)" fill="#F37435"/>
<circle cx="145.878" cy="8.12513" r="1.87487" transform="rotate(180 145.878 8.12513)" fill="#F37435"/>
<circle cx="187.125" cy="1.87513" r="1.87487" transform="rotate(180 187.125 1.87513)" fill="#F37435"/>
<circle cx="180.251" cy="1.87513" r="1.87487" transform="rotate(180 180.251 1.87513)" fill="#F37435"/>
<circle cx="173.376" cy="1.87513" r="1.87487" transform="rotate(180 173.376 1.87513)" fill="#F37435"/>
<circle cx="166.502" cy="1.87513" r="1.87487" transform="rotate(180 166.502 1.87513)" fill="#F37435"/>
<circle cx="159.627" cy="1.87513" r="1.87487" transform="rotate(180 159.627 1.87513)" fill="#F37435"/>
<circle cx="152.753" cy="1.87513" r="1.87487" transform="rotate(180 152.753 1.87513)" fill="#F37435"/>
<circle cx="145.878" cy="1.87513" r="1.87487" transform="rotate(180 145.878 1.87513)" fill="#F37435"/>
<circle cx="138.986" cy="45.6232" r="1.87487" transform="rotate(180 138.986 45.6232)" fill="#F37435"/>
<circle cx="132.112" cy="45.6232" r="1.87487" transform="rotate(180 132.112 45.6232)" fill="#F37435"/>
<circle cx="125.237" cy="45.6232" r="1.87487" transform="rotate(180 125.237 45.6232)" fill="#F37435"/>
<circle cx="118.363" cy="45.6232" r="1.87487" transform="rotate(180 118.363 45.6232)" fill="#F37435"/>
<circle cx="111.488" cy="45.6232" r="1.87487" transform="rotate(180 111.488 45.6232)" fill="#F37435"/>
<circle cx="104.614" cy="45.6232" r="1.87487" transform="rotate(180 104.614 45.6232)" fill="#F37435"/>
<circle cx="97.7394" cy="45.6232" r="1.87487" transform="rotate(180 97.7394 45.6232)" fill="#F37435"/>
<circle cx="138.986" cy="39.3732" r="1.87487" transform="rotate(180 138.986 39.3732)" fill="#F37435"/>
<circle cx="132.112" cy="39.3732" r="1.87487" transform="rotate(180 132.112 39.3732)" fill="#F37435"/>
<circle cx="125.237" cy="39.3732" r="1.87487" transform="rotate(180 125.237 39.3732)" fill="#F37435"/>
<circle cx="118.363" cy="39.3732" r="1.87487" transform="rotate(180 118.363 39.3732)" fill="#F37435"/>
<circle cx="111.488" cy="39.3732" r="1.87487" transform="rotate(180 111.488 39.3732)" fill="#F37435"/>
<circle cx="104.614" cy="39.3732" r="1.87487" transform="rotate(180 104.614 39.3732)" fill="#F37435"/>
<circle cx="97.7394" cy="39.3732" r="1.87487" transform="rotate(180 97.7394 39.3732)" fill="#F37435"/>
<circle cx="138.986" cy="33.1232" r="1.87487" transform="rotate(180 138.986 33.1232)" fill="#F37435"/>
<circle cx="132.112" cy="33.1232" r="1.87487" transform="rotate(180 132.112 33.1232)" fill="#F37435"/>
<circle cx="125.237" cy="33.1232" r="1.87487" transform="rotate(180 125.237 33.1232)" fill="#F37435"/>
<circle cx="118.363" cy="33.1232" r="1.87487" transform="rotate(180 118.363 33.1232)" fill="#F37435"/>
<circle cx="111.488" cy="33.1232" r="1.87487" transform="rotate(180 111.488 33.1232)" fill="#F37435"/>
<circle cx="104.614" cy="33.1232" r="1.87487" transform="rotate(180 104.614 33.1232)" fill="#F37435"/>
<circle cx="97.7394" cy="33.1232" r="1.87487" transform="rotate(180 97.7394 33.1232)" fill="#F37435"/>
<circle cx="138.986" cy="26.8751" r="1.87487" transform="rotate(180 138.986 26.8751)" fill="#F37435"/>
<circle cx="132.112" cy="26.8751" r="1.87487" transform="rotate(180 132.112 26.8751)" fill="#F37435"/>
<circle cx="125.237" cy="26.8751" r="1.87487" transform="rotate(180 125.237 26.8751)" fill="#F37435"/>
<circle cx="118.363" cy="26.8751" r="1.87487" transform="rotate(180 118.363 26.8751)" fill="#F37435"/>
<circle cx="111.488" cy="26.8751" r="1.87487" transform="rotate(180 111.488 26.8751)" fill="#F37435"/>
<circle cx="104.614" cy="26.8751" r="1.87487" transform="rotate(180 104.614 26.8751)" fill="#F37435"/>
<circle cx="97.7394" cy="26.8751" r="1.87487" transform="rotate(180 97.7394 26.8751)" fill="#F37435"/>
<circle cx="138.986" cy="20.6251" r="1.87487" transform="rotate(180 138.986 20.6251)" fill="#F37435"/>
<circle cx="132.112" cy="20.6251" r="1.87487" transform="rotate(180 132.112 20.6251)" fill="#F37435"/>
<circle cx="125.237" cy="20.6251" r="1.87487" transform="rotate(180 125.237 20.6251)" fill="#F37435"/>
<circle cx="118.363" cy="20.6251" r="1.87487" transform="rotate(180 118.363 20.6251)" fill="#F37435"/>
<circle cx="111.488" cy="20.6251" r="1.87487" transform="rotate(180 111.488 20.6251)" fill="#F37435"/>
<circle cx="104.614" cy="20.6251" r="1.87487" transform="rotate(180 104.614 20.6251)" fill="#F37435"/>
<circle cx="97.7394" cy="20.6251" r="1.87487" transform="rotate(180 97.7394 20.6251)" fill="#F37435"/>
<circle cx="138.986" cy="14.3751" r="1.87487" transform="rotate(180 138.986 14.3751)" fill="#F37435"/>
<circle cx="132.112" cy="14.3751" r="1.87487" transform="rotate(180 132.112 14.3751)" fill="#F37435"/>
<circle cx="125.237" cy="14.3751" r="1.87487" transform="rotate(180 125.237 14.3751)" fill="#F37435"/>
<circle cx="118.363" cy="14.3751" r="1.87487" transform="rotate(180 118.363 14.3751)" fill="#F37435"/>
<circle cx="111.488" cy="14.3751" r="1.87487" transform="rotate(180 111.488 14.3751)" fill="#F37435"/>
<circle cx="104.614" cy="14.3751" r="1.87487" transform="rotate(180 104.614 14.3751)" fill="#F37435"/>
<circle cx="97.7394" cy="14.3751" r="1.87487" transform="rotate(180 97.7394 14.3751)" fill="#F37435"/>
<circle cx="138.986" cy="8.12513" r="1.87487" transform="rotate(180 138.986 8.12513)" fill="#F37435"/>
<circle cx="132.112" cy="8.12513" r="1.87487" transform="rotate(180 132.112 8.12513)" fill="#F37435"/>
<circle cx="125.237" cy="8.12513" r="1.87487" transform="rotate(180 125.237 8.12513)" fill="#F37435"/>
<circle cx="118.363" cy="8.12513" r="1.87487" transform="rotate(180 118.363 8.12513)" fill="#F37435"/>
<circle cx="111.488" cy="8.12513" r="1.87487" transform="rotate(180 111.488 8.12513)" fill="#F37435"/>
<circle cx="104.614" cy="8.12513" r="1.87487" transform="rotate(180 104.614 8.12513)" fill="#F37435"/>
<circle cx="97.7394" cy="8.12513" r="1.87487" transform="rotate(180 97.7394 8.12513)" fill="#F37435"/>
<circle cx="138.986" cy="1.87513" r="1.87487" transform="rotate(180 138.986 1.87513)" fill="#F37435"/>
<circle cx="132.112" cy="1.87513" r="1.87487" transform="rotate(180 132.112 1.87513)" fill="#F37435"/>
<circle cx="125.237" cy="1.87513" r="1.87487" transform="rotate(180 125.237 1.87513)" fill="#F37435"/>
<circle cx="118.363" cy="1.87513" r="1.87487" transform="rotate(180 118.363 1.87513)" fill="#F37435"/>
<circle cx="111.488" cy="1.87513" r="1.87487" transform="rotate(180 111.488 1.87513)" fill="#F37435"/>
<circle cx="104.614" cy="1.87513" r="1.87487" transform="rotate(180 104.614 1.87513)" fill="#F37435"/>
<circle cx="97.7394" cy="1.87513" r="1.87487" transform="rotate(180 97.7394 1.87513)" fill="#F37435"/>
<circle cx="91.2609" cy="45.6232" r="1.87487" transform="rotate(180 91.2609 45.6232)" fill="#F37435"/>
<circle cx="84.3864" cy="45.6232" r="1.87487" transform="rotate(180 84.3864 45.6232)" fill="#F37435"/>
<circle cx="77.5118" cy="45.6232" r="1.87487" transform="rotate(180 77.5118 45.6232)" fill="#F37435"/>
<circle cx="70.6373" cy="45.6232" r="1.87487" transform="rotate(180 70.6373 45.6232)" fill="#F37435"/>
<circle cx="63.7628" cy="45.6232" r="1.87487" transform="rotate(180 63.7628 45.6232)" fill="#F37435"/>
<circle cx="56.8883" cy="45.6232" r="1.87487" transform="rotate(180 56.8883 45.6232)" fill="#F37435"/>
<circle cx="50.0138" cy="45.6232" r="1.87487" transform="rotate(180 50.0138 45.6232)" fill="#F37435"/>
<circle cx="91.2609" cy="39.3732" r="1.87487" transform="rotate(180 91.2609 39.3732)" fill="#F37435"/>
<circle cx="84.3864" cy="39.3732" r="1.87487" transform="rotate(180 84.3864 39.3732)" fill="#F37435"/>
<circle cx="77.5118" cy="39.3732" r="1.87487" transform="rotate(180 77.5118 39.3732)" fill="#F37435"/>
<circle cx="70.6373" cy="39.3732" r="1.87487" transform="rotate(180 70.6373 39.3732)" fill="#F37435"/>
<circle cx="63.7628" cy="39.3732" r="1.87487" transform="rotate(180 63.7628 39.3732)" fill="#F37435"/>
<circle cx="56.8883" cy="39.3732" r="1.87487" transform="rotate(180 56.8883 39.3732)" fill="#F37435"/>
<circle cx="50.0138" cy="39.3732" r="1.87487" transform="rotate(180 50.0138 39.3732)" fill="#F37435"/>
<circle cx="91.2609" cy="33.1232" r="1.87487" transform="rotate(180 91.2609 33.1232)" fill="#F37435"/>
<circle cx="84.3864" cy="33.1232" r="1.87487" transform="rotate(180 84.3864 33.1232)" fill="#F37435"/>
<circle cx="77.5118" cy="33.1232" r="1.87487" transform="rotate(180 77.5118 33.1232)" fill="#F37435"/>
<circle cx="70.6373" cy="33.1232" r="1.87487" transform="rotate(180 70.6373 33.1232)" fill="#F37435"/>
<circle cx="63.7628" cy="33.1232" r="1.87487" transform="rotate(180 63.7628 33.1232)" fill="#F37435"/>
<circle cx="56.8883" cy="33.1232" r="1.87487" transform="rotate(180 56.8883 33.1232)" fill="#F37435"/>
<circle cx="50.0138" cy="33.1232" r="1.87487" transform="rotate(180 50.0138 33.1232)" fill="#F37435"/>
<circle cx="91.2609" cy="26.8751" r="1.87487" transform="rotate(180 91.2609 26.8751)" fill="#F37435"/>
<circle cx="84.3864" cy="26.8751" r="1.87487" transform="rotate(180 84.3864 26.8751)" fill="#F37435"/>
<circle cx="77.5118" cy="26.8751" r="1.87487" transform="rotate(180 77.5118 26.8751)" fill="#F37435"/>
<circle cx="70.6373" cy="26.8751" r="1.87487" transform="rotate(180 70.6373 26.8751)" fill="#F37435"/>
<circle cx="63.7628" cy="26.8751" r="1.87487" transform="rotate(180 63.7628 26.8751)" fill="#F37435"/>
<circle cx="56.8883" cy="26.8751" r="1.87487" transform="rotate(180 56.8883 26.8751)" fill="#F37435"/>
<circle cx="50.0138" cy="26.8751" r="1.87487" transform="rotate(180 50.0138 26.8751)" fill="#F37435"/>
<circle cx="91.2609" cy="20.6251" r="1.87487" transform="rotate(180 91.2609 20.6251)" fill="#F37435"/>
<circle cx="84.3864" cy="20.6251" r="1.87487" transform="rotate(180 84.3864 20.6251)" fill="#F37435"/>
<circle cx="77.5118" cy="20.6251" r="1.87487" transform="rotate(180 77.5118 20.6251)" fill="#F37435"/>
<circle cx="70.6373" cy="20.6251" r="1.87487" transform="rotate(180 70.6373 20.6251)" fill="#F37435"/>
<circle cx="63.7628" cy="20.6251" r="1.87487" transform="rotate(180 63.7628 20.6251)" fill="#F37435"/>
<circle cx="56.8883" cy="20.6251" r="1.87487" transform="rotate(180 56.8883 20.6251)" fill="#F37435"/>
<circle cx="50.0138" cy="20.6251" r="1.87487" transform="rotate(180 50.0138 20.6251)" fill="#F37435"/>
<circle cx="91.2609" cy="14.3751" r="1.87487" transform="rotate(180 91.2609 14.3751)" fill="#F37435"/>
<circle cx="84.3864" cy="14.3751" r="1.87487" transform="rotate(180 84.3864 14.3751)" fill="#F37435"/>
<circle cx="77.5118" cy="14.3751" r="1.87487" transform="rotate(180 77.5118 14.3751)" fill="#F37435"/>
<circle cx="70.6373" cy="14.3751" r="1.87487" transform="rotate(180 70.6373 14.3751)" fill="#F37435"/>
<circle cx="63.7628" cy="14.3751" r="1.87487" transform="rotate(180 63.7628 14.3751)" fill="#F37435"/>
<circle cx="56.8883" cy="14.3751" r="1.87487" transform="rotate(180 56.8883 14.3751)" fill="#F37435"/>
<circle cx="50.0138" cy="14.3751" r="1.87487" transform="rotate(180 50.0138 14.3751)" fill="#F37435"/>
<circle cx="91.2609" cy="8.12513" r="1.87487" transform="rotate(180 91.2609 8.12513)" fill="#F37435"/>
<circle cx="84.3864" cy="8.12513" r="1.87487" transform="rotate(180 84.3864 8.12513)" fill="#F37435"/>
<circle cx="77.5118" cy="8.12513" r="1.87487" transform="rotate(180 77.5118 8.12513)" fill="#F37435"/>
<circle cx="70.6373" cy="8.12513" r="1.87487" transform="rotate(180 70.6373 8.12513)" fill="#F37435"/>
<circle cx="63.7628" cy="8.12513" r="1.87487" transform="rotate(180 63.7628 8.12513)" fill="#F37435"/>
<circle cx="56.8883" cy="8.12513" r="1.87487" transform="rotate(180 56.8883 8.12513)" fill="#F37435"/>
<circle cx="50.0138" cy="8.12513" r="1.87487" transform="rotate(180 50.0138 8.12513)" fill="#F37435"/>
<circle cx="91.2609" cy="1.87513" r="1.87487" transform="rotate(180 91.2609 1.87513)" fill="#F37435"/>
<circle cx="84.3864" cy="1.87513" r="1.87487" transform="rotate(180 84.3864 1.87513)" fill="#F37435"/>
<circle cx="77.5118" cy="1.87513" r="1.87487" transform="rotate(180 77.5118 1.87513)" fill="#F37435"/>
<circle cx="70.6373" cy="1.87513" r="1.87487" transform="rotate(180 70.6373 1.87513)" fill="#F37435"/>
<circle cx="63.7628" cy="1.87513" r="1.87487" transform="rotate(180 63.7628 1.87513)" fill="#F37435"/>
<circle cx="56.8883" cy="1.87513" r="1.87487" transform="rotate(180 56.8883 1.87513)" fill="#F37435"/>
<circle cx="50.0138" cy="1.87513" r="1.87487" transform="rotate(180 50.0138 1.87513)" fill="#F37435"/>
<circle cx="43.1222" cy="45.6232" r="1.87487" transform="rotate(180 43.1222 45.6232)" fill="#F37435"/>
<circle cx="36.2477" cy="45.6232" r="1.87487" transform="rotate(180 36.2477 45.6232)" fill="#F37435"/>
<circle cx="29.3732" cy="45.6232" r="1.87487" transform="rotate(180 29.3732 45.6232)" fill="#F37435"/>
<circle cx="22.4987" cy="45.6232" r="1.87487" transform="rotate(180 22.4987 45.6232)" fill="#F37435"/>
<circle cx="15.6241" cy="45.6232" r="1.87487" transform="rotate(180 15.6241 45.6232)" fill="#F37435"/>
<circle cx="8.74964" cy="45.6232" r="1.87487" transform="rotate(180 8.74964 45.6232)" fill="#F37435"/>
<circle cx="1.87513" cy="45.6232" r="1.87487" transform="rotate(180 1.87513 45.6232)" fill="#F37435"/>
<circle cx="43.1222" cy="39.3732" r="1.87487" transform="rotate(180 43.1222 39.3732)" fill="#F37435"/>
<circle cx="36.2477" cy="39.3732" r="1.87487" transform="rotate(180 36.2477 39.3732)" fill="#F37435"/>
<circle cx="29.3732" cy="39.3732" r="1.87487" transform="rotate(180 29.3732 39.3732)" fill="#F37435"/>
<circle cx="22.4987" cy="39.3732" r="1.87487" transform="rotate(180 22.4987 39.3732)" fill="#F37435"/>
<circle cx="15.6241" cy="39.3732" r="1.87487" transform="rotate(180 15.6241 39.3732)" fill="#F37435"/>
<circle cx="8.74964" cy="39.3732" r="1.87487" transform="rotate(180 8.74964 39.3732)" fill="#F37435"/>
<circle cx="1.87513" cy="39.3732" r="1.87487" transform="rotate(180 1.87513 39.3732)" fill="#F37435"/>
<circle cx="43.1222" cy="33.1232" r="1.87487" transform="rotate(180 43.1222 33.1232)" fill="#F37435"/>
<circle cx="36.2477" cy="33.1232" r="1.87487" transform="rotate(180 36.2477 33.1232)" fill="#F37435"/>
<circle cx="29.3732" cy="33.1232" r="1.87487" transform="rotate(180 29.3732 33.1232)" fill="#F37435"/>
<circle cx="22.4987" cy="33.1232" r="1.87487" transform="rotate(180 22.4987 33.1232)" fill="#F37435"/>
<circle cx="15.6241" cy="33.1232" r="1.87487" transform="rotate(180 15.6241 33.1232)" fill="#F37435"/>
<circle cx="8.74964" cy="33.1232" r="1.87487" transform="rotate(180 8.74964 33.1232)" fill="#F37435"/>
<circle cx="1.87513" cy="33.1232" r="1.87487" transform="rotate(180 1.87513 33.1232)" fill="#F37435"/>
<circle cx="43.1222" cy="26.8751" r="1.87487" transform="rotate(180 43.1222 26.8751)" fill="#F37435"/>
<circle cx="36.2477" cy="26.8751" r="1.87487" transform="rotate(180 36.2477 26.8751)" fill="#F37435"/>
<circle cx="29.3732" cy="26.8751" r="1.87487" transform="rotate(180 29.3732 26.8751)" fill="#F37435"/>
<circle cx="22.4987" cy="26.8751" r="1.87487" transform="rotate(180 22.4987 26.8751)" fill="#F37435"/>
<circle cx="15.6241" cy="26.8751" r="1.87487" transform="rotate(180 15.6241 26.8751)" fill="#F37435"/>
<circle cx="8.74964" cy="26.8751" r="1.87487" transform="rotate(180 8.74964 26.8751)" fill="#F37435"/>
<circle cx="1.87513" cy="26.8751" r="1.87487" transform="rotate(180 1.87513 26.8751)" fill="#F37435"/>
<circle cx="43.1222" cy="20.6251" r="1.87487" transform="rotate(180 43.1222 20.6251)" fill="#F37435"/>
<circle cx="36.2477" cy="20.6251" r="1.87487" transform="rotate(180 36.2477 20.6251)" fill="#F37435"/>
<circle cx="29.3732" cy="20.6251" r="1.87487" transform="rotate(180 29.3732 20.6251)" fill="#F37435"/>
<circle cx="22.4987" cy="20.6251" r="1.87487" transform="rotate(180 22.4987 20.6251)" fill="#F37435"/>
<circle cx="15.6241" cy="20.6251" r="1.87487" transform="rotate(180 15.6241 20.6251)" fill="#F37435"/>
<circle cx="8.74964" cy="20.6251" r="1.87487" transform="rotate(180 8.74964 20.6251)" fill="#F37435"/>
<circle cx="1.87513" cy="20.6251" r="1.87487" transform="rotate(180 1.87513 20.6251)" fill="#F37435"/>
<circle cx="43.1222" cy="14.3751" r="1.87487" transform="rotate(180 43.1222 14.3751)" fill="#F37435"/>
<circle cx="36.2477" cy="14.3751" r="1.87487" transform="rotate(180 36.2477 14.3751)" fill="#F37435"/>
<circle cx="29.3732" cy="14.3751" r="1.87487" transform="rotate(180 29.3732 14.3751)" fill="#F37435"/>
<circle cx="22.4987" cy="14.3751" r="1.87487" transform="rotate(180 22.4987 14.3751)" fill="#F37435"/>
<circle cx="15.6241" cy="14.3751" r="1.87487" transform="rotate(180 15.6241 14.3751)" fill="#F37435"/>
<circle cx="8.74964" cy="14.3751" r="1.87487" transform="rotate(180 8.74964 14.3751)" fill="#F37435"/>
<circle cx="1.87513" cy="14.3751" r="1.87487" transform="rotate(180 1.87513 14.3751)" fill="#F37435"/>
<circle cx="43.1222" cy="8.12513" r="1.87487" transform="rotate(180 43.1222 8.12513)" fill="#F37435"/>
<circle cx="36.2477" cy="8.12513" r="1.87487" transform="rotate(180 36.2477 8.12513)" fill="#F37435"/>
<circle cx="29.3732" cy="8.12513" r="1.87487" transform="rotate(180 29.3732 8.12513)" fill="#F37435"/>
<circle cx="22.4987" cy="8.12513" r="1.87487" transform="rotate(180 22.4987 8.12513)" fill="#F37435"/>
<circle cx="15.6241" cy="8.12513" r="1.87487" transform="rotate(180 15.6241 8.12513)" fill="#F37435"/>
<circle cx="8.74964" cy="8.12513" r="1.87487" transform="rotate(180 8.74964 8.12513)" fill="#F37435"/>
<circle cx="1.87513" cy="8.12513" r="1.87487" transform="rotate(180 1.87513 8.12513)" fill="#F37435"/>
<circle cx="43.1222" cy="1.87513" r="1.87487" transform="rotate(180 43.1222 1.87513)" fill="#F37435"/>
<circle cx="36.2477" cy="1.87513" r="1.87487" transform="rotate(180 36.2477 1.87513)" fill="#F37435"/>
<circle cx="29.3732" cy="1.87513" r="1.87487" transform="rotate(180 29.3732 1.87513)" fill="#F37435"/>
<circle cx="22.4987" cy="1.87513" r="1.87487" transform="rotate(180 22.4987 1.87513)" fill="#F37435"/>
<circle cx="15.6241" cy="1.87513" r="1.87487" transform="rotate(180 15.6241 1.87513)" fill="#F37435"/>
<circle cx="8.74964" cy="1.87513" r="1.87487" transform="rotate(180 8.74964 1.87513)" fill="#F37435"/>
<circle cx="1.87513" cy="1.87513" r="1.87487" transform="rotate(180 1.87513 1.87513)" fill="#F37435"/>
</svg>
