<svg width="69" height="40" viewBox="0 0 69 40" fill="none" xmlns="http://www.w3.org/2000/svg">
<path d="M43.6172 38.9579L45.7412 38.8967C45.7412 38.8967 48.0933 37.8129 47.3999 34.41C47.3999 34.41 46.9078 32.6929 45.8332 32.0605H43.6175V38.9579H43.6172Z" fill="#323230"/>
<path d="M45.983 35.5086C45.983 37.4132 44.925 38.9579 43.617 38.9579C42.3111 38.9579 41.252 37.4132 41.252 35.5086C41.252 33.6047 42.3111 32.0605 43.617 32.0605C44.925 32.0605 45.983 33.6047 45.983 35.5086Z" fill="#22231F"/>
<path d="M15.5966 39.0981L17.4426 39.0354C17.4426 39.0354 19.5974 38.0427 18.9623 34.9248C18.9623 34.9248 18.5116 33.3529 17.5272 32.7734H15.4976L15.5966 39.0981Z" fill="#323230"/>
<path d="M17.6652 35.9324C17.6652 37.6764 16.6953 39.0919 15.4977 39.0919C14.3015 39.0919 13.3311 37.6767 13.3311 35.9324C13.3311 34.1881 14.3015 32.7734 15.4977 32.7734C16.6953 32.7734 17.6652 34.1878 17.6652 35.9324Z" fill="#22231F"/>
<path d="M63.9709 39.0525L66.0047 38.9869C66.0047 38.9869 68.3139 37.9223 67.6342 34.5803C67.6342 34.5803 67.1509 32.8949 66.0949 32.2734H63.9194L63.9709 39.0525Z" fill="#323230"/>
<path d="M66.2418 35.6594C66.2418 37.5297 65.2016 39.0466 63.9179 39.0466C62.6363 39.0466 61.5957 37.5297 61.5957 35.6594C61.5957 33.7901 62.6363 32.2734 63.9179 32.2734C65.2019 32.2734 66.2418 33.7901 66.2418 35.6594Z" fill="#22231F"/>
<path d="M61.8651 33.4316H46.543V35.8861H61.8651V33.4316Z" fill="#353535"/>
<path d="M63.2329 15.3633H46.5171V33.4412H63.2329V15.3633Z" fill="#9DA3A1"/>
<path d="M46.5168 15.3633H0.0136719V32.2723H46.5168V15.3633Z" fill="#585A5B"/>
<g opacity="0.1">
<path d="M46.4482 15.3633H0.0136719V21.9668H46.4482V15.3633Z" fill="black"/>
</g>
<path d="M46.5523 32.2402H0.000976562V32.7975H46.5523V32.2402Z" fill="#CCD6D3"/>
<path d="M46.5469 32.2383H0V33.4575H46.5469V32.2383Z" fill="#2F302B"/>
<path d="M37.5141 32.4727H0.000976562V34.3763H37.5141V32.4727Z" fill="#2F302B"/>
<path d="M46.521 33.248H0.000976562V34.3626H46.521V33.248Z" fill="#22231F"/>
<path d="M30.1544 36.6937L31.3532 36.7815C31.3532 36.7815 32.1808 33.6222 33.3506 33.1616L32.4089 32.5254C32.4089 32.5254 29.4984 33.5125 30.1544 36.6937Z" fill="#131314"/>
<path d="M32.7854 39.1077L34.7313 39.0486C34.7313 39.0486 36.9725 38.0972 36.3126 35.1101C36.3126 35.1101 35.8429 33.604 34.8192 33.0488H32.71L32.7854 39.1077Z" fill="#323230"/>
<path d="M34.9638 36.0759C34.9638 37.7463 33.9552 39.1018 32.7105 39.1018C31.4656 39.1018 30.4561 37.7463 30.4561 36.0759C30.4561 34.4035 31.4656 33.0488 32.7105 33.0488C33.9549 33.0488 34.9638 34.4035 34.9638 36.0759Z" fill="#22231F"/>
<path d="M34.35 36.0164C34.35 34.8551 33.5961 33.9141 32.665 33.9141C31.7338 33.9141 30.979 34.8554 30.979 36.0164C30.979 37.1783 31.7341 38.1199 32.665 38.1199C33.5961 38.1199 34.35 37.1783 34.35 36.0164Z" fill="#ECF0F1"/>
<path d="M33.4743 34.5998C33.2359 34.3618 32.9372 34.2188 32.6124 34.2188C31.8357 34.2188 31.2036 35.0294 31.2036 36.026C31.2036 37.0223 31.8357 37.8327 32.6124 37.8327C32.9372 37.8327 33.2359 37.6905 33.4743 37.4516C33.8056 37.1208 34.0206 36.6052 34.0206 36.026C34.0206 35.4466 33.8056 34.9312 33.4743 34.5998Z" fill="#C9C9C9"/>
<path d="M33.2418 36.0148C33.2418 35.3679 32.8452 34.8438 32.3566 34.8438C31.8682 34.8438 31.4722 35.3679 31.4722 36.0148C31.4722 36.6617 31.8682 37.1852 32.3566 37.1852C32.8452 37.1852 33.2418 36.6617 33.2418 36.0148Z" fill="#C9C9C9"/>
<path d="M33.2011 37.4516C33.5317 37.1208 33.7465 36.6052 33.7465 36.026C33.7465 35.4466 33.5317 34.9312 33.2011 34.5998C32.9958 34.3958 32.7456 34.261 32.4731 34.2273C32.5184 34.2214 32.5643 34.2188 32.6116 34.2188C32.9363 34.2188 33.2351 34.3618 33.4735 34.5998C33.8048 34.9312 34.0198 35.4466 34.0198 36.026C34.0198 36.6052 33.8048 37.1208 33.4735 37.4516C33.2351 37.6905 32.9363 37.8327 32.6116 37.8327C32.5643 37.8327 32.5184 37.8297 32.4731 37.8241C32.7456 37.7904 32.9958 37.6559 33.2011 37.4516Z" fill="#C9C9C9"/>
<path d="M32.876 36.0458C32.876 35.6186 32.6139 35.2715 32.2915 35.2715C31.9682 35.2715 31.7056 35.6186 31.7056 36.0458C31.7056 36.4736 31.9685 36.8206 32.2915 36.8206C32.6139 36.8206 32.876 36.4736 32.876 36.0458Z" fill="#E2E2E2"/>
<path d="M34.9196 36.869L36.8315 36.9134C36.8315 36.9134 37.1175 32.5689 34.4629 32.3274L32.2661 32.2617C32.2661 32.2617 35.2618 33.5345 34.9196 36.869Z" fill="#49595A"/>
<path d="M30.1543 36.6931C30.1543 36.6931 30.2108 32.5467 32.7229 32.8976C32.7229 32.8976 34.9202 33.117 34.5496 36.8906L34.9202 36.8687C34.9202 36.8687 35.3482 32.3492 32.4371 32.2836C32.4371 32.2836 29.6979 32.1517 29.8121 36.6931H30.1543Z" fill="#424F4F"/>
<path d="M36.4708 36.6937L37.6693 36.7815C37.6693 36.7815 38.4969 33.6222 39.667 33.1616L38.7253 32.5254C38.7253 32.5254 35.8148 33.5125 36.4708 36.6937Z" fill="#131314"/>
<path d="M39.1026 39.1077L41.0482 39.0486C41.0482 39.0486 43.2894 38.0972 42.6292 35.1101C42.6292 35.1101 42.1598 33.604 41.1361 33.0488H39.0269L39.1026 39.1077Z" fill="#323230"/>
<path d="M41.2797 36.0759C41.2797 37.7463 40.2711 39.1018 39.0264 39.1018C37.7818 39.1018 36.772 37.7463 36.772 36.0759C36.772 34.4035 37.7818 33.0488 39.0264 33.0488C40.2711 33.0488 41.2797 34.4035 41.2797 36.0759Z" fill="#22231F"/>
<path d="M40.6664 36.0164C40.6664 34.8551 39.9122 33.9141 38.9814 33.9141C38.0502 33.9141 37.2954 34.8554 37.2954 36.0164C37.2954 37.1783 38.0502 38.1199 38.9814 38.1199C39.9122 38.1199 40.6664 37.1783 40.6664 36.0164Z" fill="#ECF0F1"/>
<path d="M39.7913 34.5998C39.5526 34.3618 39.2539 34.2188 38.9288 34.2188C38.1521 34.2188 37.52 35.0294 37.52 36.026C37.52 37.0223 38.1521 37.8327 38.9288 37.8327C39.2539 37.8327 39.5526 37.6905 39.7913 37.4516C40.1223 37.1208 40.337 36.6052 40.337 36.026C40.3367 35.4466 40.1223 34.9312 39.7913 34.5998Z" fill="#C9C9C9"/>
<path d="M39.5592 36.0148C39.5592 35.3679 39.1626 34.8438 38.6736 34.8438C38.1856 34.8438 37.7896 35.3679 37.7896 36.0148C37.7896 36.6617 38.1859 37.1852 38.6736 37.1852C39.1626 37.1852 39.5592 36.6617 39.5592 36.0148Z" fill="#C9C9C9"/>
<path d="M39.5175 37.4516C39.8482 37.1208 40.0629 36.6052 40.0629 36.026C40.0629 35.4466 39.8482 34.9312 39.5175 34.5998C39.3119 34.3958 39.0617 34.261 38.7896 34.2273C38.8348 34.2214 38.8807 34.2188 38.9277 34.2188C39.2527 34.2188 39.5515 34.3618 39.7902 34.5998C40.1212 34.9312 40.3359 35.4466 40.3359 36.026C40.3359 36.6052 40.1212 37.1208 39.7902 37.4516C39.5515 37.6905 39.2527 37.8327 38.9277 37.8327C38.8807 37.8327 38.8351 37.8297 38.7896 37.8241C39.0617 37.7904 39.3116 37.6559 39.5175 37.4516Z" fill="#C9C9C9"/>
<path d="M39.1924 36.0458C39.1924 35.6186 38.9303 35.2715 38.6082 35.2715C38.2846 35.2715 38.022 35.6186 38.022 36.0458C38.022 36.4736 38.2849 36.8206 38.6082 36.8206C38.9306 36.8206 39.1924 36.4736 39.1924 36.0458Z" fill="#E2E2E2"/>
<path d="M41.2373 36.869L43.1495 36.9134C43.1495 36.9134 43.4349 32.5689 40.7812 32.3274L38.5835 32.2617C38.5835 32.2617 41.5798 33.5345 41.2373 36.869Z" fill="#49595A"/>
<path d="M36.4706 36.6931C36.4706 36.6931 36.5271 32.5467 39.0395 32.8976C39.0395 32.8976 41.2369 33.117 40.8657 36.8906L41.2369 36.8687C41.2369 36.8687 41.6648 32.3492 38.7538 32.2836C38.7538 32.2836 36.0142 32.1517 36.129 36.6931H36.4706Z" fill="#424F4F"/>
<path d="M2.11724 36.5159L3.31575 36.604C3.31575 36.604 4.14335 33.4445 5.31346 32.9836L4.3711 32.3477C4.3711 32.3477 1.46149 33.3348 2.11724 36.5159Z" fill="#131314"/>
<path d="M4.74808 38.93L6.69373 38.8709C6.69373 38.8709 8.93488 37.9195 8.27528 34.9326C8.27528 34.9326 7.80558 33.426 6.78158 32.8711H4.67236L4.74808 38.93Z" fill="#323230"/>
<path d="M6.92538 35.8982C6.92538 37.5691 5.91737 38.9241 4.67212 38.9241C3.42806 38.9241 2.41797 37.5691 2.41797 35.8982C2.41797 34.2257 3.42806 32.8711 4.67212 32.8711C5.91737 32.8708 6.92538 34.2254 6.92538 35.8982Z" fill="#22231F"/>
<path d="M6.31262 35.8389C6.31262 34.6777 5.55867 33.7363 4.62785 33.7363C3.69702 33.7363 2.94189 34.678 2.94189 35.8389C2.94189 37.0011 3.69702 37.9427 4.62785 37.9427C5.55867 37.9427 6.31262 37.0011 6.31262 35.8389Z" fill="#ECF0F1"/>
<path d="M5.43703 34.4227C5.19893 34.1844 4.89989 34.041 4.57512 34.041C3.7981 34.041 3.16602 34.8517 3.16602 35.8486C3.16602 36.8446 3.7981 37.655 4.57512 37.655C4.89989 37.655 5.19893 37.513 5.43703 37.2739C5.76831 36.9433 5.98305 36.4277 5.98305 35.8486C5.98305 35.2697 5.76831 34.7541 5.43703 34.4227Z" fill="#C9C9C9"/>
<path d="M5.2055 35.8374C5.2055 35.1902 4.80827 34.666 4.31993 34.666C3.83189 34.666 3.43555 35.1902 3.43555 35.8374C3.43555 36.483 3.83189 37.0075 4.31993 37.0075C4.80827 37.0078 5.2055 36.483 5.2055 35.8374Z" fill="#C9C9C9"/>
<path d="M5.16474 37.2739C5.49513 36.9433 5.71016 36.4277 5.71016 35.8486C5.71016 35.2694 5.49513 34.7538 5.16474 34.4227C4.95976 34.2184 4.70894 34.0839 4.43652 34.0499C4.48207 34.0443 4.52821 34.041 4.57524 34.041C4.90001 34.041 5.19905 34.1844 5.43715 34.4227C5.76843 34.7538 5.98317 35.2694 5.98317 35.8486C5.98317 36.4277 5.76843 36.9433 5.43715 37.2739C5.19905 37.5133 4.90001 37.655 4.57524 37.655C4.52821 37.655 4.48237 37.6523 4.43652 37.6467C4.70894 37.613 4.95976 37.4785 5.16474 37.2739Z" fill="#C9C9C9"/>
<path d="M4.83868 35.8677C4.83868 35.4408 4.57661 35.0938 4.25421 35.0938C3.93062 35.0938 3.66797 35.4408 3.66797 35.8677C3.66797 36.2949 3.93092 36.642 4.25421 36.642C4.57661 36.642 4.83868 36.2949 4.83868 35.8677Z" fill="#E2E2E2"/>
<path d="M6.88404 36.6913L8.79597 36.735C8.79597 36.735 9.0817 32.3912 6.42735 32.1496L4.22998 32.084C4.22998 32.084 7.22626 33.3564 6.88404 36.6913Z" fill="#49595A"/>
<path d="M2.11747 36.517C2.11747 36.517 2.17396 32.3706 4.68633 32.7216C4.68633 32.7216 6.8837 32.9415 6.5125 36.7145L6.8837 36.6926C6.8837 36.6926 7.31141 32.1737 4.40032 32.1078C4.40032 32.1078 1.66078 31.9757 1.77496 36.517H2.11747Z" fill="#424F4F"/>
<path d="M8.43721 36.5159L9.63572 36.604C9.63572 36.604 10.4633 33.4445 11.6337 32.9836L10.6914 32.3477C10.6914 32.3477 7.78087 33.3348 8.43721 36.5159Z" fill="#131314"/>
<path d="M11.0667 38.93L13.0121 38.8709C13.0121 38.8709 15.2532 37.9195 14.5936 34.9326C14.5936 34.9326 14.1239 33.426 13.1005 32.8711H10.9907L11.0667 38.93Z" fill="#323230"/>
<path d="M13.2437 35.8982C13.2437 37.5691 12.236 38.9241 10.9905 38.9241C9.74613 38.9241 8.73633 37.5691 8.73633 35.8982C8.73633 34.2257 9.74613 32.8711 10.9905 32.8711C12.2357 32.8708 13.2437 34.2254 13.2437 35.8982Z" fill="#22231F"/>
<path d="M12.6316 35.8389C12.6316 34.6777 11.877 33.7363 10.9465 33.7363C10.0154 33.7363 9.26025 34.678 9.26025 35.8389C9.26025 37.0011 10.0157 37.9427 10.9465 37.9427C11.8773 37.9427 12.6316 37.0011 12.6316 35.8389Z" fill="#ECF0F1"/>
<path d="M11.7552 34.4227C11.5165 34.1844 11.2175 34.041 10.8927 34.041C10.1163 34.041 9.48389 34.8517 9.48389 35.8486C9.48389 36.8446 10.1163 37.655 10.8927 37.655C11.2175 37.655 11.5165 37.513 11.7552 37.2739C12.0859 36.9433 12.3006 36.4277 12.3006 35.8486C12.3006 35.2697 12.0862 34.7541 11.7552 34.4227Z" fill="#C9C9C9"/>
<path d="M11.5237 35.8374C11.5237 35.1902 11.1264 34.666 10.6378 34.666C10.1498 34.666 9.75342 35.1902 9.75342 35.8374C9.75342 36.483 10.1498 37.0075 10.6378 37.0075C11.1264 37.0078 11.5237 36.483 11.5237 35.8374Z" fill="#C9C9C9"/>
<path d="M11.4839 37.2739C11.8143 36.9433 12.029 36.4277 12.029 35.8486C12.029 35.2694 11.8143 34.7538 11.4839 34.4227C11.2783 34.2184 11.0275 34.0839 10.7554 34.0499C10.8006 34.0443 10.8474 34.041 10.8938 34.041C11.2186 34.041 11.5176 34.1844 11.7563 34.4227C12.087 34.7538 12.3017 35.2694 12.3017 35.8486C12.3017 36.4277 12.087 36.9433 11.7563 37.2739C11.5176 37.5133 11.2186 37.655 10.8938 37.655C10.8474 37.655 10.8009 37.6523 10.7554 37.6467C11.0275 37.613 11.278 37.4785 11.4839 37.2739Z" fill="#C9C9C9"/>
<path d="M11.1573 35.8677C11.1573 35.4408 10.895 35.0938 10.5729 35.0938C10.2493 35.0938 9.98633 35.4408 9.98633 35.8677C9.98633 36.2949 10.2496 36.642 10.5729 36.642C10.895 36.642 11.1573 36.2949 11.1573 35.8677Z" fill="#E2E2E2"/>
<path d="M13.2029 36.6913L15.1151 36.735C15.1151 36.735 15.4005 32.3912 12.7462 32.1496L10.5488 32.084C10.5488 32.084 13.5448 33.3564 13.2029 36.6913Z" fill="#49595A"/>
<path d="M8.43652 36.517C8.43652 36.517 8.49302 32.3706 11.0054 32.7216C11.0054 32.7216 13.2028 32.9415 12.8316 36.7145L13.2028 36.6926C13.2028 36.6926 13.6302 32.1737 10.7197 32.1078C10.7197 32.1078 7.97984 31.9757 8.09431 36.517H8.43652Z" fill="#424F4F"/>
<path d="M46.5469 31.4512H0V32.4957H46.5469V31.4512Z" fill="#22231F"/>
<path d="M48.2084 17.9316H48.2853C48.3051 17.9316 48.3235 17.9367 48.343 17.9381L48.3489 17.9316C48.3489 17.9316 53.1708 17.9316 57.2931 17.9316C59.7774 17.9316 59.8815 21.0317 59.8815 21.0317L61.5825 26.6398L61.5997 35.6873H55.3705C55.3705 32.0746 52.8676 31.3917 52.4002 31.3917C51.1083 31.3917 47.1992 31.3917 47.1992 31.3917V20.949V19.2682V18.8993C47.1995 18.258 47.6145 17.9316 48.2084 17.9316Z" fill="#FFA700"/>
<path d="M68.799 21.7168H58.4463V23.3071H68.799V21.7168Z" fill="#FFBC00"/>
<path d="M68.7932 29.375H57.106V32.8512H68.7932V29.375Z" fill="#FFBC00"/>
<path d="M64.4351 20.1356L64.4377 18.0738C64.4377 18.0738 69.1049 17.4535 68.9904 20.1356H64.4351Z" fill="#FFBC00"/>
<path d="M55.2773 17.8984L66.5623 18.0735L66.2145 20.1246L56.7799 20.0841L55.2773 17.8984Z" fill="#FFBC00"/>
<path d="M68.9607 32.8516H57.2412V33.755H68.9607V32.8516Z" fill="#FFBC00"/>
<path d="M68.9615 34.7383H57.1143V35.6415H68.9615V34.7383Z" fill="#FFBC00"/>
<path d="M68.9485 34.7383H57.1143V35.0987H68.9485V34.7383Z" fill="#FFBC00"/>
<path d="M53.5309 21.4238H49.2861V28.6718H53.5309V21.4238Z" fill="#0C83FD"/>
<path d="M49.3169 21.8641L53.5318 28.6698L53.5025 26.1953L50.9677 21.8047L49.3169 21.8641Z" fill="#59B8E7"/>
<path d="M47.6153 37.1633L48.9691 37.262C48.9691 37.262 49.9037 33.6931 51.2259 33.1724L50.1614 32.4531C50.1614 32.4531 46.8737 33.5689 47.6153 37.1633Z" fill="#131314"/>
<path d="M50.5862 39.8899L52.7841 39.8222C52.7841 39.8222 55.3157 38.7488 54.5698 35.3737C54.5698 35.3737 54.0388 33.6717 52.8829 33.0449H50.4995L50.5862 39.8899Z" fill="#323230"/>
<path d="M53.0455 36.4649C53.0455 38.352 51.9061 39.8834 50.4994 39.8834C49.0936 39.8834 47.9536 38.3517 47.9536 36.4649C47.9536 34.5755 49.0936 33.0449 50.4994 33.0449C51.9061 33.0446 53.0455 34.5755 53.0455 36.4649Z" fill="#22231F"/>
<path d="M52.3544 36.3989C52.3544 35.0878 51.5019 34.0234 50.4501 34.0234C49.3992 34.0234 48.5459 35.0878 48.5459 36.3989C48.5459 37.7116 49.3992 38.7759 50.4501 38.7759C51.5019 38.7759 52.3544 37.7113 52.3544 36.3989Z" fill="#ECF0F1"/>
<path d="M51.3647 34.7976C51.0956 34.5289 50.7575 34.3672 50.3904 34.3672C49.5128 34.3672 48.7988 35.2831 48.7988 36.4083C48.7988 37.5344 49.5128 38.4494 50.3904 38.4494C50.7575 38.4494 51.0956 38.2892 51.3647 38.0198C51.7389 37.6453 51.9808 37.0637 51.9808 36.4083C51.9808 35.7546 51.7386 35.1719 51.3647 34.7976Z" fill="#C9C9C9"/>
<path d="M51.103 36.3972C51.103 35.6661 50.6546 35.0742 50.1027 35.0742C49.5513 35.0742 49.1035 35.6661 49.1035 36.3972C49.1035 37.1278 49.5513 37.7196 50.1027 37.7196C50.6546 37.7196 51.103 37.1278 51.103 36.3972Z" fill="#C9C9C9"/>
<path d="M51.056 38.0198C51.4295 37.6453 51.6727 37.0637 51.6727 36.4083C51.6727 35.7546 51.4295 35.1716 51.056 34.7976C50.8241 34.567 50.5416 34.4157 50.2334 34.3775C50.2843 34.3713 50.3369 34.3672 50.3899 34.3672C50.7569 34.3672 51.095 34.5289 51.3642 34.7976C51.7383 35.1719 51.9803 35.7546 51.9803 36.4083C51.9803 37.0637 51.7383 37.6453 51.3642 38.0198C51.095 38.2892 50.7569 38.4494 50.3899 38.4494C50.3366 38.4494 50.2843 38.4462 50.2334 38.4405C50.5413 38.4033 50.8238 38.2504 51.056 38.0198Z" fill="#C9C9C9"/>
<path d="M50.6887 36.4312C50.6887 35.9481 50.3923 35.5566 50.0288 35.5566C49.6635 35.5566 49.3662 35.9481 49.3662 36.4312C49.3662 36.9142 49.6635 37.306 50.0288 37.306C50.3923 37.306 50.6887 36.9142 50.6887 36.4312Z" fill="#E2E2E2"/>
<path d="M52.9994 37.3613L55.1601 37.4107C55.1601 37.4107 55.4834 32.503 52.4839 32.2305L50.002 32.1562C50.002 32.1562 53.3866 33.5946 52.9994 37.3613Z" fill="#49595A"/>
<path d="M47.6155 37.164C47.6155 37.164 47.6788 32.4786 50.5168 32.8754C50.5168 32.8754 52.999 33.1237 52.5805 37.3866L52.9987 37.3618C52.9987 37.3618 53.4829 32.256 50.1944 32.1821C50.1944 32.1821 47.0987 32.0331 47.2286 37.1643H47.6155V37.164Z" fill="#424F4F"/>
<path d="M53.6492 21.0098H49.0205V21.8346H53.6492V21.0098Z" fill="#352F33"/>
<path d="M55.3154 20.1363L55.3166 17.979C55.3166 17.979 57.2073 17.33 57.1608 20.1363H55.3154Z" fill="#FFBC00"/>
<path d="M68.9829 20.0059H55.3506V35.7719H68.9829V20.0059Z" fill="#FFBC00"/>
<path d="M68.9568 20.0078H55.2793V20.7147H68.9568V20.0078Z" fill="#DD8903"/>
<path d="M68.9568 20.7148H55.2793V21.7168H68.9568V20.7148Z" fill="#FDEE4A"/>
<path d="M68.7741 24.4863H57.2412V29.376H68.7741V24.4863Z" fill="#0C83FD"/>
<path d="M57.2412 29.375L59.9663 32.8807L66.0496 32.9396L68.793 29.375H57.2412Z" fill="#363836"/>
<path d="M57.9048 24.5282L63.6711 29.3451L66.7676 29.3737L60.8037 24.5137L57.9048 24.5282Z" fill="#59B8E7"/>
<path d="M61.2192 24.5293L67.2248 29.3796H68.1355L62.3834 24.5441L61.2192 24.5293Z" fill="#59B8E7"/>
<path d="M68.7813 23.7598H57.1162V24.5261H68.7813V23.7598Z" fill="#352F33"/>
<path d="M68.7719 23.3066H57.1113V23.7587H68.7719V23.3066Z" fill="#363836"/>
<path d="M68.7872 29.3477H57.231V30.2012H68.7872V29.3477Z" fill="#9DA3A1"/>
<path d="M68.9916 33.7559H57.1035V34.7383H68.9916V33.7559Z" fill="#363836"/>
<path d="M66.7491 30.8301H59.3164V31.0353H66.7491V30.8301Z" fill="#CDE0CD"/>
<path d="M66.7491 31.207H59.3164V31.4125H66.7491V31.207Z" fill="#CDE0CD"/>
<path d="M66.7491 31.5859H59.3164V31.7908H66.7491V31.5859Z" fill="#CDE0CD"/>
<path d="M60.9139 32.8516H57.731V33.7483H60.9139V32.8516Z" fill="#DAE0DE"/>
<path d="M69.0003 32.8516H66.1895V33.7483H69.0003V32.8516Z" fill="#DAE0DE"/>
<path d="M30.8044 0H22.7464L17.2529 6.95852C17.2529 6.95852 16.7035 20.5716 30.8044 28.8027V0Z" fill="#B2B2B2"/>
<path d="M30.8042 0H38.8622L44.3565 6.95852C44.3565 6.95852 44.9059 20.5716 30.805 28.8027L30.8042 0Z" fill="#9B9B9B"/>
<path d="M30.8041 2.05664H23.6125L19.3638 7.33709C19.3638 7.33709 18.4382 18.5727 30.8041 26.533V2.05664Z" fill="#E24434"/>
<path d="M30.804 2.05664H37.9949L42.2435 7.33709C42.2435 7.33709 43.1691 18.5727 30.8032 26.533L30.804 2.05664Z" fill="#D32920"/>
<path d="M27.1166 7.97434C27.1166 7.97434 25.8355 7.60503 25.0515 6.71098C24.4514 6.02698 24.0282 4.62897 24.0274 4.63282C24.0259 4.62897 23.6027 6.02775 23.0026 6.71098C22.2186 7.60426 20.9375 7.97434 20.9375 7.97434C20.9375 7.97434 22.187 8.41983 22.8949 9.20155C23.605 9.98481 24.0305 11.1982 24.0321 11.2005C24.0321 11.2005 24.4498 9.98481 25.1592 9.20155C25.8663 8.41983 27.1166 7.97434 27.1166 7.97434Z" fill="white"/>
</svg>
