<svg width="125" height="156" viewBox="0 0 125 156" fill="none" xmlns="http://www.w3.org/2000/svg">
<path d="M121.118 20.6951L124.619 15.0751L122.891 14.0087C122.382 13.6949 122.107 13.1225 122.157 12.5296C122.186 12.2017 122.196 11.8719 122.189 11.5411C122.176 10.9473 122.487 10.3948 123.013 10.1142L124.805 9.1574L121.664 3.32691L119.872 4.28372C119.347 4.56433 118.712 4.51707 118.222 4.178C117.949 3.98898 117.667 3.81506 117.377 3.65721C116.853 3.37124 116.526 2.8261 116.545 2.23126L116.61 0.207543L109.97 0.00195312L109.908 2.03298C109.89 2.6283 109.524 3.14666 108.982 3.40145C108.836 3.47063 108.69 3.5437 108.545 3.62068C108.401 3.69765 108.259 3.77804 108.121 3.86183C107.611 4.16826 106.977 4.18628 106.471 3.87401L104.73 2.80028L101.228 8.42031L102.96 9.49063C103.468 9.80486 103.743 10.3778 103.691 10.9711C103.663 11.2976 103.652 11.6264 103.659 11.9557C103.671 12.5486 103.36 13.1006 102.835 13.3812L101.042 14.3385L104.183 20.1685L105.975 19.2117C106.5 18.9311 107.135 18.9783 107.624 19.3169C107.896 19.505 108.177 19.6779 108.466 19.8348C108.991 20.1203 109.319 20.6654 109.3 21.2607L109.237 23.2893L115.877 23.4949L115.94 21.4653C115.959 20.872 116.324 20.3556 116.864 20.1017C117.011 20.0321 117.158 19.9585 117.303 19.8806C117.448 19.8036 117.589 19.7232 117.729 19.6394C118.241 19.331 118.878 19.3135 119.386 19.6277L121.118 20.6951ZM115.496 16.521C112.847 17.9348 109.552 16.9449 108.132 14.3083C106.712 11.6717 107.704 8.38669 110.352 6.97291C113 5.55914 116.303 6.55151 117.723 9.18761C119.143 11.8242 118.144 15.1072 115.496 16.521Z" fill="#006D8D"/>
<path d="M97.7591 25.9481L95.4332 21.9352L94.1995 22.6445C93.8369 22.8531 93.3906 22.8331 93.0393 22.6056C92.8455 22.4794 92.6444 22.3639 92.4364 22.2587C92.064 22.0702 91.8242 21.6955 91.8242 21.2795V19.8613H87.1689V21.2795C87.1689 21.6955 86.9291 22.0702 86.5567 22.2587C86.3492 22.3639 86.1481 22.4794 85.9538 22.6056C85.6029 22.8331 85.1566 22.8535 84.794 22.6445L83.5603 21.9352L81.2344 25.9481L82.4735 26.6584C82.8366 26.8664 83.0367 27.2634 83.0152 27.6805C83.0093 27.7935 83.0064 27.9075 83.0064 28.0215C83.0064 28.1355 83.0093 28.2495 83.0152 28.3625C83.0367 28.7776 82.838 29.1727 82.4769 29.3802L81.2344 30.0949L83.5603 34.1077L84.7974 33.3974C85.1605 33.1889 85.6068 33.2094 85.9577 33.4379C86.151 33.5636 86.3512 33.679 86.5577 33.7838C86.9296 33.9728 87.1689 34.3469 87.1689 34.7625V36.1811H91.8242V34.7625C91.8242 34.3469 92.063 33.9728 92.4349 33.7838C92.6414 33.679 92.8415 33.5636 93.0348 33.4379C93.3857 33.2094 93.8325 33.1889 94.1951 33.3974L95.4322 34.1077L97.7582 30.0949L96.5206 29.3841C96.1584 29.1761 95.9598 28.7805 95.9808 28.3649C95.9867 28.2514 95.9896 28.1369 95.9896 28.0215C95.9896 27.9075 95.9867 27.7935 95.9808 27.6805C95.9593 27.2634 96.1589 26.8664 96.5225 26.6579L97.7591 25.9481ZM93.3094 28.0215C93.3094 30.1173 91.604 31.8146 89.4992 31.8146C87.394 31.8146 85.6851 30.1173 85.6851 28.0215C85.6851 25.9257 87.394 24.2244 89.4992 24.2244C91.604 24.2244 93.3094 25.9257 93.3094 28.0215Z" fill="#006D8D"/>
<path d="M6.51583 56.4092C5.76711 58.3014 5.34528 60.2564 5.2249 62.2811C5.19603 62.282 5.17254 62.2845 5.14954 62.2845C3.45439 62.285 1.75974 62.285 0.0650829 62.2845C0.043551 62.2845 0.0220213 62.282 0 62.2811V62.1369C0.0141915 62.0039 0.029361 61.8714 0.0420844 61.7379C0.105701 61.0456 0.224124 60.3636 0.38757 59.6883C0.65623 58.5776 1.0482 57.5121 1.54882 56.4842C1.5772 56.4248 1.61098 56.4082 1.67459 56.4082C3.25866 56.4102 4.84223 56.4097 6.42629 56.4097L6.51583 56.4092Z" fill="#006D8D"/>
<path d="M6.35728 69.526H6.27362C4.70179 69.526 3.12946 69.5255 1.55763 69.528C1.49548 69.528 1.4671 69.508 1.44019 69.4525C0.883294 68.3003 0.489837 67.0946 0.249071 65.8391C0.132603 65.235 0.0518613 64.6246 0.0132018 64.0103C0.0117337 63.9903 0.00440425 63.9693 0 63.9479V63.8047C0.0259362 63.8027 0.052352 63.7988 0.0787775 63.7988C1.76365 63.7988 3.44951 63.7988 5.13438 63.7988C5.22785 63.7988 5.22296 63.7993 5.22981 63.8924C5.26162 64.3099 5.2895 64.7284 5.32963 65.1449C5.39374 65.8079 5.50678 66.4632 5.65065 67.1126C5.82487 67.9076 6.05242 68.6876 6.3338 69.4515C6.34163 69.4729 6.34749 69.4958 6.35728 69.526Z" fill="#006D8D"/>
<path d="M26.5461 71.042C26.5295 71.0707 26.5177 71.0927 26.5045 71.1131C26.1047 71.7396 25.6354 72.3125 25.1441 72.8689C24.5441 73.549 23.8747 74.1521 23.1514 74.6977C22.4379 75.2351 21.6814 75.7028 20.8803 76.0989C20.1086 76.4803 19.3084 76.7911 18.4804 77.0284C17.8242 77.2169 17.1577 77.3558 16.4814 77.4522C16.4158 77.4615 16.3503 77.4742 16.2847 77.4849H16.1687C16.1349 77.4634 16.1017 77.442 16.0576 77.4142C16.1051 77.3806 16.1447 77.3514 16.1849 77.3246C17.6564 76.3215 18.9209 75.107 19.9701 73.6698C20.5602 72.8626 21.0755 72.0105 21.5165 71.1146C21.5429 71.0595 21.5732 71.0405 21.6354 71.041C23.2434 71.0425 24.8519 71.042 26.4595 71.042H26.5461Z" fill="#006D8D"/>
<path d="M21.7434 62.2782H15.001V56.4131C15.0284 56.4121 15.0533 56.4097 15.0788 56.4097C16.8072 56.4097 18.5361 56.4102 20.2645 56.4082C20.3223 56.4077 20.3482 56.4262 20.3708 56.4779C20.8567 57.5833 21.2124 58.7301 21.4429 59.9149C21.5623 60.5307 21.6519 61.1508 21.7023 61.7759C21.716 61.941 21.7297 62.1057 21.7434 62.2782Z" fill="#006D8D"/>
<path d="M21.7033 63.8418C21.697 63.9806 21.6955 64.1185 21.6833 64.2559C21.6534 64.5828 21.6309 64.9097 21.5849 65.2346C21.5213 65.6838 21.4523 66.1335 21.3623 66.5792C21.1636 67.5609 20.8665 68.5138 20.4883 69.4419C20.4633 69.5037 20.4354 69.5286 20.3649 69.5286C18.5954 69.5257 16.8259 69.5261 15.0564 69.5261H14.9609V63.8418H21.7033Z" fill="#006D8D"/>
<path d="M13.4808 56.4468V62.3206H6.89648C6.90627 62.1715 6.91067 62.0259 6.92584 61.8812C6.95961 61.5528 6.98652 61.2225 7.03839 60.8966C7.11913 60.3992 7.20526 59.9013 7.31243 59.4083C7.52873 58.413 7.85417 57.4508 8.26376 56.5174C8.28823 56.4614 8.31808 56.4453 8.37583 56.4453C10.0494 56.4473 11.7226 56.4468 13.3962 56.4468H13.4808Z" fill="#006D8D"/>
<path d="M13.487 63.9202C13.485 65.7613 13.4855 67.6028 13.4855 69.4433V69.5266H13.3969C11.6724 69.5266 9.9484 69.5261 8.22438 69.5286C8.16174 69.5286 8.13338 69.5091 8.10891 69.4516C7.71057 68.4948 7.40421 67.5083 7.21238 66.4915C7.11402 65.9698 7.03819 65.4431 6.97212 64.9165C6.92808 64.5726 6.91877 64.2242 6.89479 63.8778C6.89382 63.8691 6.89578 63.8593 6.89724 63.8413C6.92269 63.8398 6.94814 63.8379 6.97359 63.8379C9.11699 63.8379 11.2599 63.8384 13.4028 63.8359C13.4718 63.8355 13.487 63.8554 13.487 63.9202Z" fill="#006D8D"/>
<path d="M28.8935 62.3196H23.3686C23.2487 60.2866 22.8332 58.3179 22.0811 56.4097H22.1677C23.855 56.4097 25.5428 56.4102 27.2311 56.4082C27.2923 56.4082 27.3236 56.4248 27.3515 56.4798C27.9431 57.6485 28.3669 58.8743 28.6253 60.1575C28.7623 60.839 28.8479 61.5269 28.8939 62.2197C28.8954 62.2514 28.8935 62.2821 28.8935 62.3196Z" fill="#006D8D"/>
<path d="M28.898 63.7999C28.8921 63.9324 28.8887 64.0591 28.8794 64.1838C28.8432 64.6807 28.7845 65.1752 28.6979 65.6653C28.4948 66.8077 28.1512 67.9068 27.6824 68.9683C27.6076 69.1388 27.5253 69.3069 27.449 69.4769C27.4319 69.5154 27.4094 69.529 27.3668 69.529C25.6746 69.5276 23.9824 69.5276 22.2902 69.5276C22.274 69.5276 22.2579 69.5251 22.2354 69.5242C22.297 69.3478 22.3582 69.1773 22.4169 69.0058C22.7159 68.1309 22.9415 67.2364 23.1005 66.3269C23.2165 65.6658 23.2983 65.0008 23.3374 64.3319C23.3472 64.1745 23.3575 64.0157 23.3643 63.8583C23.3658 63.816 23.3775 63.795 23.422 63.7994C23.4397 63.8013 23.4563 63.7999 23.4729 63.7999H28.898Z" fill="#006D8D"/>
<path d="M26.3939 54.9122C26.3905 54.92 26.387 54.9268 26.3836 54.9351H26.3132C24.7022 54.9351 23.0917 54.9346 21.4807 54.9361C21.4235 54.9361 21.3921 54.9214 21.3647 54.8679C20.7134 53.5885 19.9236 52.4013 18.9654 51.3295C18.408 50.7059 17.788 50.1496 17.1249 49.6405C16.7956 49.3881 16.4535 49.1514 16.1168 48.9083C16.0997 48.8961 16.0831 48.8829 16.0605 48.8664C16.085 48.8493 16.1041 48.8366 16.1276 48.8206C16.1183 48.7904 16.109 48.7592 16.0958 48.7168C17.8159 48.9161 19.4464 49.3935 20.9816 50.1769C23.1861 51.3008 25.0149 52.8544 26.3939 54.9122Z" fill="#006D8D"/>
<path d="M12.5445 77.4185C12.4843 77.4287 12.4432 77.4458 12.4045 77.4414C11.8731 77.3732 11.348 77.268 10.8293 77.1364C9.85738 76.8899 8.92171 76.5455 8.02471 76.1022C6.99656 75.5936 6.04476 74.9709 5.16635 74.2348C4.54486 73.7135 3.96693 73.1479 3.44772 72.5244C3.0577 72.0547 2.70243 71.5602 2.37554 71.0458C2.36869 71.0341 2.36331 71.0214 2.35254 71H2.4323C3.93268 71 5.4316 71.0005 6.93198 70.998C6.99266 70.998 7.01958 71.0195 7.04551 71.0706C7.51726 72.0138 8.06288 72.9117 8.69905 73.7545C9.2809 74.5242 9.93322 75.2306 10.6374 75.8907C11.2202 76.4373 11.8403 76.9372 12.5034 77.3844C12.5107 77.3883 12.5176 77.3961 12.5445 77.4185Z" fill="#006D8D"/>
<path d="M12.4844 48.8601C12.2794 49.0097 12.0371 49.1792 11.8027 49.3585C11.011 49.9626 10.295 50.6466 9.62314 51.3788C8.7188 52.3634 7.9544 53.4449 7.33487 54.6277C7.29621 54.7023 7.26148 54.7793 7.21842 54.8504C7.20618 54.8723 7.17339 54.8923 7.14843 54.8942C7.0672 54.8991 6.98498 54.8962 6.90277 54.8962H2.50391C4.95463 51.4514 8.24558 49.3809 12.4335 48.748C12.4242 48.767 12.4145 48.7856 12.4052 48.8046C12.434 48.824 12.4634 48.845 12.4844 48.8601Z" fill="#006D8D"/>
<path d="M19.7317 71.0469C19.1049 72.1406 18.3645 73.1378 17.5051 74.0464C16.7403 74.8541 15.9059 75.581 14.9619 76.1948V71.0474L19.7317 71.0469Z" fill="#006D8D"/>
<path d="M13.4784 71.0469V76.095C11.5415 74.7669 10.0328 73.0823 8.90234 71.0469H13.4784Z" fill="#006D8D"/>
<path d="M19.5809 54.8899H15.001V50.0801C15.9464 50.6968 16.8038 51.4057 17.5706 52.2222C18.3355 53.0367 18.9956 53.9297 19.5809 54.8899Z" fill="#006D8D"/>
<path d="M13.4799 50.2305V54.9297H9.08398C10.1978 53.0327 11.6247 51.443 13.4799 50.2305Z" fill="#006D8D"/>
<path d="M70.8324 121.359C70.8324 121.359 70.2119 128.318 69.2953 138.388V138.392C69.2674 138.683 69.24 138.978 69.2121 139.273C68.7629 144.218 68.2491 149.849 67.7078 155.748H35.9375C38.215 138.024 40.1822 122.751 40.3491 121.451C40.3584 121.392 40.3628 121.359 40.3628 121.359H70.8324Z" fill="#37474F"/>
<path d="M66.3797 125.346C66.1806 127.779 65.9721 130.217 65.7641 132.651V132.655C65.7039 133.36 65.6344 134.061 65.5742 134.766V134.785C64.9586 141.776 64.3102 148.767 63.5884 155.749H63.1299C63.9075 148.564 64.6298 141.375 65.3614 134.181C65.3614 134.172 65.3614 134.172 65.3614 134.172C65.3614 134.167 65.3614 134.167 65.3614 134.162C65.4402 133.383 65.5189 132.605 65.5972 131.822V131.808C65.815 129.651 66.0372 127.504 66.2593 125.347C66.2735 125.273 66.389 125.273 66.3797 125.346Z" fill="#263238"/>
<path d="M78.2482 121.359C78.2482 121.359 76.7992 129.521 74.7669 140.955V140.96C74.7297 141.144 74.6974 141.324 74.6651 141.518V141.522C73.8875 145.895 73.0263 150.725 72.1332 155.748H50.0008L49.4963 152.435V152.43L49.3989 151.78L49.371 151.61L49.0055 149.176V149.172L48.8621 148.259L44.7607 121.359H78.2482Z" fill="#263238"/>
<path d="M90.1877 155.75H56.6997C56.6904 155.621 56.6811 155.519 56.6767 155.437C56.6674 155.303 56.6581 155.234 56.6581 155.234C56.4912 155.142 56.3248 155.05 56.1536 154.962C54.385 154.003 52.8342 153.257 51.557 152.69C51.3392 152.593 51.1312 152.501 50.9277 152.409C50.3492 152.16 49.8305 151.948 49.3999 151.782C48.2934 151.344 47.6778 151.151 47.6778 151.151C47.6406 151.059 47.6083 150.971 47.576 150.879C43.2197 139.842 40.5953 123.021 40.3496 121.454C40.3403 121.371 40.3359 121.334 40.3359 121.334H84.7445C84.7445 121.334 93.8877 137.926 89.8182 152.047C89.4781 153.224 90.0629 154.502 90.1877 155.75Z" fill="#37474F"/>
<path d="M46.1437 150.361C49.785 151.609 53.2991 153.38 56.6596 155.237C56.7917 155.31 56.7046 155.513 56.5617 155.452C53.0192 153.938 49.4072 152.489 45.9528 150.782C45.6812 150.648 45.8642 150.265 46.1437 150.361Z" fill="#263238"/>
<path d="M45.0177 126.163C45.0275 126.041 45.2423 126.014 45.2413 126.146C45.2125 130.332 45.4811 134.016 45.8354 137.928C45.9998 139.745 47.4679 149.784 50.6317 149.052C51.1616 148.93 51.4318 148.41 51.515 147.615C51.6148 146.659 51.2536 145.487 51.0946 144.536C50.7432 142.435 50.4614 140.327 50.2803 138.204C49.9421 134.241 49.925 130.278 50.409 126.328C50.4246 126.198 50.613 126.208 50.613 126.339C50.6086 131.825 50.7525 137.3 51.5766 142.734C51.9725 145.345 53.2938 149.276 50.5509 149.678C47.7562 150.087 45.9494 143.503 45.6084 141.701C44.6565 136.675 44.6189 131.249 45.0177 126.163Z" fill="#263238"/>
<path d="M50.5478 149.322C50.8336 149.996 51.0636 150.698 51.2593 151.402C51.411 151.95 51.6176 152.542 51.5549 153.113C51.5427 153.224 51.3954 153.234 51.3357 153.159C50.9647 152.691 50.8077 152.05 50.6007 151.495C50.3599 150.851 50.1055 150.212 49.8833 149.562C49.736 149.131 50.3717 148.906 50.5478 149.322Z" fill="#263238"/>
<path d="M64.8662 129.447C64.9009 129.016 64.8647 128.557 65.0007 128.143C65.0223 128.079 65.1084 128.086 65.1285 128.146C65.2489 128.504 65.2381 128.898 65.2762 129.272C65.3208 129.703 65.378 130.134 65.4245 130.567C65.5195 131.449 65.6712 132.33 65.8884 133.19C66.302 134.826 67.1104 136.31 68.3039 137.511C69.4681 138.683 70.8706 139.549 72.3901 140.19C74.0892 140.907 75.8778 141.174 77.6331 141.687C77.707 141.709 77.6855 141.814 77.6121 141.817C75.7217 141.875 73.6898 141.376 71.9345 140.704C70.3607 140.101 68.8623 139.194 67.6727 137.997C66.4395 136.757 65.6061 135.245 65.1882 133.551C64.9753 132.688 64.8848 131.808 64.8476 130.921C64.8275 130.426 64.8265 129.94 64.8662 129.447Z" fill="#263238"/>
<path d="M90.0302 136.274L69.4476 136.683L43.4527 137.199L38.3096 137.302C39.4498 128.469 40.2474 122.263 40.3502 121.454C40.3404 121.371 40.3355 121.332 40.3355 121.332H84.7451C84.7451 121.332 88.3615 127.894 90.0302 136.274Z" fill="#263238"/>
<path d="M41.3485 68.4291C39.9553 77.8291 38.6829 87.5209 38.7549 97.033C38.8087 104.441 41.3529 110.77 48.8543 113.27C55.8125 115.586 65.9536 116.379 72.3999 112.233C75.4022 110.298 76.6613 107.299 76.7915 103.823C76.9759 98.9895 75.5612 72.2978 75.1712 63.9778C74.9422 58.9122 74.7347 53.7784 73.6013 48.7999C71.2235 38.353 66.1743 37.9798 65.4936 37.7119C64.924 37.272 61.2112 35.2024 55.5453 36.4486C52.4144 37.137 50.0738 38.9931 48.4706 41.6521C43.7645 49.4347 42.6575 59.6283 41.3485 68.4291Z" fill="#263238"/>
<path d="M66.937 39.2616C72.7423 42.6348 73.5835 49.3582 74.5099 55.3997C75.7993 63.8097 76.9449 72.2447 77.6794 80.7224C78.0328 84.7986 78.2941 88.8836 78.4326 92.9724C78.5652 96.8859 78.9459 101.084 78.3254 104.97C77.2992 111.394 71.0897 113.794 65.2487 114.191C64.9644 114.211 64.9213 113.782 65.2056 113.752C68.5431 113.403 71.9715 112.801 74.6341 110.602C78.0479 107.782 78.0557 103.697 78.0562 99.6277C78.0572 92.7025 77.6618 85.7822 77.0163 78.8882C76.3704 71.986 75.4773 65.1071 74.4766 58.2477C73.5243 51.7186 73.1788 43.2043 66.891 39.3585C66.8323 39.3239 66.8763 39.226 66.937 39.2616Z" fill="#263238"/>
<path d="M45.0474 48.2998C46.6525 43.4656 49.6719 38.8847 55.0275 37.926C55.0372 37.924 55.0387 37.9391 55.0289 37.9411C48.0805 39.4683 45.7619 46.6649 44.2992 52.719C42.7597 59.0902 41.4658 65.518 40.4 71.9838C39.3747 78.203 38.4753 84.4856 38.0221 90.775C37.5328 97.5628 38.1827 104.022 41.6909 109.973C41.7633 110.095 41.593 110.221 41.5064 110.102C37.9619 105.225 37.222 98.882 37.4388 93.0267C37.7241 85.3167 38.9402 77.557 40.2453 69.962C41.4849 62.746 42.7347 55.2649 45.0474 48.2998Z" fill="#263238"/>
<path d="M54.4454 76.6809C53.0844 82.2288 38.3101 112.269 38.4227 114.148C38.4491 114.591 47.3584 120.547 47.5772 121.249C48.4668 124.105 33.8012 136.201 30.5959 136.92C21.16 139.037 12.9255 138.596 13.0933 130.891C13.3566 118.798 34.7055 88.8539 45.6447 78.271C52.8461 71.3044 55.7882 71.2065 54.4454 76.6809Z" fill="#FFC4C0"/>
<path d="M27.0077 138.352L44.3585 116.69C44.3585 116.69 39.1786 114.827 39.0646 113.622C38.9501 112.418 51.4958 86.7201 54.2113 79.1665C56.9268 71.6129 54.8201 70.0427 46.6883 76.526C38.5566 83.0098 8.36989 124.997 12.8431 134.346C15.9261 140.79 27.0077 138.352 27.0077 138.352Z" fill="#37474F"/>
<path d="M39.0558 113.76C38.2811 113.924 37.551 114.272 36.8258 114.584C36.0981 114.898 35.3768 115.228 34.6579 115.562C33.2446 116.217 31.8314 116.895 30.4651 117.643C29.1042 118.389 27.7662 119.19 26.4494 120.01C26.1411 120.202 25.8313 120.394 25.5215 120.589C25.3967 120.629 25.2729 120.672 25.1501 120.715C24.6284 120.896 24.1127 121.094 23.6106 121.324C22.6377 121.77 21.7065 122.297 20.8007 122.865C20.7351 122.907 20.7982 123.004 20.8648 122.966C21.8019 122.432 22.7855 121.987 23.7926 121.599C23.9243 121.549 24.0578 121.504 24.1895 121.454C23.6639 121.807 23.1462 122.171 22.6534 122.562C21.3346 123.608 20.0793 124.675 18.8971 125.877C18.8427 125.932 18.9298 126.011 18.9846 125.957C21.1334 123.882 23.844 122.388 26.4347 120.932C29.1178 119.424 31.73 117.791 34.4191 116.295C35.1898 115.867 35.9689 115.456 36.7602 115.068C37.5466 114.681 38.38 114.367 39.1204 113.899C39.1997 113.849 39.1385 113.743 39.0558 113.76Z" fill="#263238"/>
<path d="M41.3925 109.928L38.791 129.294L87.1776 129.63C87.1776 129.63 79.8411 90.0491 69.6423 76.9689C64.5412 70.4267 57.7063 70.5977 52.8753 75.5985C51.8217 76.6893 41.1488 91.8609 39.2716 98.1259C37.6288 103.655 41.3925 109.928 41.3925 109.928Z" fill="#EBEBEB"/>
<path d="M55.2923 77.8711C54.2358 80.5364 53.2076 83.2115 52.1834 85.887C51.1665 88.565 50.1819 91.2557 49.2678 93.9654C48.4143 96.6784 47.3651 99.4231 47.7728 102.248C47.921 103.649 48.268 105.031 48.7427 106.367C49.2188 107.7 49.8129 109.008 50.5259 110.222L50.565 110.289L50.5567 110.358L49.259 121.182C48.8215 124.789 48.3644 128.395 47.8951 131.998C48.2425 128.381 48.6022 124.764 48.9815 121.151L50.1339 110.31L50.1648 110.445C49.4165 109.192 48.8122 107.881 48.3145 106.52C47.8207 105.16 47.4542 103.747 47.2907 102.299C47.1219 100.856 47.2198 99.3579 47.5956 97.9563C47.9563 96.5566 48.3938 95.1872 48.8572 93.828C49.7772 91.1066 50.8416 88.4418 51.9123 85.7818C52.985 83.1219 54.1193 80.4872 55.2923 77.8711Z" fill="#263238"/>
<path d="M48.6295 88.3611C48.5693 88.7459 48.8042 89.1133 49.1546 89.181C49.505 89.2487 49.8378 88.991 49.8984 88.6056C49.9586 88.2208 49.7237 87.8534 49.3734 87.7862C49.023 87.7185 48.6897 87.9757 48.6295 88.3611Z" fill="#263238"/>
<path d="M45.736 96.2048C45.6758 96.5902 45.9107 96.957 46.2611 97.0247C46.6114 97.0924 46.9442 96.8347 47.0049 96.4494C47.0651 96.064 46.8302 95.6972 46.4798 95.6299C46.1294 95.5622 45.7967 95.8199 45.736 96.2048Z" fill="#263238"/>
<path d="M45.3707 104.203C45.3105 104.589 45.5454 104.955 45.8958 105.023C46.2462 105.091 46.579 104.833 46.6392 104.448C46.6994 104.062 46.4645 103.696 46.1141 103.628C45.7642 103.561 45.4309 103.818 45.3707 104.203Z" fill="#263238"/>
<path d="M47.6041 110.824C47.5439 111.209 47.7789 111.577 48.1292 111.644C48.4796 111.712 48.8124 111.454 48.8731 111.069C48.9332 110.684 48.6984 110.317 48.348 110.249C47.9976 110.181 47.6643 110.439 47.6041 110.824Z" fill="#263238"/>
<path d="M46.735 118.053C46.6748 118.438 46.9097 118.805 47.2601 118.873C47.6105 118.941 47.9432 118.683 48.0039 118.298C48.0641 117.912 47.8292 117.545 47.4788 117.478C47.1285 117.41 46.7957 117.668 46.735 118.053Z" fill="#263238"/>
<path d="M45.9451 125.19C45.8844 125.574 46.1198 125.942 46.4702 126.009C46.8205 126.077 47.1533 125.819 47.214 125.434C47.2742 125.049 47.0393 124.682 46.6889 124.614C46.338 124.547 46.0053 124.804 45.9451 125.19Z" fill="#263238"/>
<path d="M37.084 130.224C37.084 130.224 73.0398 131.773 88.257 129.978C88.257 129.978 77.8473 86.2366 66.7613 74.4446C61.7165 69.0784 56.7857 69.8983 52.607 73.3504C51.5647 74.2132 38.6392 90.5447 37.5445 96.2368C36.577 101.267 40.6837 106.85 40.6837 106.85L37.084 130.224Z" fill="#EBEBEB"/>
<path d="M56.7565 83.702L54.983 79.5547L51.6152 82.7661L52.1814 85.7009L55.3006 86.0404L56.7565 83.702Z" fill="#F37435"/>
<path d="M55.2997 86.0407L54.5143 115.775L47.7939 128.929L43.3975 115.786L52.1805 85.7012L55.2997 86.0407Z" fill="#F37435"/>
<path d="M53.017 72.8289C53.017 72.8289 47.4828 87.6531 47.1475 91.4599C46.8123 95.2666 48.5295 109.56 48.5295 109.56C48.5295 109.56 56.9499 94.4701 58.9916 89.5896C62.1621 82.0097 62.8673 71.457 62.8673 71.457C62.8673 71.457 66.0252 72.8898 70.1725 78.5474C75.7214 86.1166 85.7366 114.567 89.0158 130.414L51.1486 135.828L47.3873 129.63L44.8045 135.828L35.8242 130.846L40.6836 106.851C40.6836 106.851 35.9867 101.761 37.9568 94.8779C40.0998 87.3925 53.017 72.8289 53.017 72.8289Z" fill="#37474F"/>
<path d="M48.519 109.526L42.9912 92.3989L46.7838 87.8599L43.4913 87.2173C43.4913 87.2173 52.1095 73.9058 53.0055 72.8457C52.7956 73.4079 47.4776 87.7235 47.1468 91.4591C46.8244 95.1539 48.43 108.755 48.519 109.526Z" fill="#263238"/>
<path d="M60.5338 88.9923L62.1639 94.7366L48.5342 109.55C48.7842 109.092 56.983 94.3912 58.9923 89.5867C62.1639 82.0112 62.8656 71.4551 62.8656 71.4551L64.3425 87.9235L60.5338 88.9923Z" fill="#263238"/>
<path d="M40.3794 89.3627C41.1556 88.1988 41.9513 87.035 42.7754 85.9091C42.9095 85.5086 43.0724 85.1174 43.2256 84.7262C43.4844 84.1636 43.7335 83.5911 44.0687 83.0664C43.9156 83.6676 43.6758 84.24 43.4458 84.8125C43.369 84.9747 43.3019 85.1272 43.2349 85.2894C44.059 84.1733 44.9119 83.0762 45.7937 82.0078C44.174 84.5835 42.4108 87.0642 40.7817 89.6209C39.9576 90.8895 39.1619 92.1776 38.5106 93.5324C38.2967 93.9679 38.1171 94.419 37.9566 94.8765C37.6341 96.0131 37.0185 98.372 38.2874 101.969C38.7127 103.175 39.0401 104.411 39.6567 105.533C39.7027 105.616 39.5725 105.688 39.527 105.604C38.9055 104.473 38.3662 103.202 37.8832 102.003C37.4095 100.827 37.1771 99.5129 37.1017 98.2511C36.8825 94.6017 38.7406 92.1717 40.3794 89.3627Z" fill="#263238"/>
<path d="M48.5294 109.559C48.5098 111.235 48.4501 112.91 48.384 114.584C48.319 116.259 48.2211 117.931 48.1413 119.604C48.0317 121.276 47.9382 122.949 47.8139 124.619C47.6892 126.29 47.559 127.961 47.3877 129.629C47.4068 127.952 47.4665 126.277 47.5321 124.603C47.5981 122.929 47.6946 121.256 47.7753 119.583C47.8859 117.912 47.9784 116.239 48.1036 114.568C48.2284 112.897 48.3586 111.227 48.5294 109.559Z" fill="#263238"/>
<path d="M51.8949 113.911C51.9062 114.43 51.4824 114.953 50.8971 114.996C50.6128 115.019 50.3075 114.926 50.0799 114.725C49.8524 114.525 49.7173 114.22 49.7158 113.911C49.7168 113.603 49.8519 113.298 50.0794 113.097C50.3065 112.895 50.6123 112.802 50.8971 112.826C51.4829 112.868 51.9057 113.392 51.8949 113.911ZM51.8949 113.911C51.893 113.651 51.778 113.394 51.5842 113.227C51.3904 113.059 51.1335 112.987 50.8967 113.009C50.4093 113.055 50.074 113.49 50.0819 113.911C50.0735 114.332 50.4083 114.769 50.8967 114.814C51.1335 114.837 51.3904 114.764 51.5842 114.596C51.778 114.428 51.893 114.172 51.8949 113.911Z" fill="#263238"/>
<path d="M51.581 120.118C51.5922 120.637 51.1684 121.16 50.5832 121.202C50.2988 121.226 49.9935 121.132 49.7664 120.931C49.5389 120.731 49.4033 120.426 49.4023 120.118C49.4033 119.81 49.5384 119.505 49.7659 119.304C49.9925 119.102 50.2989 119.009 50.5837 119.033C51.1694 119.075 51.5917 119.599 51.581 120.118ZM51.581 120.118C51.579 119.857 51.4645 119.601 51.2707 119.433C51.0769 119.266 50.82 119.193 50.5832 119.216C50.0958 119.261 49.7605 119.697 49.7684 120.118C49.7601 120.539 50.0948 120.976 50.5832 121.02C50.82 121.043 51.0774 120.97 51.2707 120.803C51.4645 120.635 51.579 120.378 51.581 120.118Z" fill="#263238"/>
<path d="M51.2689 126.325C51.2802 126.844 50.8569 127.367 50.2712 127.409C49.9868 127.433 49.6815 127.339 49.4539 127.138C49.2264 126.938 49.0908 126.633 49.0898 126.325C49.0908 126.017 49.2259 125.712 49.4534 125.511C49.6805 125.31 49.9864 125.216 50.2712 125.24C50.8574 125.282 51.2802 125.806 51.2689 126.325ZM51.2689 126.325C51.267 126.064 51.152 125.808 50.9582 125.64C50.7644 125.473 50.5075 125.4 50.2707 125.423C49.7833 125.468 49.448 125.904 49.4559 126.325C49.4476 126.746 49.7823 127.183 50.2707 127.228C50.5075 127.25 50.7644 127.177 50.9582 127.009C51.1525 126.842 51.267 126.585 51.2689 126.325Z" fill="#263238"/>
<path d="M64.0049 115.236L77.3483 112.832L77.7706 114.546L64.3195 116.973L64.0049 115.236Z" fill="#263238"/>
<path d="M62.7559 72.9861C62.5396 73.8382 58.3413 79.3179 54.4176 79.066C53.1399 78.9818 53.2906 72.0181 53.2906 72.0181L53.1835 71.5012L51.6924 64.2691L60.2885 58.9882L61.5295 58.291C61.5295 58.291 61.8065 60.2967 62.1261 62.7969C62.1417 62.9128 62.1569 63.0288 62.172 63.153C62.1936 63.2938 62.2161 63.4268 62.2303 63.5593C62.2831 63.932 62.335 64.3135 62.3786 64.6939C62.4133 64.9833 62.4485 65.2649 62.4735 65.5699C62.5068 65.8758 62.5327 66.173 62.566 66.4784C62.8273 69.5004 62.8425 72.6246 62.7559 72.9861Z" fill="#FFC4C0"/>
<path d="M62.126 62.7969C59.9518 68.4939 55.3097 70.751 53.1835 71.5012L51.6924 64.2691L60.2885 58.9882L61.5295 58.291C61.5295 58.291 61.8065 60.2962 62.126 62.7969Z" fill="#263238"/>
<path d="M42.0776 51.7807C39.8877 64.5534 47.325 67.3015 50.0918 67.7687C52.6037 68.1926 61.2111 69.3189 64.7149 56.8395C68.2188 44.3605 62.9459 39.309 57.2522 38.037C51.5589 36.764 44.2679 39.0075 42.0776 51.7807Z" fill="#FFC4C0"/>
<path d="M46.2692 48.6425C46.5765 48.6474 46.8614 48.6011 47.1658 48.5743C47.5093 48.5446 47.7863 48.5558 48.0667 48.3312C48.2169 48.2109 48.2438 47.9298 48.1401 47.7734C47.8983 47.409 47.4682 47.3413 47.0532 47.3603C46.603 47.3813 46.2609 47.5118 45.9252 47.8105C45.6003 48.1008 45.8635 48.6362 46.2692 48.6425Z" fill="#263238"/>
<path d="M55.0968 50.274C54.7988 50.1989 54.536 50.0801 54.2492 49.9758C53.9253 49.8579 53.6552 49.797 53.4433 49.5076C53.3297 49.3527 53.3772 49.074 53.5182 48.9498C53.8465 48.6604 54.2796 48.7067 54.6755 48.8329C55.1051 48.9698 55.4007 49.1851 55.6469 49.5602C55.8847 49.9242 55.4903 50.3724 55.0968 50.274Z" fill="#263238"/>
<path d="M52.939 53.099C52.9508 53.0668 53.0007 53.1511 52.9943 53.1867C52.8299 54.0538 52.7873 55.0749 53.5341 55.4876C53.5571 55.5002 53.5478 55.5436 53.5194 55.5353C52.574 55.2489 52.6435 53.8945 52.939 53.099Z" fill="#263238"/>
<path d="M53.8637 52.3109C55.2888 52.4239 54.9575 55.253 53.6372 55.1482C52.3379 55.0454 52.6692 52.2164 53.8637 52.3109Z" fill="#263238"/>
<path d="M54.4045 52.5238C54.634 52.7124 54.8439 53.0237 55.1395 53.0875C55.4815 53.162 55.7781 52.896 56.0374 52.6373C56.0644 52.6105 56.0859 52.6383 56.082 52.6758C56.0267 53.219 55.7521 53.7505 55.159 53.7637C54.6178 53.7754 54.2919 53.2512 54.22 52.6904C54.2063 52.5862 54.312 52.4478 54.4045 52.5238Z" fill="#263238"/>
<path d="M47.5459 52.0659C47.5424 52.0318 47.4724 52.1 47.4695 52.1361C47.4015 53.0159 47.1749 54.0127 46.3459 54.2178C46.3205 54.2241 46.318 54.2684 46.3479 54.2675C47.3354 54.2368 47.6232 52.9107 47.5459 52.0659Z" fill="#263238"/>
<path d="M46.8581 51.0658C45.4527 50.8052 45.0328 53.6225 46.3345 53.8637C47.6157 54.1014 48.036 51.2846 46.8581 51.0658Z" fill="#263238"/>
<path d="M46.2401 51.1643C45.994 51.2807 45.7326 51.519 45.463 51.4971C45.1503 51.4717 44.9668 51.1331 44.8126 50.8116C44.7965 50.7785 44.7711 50.7989 44.7642 50.836C44.6693 51.3723 44.7642 51.9594 45.2683 52.1396C45.7283 52.3043 46.1452 51.8936 46.3541 51.3762C46.3928 51.2808 46.339 51.118 46.2401 51.1643Z" fill="#263238"/>
<path d="M51.1886 59.8087C50.9625 60.0002 50.731 60.2686 50.408 60.273C50.0982 60.2769 49.7479 60.1132 49.4738 59.9846C49.4464 59.9719 49.4161 59.9992 49.4322 60.027C49.6378 60.3811 50.1056 60.6262 50.5201 60.5843C50.9253 60.5429 51.1479 60.2126 51.2708 59.855C51.2884 59.8043 51.2218 59.7809 51.1886 59.8087Z" fill="#263238"/>
<path d="M47.9213 56.1747C47.9213 56.1747 47.5714 57.4584 47.4912 58.0747C47.4843 58.1322 47.6302 58.1789 47.8391 58.2184C47.8489 58.2228 47.8538 58.2277 47.8631 58.2223C48.9348 58.5321 50.0843 58.2973 50.8634 57.494C50.9138 57.4394 50.8433 57.3658 50.7821 57.397C49.8885 57.8891 48.9666 57.9275 47.9952 57.8199C47.9737 57.6435 48.6686 55.6412 48.5712 55.6213C48.2365 55.5492 47.5401 55.6929 47.1242 55.7582C47.776 53.0631 48.856 50.4938 49.4643 47.8007C49.4843 47.7042 49.3478 47.657 49.3077 47.7403C47.984 50.353 47.1657 53.4382 46.4209 56.2039C46.325 56.5474 47.66 56.2478 47.9213 56.1747Z" fill="#263238"/>
<path d="M48.0596 58.0578C48.0596 58.0578 48.5073 58.9464 49.26 59.3702C49.537 59.5271 49.8482 59.624 50.1971 59.5933C50.914 59.5329 51.0407 58.9098 51.0089 58.352C50.9845 57.8936 50.8455 57.4785 50.8455 57.4785C50.8455 57.4785 49.6813 58.2375 48.0596 58.0578Z" fill="#263238"/>
<path d="M49.2588 59.3688C49.5358 59.5257 49.847 59.6226 50.1959 59.592C50.9128 59.5315 51.0396 58.9084 51.0078 58.3506C50.26 58.298 49.4457 58.6683 49.2588 59.3688Z" fill="#FF9CBD"/>
<path d="M51.3588 39.8501C51.3588 39.8501 50.7314 41.754 51.3182 43.1906C52.5249 46.1439 56.0469 45.5953 57.1675 46.8011C58.2177 47.9318 57.6965 50.1143 58.6415 51.2397C59.95 52.7972 61.884 52.3383 62.0548 53.3453C62.2256 54.3518 62.6988 57.552 63.9457 58.0294C65.1926 58.5069 72.2854 37.8342 55.6294 37.5068C55.6294 37.5068 53.4043 36.4448 49.7611 38.0076C45.7405 39.7327 43.6592 46.0226 43.6592 46.0226C43.6592 46.0226 43.7473 45.9407 44.3458 45.4755C45.1899 44.8193 45.5388 44.1864 46.154 43.7655C47.12 43.1039 47.6108 43.4055 48.612 42.7649C50.1393 41.7886 51.3588 39.8501 51.3588 39.8501Z" fill="#263238"/>
<path d="M51.6667 38.9512C51.3598 39.7604 51.1396 40.6022 51.03 41.4513C50.9135 42.2907 50.9052 43.1779 51.237 43.9311C51.5742 44.6643 52.2975 45.1933 53.055 45.5207C53.8282 45.8573 54.6944 45.9913 55.5243 46.3806C55.929 46.5886 56.3264 46.8604 56.5882 47.2794C56.8441 47.692 56.9302 48.151 57.0007 48.5792C57.126 49.4381 57.2557 50.2848 57.7847 50.9235C58.3039 51.5612 59.105 51.9748 59.9565 51.987C60.7933 52.0381 61.7328 51.8593 62.5275 52.2739C61.701 51.9246 60.829 52.1716 59.9511 52.1862C59.0531 52.2159 58.1483 51.8101 57.5439 51.1261C56.9028 50.4334 56.7717 49.4683 56.6322 48.6415C56.5588 48.2221 56.4663 47.8114 56.2559 47.4869C56.0538 47.1678 55.7073 46.9257 55.3423 46.7474C54.6009 46.382 53.7239 46.2281 52.9047 45.8617C52.4952 45.6805 52.1007 45.4447 51.7591 45.1461C51.423 44.8552 51.0985 44.4918 50.9439 44.0538C50.6121 43.1906 50.6733 42.2727 50.8294 41.4187C51.01 40.5613 51.2977 39.735 51.6667 38.9512Z" fill="#263238"/>
<path d="M51.3043 39.6836C51.0973 40.4636 50.7753 41.2094 50.3628 41.9158C49.9571 42.6217 49.3542 43.2653 48.5864 43.6394C48.2023 43.8314 47.7726 43.9162 47.411 44.015C47.064 44.1154 46.6916 44.3059 46.4778 44.5602C46.2438 44.853 46.0168 45.2252 45.6967 45.4936C45.3757 45.7616 44.9974 45.9477 44.6055 46.0431C44.9651 45.8605 45.3038 45.6456 45.5558 45.3494C45.8284 45.0683 45.9928 44.7278 46.2243 44.3707C46.4968 43.9795 46.8918 43.8017 47.295 43.6497C47.7021 43.522 48.0711 43.4519 48.4058 43.2755C49.0895 42.9369 49.6385 42.3835 50.0848 41.7361C50.5424 41.0954 50.929 40.3949 51.3043 39.6836Z" fill="#263238"/>
<path d="M52.4681 58.0886C50.2782 57.2843 49.1536 54.8567 49.9606 52.6771V52.6766C50.7685 50.496 53.2065 49.3765 55.3969 50.1804C57.5868 50.9842 58.7118 53.4113 57.9044 55.5924C57.2217 57.4363 55.3719 58.5213 53.4933 58.3264C53.1497 58.2908 52.8062 58.2124 52.4681 58.0886ZM50.491 52.8715C49.7922 54.7608 50.7666 56.8634 52.6638 57.5601C54.5596 58.2582 56.6731 57.2858 57.3729 55.3975C58.0717 53.5082 57.0974 51.4051 55.2002 50.7089C54.9075 50.6018 54.6095 50.534 54.3125 50.5029C52.6849 50.3338 51.0827 51.2745 50.491 52.8715Z" fill="#EBEBEB"/>
<path d="M43.7508 56.1138C42.0562 55.7348 41.0931 53.582 41.6035 51.3147C41.8472 50.2322 42.387 49.2807 43.124 48.6347C43.8859 47.9668 44.7643 47.6998 45.6055 47.8898C46.4438 48.0769 47.1275 48.6912 47.5287 49.6193C47.9183 50.5157 47.998 51.6065 47.7533 52.689C47.2694 54.8345 45.6359 56.3252 44.0249 56.1581C43.9334 56.1489 43.8424 56.1338 43.7508 56.1138ZM43.4983 49.0576C42.8509 49.6256 42.3738 50.4709 42.1555 51.4379C41.7136 53.4017 42.4844 55.253 43.8752 55.5633C45.2708 55.8766 46.758 54.5295 47.2018 52.5652C47.4196 51.5977 47.3511 50.6307 47.01 49.8419C46.6807 49.0844 46.138 48.586 45.4812 48.4394C45.4108 48.4233 45.3403 48.4121 45.2693 48.4048C44.6748 48.3439 44.0538 48.5704 43.4983 49.0576Z" fill="#EBEBEB"/>
<path d="M49.9906 53.1835L50.4408 52.8415C49.9323 52.1779 48.6424 51.15 47.3916 51.9991L47.7107 52.4644C48.8298 51.7025 49.9436 53.1235 49.9906 53.1835Z" fill="#EBEBEB"/>
<path d="M68.1567 58.3519L68.7043 58.2092C68.6368 57.9549 68.0163 55.7124 66.8281 55.2374C65.7168 54.7965 58.1591 53.8334 57.838 53.793L57.7666 54.3518C59.934 54.626 65.7594 55.4177 66.6167 55.7607C67.4016 56.0739 67.9943 57.7371 68.1567 58.3519Z" fill="#EBEBEB"/>
<path d="M61.2823 56.3083C61.2823 56.3083 64.5707 52.6156 66.286 53.8286C68.0007 55.0412 65.202 60.6208 62.9593 61.1698C60.717 61.7189 60.166 59.6625 60.166 59.6625L61.2823 56.3083Z" fill="#FFC4C0"/>
<path d="M65.4431 55.4088C65.4778 55.4098 65.4793 55.459 65.448 55.4673C63.8698 55.9018 62.9146 57.2016 62.1908 58.5803C62.7037 58.0766 63.3496 57.8427 64.0352 58.46C64.0714 58.4926 64.0264 58.5491 63.9848 58.5355C63.3824 58.3328 62.9249 58.3879 62.4507 58.8322C62.1145 59.1469 61.8615 59.5644 61.6031 59.9424C61.517 60.0686 61.2821 59.9688 61.3515 59.8202C61.3564 59.809 61.3628 59.7978 61.3677 59.787C61.5522 57.869 63.3574 55.3635 65.4431 55.4088Z" fill="#263238"/>
<path d="M53.2145 72.5922L55.2669 78.4305L62.7531 71.498L64.6753 73.9174C64.6753 73.9174 57.1509 85.1277 57.1303 84.605L54.9811 79.5559L51.3984 82.8399L52.0689 74.2204L53.2145 72.5922Z" fill="#EBEBEB"/>
<path d="M51.4881 78.5603C51.6467 77.1407 51.7665 75.707 51.9907 74.2966C51.9985 74.2464 52.0788 74.2274 52.0885 74.2873C52.3127 75.6748 51.677 81.1 51.6242 82.4051C51.6291 82.4007 51.6349 82.3954 51.6398 82.391C51.7896 82.2487 54.9533 79.5089 54.9812 79.5556C55.4603 80.3634 57.0385 84.0405 57.1432 84.3738C58.3333 82.5927 62.879 76.1284 64.2683 74.4559C64.3084 74.4081 64.3838 74.4525 64.3515 74.509C63.2856 76.3982 57.2631 85.1079 57.1779 85.0787C57.1172 85.1211 55.1539 80.5909 54.9332 79.7417C54.3915 80.3453 51.1828 83.454 51.1818 83.2416C51.1764 81.8108 51.3291 79.9814 51.4881 78.5603Z" fill="#263238"/>
<path d="M71.0766 127.416H38.791V129.293H71.0766V127.416Z" fill="#C7C7C7"/>
<path d="M58.4139 127.416H38.791V129.293H58.4139V127.416Z" fill="#A6A6A6"/>
<path d="M55.0259 129.321L14.1623 129.323L8.31836 101.558L49.1815 101.557L55.0259 129.321Z" fill="#C7C7C7"/>
<path d="M34.1598 115.44C34.3046 116.814 33.3087 117.928 31.9351 117.928C30.5615 117.928 29.3302 116.814 29.1849 115.44C29.04 114.065 30.0359 112.951 31.41 112.951C32.7837 112.952 34.0144 114.065 34.1598 115.44Z" fill="white"/>
<path d="M21.792 131.221C24.6861 132.78 28.186 136.505 30.5961 136.922C32.7718 137.299 33.6375 135.529 33.6375 135.529C33.6375 135.529 34.7165 138.001 36.9661 138.021C38.1234 138.03 39.1565 136.199 39.1565 136.199C39.1565 136.199 40.1083 138.142 42.1098 138.037C43.7046 137.952 44.5008 136.129 44.5008 136.129C44.5008 136.129 46.2865 137.57 47.8838 136.966C51.1224 135.741 51.8442 122.113 46.9134 119.743C44.6153 118.639 44.6202 121.977 44.6202 121.977C44.6202 121.977 43.4482 117.179 40.63 116.959C37.8117 116.738 38.0814 121.075 38.0814 121.075C38.0814 121.075 36.9049 116.435 33.9595 116.501C30.8936 116.569 31.9096 120.86 31.9096 120.86C31.9096 120.86 30.0064 117.722 27.7632 118.286C24.0592 119.217 28.2623 126.331 27.3898 129.289H22.4923L21.792 131.221Z" fill="#FFC4C0"/>
<path d="M25.9591 133.885C23.0894 132.648 21.7173 134.685 18.7209 134.298C15.3928 133.867 16.4738 129.976 22.3197 129.287L27.3899 129.289L25.9591 133.885Z" fill="#FFC4C0"/>
<path d="M44.6684 135.859C44.6625 135.904 44.7247 135.921 44.7384 135.877C46.0729 131.452 46.1771 126.183 44.6415 121.794C44.5911 121.65 44.3342 121.669 44.3591 121.838C45.0731 126.663 45.3202 131.002 44.6684 135.859Z" fill="#263238"/>
<path d="M39.1814 136.266C39.1741 136.319 39.2621 136.332 39.2783 136.277C40.6284 131.71 40.5819 125.773 38.2134 120.921C38.1322 120.755 37.8919 120.687 37.9707 120.885C39.2998 124.23 39.7907 131.897 39.1814 136.266Z" fill="#263238"/>
<path d="M31.6251 120.56C33.7156 125.3 34.0694 130.229 33.7019 135.345C33.697 135.411 33.7925 135.411 33.8115 135.356C34.6762 132.903 34.5691 129.618 34.2686 127.069C33.9809 124.627 33.2282 122.482 31.7919 120.487C31.7362 120.41 31.5806 120.459 31.6251 120.56Z" fill="#263238"/>
<path d="M64.962 84.1448C68.6968 97.1251 76.6979 112.921 82.4117 117.472C85.8895 120.242 97.0348 121.015 97.5834 113.81C98.1324 106.605 74.7845 81.117 70.2877 77.1514C66.1903 73.5386 61.444 71.9177 64.962 84.1448Z" fill="#FFC4C0"/>
<path d="M64.5592 84.4267C68.3386 96.665 76.8549 113.18 82.5682 117.73C86.0461 120.5 97.0347 121.015 97.5833 113.811C98.1324 106.606 73.8595 79.2607 69.951 76.2353C65.6295 72.8909 60.8048 72.2693 64.5592 84.4267Z" fill="#37474F"/>
<path d="M92.0356 119.261C90.5097 119.478 89.004 119.512 87.4811 119.26C86.0037 119.016 84.5831 118.49 83.2907 117.738C80.5605 116.151 78.7431 113.484 77.1287 110.856C75.3596 107.976 73.7031 105.028 72.1607 102.022C70.6158 99.0124 69.201 95.9388 67.8322 92.8462C67.1427 91.2883 66.5134 89.7069 65.8601 88.1338C65.2117 86.5734 64.5819 85.0057 64.0133 83.4146C63.8704 83.0146 63.7348 82.6117 63.5993 82.2088C63.5866 82.1713 63.5278 82.1874 63.5396 82.2254C64.0475 83.8711 64.5305 85.5294 65.0781 87.1619C65.1491 87.3738 65.2269 87.5833 65.2993 87.7948C64.7278 86.5637 64.1415 85.3399 63.5303 84.1278C63.4936 84.0557 63.3933 84.12 63.4236 84.1906C63.9668 85.4476 64.5354 86.6928 65.1187 87.9316C65.4055 88.5406 65.6972 89.1476 65.9883 89.7551C66.2653 90.5127 66.5496 91.2673 66.8452 92.0185C68.1112 95.2349 69.5245 98.38 71.0796 101.468C72.6324 104.553 74.306 107.576 76.0946 110.532C77.7423 113.253 79.5133 116.052 82.1965 117.879C84.7015 119.584 87.9988 120.316 90.9859 119.7C91.3573 119.624 91.717 119.524 92.0742 119.399C92.1638 119.367 92.1251 119.249 92.0356 119.261Z" fill="#263238"/>
<path d="M89.555 66.4939C87.7914 60.7721 84.8023 52.875 82.4226 51.5036C79.9254 50.0645 70.9417 45.3545 68.4993 44.9302C66.0569 44.5059 57.0918 46.247 55.3756 47.6428C54.0009 48.7608 55.9104 51.8997 60.9249 51.9348C65.6135 51.9679 66.7361 51.7462 68.0549 52.078C69.4006 52.4166 73.0841 55.9822 72.5507 57.9095C72.236 59.0451 69.3478 60.7843 67.2856 60.2284C65.2235 59.6725 64.143 57.5124 61.657 56.0801C59.171 54.6478 55.334 55.4892 55.2797 56.5663C55.2253 57.6435 56.5833 57.9236 59.1397 61.1428C60.784 63.2128 61.7471 67.1092 65.2734 70.5584C67.0454 72.2913 70.4278 77.1192 70.4278 77.1192L89.555 66.4939Z" fill="#FFC4C0"/>
<path d="M82.4235 51.503C80.0824 48.8825 74.4449 44.3844 69.4153 43.3365C66.0157 42.6282 55.8634 49.7389 56.525 51.7841C57.1861 53.8292 59.0687 53.534 61.8018 52.7565C62.7976 52.473 67.8562 49.6917 68.9523 50.6655C70.5291 52.0662 73.0923 57.3057 73.0923 57.3057L82.4235 51.503Z" fill="#FFC4C0"/>
<path d="M56.665 50.9229C57.6628 48.4598 60.4605 46.7819 63.2841 45.3579C63.3282 45.336 63.3654 45.4018 63.3218 45.4242C62.603 45.7876 58.1116 48.7886 56.7037 50.9531C56.6876 50.978 56.6548 50.9478 56.665 50.9229Z" fill="#263238"/>
<path d="M82.4236 51.5045C80.0825 48.884 74.445 44.3859 69.4154 43.338C66.0158 42.6296 58.4067 50.8648 59.0678 52.91C59.7289 54.9551 62.4601 54.6872 65.2803 53.1721C66.1919 52.6825 69.0625 49.8924 70.1592 50.8668C71.7359 52.2674 75.5911 55.7536 75.5911 55.7536L82.4236 51.5045Z" fill="#FFC4C0"/>
<path d="M73.3408 53.5717C72.966 53.159 72.8373 53.0139 72.4546 52.6075C72.0739 52.2032 71.6863 51.8037 71.2767 51.4281C70.9234 51.1036 70.5715 50.7383 70.1208 50.5502C69.6887 50.37 69.2043 50.389 68.757 50.5034C67.7362 50.7655 66.9062 51.5713 66.1086 52.2144C65.2184 52.9325 63.3295 54.1689 61.744 54.2552C61.3074 54.279 60.8729 54.2756 60.4594 54.1207C60.1907 54.0199 59.8315 53.899 59.6275 53.6535C58.7667 52.6197 59.4004 51.1806 60.1144 50.1191C61.445 48.1407 63.4078 46.5456 65.3417 45.183C65.8169 44.8483 66.2999 44.5258 66.7834 44.2033C67.3339 43.8355 67.9109 43.4755 68.5872 43.3615C69.6692 43.1798 71.6217 43.9904 72.2266 44.233C72.2726 44.2516 72.2921 44.1785 72.2476 44.16C71.515 43.853 69.6467 42.7735 67.9133 43.1423C67.2791 43.2772 66.7345 43.7001 66.1927 44.0435C65.6261 44.4031 65.0706 44.7816 64.525 45.1718C63.4631 45.9318 62.4413 46.7517 61.511 47.6691C60.6321 48.5358 59.7063 49.5311 59.2012 50.6705C58.7633 51.658 58.7951 52.9578 59.5139 53.805C60.1198 54.5192 61.1704 54.546 61.6471 54.5309C62.1232 54.5158 62.5676 54.4349 63.0246 54.2966C63.4973 54.1529 65.1817 53.3588 65.8791 52.9437C66.7658 52.4161 67.5165 51.6429 68.4453 51.1923C68.8886 50.9775 69.399 50.8888 69.8737 51.0574C70.3146 51.2142 70.7179 51.5684 71.0859 51.8471C71.9183 52.4784 72.4678 52.8872 73.1887 53.6472C73.3639 53.8323 73.4974 53.7441 73.3408 53.5717Z" fill="#263238"/>
<path d="M84.2221 53.8292C83.3105 52.5504 81.2248 47.0083 79.8301 45.4308C78.4354 43.8529 72.3801 38.5924 70.0546 39.2359C67.1327 40.0441 71.098 44.8847 73.0128 46.8329C74.9282 48.7816 75.2693 52.5596 75.2693 52.5596L84.2221 53.8292Z" fill="#FFC4C0"/>
<path d="M70.2489 43.5368C70.9154 44.1438 71.5311 44.837 72.1335 45.5069C72.7041 46.1422 73.3456 46.7589 73.8169 47.4731C74.2901 48.1902 74.5778 48.9941 74.7927 49.8198C74.8984 50.2261 74.9781 50.6344 75.0476 51.048C75.1235 51.4991 75.1567 51.9605 75.2404 52.4096C75.2492 52.4574 75.1763 52.4764 75.1665 52.4281C74.9997 51.619 74.7173 50.8039 74.4462 50.024C74.1638 49.2118 73.7772 48.4177 73.304 47.6982C72.3576 46.2581 71.1151 45.0382 70.1555 43.6074C70.1163 43.5489 70.202 43.4939 70.2489 43.5368Z" fill="#263238"/>
<path d="M68.3382 60.3059C67.22 60.2869 66.4532 59.7822 65.7769 59.1728C65.1378 58.5964 64.5349 57.9792 63.8904 57.4077C63.241 56.8324 62.5936 56.2794 61.8052 55.9082C60.9415 55.5019 59.9559 55.3246 59.0198 55.1799C58.1022 55.0381 57.1475 55.0035 56.2598 55.3246C55.5326 55.5877 54.7369 56.2375 55.0349 57.1164C55.1695 57.513 55.4529 57.8681 55.722 58.1789C55.9961 58.4951 56.3014 58.7782 56.6165 59.0505C57.2566 59.6039 57.9422 60.1072 58.529 60.722C59.3124 61.5429 59.7954 62.6049 60.3381 63.5939C60.5388 63.9592 61.8082 66.4438 62.3014 67.2896C62.7194 68.0062 63.1799 68.7024 63.7206 69.3337C64.2344 69.9339 64.83 70.4523 65.4118 70.9848C66.0544 71.5723 66.6622 72.1486 67.1642 72.8643C67.1872 72.8969 67.2337 72.8594 67.219 72.8263C66.6093 71.4442 65.3918 70.4435 64.2927 69.4658C62.8652 68.1962 60.0083 62.0632 59.4666 61.216C58.5647 59.8056 57.0677 59.0329 56.0044 57.7799C55.7602 57.4925 55.3848 57.0774 55.4308 56.6663C55.4763 56.2629 55.8732 55.9842 56.2128 55.8429C57.0565 55.4922 58.0386 55.6101 58.9082 55.7762C59.8067 55.9482 60.7419 56.1002 61.584 56.4733C62.3274 56.8027 63.0242 57.2796 63.6496 57.8009C64.3661 58.3986 65.0531 59.0164 65.8121 59.5601C66.53 60.074 67.3693 60.4618 68.3529 60.3766C68.3989 60.3727 68.3852 60.3064 68.3382 60.3059Z" fill="#263238"/>
<path d="M56.8987 47.0546C57.5412 46.8115 58.1798 46.545 58.8267 46.317C58.8434 46.3112 58.8385 46.2844 58.8209 46.2898C58.0555 46.5139 57.2725 46.6858 56.5047 46.9026C55.8979 47.0741 55.2588 47.3489 54.9564 47.9374C54.6726 48.4898 54.8125 49.1534 55.1458 49.6513C55.5201 50.211 56.1039 50.5433 56.6613 50.8931C56.6922 50.9125 56.7215 50.8672 56.6922 50.8463C55.8495 50.2505 54.5595 49.0871 55.3958 47.9754C55.7589 47.4926 56.3501 47.2622 56.8987 47.0546Z" fill="#263238"/>
<path d="M59.3375 53.2492C58.6343 53.2049 57.8635 53.1191 57.2768 52.6933C57.0287 52.5131 56.8212 52.2724 56.7135 51.983C56.6567 51.8305 56.6244 51.6591 56.6195 51.4963C56.6151 51.3458 56.6205 51.1129 56.7321 50.9994C56.7659 50.9653 56.7003 50.9278 56.6866 50.9697C56.6567 51.0633 56.5887 51.1427 56.5476 51.2313C56.5129 51.3068 56.4899 51.3882 56.4727 51.4691C56.4385 51.6332 56.438 51.7945 56.4684 51.9592C56.5339 52.3172 56.7346 52.6334 57.0091 52.8702C57.6609 53.4324 58.533 53.4674 59.3419 53.3072C59.3752 53.3008 59.3703 53.2511 59.3375 53.2492Z" fill="#263238"/>
<path d="M75.9429 54.3164C75.8138 55.7706 75.5862 57.2141 75.2877 58.6459C75.1448 59.3635 74.9613 60.0733 74.7562 60.7802C74.5492 61.4925 74.2635 62.1701 74.0364 62.8502C73.5554 64.2089 73.201 65.6101 73.1433 67.038C73.0723 68.4673 73.3939 69.8996 73.9904 71.2315C73.6033 70.6114 73.3053 69.9347 73.0841 69.2288C72.8771 68.518 72.7846 67.776 72.7675 67.0341C72.7366 65.5433 73.0954 64.0759 73.5745 62.6914C73.8182 61.9933 74.1015 61.3268 74.3158 60.6433C74.5434 59.9593 74.7288 59.2593 74.9236 58.5602C75.1135 57.8601 75.2843 57.1537 75.4472 56.4449C75.6249 55.739 75.7756 55.0267 75.9429 54.3164Z" fill="#263238"/>
<path d="M70.4283 77.1184C71.4442 82.7428 81.2755 111.068 84.1338 115.491C86.9922 119.914 94.7221 121.523 97.6 114.265C100.477 107.008 91.4468 72.291 89.555 66.4926C88.5019 63.2641 70.0608 75.0835 70.4283 77.1184Z" fill="#FFC4C0"/>
<path d="M67.5479 80.5803L91.5329 69.5293C91.5329 69.5293 99.1249 101.698 98.3487 111.968C97.7918 119.341 88.4235 124.024 82.3437 113.433C76.2639 102.843 67.5479 80.5803 67.5479 80.5803Z" fill="#37474F"/>
<path d="M70.2849 84.8998C73.9043 83.3745 88.4863 76.5965 91.5374 74.9196C91.7488 74.8037 91.7263 74.6419 91.4904 74.7345C80.5341 79.044 73.7022 83.0793 70.2297 84.7556C70.1426 84.7975 70.1929 84.9388 70.2849 84.8998Z" fill="#263238"/>
<path d="M75.9446 103.206C73.9568 98.4905 72.0693 93.7352 70.4256 88.8903C69.9656 87.5349 69.5173 86.1757 69.0847 84.8112C68.6688 83.4992 68.2406 82.1843 67.8833 80.8548C68.3913 80.5669 70.6096 79.3982 70.8552 79.2087C70.9286 79.1522 70.8601 79.026 70.773 79.0498C70.4863 79.1278 67.9279 80.3063 67.3773 80.6405C67.2995 80.6872 68.1026 83.2868 68.4628 84.5271C68.8229 85.7675 69.1973 87.0034 69.5883 88.2345C70.3629 90.6718 71.2017 93.0882 72.0948 95.4851C73.0569 98.0681 74.0801 100.623 75.1778 103.146C76.1193 105.311 78.5035 109.277 75.9446 103.206Z" fill="#263238"/>
<path d="M92.8367 118.963C92.4105 120.765 91.9607 122.539 91.8731 124.389C91.9226 124.479 91.9128 124.815 91.8585 124.724C91.8477 125.022 91.3921 124.967 91.3916 124.674C91.3965 124.482 91.4009 124.29 91.4102 124.104C90.3454 122.788 88.799 121.954 87.5491 120.81C86.5386 119.884 85.8158 118.781 85.4332 117.458C84.3967 113.901 85.3681 110.131 84.1212 106.584C83.0465 103.525 81.1185 100.866 79.4869 98.0944C77.7654 95.1636 76.4945 92.0836 76.3673 88.651C76.266 86.0222 76.5806 82.5195 78.5919 80.5503C80.7236 78.4608 83.3656 80.0266 84.9991 81.89C89.7312 87.2972 91.9211 94.1298 92.8064 101.116C93.2943 104.983 93.8012 108.873 93.6843 112.777C93.6177 114.875 93.3153 116.926 92.8367 118.963Z" fill="#F37435"/>
<path d="M91.8937 125.809C92.1384 122.155 92.1232 118.494 91.764 114.854C91.7704 114.841 91.7816 114.832 91.7821 114.814C91.8418 111.853 92.0782 108.904 91.9612 105.939C91.8345 102.719 91.3603 99.5618 90.6512 96.4201C90.6429 96.384 90.5866 96.3923 90.5935 96.4293C91.1768 99.4941 91.5159 102.622 91.6285 105.739C91.6887 107.412 91.6769 109.086 91.5883 110.758C91.5595 111.301 91.5091 111.849 91.4724 112.398C91.4724 112.396 91.4719 112.394 91.4719 112.393C90.2724 104.06 87.1826 96.1541 82.6223 89.0793C82.5606 88.9834 82.3889 89.0862 82.4495 89.1846C85.7336 94.523 88.155 100.387 89.6524 106.471C87.3769 102.273 83.9396 98.8218 81.3896 94.7885C81.3759 94.7666 81.3392 94.789 81.3509 94.8119C83.6416 99.3017 87.4263 102.843 89.8389 107.267C90.2573 109.07 90.5998 110.89 90.8553 112.721C91.2057 115.235 91.3701 117.765 91.4039 120.298C90.018 117.718 88.5792 115.251 87.4449 112.523C87.4146 112.451 87.3099 112.5 87.3348 112.572C88.2993 115.406 89.5966 118.459 91.4117 120.876C91.4215 122.669 91.3681 124.463 91.2619 126.255C90.9786 131.038 90.1584 135.756 89.7792 140.523C89.7679 140.667 89.9705 140.684 89.9989 140.547C90.9967 135.735 91.5658 130.708 91.8937 125.809Z" fill="#263238"/>
<path d="M86.7927 88.9254C86.778 88.8903 86.7266 88.9142 86.7393 88.9493C87.6167 91.3647 88.1125 93.8123 88.7467 96.2886C88.7755 96.4016 88.94 96.3777 88.9277 96.2593C88.6693 93.747 87.7689 91.241 86.7927 88.9254Z" fill="#263238"/>
<path d="M109.074 99.0475C108.505 100.466 107.799 101.84 107.056 103.175C105.475 106.032 103.827 108.649 103.529 111.975C103.396 113.46 103.349 114.952 102.894 116.383C102.501 117.622 101.863 118.765 101.129 119.834C99.4171 122.317 97.2761 124.458 95.6896 127.034C94.0385 129.713 92.8205 132.659 92.0752 135.711C92.0356 135.878 91.7713 135.833 91.8105 135.666C91.8164 135.652 91.8183 135.642 91.8208 135.628C91.8149 135.62 91.8056 135.611 91.8051 135.593C91.5535 128.461 92.1256 121.273 94.3106 114.441C95.2663 111.453 96.4447 108.482 97.7821 105.642C98.9527 103.165 100.411 100.783 102.467 98.9326C103.8 97.7371 106.692 95.4707 108.59 96.6701C109.501 97.247 109.433 98.1575 109.074 99.0475Z" fill="#F37435"/>
<path d="M101.874 115.216C100.645 117.307 99.1886 119.253 97.7107 121.174C97.0173 122.075 96.3136 122.97 95.6211 123.872C95.2938 124.299 94.9272 124.723 94.6267 125.181C94.8161 124.431 95.0006 123.68 95.1924 122.931C96.1164 119.327 97.0055 115.692 98.3821 112.227C99.7278 108.841 101.517 105.66 103.356 102.52C103.405 102.437 103.271 102.378 103.222 102.458C101.708 104.936 100.172 107.411 98.8989 110.024C98.1878 111.484 97.5898 112.985 97.0643 114.513C97.6833 111.238 98.4247 108.092 99.5067 104.921C99.516 104.893 99.4758 104.872 99.4636 104.901C98.1433 108.011 97.1935 111.508 96.9287 114.879C96.9282 114.885 96.9312 114.89 96.9336 114.895C96.6234 115.821 96.338 116.756 96.0713 117.698C94.9429 121.688 93.9519 125.72 93.0334 129.766C93.049 127.095 93.2179 124.471 93.7244 121.835C93.7361 121.775 93.6451 121.76 93.6304 121.819C92.9644 124.534 92.6639 127.391 92.9385 130.18C92.591 131.718 92.2534 133.259 91.923 134.8C91.2188 138.087 90.3536 141.433 89.9421 144.772C89.9313 144.858 90.0522 144.876 90.0742 144.794C90.5655 142.994 90.8621 141.129 91.2639 139.307C91.6671 137.48 92.0821 135.656 92.5093 133.834C93.1313 131.18 93.7831 128.534 94.4472 125.89C94.891 124.921 95.7489 124.06 96.3914 123.247C97.0966 122.355 97.8022 121.463 98.4883 120.556C99.766 118.868 100.939 117.114 101.935 115.245C101.959 115.206 101.896 115.178 101.874 115.216Z" fill="#263238"/>
<path d="M102.179 112.165C100.625 114.15 99.2151 116.348 98.1053 118.61C98.0911 118.639 98.1361 118.669 98.1547 118.641C99.5259 116.502 100.874 114.346 102.243 112.205C102.265 112.169 102.205 112.132 102.179 112.165Z" fill="#263238"/>
<path d="M71.6832 105.811C72.6115 107.403 73.6715 109.314 73.2726 111.226C73.0201 112.436 72.1305 113.418 71.97 114.652C71.6103 117.376 74.337 119.177 76.3106 120.464C81.2297 123.677 87.9765 126.542 88.8705 133.103C88.9048 133.336 89.308 133.278 89.2787 133.05C89.2787 133.036 89.2738 133.021 89.2689 133.007C89.2787 132.992 89.2929 132.987 89.2929 132.968C89.9295 129.644 89.9153 126.257 89.2004 122.947C88.4663 119.564 86.9841 116.525 85.2341 113.554C82.274 108.526 79.1386 103.378 74.6619 99.5259C73.4224 98.4615 70.885 96.5449 69.8985 98.9501C68.9418 101.287 70.5459 103.871 71.6832 105.811Z" fill="#F37435"/>
<path d="M76.1864 116.472C79.4475 119.987 84.6328 121.957 87.4403 125.894C85.7765 119.86 83.0233 114.434 78.7908 109.72C78.6822 109.599 78.852 109.428 78.9709 109.541C82.0695 112.506 84.3641 115.972 86.0387 119.732C85.2861 117.047 84.2325 114.508 82.9954 111.983C82.9489 111.888 83.0845 111.806 83.1398 111.899C84.7165 114.575 85.7642 117.58 86.4204 120.61C90.1195 129.525 90.4626 139.981 89.6869 149.378C89.6762 149.512 89.4701 149.516 89.4745 149.378C89.6869 141.972 89.5665 134.438 87.7838 127.205C87.7466 127.054 87.705 126.906 87.6668 126.755C84.6127 122.517 79.45 120.553 76.1302 116.528C76.0979 116.489 76.1507 116.434 76.1864 116.472Z" fill="#263238"/>
<path d="M75.429 113.453C77.1413 115.017 78.8267 116.616 80.5419 118.178C80.559 118.194 80.5365 118.224 80.5164 118.211C78.6495 116.954 76.7542 115.292 75.3272 113.554C75.269 113.483 75.3595 113.389 75.429 113.453Z" fill="#263238"/>
<path d="M75.1586 106.678C76.7133 109.159 78.3443 111.486 80.2808 113.693C80.3062 113.722 80.2661 113.763 80.2377 113.736C78.1584 111.742 76.3116 109.331 75.0666 106.732C75.0373 106.671 75.1219 106.62 75.1586 106.678Z" fill="#263238"/>
<path d="M82.8682 156.003H97.8647L95.8436 135.916H85.1775L82.8682 156.003Z" fill="#DBDBDB"/>
<path d="M84.8018 139.182H96.174L95.8447 135.916H85.1766L84.8018 139.182Z" fill="#C7C7C7"/>
<path d="M83.3381 136.898H97.3955V133.691H83.3381V136.898Z" fill="#DBDBDB"/>
</svg>
