<svg width="38" height="55" viewBox="0 0 38 55" fill="none" xmlns="http://www.w3.org/2000/svg">
<path d="M33.3737 49.8428C33.3737 52.6772 31.0537 54.9988 28.2177 54.9988H9.31195C6.47508 54.9988 4.15674 52.6772 4.15674 49.8428V5.15603C4.15674 2.3216 6.47589 0 9.31195 0H28.2177C31.0537 0 33.3737 2.3216 33.3737 5.15603V49.8428Z" fill="#04657B"/>
<path d="M28.2177 0H9.31195C6.47508 0 4.15674 2.3216 4.15674 5.15603V5.80155C4.15674 2.96712 6.47589 0.646341 9.31195 0.646341H28.2177C31.0537 0.646341 33.3737 2.96712 33.3737 5.80155V5.15603C33.3737 2.3216 31.0546 0 28.2177 0Z" fill="#062A54"/>
<path d="M28.0946 53.9833H9.18888C6.35281 53.9833 4.15576 51.4655 4.15576 48.9844V49.8448C4.15576 52.6792 6.47491 55.0009 9.31098 55.0009H28.2167C31.0528 55.0009 33.3727 52.6792 33.3727 49.8448V48.9844C33.3736 51.4655 30.9323 53.9833 28.0946 53.9833Z" fill="#ACBEED"/>
<path d="M31.3977 6.27539H6.13281V45.2883H31.3977V6.27539Z" fill="url(#paint0_linear_1855_28350)"/>
<path d="M30.3662 7.30469H7.16406V44.2557H30.3662V7.30469Z" fill="url(#paint1_linear_1855_28350)"/>
<path d="M7.16406 7.30469V44.2557H30.3662V7.30469H7.16406ZM29.505 43.3961H8.02287V8.1643H29.505V43.3961Z" fill="url(#paint2_linear_1855_28350)"/>
<path opacity="0.6" d="M15.0409 5.12983C14.266 5.12983 13.6367 4.50059 13.6367 3.72645C13.6367 2.95069 14.2668 2.32227 15.0409 2.32227H22.4876C23.2634 2.32227 23.8951 2.94987 23.8951 3.72645C23.8951 4.49977 23.2634 5.12983 22.4876 5.12983H15.0409Z" fill="url(#paint3_linear_1855_28350)"/>
<path d="M23.207 3.72806C23.207 4.12287 22.8847 4.44277 22.4882 4.44277H15.0415C14.6443 4.44277 14.3252 4.12287 14.3252 3.72806C14.3252 3.33082 14.6451 3.01172 15.0415 3.01172H22.4882C22.8847 3.01172 23.207 3.33001 23.207 3.72806Z" fill="white"/>
<path d="M22.4882 3.01172H15.0415C14.6443 3.01172 14.3252 3.33082 14.3252 3.72806C14.3252 4.12287 14.6451 4.44277 15.0415 4.44277H22.4882C22.8847 4.44277 23.207 4.12287 23.207 3.72806C23.207 3.33001 22.8847 3.01172 22.4882 3.01172ZM22.4882 4.09925H15.0415C14.8356 4.09925 14.6679 3.93238 14.6679 3.72806C14.6679 3.5213 14.8356 3.35523 15.0415 3.35523H22.4882C22.6958 3.35523 22.8635 3.5213 22.8635 3.72806C22.8635 3.93157 22.6958 4.09925 22.4882 4.09925Z" fill="url(#paint4_linear_1855_28350)"/>
<path d="M18.7644 53.2178C16.7057 53.2178 15.0312 51.5418 15.0312 49.4839C15.0312 47.4261 16.7057 45.75 18.7644 45.75C20.823 45.75 22.4967 47.4261 22.4967 49.4839C22.4967 51.5418 20.823 53.2178 18.7644 53.2178Z" fill="#C9D8FF"/>
<path d="M18.7638 52.2925C17.2139 52.2925 15.9546 51.0332 15.9546 49.4842C15.9546 47.9359 17.2139 46.6758 18.7638 46.6758C20.3137 46.6758 21.5722 47.9359 21.5722 49.4842C21.5722 51.0332 20.3137 52.2925 18.7638 52.2925ZM18.7638 47.5989C17.7235 47.5989 16.8793 48.4455 16.8793 49.4834C16.8793 50.5221 17.7235 51.3678 18.7638 51.3678C19.8033 51.3678 20.6491 50.5229 20.6491 49.4834C20.6491 48.4455 19.8033 47.5989 18.7638 47.5989Z" fill="white"/>
<path opacity="0.7" d="M9.31195 0C6.47508 0 4.15674 2.3216 4.15674 5.15603V5.80155V45.2883L28.2185 0H9.31195Z" fill="#306173"/>
<path d="M7.50531 16.771H0L7.14957 7.30469H11.7952L7.50531 16.771Z" fill="url(#paint5_linear_1855_28350)"/>
<path d="M15.0107 16.771H7.50537L11.7953 7.30469H16.4401L15.0107 16.771Z" fill="url(#paint6_linear_1855_28350)"/>
<path d="M22.5156 16.771H15.0103L16.4397 7.30469H21.0861L22.5156 16.771Z" fill="url(#paint7_linear_1855_28350)"/>
<path d="M30.0207 16.771H22.5154L21.0859 7.30469H25.7308L30.0207 16.771Z" fill="url(#paint8_linear_1855_28350)"/>
<path d="M37.527 16.771H30.0209L25.731 7.30469H30.3774L37.527 16.771Z" fill="url(#paint9_linear_1855_28350)"/>
<path d="M3.75184 20.5253C5.82434 20.5253 7.50531 18.8451 7.50531 16.7734H0C0 18.8451 1.67933 20.5253 3.75184 20.5253Z" fill="url(#paint10_linear_1855_28350)"/>
<path d="M11.2574 20.5253C13.3299 20.5253 15.01 18.8451 15.01 16.7734H7.50391C7.50472 18.8451 9.18487 20.5253 11.2574 20.5253Z" fill="url(#paint11_linear_1855_28350)"/>
<path d="M18.7629 20.5253C20.8362 20.5253 22.5164 18.8451 22.5164 16.7734H15.0103C15.0111 18.8451 16.6912 20.5253 18.7629 20.5253Z" fill="url(#paint12_linear_1855_28350)"/>
<path d="M26.2693 20.5253C28.3418 20.5253 30.0219 18.8451 30.0219 16.7734H22.5166C22.5166 18.8451 24.1976 20.5253 26.2693 20.5253Z" fill="url(#paint13_linear_1855_28350)"/>
<path d="M33.7758 20.5253C35.8475 20.5253 37.5276 18.8451 37.5276 16.7734H30.0215C30.0215 18.8451 31.7024 20.5253 33.7758 20.5253Z" fill="url(#paint14_linear_1855_28350)"/>
<path d="M14.6146 28.8256V28.8266C14.6629 28.8187 14.7119 28.8222 14.7603 28.8317C14.7671 28.833 14.7739 28.8337 14.7807 28.8354C14.8212 28.8453 14.861 28.8637 14.9005 28.8848L14.8988 28.8793H15.2149V27.2991C15.2149 27.0881 15.2598 26.8884 15.3384 26.7067C15.3755 26.6767 15.4119 26.6519 15.4486 26.6243C15.4857 26.5968 15.5232 26.5665 15.5599 26.5416C15.5895 26.5215 15.6188 26.5056 15.6484 26.4872C15.6926 26.4593 15.7372 26.4303 15.7811 26.4062C15.8083 26.3912 15.8349 26.38 15.8617 26.3664C15.9077 26.3432 15.9536 26.3194 15.9989 26.3004C16.0244 26.2895 16.0496 26.2817 16.0751 26.2718C16.1214 26.2541 16.1676 26.2361 16.2139 26.2218C16.2384 26.2143 16.2626 26.2092 16.2871 26.2027C16.3337 26.1905 16.38 26.1779 16.4263 26.169C16.4501 26.1646 16.4739 26.1619 16.4977 26.1581C16.544 26.151 16.5903 26.1438 16.6362 26.1398C16.6593 26.1377 16.6825 26.1374 16.7056 26.1363C16.7522 26.134 16.7985 26.1316 16.8448 26.1323C16.8669 26.1326 16.889 26.134 16.9112 26.135C16.9581 26.137 17.0047 26.1391 17.0513 26.1438C17.0728 26.1459 17.0942 26.1493 17.116 26.152C17.1633 26.1578 17.2103 26.1646 17.2572 26.1731C17.278 26.1768 17.2987 26.1816 17.3195 26.1857C17.3668 26.1956 17.4144 26.2058 17.4617 26.2177C17.4821 26.2228 17.5022 26.2286 17.5226 26.234C17.5706 26.2469 17.6186 26.2609 17.6666 26.2759C17.686 26.282 17.7054 26.2885 17.7244 26.2949C17.7734 26.3113 17.8224 26.3276 17.8711 26.3456C17.8894 26.3524 17.9078 26.3592 17.9262 26.3664C17.9766 26.3854 18.0269 26.4048 18.0773 26.4252C18.0936 26.432 18.1099 26.4385 18.1263 26.4453C18.1804 26.4678 18.2345 26.4906 18.2889 26.5144C18.2998 26.5192 18.3107 26.5239 18.3216 26.5287C18.4523 26.5862 18.5836 26.6461 18.7156 26.7067C19.7538 27.1844 20.8454 27.6901 22.1837 27.0469C22.1977 27.1293 22.2093 27.213 22.2093 27.2994L22.195 28.8797H22.5325L22.5284 28.8936C22.5713 28.8677 22.6138 28.846 22.6571 28.8347C22.6581 28.8344 22.6588 28.8344 22.6598 28.8344C22.7084 28.8218 22.7578 28.8188 22.8098 28.8273V28.8259C22.8122 28.8262 22.8146 28.8259 22.8166 28.8262C22.9579 28.849 23.0759 28.9474 23.1648 29.0947C23.3805 28.9464 23.5285 28.6598 23.5285 28.3264C23.5285 28.1198 23.47 27.9327 23.3761 27.783C23.5792 27.6302 23.717 27.3522 23.717 27.0306C23.717 26.7672 23.6238 26.5338 23.4792 26.3732C23.5271 26.2452 23.5564 26.103 23.5564 25.9502C23.5564 25.498 23.3192 25.121 23.0018 25.0223C23.0916 24.4697 22.8864 23.9576 22.4675 23.7987C22.3032 23.7364 22.1276 23.7412 21.9561 23.7919C21.7808 23.2743 21.2783 22.8973 20.6784 22.8973C20.6423 22.8973 20.6083 22.9048 20.5729 22.9075C20.3367 22.3671 19.712 21.9785 18.9702 21.9785C18.3713 21.9785 17.8462 22.2317 17.5413 22.6131C17.3542 22.5192 17.1442 22.4607 16.918 22.4607C16.3347 22.4607 15.8427 22.8163 15.6545 23.3114C15.5449 23.2545 15.4269 23.2205 15.302 23.2205C14.7654 23.2205 14.3302 23.7993 14.3302 24.5132C14.3302 24.5204 14.3319 24.5272 14.3319 24.5343C13.9589 24.632 13.6772 25.0689 13.6772 25.5936C13.6772 25.8182 13.7289 26.0268 13.817 26.1996C13.6357 26.3977 13.5176 26.6944 13.5176 27.0309C13.5176 27.3875 13.6489 27.7009 13.8493 27.898C13.8126 28.0296 13.7915 28.1743 13.7915 28.3271C13.7915 28.749 13.9494 29.1104 14.177 29.2883C14.2658 29.0324 14.4186 28.8575 14.6146 28.8256Z" fill="#3C3C3B"/>
<path d="M25.0758 37.2672L20.8039 35.5352C20.8039 36.9994 16.626 36.9994 16.626 35.5352L12.3545 37.2672C11.297 37.6153 10.582 38.6031 10.582 39.7168V43.6317H11.2459H13.1657H13.7013H16.9319H17.8245H19.6062H23.7293H24.2649H26.1847H26.8486V39.7172C26.8483 38.6034 26.1337 37.6153 25.0758 37.2672Z" fill="#F07436"/>
<path d="M20.8042 35.5345V34.3633C20.3867 34.8468 20.024 35.0557 19.422 35.1299C19.2209 35.1554 18.9929 35.1657 18.7272 35.1657C18.7245 35.1657 18.7214 35.1657 18.7187 35.1657C18.7177 35.1657 18.7163 35.1657 18.7153 35.1657C18.7143 35.1657 18.7129 35.1657 18.7119 35.1657C18.7091 35.1657 18.7061 35.1657 18.7034 35.1657C18.4376 35.1657 18.2096 35.1554 18.0082 35.1299C17.4066 35.0557 17.0435 34.8468 16.626 34.3633V35.5345C16.626 36.9984 20.8042 36.9984 20.8042 35.5345Z" fill="#F2C28D"/>
<path d="M21.2133 28.8359H19.3588C19.3336 28.8359 19.3115 28.8581 19.3115 28.8863V29.5213C19.3115 29.9895 19.6889 30.3668 20.1571 30.3668H20.4715C20.9431 30.3668 21.3266 29.9864 21.3266 29.5151V28.9493C21.3266 28.886 21.2763 28.8359 21.2133 28.8359ZM19.5256 29.8214C19.4793 29.7285 19.4507 29.6254 19.4507 29.5148V29.2684L19.7144 28.9931H20.3191L19.5256 29.8214Z" fill="#FFD2A1"/>
<path d="M14.993 29.1934L14.9001 28.8848C14.8606 28.8637 14.8208 28.8453 14.7803 28.8354C14.7735 28.8337 14.7667 28.8331 14.7599 28.8317C14.7112 28.8222 14.6625 28.8188 14.6142 28.8266V28.8256C14.4182 28.8576 14.2658 29.0325 14.177 29.2873C14.0909 29.5351 14.065 29.8583 14.1208 30.2023C14.212 30.7682 14.4948 31.2113 14.8027 31.3276C14.8749 31.3559 14.9504 31.3654 15.0226 31.3528C15.0447 31.3498 15.0665 31.3402 15.0886 31.3341C15.0814 31.2415 15.0188 29.7943 14.993 29.1934Z" fill="#FFD2A1"/>
<path d="M16.2168 28.5216H18.0713C18.2704 28.5216 18.4283 28.6819 18.4317 28.8802H18.9982C19.0016 28.6822 19.1595 28.5216 19.3586 28.5216H21.2131C21.4244 28.5216 21.5925 28.6785 21.6265 28.8802H22.1944L22.2087 27.3C22.2087 27.2136 22.1975 27.1299 22.1832 27.0475C20.8449 27.6906 19.7533 27.185 18.7151 26.7072C18.5831 26.6467 18.4517 26.5864 18.3211 26.5293C18.3102 26.5245 18.2993 26.5197 18.2884 26.515C18.234 26.4915 18.1799 26.4684 18.1258 26.4459C18.1094 26.4391 18.0931 26.4323 18.0768 26.4258C18.0264 26.4054 17.976 26.386 17.9257 26.367C17.9073 26.3602 17.8889 26.353 17.8706 26.3462C17.8216 26.3282 17.7726 26.3115 17.7239 26.2955C17.7045 26.289 17.6854 26.2826 17.666 26.2765C17.6181 26.2615 17.5701 26.2479 17.5221 26.2346C17.5017 26.2292 17.4816 26.2234 17.4612 26.2183C17.4139 26.2064 17.3666 26.1961 17.319 26.1863C17.2982 26.1822 17.2775 26.1774 17.2567 26.1737C17.2097 26.1652 17.1624 26.1587 17.1155 26.1526C17.094 26.1499 17.0726 26.1465 17.0508 26.1444C17.0042 26.1397 16.9573 26.1373 16.9106 26.1356C16.8885 26.1346 16.8664 26.1332 16.8443 26.1328C16.798 26.1325 16.7517 26.1346 16.7051 26.1369C16.682 26.1383 16.6588 26.1386 16.6357 26.1403C16.5898 26.1444 16.5435 26.1516 16.4972 26.1587C16.4734 26.1625 16.4499 26.1648 16.4257 26.1696C16.3795 26.1784 16.3332 26.191 16.2866 26.2033C16.2621 26.2098 16.2379 26.2149 16.2134 26.2223C16.1675 26.2363 16.1212 26.2547 16.0746 26.2724C16.0491 26.2822 16.0239 26.2901 15.9984 26.301C15.9531 26.3203 15.9072 26.3442 15.8612 26.367C15.8343 26.3806 15.8075 26.3918 15.7806 26.4068C15.7367 26.4309 15.6921 26.4602 15.6479 26.4878C15.6183 26.5061 15.589 26.5221 15.5594 26.5422C15.5226 26.567 15.4852 26.5973 15.4481 26.6249C15.4114 26.6521 15.375 26.677 15.3379 26.7072C15.2589 26.8889 15.2144 27.0887 15.2144 27.2997V28.8799H15.8034C15.8377 28.6785 16.0058 28.5216 16.2168 28.5216Z" fill="#FFD2A1"/>
<path d="M18.0713 28.8359H16.2168C16.1539 28.8359 16.1035 28.8863 16.1035 28.9489V29.5148C16.1035 29.9861 16.487 30.3665 16.9583 30.3665H17.2727C17.7409 30.3665 18.1183 29.9895 18.1183 29.5209V28.886C18.1186 28.8577 18.0965 28.8359 18.0713 28.8359ZM16.3359 29.8214C16.2896 29.7285 16.2611 29.6254 16.2611 29.5148V29.2684L16.5248 28.9931H17.1294L16.3359 29.8214Z" fill="#FFD2A1"/>
<path d="M21.6408 29.5139C21.6408 30.1584 21.1158 30.68 20.4716 30.68H20.1572C19.5161 30.68 18.9976 30.1614 18.9976 29.5204V29.1937H18.433V29.5204C18.433 30.1614 17.9145 30.68 17.2734 30.68H16.959C16.3145 30.68 15.7898 30.1584 15.7898 29.5139V29.1934H15.2402C15.2947 29.7153 15.4294 30.9012 15.5696 31.3493C15.7142 31.8114 16.5221 32.6097 17.1128 32.2514C17.7824 31.8523 18.4045 31.7958 18.6968 31.7798C18.7025 31.7801 18.7087 31.7805 18.7148 31.7808C18.7209 31.7805 18.727 31.7801 18.7328 31.7798C19.0251 31.7955 19.6475 31.8519 20.3168 32.2514C20.9079 32.6097 21.7154 31.8114 21.86 31.3493C22.0005 30.9012 22.1349 29.7153 22.1894 29.1934H21.6408V29.5139Z" fill="#FFD2A1"/>
<path d="M22.8165 28.826C22.8141 28.8257 22.8121 28.826 22.8097 28.8257V28.8271C22.7576 28.8186 22.7083 28.8216 22.6596 28.8342C22.6586 28.8345 22.6579 28.8346 22.6569 28.8346C22.6137 28.8461 22.5711 28.8679 22.5283 28.8934L22.4378 29.1939C22.4119 29.7948 22.3496 31.242 22.3418 31.3342C22.3639 31.3403 22.3857 31.3499 22.4078 31.3529C22.4803 31.3655 22.5555 31.356 22.628 31.3278C22.9359 31.2114 23.219 30.7683 23.3099 30.2025C23.3817 29.7598 23.3184 29.3508 23.1646 29.0945C23.0758 28.9472 22.9577 28.8488 22.8165 28.826Z" fill="#FFD2A1"/>
<path d="M18.0078 35.1305C18.2076 35.155 18.4335 35.1649 18.6965 35.1649C18.7027 35.1649 18.7088 35.1649 18.7146 35.1649C18.7207 35.1649 18.7265 35.1649 18.7326 35.1649C18.9956 35.1649 19.2216 35.155 19.4213 35.1305C20.0229 35.0563 20.386 34.8474 20.8035 34.3639L20.8039 34.3635C21.0489 34.0773 21.3129 33.7003 21.6556 33.1974C21.9448 32.7731 22.1711 32.1381 22.3409 31.3337C22.3484 31.2415 22.411 29.7943 22.4369 29.1934H22.1898C22.1354 29.7153 22.001 30.9012 21.8604 31.3493C21.7158 31.8114 20.908 32.6097 20.3173 32.2514C19.648 31.8523 19.0256 31.7958 18.7333 31.7798C18.7275 31.7801 18.7214 31.7805 18.7153 31.7808C18.7091 31.7805 18.703 31.7801 18.6972 31.7798C18.4049 31.7955 17.7826 31.8519 17.1132 32.2514C16.5225 32.6097 15.7147 31.8114 15.5701 31.3493C15.4295 30.9012 15.2951 29.7153 15.2407 29.1934H14.9937C15.0195 29.7943 15.0818 31.2415 15.0893 31.3337C15.2591 32.1385 15.4854 32.7731 15.7746 33.1974C16.1172 33.7003 16.3813 34.0773 16.6263 34.3635L16.6266 34.3639C17.0431 34.8474 17.4062 35.0563 18.0078 35.1305ZM18.1385 32.3971H19.291C19.5534 32.3971 19.766 32.5818 19.766 32.8095C19.766 33.0375 19.5534 33.2219 19.291 33.2219H18.1385C17.8761 33.2219 17.6635 33.0371 17.6635 32.8095C17.6638 32.5818 17.8761 32.3971 18.1385 32.3971Z" fill="#FFD2A1"/>
<path opacity="0.7" d="M18.0078 35.1305C18.2076 35.155 18.4335 35.1649 18.6965 35.1649C18.7027 35.1649 18.7088 35.1649 18.7146 35.1649C18.7207 35.1649 18.7265 35.1649 18.7326 35.1649C18.9956 35.1649 19.2216 35.155 19.4213 35.1305C20.0229 35.0563 20.386 34.8474 20.8035 34.3639L20.8039 34.3635C21.0489 34.0773 21.3129 33.7003 21.6556 33.1974C21.9448 32.7731 22.1711 32.1381 22.3409 31.3337C22.3484 31.2415 22.411 29.7943 22.4369 29.1934H22.1898C22.1354 29.7153 22.001 30.9012 21.8604 31.3493C21.7158 31.8114 20.908 32.6097 20.3173 32.2514C19.648 31.8523 19.0256 31.7958 18.7333 31.7798C18.7275 31.7801 18.7214 31.7805 18.7153 31.7808C18.7091 31.7805 18.703 31.7801 18.6972 31.7798C18.4049 31.7955 17.7826 31.8519 17.1132 32.2514C16.5225 32.6097 15.7147 31.8114 15.5701 31.3493C15.4295 30.9012 15.2951 29.7153 15.2407 29.1934H14.9937C15.0195 29.7943 15.0818 31.2415 15.0893 31.3337C15.2591 32.1385 15.4854 32.7731 15.7746 33.1974C16.1172 33.7003 16.3813 34.0773 16.6263 34.3635L16.6266 34.3639C17.0431 34.8474 17.4062 35.0563 18.0078 35.1305ZM18.1385 32.3971H19.291C19.5534 32.3971 19.766 32.5818 19.766 32.8095C19.766 33.0375 19.5534 33.2219 19.291 33.2219H18.1385C17.8761 33.2219 17.6635 33.0371 17.6635 32.8095C17.6638 32.5818 17.8761 32.3971 18.1385 32.3971Z" fill="#3C3C3B"/>
<path d="M18.1391 33.2233H19.2916C19.554 33.2233 19.7666 33.0385 19.7666 32.8108C19.7666 32.5832 19.554 32.3984 19.2916 32.3984H18.1391C17.8767 32.3984 17.6641 32.5832 17.6641 32.8108C17.6644 33.0385 17.8767 33.2233 18.1391 33.2233Z" fill="#FFD2A1"/>
<path d="M22.5278 28.8921L22.5319 28.8782H22.1943H21.6264C21.592 28.6764 21.4243 28.5195 21.2129 28.5195H19.3584C19.1594 28.5195 19.0015 28.6798 18.9981 28.8782H18.4319C18.4285 28.6801 18.2706 28.5195 18.0715 28.5195H16.217C16.0057 28.5195 15.8376 28.6764 15.8036 28.8782H15.2146H14.8984L14.9001 28.8836L14.993 29.1923H15.2401H15.7896V29.5128C15.7896 30.1573 16.3143 30.6789 16.9588 30.6789H17.2732C17.9143 30.6789 18.4329 30.1603 18.4329 29.5193V29.1926H18.9974V29.5193C18.9974 30.1603 19.516 30.6789 20.1571 30.6789H20.4715C21.116 30.6789 21.6407 30.1573 21.6407 29.5128V29.1923H22.1902H22.4373L22.5278 28.8921ZM18.1188 29.5193C18.1188 29.9875 17.7418 30.3649 17.2732 30.3649H16.9588C16.4872 30.3649 16.104 29.9844 16.104 29.5131V28.9473C16.104 28.8843 16.1544 28.8343 16.2173 28.8343H18.0719C18.097 28.8343 18.1192 28.8564 18.1192 28.8846L18.1188 29.5193ZM21.3266 29.5131C21.3266 29.9844 20.9431 30.3649 20.4715 30.3649H20.1571C19.6888 30.3649 19.3115 29.9878 19.3115 29.5193V28.8843C19.3115 28.8561 19.3336 28.834 19.3588 28.834H21.2133C21.2762 28.834 21.3266 28.8843 21.3266 28.9469V29.5131Z" fill="#575756"/>
<path d="M16.2612 29.2678V29.5142C16.2612 29.6248 16.2898 29.7279 16.3361 29.8208L17.1296 28.9922H16.5249L16.2612 29.2678Z" fill="#F6F6F6"/>
<path d="M19.4502 29.2678V29.5142C19.4502 29.6248 19.4788 29.7279 19.5251 29.8208L20.3186 28.9922H19.7139L19.4502 29.2678Z" fill="#F6F6F6"/>
<defs>
<linearGradient id="paint0_linear_1855_28350" x1="18.7652" y1="45.2885" x2="18.7652" y2="6.27572" gradientUnits="userSpaceOnUse">
<stop stop-color="#B0CCD6"/>
<stop offset="0.0437" stop-color="#B4D0D9"/>
<stop offset="0.2378" stop-color="#C1DBE3"/>
<stop offset="0.4888" stop-color="#C9E1E9"/>
<stop offset="1" stop-color="#CBE3EB"/>
</linearGradient>
<linearGradient id="paint1_linear_1855_28350" x1="18.7651" y1="44.2554" x2="18.7651" y2="7.30469" gradientUnits="userSpaceOnUse">
<stop offset="0.4182" stop-color="#FAFAFA"/>
<stop offset="0.6494" stop-color="#E7F5FA"/>
<stop offset="1" stop-color="#CDEFFA"/>
</linearGradient>
<linearGradient id="paint2_linear_1855_28350" x1="18.7651" y1="44.2554" x2="18.7651" y2="7.30469" gradientUnits="userSpaceOnUse">
<stop stop-color="#B0CCD6"/>
<stop offset="0.0437" stop-color="#B4D0D9"/>
<stop offset="0.2378" stop-color="#C1DBE3"/>
<stop offset="0.4888" stop-color="#C9E1E9"/>
<stop offset="1" stop-color="#CBE3EB"/>
</linearGradient>
<linearGradient id="paint3_linear_1855_28350" x1="18.7656" y1="5.12999" x2="18.7656" y2="2.32308" gradientUnits="userSpaceOnUse">
<stop stop-color="#B0CCD6"/>
<stop offset="0.0437" stop-color="#B4D0D9"/>
<stop offset="0.2378" stop-color="#C1DBE3"/>
<stop offset="0.4888" stop-color="#C9E1E9"/>
<stop offset="1" stop-color="#CBE3EB"/>
</linearGradient>
<linearGradient id="paint4_linear_1855_28350" x1="18.766" y1="4.44236" x2="18.766" y2="3.01147" gradientUnits="userSpaceOnUse">
<stop stop-color="#B0CCD6"/>
<stop offset="0.0437" stop-color="#B4D0D9"/>
<stop offset="0.2378" stop-color="#C1DBE3"/>
<stop offset="0.4888" stop-color="#C9E1E9"/>
<stop offset="1" stop-color="#CBE3EB"/>
</linearGradient>
<linearGradient id="paint5_linear_1855_28350" x1="5.89744" y1="16.771" x2="5.89744" y2="7.30469" gradientUnits="userSpaceOnUse">
<stop offset="0.1755" stop-color="#05748D"/>
<stop offset="0.351" stop-color="#06829E"/>
<stop offset="0.6685" stop-color="#3EAEC8"/>
<stop offset="0.865" stop-color="#158AA5"/>
<stop offset="0.93" stop-color="#066277"/>
<stop offset="0.9721" stop-color="#047792"/>
</linearGradient>
<linearGradient id="paint6_linear_1855_28350" x1="11.9727" y1="16.771" x2="11.9727" y2="7.30469" gradientUnits="userSpaceOnUse">
<stop stop-color="#F07436"/>
<stop offset="0.0242" stop-color="#FF7D01"/>
<stop offset="0.6742" stop-color="#FFAB0F"/>
<stop offset="1" stop-color="#FC935E"/>
</linearGradient>
<linearGradient id="paint7_linear_1855_28350" x1="18.7628" y1="16.771" x2="18.7628" y2="7.30469" gradientUnits="userSpaceOnUse">
<stop offset="0.1755" stop-color="#05748D"/>
<stop offset="0.351" stop-color="#06829E"/>
<stop offset="0.6685" stop-color="#3EAEC8"/>
<stop offset="0.865" stop-color="#158AA5"/>
<stop offset="0.93" stop-color="#066277"/>
<stop offset="0.9721" stop-color="#047792"/>
</linearGradient>
<linearGradient id="paint8_linear_1855_28350" x1="25.5533" y1="16.771" x2="25.5533" y2="7.30469" gradientUnits="userSpaceOnUse">
<stop stop-color="#F07436"/>
<stop offset="0.0242" stop-color="#FF7D01"/>
<stop offset="0.6742" stop-color="#FFAB0F"/>
<stop offset="1" stop-color="#FC935E"/>
</linearGradient>
<linearGradient id="paint9_linear_1855_28350" x1="31.6288" y1="16.771" x2="31.6288" y2="7.30469" gradientUnits="userSpaceOnUse">
<stop offset="0.1755" stop-color="#05748D"/>
<stop offset="0.351" stop-color="#06829E"/>
<stop offset="0.6685" stop-color="#3EAEC8"/>
<stop offset="0.865" stop-color="#158AA5"/>
<stop offset="0.93" stop-color="#066277"/>
<stop offset="0.9721" stop-color="#047792"/>
</linearGradient>
<linearGradient id="paint10_linear_1855_28350" x1="3.75249" y1="20.5255" x2="3.75249" y2="16.7734" gradientUnits="userSpaceOnUse">
<stop stop-color="#04657B"/>
<stop offset="1" stop-color="#1087A3"/>
</linearGradient>
<linearGradient id="paint11_linear_1855_28350" x1="11.2576" y1="20.5255" x2="11.2576" y2="16.7734" gradientUnits="userSpaceOnUse">
<stop stop-color="#F88850"/>
<stop offset="1" stop-color="#F07436"/>
</linearGradient>
<linearGradient id="paint12_linear_1855_28350" x1="18.7631" y1="20.5255" x2="18.7631" y2="16.7734" gradientUnits="userSpaceOnUse">
<stop stop-color="#04657B"/>
<stop offset="1" stop-color="#1087A3"/>
</linearGradient>
<linearGradient id="paint13_linear_1855_28350" x1="26.2699" y1="20.5255" x2="26.2699" y2="16.7734" gradientUnits="userSpaceOnUse">
<stop stop-color="#F88850"/>
<stop offset="1" stop-color="#F07436"/>
</linearGradient>
<linearGradient id="paint14_linear_1855_28350" x1="33.7744" y1="20.5255" x2="33.7744" y2="16.7734" gradientUnits="userSpaceOnUse">
<stop stop-color="#04657B"/>
<stop offset="1" stop-color="#1087A3"/>
</linearGradient>
</defs>
</svg>
