<svg width="61" height="42" viewBox="0 0 61 42" fill="none" xmlns="http://www.w3.org/2000/svg">
<path d="M30.9911 7.10547H14.0112V17.5925H30.9911V7.10547Z" fill="#E5E1E4"/>
<path d="M14.0802 7.10547H2.20801V17.5925H14.0802V7.10547Z" fill="#CCCACC"/>
<path d="M25.0905 0H14.0352V7.2438H25.0905V0Z" fill="#E5E1E4"/>
<path d="M14.0805 0H6.35059V7.2438H14.0805V0Z" fill="#CCCACC"/>
<path d="M29.6453 8.6582H15.7715V10.1068H29.6453V8.6582Z" fill="#35384A"/>
<path d="M29.3357 9.83089L15.7637 9.8911L15.772 8.6582L29.3357 8.69246V9.83089Z" fill="#40455B"/>
<g opacity="0.5">
<path d="M15.772 10.1068L29.646 8.6582H23.6757L15.7637 9.53758L15.772 10.1068Z" fill="#7E86A5"/>
</g>
<path d="M29.6793 10.1405H15.7383V8.625H29.679V10.1405H29.6793ZM15.8052 10.0736H29.6121V8.6919H15.8052V10.0736Z" fill="#35384A"/>
<path d="M29.6453 11.5566H15.7715V13.0055H29.6453V11.5566Z" fill="#35384A"/>
<path d="M29.3357 12.7296L15.7637 12.7898L15.772 11.5566L29.3357 11.5912V12.7296Z" fill="#40455B"/>
<g opacity="0.5">
<path d="M15.772 13.0055L29.646 11.5566H23.6757L15.7637 12.4363L15.772 13.0055Z" fill="#7E86A5"/>
</g>
<path d="M29.6793 13.0392H15.7383V11.5234H29.679V13.0392H29.6793ZM15.8052 12.9723H29.6121V11.5903H15.8052V12.9723Z" fill="#35384A"/>
<path d="M24.6057 1.48242H14.8706V2.93129H24.6057V1.48242Z" fill="#35384A"/>
<path d="M24.389 2.65564L14.8657 2.71613L14.8716 1.48242L24.389 1.51694V2.65564Z" fill="#40455B"/>
<g opacity="0.5">
<path d="M14.8716 2.93129L24.6067 1.48242H20.4173L14.8657 2.36207L14.8716 2.93129Z" fill="#7E86A5"/>
</g>
<path d="M24.6394 2.96499H14.8374V1.44922H24.6394V2.96499ZM14.9043 2.89808H24.5725V1.51612H14.9043V2.89808Z" fill="#35384A"/>
<path d="M24.6057 4.38086H14.8706V5.82973H24.6057V4.38086Z" fill="#35384A"/>
<path d="M24.389 5.55382L14.8657 5.6143L14.8716 4.38086L24.389 4.41539V5.55382Z" fill="#40455B"/>
<g opacity="0.5">
<path d="M14.8716 5.82973L24.6067 4.38086H20.4173L14.8657 5.26078L14.8716 5.82973Z" fill="#7E86A5"/>
</g>
<path d="M24.6394 5.86343H14.8374V4.34766H24.6394V5.86343ZM14.9043 5.79652H24.5725V4.41456H14.9043V5.79652Z" fill="#35384A"/>
<path d="M29.6453 14.248H15.7715V15.6969H29.6453V14.248Z" fill="#35384A"/>
<path d="M29.3357 15.4205L15.7637 15.4809L15.772 14.248L29.3357 14.2823V15.4205Z" fill="#40455B"/>
<g opacity="0.5">
<path d="M15.772 15.6969L29.646 14.248H23.6757L15.7637 15.1277L15.772 15.6969Z" fill="#7E86A5"/>
</g>
<path d="M29.6793 15.7306H15.7383V14.2148H29.679V15.7306H29.6793ZM15.8052 15.6637H29.6121V14.2817H15.8052V15.6637Z" fill="#35384A"/>
<path d="M12.8738 8.8125H2.67285V10.2608H12.8738V8.8125Z" fill="#35384A"/>
<path d="M12.6449 9.98519L2.6665 10.0454L2.67239 8.8125L12.6449 8.84675V9.98519Z" fill="#40455B"/>
<g opacity="0.5">
<path d="M2.67239 10.2608L12.8731 8.8125H8.48345L2.6665 9.69216L2.67239 10.2608Z" fill="#7E86A5"/>
</g>
<path d="M12.907 10.2945H2.63916V8.7793H12.907V10.2945ZM2.70636 10.2276H12.8404V8.8462H2.70636V10.2276Z" fill="#35384A"/>
<path d="M12.8738 11.5039H2.67285V12.9528H12.8738V11.5039Z" fill="#35384A"/>
<path d="M12.6449 12.6763L2.6665 12.7373L2.67239 11.5039L12.6449 11.5382V12.6763Z" fill="#40455B"/>
<g opacity="0.5">
<path d="M2.67239 12.9528L12.8731 11.5039H8.48345L2.6665 12.3836L2.67239 12.9528Z" fill="#7E86A5"/>
</g>
<path d="M12.907 12.9865H2.63916V11.4707H12.907V12.9865ZM2.70636 12.9196H12.8404V11.5376H2.70636V12.9196Z" fill="#35384A"/>
<path d="M13.5635 1.57031H7.08789V3.01918H13.5635V1.57031Z" fill="#35384A"/>
<path d="M13.419 2.743L7.08447 2.80348L7.08822 1.57031L13.419 1.60456V2.743Z" fill="#40455B"/>
<g opacity="0.5">
<path d="M7.08871 3.01918L13.5643 1.57031H10.7776L7.08496 2.44996L7.08871 3.01918Z" fill="#7E86A5"/>
</g>
<path d="M13.5972 3.05288H7.05469V1.53711H13.5972V3.05288ZM7.12162 2.98598H13.5303V1.60401H7.12162V2.98598Z" fill="#35384A"/>
<path d="M13.5635 4.25977H7.08789V5.70863H13.5635V4.25977Z" fill="#35384A"/>
<path d="M13.419 5.43272L7.08447 5.49347L7.08822 4.25977L13.419 4.29429V5.43272Z" fill="#40455B"/>
<g opacity="0.5">
<path d="M7.08871 5.70863L13.5643 4.25977H10.7776L7.08496 5.13941L7.08871 5.70863Z" fill="#7E86A5"/>
</g>
<path d="M13.5972 5.74233H7.05469V4.22656H13.5972V5.74233ZM7.12162 5.67543H13.5303V4.29347H7.12162V5.67543Z" fill="#35384A"/>
<path d="M12.8738 14.1953H2.67285V15.6439H12.8738V14.1953Z" fill="#35384A"/>
<path d="M12.6449 15.368L2.6665 15.4285L2.67239 14.1953L12.6449 14.2296V15.368Z" fill="#40455B"/>
<g opacity="0.5">
<path d="M2.67239 15.6439L12.8731 14.1953H8.48345L2.6665 15.0747L2.67239 15.6439Z" fill="#7E86A5"/>
</g>
<path d="M12.907 15.6776H2.63916V14.1621H12.907V15.6776ZM2.70636 15.6107H12.8404V14.229H2.70636V15.6107Z" fill="#35384A"/>
<path d="M32.4946 12.0586H23.1694V17.032H32.4946V12.0586Z" fill="#46556B"/>
<path d="M37.2815 12.0586H32.4951V17.032H37.2815V12.0586Z" fill="#506A89"/>
<path d="M23.4524 12.2246H23.2749V17.0323H23.4524V12.2246Z" fill="#3B495B"/>
<path d="M24.0915 12.2246H23.9146V17.0323H24.0915V12.2246Z" fill="#3B495B"/>
<path d="M24.9426 12.2246H24.7656V17.0323H24.9426V12.2246Z" fill="#3B495B"/>
<path d="M25.7932 12.2246H25.6162V17.0323H25.7932V12.2246Z" fill="#3B495B"/>
<path d="M26.8572 12.2246H26.6802V17.0323H26.8572V12.2246Z" fill="#3B495B"/>
<path d="M27.9211 12.2246H27.7441V17.0323H27.9211V12.2246Z" fill="#3B495B"/>
<path d="M29.1968 12.2246H29.0195V17.0323H29.1968V12.2246Z" fill="#3B495B"/>
<path d="M30.261 12.2246H30.0835V17.0323H30.261V12.2246Z" fill="#3B495B"/>
<path d="M31.5368 12.2246H31.3599V17.0323H31.5368V12.2246Z" fill="#3B495B"/>
<path d="M33.4517 12.2246H33.2744V17.0323H33.4517V12.2246Z" fill="#577CA0"/>
<path d="M34.5156 12.2246H34.3384V17.0323H34.5156V12.2246Z" fill="#577CA0"/>
<path d="M35.5793 12.2246H35.4023V17.0323H35.5793V12.2246Z" fill="#577CA0"/>
<path d="M36.6425 12.2246H36.4658V17.0323H36.6425V12.2246Z" fill="#577CA0"/>
<path d="M37.2856 11.9434H32.4858V12.2351H37.2856V11.9434Z" fill="#3E4E5E"/>
<path d="M32.4863 11.9434H23.1611V12.2415H32.4863V11.9434Z" fill="#394656"/>
<path d="M32.4863 16.916H23.1611V17.2147H32.4863V16.916Z" fill="#394656"/>
<path d="M37.28 16.916H32.48V17.2082H37.28V16.916Z" fill="#3E4E5E"/>
<path d="M44.9278 11.9355H36.272V16.9844H44.9278V11.9355Z" fill="#0C83FD"/>
<path d="M49.3709 11.9355H44.9277V16.9844H49.3709V11.9355Z" fill="#59B8E7"/>
<path d="M36.5353 12.1035H36.3706V16.9843H36.5353V12.1035Z" fill="#0F79D8"/>
<path d="M37.1273 12.1035H36.9629V16.9843H37.1273V12.1035Z" fill="#0F79D8"/>
<path d="M37.9175 12.1035H37.7534V16.9843H37.9175V12.1035Z" fill="#0F79D8"/>
<path d="M38.7074 12.1035H38.543V16.9843H38.7074V12.1035Z" fill="#0F79D8"/>
<path d="M39.6954 12.1035H39.5312V16.9843H39.6954V12.1035Z" fill="#0F79D8"/>
<path d="M40.6825 12.1035H40.5181V16.9843H40.6825V12.1035Z" fill="#0F79D8"/>
<path d="M41.8665 12.1035H41.7021V16.9843H41.8665V12.1035Z" fill="#0F79D8"/>
<path d="M42.8541 12.1035H42.6895V16.9843H42.8541V12.1035Z" fill="#0F79D8"/>
<path d="M44.0386 12.1035H43.8745V16.9843H44.0386V12.1035Z" fill="#0F79D8"/>
<path d="M45.8167 12.1035H45.6523V16.9843H45.8167V12.1035Z" fill="#48A6CC"/>
<path d="M46.804 12.1035H46.6396V16.9843H46.804V12.1035Z" fill="#48A6CC"/>
<path d="M47.7913 12.1035H47.627V16.9843H47.7913V12.1035Z" fill="#48A6CC"/>
<path d="M48.7784 12.1035H48.6143V16.9843H48.7784V12.1035Z" fill="#48A6CC"/>
<path d="M49.3751 11.8164H44.9199V12.1129H49.3751V11.8164Z" fill="#2769A0"/>
<path d="M44.9197 11.8164H36.2637V12.1193H44.9197V11.8164Z" fill="#205B95"/>
<path d="M44.9197 16.8652H36.2637V17.1682H44.9197V16.8652Z" fill="#205B95"/>
<path d="M49.3691 16.8652H44.9136V17.1618H49.3691V16.8652Z" fill="#2769A0"/>
<path d="M56.3313 11.8984H47.6758V16.9475H56.3313V11.8984Z" fill="#E74600"/>
<path d="M60.7755 11.8984H56.332V16.9475H60.7755V11.8984Z" fill="#FF6B00"/>
<path d="M48.1361 12.0684H47.9717V16.9494H48.1361V12.0684Z" fill="#C43402"/>
<path d="M48.7288 12.0684H48.5645V16.9494H48.7288V12.0684Z" fill="#C43402"/>
<path d="M49.5189 12.0684H49.3545V16.9494H49.5189V12.0684Z" fill="#C43402"/>
<path d="M50.3087 12.0684H50.144V16.9494H50.3087V12.0684Z" fill="#C43402"/>
<path d="M51.2972 12.0684H51.1328V16.9494H51.2972V12.0684Z" fill="#C43402"/>
<path d="M52.2833 12.0684H52.1191V16.9494H52.2833V12.0684Z" fill="#C43402"/>
<path d="M53.4678 12.0684H53.3037V16.9494H53.4678V12.0684Z" fill="#C43402"/>
<path d="M54.4554 12.0684H54.291V16.9494H54.4554V12.0684Z" fill="#C43402"/>
<path d="M55.6405 12.0684H55.4761V16.9494H55.6405V12.0684Z" fill="#C43402"/>
<path d="M57.2208 12.0684H57.0562V16.9494H57.2208V12.0684Z" fill="#EF6203"/>
<path d="M58.2074 12.0684H58.043V16.9494H58.2074V12.0684Z" fill="#EF6203"/>
<path d="M59.1954 12.0684H59.0312V16.9494H59.1954V12.0684Z" fill="#EF6203"/>
<path d="M60.1825 12.0684H60.0181V16.9494H60.1825V12.0684Z" fill="#EF6203"/>
<path d="M60.7794 11.7812H56.3242V12.078H60.7794V11.7812Z" fill="#CD5A0D"/>
<path d="M56.324 11.7812H47.668V12.0842H56.324V11.7812Z" fill="#B7520D"/>
<path d="M56.324 16.8301H47.668V17.1333H56.324V16.8301Z" fill="#B7520D"/>
<path d="M60.7726 16.8301H56.3174V17.1269H60.7726V16.8301Z" fill="#CD5A0D"/>
<path d="M58.421 14.6973H57.7715V17.2048H58.421V14.6973Z" fill="#2F302B"/>
<path d="M58.4107 14.9297H58.0391V16.8916H58.4107V14.9297Z" fill="#41423C"/>
<path d="M48.1786 18.1797H10.9053V36.1867H48.1786V18.1797Z" fill="#383A3A"/>
<path d="M46.8331 18.1797L46.4189 36.1867L49.8487 36.2127C49.8487 36.2127 51.9063 29.0459 55.6338 25.424C55.6338 25.424 59.7755 21.6983 60.7072 18.4904C60.7072 18.4904 56.5655 18.1797 46.8331 18.1797Z" fill="#585A5B"/>
<path d="M13.9389 18.341L13.6765 36.0427L10.2585 36.0138C10.2585 36.0138 8.46144 28.8198 4.87264 25.1205C4.87264 25.1205 0.873929 21.303 0.0634766 18.1168C0.0634766 18.1168 4.21346 17.9696 13.9389 18.341Z" fill="#383A3A"/>
<path d="M46.5021 36.1867L10.2494 36.221L9.47266 33.4616L46.5021 33.3926V36.1867Z" fill="#FFA700"/>
<path d="M49.8486 36.2127L46.5029 36.1867V33.3926L50.7804 33.4959L49.8486 36.2127Z" fill="#FFB43B"/>
<path d="M9.47266 33.4616L9.83518 34.7721L46.4871 34.5998L46.5021 33.3926L9.47266 33.4616Z" fill="#DD8903"/>
<path d="M46.4873 34.5998L50.3701 34.6517L50.7797 33.4959L46.5023 33.3926L46.4873 34.5998Z" fill="#E89C2E"/>
<path d="M46.833 17.4551H0V18.7659H46.833V17.4551Z" fill="#E89C2E"/>
<path d="M60.9491 17.4551H46.7949V18.7659H60.9491V17.4551Z" fill="#EFA645"/>
<path d="M46.7813 17.4551H0V18.0757H46.7813V17.4551Z" fill="#CE8938"/>
<path d="M60.9408 17.4551H46.7949V18.0634H60.9408V17.4551Z" fill="#E59C45"/>
<path d="M6.08909 20.8526C6.08909 21.2842 5.73916 21.6345 5.30675 21.6345C4.87516 21.6345 4.52441 21.2842 4.52441 20.8526C4.52441 20.4206 4.87489 20.0703 5.30675 20.0703C5.73916 20.0706 6.08909 20.4206 6.08909 20.8526Z" fill="#11496E"/>
<path d="M5.30683 21.7674C4.80161 21.7674 4.39062 21.3566 4.39062 20.8516C4.39062 20.3463 4.80161 19.9355 5.30683 19.9355C5.81206 19.9355 6.22304 20.3463 6.22304 20.8516C6.22331 21.3566 5.81233 21.7674 5.30683 21.7674ZM5.30683 20.2034C4.9494 20.2034 4.65837 20.4943 4.65837 20.8519C4.65837 21.2091 4.94913 21.5 5.30683 21.5C5.66454 21.5 5.9553 21.2091 5.9553 20.8519C5.95557 20.4941 5.66454 20.2034 5.30683 20.2034Z" fill="white"/>
<path d="M8.71578 20.8506C8.71578 21.2823 8.36531 21.6326 7.93344 21.6326C7.50077 21.6326 7.15137 21.2823 7.15137 20.8506C7.15137 20.4187 7.50077 20.0684 7.93344 20.0684C8.36504 20.0686 8.71578 20.4187 8.71578 20.8506Z" fill="#11496E"/>
<path d="M7.93352 21.7674C7.42856 21.7674 7.01758 21.3566 7.01758 20.8516C7.01758 20.3463 7.42856 19.9355 7.93352 19.9355C8.43875 19.9355 8.84973 20.3463 8.84973 20.8516C8.84973 21.3566 8.43875 21.7674 7.93352 21.7674ZM7.93352 20.2034C7.57609 20.2034 7.28532 20.4943 7.28532 20.8519C7.28532 21.2091 7.57609 21.5 7.93352 21.5C8.29096 21.5 8.58199 21.2091 8.58199 20.8519C8.58199 20.4941 8.29096 20.2034 7.93352 20.2034Z" fill="white"/>
<path d="M11.3404 20.8506C11.3404 21.2823 10.9896 21.6326 10.558 21.6326C10.1256 21.6326 9.7749 21.2823 9.7749 20.8506C9.7749 20.4187 10.1254 20.0684 10.558 20.0684C10.9896 20.0686 11.3404 20.4187 11.3404 20.8506Z" fill="#11496E"/>
<path d="M10.5591 21.7674C10.0533 21.7674 9.64209 21.3566 9.64209 20.8516C9.64209 20.3463 10.0533 19.9355 10.5591 19.9355C11.0643 19.9355 11.4753 20.3463 11.4753 20.8516C11.4756 21.3566 11.0643 21.7674 10.5591 21.7674ZM10.5591 20.2034C10.2011 20.2034 9.90983 20.4943 9.90983 20.8519C9.90983 21.2091 10.2011 21.5 10.5591 21.5C10.9168 21.5 11.2076 21.2091 11.2076 20.8519C11.2078 20.4941 10.9168 20.2034 10.5591 20.2034Z" fill="white"/>
<path d="M13.9661 20.8526C13.9661 21.2842 13.6154 21.6345 13.1832 21.6345C12.7516 21.6345 12.4009 21.2842 12.4009 20.8526C12.4009 20.4206 12.7516 20.0703 13.1832 20.0703C13.6154 20.0706 13.9661 20.4206 13.9661 20.8526Z" fill="#11496E"/>
<path d="M13.1828 21.7674C12.6776 21.7674 12.2666 21.3566 12.2666 20.8516C12.2666 20.3463 12.6776 19.9355 13.1828 19.9355C13.6883 19.9355 14.0996 20.3463 14.0996 20.8516C14.0998 21.3566 13.6886 21.7674 13.1828 21.7674ZM13.1828 20.2034C12.8254 20.2034 12.5343 20.4943 12.5343 20.8519C12.5343 21.2091 12.8251 21.5 13.1828 21.5C13.5408 21.5 13.8318 21.2091 13.8318 20.8519C13.8321 20.4941 13.5408 20.2034 13.1828 20.2034Z" fill="white"/>
<path d="M16.5918 20.8526C16.5918 21.2842 16.2413 21.6345 15.8097 21.6345C15.3778 21.6345 15.0273 21.2842 15.0273 20.8526C15.0273 20.4206 15.3781 20.0703 15.8097 20.0703C16.2413 20.0706 16.5918 20.4206 16.5918 20.8526Z" fill="#11496E"/>
<path d="M15.8098 21.7674C15.3045 21.7674 14.8936 21.3566 14.8936 20.8516C14.8936 20.3463 15.3045 19.9355 15.8098 19.9355C16.3147 19.9355 16.7257 20.3463 16.7257 20.8516C16.7257 21.3566 16.3147 21.7674 15.8098 21.7674ZM15.8098 20.2034C15.4521 20.2034 15.1613 20.4943 15.1613 20.8519C15.1613 21.2091 15.4523 21.5 15.8098 21.5C16.1672 21.5 16.458 21.2091 16.458 20.8519C16.458 20.4941 16.1672 20.2034 15.8098 20.2034Z" fill="white"/>
<path d="M19.2178 20.8526C19.2178 21.2842 18.8671 21.6345 18.4355 21.6345C18.0025 21.6345 17.6523 21.2842 17.6523 20.8526C17.6523 20.4206 18.0028 20.0703 18.4355 20.0703C18.8674 20.0706 19.2178 20.4206 19.2178 20.8526Z" fill="#11496E"/>
<path d="M18.4356 21.7674C17.9298 21.7674 17.5186 21.3566 17.5186 20.8516C17.5186 20.3463 17.9301 19.9355 18.4356 19.9355C18.9408 19.9355 19.3518 20.3463 19.3518 20.8516C19.3518 21.3566 18.9408 21.7674 18.4356 21.7674ZM18.4356 20.2034C18.0776 20.2034 17.7863 20.4943 17.7863 20.8519C17.7863 21.2091 18.0776 21.5 18.4356 21.5C18.7933 21.5 19.084 21.2091 19.084 20.8519C19.084 20.4941 18.7933 20.2034 18.4356 20.2034Z" fill="white"/>
<path d="M21.8426 20.8506C21.8426 21.2823 21.4916 21.6326 21.0592 21.6326C20.6276 21.6326 20.2769 21.2823 20.2769 20.8506C20.2769 20.4187 20.6276 20.0684 21.0592 20.0684C21.4916 20.0686 21.8426 20.4187 21.8426 20.8506Z" fill="#11496E"/>
<path d="M21.0588 21.7674C20.5536 21.7674 20.1426 21.3566 20.1426 20.8516C20.1426 20.3463 20.5536 19.9355 21.0588 19.9355C21.5646 19.9355 21.9761 20.3463 21.9761 20.8516C21.9763 21.3566 21.5646 21.7674 21.0588 21.7674ZM21.0588 20.2034C20.7014 20.2034 20.4103 20.4943 20.4103 20.8519C20.4103 21.2091 20.7011 21.5 21.0588 21.5C21.417 21.5 21.7083 21.2091 21.7083 20.8519C21.7086 20.4941 21.417 20.2034 21.0588 20.2034Z" fill="white"/>
<path d="M24.469 20.8506C24.469 21.2823 24.119 21.6326 23.6866 21.6326C23.2542 21.6326 22.9043 21.2823 22.9043 20.8506C22.9043 20.4187 23.2545 20.0684 23.6866 20.0684C24.119 20.0686 24.469 20.4187 24.469 20.8506Z" fill="#11496E"/>
<path d="M23.6867 21.7674C23.1815 21.7674 22.7705 21.3566 22.7705 20.8516C22.7705 20.3463 23.1815 19.9355 23.6867 19.9355C24.1919 19.9355 24.6029 20.3463 24.6029 20.8516C24.6029 21.3566 24.1919 21.7674 23.6867 21.7674ZM23.6867 20.2034C23.329 20.2034 23.0382 20.4943 23.0382 20.8519C23.0382 21.2091 23.3293 21.5 23.6867 21.5C24.0442 21.5 24.3352 21.2091 24.3352 20.8519C24.3352 20.4941 24.0442 20.2034 23.6867 20.2034Z" fill="white"/>
<path d="M6.08909 20.8526C6.08909 21.2842 5.73916 21.6345 5.30675 21.6345C4.87516 21.6345 4.52441 21.2842 4.52441 20.8526C4.52441 20.4206 4.87489 20.0703 5.30675 20.0703C5.73916 20.0706 6.08909 20.4206 6.08909 20.8526Z" fill="#11496E"/>
<path d="M5.30683 21.7674C4.80161 21.7674 4.39062 21.3566 4.39062 20.8516C4.39062 20.3463 4.80161 19.9355 5.30683 19.9355C5.81206 19.9355 6.22304 20.3463 6.22304 20.8516C6.22331 21.3566 5.81233 21.7674 5.30683 21.7674ZM5.30683 20.2034C4.9494 20.2034 4.65837 20.4943 4.65837 20.8519C4.65837 21.2091 4.94913 21.5 5.30683 21.5C5.66454 21.5 5.9553 21.2091 5.9553 20.8519C5.95557 20.4941 5.66454 20.2034 5.30683 20.2034Z" fill="white"/>
<path d="M8.71578 20.8506C8.71578 21.2823 8.36531 21.6326 7.93344 21.6326C7.50077 21.6326 7.15137 21.2823 7.15137 20.8506C7.15137 20.4187 7.50077 20.0684 7.93344 20.0684C8.36504 20.0686 8.71578 20.4187 8.71578 20.8506Z" fill="#11496E"/>
<path d="M7.93352 21.7674C7.42856 21.7674 7.01758 21.3566 7.01758 20.8516C7.01758 20.3463 7.42856 19.9355 7.93352 19.9355C8.43875 19.9355 8.84973 20.3463 8.84973 20.8516C8.84973 21.3566 8.43875 21.7674 7.93352 21.7674ZM7.93352 20.2034C7.57609 20.2034 7.28532 20.4943 7.28532 20.8519C7.28532 21.2091 7.57609 21.5 7.93352 21.5C8.29096 21.5 8.58199 21.2091 8.58199 20.8519C8.58199 20.4941 8.29096 20.2034 7.93352 20.2034Z" fill="white"/>
<path d="M11.3404 20.8506C11.3404 21.2823 10.9896 21.6326 10.558 21.6326C10.1256 21.6326 9.7749 21.2823 9.7749 20.8506C9.7749 20.4187 10.1254 20.0684 10.558 20.0684C10.9896 20.0686 11.3404 20.4187 11.3404 20.8506Z" fill="#11496E"/>
<path d="M10.5591 21.7674C10.0533 21.7674 9.64209 21.3566 9.64209 20.8516C9.64209 20.3463 10.0533 19.9355 10.5591 19.9355C11.0643 19.9355 11.4753 20.3463 11.4753 20.8516C11.4756 21.3566 11.0643 21.7674 10.5591 21.7674ZM10.5591 20.2034C10.2011 20.2034 9.90983 20.4943 9.90983 20.8519C9.90983 21.2091 10.2011 21.5 10.5591 21.5C10.9168 21.5 11.2076 21.2091 11.2076 20.8519C11.2078 20.4941 10.9168 20.2034 10.5591 20.2034Z" fill="white"/>
<path d="M13.9661 20.8526C13.9661 21.2842 13.6154 21.6345 13.1832 21.6345C12.7516 21.6345 12.4009 21.2842 12.4009 20.8526C12.4009 20.4206 12.7516 20.0703 13.1832 20.0703C13.6154 20.0706 13.9661 20.4206 13.9661 20.8526Z" fill="#11496E"/>
<path d="M13.1828 21.7674C12.6776 21.7674 12.2666 21.3566 12.2666 20.8516C12.2666 20.3463 12.6776 19.9355 13.1828 19.9355C13.6883 19.9355 14.0996 20.3463 14.0996 20.8516C14.0998 21.3566 13.6886 21.7674 13.1828 21.7674ZM13.1828 20.2034C12.8254 20.2034 12.5343 20.4943 12.5343 20.8519C12.5343 21.2091 12.8251 21.5 13.1828 21.5C13.5408 21.5 13.8318 21.2091 13.8318 20.8519C13.8321 20.4941 13.5408 20.2034 13.1828 20.2034Z" fill="white"/>
<path d="M16.5918 20.8526C16.5918 21.2842 16.2413 21.6345 15.8097 21.6345C15.3778 21.6345 15.0273 21.2842 15.0273 20.8526C15.0273 20.4206 15.3781 20.0703 15.8097 20.0703C16.2413 20.0706 16.5918 20.4206 16.5918 20.8526Z" fill="#11496E"/>
<path d="M15.8098 21.7674C15.3045 21.7674 14.8936 21.3566 14.8936 20.8516C14.8936 20.3463 15.3045 19.9355 15.8098 19.9355C16.3147 19.9355 16.7257 20.3463 16.7257 20.8516C16.7257 21.3566 16.3147 21.7674 15.8098 21.7674ZM15.8098 20.2034C15.4521 20.2034 15.1613 20.4943 15.1613 20.8519C15.1613 21.2091 15.4523 21.5 15.8098 21.5C16.1672 21.5 16.458 21.2091 16.458 20.8519C16.458 20.4941 16.1672 20.2034 15.8098 20.2034Z" fill="white"/>
<path d="M19.2178 20.8526C19.2178 21.2842 18.8671 21.6345 18.4355 21.6345C18.0025 21.6345 17.6523 21.2842 17.6523 20.8526C17.6523 20.4206 18.0028 20.0703 18.4355 20.0703C18.8674 20.0706 19.2178 20.4206 19.2178 20.8526Z" fill="#11496E"/>
<path d="M18.4356 21.7674C17.9298 21.7674 17.5186 21.3566 17.5186 20.8516C17.5186 20.3463 17.9301 19.9355 18.4356 19.9355C18.9408 19.9355 19.3518 20.3463 19.3518 20.8516C19.3518 21.3566 18.9408 21.7674 18.4356 21.7674ZM18.4356 20.2034C18.0776 20.2034 17.7863 20.4943 17.7863 20.8519C17.7863 21.2091 18.0776 21.5 18.4356 21.5C18.7933 21.5 19.084 21.2091 19.084 20.8519C19.084 20.4941 18.7933 20.2034 18.4356 20.2034Z" fill="white"/>
<path d="M21.8426 20.8506C21.8426 21.2823 21.4916 21.6326 21.0592 21.6326C20.6276 21.6326 20.2769 21.2823 20.2769 20.8506C20.2769 20.4187 20.6276 20.0684 21.0592 20.0684C21.4916 20.0686 21.8426 20.4187 21.8426 20.8506Z" fill="#11496E"/>
<path d="M21.0588 21.7674C20.5536 21.7674 20.1426 21.3566 20.1426 20.8516C20.1426 20.3463 20.5536 19.9355 21.0588 19.9355C21.5646 19.9355 21.9761 20.3463 21.9761 20.8516C21.9763 21.3566 21.5646 21.7674 21.0588 21.7674ZM21.0588 20.2034C20.7014 20.2034 20.4103 20.4943 20.4103 20.8519C20.4103 21.2091 20.7011 21.5 21.0588 21.5C21.417 21.5 21.7083 21.2091 21.7083 20.8519C21.7086 20.4941 21.417 20.2034 21.0588 20.2034Z" fill="white"/>
<path d="M24.469 20.8506C24.469 21.2823 24.119 21.6326 23.6866 21.6326C23.2542 21.6326 22.9043 21.2823 22.9043 20.8506C22.9043 20.4187 23.2545 20.0684 23.6866 20.0684C24.119 20.0686 24.469 20.4187 24.469 20.8506Z" fill="#11496E"/>
<path d="M23.6867 21.7674C23.1815 21.7674 22.7705 21.3566 22.7705 20.8516C22.7705 20.3463 23.1815 19.9355 23.6867 19.9355C24.1919 19.9355 24.6029 20.3463 24.6029 20.8516C24.6029 21.3566 24.1919 21.7674 23.6867 21.7674ZM23.6867 20.2034C23.329 20.2034 23.0382 20.4943 23.0382 20.8519C23.0382 21.2091 23.3293 21.5 23.6867 21.5C24.0442 21.5 24.3352 21.2091 24.3352 20.8519C24.3352 20.4941 24.0442 20.2034 23.6867 20.2034Z" fill="white"/>
<path d="M27.2957 20.8526C27.2957 21.2842 26.9452 21.6345 26.5133 21.6345C26.0807 21.6345 25.7305 21.2842 25.7305 20.8526C25.7305 20.4206 26.0809 20.0703 26.5133 20.0703C26.9455 20.0706 27.2957 20.4206 27.2957 20.8526Z" fill="#11496E"/>
<path d="M26.5134 21.7674C26.0079 21.7674 25.5967 21.3566 25.5967 20.8516C25.5967 20.3463 26.0079 19.9355 26.5134 19.9355C27.0187 19.9355 27.4296 20.3463 27.4296 20.8516C27.4294 21.3566 27.0184 21.7674 26.5134 21.7674ZM26.5134 20.2034C26.1555 20.2034 25.8644 20.4943 25.8644 20.8519C25.8644 21.2091 26.1555 21.5 26.5134 21.5C26.8711 21.5 27.1619 21.2091 27.1619 20.8519C27.1616 20.4941 26.8709 20.2034 26.5134 20.2034Z" fill="white"/>
<path d="M29.9212 20.8506C29.9212 21.2823 29.5707 21.6326 29.1388 21.6326C28.7067 21.6326 28.356 21.2823 28.356 20.8506C28.356 20.4187 28.7067 20.0684 29.1388 20.0684C29.5707 20.0686 29.9212 20.4187 29.9212 20.8506Z" fill="#11496E"/>
<path d="M29.1384 21.7674C28.6329 21.7674 28.2217 21.3566 28.2217 20.8516C28.2217 20.3463 28.6329 19.9355 29.1384 19.9355C29.6437 19.9355 30.0546 20.3463 30.0546 20.8516C30.0546 21.3566 29.6437 21.7674 29.1384 21.7674ZM29.1384 20.2034C28.7807 20.2034 28.4894 20.4943 28.4894 20.8519C28.4894 21.2091 28.7805 21.5 29.1384 21.5C29.4959 21.5 29.7869 21.2091 29.7869 20.8519C29.7869 20.4941 29.4959 20.2034 29.1384 20.2034Z" fill="white"/>
<path d="M32.5477 20.8506C32.5477 21.2823 32.1967 21.6326 31.7643 21.6326C31.3327 21.6326 30.9819 21.2823 30.9819 20.8506C30.9819 20.4187 31.3324 20.0684 31.7643 20.0684C32.1969 20.0686 32.5477 20.4187 32.5477 20.8506Z" fill="#11496E"/>
<path d="M31.7653 21.7674C31.2601 21.7674 30.8491 21.3566 30.8491 20.8516C30.8491 20.3463 31.2601 19.9355 31.7653 19.9355C32.2711 19.9355 32.6826 20.3463 32.6826 20.8516C32.6826 21.3566 32.2711 21.7674 31.7653 21.7674ZM31.7653 20.2034C31.4079 20.2034 31.1169 20.4943 31.1169 20.8519C31.1169 21.2091 31.4076 21.5 31.7653 21.5C32.1236 21.5 32.4149 21.2091 32.4149 20.8519C32.4149 20.4941 32.1236 20.2034 31.7653 20.2034Z" fill="white"/>
<path d="M35.1726 20.8526C35.1726 21.2842 34.8224 21.6345 34.3902 21.6345C33.9578 21.6345 33.6079 21.2842 33.6079 20.8526C33.6079 20.4206 33.9581 20.0703 34.3902 20.0703C34.8227 20.0706 35.1726 20.4206 35.1726 20.8526Z" fill="#11496E"/>
<path d="M34.3898 21.7674C33.8846 21.7674 33.4736 21.3566 33.4736 20.8516C33.4736 20.3463 33.8846 19.9355 34.3898 19.9355C34.8951 19.9355 35.3061 20.3463 35.3061 20.8516C35.3061 21.3566 34.8951 21.7674 34.3898 21.7674ZM34.3898 20.2034C34.0324 20.2034 33.7414 20.4943 33.7414 20.8519C33.7414 21.2091 34.0324 21.5 34.3898 21.5C34.7473 21.5 35.0383 21.2091 35.0383 20.8519C35.0383 20.4941 34.7475 20.2034 34.3898 20.2034Z" fill="white"/>
<path d="M37.7981 20.8526C37.7981 21.2842 37.4476 21.6345 37.016 21.6345C36.5839 21.6345 36.2329 21.2842 36.2329 20.8526C36.2329 20.4206 36.5839 20.0703 37.016 20.0703C37.4476 20.0706 37.7981 20.4206 37.7981 20.8526Z" fill="#11496E"/>
<path d="M37.0156 21.7674C36.5099 21.7674 36.0986 21.3566 36.0986 20.8516C36.0986 20.3463 36.5099 19.9355 37.0156 19.9355C37.5209 19.9355 37.9316 20.3463 37.9316 20.8516C37.9316 21.3566 37.5206 21.7674 37.0156 21.7674ZM37.0156 20.2034C36.6577 20.2034 36.3664 20.4943 36.3664 20.8519C36.3664 21.2091 36.6577 21.5 37.0156 21.5C37.3731 21.5 37.6638 21.2091 37.6638 20.8519C37.6638 20.4941 37.3728 20.2034 37.0156 20.2034Z" fill="white"/>
<path d="M40.4232 20.8526C40.4232 21.2842 40.0724 21.6345 39.64 21.6345C39.2084 21.6345 38.8574 21.2842 38.8574 20.8526C38.8574 20.4206 39.2084 20.0703 39.64 20.0703C40.0724 20.0706 40.4232 20.4206 40.4232 20.8526Z" fill="#11496E"/>
<path d="M39.6401 21.7674C39.1349 21.7674 38.7236 21.3566 38.7236 20.8516C38.7236 20.3463 39.1349 19.9355 39.6401 19.9355C40.1459 19.9355 40.5571 20.3463 40.5571 20.8516C40.5571 21.3566 40.1456 21.7674 39.6401 21.7674ZM39.6401 20.2034C39.2824 20.2034 38.9914 20.4943 38.9914 20.8519C38.9914 21.2091 39.2824 21.5 39.6401 21.5C39.9981 21.5 40.2894 21.2091 40.2894 20.8519C40.2894 20.4941 39.9981 20.2034 39.6401 20.2034Z" fill="white"/>
<path d="M43.0481 20.8526C43.0481 21.2842 42.6984 21.6345 42.2657 21.6345C41.8339 21.6345 41.4834 21.2842 41.4834 20.8526C41.4834 20.4206 41.8341 20.0703 42.2657 20.0703C42.6987 20.0706 43.0481 20.4206 43.0481 20.8526Z" fill="#11496E"/>
<path d="M42.2658 21.7674C41.7606 21.7674 41.3496 21.3566 41.3496 20.8516C41.3496 20.3463 41.7606 19.9355 42.2658 19.9355C42.771 19.9355 43.182 20.3463 43.182 20.8516C43.182 21.3566 42.771 21.7674 42.2658 21.7674ZM42.2658 20.2034C41.9084 20.2034 41.6174 20.4943 41.6174 20.8519C41.6174 21.2091 41.9084 21.5 42.2658 21.5C42.6235 21.5 42.9143 21.2091 42.9143 20.8519C42.9143 20.4941 42.6235 20.2034 42.2658 20.2034Z" fill="white"/>
<path d="M45.6736 20.8506C45.6736 21.2823 45.3231 21.6326 44.8913 21.6326C44.4589 21.6326 44.1084 21.2823 44.1084 20.8506C44.1084 20.4187 44.4591 20.0684 44.8913 20.0684C45.3231 20.0686 45.6736 20.4187 45.6736 20.8506Z" fill="#11496E"/>
<path d="M44.8914 21.7674C44.3859 21.7674 43.9746 21.3566 43.9746 20.8516C43.9746 20.3463 44.3859 19.9355 44.8914 19.9355C45.3966 19.9355 45.8076 20.3463 45.8076 20.8516C45.8073 21.3566 45.3963 21.7674 44.8914 21.7674ZM44.8914 20.2034C44.5334 20.2034 44.2424 20.4943 44.2424 20.8519C44.2424 21.2091 44.5334 21.5 44.8914 21.5C45.2488 21.5 45.5398 21.2091 45.5398 20.8519C45.5396 20.4941 45.2488 20.2034 44.8914 20.2034Z" fill="white"/>
<g opacity="0.1">
<path d="M46.5219 31.2978L40.1028 36.2214L29.749 36.1515L37.0656 18.0527L46.8328 18.087L46.5219 31.2978Z" fill="black"/>
</g>
<path d="M46.6863 16.8809H0.116211V17.4557H46.6863V16.8809Z" fill="#2F302B"/>
<path d="M46.6863 14.373H0.116211V14.9479H46.6863V14.373Z" fill="#2F302B"/>
<path d="M0.765751 14.7207H0.116211V17.2283H0.765751V14.7207Z" fill="#2F302B"/>
<path d="M2.78626 14.7207H2.13672V17.2283H2.78626V14.7207Z" fill="#2F302B"/>
<path d="M4.80752 14.7207H4.15771V17.2283H4.80752V14.7207Z" fill="#2F302B"/>
<path d="M7.11731 14.7207H6.46777V17.2283H7.11731V14.7207Z" fill="#2F302B"/>
<path d="M9.71497 14.7207H9.06543V17.2283H9.71497V14.7207Z" fill="#2F302B"/>
<path d="M12.3134 14.7207H11.6636V17.2283H12.3134V14.7207Z" fill="#2F302B"/>
<path d="M14.912 14.7207H14.2622V17.2283H14.912V14.7207Z" fill="#2F302B"/>
<path d="M17.798 14.7207H17.1484V17.2283H17.798V14.7207Z" fill="#2F302B"/>
<path d="M20.6847 14.7207H20.0352V17.2283H20.6847V14.7207Z" fill="#2F302B"/>
<path d="M23.5722 14.7207H22.9224V17.2283H23.5722V14.7207Z" fill="#2F302B"/>
<path d="M27.0363 14.7207H26.3867V17.2283H27.0363V14.7207Z" fill="#2F302B"/>
<path d="M30.212 14.7207H29.5625V17.2283H30.212V14.7207Z" fill="#2F302B"/>
<path d="M33.3878 14.7207H32.7383V17.2283H33.3878V14.7207Z" fill="#2F302B"/>
<path d="M36.5636 14.7207H35.9141V17.2283H36.5636V14.7207Z" fill="#2F302B"/>
<path d="M39.4493 14.7207H38.7998V17.2283H39.4493V14.7207Z" fill="#2F302B"/>
<path d="M42.9145 14.7207H42.2646V17.2283H42.9145V14.7207Z" fill="#2F302B"/>
<path d="M46.6671 14.7207H46.0176V17.2283H46.6671V14.7207Z" fill="#2F302B"/>
<path d="M0.766424 14.9414H0.394531V16.903H0.766424V14.9414Z" fill="#41423C"/>
<path d="M2.78742 14.9297H2.41553V16.8916H2.78742V14.9297Z" fill="#41423C"/>
<path d="M4.79741 14.9414H4.42578V16.903H4.79741V14.9414Z" fill="#41423C"/>
<path d="M7.10822 14.9414H6.73633V16.903H7.10822V14.9414Z" fill="#41423C"/>
<path d="M9.70978 14.9414H9.33789V16.903H9.70978V14.9414Z" fill="#41423C"/>
<path d="M12.3001 14.9531H11.9282V16.9153H12.3001V14.9531Z" fill="#41423C"/>
<path d="M14.9022 14.9531H14.5303V16.9153H14.9022V14.9531Z" fill="#41423C"/>
<path d="M17.7933 14.9531H17.4214V16.9153H17.7933V14.9531Z" fill="#41423C"/>
<path d="M20.6744 14.9531H20.3027V16.9153H20.6744V14.9531Z" fill="#41423C"/>
<path d="M23.5779 14.9414H23.2061V16.903H23.5779V14.9414Z" fill="#41423C"/>
<path d="M27.0399 14.9531H26.668V16.9153H27.0399V14.9531Z" fill="#41423C"/>
<path d="M30.1981 14.9531H29.8262V16.9153H30.1981V14.9531Z" fill="#41423C"/>
<path d="M33.3802 14.9531H33.0083V16.9153H33.3802V14.9531Z" fill="#41423C"/>
<path d="M36.563 14.9414H36.1914V16.903H36.563V14.9414Z" fill="#41423C"/>
<path d="M39.4432 14.9414H39.0713V16.903H39.4432V14.9414Z" fill="#41423C"/>
<path d="M42.9039 14.9531H42.5322V16.9153H42.9039V14.9531Z" fill="#41423C"/>
<path d="M46.6551 14.9531H46.2832V16.9153H46.6551V14.9531Z" fill="#41423C"/>
<path d="M48.5729 14.7441H47.9233V17.2517H48.5729V14.7441Z" fill="#2F302B"/>
<path d="M48.5613 14.9746H48.1895V16.9365H48.5613V14.9746Z" fill="#41423C"/>
<path d="M51.2667 14.6973H50.6172V17.2048H51.2667V14.6973Z" fill="#2F302B"/>
<path d="M51.2552 14.9297H50.8833V16.8916H51.2552V14.9297Z" fill="#41423C"/>
<path d="M53.7521 14.6504H53.1025V17.1579H53.7521V14.6504Z" fill="#2F302B"/>
<path d="M53.7403 14.8828H53.3687V16.8444H53.7403V14.8828Z" fill="#41423C"/>
<path d="M55.9581 14.6738H55.3086V17.1814H55.9581V14.6738Z" fill="#2F302B"/>
<path d="M55.9478 14.9062H55.5762V16.8687H55.9478V14.9062Z" fill="#41423C"/>
<path d="M60.9995 14.373H46.6855V14.9532H60.9995V14.373Z" fill="#393A35"/>
<path d="M60.9995 16.8809H46.6855V17.461H60.9995V16.8809Z" fill="#393A35"/>
<path d="M50.7949 33.7933C48.8996 32.4909 46.1507 31.3182 43.7814 33.4023C41.4119 35.4863 39.4221 34.445 37.2424 33.4023C35.0622 32.3597 33.4509 32.0996 30.7034 33.663C27.9542 35.2256 26.438 35.0953 23.974 33.7933C21.5099 32.4909 19.9937 32.4909 18.0981 33.4023C16.2022 34.3141 14.3069 33.7933 11.9382 33.1409C9.56841 32.4906 8.8107 31.3179 6.15658 33.1409C5.31132 33.7227 4.61091 33.9459 4.04785 33.9812V36.9009C4.61118 36.8656 5.31132 36.6426 6.15658 36.0611C8.8107 34.2384 9.56841 35.4092 11.9382 36.0611C14.3072 36.7125 16.2022 37.2338 18.0981 36.3218C19.9934 35.4095 21.5099 35.4095 23.974 36.7125C26.438 38.0158 27.9542 38.1453 30.7034 36.5827C33.4509 35.0198 35.0624 35.2805 37.2424 36.3218C39.4221 37.3644 41.4119 38.4059 43.7814 36.3218C46.151 34.2386 48.8996 35.4095 50.7949 36.7125C52.35 37.7819 54.8622 37.5343 56.6566 36.7636V33.8444C54.8622 34.6149 52.35 34.8622 50.7949 33.7933Z" fill="#9CDCFE"/>
<path d="M50.7949 36.7125C48.8996 35.4095 46.1507 34.2387 43.7814 36.3218C41.4119 38.406 39.4221 37.3644 37.2424 36.3218C35.0622 35.2803 33.4509 35.0199 30.7034 36.5827C27.9542 38.1456 26.438 38.0161 23.974 36.7125C21.5099 35.4095 19.9937 35.4095 18.0981 36.3218C16.2022 37.2338 14.3069 36.7125 11.9382 36.0612C9.56841 35.4092 8.8107 34.2384 6.15658 36.0612C5.31132 36.6427 4.61091 36.8656 4.04785 36.9009V40.2852C4.61118 40.2501 5.31132 40.0267 6.15658 39.4462C8.8107 37.6221 9.56841 38.7946 11.9382 39.4462C14.3072 40.0973 16.2022 40.6181 18.0981 39.7069C19.9934 38.7948 21.5099 38.7948 23.974 40.0973C26.438 41.4001 27.9542 41.5304 30.7034 39.967C33.4509 38.4047 35.0624 38.6648 37.2424 39.7069C39.4221 40.7487 41.4119 41.7903 43.7814 39.7069C46.151 37.6222 48.8996 38.7948 50.7949 40.0973C52.35 41.1662 54.8622 40.9192 56.6566 40.1482V36.7636C54.8622 37.5344 52.35 37.7819 50.7949 36.7125Z" fill="#86D5FE"/>
<path d="M39.7273 6.72656H31.0718V11.9009H39.7273V6.72656Z" fill="#E74600"/>
<path d="M44.1712 6.72656H39.728V11.9009H44.1712V6.72656Z" fill="#FF6B00"/>
<path d="M31.5326 6.89844H31.3682V11.9004H31.5326V6.89844Z" fill="#C43402"/>
<path d="M32.1244 6.89844H31.96V11.9004H32.1244V6.89844Z" fill="#C43402"/>
<path d="M32.9151 6.89844H32.751V11.9004H32.9151V6.89844Z" fill="#C43402"/>
<path d="M33.7052 6.89844H33.5405V11.9004H33.7052V6.89844Z" fill="#C43402"/>
<path d="M34.6922 6.89844H34.5278V11.9004H34.6922V6.89844Z" fill="#C43402"/>
<path d="M35.679 6.89844H35.5151V11.9004H35.679V6.89844Z" fill="#C43402"/>
<path d="M36.8638 6.89844H36.6997V11.9004H36.8638V6.89844Z" fill="#C43402"/>
<path d="M37.8524 6.89844H37.688V11.9004H37.8524V6.89844Z" fill="#C43402"/>
<path d="M39.0362 6.89844H38.8721V11.9004H39.0362V6.89844Z" fill="#C43402"/>
<path d="M40.6163 6.89844H40.4517V11.9004H40.6163V6.89844Z" fill="#EF6203"/>
<path d="M41.6034 6.89844H41.439V11.9004H41.6034V6.89844Z" fill="#EF6203"/>
<path d="M42.5914 6.89844H42.4272V11.9004H42.5914V6.89844Z" fill="#EF6203"/>
<path d="M43.5785 6.89844H43.4141V11.9004H43.5785V6.89844Z" fill="#EF6203"/>
<path d="M44.1747 6.60547H39.7192V6.90975H44.1747V6.60547Z" fill="#CD5A0D"/>
<path d="M39.7191 6.60547H31.063V6.9159H39.7191V6.60547Z" fill="#B7520D"/>
<path d="M39.7191 11.7812H31.063V12.0917H39.7191V11.7812Z" fill="#B7520D"/>
<path d="M44.1686 11.7812H39.7134V12.0855H44.1686V11.7812Z" fill="#CD5A0D"/>
</svg>
