<svg width="92" height="53" viewBox="0 0 92 53" fill="none" xmlns="http://www.w3.org/2000/svg">
<g filter="url(#filter0_d_1963_14048)">
<path d="M84.9414 0.810547C86.5983 0.810547 87.9414 2.15369 87.9414 3.81055L87.9414 41.7361C87.9414 43.7582 85.9816 45.2012 84.0507 44.6008L48.6019 33.5791C48.0387 33.4039 47.4363 33.3987 46.8701 33.5641L8.78249 44.6887C6.86225 45.2495 4.9414 43.8094 4.9414 41.809L4.94141 3.81054C4.94141 2.15369 6.28455 0.810543 7.94141 0.810543L47.7383 0.810545L84.9414 0.810547Z" fill="#FDE3D4"/>
</g>
<path d="M37.0352 21.7012C37.0352 22.3783 36.8685 22.9616 36.5352 23.4512C36.207 23.9408 35.7331 24.3158 35.1133 24.5762C34.4987 24.8366 33.7643 24.9668 32.9102 24.9668C32.4935 24.9668 32.0951 24.9434 31.7148 24.8965C31.3346 24.8496 30.9753 24.7819 30.6367 24.6934C30.3034 24.5996 29.9987 24.4876 29.7227 24.3574V22.5918C30.1862 22.7949 30.7044 22.9798 31.2773 23.1465C31.8503 23.3079 32.4336 23.3887 33.0273 23.3887C33.5117 23.3887 33.9128 23.3262 34.2305 23.2012C34.5534 23.071 34.793 22.8887 34.9492 22.6543C35.1055 22.4147 35.1836 22.1361 35.1836 21.8184C35.1836 21.4798 35.0924 21.1934 34.9102 20.959C34.7279 20.7246 34.4518 20.5111 34.082 20.3184C33.7174 20.1204 33.2591 19.9095 32.707 19.6855C32.332 19.5345 31.9727 19.3626 31.6289 19.1699C31.2904 18.9772 30.9883 18.7507 30.7227 18.4902C30.457 18.2298 30.2461 17.9225 30.0898 17.5684C29.9388 17.209 29.8633 16.7871 29.8633 16.3027C29.8633 15.6569 30.0169 15.1048 30.3242 14.6465C30.6367 14.1882 31.0742 13.8366 31.6367 13.5918C32.2044 13.347 32.8659 13.2246 33.6211 13.2246C34.2201 13.2246 34.7826 13.2871 35.3086 13.4121C35.8398 13.5371 36.3607 13.7142 36.8711 13.9434L36.2773 15.4512C35.8086 15.2585 35.3529 15.1048 34.9102 14.9902C34.4727 14.8757 34.0247 14.8184 33.5664 14.8184C33.1706 14.8184 32.8346 14.8783 32.5586 14.998C32.2826 15.1178 32.0716 15.2871 31.9258 15.5059C31.7852 15.7194 31.7148 15.9746 31.7148 16.2715C31.7148 16.6048 31.7956 16.8861 31.957 17.1152C32.1237 17.3392 32.3789 17.5449 32.7227 17.7324C33.0716 17.9199 33.5195 18.1283 34.0664 18.3574C34.6966 18.6178 35.2305 18.8913 35.668 19.1777C36.1107 19.4642 36.4492 19.8079 36.6836 20.209C36.918 20.6048 37.0352 21.1022 37.0352 21.7012ZM44.168 24.8105L40.8789 15.2715H40.8086C40.8242 15.485 40.8424 15.7767 40.8633 16.1465C40.8841 16.5163 40.9023 16.9121 40.918 17.334C40.9336 17.7559 40.9414 18.1595 40.9414 18.5449V24.8105H39.2383V13.3887H41.8711L45.0352 22.5059H45.082L48.3555 13.3887H50.9805V24.8105H49.1914V18.4512C49.1914 18.1022 49.1966 17.7246 49.207 17.3184C49.2227 16.9121 49.2383 16.5267 49.2539 16.1621C49.2747 15.7975 49.2904 15.5059 49.3008 15.2871H49.2383L45.8242 24.8105H44.168ZM60.457 24.8105H53.9883V13.3887H60.457V14.9668H55.8633V18.0684H60.168V19.6387H55.8633V23.2246H60.457V24.8105Z" fill="#2B2B2B"/>
<defs>
<filter id="filter0_d_1963_14048" x="0.941406" y="0.810547" width="91" height="52" filterUnits="userSpaceOnUse" color-interpolation-filters="sRGB">
<feFlood flood-opacity="0" result="BackgroundImageFix"/>
<feColorMatrix in="SourceAlpha" type="matrix" values="0 0 0 0 0 0 0 0 0 0 0 0 0 0 0 0 0 0 127 0" result="hardAlpha"/>
<feOffset dy="4"/>
<feGaussianBlur stdDeviation="2"/>
<feComposite in2="hardAlpha" operator="out"/>
<feColorMatrix type="matrix" values="0 0 0 0 1 0 0 0 0 0.721535 0 0 0 0 0.583398 0 0 0 1 0"/>
<feBlend mode="normal" in2="BackgroundImageFix" result="effect1_dropShadow_1963_14048"/>
<feBlend mode="normal" in="SourceGraphic" in2="effect1_dropShadow_1963_14048" result="shape"/>
</filter>
</defs>
</svg>
