<svg width="98" height="94" viewBox="0 0 98 94" fill="none" xmlns="http://www.w3.org/2000/svg">
<circle cx="1.87487" cy="91.2618" r="1.87487" transform="rotate(-90 1.87487 91.2618)" fill="#F37435"/>
<circle cx="1.87487" cy="84.3868" r="1.87487" transform="rotate(-90 1.87487 84.3868)" fill="#F37435"/>
<circle cx="1.87487" cy="77.5118" r="1.87487" transform="rotate(-90 1.87487 77.5118)" fill="#F37435"/>
<circle cx="1.87487" cy="70.6388" r="1.87487" transform="rotate(-90 1.87487 70.6388)" fill="#F37435"/>
<circle cx="1.87487" cy="63.7638" r="1.87487" transform="rotate(-90 1.87487 63.7638)" fill="#F37435"/>
<circle cx="1.87487" cy="56.8888" r="1.87487" transform="rotate(-90 1.87487 56.8888)" fill="#F37435"/>
<circle cx="1.87487" cy="50.0138" r="1.87487" transform="rotate(-90 1.87487 50.0138)" fill="#F37435"/>
<circle cx="8.12488" cy="91.2618" r="1.87487" transform="rotate(-90 8.12488 91.2618)" fill="#F37435"/>
<circle cx="8.12488" cy="84.3868" r="1.87487" transform="rotate(-90 8.12488 84.3868)" fill="#F37435"/>
<circle cx="8.12488" cy="77.5118" r="1.87487" transform="rotate(-90 8.12488 77.5118)" fill="#F37435"/>
<circle cx="8.12488" cy="70.6388" r="1.87487" transform="rotate(-90 8.12488 70.6388)" fill="#F37435"/>
<circle cx="8.12488" cy="63.7638" r="1.87487" transform="rotate(-90 8.12488 63.7638)" fill="#F37435"/>
<circle cx="8.12488" cy="56.8888" r="1.87487" transform="rotate(-90 8.12488 56.8888)" fill="#F37435"/>
<circle cx="8.12488" cy="50.0138" r="1.87487" transform="rotate(-90 8.12488 50.0138)" fill="#F37435"/>
<circle cx="14.3739" cy="91.2618" r="1.87487" transform="rotate(-90 14.3739 91.2618)" fill="#F37435"/>
<circle cx="14.3739" cy="84.3868" r="1.87487" transform="rotate(-90 14.3739 84.3868)" fill="#F37435"/>
<circle cx="14.3739" cy="77.5118" r="1.87487" transform="rotate(-90 14.3739 77.5118)" fill="#F37435"/>
<circle cx="14.3739" cy="70.6388" r="1.87487" transform="rotate(-90 14.3739 70.6388)" fill="#F37435"/>
<circle cx="14.3739" cy="63.7638" r="1.87487" transform="rotate(-90 14.3739 63.7638)" fill="#F37435"/>
<circle cx="14.3739" cy="56.8888" r="1.87487" transform="rotate(-90 14.3739 56.8888)" fill="#F37435"/>
<circle cx="14.3739" cy="50.0138" r="1.87487" transform="rotate(-90 14.3739 50.0138)" fill="#F37435"/>
<circle cx="20.6239" cy="91.2618" r="1.87487" transform="rotate(-90 20.6239 91.2618)" fill="#F37435"/>
<circle cx="20.6229" cy="84.3868" r="1.87487" transform="rotate(-90 20.6229 84.3868)" fill="#F37435"/>
<circle cx="20.6229" cy="77.5118" r="1.87487" transform="rotate(-90 20.6229 77.5118)" fill="#F37435"/>
<circle cx="20.6229" cy="70.6388" r="1.87487" transform="rotate(-90 20.6229 70.6388)" fill="#F37435"/>
<circle cx="20.6239" cy="63.7638" r="1.87487" transform="rotate(-90 20.6239 63.7638)" fill="#F37435"/>
<circle cx="20.6229" cy="56.8888" r="1.87487" transform="rotate(-90 20.6229 56.8888)" fill="#F37435"/>
<circle cx="20.6229" cy="50.0138" r="1.87487" transform="rotate(-90 20.6229 50.0138)" fill="#F37435"/>
<circle cx="26.8729" cy="91.2618" r="1.87487" transform="rotate(-90 26.8729 91.2618)" fill="#F37435"/>
<circle cx="26.8729" cy="84.3868" r="1.87487" transform="rotate(-90 26.8729 84.3868)" fill="#F37435"/>
<circle cx="26.8729" cy="77.5118" r="1.87487" transform="rotate(-90 26.8729 77.5118)" fill="#F37435"/>
<circle cx="26.8729" cy="70.6388" r="1.87487" transform="rotate(-90 26.8729 70.6388)" fill="#F37435"/>
<circle cx="26.8729" cy="63.7638" r="1.87487" transform="rotate(-90 26.8729 63.7638)" fill="#F37435"/>
<circle cx="26.8729" cy="56.8888" r="1.87487" transform="rotate(-90 26.8729 56.8888)" fill="#F37435"/>
<circle cx="26.8729" cy="50.0138" r="1.87487" transform="rotate(-90 26.8729 50.0138)" fill="#F37435"/>
<circle cx="33.1229" cy="91.2618" r="1.87487" transform="rotate(-90 33.1229 91.2618)" fill="#F37435"/>
<circle cx="33.1229" cy="84.3868" r="1.87487" transform="rotate(-90 33.1229 84.3868)" fill="#F37435"/>
<circle cx="33.1229" cy="77.5118" r="1.87487" transform="rotate(-90 33.1229 77.5118)" fill="#F37435"/>
<circle cx="33.1229" cy="70.6388" r="1.87487" transform="rotate(-90 33.1229 70.6388)" fill="#F37435"/>
<circle cx="33.1229" cy="63.7638" r="1.87487" transform="rotate(-90 33.1229 63.7638)" fill="#F37435"/>
<circle cx="33.1229" cy="56.8888" r="1.87487" transform="rotate(-90 33.1229 56.8888)" fill="#F37435"/>
<circle cx="33.1229" cy="50.0138" r="1.87487" transform="rotate(-90 33.1229 50.0138)" fill="#F37435"/>
<circle cx="39.3719" cy="91.2618" r="1.87487" transform="rotate(-90 39.3719 91.2618)" fill="#F37435"/>
<circle cx="39.3729" cy="84.3868" r="1.87487" transform="rotate(-90 39.3729 84.3868)" fill="#F37435"/>
<circle cx="39.3729" cy="77.5118" r="1.87487" transform="rotate(-90 39.3729 77.5118)" fill="#F37435"/>
<circle cx="39.3729" cy="70.6388" r="1.87487" transform="rotate(-90 39.3729 70.6388)" fill="#F37435"/>
<circle cx="39.3719" cy="63.7638" r="1.87487" transform="rotate(-90 39.3719 63.7638)" fill="#F37435"/>
<circle cx="39.3729" cy="56.8888" r="1.87487" transform="rotate(-90 39.3729 56.8888)" fill="#F37435"/>
<circle cx="39.3729" cy="50.0138" r="1.87487" transform="rotate(-90 39.3729 50.0138)" fill="#F37435"/>
<circle cx="45.6219" cy="91.2618" r="1.87487" transform="rotate(-90 45.6219 91.2618)" fill="#F37435"/>
<circle cx="45.6219" cy="84.3868" r="1.87487" transform="rotate(-90 45.6219 84.3868)" fill="#F37435"/>
<circle cx="45.6219" cy="77.5118" r="1.87487" transform="rotate(-90 45.6219 77.5118)" fill="#F37435"/>
<circle cx="45.6219" cy="70.6388" r="1.87487" transform="rotate(-90 45.6219 70.6388)" fill="#F37435"/>
<circle cx="45.6219" cy="63.7638" r="1.87487" transform="rotate(-90 45.6219 63.7638)" fill="#F37435"/>
<circle cx="45.6219" cy="56.8888" r="1.87487" transform="rotate(-90 45.6219 56.8888)" fill="#F37435"/>
<circle cx="45.6219" cy="50.0138" r="1.87487" transform="rotate(-90 45.6219 50.0138)" fill="#F37435"/>
<circle cx="1.87487" cy="43.1232" r="1.87487" transform="rotate(-90 1.87487 43.1232)" fill="#F37435"/>
<circle cx="1.87487" cy="36.2482" r="1.87487" transform="rotate(-90 1.87487 36.2482)" fill="#F37435"/>
<circle cx="1.87487" cy="29.3732" r="1.87487" transform="rotate(-90 1.87487 29.3732)" fill="#F37435"/>
<circle cx="1.87487" cy="22.5001" r="1.87487" transform="rotate(-90 1.87487 22.5001)" fill="#F37435"/>
<circle cx="1.87487" cy="15.6251" r="1.87487" transform="rotate(-90 1.87487 15.6251)" fill="#F37435"/>
<circle cx="1.87487" cy="8.75012" r="1.87487" transform="rotate(-90 1.87487 8.75012)" fill="#F37435"/>
<circle cx="1.87487" cy="1.87513" r="1.87487" transform="rotate(-90 1.87487 1.87513)" fill="#F37435"/>
<circle cx="8.12488" cy="43.1232" r="1.87487" transform="rotate(-90 8.12488 43.1232)" fill="#F37435"/>
<circle cx="8.12488" cy="36.2482" r="1.87487" transform="rotate(-90 8.12488 36.2482)" fill="#F37435"/>
<circle cx="8.12488" cy="29.3732" r="1.87487" transform="rotate(-90 8.12488 29.3732)" fill="#F37435"/>
<circle cx="8.12488" cy="22.5001" r="1.87487" transform="rotate(-90 8.12488 22.5001)" fill="#F37435"/>
<circle cx="8.12488" cy="15.6251" r="1.87487" transform="rotate(-90 8.12488 15.6251)" fill="#F37435"/>
<circle cx="8.12488" cy="8.75012" r="1.87487" transform="rotate(-90 8.12488 8.75012)" fill="#F37435"/>
<circle cx="8.12488" cy="1.87513" r="1.87487" transform="rotate(-90 8.12488 1.87513)" fill="#F37435"/>
<circle cx="14.3739" cy="43.1232" r="1.87487" transform="rotate(-90 14.3739 43.1232)" fill="#F37435"/>
<circle cx="14.3739" cy="36.2482" r="1.87487" transform="rotate(-90 14.3739 36.2482)" fill="#F37435"/>
<circle cx="14.3739" cy="29.3732" r="1.87487" transform="rotate(-90 14.3739 29.3732)" fill="#F37435"/>
<circle cx="14.3739" cy="22.5001" r="1.87487" transform="rotate(-90 14.3739 22.5001)" fill="#F37435"/>
<circle cx="14.3739" cy="15.6251" r="1.87487" transform="rotate(-90 14.3739 15.6251)" fill="#F37435"/>
<circle cx="14.3739" cy="8.75012" r="1.87487" transform="rotate(-90 14.3739 8.75012)" fill="#F37435"/>
<circle cx="14.3739" cy="1.87513" r="1.87487" transform="rotate(-90 14.3739 1.87513)" fill="#F37435"/>
<circle cx="20.6239" cy="43.1232" r="1.87487" transform="rotate(-90 20.6239 43.1232)" fill="#F37435"/>
<circle cx="20.6229" cy="36.2482" r="1.87487" transform="rotate(-90 20.6229 36.2482)" fill="#F37435"/>
<circle cx="20.6229" cy="29.3732" r="1.87487" transform="rotate(-90 20.6229 29.3732)" fill="#F37435"/>
<circle cx="20.6229" cy="22.5001" r="1.87487" transform="rotate(-90 20.6229 22.5001)" fill="#F37435"/>
<circle cx="20.6239" cy="15.6251" r="1.87487" transform="rotate(-90 20.6239 15.6251)" fill="#F37435"/>
<circle cx="20.6229" cy="8.75012" r="1.87487" transform="rotate(-90 20.6229 8.75012)" fill="#F37435"/>
<circle cx="20.6229" cy="1.87513" r="1.87487" transform="rotate(-90 20.6229 1.87513)" fill="#F37435"/>
<circle cx="26.8729" cy="43.1232" r="1.87487" transform="rotate(-90 26.8729 43.1232)" fill="#F37435"/>
<circle cx="26.8729" cy="36.2482" r="1.87487" transform="rotate(-90 26.8729 36.2482)" fill="#F37435"/>
<circle cx="26.8729" cy="29.3732" r="1.87487" transform="rotate(-90 26.8729 29.3732)" fill="#F37435"/>
<circle cx="26.8729" cy="22.5001" r="1.87487" transform="rotate(-90 26.8729 22.5001)" fill="#F37435"/>
<circle cx="26.8729" cy="15.6251" r="1.87487" transform="rotate(-90 26.8729 15.6251)" fill="#F37435"/>
<circle cx="26.8729" cy="8.75012" r="1.87487" transform="rotate(-90 26.8729 8.75012)" fill="#F37435"/>
<circle cx="26.8729" cy="1.87513" r="1.87487" transform="rotate(-90 26.8729 1.87513)" fill="#F37435"/>
<circle cx="33.1229" cy="43.1232" r="1.87487" transform="rotate(-90 33.1229 43.1232)" fill="#F37435"/>
<circle cx="33.1229" cy="36.2482" r="1.87487" transform="rotate(-90 33.1229 36.2482)" fill="#F37435"/>
<circle cx="33.1229" cy="29.3732" r="1.87487" transform="rotate(-90 33.1229 29.3732)" fill="#F37435"/>
<circle cx="33.1229" cy="22.5001" r="1.87487" transform="rotate(-90 33.1229 22.5001)" fill="#F37435"/>
<circle cx="33.1229" cy="15.6251" r="1.87487" transform="rotate(-90 33.1229 15.6251)" fill="#F37435"/>
<circle cx="33.1229" cy="8.75012" r="1.87487" transform="rotate(-90 33.1229 8.75012)" fill="#F37435"/>
<circle cx="33.1229" cy="1.87513" r="1.87487" transform="rotate(-90 33.1229 1.87513)" fill="#F37435"/>
<circle cx="39.3719" cy="43.1232" r="1.87487" transform="rotate(-90 39.3719 43.1232)" fill="#F37435"/>
<circle cx="39.3729" cy="36.2482" r="1.87487" transform="rotate(-90 39.3729 36.2482)" fill="#F37435"/>
<circle cx="39.3729" cy="29.3732" r="1.87487" transform="rotate(-90 39.3729 29.3732)" fill="#F37435"/>
<circle cx="39.3729" cy="22.5001" r="1.87487" transform="rotate(-90 39.3729 22.5001)" fill="#F37435"/>
<circle cx="39.3719" cy="15.6251" r="1.87487" transform="rotate(-90 39.3719 15.6251)" fill="#F37435"/>
<circle cx="39.3729" cy="8.75012" r="1.87487" transform="rotate(-90 39.3729 8.75012)" fill="#F37435"/>
<circle cx="39.3729" cy="1.87513" r="1.87487" transform="rotate(-90 39.3729 1.87513)" fill="#F37435"/>
<circle cx="45.6219" cy="43.1232" r="1.87487" transform="rotate(-90 45.6219 43.1232)" fill="#F37435"/>
<circle cx="45.6219" cy="36.2482" r="1.87487" transform="rotate(-90 45.6219 36.2482)" fill="#F37435"/>
<circle cx="45.6219" cy="29.3732" r="1.87487" transform="rotate(-90 45.6219 29.3732)" fill="#F37435"/>
<circle cx="45.6219" cy="22.5001" r="1.87487" transform="rotate(-90 45.6219 22.5001)" fill="#F37435"/>
<circle cx="45.6219" cy="15.6251" r="1.87487" transform="rotate(-90 45.6219 15.6251)" fill="#F37435"/>
<circle cx="45.6219" cy="8.75012" r="1.87487" transform="rotate(-90 45.6219 8.75012)" fill="#F37435"/>
<circle cx="45.6219" cy="1.87513" r="1.87487" transform="rotate(-90 45.6219 1.87513)" fill="#F37435"/>
<circle cx="51.9393" cy="91.2618" r="1.87487" transform="rotate(-90 51.9393 91.2618)" fill="#F37435"/>
<circle cx="51.9393" cy="84.3868" r="1.87487" transform="rotate(-90 51.9393 84.3868)" fill="#F37435"/>
<circle cx="51.9393" cy="77.5118" r="1.87487" transform="rotate(-90 51.9393 77.5118)" fill="#F37435"/>
<circle cx="51.9393" cy="70.6388" r="1.87487" transform="rotate(-90 51.9393 70.6388)" fill="#F37435"/>
<circle cx="51.9393" cy="63.7638" r="1.87487" transform="rotate(-90 51.9393 63.7638)" fill="#F37435"/>
<circle cx="51.9393" cy="56.8888" r="1.87487" transform="rotate(-90 51.9393 56.8888)" fill="#F37435"/>
<circle cx="51.9393" cy="50.0138" r="1.87487" transform="rotate(-90 51.9393 50.0138)" fill="#F37435"/>
<circle cx="58.1893" cy="91.2618" r="1.87487" transform="rotate(-90 58.1893 91.2618)" fill="#F37435"/>
<circle cx="58.1893" cy="84.3868" r="1.87487" transform="rotate(-90 58.1893 84.3868)" fill="#F37435"/>
<circle cx="58.1893" cy="77.5118" r="1.87487" transform="rotate(-90 58.1893 77.5118)" fill="#F37435"/>
<circle cx="58.1893" cy="70.6388" r="1.87487" transform="rotate(-90 58.1893 70.6388)" fill="#F37435"/>
<circle cx="58.1893" cy="63.7638" r="1.87487" transform="rotate(-90 58.1893 63.7638)" fill="#F37435"/>
<circle cx="58.1893" cy="56.8888" r="1.87487" transform="rotate(-90 58.1893 56.8888)" fill="#F37435"/>
<circle cx="58.1893" cy="50.0138" r="1.87487" transform="rotate(-90 58.1893 50.0138)" fill="#F37435"/>
<circle cx="64.4384" cy="91.2618" r="1.87487" transform="rotate(-90 64.4384 91.2618)" fill="#F37435"/>
<circle cx="64.4384" cy="84.3868" r="1.87487" transform="rotate(-90 64.4384 84.3868)" fill="#F37435"/>
<circle cx="64.4384" cy="77.5118" r="1.87487" transform="rotate(-90 64.4384 77.5118)" fill="#F37435"/>
<circle cx="64.4384" cy="70.6388" r="1.87487" transform="rotate(-90 64.4384 70.6388)" fill="#F37435"/>
<circle cx="64.4384" cy="63.7638" r="1.87487" transform="rotate(-90 64.4384 63.7638)" fill="#F37435"/>
<circle cx="64.4384" cy="56.8888" r="1.87487" transform="rotate(-90 64.4384 56.8888)" fill="#F37435"/>
<circle cx="64.4384" cy="50.0138" r="1.87487" transform="rotate(-90 64.4384 50.0138)" fill="#F37435"/>
<circle cx="70.6884" cy="91.2618" r="1.87487" transform="rotate(-90 70.6884 91.2618)" fill="#F37435"/>
<circle cx="70.6884" cy="84.3868" r="1.87487" transform="rotate(-90 70.6884 84.3868)" fill="#F37435"/>
<circle cx="70.6884" cy="77.5118" r="1.87487" transform="rotate(-90 70.6884 77.5118)" fill="#F37435"/>
<circle cx="70.6884" cy="70.6388" r="1.87487" transform="rotate(-90 70.6884 70.6388)" fill="#F37435"/>
<circle cx="70.6884" cy="63.7638" r="1.87487" transform="rotate(-90 70.6884 63.7638)" fill="#F37435"/>
<circle cx="70.6884" cy="56.8888" r="1.87487" transform="rotate(-90 70.6884 56.8888)" fill="#F37435"/>
<circle cx="70.6884" cy="50.0138" r="1.87487" transform="rotate(-90 70.6884 50.0138)" fill="#F37435"/>
<circle cx="76.9374" cy="91.2618" r="1.87487" transform="rotate(-90 76.9374 91.2618)" fill="#F37435"/>
<circle cx="76.9374" cy="84.3868" r="1.87487" transform="rotate(-90 76.9374 84.3868)" fill="#F37435"/>
<circle cx="76.9374" cy="77.5118" r="1.87487" transform="rotate(-90 76.9374 77.5118)" fill="#F37435"/>
<circle cx="76.9374" cy="70.6388" r="1.87487" transform="rotate(-90 76.9374 70.6388)" fill="#F37435"/>
<circle cx="76.9374" cy="63.7638" r="1.87487" transform="rotate(-90 76.9374 63.7638)" fill="#F37435"/>
<circle cx="76.9374" cy="56.8888" r="1.87487" transform="rotate(-90 76.9374 56.8888)" fill="#F37435"/>
<circle cx="76.9374" cy="50.0138" r="1.87487" transform="rotate(-90 76.9374 50.0138)" fill="#F37435"/>
<circle cx="83.1874" cy="91.2618" r="1.87487" transform="rotate(-90 83.1874 91.2618)" fill="#F37435"/>
<circle cx="83.1874" cy="84.3868" r="1.87487" transform="rotate(-90 83.1874 84.3868)" fill="#F37435"/>
<circle cx="83.1874" cy="77.5118" r="1.87487" transform="rotate(-90 83.1874 77.5118)" fill="#F37435"/>
<circle cx="83.1874" cy="70.6388" r="1.87487" transform="rotate(-90 83.1874 70.6388)" fill="#F37435"/>
<circle cx="83.1874" cy="63.7638" r="1.87487" transform="rotate(-90 83.1874 63.7638)" fill="#F37435"/>
<circle cx="83.1874" cy="56.8888" r="1.87487" transform="rotate(-90 83.1874 56.8888)" fill="#F37435"/>
<circle cx="83.1874" cy="50.0138" r="1.87487" transform="rotate(-90 83.1874 50.0138)" fill="#F37435"/>
<circle cx="89.4374" cy="91.2618" r="1.87487" transform="rotate(-90 89.4374 91.2618)" fill="#F37435"/>
<circle cx="89.4374" cy="84.3868" r="1.87487" transform="rotate(-90 89.4374 84.3868)" fill="#F37435"/>
<circle cx="89.4374" cy="77.5118" r="1.87487" transform="rotate(-90 89.4374 77.5118)" fill="#F37435"/>
<circle cx="89.4374" cy="70.6388" r="1.87487" transform="rotate(-90 89.4374 70.6388)" fill="#F37435"/>
<circle cx="89.4374" cy="63.7638" r="1.87487" transform="rotate(-90 89.4374 63.7638)" fill="#F37435"/>
<circle cx="89.4374" cy="56.8888" r="1.87487" transform="rotate(-90 89.4374 56.8888)" fill="#F37435"/>
<circle cx="89.4374" cy="50.0138" r="1.87487" transform="rotate(-90 89.4374 50.0138)" fill="#F37435"/>
<circle cx="95.6864" cy="91.2618" r="1.87487" transform="rotate(-90 95.6864 91.2618)" fill="#F37435"/>
<circle cx="95.6864" cy="84.3868" r="1.87487" transform="rotate(-90 95.6864 84.3868)" fill="#F37435"/>
<circle cx="95.6864" cy="77.5118" r="1.87487" transform="rotate(-90 95.6864 77.5118)" fill="#F37435"/>
<circle cx="95.6864" cy="70.6388" r="1.87487" transform="rotate(-90 95.6864 70.6388)" fill="#F37435"/>
<circle cx="95.6864" cy="63.7638" r="1.87487" transform="rotate(-90 95.6864 63.7638)" fill="#F37435"/>
<circle cx="95.6864" cy="56.8888" r="1.87487" transform="rotate(-90 95.6864 56.8888)" fill="#F37435"/>
<circle cx="95.6864" cy="50.0138" r="1.87487" transform="rotate(-90 95.6864 50.0138)" fill="#F37435"/>
<circle cx="51.9393" cy="43.1232" r="1.87487" transform="rotate(-90 51.9393 43.1232)" fill="#F37435"/>
<circle cx="51.9393" cy="36.2482" r="1.87487" transform="rotate(-90 51.9393 36.2482)" fill="#F37435"/>
<circle cx="51.9393" cy="29.3732" r="1.87487" transform="rotate(-90 51.9393 29.3732)" fill="#F37435"/>
<circle cx="51.9393" cy="22.5001" r="1.87487" transform="rotate(-90 51.9393 22.5001)" fill="#F37435"/>
<circle cx="51.9393" cy="15.6251" r="1.87487" transform="rotate(-90 51.9393 15.6251)" fill="#F37435"/>
<circle cx="51.9393" cy="8.75012" r="1.87487" transform="rotate(-90 51.9393 8.75012)" fill="#F37435"/>
<circle cx="51.9393" cy="1.87513" r="1.87487" transform="rotate(-90 51.9393 1.87513)" fill="#F37435"/>
<circle cx="58.1893" cy="43.1232" r="1.87487" transform="rotate(-90 58.1893 43.1232)" fill="#F37435"/>
<circle cx="58.1893" cy="36.2482" r="1.87487" transform="rotate(-90 58.1893 36.2482)" fill="#F37435"/>
<circle cx="58.1893" cy="29.3732" r="1.87487" transform="rotate(-90 58.1893 29.3732)" fill="#F37435"/>
<circle cx="58.1893" cy="22.5001" r="1.87487" transform="rotate(-90 58.1893 22.5001)" fill="#F37435"/>
<circle cx="58.1893" cy="15.6251" r="1.87487" transform="rotate(-90 58.1893 15.6251)" fill="#F37435"/>
<circle cx="58.1893" cy="8.75012" r="1.87487" transform="rotate(-90 58.1893 8.75012)" fill="#F37435"/>
<circle cx="58.1893" cy="1.87513" r="1.87487" transform="rotate(-90 58.1893 1.87513)" fill="#F37435"/>
<circle cx="64.4384" cy="43.1232" r="1.87487" transform="rotate(-90 64.4384 43.1232)" fill="#F37435"/>
<circle cx="64.4384" cy="36.2482" r="1.87487" transform="rotate(-90 64.4384 36.2482)" fill="#F37435"/>
<circle cx="64.4384" cy="29.3732" r="1.87487" transform="rotate(-90 64.4384 29.3732)" fill="#F37435"/>
<circle cx="64.4384" cy="22.5001" r="1.87487" transform="rotate(-90 64.4384 22.5001)" fill="#F37435"/>
<circle cx="64.4384" cy="15.6251" r="1.87487" transform="rotate(-90 64.4384 15.6251)" fill="#F37435"/>
<circle cx="64.4384" cy="8.75012" r="1.87487" transform="rotate(-90 64.4384 8.75012)" fill="#F37435"/>
<circle cx="64.4384" cy="1.87513" r="1.87487" transform="rotate(-90 64.4384 1.87513)" fill="#F37435"/>
<circle cx="70.6884" cy="43.1232" r="1.87487" transform="rotate(-90 70.6884 43.1232)" fill="#F37435"/>
<circle cx="70.6884" cy="36.2482" r="1.87487" transform="rotate(-90 70.6884 36.2482)" fill="#F37435"/>
<circle cx="70.6884" cy="29.3732" r="1.87487" transform="rotate(-90 70.6884 29.3732)" fill="#F37435"/>
<circle cx="70.6884" cy="22.5001" r="1.87487" transform="rotate(-90 70.6884 22.5001)" fill="#F37435"/>
<circle cx="70.6884" cy="15.6251" r="1.87487" transform="rotate(-90 70.6884 15.6251)" fill="#F37435"/>
<circle cx="70.6884" cy="8.75012" r="1.87487" transform="rotate(-90 70.6884 8.75012)" fill="#F37435"/>
<circle cx="70.6884" cy="1.87513" r="1.87487" transform="rotate(-90 70.6884 1.87513)" fill="#F37435"/>
<circle cx="76.9374" cy="43.1232" r="1.87487" transform="rotate(-90 76.9374 43.1232)" fill="#F37435"/>
<circle cx="76.9374" cy="36.2482" r="1.87487" transform="rotate(-90 76.9374 36.2482)" fill="#F37435"/>
<circle cx="76.9374" cy="29.3732" r="1.87487" transform="rotate(-90 76.9374 29.3732)" fill="#F37435"/>
<circle cx="76.9374" cy="22.5001" r="1.87487" transform="rotate(-90 76.9374 22.5001)" fill="#F37435"/>
<circle cx="76.9374" cy="15.6251" r="1.87487" transform="rotate(-90 76.9374 15.6251)" fill="#F37435"/>
<circle cx="76.9374" cy="8.75012" r="1.87487" transform="rotate(-90 76.9374 8.75012)" fill="#F37435"/>
<circle cx="76.9374" cy="1.87513" r="1.87487" transform="rotate(-90 76.9374 1.87513)" fill="#F37435"/>
<circle cx="83.1874" cy="43.1232" r="1.87487" transform="rotate(-90 83.1874 43.1232)" fill="#F37435"/>
<circle cx="83.1874" cy="36.2482" r="1.87487" transform="rotate(-90 83.1874 36.2482)" fill="#F37435"/>
<circle cx="83.1874" cy="29.3732" r="1.87487" transform="rotate(-90 83.1874 29.3732)" fill="#F37435"/>
<circle cx="83.1874" cy="22.5001" r="1.87487" transform="rotate(-90 83.1874 22.5001)" fill="#F37435"/>
<circle cx="83.1874" cy="15.6251" r="1.87487" transform="rotate(-90 83.1874 15.6251)" fill="#F37435"/>
<circle cx="83.1874" cy="8.75012" r="1.87487" transform="rotate(-90 83.1874 8.75012)" fill="#F37435"/>
<circle cx="83.1874" cy="1.87513" r="1.87487" transform="rotate(-90 83.1874 1.87513)" fill="#F37435"/>
<circle cx="89.4374" cy="43.1232" r="1.87487" transform="rotate(-90 89.4374 43.1232)" fill="#F37435"/>
<circle cx="89.4374" cy="36.2482" r="1.87487" transform="rotate(-90 89.4374 36.2482)" fill="#F37435"/>
<circle cx="89.4374" cy="29.3732" r="1.87487" transform="rotate(-90 89.4374 29.3732)" fill="#F37435"/>
<circle cx="89.4374" cy="22.5001" r="1.87487" transform="rotate(-90 89.4374 22.5001)" fill="#F37435"/>
<circle cx="89.4374" cy="15.6251" r="1.87487" transform="rotate(-90 89.4374 15.6251)" fill="#F37435"/>
<circle cx="89.4374" cy="8.75012" r="1.87487" transform="rotate(-90 89.4374 8.75012)" fill="#F37435"/>
<circle cx="89.4374" cy="1.87513" r="1.87487" transform="rotate(-90 89.4374 1.87513)" fill="#F37435"/>
<circle cx="95.6864" cy="43.1232" r="1.87487" transform="rotate(-90 95.6864 43.1232)" fill="#F37435"/>
<circle cx="95.6864" cy="36.2482" r="1.87487" transform="rotate(-90 95.6864 36.2482)" fill="#F37435"/>
<circle cx="95.6864" cy="29.3732" r="1.87487" transform="rotate(-90 95.6864 29.3732)" fill="#F37435"/>
<circle cx="95.6864" cy="22.5001" r="1.87487" transform="rotate(-90 95.6864 22.5001)" fill="#F37435"/>
<circle cx="95.6864" cy="15.6251" r="1.87487" transform="rotate(-90 95.6864 15.6251)" fill="#F37435"/>
<circle cx="95.6864" cy="8.75012" r="1.87487" transform="rotate(-90 95.6864 8.75012)" fill="#F37435"/>
<circle cx="95.6864" cy="1.87513" r="1.87487" transform="rotate(-90 95.6864 1.87513)" fill="#F37435"/>
</svg>
