<svg width="126" height="48" viewBox="0 0 126 48" fill="none" xmlns="http://www.w3.org/2000/svg">
<path fill-rule="evenodd" clip-rule="evenodd" d="M0.00585938 47.987H126.011V-0.0078125H0.00585938V47.987Z" fill="#009498"/>
<mask id="mask0_2165_11126" style="mask-type:luminance" maskUnits="userSpaceOnUse" x="0" y="0" width="57" height="48">
<path d="M0 0H56.875V48.0003H0V0Z" fill="white"/>
</mask>
<g mask="url(#mask0_2165_11126)">
<path fill-rule="evenodd" clip-rule="evenodd" d="M0.00585938 -0.0078125H56.8091L35.9752 47.987H21.9567L0.00585938 -0.0078125Z" fill="white"/>
<path fill-rule="evenodd" clip-rule="evenodd" d="M0.00585938 -0.0078125H56.8091L35.9752 47.987L29.6137 19.8894L34.9013 18.0055L26.9948 14.9716L21.9567 47.987L0.00585938 -0.0078125Z" fill="#112972"/>
</g>
<path fill-rule="evenodd" clip-rule="evenodd" d="M28.2102 16.5047C28.6135 16.5047 28.9396 16.833 28.9396 17.2387C28.9396 17.6444 28.6121 17.9727 28.2102 17.9727C27.8075 17.9727 27.4814 17.6444 27.4814 17.2387C27.4814 16.833 27.8075 16.5047 28.2102 16.5047Z" fill="#112972" stroke="black" stroke-width="0.266667"/>
<path fill-rule="evenodd" clip-rule="evenodd" d="M48.5615 42.3956V33.7676H49.3839L52.6597 41.2936V33.7676H53.3433V42.3956H52.5024L49.2431 35.0162V42.3956H48.5615ZM58.2863 42.4189C58.1804 42.4415 58.0915 42.4573 58.0204 42.4634C57.9493 42.471 57.8803 42.4744 57.8126 42.4744C57.6431 42.4744 57.5009 42.4326 57.3874 42.3435C57.2719 42.2551 57.1837 42.1174 57.1201 41.9344C56.939 42.1489 56.7332 42.3099 56.5001 42.4189C56.267 42.5285 56.0065 42.5827 55.7201 42.5827C55.2546 42.5827 54.8909 42.4264 54.6271 42.116C54.3632 41.8049 54.2326 41.3724 54.2326 40.8187C54.2326 40.3328 54.3495 39.9422 54.5847 39.6455C54.8191 39.3494 55.2272 39.0897 55.8049 38.8642C55.9259 38.8176 56.0899 38.76 56.2957 38.6888C56.8521 38.4948 57.1311 38.2406 57.1311 37.924V37.3935C57.1311 37.0536 57.0579 36.8049 56.9103 36.6507C56.764 36.4958 56.524 36.419 56.1938 36.419C55.8452 36.419 55.58 36.5191 55.3968 36.7178C55.2143 36.9186 55.1179 37.2181 55.1063 37.6135H54.4521V37.4778C54.4521 36.9919 54.6113 36.6041 54.9313 36.3183C55.2505 36.0305 55.6798 35.8886 56.2171 35.8886C56.5363 35.8886 56.8043 35.9284 57.0237 36.0078C57.2411 36.0873 57.4161 36.2086 57.5474 36.3745C57.6376 36.4882 57.7032 36.6219 57.7415 36.774C57.7818 36.9268 57.8003 37.1482 57.8003 37.4381V41.2141C57.8003 41.5348 57.8304 41.7336 57.8857 41.809C57.9418 41.8844 58.0532 41.9227 58.2193 41.9227H58.2863V42.4189ZM57.1085 38.993C56.1303 39.3727 55.5239 39.6797 55.2888 39.9155C55.0543 40.1492 54.9367 40.45 54.9367 40.8187C54.9367 41.1778 55.0194 41.4595 55.1849 41.6678C55.3503 41.8748 55.5759 41.9789 55.863 41.9789C56.2902 41.9789 56.6061 41.8227 56.8057 41.5115C57.008 41.2011 57.1085 40.7132 57.1085 40.045V38.993ZM60.7534 42.4305C60.6748 42.4477 60.5941 42.4634 60.5128 42.473C60.4321 42.4826 60.3398 42.4854 60.2339 42.4854C59.847 42.4854 59.5838 42.3956 59.443 42.2119C59.3021 42.029 59.2311 41.5814 59.2311 40.8687V36.6061H58.5939V36.0407H59.2311V34.2411H59.8976V36.0407H60.7534V36.6061H59.8976V41.0065C59.8976 41.4307 59.9338 41.6952 60.0069 41.7932C60.0801 41.8933 60.2188 41.944 60.4205 41.944C60.4629 41.944 60.5114 41.9419 60.5668 41.9364C60.6249 41.9296 60.6864 41.9207 60.7534 41.909V42.4305ZM61.7433 36.0407H62.4474V42.3956H61.7433V36.0407ZM64.453 39.2343C64.453 40.1313 64.5631 40.8112 64.7825 41.2689C65.0033 41.726 65.3287 41.9556 65.7621 41.9556C66.1928 41.9556 66.5209 41.726 66.7417 41.2648C66.9632 40.8057 67.0746 40.1279 67.0746 39.2343C67.0746 38.3406 66.9632 37.6656 66.7417 37.2044C66.5209 36.7452 66.1928 36.5157 65.7621 36.5157C65.3287 36.5157 65.0033 36.7452 64.7825 37.2017C64.5631 37.6601 64.453 38.3393 64.453 39.2343ZM63.7257 39.2343C63.7257 38.1193 63.8945 37.2832 64.2356 36.726C64.5761 36.1682 65.0847 35.8886 65.7601 35.8886C66.4375 35.8886 66.9461 36.1682 67.2831 36.726C67.6215 37.2832 67.791 38.1193 67.791 39.2343C67.791 40.352 67.6235 41.1853 67.2865 41.7398C66.9495 42.2935 66.4409 42.571 65.7601 42.571C65.0765 42.571 64.5665 42.2935 64.2295 41.7398C63.8932 41.1853 63.7257 40.352 63.7257 39.2343ZM71.8502 42.3956V38.1097C71.8502 37.4381 71.7812 37.0015 71.6424 36.7973C71.5022 36.5945 71.2521 36.4924 70.8918 36.4924C70.5568 36.4924 70.254 36.6041 69.9833 36.8261C69.7119 37.0475 69.5772 37.2873 69.5772 37.5436V42.3956H68.8834V36.0407H69.5096V36.7356C69.7194 36.4382 69.9505 36.2203 70.2007 36.0825C70.4509 35.9462 70.7353 35.877 71.0552 35.877C71.5733 35.877 71.9507 36.0353 72.1865 36.3532C72.4237 36.6719 72.5434 37.1852 72.5434 37.8897V42.3956H71.8502ZM77.3805 42.4189C77.2745 42.4415 77.1863 42.4573 77.1146 42.4634C77.0428 42.471 76.9744 42.4744 76.9067 42.4744C76.7379 42.4744 76.595 42.4326 76.4815 42.3435C76.366 42.2551 76.2772 42.1174 76.2143 41.9344C76.0331 42.1489 75.8273 42.3099 75.5942 42.4189C75.3611 42.5285 75.1014 42.5827 74.8143 42.5827C74.3487 42.5827 73.9851 42.4264 73.7212 42.116C73.4573 41.8049 73.3268 41.3724 73.3268 40.8187C73.3268 40.3328 73.4437 39.9422 73.6788 39.6455C73.9133 39.3494 74.3221 39.0897 74.899 38.8642C75.0207 38.8176 75.1834 38.76 75.3898 38.6888C75.9463 38.4948 76.2252 38.2406 76.2252 37.924V37.3935C76.2252 37.0536 76.1527 36.8049 76.0044 36.6507C75.8581 36.4958 75.6195 36.419 75.288 36.419C74.9394 36.419 74.6741 36.5191 74.4909 36.7178C74.3084 36.9186 74.212 37.2181 74.2004 37.6135H73.5462V37.4778C73.5462 36.9919 73.7055 36.6041 74.0254 36.3183C74.3446 36.0305 74.7739 35.8886 75.3112 35.8886C75.6305 35.8886 75.8978 35.9284 76.1179 36.0078C76.3353 36.0873 76.5103 36.2086 76.6415 36.3745C76.7317 36.4882 76.7974 36.6219 76.8356 36.774C76.8753 36.9268 76.8958 37.1482 76.8958 37.4381V41.2141C76.8958 41.5348 76.9245 41.7336 76.9799 41.809C77.0353 41.8844 77.1474 41.9227 77.3128 41.9227H77.3805V42.4189ZM76.2026 38.993C75.2244 39.3727 74.6181 39.6797 74.3836 39.9155C74.1478 40.1492 74.0309 40.45 74.0309 40.8187C74.0309 41.1778 74.1136 41.4595 74.279 41.6678C74.4451 41.8748 74.67 41.9789 74.9571 41.9789C75.3844 41.9789 75.7002 41.8227 75.9005 41.5115C76.1021 41.2011 76.2026 40.7132 76.2026 40.045V38.993ZM78.4277 33.7676H79.1202V42.3956H78.4277V33.7676ZM83.621 33.7676H84.349V42.3956H83.621V33.7676ZM88.6871 42.3956V38.1097C88.6871 37.4381 88.6181 37.0015 88.4793 36.7973C88.3378 36.5945 88.0883 36.4924 87.7287 36.4924C87.3938 36.4924 87.0909 36.6041 86.8202 36.8261C86.5488 37.0475 86.4128 37.2873 86.4128 37.5436V42.3956H85.721V36.0407H86.3465V36.7356C86.5564 36.4382 86.7874 36.2203 87.0376 36.0825C87.2878 35.9462 87.5722 35.877 87.8921 35.877C88.4103 35.877 88.7876 36.0353 89.0241 36.3532C89.2606 36.6719 89.3803 37.1852 89.3803 37.8897V42.3956H88.6871ZM90.3387 40.672H90.9874C90.9874 41.0949 91.0865 41.417 91.2855 41.6431C91.4857 41.8665 91.7722 41.9789 92.1495 41.9789C92.5098 41.9789 92.7948 41.8748 93.0026 41.6644C93.2125 41.4554 93.3164 41.1696 93.3164 40.8071C93.3164 40.265 92.8488 39.7496 91.9103 39.2631C91.8159 39.2151 91.7455 39.1788 91.6977 39.1555C91.1973 38.893 90.8678 38.6401 90.7099 38.4009C90.552 38.1618 90.4733 37.8335 90.4733 37.4148C90.4733 36.9556 90.6155 36.5828 90.9026 36.3012C91.1877 36.0168 91.5664 35.877 92.036 35.877C92.6034 35.877 93.0334 36.0236 93.328 36.3149C93.6206 36.6061 93.7785 37.0461 93.8018 37.6348H93.1701C93.1182 37.2352 93.004 36.9371 92.8311 36.7452C92.6581 36.5499 92.4195 36.454 92.1147 36.454C91.8036 36.454 91.5568 36.539 91.3777 36.7082C91.1986 36.8782 91.1105 37.1098 91.1105 37.4031C91.1105 37.8972 91.6245 38.4064 92.6506 38.9293C92.7709 38.993 92.8639 39.0417 92.9274 39.0705C93.2761 39.2521 93.5434 39.4913 93.73 39.7866C93.9173 40.082 94.0096 40.4192 94.0096 40.7961C94.0096 41.332 93.84 41.7617 93.5003 42.0906C93.1646 42.4189 92.7155 42.5827 92.1598 42.5827C91.5746 42.5827 91.1241 42.4223 90.8097 42.1023C90.4959 41.7822 90.3387 41.3238 90.3387 40.7282V40.672ZM95.657 36.0407V40.3328C95.657 41.0044 95.7261 41.4403 95.8648 41.6411C96.005 41.8439 96.2559 41.944 96.6154 41.944C96.9504 41.944 97.2525 41.8323 97.5239 41.6095C97.7946 41.3882 97.93 41.1483 97.93 40.892V36.0407H98.6231V42.3956H98.0038V41.7007C97.7898 41.994 97.5567 42.2106 97.3065 42.3511C97.0564 42.4902 96.7713 42.5594 96.4521 42.5594C95.9339 42.5594 95.5565 42.4018 95.32 42.0852C95.0835 41.7685 94.9639 41.2573 94.9639 40.5528V36.0407H95.657ZM99.8912 42.3956V36.0407H100.563V36.737C100.706 36.4649 100.889 36.2648 101.113 36.1374C101.337 36.0078 101.616 35.9441 101.951 35.9441H102.075V36.6294C101.495 36.652 101.098 36.7994 100.884 37.0735C100.671 37.3463 100.563 37.8931 100.563 38.7148V42.3956H99.8912ZM106.402 42.4189C106.296 42.4415 106.207 42.4573 106.136 42.4634C106.065 42.471 105.995 42.4744 105.928 42.4744C105.758 42.4744 105.616 42.4326 105.502 42.3435C105.387 42.2551 105.298 42.1174 105.235 41.9344C105.054 42.1489 104.848 42.3099 104.615 42.4189C104.382 42.5285 104.122 42.5827 103.836 42.5827C103.369 42.5827 103.006 42.4264 102.742 42.116C102.479 41.8049 102.347 41.3724 102.347 40.8187C102.347 40.3328 102.465 39.9422 102.699 39.6455C102.935 39.3494 103.343 39.0897 103.92 38.8642C104.041 38.8176 104.204 38.76 104.411 38.6888C104.968 38.4948 105.246 38.2406 105.246 37.924V37.3935C105.246 37.0536 105.173 36.8049 105.025 36.6507C104.879 36.4958 104.64 36.419 104.309 36.419C103.961 36.419 103.694 36.5191 103.512 36.7178C103.329 36.9186 103.233 37.2181 103.222 37.6135H102.567V37.4778C102.567 36.9919 102.727 36.6041 103.046 36.3183C103.366 36.0305 103.795 35.8886 104.332 35.8886C104.652 35.8886 104.919 35.9284 105.138 36.0078C105.356 36.0873 105.532 36.2086 105.662 36.3745C105.752 36.4882 105.818 36.6219 105.857 36.774C105.897 36.9268 105.916 37.1482 105.916 37.4381V41.2141C105.916 41.5348 105.945 41.7336 106.001 41.809C106.057 41.8844 106.169 41.9227 106.333 41.9227H106.402V42.4189ZM105.223 38.993C104.246 39.3727 103.639 39.6797 103.404 39.9155C103.169 40.1492 103.052 40.45 103.052 40.8187C103.052 41.1778 103.135 41.4595 103.3 41.6678C103.466 41.8748 103.691 41.9789 103.978 41.9789C104.405 41.9789 104.721 41.8227 104.921 41.5115C105.123 41.2011 105.223 40.7132 105.223 40.045V38.993ZM110.161 42.3956V38.1097C110.161 37.4381 110.091 37.0015 109.953 36.7973C109.812 36.5945 109.562 36.4924 109.202 36.4924C108.867 36.4924 108.565 36.6041 108.293 36.8261C108.022 37.0475 107.887 37.2873 107.887 37.5436V42.3956H107.194V36.0407H107.82V36.7356C108.029 36.4382 108.26 36.2203 108.511 36.0825C108.761 35.9462 109.046 35.877 109.366 35.877C109.883 35.877 110.261 36.0353 110.497 36.3532C110.734 36.6719 110.853 37.1852 110.853 37.8897V42.3956H110.161ZM115.805 40.2307C115.756 40.9983 115.575 41.5814 115.263 41.9769C114.951 42.3723 114.52 42.571 113.972 42.571C113.344 42.571 112.867 42.2873 112.542 41.7192C112.216 41.1531 112.054 40.3212 112.054 39.2233C112.054 38.1117 112.218 37.2757 112.545 36.7165C112.873 36.1566 113.359 35.877 114.006 35.877C114.517 35.877 114.926 36.0503 115.234 36.3998C115.543 36.7487 115.71 37.2297 115.737 37.8452H115.076C115.062 37.4305 114.959 37.1002 114.769 36.8569C114.58 36.6137 114.331 36.4924 114.027 36.4924C113.621 36.4924 113.312 36.7274 113.094 37.1969C112.878 37.6656 112.771 38.3406 112.771 39.2233C112.771 40.0875 112.88 40.7591 113.098 41.2367C113.316 41.7165 113.617 41.9556 114.004 41.9556C114.331 41.9556 114.593 41.8049 114.788 41.504C114.984 41.2011 115.096 40.7755 115.126 40.2307H115.805ZM120.328 40.3589C120.287 41.0791 120.11 41.6294 119.798 42.0057C119.486 42.3819 119.05 42.571 118.491 42.571C117.854 42.571 117.384 42.299 117.078 41.7541C116.773 41.2086 116.618 40.3691 116.618 39.2343C116.618 38.098 116.775 37.2544 117.092 36.7082C117.408 36.162 117.892 35.8886 118.547 35.8886C119.14 35.8886 119.592 36.1196 119.9 36.5828C120.208 37.0461 120.362 37.7293 120.362 38.6305V39.1664H117.346V39.5242C117.346 40.3424 117.442 40.9537 117.633 41.3594C117.825 41.7644 118.11 41.9673 118.491 41.9673C118.84 41.9673 119.115 41.8275 119.317 41.5486C119.517 41.2689 119.629 40.8728 119.646 40.3589H120.328ZM117.346 38.5956H119.658C119.658 38.5647 119.659 38.5188 119.663 38.4551C119.668 38.3913 119.669 38.3447 119.669 38.3194C119.669 37.7314 119.571 37.2777 119.373 36.9577C119.177 36.637 118.897 36.4766 118.536 36.4766C118.149 36.4766 117.854 36.652 117.65 37.0057C117.448 37.3565 117.346 37.8685 117.346 38.5394V38.5956Z" fill="white"/>
<path fill-rule="evenodd" clip-rule="evenodd" d="M21.9561 8.07227H26.7665V13.6082L21.9561 8.07227Z" fill="white"/>
<path fill-rule="evenodd" clip-rule="evenodd" d="M60.7676 33.0762H62.4513V35.0135L60.7676 33.0762Z" fill="white"/>
<path fill-rule="evenodd" clip-rule="evenodd" d="M56.3203 20.5762H58.004V22.5142L56.3203 20.5762Z" fill="white"/>
<path fill-rule="evenodd" clip-rule="evenodd" d="M55.0795 28.1362C54.8867 28.1362 54.5996 27.8916 54.2195 27.4002C53.8388 26.9081 53.6487 26.5353 53.6487 26.2818C53.6487 26.1845 53.6768 26.1022 53.7342 26.0309C53.7902 25.9617 53.8586 25.9268 53.9372 25.9268H57.3894V24.611H53.3076V23.6502H59.5023V24.611H58.4523V30.2291H57.3894V26.8739H55.6701C55.6086 26.8739 55.5539 26.8979 55.5061 26.9465C55.4575 26.9945 55.4336 27.0541 55.4336 27.124V27.8347C55.4336 27.9224 55.3987 27.9943 55.3283 28.0519C55.2586 28.1088 55.1752 28.1362 55.0795 28.1362ZM115.992 30.4265L113.681 26.8739H112.212C112.151 26.8739 112.096 26.8979 112.048 26.9465C112 26.9945 111.976 27.0541 111.976 27.124V27.8347C111.976 27.9224 111.941 27.9943 111.871 28.0519C111.801 28.1088 111.718 28.1362 111.622 28.1362C111.429 28.1362 111.142 27.8916 110.762 27.4002C110.381 26.9081 110.191 26.5353 110.191 26.2818C110.191 26.1845 110.22 26.1022 110.276 26.0309C110.333 25.9617 110.401 25.9268 110.48 25.9268H113.459L114.089 25.5046C114.474 26.181 114.75 26.5189 114.916 26.5189C115.047 26.5189 115.161 26.473 115.257 26.3804C115.353 26.2886 115.402 26.1762 115.402 26.0446V24.611H109.193V25.9789C109.193 26.3565 109.089 26.6806 108.878 26.952C108.668 27.2247 108.415 27.3611 108.117 27.3611C107.837 27.3611 107.68 27.3392 107.645 27.2953L109.548 29.8741L108.721 30.4265L105.453 25.9652L106.333 25.3216C106.446 25.6458 106.612 25.9069 106.831 26.1043C107.05 26.3016 107.281 26.4003 107.527 26.4003C107.693 26.4003 107.835 26.3434 107.953 26.2283C108.072 26.1152 108.13 25.9747 108.13 25.8082V24.611H104.311V30.2291H103.248V24.611H101.41V30.2291H100.361V28.6104C100.186 28.7859 99.9752 28.9202 99.7305 29.012C99.4857 29.1039 99.2185 29.1505 98.93 29.1505C98.2389 29.1505 97.6482 28.8818 97.1581 28.3473C96.668 27.8127 96.4232 27.1638 96.4232 26.4003C96.7206 26.4791 96.9216 26.5189 97.0269 26.5189C97.3064 26.5189 97.545 26.4243 97.7419 26.2358C97.9388 26.0474 98.0372 25.8212 98.0372 25.5581C98.0372 25.3826 97.9955 25.212 97.9121 25.0441C97.8294 24.8783 97.7139 24.7337 97.5648 24.611H96.0425V23.6502H103.327L100.584 20.9795L101.279 20.373L104.285 23.6502H108.012L105.269 20.9795L105.965 20.373L108.971 23.6502H120.363V24.611H119.313V30.2291H118.263V27.3611H117.068L116.649 26.4003H118.263V24.611H116.465V26.2818C116.465 26.6148 116.377 26.8979 116.202 27.1302C116.027 27.3632 115.817 27.4783 115.572 27.4783C115.493 27.4783 115.424 27.468 115.362 27.4461C115.301 27.4242 115.253 27.3961 115.218 27.3611L116.885 29.8084L115.992 30.4265ZM98.93 28.1897C99.1658 28.1897 99.4092 28.1177 99.658 27.9724C99.9075 27.8278 100.142 27.6243 100.361 27.3611V24.611H98.6935C98.956 25.066 99.0872 25.3826 99.0872 25.5581C99.0872 25.9871 98.9498 26.3654 98.6736 26.6888C98.3981 27.0144 98.0461 27.2152 97.6175 27.2953C97.7139 27.566 97.882 27.784 98.1227 27.9464C98.3633 28.1088 98.6326 28.1897 98.93 28.1897ZM94.704 30.4265L91.7639 27.7161L92.4857 27.0054L93.0237 27.4783C93.4086 27.4783 93.7477 27.3611 94.0402 27.124C94.3342 26.8862 94.5112 26.5847 94.5728 26.216C94.4586 26.3126 94.3246 26.3873 94.1715 26.4394C94.0184 26.4915 93.855 26.5189 93.68 26.5189C93.2336 26.5189 92.8528 26.3784 92.5384 26.0967H92.5377V26.8739H90.6872C90.6264 26.8739 90.5717 26.8979 90.5231 26.9465C90.4746 26.9945 90.4514 27.0541 90.4514 27.124V27.8347C90.4514 27.9224 90.4158 27.9943 90.3461 28.0519C90.2764 28.1088 90.193 28.1362 90.0966 28.1362C89.9045 28.1362 89.6174 27.8916 89.2373 27.4002C88.8559 26.9081 88.6658 26.5353 88.6658 26.2818C88.6658 26.1845 88.6945 26.1022 88.7513 26.0309C88.8087 25.9617 88.8764 25.9268 88.955 25.9268H92.3702C92.1665 25.6828 92.0653 25.4018 92.0653 25.0845C92.0653 24.6548 92.2342 24.2862 92.5705 23.9791C92.9075 23.6721 93.3122 23.5186 93.7853 23.5186C94.3622 23.5186 94.8264 23.7269 95.1764 24.1436C95.5264 24.5603 95.7014 25.1154 95.7014 25.8082C95.7014 26.4037 95.5264 26.9266 95.1764 27.3741C94.8264 27.821 94.3841 28.0923 93.8509 28.1897L95.4648 29.637L94.704 30.4265ZM93.7982 25.6897C93.9903 25.6897 94.1571 25.6307 94.2966 25.5122C94.4367 25.3936 94.5071 25.2511 94.5071 25.0845C94.5071 24.918 94.4367 24.7775 94.2966 24.6638C94.1571 24.5493 93.9903 24.4924 93.7982 24.4924C93.5966 24.4924 93.4264 24.5493 93.2862 24.6638C93.1461 24.7775 93.0764 24.918 93.0764 25.0845C93.0764 25.2511 93.1461 25.3936 93.2862 25.5122C93.4264 25.6307 93.5966 25.6897 93.7982 25.6897ZM88.5872 23.6502H91.6196V24.611H87.406V26.1625H85.1617C85.0742 26.1625 84.9977 26.1879 84.932 26.2358C84.8664 26.2838 84.8336 26.338 84.8336 26.4003C84.8336 26.523 84.9231 26.6744 85.1029 26.854C85.282 27.0342 85.4331 27.124 85.5555 27.124C85.6956 27.124 85.9014 27.0822 86.1721 26.9986C86.4435 26.9157 86.6492 26.8739 86.7894 26.8739C87.1305 26.8739 87.4217 27.0034 87.6623 27.2618C87.9029 27.5208 88.0232 27.8347 88.0232 28.202C88.0232 28.6762 87.8763 29.0936 87.583 29.452C87.2904 29.8125 86.9206 30.0318 86.4742 30.1099C86.7894 30.4265 87.2269 30.7459 87.7867 31.0714L87.2487 31.9266C86.356 31.4092 85.6997 30.8994 85.28 30.4005C84.8247 30.4005 84.4357 30.297 84.1117 30.0907C83.7877 29.8851 83.6264 29.6329 83.6264 29.3348C83.6264 29.1326 83.7002 28.9613 83.8492 28.8215C83.9982 28.681 84.1773 28.6104 84.3872 28.6104C84.606 28.6104 85.0216 28.8695 85.6341 29.3862C86.0107 29.3862 86.3341 29.2766 86.6055 29.0573C86.8769 28.838 87.0122 28.5714 87.0122 28.2554C87.0122 28.1499 86.9842 28.0581 86.9268 27.9793C86.87 27.9005 86.8023 27.8607 86.7237 27.8607C86.5747 27.8607 86.3539 27.895 86.0606 27.9662C85.7681 28.0362 85.5466 28.0704 85.3982 28.0704C85.1269 28.0704 84.783 27.8607 84.3674 27.4399C83.9518 27.0178 83.7439 26.6669 83.7439 26.3873C83.7439 26.0885 83.882 25.837 84.1575 25.6307C84.433 25.4244 84.768 25.3216 85.1617 25.3216H86.356V24.611H83.0747V23.6502H88.5872ZM78.1269 30.2291V26.5483C77.8603 26.623 77.6094 26.7882 77.3715 27.0452C77.0967 27.3433 76.8752 27.725 76.7091 28.1897L75.8689 27.7161C75.9127 27.5496 75.9701 27.3961 76.0398 27.2556C76.1096 27.1151 76.193 26.9883 76.2894 26.8739C76.1841 26.769 76.0439 26.6875 75.8689 26.6306C75.6939 26.5737 75.4971 26.5449 75.2783 26.5449C75.0158 26.5449 74.793 26.6285 74.6091 26.7951C74.4252 26.9616 74.3336 27.1638 74.3336 27.4002C74.3336 27.8038 74.4977 28.1876 74.8258 28.5515C75.1539 28.9154 75.5846 29.1943 76.1185 29.3862L75.5805 30.2291C74.8805 29.905 74.3227 29.4856 73.907 28.9723C73.4914 28.4597 73.2836 27.9354 73.2836 27.4002C73.2836 26.8917 73.4777 26.4572 73.8674 26.0967C74.257 25.7376 74.7273 25.5581 75.2783 25.5581C75.5586 25.5581 75.8231 25.6143 76.0727 25.7294C76.3215 25.8432 76.5341 26.0056 76.7091 26.216C76.8841 26.0056 77.1076 25.8432 77.3783 25.7294C77.6121 25.6314 77.8603 25.5752 78.1269 25.5615V24.611H71.9711V30.2291H70.9081V26.8739H69.1889C69.1273 26.8739 69.0727 26.8979 69.0248 26.9465C68.9763 26.9945 68.9523 27.0541 68.9523 27.124V27.8347C68.9523 27.9224 68.9175 27.9943 68.8471 28.0519C68.7773 28.1088 68.6939 28.1362 68.5982 28.1362C68.4055 28.1362 68.1184 27.8916 67.7383 27.4002C67.3575 26.9081 67.1675 26.5353 67.1675 26.2818C67.1675 26.1845 67.1955 26.1022 67.2529 26.0309C67.309 25.9617 67.3773 25.9268 67.456 25.9268H70.9081V24.611H66.0382V30.2291H64.9752V24.611H63.9252V23.6502H80.2398V24.611H79.1898V30.2291H78.1269ZM62.5867 30.4265L59.6466 27.7161L60.3685 27.0054L60.9071 27.4783C61.292 27.4783 61.6311 27.3611 61.9243 27.124C62.2169 26.8862 62.3939 26.5847 62.4555 26.216C62.342 26.3126 62.2087 26.3873 62.0556 26.4394C61.9024 26.4915 61.7377 26.5189 61.5627 26.5189C61.117 26.5189 60.7362 26.3784 60.4211 26.0967C60.106 25.8171 59.9487 25.4793 59.9487 25.0845C59.9487 24.6548 60.1169 24.2862 60.4539 23.9791C60.7902 23.6721 61.1956 23.5186 61.668 23.5186C62.2456 23.5186 62.7091 23.7269 63.0591 24.1436C63.4091 24.5603 63.5841 25.1154 63.5841 25.8082C63.5841 26.4037 63.4091 26.9266 63.0591 27.3741C62.7091 27.821 62.2675 28.0923 61.7336 28.1897L63.3482 29.637L62.5867 30.4265ZM61.681 25.6897C61.8737 25.6897 62.0398 25.6307 62.18 25.5122C62.3201 25.3936 62.3898 25.2511 62.3898 25.0845C62.3898 24.918 62.3201 24.7775 62.18 24.6638C62.0398 24.5493 61.8737 24.4924 61.681 24.4924C61.48 24.4924 61.3091 24.5493 61.1696 24.6638C61.0295 24.7775 60.9591 24.918 60.9591 25.0845C60.9591 25.2511 61.0295 25.3936 61.1696 25.5122C61.3091 25.6307 61.48 25.6897 61.681 25.6897Z" fill="white"/>
</svg>
