<svg width="276" height="184" viewBox="0 0 276 184" fill="none" xmlns="http://www.w3.org/2000/svg">
<path d="M21.1211 167.154C96.0017 166.929 180 166.927 254.879 167.154C179.999 167.381 96.0014 167.38 21.1211 167.154Z" fill="#263238"/>
<path d="M253.15 36.1214L235.892 76.0199L225.799 61.7758L200.663 80.6634H132.198L102.078 99.2562H24.6092L21.125 92.6749V83.7487H96.632L126.753 65.1558H194.316L215.906 49.1188L207.364 37.6217V31.04L254.88 25.541L253.15 36.1214Z" fill="#F37435"/>
<g opacity="0.1">
<path d="M253.15 36.1214L235.892 76.0199L225.799 61.7758L200.663 80.6634H132.198L102.078 99.2562H24.6092L21.125 92.6749V83.7487H96.632L126.753 65.1558H194.316L215.906 49.1188L207.364 37.6217V31.04L254.88 25.541L253.15 36.1214Z" fill="#030402"/>
</g>
<path d="M254.88 25.541L235.892 69.4383L226.313 55.0311L200.663 74.0821H132.198L102.078 92.6749H21.125V80.847H96.632L126.753 62.2545H194.316L218.327 45.7961L207.364 31.04L254.88 25.541Z" fill="#F37435"/>
<path d="M166.285 124.883C166.596 127.017 166.48 129.217 165.96 131.305C165.715 132.283 165.38 133.225 164.976 134.144C164.465 135.319 163.931 136.466 164.059 137.751C164.183 137.834 163.758 137.821 163.744 137.696C160.309 135.74 155.903 135.382 153.259 132.183C152.007 130.669 151.375 128.75 151.076 126.83C150.751 124.739 150.66 122.425 151.2 120.365C151.654 118.622 152.673 116.941 154.31 116.087C156 115.208 158.214 115.282 159.993 115.834C163.833 117.028 165.742 121.17 166.285 124.883Z" fill="#F37435"/>
<path d="M168.049 150.315C167.58 148.752 167.112 147.189 166.63 145.63C165.687 142.577 164.708 139.535 163.623 136.529C162.973 134.728 162.288 132.945 161.567 131.179C161.689 130.069 161.738 128.964 161.977 127.858C162.264 126.526 162.681 125.24 163.069 123.936C163.093 123.856 162.963 123.814 162.931 123.89C162.159 125.685 161.153 127.983 161.128 130.11C160.289 128.112 159.393 126.14 158.428 124.2C158.373 122.546 158.313 120.942 158.579 119.277C158.591 119.203 158.477 119.18 158.463 119.255C158.205 120.653 158.023 122.152 158.127 123.6C157.389 122.142 156.611 120.702 155.783 119.284C155.708 119.156 155.532 119.287 155.597 119.413C156.888 121.898 158.086 124.436 159.209 127.008C157.653 125.628 155.768 124.583 153.823 123.889C153.738 123.858 153.673 123.982 153.76 124.018C155.974 124.944 157.833 126.252 159.586 127.875C160.394 129.758 161.163 131.658 161.895 133.57C159.746 131.463 156.804 130.076 153.959 129.333C153.862 129.307 153.836 129.456 153.929 129.484C157.222 130.475 159.78 132.342 162.284 134.585C162.575 135.358 162.861 136.133 163.14 136.909C164.201 139.853 165.207 142.817 166.171 145.794C166.634 147.222 167.088 148.651 167.535 150.083C168.016 151.624 168.391 153.25 169.017 154.738C169.076 154.88 169.332 154.847 169.299 154.677C169.017 153.203 168.481 151.753 168.049 150.315Z" fill="#263238"/>
<path d="M162.35 121.876C161.735 122.82 161.324 123.856 161.113 124.96C161.107 124.989 161.151 125.005 161.162 124.977C161.545 123.938 161.995 122.934 162.503 121.951C162.555 121.851 162.408 121.788 162.35 121.876Z" fill="#263238"/>
<path d="M156.222 129.034C155.333 128.529 154.152 128.13 153.139 127.996C153.111 127.993 153.093 128.033 153.122 128.046C153.618 128.251 154.139 128.395 154.64 128.588C155.144 128.781 155.635 129.016 156.144 129.193C156.25 129.231 156.323 129.092 156.222 129.034Z" fill="#263238"/>
<path d="M154.495 120.425C154.183 120.218 153.851 119.953 153.504 119.813C153.449 119.791 153.402 119.859 153.447 119.9C153.721 120.153 154.105 120.341 154.424 120.534C154.487 120.572 154.557 120.466 154.495 120.425Z" fill="#263238"/>
<path d="M177.866 136.552C175.392 137.286 172.905 137.965 170.431 138.691C170.216 138.755 166.034 130.74 167.545 126.611C168.943 122.79 172.141 119.93 175.955 118.631C177.722 118.031 179.894 117.527 181.76 117.939C183.419 118.306 184.591 119.664 185.131 121.225C185.865 123.346 185.62 125.876 185.221 128.042C184.849 130.05 184.115 132.027 182.786 133.605C181.471 135.167 179.794 135.98 177.866 136.552Z" fill="#F37435"/>
<path d="M181.453 128.934C179.878 129.729 178.282 130.304 176.602 130.844C175.55 131.182 174.372 131.488 173.363 132.017C174.408 129.687 175.555 127.406 176.772 125.147C178.37 124.684 180.051 123.963 181.257 122.831C181.322 122.77 181.238 122.677 181.166 122.727C179.848 123.659 178.394 124.218 176.936 124.848C177.265 124.24 177.596 123.632 177.935 123.026C178.03 122.858 177.797 122.691 177.684 122.854C176.387 124.726 175.221 126.709 174.169 128.758C173.907 126.95 173.813 125.189 173.914 123.349C173.917 123.302 173.85 123.298 173.843 123.344C173.537 125.289 173.551 127.348 173.903 129.288C173.035 131.02 172.245 132.794 171.535 134.591C171.253 133.511 170.886 132.449 170.641 131.361C170.289 129.795 170.124 128.199 170.286 126.598C170.291 126.551 170.221 126.548 170.214 126.592C169.734 129.432 170.172 132.638 171.252 135.335C170.839 136.417 170.444 137.503 170.083 138.59C168.236 144.157 167.097 149.896 166.799 155.756C166.792 155.891 166.993 155.905 167.008 155.772C167.68 150.023 168.867 144.301 170.695 138.807C171.413 136.65 172.239 134.555 173.145 132.5C174.606 132.068 176.062 131.482 177.497 130.985C178.898 130.5 180.333 129.939 181.509 129.018C181.554 128.983 181.504 128.909 181.453 128.934Z" fill="#263238"/>
<path d="M183.76 126.607C182.247 127.145 180.813 127.898 179.301 128.444C179.231 128.469 179.272 128.581 179.343 128.567C180.943 128.237 182.529 127.742 183.818 126.693C183.867 126.653 183.813 126.588 183.76 126.607Z" fill="#263238"/>
<path d="M171.404 123.343C171.422 123.263 171.305 123.217 171.28 123.299C170.865 124.694 170.579 126.174 170.983 127.6C170.998 127.656 171.086 127.658 171.09 127.594C171.163 126.157 171.082 124.759 171.404 123.343Z" fill="#263238"/>
<path d="M177.656 120.12C177.149 120.767 176.967 121.687 177 122.492C177.002 122.545 177.087 122.576 177.101 122.513C177.286 121.715 177.594 120.988 177.839 120.213C177.875 120.099 177.728 120.029 177.656 120.12Z" fill="#263238"/>
<path d="M148.436 140.087C149.161 142.388 150.885 145.571 153.614 145.596C155.384 145.613 157.166 145.403 158.94 145.378C160.839 145.349 162.743 145.353 164.638 145.466C164.793 145.475 164.411 139.778 159.846 137.005C158.567 136.228 157.003 135.982 155.552 135.667C153.891 135.307 152.181 135.063 150.478 135.139C149.43 135.181 148.558 135.403 148.185 136.476C147.794 137.6 148.088 138.992 148.436 140.087Z" fill="#F37435"/>
<path d="M150.4 137.205C151.509 137.49 152.629 137.818 153.742 138.171C153.445 137.863 153.154 137.55 152.822 137.274C152.344 136.876 151.818 136.559 151.305 136.211C151.262 136.182 151.287 136.099 151.343 136.121C152.355 136.519 153.407 137.35 154.035 138.262C155.422 138.71 156.797 139.205 158.119 139.747C159.058 140.133 159.924 140.592 160.735 141.124C160.443 140.561 160.178 139.983 159.788 139.478C159.182 138.693 158.362 138.256 157.569 137.698C157.494 137.645 157.558 137.539 157.64 137.576C159.432 138.372 160.521 139.665 161.2 141.437C162.137 142.105 162.994 142.884 163.79 143.788C166.81 147.219 169.189 151.784 169.198 156.441C169.198 156.552 169.02 156.583 168.998 156.468C168.141 151.841 166.314 147.687 163.238 144.096C163.022 143.844 162.801 143.603 162.574 143.371C161.744 143.284 160.921 143.173 160.079 143.186C159.107 143.2 158.143 143.328 157.175 143.407C155.582 143.537 153.82 143.555 152.382 142.754C152.319 142.718 152.361 142.608 152.433 142.634C155.637 143.799 158.998 142.321 162.211 143.016C160.84 141.702 159.284 140.711 157.473 139.961C157.375 139.92 157.277 139.882 157.179 139.843C155.122 140.09 152.951 140.626 150.948 139.958C150.888 139.938 150.912 139.848 150.974 139.863C152.909 140.346 154.765 139.738 156.675 139.641C154.595 138.831 152.476 138.187 150.389 137.383C150.214 137.316 150.21 137.156 150.4 137.205Z" fill="#263238"/>
<path d="M149.493 139.229C150.496 139.394 151.477 139.4 152.486 139.456C152.509 139.457 152.516 139.492 152.491 139.498C151.507 139.719 150.43 139.583 149.471 139.305C149.422 139.291 149.444 139.221 149.493 139.229Z" fill="#263238"/>
<path d="M156.254 137.254C156.8 137.443 157.308 137.906 157.735 138.284C157.787 138.33 157.717 138.424 157.66 138.382C157.409 138.199 157.15 138.027 156.889 137.859C156.651 137.705 156.385 137.583 156.167 137.402C156.1 137.346 156.172 137.226 156.254 137.254Z" fill="#263238"/>
<path d="M172.373 144.669C172.34 144.744 172.449 144.816 172.491 144.736C172.495 144.736 172.495 144.736 172.495 144.732C172.511 144.753 172.532 144.774 172.566 144.778C174.411 145.176 176.264 145.583 178.143 145.75C179.652 145.885 181.392 145.968 182.713 145.092C184.504 143.906 185.682 140.731 184.713 138.715C183.569 136.32 180.118 137.62 178.386 138.471C175.724 139.772 173.585 141.969 172.373 144.669Z" fill="#F37435"/>
<path d="M171.035 145.775C172.05 144.782 173.173 143.954 174.364 143.24C175.181 141.854 176.434 140.703 177.741 139.799C177.807 139.754 177.863 139.857 177.802 139.904C176.675 140.771 175.795 141.79 174.957 142.897C176.289 142.154 177.698 141.541 179.135 140.997C179.635 140.079 180.45 139.221 181.379 138.748C181.398 138.739 181.421 138.764 181.403 138.779C180.592 139.414 179.942 140.072 179.376 140.906C180.224 140.589 181.082 140.294 181.939 140.01C182.016 139.984 182.045 140.102 181.972 140.13C180.446 140.726 178.887 141.354 177.376 142.08C179.283 142.335 181.001 142.395 182.941 142.063C182.992 142.055 183.015 142.128 182.963 142.143C181.091 142.677 178.944 142.776 177.057 142.231C176.093 142.705 175.152 143.222 174.256 143.8C175.006 143.702 175.76 143.834 176.52 143.985C177.846 144.248 179.142 144.482 180.499 144.435C180.549 144.434 180.563 144.517 180.511 144.525C178.203 144.922 176.02 143.874 173.733 144.146C172.886 144.729 172.085 145.371 171.35 146.092C169.913 147.503 168.762 149.19 167.876 150.995C166.913 152.955 166.391 155.032 165.612 157.057C165.578 157.146 165.454 157.112 165.47 157.018C166.138 153.025 168.126 148.621 171.035 145.775Z" fill="#263238"/>
<path d="M177.996 140.299C178.13 140.024 178.366 139.789 178.587 139.582C178.781 139.401 179.017 139.166 179.269 139.072C179.292 139.063 179.305 139.095 179.291 139.11C179.102 139.325 178.838 139.482 178.634 139.688C178.428 139.895 178.258 140.137 178.05 140.341C178.021 140.369 177.979 140.334 177.996 140.299Z" fill="#263238"/>
<path d="M181.803 141.539C182.144 141.453 182.507 141.459 182.855 141.388C183.207 141.316 183.534 141.19 183.875 141.082C183.92 141.068 183.946 141.134 183.907 141.157C183.345 141.49 182.459 141.774 181.803 141.646C181.748 141.635 181.751 141.552 181.803 141.539Z" fill="#263238"/>
<path d="M161.523 152.096L161.826 155.536L162.854 167.152H171.951L173.236 155.536L173.615 152.096H161.523Z" fill="#455A64"/>
<path d="M161.523 152.096L161.826 155.536H173.236L173.615 152.096H161.523Z" fill="#263238"/>
<path d="M160.623 153.949H174.517V151.158H160.623V153.949Z" fill="#455A64"/>
<path d="M186.526 170.12C187.362 170.389 211.155 170.099 212.056 169.516C212.397 169.298 212.557 165.827 212.631 161.633C212.649 160.726 212.658 159.794 212.664 158.84C212.671 157.715 212.675 156.575 212.673 155.469C212.656 150.499 212.435 146.125 212.435 146.125L197.056 146.267L197.15 155.612L197.185 158.983L197.291 161.775C197.291 161.775 188.232 165.962 187.314 166.709C186.399 167.453 185.693 169.855 186.526 170.12Z" fill="#EB9481"/>
<path d="M186.526 170.12C187.362 170.389 211.155 170.1 212.056 169.516C212.397 169.299 212.557 165.828 212.631 161.633C212.649 160.726 212.658 159.794 212.664 158.84C212.671 157.715 212.675 156.575 212.673 155.469L197.15 155.613L197.185 158.984L197.291 161.775C197.291 161.775 188.232 165.962 187.314 166.71C186.399 167.453 185.693 169.855 186.526 170.12Z" fill="#DBDBDB"/>
<path d="M186.454 170.156C186.998 170.33 197.133 170.272 204.511 170.051C206.218 169.999 207.779 169.937 209.039 169.871C210.774 169.775 211.938 169.669 212.127 169.547C212.543 169.274 212.696 164.183 212.741 158.812L197.174 158.956L197.28 161.762C197.28 161.762 188.17 165.972 187.245 166.723C186.327 167.474 185.618 169.884 186.454 170.156Z" fill="#F37435"/>
<path d="M186.786 169.197C190.795 169.05 206.981 168.834 210.956 168.994C210.988 168.995 210.988 169.017 210.956 169.019C206.985 169.252 190.798 169.336 186.787 169.263C186.702 169.261 186.701 169.2 186.786 169.197Z" fill="#263238"/>
<path d="M196.702 160.881C198.277 160.567 200.21 160.786 201.43 161.896C201.477 161.939 201.415 162.005 201.364 161.989C199.801 161.518 198.343 161.22 196.711 161.08C196.596 161.07 196.589 160.903 196.702 160.881Z" fill="#263238"/>
<path d="M195.572 161.582C197.146 161.268 199.079 161.487 200.299 162.597C200.346 162.64 200.284 162.706 200.233 162.691C198.67 162.219 197.212 161.922 195.58 161.781C195.465 161.771 195.459 161.604 195.572 161.582Z" fill="#263238"/>
<path d="M194.442 162.281C196.016 161.967 197.949 162.186 199.169 163.296C199.216 163.339 199.155 163.406 199.103 163.39C197.54 162.918 196.082 162.621 194.45 162.481C194.335 162.471 194.329 162.304 194.442 162.281Z" fill="#263238"/>
<path d="M193.31 162.982C194.884 162.668 196.818 162.887 198.037 163.997C198.085 164.04 198.023 164.107 197.971 164.091C196.408 163.62 194.95 163.322 193.318 163.182C193.203 163.172 193.197 163.005 193.31 162.982Z" fill="#263238"/>
<path d="M194.478 159.505C195.605 160.36 197.062 160.696 198.371 161.163C198.507 161.212 198.613 161.083 198.616 160.963C198.642 160.958 198.664 160.938 198.653 160.906C198.207 159.593 197.256 158.204 196.178 157.32C195.513 156.775 194.354 156.404 193.743 157.266C193.167 158.081 193.821 159.006 194.478 159.505ZM194.061 158.24C193.762 156.512 195.632 157.398 196.107 157.82C196.412 158.091 196.69 158.404 196.954 158.714C197.509 159.362 197.961 160.078 198.445 160.776C197.816 160.507 197.17 160.295 196.532 160.049C195.771 159.757 194.226 159.193 194.061 158.24Z" fill="#263238"/>
<path d="M203.893 158.437C203.499 157.457 202.285 157.549 201.511 157.926C200.258 158.535 199.012 159.667 198.273 160.84C198.255 160.87 198.271 160.894 198.296 160.904C198.271 161.022 198.344 161.172 198.488 161.156C199.869 161.005 201.365 161.015 202.659 160.445C203.415 160.112 204.265 159.363 203.893 158.437ZM200.536 160.499C199.858 160.589 199.18 160.646 198.506 160.762C199.139 160.195 199.744 159.604 200.434 159.101C200.764 158.861 201.106 158.621 201.465 158.429C202.025 158.128 204.049 157.699 203.358 159.311C202.977 160.2 201.344 160.391 200.536 160.499Z" fill="#263238"/>
<path opacity="0.1" d="M212.714 161.012C212.647 165.498 212.483 169.312 212.127 169.548C211.937 169.671 210.772 169.777 209.038 169.872C207.778 169.938 206.218 169.998 204.512 170.052C203.414 170.087 202.253 170.114 201.075 170.137L212.714 161.012Z" fill="black"/>
<path d="M220.253 77.5781C220.253 77.5781 212.511 118.429 211.968 121.444C211.842 122.131 213.532 158.84 213.532 158.84L196.089 158.98C196.089 158.98 195.812 126.896 196.485 120.876C197.157 114.853 206.008 77.7102 206.008 77.7102L220.253 77.5781Z" fill="#455A64"/>
<path opacity="0.1" d="M220.254 77.5801C220.254 77.5801 216.487 97.4616 214.02 110.509L206.006 77.7122L220.254 77.5801Z" fill="black"/>
<path d="M211.812 155.456C210.836 155.338 203.405 155.15 197.193 155.472C197.151 155.474 197.155 155.532 197.195 155.535C199.222 155.697 210.667 155.67 211.805 155.529C211.842 155.524 211.856 155.462 211.812 155.456Z" fill="#263238"/>
<path d="M209.897 153.124C209.804 153.206 209.647 153.24 209.641 153.083C209.248 143.186 209.05 131.427 208.858 121.62C208.838 121.276 208.888 120.775 208.953 120.431C210.893 109.954 216.649 81.2713 217.08 79.2521C217.159 78.8826 217.364 79.2521 217.364 79.2521L215.591 88.4212C213.982 96.7178 210.877 112.131 209.3 120.487C209.235 120.815 209.187 121.286 209.205 121.618C209.382 131.302 209.727 143.424 209.897 153.124Z" fill="#263238"/>
<path d="M205.908 170.028C206.741 170.305 230.536 170.252 231.443 169.677C231.785 169.463 231.98 165.993 232.096 161.799C232.122 160.893 232.141 159.961 232.156 159.007C232.175 157.882 232.19 156.743 232.198 155.636C232.23 150.667 231.771 146.229 231.771 146.229L216.674 146.28L216.675 155.626L216.676 158.997L216.755 161.789C216.755 161.789 207.654 165.886 206.729 166.624C205.808 167.359 205.078 169.754 205.908 170.028Z" fill="#EB9481"/>
<path d="M205.908 170.027C206.741 170.304 230.536 170.251 231.443 169.676C231.785 169.462 231.98 165.993 232.096 161.799C232.122 160.892 232.141 159.96 232.156 159.007C232.175 157.882 232.19 156.742 232.198 155.635L216.675 155.625L216.676 158.996L216.755 161.788C216.755 161.788 207.654 165.885 206.729 166.623C205.808 167.359 205.078 169.754 205.908 170.027Z" fill="#DBDBDB"/>
<path d="M205.836 170.064C206.379 170.242 216.514 170.286 223.893 170.138C225.601 170.102 227.162 170.056 228.422 170.002C230.159 169.923 231.324 169.83 231.513 169.709C231.932 169.44 232.135 164.351 232.233 158.981L216.667 158.971L216.745 161.778C216.745 161.778 207.594 165.896 206.661 166.638C205.736 167.38 205.003 169.783 205.836 170.064Z" fill="#F37435"/>
<path d="M206.178 169.106C210.188 168.999 226.375 168.944 230.348 169.143C230.38 169.145 230.38 169.166 230.348 169.168C226.375 169.361 210.188 169.285 206.178 169.172C206.093 169.17 206.093 169.109 206.178 169.106Z" fill="#263238"/>
<path d="M216.177 160.889C217.755 160.591 219.686 160.829 220.894 161.951C220.941 161.994 220.879 162.06 220.827 162.044C219.269 161.557 217.814 161.245 216.184 161.089C216.069 161.078 216.064 160.911 216.177 160.889Z" fill="#263238"/>
<path d="M215.039 161.579C216.617 161.281 218.548 161.519 219.756 162.64C219.803 162.684 219.741 162.75 219.689 162.733C218.131 162.246 216.676 161.934 215.046 161.778C214.931 161.767 214.926 161.6 215.039 161.579Z" fill="#263238"/>
<path d="M213.9 162.268C215.478 161.97 217.409 162.208 218.618 163.33C218.665 163.373 218.602 163.439 218.551 163.423C216.993 162.936 215.538 162.624 213.907 162.468C213.793 162.456 213.787 162.289 213.9 162.268Z" fill="#263238"/>
<path d="M212.764 162.958C214.341 162.659 216.272 162.898 217.481 164.019C217.528 164.063 217.465 164.129 217.414 164.113C215.856 163.625 214.401 163.313 212.77 163.157C212.656 163.146 212.651 162.979 212.764 162.958Z" fill="#263238"/>
<path d="M213.966 159.491C215.084 160.357 216.538 160.708 217.842 161.188C217.978 161.237 218.085 161.11 218.089 160.99C218.115 160.985 218.137 160.965 218.126 160.933C217.694 159.615 216.757 158.217 215.688 157.323C215.028 156.771 213.872 156.389 213.253 157.244C212.669 158.054 213.313 158.986 213.966 159.491ZM213.561 158.222C213.279 156.491 215.14 157.396 215.611 157.823C215.913 158.096 216.188 158.412 216.449 158.725C216.998 159.379 217.442 160.099 217.92 160.802C217.294 160.527 216.649 160.308 216.014 160.056C215.256 159.756 213.717 159.176 213.561 158.222Z" fill="#263238"/>
<path d="M223.39 158.516C223.006 157.533 221.792 157.612 221.014 157.981C219.755 158.578 218.497 159.697 217.747 160.863C217.729 160.892 217.745 160.917 217.769 160.928C217.743 161.045 217.815 161.196 217.958 161.181C219.341 161.044 220.837 161.069 222.137 160.512C222.896 160.186 223.753 159.446 223.39 158.516ZM220.013 160.545C219.334 160.629 218.656 160.679 217.981 160.788C218.619 160.228 219.23 159.642 219.925 159.146C220.257 158.91 220.602 158.673 220.963 158.484C221.525 158.189 223.554 157.78 222.847 159.385C222.457 160.27 220.822 160.445 220.013 160.545Z" fill="#263238"/>
<path d="M215.577 158.813H233.036C233.036 158.813 228.646 103.474 227.217 92.4726C227.217 92.4726 227.957 90.4055 227.835 88.8993C227.624 86.3009 226.57 81.3012 224.885 77.5215L205.994 77.6963C205.994 77.6963 207.34 86.2563 209.557 91.6715C209.557 91.6715 210.965 92.0358 213.527 93.4176L215.577 158.813Z" fill="#455A64"/>
<path d="M208.838 91.1689C210.546 91.7389 212.198 92.5559 213.777 93.4133C213.838 93.4468 213.799 93.5428 213.732 93.5149C212.069 92.819 210.373 92.154 208.751 91.3672C208.623 91.3058 208.707 91.1251 208.838 91.1689Z" fill="#263238"/>
<path d="M208.207 79.8075C208.211 79.7501 208.311 79.7365 208.311 79.7983C208.316 81.7649 208.458 83.4938 208.64 85.3301C208.725 86.1828 209.455 90.8913 210.932 90.534C211.179 90.474 211.303 90.2293 211.338 89.8554C211.381 89.4061 211.207 88.857 211.128 88.4114C210.955 87.4259 210.814 86.4367 210.72 85.4405C210.545 83.5806 210.52 81.7197 210.729 79.862C210.735 79.8009 210.824 79.8046 210.824 79.8664C210.846 82.4428 210.937 85.014 211.346 87.5624C211.542 88.7871 212.177 90.6278 210.896 90.8284C209.591 91.0326 208.718 87.9477 208.551 87.1031C208.084 84.7465 208.042 82.1981 208.207 79.8075Z" fill="#263238"/>
<path d="M210.894 90.6608C211.03 90.9761 211.141 91.3048 211.235 91.6349C211.309 91.8914 211.408 92.1685 211.381 92.4371C211.376 92.489 211.307 92.4949 211.279 92.4599C211.103 92.2417 211.027 91.941 210.928 91.6812C210.813 91.3802 210.69 91.081 210.584 90.7767C210.513 90.5747 210.809 90.4661 210.894 90.6608Z" fill="#263238"/>
<path d="M224.024 86.1376C222.626 86.0107 221.187 86.042 219.885 85.4289C218.56 84.8044 217.713 83.5664 217.029 82.3182C216.599 81.5351 216.299 80.7288 216.077 79.8658C216.067 79.8272 216.007 79.8382 216.009 79.8772C216.046 80.6684 216.293 81.4688 216.601 82.1934C216.905 82.9081 217.272 83.6109 217.73 84.2395C218.162 84.8338 218.69 85.37 219.34 85.724C219.987 86.0762 220.713 86.2668 221.443 86.3375C222.296 86.4203 223.18 86.4059 224.03 86.2985C224.134 86.2848 224.127 86.1468 224.024 86.1376Z" fill="#263238"/>
<path d="M204.449 85.6486C205.068 85.5128 205.21 85.5235 205.78 84.9362C206.361 84.3382 206.721 83.1749 207.009 82.0047C207.19 81.2705 207.313 80.5161 207.4 79.7102C207.404 79.6741 207.431 79.6837 207.431 79.7201C207.425 80.4572 207.325 81.205 207.198 81.8832C207.072 82.5523 206.917 83.211 206.722 83.802C206.538 84.3606 206.311 84.8663 206.027 85.2041C205.744 85.5401 205.424 85.7266 205.101 85.8017C204.723 85.8897 204.828 85.8878 204.449 85.7984C204.402 85.787 204.403 85.6586 204.449 85.6486Z" fill="#263238"/>
<path d="M231.317 155.632C230.341 155.514 222.91 155.326 216.698 155.647C216.656 155.649 216.66 155.707 216.7 155.711C218.727 155.872 230.172 155.845 231.31 155.704C231.348 155.7 231.361 155.638 231.317 155.632Z" fill="#263238"/>
<path d="M230.465 153.796C230.378 153.913 230.299 153.825 230.292 153.75C228.259 133.565 226.421 112.901 224.763 92.7023C225.45 91.7587 225.898 90.6084 226.028 89.4367C226.133 88.2557 225.675 86.9184 225.468 85.7552C225.032 83.6204 224.335 81.1298 223.765 79.0245C223.707 78.8114 223.918 78.9019 223.918 78.9019C224.597 81.206 225.24 83.5214 225.766 85.8682C225.999 87.0502 226.321 88.2362 226.223 89.4565C226.098 90.6713 225.662 91.843 224.947 92.8476C226.967 112.632 228.791 133.661 230.465 153.796Z" fill="#263238"/>
<path d="M224.106 58.7412C223.917 60.0928 224.558 60.6492 224.497 61.3783C224.497 61.3783 221.212 62.4017 215.989 61.6712C210.768 60.9411 207.89 59.0558 207.89 59.0558C208.031 58.3382 208.8 57.979 208.989 56.6274C209.207 55.0667 208.179 54.8058 208.757 52.4745C209.188 50.7386 210.541 50.7074 211.234 47.2758C211.952 43.7275 213.511 42.4767 214.675 41.8117C216.938 40.5189 218.874 41.0389 218.874 41.0389C218.874 41.0389 220.794 40.9278 222.616 42.7913C223.553 43.7499 224.795 45.5233 224.512 49.1323C224.238 52.6228 225.53 53.0239 225.468 54.8113C225.385 57.2118 224.324 57.1808 224.106 58.7412Z" fill="#263238"/>
<path d="M210.894 49.1948C211.482 48.2674 211.628 47.0869 211.695 45.9991C211.698 45.9461 211.628 45.9343 211.62 45.9884C211.464 47.018 211.36 48.0908 210.815 48.9913C210.343 49.7703 209.595 50.2701 208.987 50.9056C208.424 51.4937 208.031 52.2127 207.923 53.0577C207.869 53.4812 207.888 53.9129 207.98 54.3243C208.077 54.7615 208.295 55.1196 208.453 55.5273C208.93 56.7601 207.989 57.8744 207.235 58.6899C207.227 58.6987 207.24 58.7135 207.249 58.7054C207.862 58.0985 208.523 57.4221 208.702 56.5029C208.79 56.0488 208.707 55.6219 208.527 55.2171C208.326 54.7637 208.15 54.3368 208.108 53.8227C208.025 52.8001 208.395 51.8528 209.061 51.1268C209.662 50.4721 210.404 49.9672 210.894 49.1948Z" fill="#263238"/>
<path d="M226.001 54.7767C225.957 53.7504 225.535 52.9238 225.11 52.0462C224.902 51.6186 224.711 51.1792 224.607 50.7041C224.49 50.1716 224.47 49.6177 224.465 49.0694C224.459 48.4674 224.466 47.8668 224.401 47.2695C224.336 46.6671 224.203 46.0894 224.041 45.5131C224.034 45.4869 223.998 45.5039 224.005 45.53C224.303 46.6163 224.347 47.7398 224.333 48.874C224.32 49.8982 224.385 50.8502 224.796 51.7727C225.189 52.6552 225.707 53.4648 225.813 54.4713C225.927 55.5414 225.825 56.839 225.169 57.7119C224.631 58.4269 223.667 59.2111 223.977 60.257C223.987 60.2908 224.039 60.2754 224.033 60.2401C223.819 59.0672 224.903 58.4004 225.439 57.5625C225.946 56.7731 226.04 55.7015 226.001 54.7767Z" fill="#263238"/>
<path d="M207.397 69.9486L205.352 77.8628H225.479C225.479 77.8628 223.989 63.4453 220.883 58.8424C218.63 55.5039 216.339 55.5952 213.948 57.2515C213.343 57.6707 208.16 62.8367 206.944 65.774C205.878 68.3673 207.397 69.9486 207.397 69.9486Z" fill="#A6A6A6"/>
<path d="M224.263 69.6353C224.178 69.6647 224.094 69.6978 224.013 69.7346C223.641 69.9076 223.277 70.1026 222.949 70.3823C223.38 70.3308 223.766 70.1946 224.145 70.0327C224.204 70.0069 224.263 69.9775 224.322 69.9481C224.303 69.845 224.285 69.742 224.263 69.6353ZM210.474 66.7133C210.102 66.8863 209.734 67.085 209.414 67.3684C209.837 67.3169 210.227 67.1733 210.606 67.0114C210.982 66.8385 211.346 66.6471 211.67 66.3601C211.243 66.4153 210.857 66.5514 210.474 66.7133ZM209.263 75.2105C209.12 75.5969 209.002 75.9906 208.969 76.4212C209.234 76.0826 209.41 75.7073 209.565 75.3245C209.705 74.9381 209.826 74.5444 209.856 74.1175C209.591 74.4561 209.418 74.8277 209.263 75.2105ZM218.581 75.4754C218.441 75.8618 218.316 76.2556 218.287 76.6861C218.555 76.3439 218.728 75.9722 218.883 75.5858C219.023 75.2031 219.144 74.8093 219.173 74.3788C218.912 74.721 218.732 75.089 218.581 75.4754ZM214.562 60.7849C214.176 60.645 213.782 60.5236 213.352 60.4941C213.69 60.7591 214.066 60.9357 214.448 61.0903C214.831 61.2338 215.232 61.3516 215.655 61.381C215.317 61.1161 214.945 60.9394 214.562 60.7849ZM215.438 71.0925C215.052 70.949 214.662 70.8239 214.227 70.7945C214.57 71.0594 214.945 71.2361 215.328 71.3906C215.711 71.5341 216.108 71.6519 216.535 71.685C216.196 71.4164 215.821 71.2397 215.438 71.0925ZM219.023 65.1493C218.879 65.5357 218.758 65.9295 218.732 66.3601C218.993 66.0215 219.17 65.6461 219.324 65.2634C219.468 64.877 219.582 64.4833 219.615 64.0564C219.35 64.3949 219.177 64.7666 219.023 65.1493Z" fill="white"/>
<path d="M210.72 68.9022C211.557 69.2084 212.388 69.551 213.168 70.0058C213.557 70.2318 213.932 70.4787 214.304 70.7367C214.49 70.8651 214.678 70.9854 214.868 71.105C215.063 71.2276 215.275 71.349 215.495 71.4086C215.514 71.4141 215.506 71.4498 215.486 71.4462C215.269 71.4035 215.061 71.3623 214.853 71.2846C214.655 71.2114 214.463 71.1117 214.278 71.006C213.882 70.7816 213.496 70.5339 213.103 70.3043C212.308 69.841 211.515 69.378 210.69 68.9865C210.652 68.9677 210.68 68.8875 210.72 68.9022Z" fill="#263238"/>
<path d="M208.375 69.3342C209.102 69.4103 209.836 69.5299 210.545 69.7047C210.902 69.7927 211.25 69.9049 211.598 70.0293C211.763 70.0886 211.928 70.1515 212.091 70.217C212.271 70.2888 212.441 70.3903 212.622 70.4591C212.641 70.4665 212.633 70.5033 212.613 70.4967C212.44 70.4382 212.256 70.4146 212.08 70.3682C211.903 70.3219 211.726 70.274 211.549 70.2273C211.195 70.1342 210.839 70.0462 210.486 69.9491C209.778 69.7548 209.072 69.5701 208.357 69.4056C208.319 69.396 208.337 69.3301 208.375 69.3342Z" fill="#263238"/>
<path d="M218.281 57.4038C218.151 57.7895 216.023 60.1704 214.228 59.9132C213.644 59.8286 213.963 56.6174 213.963 56.6174L213.933 56.3749L213.508 52.9808L217.651 50.8497L218.247 50.5723C218.247 50.5723 218.302 51.5085 218.359 52.675C218.362 52.7291 218.365 52.7832 218.367 52.841C218.372 52.9069 218.378 52.969 218.379 53.0309C218.39 53.2049 218.4 53.3831 218.407 53.5604C218.413 53.6955 218.418 53.8265 218.419 53.9685C218.423 54.111 218.425 54.2493 218.429 54.3917C218.439 55.796 218.334 57.2397 218.281 57.4038Z" fill="#EB9481"/>
<path d="M213.506 52.9795L213.916 56.2411C216.395 55.6353 217.766 53.9712 218.377 53.0038L218.359 52.6751C218.3 51.51 218.245 50.5742 218.245 50.5742L217.651 50.8484L213.506 52.9795Z" fill="#263238"/>
<path d="M209.799 46.9928C207.803 52.6541 210.968 54.4893 212.189 54.9184C213.298 55.3081 217.122 56.4935 219.693 51.0684C222.263 45.6434 220.262 42.9257 217.774 41.9004C215.285 40.8756 211.795 41.3315 209.799 46.9928Z" fill="#EB9481"/>
<path d="M210.763 46.5553C210.904 46.576 211.036 46.5715 211.177 46.5778C211.336 46.5844 211.462 46.6065 211.604 46.52C211.68 46.4737 211.709 46.3463 211.671 46.2683C211.582 46.0865 211.39 46.0298 211.199 46.0137C210.992 45.9964 210.827 46.0357 210.656 46.1531C210.49 46.2665 210.579 46.5281 210.763 46.5553Z" fill="#263238"/>
<path d="M214.695 47.6119C214.563 47.5597 214.45 47.4894 214.325 47.4242C214.184 47.3506 214.064 47.3065 213.985 47.1607C213.942 47.0827 213.981 46.9576 214.052 46.909C214.22 46.7957 214.415 46.8428 214.588 46.9245C214.777 47.0132 214.899 47.1295 214.989 47.3168C215.076 47.4982 214.869 47.6807 214.695 47.6119Z" fill="#263238"/>
<path d="M213.579 48.4267C213.586 48.4127 213.604 48.4543 213.599 48.4701C213.472 48.8587 213.391 49.3253 213.708 49.5594C213.718 49.5667 213.711 49.5859 213.698 49.5803C213.283 49.3927 213.396 48.7744 213.579 48.4267Z" fill="#263238"/>
<path d="M214.049 48.1206C214.694 48.2575 214.373 49.5374 213.775 49.4104C213.187 49.2856 213.509 48.0057 214.049 48.1206Z" fill="#263238"/>
<path d="M214.284 48.252C214.377 48.3525 214.455 48.5077 214.586 48.5549C214.738 48.6093 214.89 48.5052 215.024 48.4018C215.038 48.3911 215.046 48.4051 215.042 48.422C214.984 48.6682 214.826 48.896 214.555 48.8665C214.306 48.8397 214.189 48.5795 214.189 48.3175C214.189 48.2689 214.246 48.2115 214.284 48.252Z" fill="#263238"/>
<path d="M211.37 47.8193C211.371 47.8035 211.334 47.83 211.33 47.8462C211.239 48.2447 211.066 48.6856 210.674 48.7224C210.662 48.7235 210.658 48.7434 210.672 48.7452C211.125 48.7993 211.347 48.2116 211.37 47.8193Z" fill="#263238"/>
<path d="M211.126 47.3138C210.503 47.0978 210.117 48.3597 210.694 48.5599C211.262 48.7571 211.649 47.4953 211.126 47.3138Z" fill="#263238"/>
<path d="M210.838 47.3157C210.717 47.3522 210.582 47.4434 210.46 47.4147C210.32 47.3816 210.259 47.2138 210.211 47.0559C210.206 47.0397 210.193 47.0471 210.187 47.0637C210.107 47.3029 210.11 47.5785 210.327 47.6955C210.525 47.8026 210.744 47.6429 210.875 47.4206C210.899 47.3794 210.886 47.3014 210.838 47.3157Z" fill="#263238"/>
<path d="M212.867 51.8831C212.744 51.9431 212.61 52.0377 212.465 52.0027C212.327 51.9692 212.189 51.8559 212.08 51.7672C212.07 51.7584 212.053 51.7672 212.057 51.7816C212.109 51.9641 212.29 52.1275 212.48 52.1554C212.666 52.183 212.803 52.0598 212.899 51.9133C212.912 51.8923 212.885 51.8743 212.867 51.8831Z" fill="#263238"/>
<path d="M212.933 50.6064C212.608 50.8615 212.235 50.9332 211.876 50.8824C211.716 50.8607 211.556 50.8114 211.406 50.7437C211.376 50.7327 211.346 50.7187 211.321 50.7029C211.294 50.69 211.271 50.6782 211.242 50.6613C211.201 50.6396 211.189 50.5947 211.196 50.5505L211.197 50.5479C211.202 50.5339 211.206 50.5229 211.214 50.5104C211.214 50.5104 211.214 50.5104 211.215 50.5078L211.227 50.4751C211.32 50.1814 211.501 49.7486 211.501 49.7486C211.376 49.7652 210.75 49.8219 210.811 49.6728C211.321 48.4404 211.888 47.0696 212.655 45.9509C212.679 45.9126 212.739 45.9442 212.721 45.9844C212.278 47.1881 211.626 48.3061 211.162 49.5083C211.357 49.5024 211.682 49.4781 211.833 49.5337C211.87 49.5598 211.468 50.3639 211.437 50.499C211.437 50.499 211.435 50.5045 211.434 50.5137C211.902 50.7452 212.321 50.7246 212.909 50.5604C212.945 50.5483 212.966 50.584 212.933 50.6064Z" fill="#263238"/>
<path d="M211.547 50.6588C211.547 50.6588 211.682 51.1121 211.998 51.3723C212.114 51.4687 212.251 51.5398 212.416 51.5545C212.756 51.5854 212.867 51.3039 212.898 51.04C212.924 50.8233 212.894 50.6172 212.894 50.6172C212.894 50.6172 212.288 50.8766 211.547 50.6588Z" fill="#263238"/>
<path d="M211.998 51.373C212.114 51.4694 212.251 51.5404 212.416 51.5551C212.756 51.586 212.867 51.3045 212.898 51.0407C212.554 50.9542 212.143 51.0605 211.998 51.373Z" fill="#FF98B9"/>
<path d="M219.22 51.5663C218.128 50.6121 218.452 49.2792 218.452 49.2792C217.077 48.162 216.579 46.7032 216.527 46.5549C216.532 46.6833 216.564 47.6092 216.595 48.0806C213.166 46.3691 212.841 43.2852 212.841 43.2852C211.328 44.1176 210.878 44.7981 210.601 45.1226C210.601 45.1226 211.213 42.8996 212.783 41.7433C214.706 40.3272 216.515 41.2178 216.515 41.2178C216.515 41.2178 219.572 41.188 221.075 44.1824C222.693 47.4109 219.22 51.5663 219.22 51.5663Z" fill="#263238"/>
<path d="M214.013 46.6941C214.497 47.1828 215.077 47.5854 215.676 47.9059C215.682 47.9089 215.685 47.9011 215.68 47.8982C214.742 47.3182 213.98 46.5226 213.482 45.5349C213.272 45.1172 213.114 44.6786 213.014 44.2222C212.909 43.745 212.833 43.1907 212.929 42.7076C212.937 42.6708 212.879 42.6597 212.872 42.6965C212.77 43.2069 212.682 43.6791 212.749 44.2016C212.814 44.6977 212.971 45.1871 213.21 45.6273C213.423 46.0203 213.698 46.3754 214.013 46.6941Z" fill="#263238"/>
<path d="M218.641 51.1868C218.641 51.1868 220.377 49.6997 221.084 50.3644C221.79 51.029 220.158 53.4132 219.099 53.5236C218.039 53.634 217.918 52.6555 217.918 52.6555L218.641 51.1868Z" fill="#EB9481"/>
<path d="M220.599 51.0365C220.615 51.0391 220.612 51.0615 220.598 51.0637C219.849 51.1635 219.33 51.7 218.912 52.287C219.179 52.0883 219.488 52.0216 219.762 52.3481C219.777 52.3654 219.753 52.3885 219.735 52.3797C219.472 52.2487 219.26 52.245 219.015 52.4191C218.842 52.5424 218.699 52.7179 218.557 52.875C218.51 52.9277 218.409 52.8669 218.45 52.8029C218.453 52.7981 218.457 52.7933 218.46 52.7886C218.665 51.9201 219.649 50.8842 220.599 51.0365Z" fill="#263238"/>
<path d="M218.5 53.0873C218.458 53.2455 218.552 53.4075 218.71 53.4494C218.868 53.4914 219.03 53.3972 219.072 53.2393C219.114 53.0814 219.02 52.9191 218.862 52.8772C218.704 52.8352 218.542 52.9294 218.5 53.0873Z" fill="white"/>
<path d="M219.981 63.5472C219.295 66.6689 216.735 77.7016 213.589 80.2493C211.542 81.9071 202.54 83.9705 199.249 83.9668C197.871 83.9653 196.503 73.9885 197.959 74.2096C199.032 74.3723 207.485 73.1351 208.562 72.9018C208.562 72.9018 212.749 66.5508 215.685 62.0899C218.592 57.6747 221.132 58.3095 219.981 63.5472Z" fill="#EB9481"/>
<path d="M193.802 75.1844C194.415 74.9584 194.3 74.6353 193.196 74.2773C192.079 73.9122 187.413 73.439 187.718 71.8216C188.022 70.198 194.614 70.9763 196.408 71.7138C198.204 72.4472 200.846 74.2729 200.846 74.2729C199.533 74.3792 196.375 74.9419 193.802 75.1844Z" fill="#EB9481"/>
<path d="M200.568 83.9669C196.86 84.1325 192.254 84.5642 188.553 82.6031C187.827 82.2186 187.603 81.6334 187.603 81.6334C185.929 80.7837 185.827 79.7382 185.827 79.7382C184.51 78.4694 184.553 77.3856 184.553 77.3856C184.553 77.3856 182.598 76.3666 183.018 75.083C183.484 73.6419 186.138 75.355 188.174 75.4043C192.837 75.5176 199.498 74.3743 200.846 74.2734L200.568 83.9669Z" fill="#EB9481"/>
<path d="M192.977 78.9572C191.606 78.8964 190.256 78.8725 188.9 78.6267C187.412 78.3566 186.025 77.8469 184.6 77.3637C184.556 77.3486 184.53 77.4086 184.572 77.4307C187.012 78.7143 190.235 79.2736 192.976 79.0201C193.042 79.0135 193.047 78.9601 192.977 78.9572Z" fill="#263238"/>
<path d="M193.319 81.7818C191.987 81.6485 189.649 81.3998 185.845 79.6963C185.833 79.6908 185.82 79.7099 185.832 79.718C188.154 81.1525 190.606 81.8024 193.312 81.8454C193.396 81.8465 193.407 81.7906 193.319 81.7818Z" fill="#263238"/>
<path d="M193.473 83.304C191.218 82.9916 189.835 82.5088 187.615 81.6278C187.602 81.6226 187.59 81.6432 187.603 81.6502C190.021 82.9165 191.042 83.102 193.473 83.3831C193.557 83.3927 193.561 83.3162 193.473 83.304Z" fill="#263238"/>
<path d="M211.228 67.435L218.186 73.4043C218.186 73.4043 220.45 63.5791 220.301 60.5019C220.132 57.0386 218.398 57.8821 216.163 60.3043C213.928 62.7261 211.228 67.435 211.228 67.435Z" fill="#A6A6A6"/>
<path d="M215.398 61.1973C215.398 61.1973 215.398 61.1973 215.395 61.1973C215.362 61.2414 215.325 61.2856 215.288 61.3334C215.41 61.3555 215.531 61.3739 215.656 61.3813C215.571 61.315 215.487 61.2561 215.398 61.1973ZM215.538 71.1296L216.112 71.6227C216.249 71.6521 216.392 71.6742 216.536 71.6853C216.226 71.4387 215.888 71.2694 215.538 71.1296ZM219.023 65.1496C218.88 65.536 218.758 65.9298 218.733 66.3603C218.994 66.0218 219.17 65.6464 219.325 65.2637C219.469 64.8773 219.583 64.4835 219.616 64.0566C219.351 64.3952 219.178 64.7669 219.023 65.1496Z" fill="white"/>
<path d="M218.267 71.3284C218.058 71.0844 215.919 69.1903 215.445 68.7888C214.971 68.3869 213.05 66.7265 212.526 66.3526C212.503 66.3361 212.475 66.3644 212.495 66.3857C212.937 66.8491 214.87 68.5294 215.345 68.9485C215.819 69.3677 217.977 71.1951 218.242 71.3633C218.264 71.3769 218.281 71.3449 218.267 71.3284Z" fill="#263238"/>
<path d="M211.782 67.9034C211.586 67.7087 211.268 67.4169 211.268 67.4169C211.788 66.4885 214.846 62.0368 215.565 60.9497C215.577 60.9328 215.551 60.9162 215.539 60.9324C215.093 61.5223 214.651 62.1115 214.214 62.7047C214.255 62.6211 214.296 62.5369 214.337 62.4537C214.486 62.1567 214.626 61.8557 214.784 61.5635C214.798 61.5392 214.763 61.5149 214.748 61.5392C214.564 61.8189 214.385 62.1037 214.239 62.4051C214.136 62.6175 214.048 62.8353 213.963 63.0543C213.714 63.3962 213.463 63.7362 213.223 64.0858C212.485 65.1559 211.681 66.2401 211.029 67.365C211.029 67.365 211.461 67.793 211.747 67.9557C211.783 67.9755 211.811 67.9318 211.782 67.9034Z" fill="#263238"/>
<path d="M217.514 72.8256C217.755 72.9974 217.988 73.18 218.225 73.3577L218.129 73.3864C218.319 72.5032 218.696 70.725 218.88 69.8407C219.103 68.7982 219.398 67.3177 219.636 66.291C219.454 68.7434 218.969 71.1711 218.213 73.5115C217.981 73.2826 217.742 73.06 217.514 72.8256Z" fill="#263238"/>
<path d="M219.266 68.5538C219.424 68.0747 219.582 67.6445 219.833 67.2051C219.83 67.7019 219.635 68.2156 219.266 68.5538Z" fill="#263238"/>
<path d="M133.456 55.6134C133.456 55.6134 134.273 75.1369 134.794 76.9125C135.314 78.6881 140.817 95.7953 140.817 95.7953C140.817 95.7953 145.622 93.7842 146.907 92.65C147.829 91.8352 150.915 87.9768 150.915 87.9768C150.915 87.9768 142.371 76.9209 141.406 74.5367C140.44 72.1524 137.842 60.192 136.796 57.8832C135.751 55.5747 133.314 55.1699 133.314 55.1699" fill="#F37435"/>
<path opacity="0.5" d="M133.456 55.6134C133.456 55.6134 134.273 75.1369 134.794 76.9125C135.314 78.6881 140.817 95.7953 140.817 95.7953C140.817 95.7953 145.622 93.7842 146.907 92.65C147.829 91.8352 150.915 87.9768 150.915 87.9768C150.915 87.9768 142.371 76.9209 141.406 74.5367C140.44 72.1524 137.842 60.192 136.796 57.8832C135.751 55.5747 133.314 55.1699 133.314 55.1699" fill="#030402"/>
<path d="M118.222 137.156C118.222 137.156 110.655 150.827 110.65 150.837C109.44 153.591 108.428 156.027 108.022 157.336C108.019 157.343 108.016 157.349 108.016 157.357C107.862 157.851 107.796 158.18 107.845 158.297C107.848 158.307 107.848 158.315 107.853 158.321C108.429 159.237 130.156 169.552 131.035 169.656C131.915 169.765 132.281 167.265 131.757 166.191C131.227 165.115 124.678 157.447 124.678 157.447L132.105 143.724L118.222 137.156Z" fill="#F7A9A0"/>
<path d="M131.035 169.656C130.156 169.551 108.429 159.235 107.854 158.322C107.851 158.314 107.851 158.306 107.847 158.295C107.797 158.179 107.862 157.852 108.016 157.354C108.016 157.347 108.02 157.343 108.024 157.335C108.429 156.025 109.442 153.589 110.652 150.834C110.652 150.83 111.466 149.362 112.56 147.389L126.403 154.268L124.68 157.447C124.68 157.447 131.228 165.116 131.759 166.191C132.279 167.262 131.917 169.763 131.035 169.656Z" fill="#EBEBEB"/>
<path d="M131.035 169.657C130.156 169.553 108.429 159.237 107.854 158.323C107.851 158.315 107.851 158.308 107.847 158.296C107.797 158.181 107.862 157.853 108.016 157.356C108.016 157.348 108.02 157.345 108.024 157.337C108.429 156.027 109.442 153.591 110.652 150.836C110.652 150.836 110.802 150.562 111.064 150.092L125.007 156.84L124.68 157.449C124.68 157.449 131.227 165.118 131.759 166.193C132.279 167.264 131.917 169.765 131.035 169.657Z" fill="#455A64"/>
<path opacity="0.1" d="M131.035 169.657C130.888 169.638 130.164 169.337 129.058 168.848L126.333 159.402C128.31 161.749 131.401 165.468 131.759 166.193C132.279 167.264 131.917 169.765 131.035 169.657Z" fill="#030402"/>
<path d="M130.977 168.536C127.372 166.608 112.651 159.171 108.941 157.539C108.911 157.526 108.9 157.546 108.929 157.562C112.461 159.551 127.243 166.868 130.948 168.596C131.025 168.632 131.053 168.577 130.977 168.536Z" fill="#263238"/>
<path d="M125.832 157.678C124.531 156.686 122.663 156.022 121.05 156.492C120.987 156.51 121.014 156.599 121.068 156.608C122.71 156.875 124.178 157.255 125.735 157.856C125.845 157.899 125.925 157.749 125.832 157.678Z" fill="#263238"/>
<path d="M126.555 158.824C125.253 157.832 123.385 157.168 121.772 157.639C121.71 157.657 121.737 157.746 121.791 157.754C123.433 158.022 124.9 158.401 126.457 159.003C126.568 159.045 126.648 158.895 126.555 158.824Z" fill="#263238"/>
<path d="M127.277 159.973C125.976 158.981 124.108 158.317 122.495 158.787C122.433 158.805 122.459 158.894 122.514 158.903C124.156 159.17 125.623 159.55 127.18 160.151C127.29 160.193 127.37 160.044 127.277 159.973Z" fill="#263238"/>
<path d="M113.111 154.156C111.937 152.58 109.486 154.403 110.662 155.981C111.836 157.556 114.287 155.734 113.111 154.156Z" fill="white"/>
<path d="M112.388 146.346L127.964 154.481C127.964 154.481 147.276 126.419 147.6 119.089C148.048 108.966 139.116 76.9238 139.116 76.9238L125.336 76.9558C125.336 76.9558 131.238 109.939 130.835 115.579C130.624 118.529 112.388 146.346 112.388 146.346Z" fill="#37474F"/>
<path d="M129.288 151.264C128.484 150.697 121.097 146.506 115.478 143.838C115.44 143.82 115.416 143.873 115.45 143.895C117.157 145 128.179 150.908 129.247 151.324C129.282 151.338 129.324 151.29 129.288 151.264Z" fill="#263238"/>
<path d="M132.683 108.503C131.999 103.675 131.251 98.8543 130.404 94.0523C129.553 89.2285 128.658 84.4077 127.604 79.6237C127.476 79.0393 127.341 78.4564 127.208 77.8735C127.187 77.7837 127.051 77.8109 127.068 77.9022C127.96 82.6501 128.877 87.3937 129.702 92.1537C130.526 96.9138 131.298 101.683 131.997 106.463C132.169 107.647 132.338 108.831 132.502 110.016C132.671 111.239 132.862 112.467 132.887 113.704C132.912 114.892 132.736 116.051 132.328 117.169C131.927 118.266 131.352 119.286 130.769 120.294C128.315 124.534 117.317 143.067 117.033 143.606C117.014 143.641 117.063 143.677 117.085 143.642C119.726 139.46 127.917 126.105 130.406 121.797C131.529 119.853 132.818 117.883 133.17 115.624C133.535 113.274 133.013 110.827 132.683 108.503Z" fill="#263238"/>
<path d="M129.057 146.195C129.057 146.195 129.045 161.918 129.045 161.929C129.155 164.935 129.306 167.569 129.511 168.924C129.511 168.931 129.511 168.939 129.515 168.946C129.592 169.457 129.676 169.782 129.771 169.866C129.778 169.874 129.782 169.881 129.789 169.884C130.706 170.458 154.757 170.274 155.593 169.985C156.433 169.7 155.673 167.29 154.734 166.552C153.787 165.815 144.551 161.767 144.551 161.767L144.414 146.057L129.057 146.195Z" fill="#F7A9A0"/>
<path d="M129.012 158.418C129.012 158.418 129.045 161.918 129.045 161.929C129.156 164.935 129.306 167.569 129.511 168.924C129.511 168.931 129.511 168.938 129.515 168.946C129.621 169.45 129.713 169.782 129.771 169.866C129.779 169.873 129.782 169.881 129.79 169.884C130.707 170.457 154.757 170.274 155.593 169.985C156.434 169.7 155.673 167.289 154.734 166.552C153.787 165.814 144.552 161.766 144.552 161.766L144.523 158.489L129.012 158.418Z" fill="#EBEBEB"/>
<path d="M155.595 169.984C154.759 170.273 130.707 170.458 129.79 169.884C129.783 169.881 129.779 169.873 129.771 169.865C129.713 169.781 129.621 169.449 129.517 168.944C129.513 168.936 129.513 168.933 129.513 168.925C129.309 167.569 129.155 164.936 129.047 161.93V161.422H144.551L144.554 161.765C144.554 161.765 153.788 165.815 154.736 166.551C155.672 167.291 156.435 169.699 155.595 169.984Z" fill="#455A64"/>
<path d="M155.338 169.014C151.252 168.879 134.76 168.72 130.71 168.897C130.677 168.898 130.677 168.921 130.71 168.923C134.757 169.145 151.25 169.17 155.338 169.081C155.424 169.079 155.424 169.017 155.338 169.014Z" fill="#263238"/>
<path d="M145.922 161.55C144.316 161.236 142.347 161.467 141.109 162.602C141.061 162.646 141.124 162.713 141.176 162.697C142.767 162.211 144.252 161.902 145.914 161.753C146.031 161.743 146.037 161.573 145.922 161.55Z" fill="#263238"/>
<path d="M147.076 162.259C145.471 161.945 143.502 162.176 142.263 163.311C142.215 163.355 142.279 163.422 142.331 163.406C143.921 162.92 145.406 162.611 147.068 162.462C147.185 162.452 147.191 162.281 147.076 162.259Z" fill="#263238"/>
<path d="M148.232 162.97C146.626 162.656 144.657 162.886 143.419 164.022C143.37 164.066 143.434 164.133 143.486 164.117C145.077 163.63 146.561 163.322 148.224 163.173C148.341 163.162 148.347 162.992 148.232 162.97Z" fill="#263238"/>
<path d="M132.954 164.018C131.204 163.124 129.812 165.842 131.565 166.738C133.315 167.631 134.707 164.913 132.954 164.018Z" fill="white"/>
<path d="M138.943 76.8945C138.943 76.8945 138.943 76.8982 138.938 76.9089C138.849 77.1941 134.02 90.8093 133.556 91.0305C133.03 91.2785 144.674 110.437 145.434 119.381C145.92 125.1 145.365 157.499 145.365 157.499L128.599 157.652C128.599 157.652 129.139 128.523 129.438 119.293C129.554 115.714 117.731 98.006 117.487 86.9141C117.41 83.4181 119.864 77.0064 119.864 77.0064L138.943 76.8945Z" fill="#37474F"/>
<path d="M129.532 119.043C129.531 118.894 129.414 118.848 129.403 119C129.07 123.997 129.027 128.964 128.834 133.968C128.642 138.957 128.788 140.159 128.611 145.148C128.511 147.972 128.656 150.801 128.617 153.626C128.616 153.67 128.682 153.675 128.686 153.631C129.162 148.649 129.554 121.87 129.532 119.043Z" fill="#263238"/>
<path d="M145.436 119.577C145.387 118.347 145.295 117.114 145.063 115.904C144.836 114.72 144.45 113.576 143.996 112.462C143.048 110.134 141.932 107.867 140.865 105.592C139.784 103.288 138.681 100.995 137.542 98.719C136.902 97.4399 136.258 96.1622 135.61 94.8871C134.953 93.5972 134.248 92.3309 133.561 91.0569C133.534 91.0065 133.456 91.0444 133.481 91.0967C134.577 93.3941 135.659 95.6978 136.754 97.9956C137.85 100.293 138.926 102.6 140.003 104.906C141.062 107.174 142.124 109.444 143.123 111.74C143.603 112.84 144.051 113.956 144.35 115.12C144.658 116.314 144.794 117.54 144.875 118.768C145.063 121.63 145.169 124.502 145.476 127.355C145.48 127.391 145.538 127.387 145.539 127.351C145.601 124.765 145.537 122.162 145.436 119.577Z" fill="#263238"/>
<path d="M144.12 154.197C143.143 154.078 135.713 153.89 129.501 154.212C129.459 154.214 129.462 154.272 129.503 154.275C131.53 154.437 142.975 154.41 144.113 154.269C144.15 154.264 144.164 154.202 144.12 154.197Z" fill="#263238"/>
<path d="M135.866 90.2558C134.076 90.6908 132.324 91.3822 130.64 92.1212C130.575 92.1502 130.607 92.2515 130.678 92.2286C132.432 91.6615 134.217 91.1287 135.939 90.4655C136.074 90.4137 136.004 90.2227 135.866 90.2558Z" fill="#263238"/>
<path d="M137.452 78.7463C137.453 78.6878 137.352 78.6653 137.346 78.7282C137.173 80.7324 136.881 82.4829 136.537 84.3391C136.378 85.201 135.231 89.9386 133.757 89.4477C133.51 89.3656 133.404 89.1051 133.4 88.7213C133.396 88.2594 133.62 87.7148 133.738 87.2669C133.999 86.277 134.227 85.2812 134.408 84.2733C134.746 82.3924 134.931 80.4972 134.877 78.5862C134.875 78.5233 134.785 78.5196 134.779 78.5825C134.537 81.2071 134.224 83.8202 133.589 86.383C133.284 87.6147 132.479 89.4367 133.768 89.7506C135.08 90.0704 136.235 87.0005 136.478 86.1541C137.155 83.7915 137.416 81.1971 137.452 78.7463Z" fill="#263238"/>
<path d="M133.786 89.5801C133.619 89.89 133.478 90.2153 133.354 90.5439C133.257 90.7993 133.132 91.0731 133.137 91.3491C133.138 91.4028 133.207 91.4142 133.239 91.3811C133.437 91.1735 133.54 90.874 133.663 90.6175C133.807 90.3205 133.957 90.0257 134.091 89.7247C134.18 89.5249 133.888 89.3891 133.786 89.5801Z" fill="#263238"/>
<path d="M131.293 123.954C131.357 121.57 131.599 119.068 130.797 116.774C130.399 115.637 129.8 114.586 129.237 113.525C128.646 112.41 128.066 111.288 127.495 110.162C125.214 105.658 123.061 101.081 121.133 96.4139C120.205 94.1665 119.371 91.8584 119.025 89.4407C118.662 86.9114 118.88 84.3181 119.424 81.8312C119.559 81.2096 119.704 80.5906 119.868 79.9761C119.88 79.9312 119.813 79.9065 119.799 79.9518C119.066 82.3103 118.569 84.759 118.558 87.2371C118.547 89.6243 119.091 91.9372 119.883 94.1768C120.708 96.5096 121.735 98.7757 122.747 101.032C123.79 103.358 124.872 105.667 125.995 107.954C127.114 110.231 128.304 112.468 129.482 114.713C130.053 115.8 130.573 116.913 130.8 118.127C131.032 119.363 131.008 120.626 130.973 121.878C130.823 127.153 130.528 144.706 130.51 149.966C130.507 150.634 130.505 151.302 130.504 151.97C130.504 152.029 130.593 152.036 130.596 151.976C130.882 146.726 131.152 129.213 131.293 123.954Z" fill="#263238"/>
<path d="M127.135 80.4174C127.132 80.3798 127.076 80.3879 127.072 80.4214C126.888 81.8743 126.788 83.3805 126.1 84.7035C125.468 85.9175 124.354 86.7061 123.136 87.2625C122.433 87.5842 121.7 87.8392 120.967 88.085C120.914 88.1027 120.927 88.1851 120.985 88.1726C122.369 87.872 123.776 87.536 124.974 86.7462C126.257 85.9006 126.908 84.5603 127.107 83.0648C127.224 82.1856 127.202 81.2987 127.135 80.4174Z" fill="#263238"/>
<path d="M115.954 82.315C116.003 82.3812 141.057 84.4266 141.294 84.2036C141.315 84.1833 142.204 83.4687 142.072 81.5838C142.036 81.0664 140.95 79.014 140.633 77.4059C139.523 71.767 137.786 61.2378 135.198 55.8893C134.503 54.4511 130.919 53.3254 129.334 54.761C122.199 61.2209 115.892 82.23 115.954 82.315Z" fill="#EBEBEB"/>
<path d="M132.067 68.0968C132.026 69.1398 131.138 79.7065 131.071 87.238C131.042 90.4613 132.24 95.3057 132.24 95.3057C132.24 95.3057 123.225 94.1314 120.291 92.846C118.588 92.1 114.403 88.3037 114.403 88.3037C114.403 88.3037 117.55 75.3428 119.765 70.2927C121.981 65.2426 126.424 55.1697 129.742 54.252C129.742 54.252 132.125 66.6076 132.067 68.0968Z" fill="#F37435"/>
<g opacity="0.3">
<path d="M132.067 68.0968C132.026 69.1398 131.138 79.7065 131.071 87.238C131.042 90.4613 132.24 95.3057 132.24 95.3057C132.24 95.3057 123.225 94.1314 120.291 92.846C118.588 92.1 114.403 88.3037 114.403 88.3037C114.403 88.3037 117.55 75.3428 119.765 70.2927C121.981 65.2426 126.424 55.1697 129.742 54.252C129.742 54.252 132.125 66.6076 132.067 68.0968Z" fill="#030402"/>
</g>
<path d="M134.682 59.3377C133.244 59.4462 130.997 56.2962 130.329 54.4311C130.284 54.3031 130.587 53.5233 130.974 52.0288C131.206 51.121 131.443 50.1049 131.592 49.1621L137.278 51.5339C137.278 51.5339 136.384 53.4184 136.135 55.0637C136.115 55.2014 136.108 55.3313 136.114 55.4571C136.113 55.4752 136.115 55.4976 136.112 55.5226C136.116 56.2763 136.072 59.2317 134.682 59.3377Z" fill="#F7A9A0"/>
<path d="M135.775 56.4452C135.881 56.4654 135.985 56.4779 136.086 56.4919C136.112 56.079 136.116 55.7232 136.114 55.5237C136.115 55.4987 136.111 55.4748 136.114 55.4571C136.108 55.3338 136.116 55.2021 136.134 55.063C136.384 53.4188 137.279 51.5353 137.279 51.5353L131.59 49.1621C131.558 49.3601 131.525 49.5584 131.486 49.7627C131.564 51.7933 132.19 55.7979 135.775 56.4452Z" fill="#263238"/>
<path d="M131.24 43.5303C130.469 45.6117 131.229 51.7989 132.657 53.2521C134.726 55.3589 138.292 55.7582 140.127 53.23C141.906 50.7795 140.773 42.7335 139.162 41.3944C136.789 39.4219 132.379 40.456 131.24 43.5303Z" fill="#F7A9A0"/>
<path d="M137.052 47.7792C137.048 47.7633 137.021 47.8013 137.022 47.8182C137.061 48.2366 137.035 48.722 136.664 48.8839C136.652 48.8891 136.654 48.9097 136.668 48.9071C137.127 48.8144 137.156 48.1693 137.052 47.7792Z" fill="#263238"/>
<path d="M136.652 47.3633C135.975 47.3527 136.004 48.708 136.631 48.7176C137.248 48.7272 137.22 47.3722 136.652 47.3633Z" fill="#263238"/>
<path d="M139.47 47.7483C139.473 47.7321 139.503 47.7674 139.503 47.7847C139.499 48.2046 139.564 48.6863 139.947 48.8177C139.959 48.8217 139.958 48.8431 139.944 48.8412C139.479 48.786 139.398 48.1454 139.47 47.7483Z" fill="#263238"/>
<path d="M139.836 47.3011C140.51 47.2356 140.591 48.5888 139.967 48.6491C139.352 48.7091 139.27 47.356 139.836 47.3011Z" fill="#263238"/>
<path d="M136.082 46.505C136.267 46.4601 136.43 46.3876 136.609 46.3243C136.81 46.2525 136.978 46.2165 137.111 46.0373C137.182 45.9412 137.154 45.7679 137.067 45.6899C136.865 45.5085 136.597 45.5346 136.351 45.6111C136.085 45.6939 135.901 45.826 135.746 46.0582C135.597 46.2831 135.838 46.5642 136.082 46.505Z" fill="#263238"/>
<path d="M140.332 46.1502C140.144 46.1237 139.974 46.0674 139.791 46.0218C139.584 45.9703 139.413 45.9508 139.263 45.7855C139.183 45.6969 139.194 45.5217 139.273 45.4356C139.455 45.235 139.725 45.235 139.977 45.2869C140.251 45.3432 140.447 45.4566 140.624 45.6726C140.794 45.882 140.58 46.1856 140.332 46.1502Z" fill="#263238"/>
<path d="M136.582 51.528C136.685 51.624 136.788 51.7572 136.941 51.7668C137.087 51.776 137.257 51.7064 137.389 51.6516C137.403 51.6461 137.416 51.6601 137.408 51.673C137.303 51.8363 137.076 51.942 136.88 51.9122C136.689 51.8831 136.592 51.7208 136.542 51.5478C136.535 51.5235 136.567 51.514 136.582 51.528Z" fill="#263238"/>
<path d="M136.997 50.2614C137.239 50.6209 137.589 50.8126 137.964 50.877C138.132 50.9068 138.307 50.909 138.479 50.8895C138.513 50.8881 138.547 50.8836 138.577 50.8763C138.607 50.8719 138.635 50.8678 138.668 50.8601C138.717 50.852 138.743 50.8108 138.75 50.7644V50.7615C138.75 50.746 138.749 50.7339 138.746 50.7184C138.746 50.7184 138.746 50.7184 138.746 50.7155L138.744 50.6787C138.746 50.3552 138.704 49.8647 138.704 49.8647C138.824 49.9213 139.432 50.1793 139.418 50.0108C139.305 48.6146 139.18 47.062 138.773 45.6967C138.761 45.6511 138.691 45.6632 138.696 45.7092C138.752 47.0553 139.043 48.3824 139.121 49.7336C138.927 49.6648 138.611 49.536 138.442 49.543C138.396 49.557 138.539 50.4903 138.527 50.6356C138.527 50.6356 138.527 50.6419 138.524 50.6511C137.982 50.732 137.57 50.5767 137.035 50.2231C137.004 50.1992 136.971 50.2282 136.997 50.2614Z" fill="#263238"/>
<path d="M138.308 50.8081C138.308 50.8081 138.027 51.1886 137.641 51.3259C137.499 51.377 137.346 51.3973 137.186 51.3546C136.856 51.2681 136.848 50.9656 136.908 50.7069C136.957 50.4942 137.055 50.3105 137.055 50.3105C137.055 50.3105 137.537 50.761 138.308 50.8081Z" fill="#263238"/>
<path d="M137.641 51.326C137.499 51.3772 137.346 51.3974 137.186 51.3547C136.856 51.2682 136.848 50.9657 136.908 50.707C137.261 50.7435 137.611 50.9827 137.641 51.326Z" fill="#FF98B9"/>
<path d="M140.467 43.9124C138.407 45.5452 135.293 43.5072 135.293 43.5072C134.713 45.2471 133.01 45.1614 133.01 45.1614C133.01 45.1614 132.838 48.8524 131.874 48.912C130.402 49.0048 129.602 44.0438 129.997 43.0303C130.393 42.0168 131.623 41.6794 131.623 41.6794C131.623 41.6794 131.662 40.9121 132.523 40.1544C133.474 39.3157 137.012 40.111 137.012 40.111C137.012 40.111 137.205 39.4489 137.816 38.8509C138.204 38.4737 138.757 38.5057 139.133 38.8804C138.981 39.1328 138.876 39.4463 138.843 39.8077C138.744 40.8915 139.62 40.8297 139.544 39.8581C139.51 39.4261 139.351 39.096 139.133 38.8804C139.521 38.215 140.212 37.9593 140.665 38.2699C141.485 38.8344 142.181 42.5556 140.467 43.9124Z" fill="#263238"/>
<path d="M132.722 44.0175C132.702 43.9553 132.617 43.9825 132.633 44.0469C132.813 44.7711 132.998 45.5035 133.003 46.2593C133.008 47.002 132.745 48.8865 131.668 48.7419C131.62 48.7352 131.603 48.8044 131.65 48.8228C132.372 49.1102 132.793 48.1792 132.979 47.54C133.316 46.3826 133.086 45.134 132.722 44.0175Z" fill="#263238"/>
<path d="M140.604 38.2266C140.598 38.2203 140.589 38.2303 140.595 38.2365C141.815 39.5842 142.226 41.5927 141.304 43.2314C140.143 45.2933 137.432 44.2044 135.809 43.4721C135.73 43.4364 135.663 43.553 135.743 43.5917C137.325 44.3531 140.073 45.3809 141.304 43.4953C142.402 41.8135 141.967 39.5941 140.604 38.2266Z" fill="#263238"/>
<path d="M131.933 41.6548C130.499 41.9088 129.513 42.6635 129.477 44.204C129.441 45.7371 130.159 47.3081 131.282 48.337C131.336 48.387 131.409 48.3083 131.36 48.2542C130.561 47.368 129.94 46.3752 129.717 45.1851C129.552 44.3055 129.589 43.3083 130.164 42.5737C130.578 42.0449 131.337 41.8727 131.949 41.7082C131.985 41.6986 131.968 41.6486 131.933 41.6548Z" fill="#263238"/>
<path d="M137.465 40.3914C135.587 39.4111 131.944 38.6121 131.638 41.6588C131.635 41.6835 131.678 41.6886 131.682 41.6636C132.16 38.6004 135.522 39.7279 137.434 40.4713C137.48 40.4893 137.508 40.4139 137.465 40.3914Z" fill="#263238"/>
<path d="M132.325 48.7797C132.325 48.7797 131.015 46.7447 130.097 47.2043C129.179 47.6639 130.111 50.5763 131.151 51.0102C132.191 51.4437 132.611 50.4883 132.611 50.4883L132.325 48.7797Z" fill="#F7A9A0"/>
<path d="M130.385 48.0333C130.368 48.0311 130.364 48.0547 130.378 48.0613C131.107 48.3896 131.47 49.091 131.715 49.813C131.505 49.5307 131.212 49.3692 130.835 49.6169C130.815 49.6297 130.832 49.661 130.853 49.6573C131.159 49.604 131.376 49.6651 131.571 49.9157C131.709 50.093 131.8 50.3146 131.896 50.517C131.928 50.5847 132.049 50.5538 132.027 50.4765C132.025 50.471 132.023 50.4647 132.021 50.4592C132.077 49.516 131.394 48.1673 130.385 48.0333Z" fill="#263238"/>
<path d="M127.979 59.3685C129.575 66.5309 134.072 76.6863 136.12 78.3209C137.933 79.7683 146.284 80.891 150.99 81.358C152.522 81.51 153.297 69.9898 151.653 69.9169C149.414 69.8175 141.183 69.0996 140.8 68.7474C140.38 68.3606 135.817 62.0524 132.16 57.5219C128.845 53.415 127.376 56.6593 127.979 59.3685Z" fill="#F7A9A0"/>
<path d="M164.189 78.2649C163.884 79.3306 162.737 79.3608 162.737 79.3608C162.737 79.3608 163.006 80.2039 162.626 80.9645C162.191 81.8356 160.634 81.5353 160.634 81.5353C160.634 81.5353 160.729 82.445 160.247 83.2082C159.746 84.0001 158.132 83.921 158.132 83.921C158.132 83.921 157.756 84.8175 156.866 85.1777C155.344 85.7941 153.315 84.3229 152.015 83.4007C150.715 82.4785 147.891 78.6454 147.279 77.9694L149.039 69.9021C149.039 69.9021 153.125 69.5433 156.63 70.45C158.935 71.0462 160.962 72.8372 161.507 73.3535C162.665 74.4498 164.531 77.0689 164.189 78.2649Z" fill="#F7A9A0"/>
<path d="M162.772 79.1858C161.821 77.7248 160.489 76.6249 159.223 75.4513C159.194 75.4252 159.154 75.4697 159.183 75.4955C160.456 76.648 161.484 78.0383 162.709 79.2391C162.742 79.2723 162.798 79.2251 162.772 79.1858Z" fill="#263238"/>
<path d="M160.683 81.4077C160.458 81.0839 160.127 80.8351 159.827 80.5838C159.504 80.3133 159.177 80.0487 158.845 79.7889C158.181 79.2689 157.505 78.764 156.815 78.2794C156.784 78.258 156.744 78.2992 156.775 78.3235C157.436 78.8428 158.088 79.372 158.727 79.9188C159.046 80.1922 159.363 80.4686 159.678 80.7472C159.972 81.0063 160.259 81.304 160.605 81.4928C160.657 81.5207 160.717 81.4567 160.683 81.4077Z" fill="#263238"/>
<path d="M158.105 83.898C157.921 83.6088 157.565 83.4005 157.294 83.1973C156.987 82.967 156.681 82.7344 156.376 82.5004C155.766 82.0326 155.157 81.5642 154.564 81.0755C154.535 81.0512 154.494 81.095 154.524 81.1196C155.124 81.6194 155.717 82.1272 156.321 82.6218C156.618 82.8647 156.916 83.1057 157.215 83.3453C157.47 83.5492 157.765 83.8325 158.083 83.9297C158.1 83.9352 158.114 83.9124 158.105 83.898Z" fill="#263238"/>
<path d="M135.303 77.9104C138.231 80.8452 149.937 82.0357 149.937 82.0357L149.684 69.2032C149.684 69.2032 141.185 68.8101 140.841 68.4686C140.13 67.7624 135.287 60.3531 131.453 56.4545C128.23 53.1786 126.886 56.1013 127.97 60.592C129.278 66.0064 134.266 76.8719 135.303 77.9104Z" fill="#F37435"/>
<path opacity="0.3" d="M135.303 77.9104C138.231 80.8452 149.937 82.0357 149.937 82.0357L149.684 69.2032C149.684 69.2032 141.185 68.8101 140.841 68.4686C140.13 67.7624 135.287 60.3531 131.453 56.4545C128.23 53.1786 126.886 56.1013 127.97 60.592C129.278 66.0064 134.266 76.8719 135.303 77.9104Z" fill="#030402"/>
<path d="M146.943 70.1775C146.825 71.0581 146.873 74.6229 146.893 75.526C146.914 76.4276 147.143 80.0156 147.2 80.9106C147.203 80.9511 147.277 80.9382 147.278 80.8977C147.289 79.9899 147.155 71.0408 146.988 70.1746C146.985 70.1562 146.946 70.1536 146.943 70.1775Z" fill="#263238"/>
<path d="M127.755 60.5078C130.151 65.9487 132.238 71.8396 134.815 77.1911C133.258 74.5967 132.165 71.7557 130.978 68.9806C129.847 66.1783 128.744 63.3646 127.755 60.5078Z" fill="#263238"/>
<path d="M127.617 61.5156C128.035 62.0834 128.425 62.68 128.787 63.2809C128.225 62.8342 127.814 62.2045 127.617 61.5156Z" fill="#263238"/>
<path d="M73.1691 57.4187C73.9294 57.443 74.6816 57.0522 75.0452 56.3692C75.4017 55.6976 75.3167 54.8659 74.8877 54.2528C75.7017 54.2252 76.4734 53.812 76.703 52.9541C76.9404 52.0662 76.4344 51.2492 75.6251 50.897C75.6192 50.8944 75.6137 50.904 75.6196 50.9073C76.321 51.3077 76.7924 52.0941 76.5628 52.9104C76.3663 53.6081 75.8231 53.947 75.196 54.0626C75.7146 53.7545 76.1425 53.2846 76.2743 52.6826C76.4185 52.0224 76.1587 51.3004 75.6005 50.9235C76.0461 50.2968 76.3034 49.4729 76.0498 48.7199C75.8371 48.0862 75.2696 47.5946 74.6036 47.546C74.916 46.8498 74.8026 45.9809 74.2654 45.4193C73.7619 44.8913 72.9825 44.7154 72.2958 44.9196C72.6889 43.8358 71.8093 42.6877 70.6465 42.7966C70.7219 42.3881 70.5177 41.976 70.1721 41.7364C69.7747 41.4593 69.269 41.4597 68.8046 41.5443C68.6302 41.1531 68.2773 40.8422 67.8412 40.7781C67.259 40.6924 66.7412 41.0567 66.5672 41.5899C65.8731 41.2602 65.0738 40.9997 64.3132 41.2252C63.6876 41.4111 63.1393 41.9311 63.0782 42.5953C61.7581 42.1721 60.3741 42.9876 60.1025 44.351C59.5273 44.333 58.9912 44.6528 58.6883 45.1445C58.3832 45.6394 58.3199 46.0442 58.3082 46.2385C57.79 46.2628 57.3469 46.6378 57.21 47.1386C57.075 47.6318 57.2351 48.0837 57.5015 48.4826C57.5044 48.6129 57.4842 48.7369 57.4213 48.8844C57.1386 49.5472 57.1806 50.2655 57.5641 50.8753C56.9966 51.5068 57.1508 52.57 57.8713 53.0152C57.5144 53.8031 57.914 54.7997 58.7115 55.1279C58.4995 55.7745 58.5635 56.4928 58.919 57.0805C59.1913 57.531 59.6885 57.9159 60.2225 57.8261C60.1283 58.2298 60.4819 58.6052 60.868 58.7185C61.0144 58.7616 61.1675 58.7785 61.3191 58.7884C61.4994 58.7987 61.7328 58.7645 61.9006 58.8399C62.0754 58.9161 62.167 59.117 62.2862 59.2532C62.372 59.3507 62.4695 59.4394 62.574 59.5174C63.3678 60.1018 64.5391 60.037 65.2527 59.3662C65.7167 59.8906 66.4822 59.8913 67.1155 59.6867C67.3242 59.619 67.5122 59.5215 67.705 59.4192C67.8828 59.3246 68.0436 59.2532 68.253 59.272C68.3796 59.2837 68.5025 59.3239 68.6294 59.3364C69.0604 59.3783 69.4059 59.1472 69.7195 58.883C71.0163 60.2339 73.019 59.127 73.1691 57.4187ZM57.3186 47.4043C57.3841 46.8446 57.7694 46.4387 58.3052 46.2974C58.3048 46.3375 58.3059 46.3644 58.3059 46.3644C58.3059 46.3644 58.1525 46.4523 58.0826 46.5031C57.9563 46.5973 57.8448 46.711 57.751 46.838C57.5552 47.1015 57.4371 47.4253 57.4227 47.7528C57.4165 47.9004 57.4356 48.0447 57.4651 48.1882C57.4691 48.2073 57.4706 48.2235 57.4743 48.2419C57.3572 47.9814 57.2829 47.7101 57.3186 47.4043ZM68.0108 41.1778C67.5174 41.0368 66.9653 41.2197 66.6724 41.6389C66.6603 41.633 66.6474 41.6275 66.6349 41.6212C66.8748 41.1494 67.2244 40.7855 67.829 40.8849C68.2519 40.9544 68.504 41.2311 68.6545 41.5737C68.6519 41.5745 68.6493 41.5749 68.6467 41.5752C68.4771 41.3912 68.2651 41.2495 68.0108 41.1778ZM69.7831 58.8285C69.7879 58.8245 69.7927 58.8204 69.7975 58.8164C70.8717 59.4582 72.1939 59.0872 72.8206 58.1106C72.2042 59.2374 71.0181 59.8541 69.7831 58.8285Z" fill="#263238"/>
<path d="M59.5482 58.6169C50.5079 60.3112 41.6214 63.4403 40.5642 66.0487C39.1418 69.5576 40.8144 76.2118 41.6373 80.8026C41.879 82.1513 52.3383 80.0585 52.0818 78.6163C51.7716 76.8734 49.1095 70.1416 49.1323 69.965C49.1809 69.5874 57.8775 63.5592 59.9902 62.1693C63.5182 59.8483 63.5609 57.8651 59.5482 58.6169Z" fill="#AD6359"/>
<path d="M43.2242 87.628C42.0996 85.6456 41.3857 80.692 41.6731 79.4308C41.9605 78.1697 50.3417 76.676 51.3258 77.5669C52.3098 78.4578 55.5787 85.4256 55.2096 87.7215C54.8413 90.0178 44.3893 89.6818 43.2242 87.628Z" fill="#AD6359"/>
<path d="M55.068 84.0761C54.0147 83.4858 53.9216 85.0649 53.9216 85.0649C53.9216 85.0649 53.5076 82.7594 52.1861 82.5706C50.9121 82.3922 50.8672 84.3039 50.8621 84.4408C50.8389 84.319 50.4032 82.2104 49.0559 82.1574C47.6557 82.1033 47.9398 84.0305 47.9589 84.1549C47.9012 84.0467 47.1129 82.6291 46.0803 82.822C44.3058 83.1535 46.2216 86.8335 45.7237 88.2077C45.7237 88.2077 43.2986 87.6303 43.2246 87.6281C43.2246 87.6281 44.9756 91.1664 46.8667 91.7342C47.8636 92.0334 48.3394 91.1634 48.3394 91.1634C48.3394 91.1634 48.7781 92.3668 49.8372 92.4419C50.3811 92.479 50.9246 91.6418 50.9246 91.6418C50.9246 91.6418 51.3158 92.5905 52.2627 92.5986C53.0182 92.6075 53.4454 91.7666 53.4454 91.7666C53.4454 91.7666 54.244 92.5033 55.0186 92.2615C56.5819 91.7776 57.3223 85.3424 55.068 84.0761Z" fill="#AD6359"/>
<path d="M53.5336 91.6453C53.5295 91.6663 53.5583 91.6766 53.566 91.6556C54.3259 89.5989 54.5305 87.106 53.9362 84.9819C53.9167 84.9124 53.7949 84.9135 53.8019 84.9945C53.9958 87.3011 53.9844 89.3637 53.5336 91.6453Z" fill="#263238"/>
<path d="M50.9346 91.6775C50.9295 91.7022 50.9707 91.7106 50.9799 91.6852C51.7516 89.5615 51.9047 86.7478 50.9313 84.3797C50.8978 84.2984 50.7867 84.259 50.818 84.3554C51.3457 85.979 51.3509 89.6255 50.9346 91.6775Z" fill="#263238"/>
<path d="M47.8348 84.0148C48.6805 86.3214 48.7018 88.6667 48.3776 91.0793C48.3736 91.1106 48.4181 91.1135 48.4288 91.0881C48.909 89.9514 48.9554 88.3922 48.8891 87.1759C48.8255 86.0108 48.534 84.9727 47.9154 83.9854C47.8915 83.9471 47.8168 83.9655 47.8348 84.0148Z" fill="#263238"/>
<path d="M53.922 85.0656C53.7991 84.6299 53.643 84.2037 53.4447 83.803C53.2448 83.4085 52.9902 83.0177 52.6365 82.7965C52.4614 82.6887 52.2612 82.6401 52.0661 82.6754C51.8682 82.7133 51.6709 82.7947 51.5208 82.9238C51.2135 83.177 51.0803 83.6186 51.0762 84.012L51.0659 85.0019L50.7314 84.0683C50.5853 83.6609 50.3737 83.251 50.1043 82.9154C49.8364 82.5797 49.4802 82.3166 49.0912 82.3015C48.685 82.278 48.3387 82.4804 48.2128 82.8613C48.0726 83.2322 48.08 83.7007 48.151 84.1143L48.3493 85.2706L47.7863 84.2475C47.6336 83.9704 47.4356 83.6933 47.2141 83.4626C46.9918 83.2333 46.7287 83.0383 46.4471 82.982C46.1715 82.9253 45.8617 83.0195 45.7042 83.2377C45.5352 83.4648 45.487 83.8048 45.4734 84.1309C45.4536 84.7969 45.5765 85.4763 45.6648 86.1556C45.7119 86.4956 45.7594 86.8371 45.7903 87.1812C45.8149 87.522 45.8447 87.8815 45.724 88.2087C45.8094 87.8734 45.7421 87.5286 45.6957 87.1934C45.639 86.8563 45.5662 86.5218 45.4937 86.1861C45.3483 85.5149 45.2092 84.8374 45.1904 84.1279C45.1937 83.7768 45.2092 83.396 45.4333 83.0482C45.6674 82.6913 46.1237 82.551 46.5149 82.6283C46.9141 82.7056 47.2258 82.9459 47.4823 83.1991C47.7392 83.4611 47.949 83.7434 48.1322 84.0639L47.7675 84.1967C47.6799 83.7084 47.6538 83.219 47.826 82.7159C47.9122 82.469 48.0873 82.2254 48.3324 82.0811C48.5782 81.9354 48.8491 81.8897 49.1148 81.9052C49.6668 81.9402 50.1051 82.3026 50.3976 82.682C50.6983 83.0732 50.9092 83.4986 51.0674 83.9609L50.7222 84.0172C50.7443 83.517 50.9316 83.0188 51.343 82.7008C51.5473 82.5459 51.7865 82.4631 52.0334 82.4292C52.2877 82.3946 52.5526 82.4749 52.7539 82.6147C53.1602 82.9036 53.3744 83.3371 53.5529 83.7537C53.7277 84.1772 53.8476 84.6185 53.922 85.0656Z" fill="#263238"/>
<path d="M52.0917 78.6562C52.0917 78.6562 59.7873 84.51 56.0256 86.3968C54.9077 86.9576 49.6478 87.9258 49.4329 86.8733C49.1555 85.5143 51.2755 84.6999 52.6875 84.4004C52.6875 84.4004 49.7895 82.7779 50.3176 80.4234C50.6492 78.9466 52.0917 78.6562 52.0917 78.6562Z" fill="#AD6359"/>
<path d="M56.3285 86.2206C55.9281 86.5091 55.4578 86.6839 54.993 86.8436C54.5249 87.0022 54.0436 87.1155 53.5593 87.2094C52.5863 87.3857 51.6192 87.5306 50.612 87.5365C50.3592 87.5343 50.1023 87.5214 49.8315 87.442C49.6979 87.4022 49.554 87.3374 49.4347 87.2315C49.3744 87.1796 49.3277 87.1281 49.2747 87.0419C49.2331 86.9647 49.2033 86.8877 49.19 86.8116C49.1227 86.5043 49.2051 86.2077 49.3361 85.9615C49.4763 85.7186 49.664 85.5217 49.8649 85.3521C50.2727 85.0172 50.7386 84.7993 51.21 84.629C51.6814 84.4527 52.166 84.3371 52.6511 84.2337L52.6069 84.5517C52.2728 84.3511 51.9798 84.1244 51.6979 83.8727C51.4183 83.6221 51.1614 83.3446 50.9384 83.0418C50.7176 82.7374 50.5391 82.4011 50.4173 82.0474C50.2926 81.6942 50.2381 81.3192 50.255 80.9512C50.2881 81.3181 50.3798 81.6743 50.5281 82.0037C50.6753 82.3341 50.881 82.6329 51.1092 82.9089C51.3384 83.1849 51.5982 83.4359 51.8786 83.66C52.1576 83.8827 52.4623 84.0891 52.7681 84.2499L53.1571 84.4542L52.7236 84.5679C52.2569 84.6904 51.7885 84.8104 51.348 84.9922C50.9079 85.1677 50.4721 85.3712 50.1262 85.6664C49.7877 85.949 49.5095 86.356 49.5893 86.7255C49.6309 87.0563 50.1627 87.1362 50.6208 87.1483C51.0952 87.1645 51.5809 87.131 52.0652 87.0975C52.551 87.0626 53.0356 87.0213 53.517 86.9555C54.4727 86.8064 55.4508 86.6611 56.3285 86.2206Z" fill="#263238"/>
<path d="M51.2642 68.9943L44.7344 61.0341C44.7344 61.0341 53.2436 58.5935 58.5373 57.9576C63.8314 57.3217 64.868 59.8624 60.954 63.008C57.0396 66.1533 51.2642 68.9943 51.2642 68.9943Z" fill="#37474F"/>
<path d="M52.7384 67.3773C52.511 67.1109 52.3211 66.8062 52.1161 66.525C51.9093 66.242 51.6918 65.9642 51.4758 65.6867C51.0581 65.1509 50.6415 64.6144 50.2275 64.076C49.3881 62.9845 48.5749 61.8739 47.6707 60.8244C47.6574 60.8089 47.6265 60.8262 47.6368 60.8439C48.3272 62.0137 49.1596 63.1137 50.0016 64.2C50.4244 64.7458 50.8546 65.2864 51.2944 65.8214C51.517 66.093 51.7437 66.3635 51.9803 66.6259C52.2155 66.8864 52.4823 67.1356 52.6998 67.406C52.7178 67.4292 52.7575 67.3998 52.7384 67.3773Z" fill="#263238"/>
<path d="M41.792 146.387C41.792 146.387 34.552 160.045 34.5501 160.056C34.0257 163.029 34.3879 167.497 34.4813 167.584C34.4887 167.591 34.492 167.599 34.4994 167.603C35.4091 168.205 59.6783 168.663 60.5298 168.394C61.3851 168.129 60.6822 165.677 59.7545 164.907C58.8194 164.138 49.6098 159.807 49.6098 159.807L57.4891 146.657L41.792 146.387Z" fill="#AD6359"/>
<path d="M60.531 168.396C59.6794 168.662 35.4124 168.207 34.499 167.602C34.4953 167.599 34.4913 167.591 34.4835 167.583C34.3912 167.499 34.0287 163.028 34.5527 160.057C34.5527 160.053 35.0385 159.136 35.755 157.779L50.588 158.176L49.6091 159.807C49.6091 159.807 58.8194 164.138 59.7559 164.909C60.6851 165.675 61.3866 168.13 60.531 168.396Z" fill="#EBEBEB"/>
<path d="M60.6517 168.496C59.7895 168.764 35.2881 168.231 34.3662 167.62C34.0155 167.391 33.9993 163.942 34.3629 159.496L49.6474 159.793C49.6474 159.793 58.9372 164.193 59.876 164.972C60.81 165.75 61.5136 168.228 60.6517 168.496Z" fill="#F37435"/>
<path d="M60.322 167.509C56.217 167.319 39.6422 166.939 35.5699 167.063C35.5368 167.065 35.5365 167.087 35.5696 167.089C39.6341 167.366 56.2118 167.611 60.3209 167.576C60.4077 167.575 60.4088 167.513 60.322 167.509Z" fill="#006D8D"/>
<path d="M58.3197 164.056C57.3463 163.996 56.3843 164.437 55.8408 165.006C55.3186 165.552 54.8649 166.327 54.8752 167.179C54.8755 167.203 54.9208 167.205 54.9249 167.18C55.1942 165.578 56.6868 164.198 58.3185 164.108C58.3513 164.106 58.3528 164.059 58.3197 164.056Z" fill="#006D8D"/>
<path d="M51.2322 160.237C49.5887 160.178 47.6703 160.717 46.6193 162.039C46.5785 162.09 46.6521 162.147 46.7014 162.123C48.2043 161.39 49.6292 160.849 51.2561 160.439C51.3709 160.411 51.3499 160.241 51.2322 160.237Z" fill="#006D8D"/>
<path d="M52.4908 160.76C50.8473 160.702 48.9286 161.24 47.878 162.563C47.8375 162.614 47.9107 162.671 47.96 162.647C49.4626 161.913 50.8878 161.373 52.5144 160.963C52.6292 160.934 52.6086 160.764 52.4908 160.76Z" fill="#006D8D"/>
<path d="M53.7488 161.282C52.1053 161.223 50.1869 161.762 49.1359 163.084C49.0951 163.135 49.1687 163.193 49.218 163.168C50.7205 162.435 52.1458 161.894 53.7727 161.484C53.8872 161.456 53.8666 161.286 53.7488 161.282Z" fill="#006D8D"/>
<path d="M55.0076 161.803C53.3641 161.745 51.4457 162.283 50.3947 163.606C50.3539 163.657 50.4275 163.714 50.4768 163.69C51.9797 162.956 53.4046 162.416 55.0315 162.006C55.1463 161.977 55.1253 161.808 55.0076 161.803Z" fill="#006D8D"/>
<path d="M36.7008 163.184C34.8564 163.149 34.7994 166.016 36.6467 166.051C38.4912 166.085 38.5482 163.218 36.7008 163.184Z" fill="#006D8D"/>
<path d="M53.1045 155.889C52.2875 155.181 51.2244 155.833 50.6956 156.538C49.8392 157.681 49.2331 159.295 49.1106 160.71C49.1076 160.745 49.1338 160.759 49.161 160.758C49.1934 160.877 49.3306 160.978 49.4539 160.897C50.6418 160.113 52.0093 159.422 52.9212 158.296C53.4533 157.639 53.8773 156.559 53.1045 155.889ZM51.0117 159.339C50.4369 159.739 49.8458 160.109 49.2857 160.53C49.5971 159.717 49.872 158.895 50.265 158.114C50.4527 157.741 50.6525 157.362 50.8895 157.018C51.2586 156.482 52.9017 155.144 53.0265 156.936C53.0953 157.924 51.6969 158.863 51.0117 159.339Z" fill="#006D8D"/>
<path d="M45.0123 161.23C46.4387 161.481 47.9243 161.106 49.3352 160.918C49.4816 160.898 49.5181 160.732 49.4647 160.621C49.4861 160.604 49.4964 160.576 49.4713 160.552C48.4505 159.564 46.934 158.744 45.5385 158.444C44.6767 158.258 43.4472 158.464 43.2948 159.534C43.1509 160.547 44.1795 161.084 45.0123 161.23ZM44.0404 160.273C42.9588 158.838 45.0774 158.771 45.7071 158.933C46.1119 159.037 46.5111 159.192 46.8975 159.35C47.7068 159.681 48.4531 160.122 49.2215 160.53C48.5226 160.58 47.8341 160.689 47.1382 160.764C46.308 160.855 44.6366 161.064 44.0404 160.273Z" fill="#006D8D"/>
<path d="M34.1279 156.328L51.9645 158.229C51.9645 158.229 75.5334 120.533 75.4264 109.255C75.3712 103.422 58.2577 85.1284 58.2577 85.1284L58.0505 77.1074H45.3424C45.3424 77.1074 39.606 87.5472 41.7459 92.9123C43.9462 98.429 55.9536 110.337 56.5067 112.031C57.2358 114.267 34.1279 156.328 34.1279 156.328Z" fill="#006D8D"/>
<path d="M36.9436 152.927C37.425 152.898 37.9291 152.963 38.4112 152.987C38.9551 153.013 39.4976 153.038 40.0407 153.08C41.0844 153.161 42.1251 153.268 43.165 153.389C45.2615 153.633 47.3558 153.903 49.4428 154.22C50.6303 154.401 51.816 154.592 52.9984 154.803C53.0447 154.812 53.0341 154.882 52.9877 154.878C50.9008 154.703 48.8183 154.486 46.7346 154.275C44.6554 154.066 42.5681 153.856 40.4985 153.566C39.9042 153.483 39.3088 153.406 38.7178 153.3C38.1341 153.195 37.5137 153.154 36.9425 152.999C36.9079 152.989 36.9009 152.93 36.9436 152.927Z" fill="#37474F"/>
<path d="M75.428 109.257C75.4703 114.032 71.27 123.547 66.4102 132.931L45.3418 77.1094H58.0514L58.2597 85.1292C58.2597 85.1292 75.3702 103.423 75.428 109.257Z" fill="#37474F"/>
<path d="M62.4937 145.972C62.4937 145.972 60.9742 161.91 60.9746 161.921C61.0902 164.955 61.0732 169.117 61.6492 169.599C62.5754 170.176 86.9348 170.311 87.7786 170.018C88.6261 169.729 87.8552 167.297 86.9065 166.554C85.9504 165.811 76.6238 161.737 76.6238 161.737L77.9931 145.812L62.4937 145.972Z" fill="#AD6359"/>
<path d="M87.7806 170.018C86.9368 170.311 62.577 170.176 61.6482 169.598C61.0741 169.116 61.0892 164.954 60.9736 161.921C60.9736 161.918 61.0546 161.054 61.1816 159.732H76.7969L76.6236 161.736C76.6236 161.736 85.9498 165.81 86.9055 166.553C87.8538 167.297 88.6244 169.729 87.7806 170.018Z" fill="#EBEBEB"/>
<path d="M87.8519 170.101C86.9948 170.385 62.4875 170.301 61.555 169.707C61.2002 169.484 61.0041 165.914 60.8896 161.594L76.6905 161.601C76.6905 161.601 86.0594 165.83 87.0121 166.591C87.9597 167.353 88.709 169.817 87.8519 170.101Z" fill="#F37435"/>
<path d="M87.5036 169.121C83.396 169.006 66.8168 168.93 62.7475 169.129C62.7144 169.13 62.7144 169.153 62.7475 169.155C66.8165 169.358 83.3956 169.299 87.5036 169.188C87.5901 169.185 87.5901 169.123 87.5036 169.121Z" fill="#006D8D"/>
<path d="M85.4386 165.706C84.4645 165.663 83.5106 166.123 82.9774 166.701C82.4652 167.257 82.0258 168.039 82.0519 168.891C82.0526 168.916 82.0979 168.917 82.1016 168.891C82.3415 167.285 83.8087 165.877 85.4386 165.758C85.4713 165.755 85.4721 165.707 85.4386 165.706Z" fill="#006D8D"/>
<path d="M78.2827 162.017C76.6385 161.988 74.73 162.562 73.7037 163.903C73.6639 163.955 73.7382 164.011 73.7872 163.986C75.2761 163.225 76.6911 162.659 78.3099 162.219C78.4244 162.188 78.4004 162.019 78.2827 162.017Z" fill="#006D8D"/>
<path d="M79.5493 162.517C77.9051 162.488 75.9966 163.062 74.9703 164.403C74.9305 164.455 75.0048 164.511 75.0538 164.486C76.5427 163.725 77.9577 163.159 79.5769 162.719C79.691 162.688 79.667 162.518 79.5493 162.517Z" fill="#006D8D"/>
<path d="M80.8178 163.015C79.1736 162.986 77.2652 163.56 76.2388 164.901C76.1991 164.953 76.2734 165.009 76.3224 164.984C77.8113 164.223 79.2262 163.657 80.8454 163.217C80.9595 163.186 80.9356 163.017 80.8178 163.015Z" fill="#006D8D"/>
<path d="M82.0854 163.515C80.4412 163.486 78.5327 164.06 77.5064 165.401C77.4666 165.453 77.541 165.509 77.5899 165.484C79.0789 164.723 80.4938 164.157 82.113 163.717C82.2271 163.686 82.2032 163.517 82.0854 163.515Z" fill="#006D8D"/>
<path d="M63.8073 165.23C61.9625 165.229 61.9581 168.097 63.8058 168.098C65.651 168.099 65.6554 165.232 63.8073 165.23Z" fill="#006D8D"/>
<path d="M80.0739 157.635C79.2441 156.942 78.1931 157.613 77.6775 158.328C76.8425 159.486 76.2659 161.11 76.1691 162.527C76.1669 162.562 76.193 162.576 76.2202 162.575C76.2548 162.693 76.3939 162.792 76.5154 162.708C77.6889 161.902 79.0432 161.186 79.9344 160.045C80.4552 159.378 80.8589 158.29 80.0739 157.635ZM78.0448 161.123C77.4773 161.533 76.8929 161.913 76.3409 162.344C76.6372 161.526 76.897 160.699 77.2757 159.911C77.4567 159.535 77.6492 159.152 77.8803 158.804C78.2394 158.262 79.8579 156.893 80.0154 158.683C80.1023 159.669 78.7212 160.634 78.0448 161.123Z" fill="#006D8D"/>
<path d="M72.0819 163.122C73.5127 163.347 74.991 162.944 76.3986 162.731C76.5447 162.709 76.5781 162.541 76.5226 162.431C76.5436 162.414 76.5535 162.386 76.5277 162.362C75.4889 161.393 73.9576 160.601 72.5566 160.326C71.6918 160.156 70.466 160.384 70.3336 161.458C70.2084 162.473 71.2466 162.991 72.0819 163.122ZM71.0924 162.183C69.9847 160.769 72.1018 160.662 72.7344 160.812C73.141 160.909 73.5433 161.057 73.9322 161.208C74.7473 161.525 75.5017 161.951 76.2775 162.346C75.5798 162.408 74.8934 162.53 74.1987 162.618C73.3703 162.723 71.7029 162.963 71.0924 162.183Z" fill="#006D8D"/>
<path d="M52.2798 94.7022C52.2839 94.7136 64.2354 117.662 64.5953 119.378C65.1506 122.027 59.5975 159.433 59.5975 159.433L78.6905 159.547C78.6905 159.547 83.5024 123.864 82.3392 116.816C81.3055 110.554 65.9142 85.3076 65.3107 83.8805C64.5821 82.1575 64.1092 79.3953 63.8049 77.1074H45.7688C45.7688 77.1074 44.9106 86.4038 49.1386 93.1272C49.1386 93.1272 51.0533 94.013 52.2798 94.7022Z" fill="#006D8D"/>
<path d="M60.6126 155.913C62.818 155.849 65.1055 155.784 67.3117 155.839C69.4991 155.894 71.6931 155.927 73.8779 156.057C75.1173 156.131 76.3542 156.172 77.591 156.295C77.6322 156.299 77.6304 156.359 77.5895 156.361C75.3852 156.489 73.1724 156.464 70.9652 156.443C68.7745 156.424 66.586 156.4 64.3971 156.3C63.1577 156.242 61.9212 156.18 60.6832 156.094C60.5497 156.085 60.479 155.917 60.6126 155.913Z" fill="#37474F"/>
<path d="M57.0011 95.1618C56.0502 95.1449 55.1022 95.0801 54.166 94.9046C53.2206 94.7276 52.3378 94.4137 51.4189 94.1428C50.5471 93.8859 49.6197 93.8462 48.7255 93.7023C47.8184 93.5566 46.9131 93.3192 46.0855 92.9159C46.0465 92.8968 46.0137 92.9553 46.0527 92.9755C46.8741 93.3961 47.701 93.7943 48.5831 94.0725C49.4884 94.3581 50.4345 94.3971 51.3534 94.6219C52.2984 94.8531 53.2085 95.1603 54.1804 95.2726C55.1224 95.3815 56.0748 95.3782 57.0117 95.2247C57.0485 95.2188 57.0357 95.1625 57.0011 95.1618Z" fill="#37474F"/>
<path d="M52.2793 94.7031C56.3508 102.367 60.3459 110.076 64.1186 117.893C64.3346 118.366 64.5565 118.798 64.7497 119.32C64.8969 120.372 64.7195 121.387 64.6573 122.432C64.477 124.47 64.218 126.496 63.9622 128.523C63.4437 132.575 62.86 136.618 62.2289 140.653C62.7386 136.601 63.2446 132.548 63.7149 128.493C63.9475 126.465 64.1613 124.435 64.3405 122.405C64.3979 121.424 64.5558 120.376 64.4292 119.408C64.2632 118.974 64.0229 118.494 63.8102 118.041C60.3668 111.035 55.6424 101.665 52.2793 94.7031Z" fill="#37474F"/>
<path d="M53.2856 91.2485C53.3146 90.0359 53.4074 86.2061 53.432 85.504C53.4442 85.1529 53.563 83.1271 53.7014 83.1253C54.419 83.1175 55.159 83.2886 55.8719 83.3692C56.5799 83.4495 57.2901 83.5161 58.0015 83.5698C59.4404 83.678 60.8855 83.7244 62.3299 83.7207C62.5466 83.7199 62.5466 84.0213 62.3299 84.0246C60.8682 84.0482 59.4072 84.0151 57.9492 83.9301C57.2382 83.8885 54.4926 83.6739 53.8685 83.5216C53.8442 83.8097 53.8836 84.8828 53.8828 85.1239C54.1835 85.1518 54.4819 85.2424 54.7774 85.3005C55.1094 85.3656 55.4428 85.4245 55.7777 85.4768C56.471 85.5853 57.1698 85.6685 57.8708 85.7266C59.2207 85.8381 60.5896 85.8786 61.945 85.8194C61.9884 85.8175 61.9869 85.8757 61.945 85.8794C60.551 86.0067 59.164 86.0302 57.7696 85.9121C57.1172 85.8569 56.4688 85.7763 55.8244 85.6703C55.4737 85.6126 55.1245 85.5478 54.7771 85.4764C54.4823 85.4157 54.1651 85.3682 53.8832 85.2644C53.8832 85.3115 53.8832 85.3586 53.8828 85.4057C53.8799 86.0759 53.8107 90.0168 53.7952 91.3169C54.4676 91.7398 57.7649 93.8079 58.2054 93.6383C59.0422 93.3159 61.9597 91.8708 62.8006 91.5311C62.841 90.3664 62.8418 89.2006 62.795 88.0366C62.7708 87.4382 62.7351 86.8395 62.6891 86.2422C62.6431 85.6409 62.54 85.0079 62.593 84.4066C62.5974 84.3562 62.6788 84.3242 62.7082 84.3779C62.7226 84.4044 62.7369 84.4309 62.7516 84.457C62.7601 84.4725 62.7553 84.4857 62.7468 84.4964C62.9257 85.0205 62.9813 85.6045 63.0457 86.1462C63.1189 86.7585 63.1763 87.3723 63.2194 87.9873C63.3055 89.216 63.3331 90.4473 63.3069 91.6787C63.3055 91.7541 63.2609 91.8439 63.1807 91.8781C61.9126 92.4143 58.4059 94.0766 58.1027 94.092C57.519 94.1215 53.4839 91.7111 53.3823 91.6202C53.2576 91.5098 53.2819 91.4001 53.2856 91.2485Z" fill="#37474F"/>
<path d="M48.4323 89.6837C48.6626 88.6673 49.3898 85.4565 49.519 84.867C49.5837 84.5722 49.9297 82.8654 49.8538 82.8474C49.459 82.7539 49.0155 82.8076 48.606 82.7892C48.1986 82.7708 47.793 82.7407 47.3893 82.6994C46.5728 82.6159 45.7654 82.4805 44.9683 82.3027C44.8487 82.2762 44.7876 82.5276 44.9065 82.5567C45.7087 82.7528 46.5223 82.9018 47.3445 83.0067C47.7456 83.0579 49.3055 83.2102 49.6809 83.1583C49.6356 83.4019 49.3961 84.2936 49.3475 84.4953C49.1756 84.482 48.9924 84.5218 48.8176 84.5347C48.621 84.549 48.4249 84.5578 48.2295 84.5611C47.8247 84.5681 47.4217 84.5534 47.0228 84.517C46.2548 84.4474 45.4905 84.3153 44.7545 84.1023C44.7309 84.0953 44.7199 84.1442 44.7423 84.1527C45.4861 84.4272 46.2474 84.6145 47.0416 84.6841C47.4129 84.7168 47.7875 84.7279 48.1651 84.7168C48.3704 84.7109 48.5765 84.6988 48.783 84.6815C48.9581 84.6664 49.1429 84.6649 49.3199 84.6123C49.3103 84.6517 49.3007 84.6911 49.2912 84.7304C49.1569 85.2905 48.394 88.5911 48.1382 89.6793C47.6812 89.9516 45.4401 91.2808 45.231 91.0862C44.8343 90.7159 43.5169 89.156 43.1217 88.7711C43.3358 87.7933 43.5725 86.8192 43.8348 85.8525C43.9699 85.3553 44.1112 84.8596 44.258 84.3661C44.4056 83.8693 44.5914 83.353 44.6842 82.8444C44.6919 82.8017 44.6536 82.7649 44.6264 82.8065C44.6132 82.8268 44.5995 82.847 44.5863 82.8676C44.5786 82.8794 44.5782 82.8912 44.5811 82.9007C44.3758 83.3169 44.2264 83.7983 44.0807 84.2428C43.9158 84.7455 43.7594 85.2515 43.6104 85.7601C43.313 86.7761 43.0477 87.8014 42.8118 88.8336C42.7974 88.8969 42.8037 88.9771 42.8409 89.0154C43.4322 89.6164 45.0305 91.4288 45.195 91.4784C45.5111 91.5734 48.2295 90.0473 48.3038 89.9836C48.3947 89.9056 48.4032 89.811 48.4323 89.6837Z" fill="#37474F"/>
<path d="M50.5803 87.5702C50.8415 85.7912 51.1157 84.012 51.462 82.2474C51.6614 81.231 51.8694 80.216 52.1027 79.2066C52.1111 79.1698 52.1693 79.175 52.1626 79.2136C51.844 80.9984 51.5267 82.7832 51.2276 84.5713C50.9306 86.3462 50.6951 88.1273 50.4434 89.9088C50.2987 90.9333 50.1629 91.9589 50.0191 92.9834C50.0135 93.0217 49.9565 93.0151 49.9591 92.9764C50.0945 91.1662 50.3168 89.3664 50.5803 87.5702Z" fill="#37474F"/>
<path d="M61.0238 59.0009C60.9557 59.4002 61.6969 62.4903 63.3912 63.1122C63.9432 63.3139 65.1782 60.3493 65.1782 60.3493L65.3195 60.1513L67.2938 57.3781L64.6692 53.5557L64.278 53.0312C64.278 53.0312 63.7879 53.8258 63.1877 54.8208C63.1597 54.8668 63.1314 54.9128 63.1023 54.9625C63.067 55.0177 63.0327 55.07 63.0022 55.123C62.9105 55.2705 62.8178 55.4214 62.7284 55.5738C62.6599 55.6893 62.5926 55.8016 62.5253 55.9256C62.4542 56.0485 62.388 56.1688 62.317 56.2917C61.6435 57.5175 61.0547 58.8324 61.0238 59.0009Z" fill="#AD6359"/>
<path d="M63.1879 54.8208C63.0389 57.6268 64.5668 59.44 65.3197 60.1513L67.294 57.3781L64.6695 53.5556L64.2783 53.0312C64.2783 53.0312 63.7881 53.8258 63.1879 54.8208Z" fill="#263238"/>
<path d="M73.6658 53.0883C73.4273 59.0579 69.8371 59.6493 68.5373 59.536C67.3722 59.4344 63.396 59.1761 63.0166 53.2137C62.6372 47.2514 65.4881 45.4754 68.1664 45.4438C70.8454 45.4121 73.9046 47.1186 73.6658 53.0883Z" fill="#AD6359"/>
<path d="M73.1563 51.7626C73.019 51.731 72.8972 51.6791 72.7644 51.6338C72.6146 51.5827 72.4898 51.5573 72.3897 51.4259C72.336 51.3556 72.3551 51.2264 72.4184 51.1679C72.5664 51.0314 72.7655 51.0483 72.9484 51.1024C73.1467 51.1613 73.2847 51.2573 73.4014 51.4281C73.5143 51.5937 73.3381 51.8042 73.1563 51.7626Z" fill="#263238"/>
<path d="M69.0136 52.1318C69.145 52.183 69.2749 52.2084 69.4103 52.2459C69.563 52.2878 69.68 52.3372 69.8368 52.2849C69.9207 52.2569 69.9774 52.1395 69.9579 52.0553C69.9126 51.8591 69.7386 51.7612 69.5568 51.7031C69.3595 51.6402 69.1913 51.642 68.9989 51.7174C68.813 51.7907 68.8403 52.0645 69.0136 52.1318Z" fill="#263238"/>
<path d="M69.8706 53.0961C69.8688 53.0802 69.8375 53.1123 69.8364 53.1292C69.8143 53.5355 69.7201 53.9973 69.3418 54.1C69.33 54.1029 69.3297 54.1235 69.3433 54.1228C69.7963 54.0985 69.9148 53.4847 69.8706 53.0961Z" fill="#263238"/>
<path d="M69.5451 52.6409C68.8978 52.5349 68.7333 53.8376 69.3332 53.9359C69.9234 54.0327 70.0879 52.7299 69.5451 52.6409Z" fill="#263238"/>
<path d="M69.2815 52.6772C69.1582 52.7365 69.0305 52.8528 68.8918 52.8487C68.7309 52.8443 68.6283 52.6927 68.541 52.5484C68.5322 52.5333 68.5193 52.5433 68.5168 52.5606C68.4814 52.8097 68.5451 53.078 68.8082 53.149C69.0482 53.2138 69.2513 53.0147 69.3451 52.7718C69.3628 52.7269 69.3308 52.6533 69.2815 52.6772Z" fill="#263238"/>
<path d="M72.2101 53.1558C72.2153 53.1407 72.2392 53.179 72.2362 53.1955C72.1693 53.597 72.1604 54.0681 72.5071 54.2506C72.5177 54.2561 72.5141 54.2764 72.5008 54.2727C72.0644 54.1505 72.0824 53.5256 72.2101 53.1558Z" fill="#263238"/>
<path d="M72.6271 52.7838C73.2821 52.8217 73.1584 54.1288 72.5516 54.0938C71.9544 54.0596 72.078 52.7521 72.6271 52.7838Z" fill="#263238"/>
<path d="M72.8911 52.8949C72.9879 52.9741 73.0781 53.1095 73.201 53.1294C73.343 53.1522 73.4623 53.0208 73.5664 52.8938C73.5771 52.8806 73.5867 52.8927 73.5856 52.91C73.5686 53.1606 73.4615 53.4131 73.2168 53.4385C72.9938 53.4617 72.8532 53.232 72.8172 52.9774C72.8102 52.9299 72.8521 52.8633 72.8911 52.8949Z" fill="#263238"/>
<path d="M69.4714 56.2109C69.5512 56.3213 69.6248 56.467 69.768 56.5045C69.9056 56.5402 70.08 56.5056 70.2162 56.478C70.2295 56.4751 70.2401 56.4909 70.2302 56.5016C70.0996 56.6374 69.864 56.6959 69.6837 56.6315C69.5078 56.5686 69.4453 56.396 69.4298 56.2226C69.4276 56.1983 69.46 56.195 69.4714 56.2109Z" fill="#263238"/>
<path d="M71.328 54.9427C71.328 54.9427 71.3424 55.5558 71.31 55.8407C71.3071 55.8672 71.2368 55.8719 71.1393 55.8668C71.1345 55.8679 71.1319 55.8694 71.1279 55.8657C70.6163 55.8867 70.1298 55.6552 69.8711 55.2099C69.8546 55.1797 69.894 55.1547 69.9182 55.1753C70.262 55.494 70.6686 55.6125 71.1135 55.6706C71.1426 55.5941 71.0539 54.6215 71.0992 54.6233C71.2563 54.6277 71.5511 54.7687 71.7292 54.8437C71.7362 53.5657 71.5382 52.2968 71.5643 51.0243C71.5661 50.9786 71.632 50.9727 71.6408 51.0143C71.9426 52.3296 71.9665 53.8005 71.9934 55.1205C71.9982 55.2853 71.4362 55.0042 71.328 54.9427Z" fill="#263238"/>
<path d="M70.7133 46.9357C70.7133 46.9357 70.8068 47.8616 70.4005 48.4556C69.5659 49.6762 68.0373 49.0793 67.4146 49.5158C66.8306 49.9254 66.8486 50.9668 66.3124 51.3841C65.5702 51.9615 64.7466 51.5622 64.57 52.002C64.3933 52.4418 63.8638 53.8468 63.2562 53.9406C62.6486 54.0341 61.5089 43.9535 69.0261 45.4505C69.0261 45.4505 70.1312 45.1885 71.6135 46.2575C73.2492 47.4373 73.5617 50.4969 73.5617 50.4969C73.5617 50.4969 73.53 50.4509 73.3074 50.1808C72.9931 49.7995 72.8989 49.4779 72.6645 49.2262C72.2957 48.8306 72.0455 48.9189 71.6591 48.5292C71.0692 47.9356 70.7133 46.9357 70.7133 46.9357Z" fill="#263238"/>
<path d="M70.6637 46.498C70.7215 46.8955 70.7369 47.2992 70.7023 47.6955C70.6714 48.0878 70.5875 48.4915 70.3634 48.8003C70.1393 49.0994 69.7617 49.2683 69.3889 49.3419C69.0081 49.4181 68.6055 49.3935 68.194 49.488C67.9916 49.5425 67.7859 49.6264 67.627 49.7909C67.4713 49.9528 67.387 50.1527 67.3127 50.34C67.1714 50.7172 67.029 51.0885 66.7279 51.3262C66.4313 51.5643 66.0302 51.6729 65.6468 51.5941C65.2655 51.5349 64.8611 51.3608 64.4629 51.4705C64.8688 51.3935 65.2364 51.5919 65.6294 51.6854C66.0302 51.7877 66.477 51.6927 66.8163 51.4421C67.1728 51.1912 67.3274 50.7661 67.472 50.4051C67.5467 50.2218 67.6288 50.0448 67.7558 49.9182C67.8783 49.7935 68.0579 49.7177 68.2397 49.6728C68.6091 49.5804 69.0184 49.597 69.4228 49.5116C69.6248 49.47 69.8254 49.4019 70.0087 49.3C70.1886 49.2014 70.3704 49.0682 70.4834 48.8849C70.7182 48.5261 70.7815 48.1036 70.7958 47.7007C70.7991 47.2937 70.7516 46.8903 70.6637 46.498Z" fill="#263238"/>
<path d="M70.7539 46.8652C70.7697 47.2395 70.8408 47.6097 70.9559 47.9711C71.0685 48.3317 71.2754 48.6828 71.5834 48.9286C71.7368 49.0537 71.9216 49.1347 72.0743 49.2153C72.2204 49.2951 72.3687 49.4184 72.4397 49.5549C72.5159 49.711 72.581 49.902 72.698 50.0554C72.8158 50.2089 72.9674 50.3303 73.1341 50.4128C72.9906 50.2943 72.8596 50.1633 72.7757 50.0039C72.6808 49.8493 72.6406 49.6786 72.5722 49.4939C72.4883 49.2892 72.3286 49.1696 72.1622 49.0607C71.9919 48.9625 71.8332 48.8944 71.7004 48.781C71.4266 48.5599 71.2349 48.2544 71.0984 47.9166C70.9559 47.581 70.8518 47.2248 70.7539 46.8652Z" fill="#263238"/>
<path d="M64.4234 53.4204C64.4234 53.4204 63.1067 51.5645 62.2636 52.0356C61.4209 52.5062 62.4196 55.2026 63.4158 55.5654C64.4116 55.9283 64.7656 55.0131 64.7656 55.0131L64.4234 53.4204Z" fill="#AD6359"/>
<path d="M62.5696 52.8009C62.5534 52.7994 62.5508 52.8218 62.5645 52.8273C63.2629 53.1048 63.6339 53.7481 63.8955 54.416C63.6865 54.1595 63.4035 54.0204 63.0598 54.2692C63.0417 54.2824 63.0594 54.3104 63.0789 54.3063C63.3637 54.243 63.5698 54.2913 63.7641 54.5183C63.9018 54.6791 63.9963 54.883 64.0957 55.0692C64.1285 55.131 64.2411 55.0972 64.2168 55.0254C64.2149 55.0203 64.2127 55.0147 64.2109 55.0092C64.2227 54.1216 63.5238 52.8837 62.5696 52.8009Z" fill="#263238"/>
<path d="M65.8287 77.4012L64.0439 82.9731L43.3652 79.2515C43.3652 79.2515 51.0458 62.9944 57.9682 59.1031C61.4307 57.1568 64.3677 58.3414 65.6509 60.9067C65.9755 61.5559 69.2125 69.6522 68.8724 72.7696C68.5666 75.5178 65.8287 77.4012 65.8287 77.4012Z" fill="#455A64"/>
<path d="M64.4381 59.3038L59.5268 58.4199C59.664 58.3776 59.8009 58.3393 59.9327 58.3047L64.1301 59.0602C64.2387 59.1342 64.3365 59.2188 64.4381 59.3038ZM65.4247 60.4991L57.8976 59.1445C57.8145 59.1883 57.7346 59.2365 57.654 59.2891L65.5421 60.7088C65.5083 60.6396 65.4667 60.5694 65.4247 60.4991ZM66.0338 61.8143L56.5029 60.0991C56.4352 60.1498 56.3675 60.2003 56.3031 60.2558L66.1177 62.0222C66.089 61.9501 66.0603 61.8776 66.0338 61.8143ZM66.5368 63.1148L55.3393 61.0996C55.2837 61.1523 55.2282 61.2053 55.1726 61.2583L66.6134 63.3172C66.588 63.2499 66.5622 63.1825 66.5368 63.1148ZM66.9998 64.4043L54.3177 62.122C54.2662 62.1757 54.2188 62.2298 54.1672 62.2831L67.0723 64.6056C67.0509 64.539 67.0252 64.4716 66.9998 64.4043ZM67.4384 65.689L53.3816 63.1593C53.3341 63.2138 53.2859 63.2719 53.2384 63.3264L67.5061 65.894C67.4855 65.8229 67.4601 65.7556 67.4384 65.689ZM67.844 66.9718L52.5098 64.2122C52.4663 64.267 52.4229 64.3222 52.3795 64.3771L67.9003 67.1702C67.883 67.1047 67.8616 67.0377 67.844 66.9718ZM68.2057 68.2429L51.6913 65.2709C51.6479 65.3261 51.6045 65.381 51.5651 65.4365L68.258 68.4405C68.2407 68.3746 68.223 68.3088 68.2057 68.2429ZM68.5185 69.5051L50.9049 66.3352C50.8655 66.3908 50.8262 66.4467 50.786 66.5063L68.5616 69.7053C68.5487 69.6402 68.5321 69.5703 68.5185 69.5051ZM68.7617 70.7589L50.1546 67.4101C50.1152 67.466 50.0799 67.5224 50.0405 67.5779L68.7893 70.9521C68.7805 70.8877 68.7713 70.8233 68.7617 70.7589ZM68.8924 71.988L49.4336 68.4861C49.3983 68.5424 49.3589 68.5984 49.3236 68.6547L68.8961 72.1772C68.899 72.115 68.8935 72.0513 68.8924 71.988ZM48.7367 69.5666C48.7006 69.6273 48.6612 69.6829 48.6263 69.7392L68.7662 73.3636C68.7853 73.3044 68.796 73.2433 68.8077 73.1785L48.7367 69.5666ZM48.0595 70.6548C48.0242 70.7111 47.9889 70.7677 47.9576 70.8248L68.3492 74.4945C68.3805 74.4374 68.4077 74.3793 68.4305 74.3208L48.0595 70.6548ZM47.4071 71.7433C47.3717 71.7996 47.3364 71.8563 47.3051 71.9133L67.6765 75.5793C67.7159 75.5238 67.7593 75.4686 67.7987 75.413L47.4071 71.7433ZM46.7671 72.8341C46.7311 72.8944 46.6998 72.9518 46.6685 73.0089L66.7517 76.6234C66.8025 76.574 66.8588 76.517 66.9151 76.4603L46.7671 72.8341ZM46.1426 73.9314C46.1113 73.9888 46.0801 74.0459 46.0488 74.1029L65.7508 77.6486L65.8078 77.4705L46.1426 73.9314ZM45.5387 75.0288C45.5075 75.0859 45.4762 75.1433 45.4449 75.2003L65.3824 78.7883L65.4394 78.6102L45.5387 75.0288ZM44.9474 76.128C44.9153 76.1891 44.8841 76.2465 44.8528 76.3036L65.0173 79.9324L65.0751 79.7503L44.9474 76.128ZM44.3714 77.2346C44.3402 77.2916 44.3089 77.3491 44.282 77.4068L64.6534 81.0728L64.7104 80.8947L44.3714 77.2346ZM43.8084 78.339C43.7804 78.4008 43.7492 78.4582 43.7227 78.5119L64.2887 82.2133L64.3417 82.0344L43.8084 78.339Z" fill="#37474F"/>
<path d="M60.708 62.8215C59.3316 66.4871 56.8977 78.0905 58.4672 81.4758C60.0205 84.8271 69.1385 90.5595 72.3025 92.4815C73.3079 93.0921 78.1464 83.4254 76.0815 82.4731C73.4154 81.2432 68.2214 77.6927 67.1531 76.5803C66.4234 75.8207 66.1183 68.4125 65.5696 62.9242C65.1114 58.3466 62.4515 58.1777 60.708 62.8215Z" fill="#AD6359"/>
<path d="M87.0859 95.1391C86.4525 96.0488 85.3574 95.7062 85.3574 95.7062C85.3574 95.7062 85.339 96.5908 84.7332 97.1877C84.0396 97.8711 82.6636 97.0832 82.6636 97.0832C82.6636 97.0832 82.4594 97.9749 81.7565 98.5409C81.0267 99.1282 79.5253 98.5313 79.5253 98.5313C79.5253 98.5313 78.8787 99.2574 77.9201 99.3107C76.281 99.4016 74.8362 97.353 73.9048 96.0595C72.9731 94.7663 71.5419 90.2255 71.1816 89.388L75.4571 82.3242C75.4571 82.3242 79.4388 83.3068 82.4619 85.2988C84.4499 86.6085 85.7876 88.9593 86.1364 89.6239C86.8776 91.0359 87.7968 94.1179 87.0859 95.1391Z" fill="#AD6359"/>
<path d="M85.4477 95.5507C85.0201 93.8604 84.1163 92.3888 83.2975 90.8686C83.2791 90.8347 83.2264 90.8638 83.2452 90.8977C84.0772 92.4002 84.6002 94.0485 85.3704 95.5808C85.3917 95.6232 85.4595 95.5963 85.4477 95.5507Z" fill="#263238"/>
<path d="M82.7523 96.977C82.6441 96.5976 82.4108 96.255 82.2084 95.9201C81.9906 95.5595 81.7661 95.2033 81.5365 94.8504C81.0765 94.1434 80.6003 93.4472 80.1042 92.7653C80.0821 92.7351 80.0306 92.7612 80.0519 92.794C80.509 93.4994 80.9558 94.2111 81.383 94.935C81.5968 95.2971 81.8073 95.6614 82.0156 96.0269C82.2092 96.3669 82.3854 96.7415 82.6515 97.0322C82.6905 97.0753 82.7685 97.0341 82.7523 96.977Z" fill="#263238"/>
<path d="M79.5068 98.5004C79.4258 98.167 79.1572 97.8549 78.9665 97.5752C78.7502 97.2576 78.5356 96.9386 78.3229 96.6188C77.8975 95.9788 77.4725 95.3385 77.0695 94.6842C77.0496 94.6518 76.997 94.6802 77.0172 94.7129C77.4232 95.3801 77.8199 96.0524 78.2317 96.7159C78.4337 97.0416 78.6379 97.3666 78.8436 97.6897C79.0184 97.9649 79.2061 98.3285 79.4751 98.5232C79.4902 98.5339 79.5108 98.5169 79.5068 98.5004Z" fill="#263238"/>
<path d="M66.9809 74.1008L56.9434 76.3923C56.9434 76.3923 58.5559 67.688 60.3492 62.6666C62.1425 57.6453 64.8785 57.851 65.9472 62.7575C67.0159 67.6644 66.9809 74.1008 66.9809 74.1008Z" fill="#37474F"/>
<path d="M66.1915 72.0593C65.8515 72.144 65.4942 72.1778 65.1512 72.236C64.8057 72.2945 64.4597 72.3652 64.1153 72.4351C63.4496 72.5698 62.7831 72.703 62.1167 72.8332C60.7654 73.0975 59.4086 73.3297 58.0657 73.6704C58.0459 73.6756 58.0477 73.7109 58.0679 73.7095C59.4229 73.6138 60.7786 73.3599 62.1266 73.0908C62.8037 72.9558 63.4794 72.8119 64.1547 72.6577C64.4969 72.5793 64.8402 72.4976 65.1806 72.4027C65.5188 72.3085 65.8607 72.1808 66.2 72.1068C66.2287 72.1009 66.2202 72.052 66.1915 72.0593Z" fill="#263238"/>
<path d="M122.874 42.9365L122.643 42.8776L122.452 43.0199C120.949 44.1388 119.091 44.7989 117.077 44.7989C112.095 44.7989 108.054 40.7576 108.054 35.7754C108.054 30.7928 112.095 26.7516 117.077 26.752H117.077C122.059 26.752 126.101 30.7932 126.101 35.7754C126.101 37.3127 125.717 38.7634 125.034 40.0308L124.917 40.2474L125.017 40.472L126.537 43.8718L122.874 42.9365Z" fill="white" stroke="#006D8D"/>
<path d="M107.554 35.7751C107.709 43.7231 116.417 47.8959 122.784 43.2933L127.456 44.4551L127.269 44.6777L125.313 40.3401L125.277 40.2613C128.217 34.9743 125.238 28.1111 119.368 26.645C113.482 25.0379 107.522 29.6865 107.554 35.7751ZM107.554 35.7751C107.577 27.6673 117.034 23.2285 123.297 28.3889C126.758 31.1872 127.822 36.4533 125.63 40.3515L125.636 40.1951L127.564 44.5456L127.7 44.8529L127.376 44.7682L122.718 43.5476C116.777 48.0622 107.601 43.8217 107.554 35.7751Z" fill="#263238"/>
<path d="M115.645 41.8645L111.377 37.5442L112.811 36.1278L115.304 38.6512L120.483 30.5312L122.183 31.615L115.645 41.8645Z" fill="#F37435"/>
</svg>
