<svg width="82" height="36" viewBox="0 0 82 36" fill="none" xmlns="http://www.w3.org/2000/svg">
<path d="M46.3361 34.6007C46.3361 35.1131 45.9207 35.5284 45.4078 35.5284H41.313C40.8006 35.5284 40.3853 35.1131 40.3853 34.6007V30.1992C40.3853 29.6868 40.8006 29.2715 41.313 29.2715H45.4078C45.9207 29.2715 46.3361 29.6868 46.3361 30.1992V34.6007Z" fill="#666666"/>
<path d="M80.5572 34.6007C80.5572 35.1131 80.1419 35.5284 79.6295 35.5284H75.5342C75.0218 35.5284 74.6064 35.1131 74.6064 34.6007V30.1992C74.6064 29.6868 75.0218 29.2715 75.5342 29.2715H79.6295C80.1419 29.2715 80.5572 29.6868 80.5572 30.1992V34.6007Z" fill="#5B5B5B"/>
<path d="M60.5807 5C56.8096 5.00938 53.0491 5.05902 51.5163 5.15168C49.8087 5.25428 48.598 6.22448 47.7993 7.95142C46.6741 10.3833 45.9367 13.5536 44.4988 14.713C41.3918 17.2171 39.6158 18.6953 39.3494 21.4316C38.9258 25.7829 39.3494 31.5472 39.3494 31.5472H60.5807V5Z" fill="#E84C43"/>
<path d="M60.5801 5C64.3511 5.00938 68.1117 5.05902 69.6444 5.15168C71.3521 5.25428 72.5628 6.22448 73.3614 7.95142C74.4866 10.3833 75.2241 13.5536 76.662 14.713C79.7689 17.2171 81.545 18.6953 81.8114 21.4316C82.235 25.7829 81.8114 31.5472 81.8114 31.5472H60.5801V5Z" fill="#006D8D"/>
<path d="M60.5801 6.3125C56.3778 6.32077 52.2356 6.3831 51.7265 6.46473C49.807 6.7725 49.2141 8.08135 48.7778 9.17069C47.8892 11.3896 47.6686 13.1844 47.3862 14.0934H60.5801V6.3125Z" fill="#F2F2F2"/>
<path d="M60.5801 6.3125C64.7824 6.32077 68.9247 6.3831 69.4338 6.46473C71.3532 6.7725 71.9461 8.08135 72.3824 9.17069C73.271 11.3896 73.4916 13.1844 73.774 14.0934H60.5801V6.3125Z" fill="#B2B2B2"/>
<path d="M42.5279 23.508C41.9499 23.508 40.673 23.5047 41.0922 21.5091C41.4414 19.85 41.7585 19.4198 42.6399 19.3707C44.3834 19.2731 47.1666 19.1584 48.5582 20.2979C49.9492 21.4374 51.755 23.4065 49.6927 23.5042C47.6304 23.6023 44.5169 23.508 42.5279 23.508Z" fill="white"/>
<path d="M78.5622 23.508C79.1408 23.508 80.4176 23.5047 79.9984 21.5091C79.6493 19.85 79.3321 19.4198 78.4502 19.3707C76.7073 19.2731 73.9241 19.1584 72.5325 20.2979C71.1409 21.4374 69.3351 23.4065 71.3974 23.5042C73.4602 23.6023 76.5738 23.508 78.5622 23.508Z" fill="white"/>
<path d="M60.6719 20.9537C57.8236 20.9592 54.6974 20.9664 53.3284 20.9493C52.42 20.9377 51.2832 22.2741 53.1172 23.9945C54.1017 24.9178 57.4955 25.049 60.6719 25.0507V20.9537Z" fill="#666666"/>
<path d="M49.278 26.7974C49.278 26.1019 48.7529 25.6369 48.0827 25.6369C46.5257 25.6369 44.9598 25.6557 43.3409 25.6369C41.0106 25.6105 41.4734 28.0903 41.4816 29.0649C41.486 29.5806 41.8208 29.8376 42.3878 29.8398C43.5257 29.8437 46.8219 29.8404 48.3662 29.8404C48.8389 29.8404 49.2415 29.5889 49.2415 29.039C49.241 28.0997 49.278 27.4825 49.278 26.7974Z" fill="#666666"/>
<path d="M60.6962 25.873C58.7199 25.8896 55.736 25.9696 54.4271 26.3441C53.0647 26.7335 52.0262 27.5437 52.0113 29.1929C52.0046 29.9408 53.0046 30.2177 54.8237 30.2078C55.5363 30.2039 58.5274 30.2083 60.6962 30.21V25.873Z" fill="#666666"/>
<path d="M60.6045 20.9537C63.4528 20.9592 66.5796 20.9664 67.9491 20.9493C68.857 20.9377 69.9937 22.2741 68.1598 23.9945C67.1753 24.9178 63.7815 25.049 60.605 25.0507V20.9537H60.6045Z" fill="#5B5B5B"/>
<path d="M71.999 26.7974C71.999 26.1019 72.5241 25.6369 73.1943 25.6369C74.7519 25.6369 76.3172 25.6557 77.936 25.6369C80.2669 25.6105 79.8036 28.0903 79.7959 29.0649C79.7915 29.5806 79.4567 29.8376 78.8897 29.8398C77.7513 29.8437 74.4551 29.8404 72.9108 29.8404C72.4381 29.8404 72.0354 29.5889 72.0354 29.039C72.036 28.0997 71.999 27.4825 71.999 26.7974Z" fill="#5B5B5B"/>
<path d="M43.3601 20.1992C42.6248 20.1992 42.0264 20.7977 42.0264 21.5329C42.0264 22.2681 42.6248 22.866 43.3601 22.866C44.0953 22.866 44.6937 22.2676 44.6937 21.5329C44.6937 20.7977 44.0953 20.1992 43.3601 20.1992ZM43.5332 22.54C43.4295 22.3652 43.3667 22.1639 43.3667 21.9455C43.3667 21.4457 43.6772 21.0216 44.1157 20.8473C44.2812 21.0293 44.3843 21.2687 44.3843 21.5334C44.3849 22.0387 44.0159 22.4573 43.5332 22.54Z" fill="#B2B2B2"/>
<path d="M46.5001 20.584C45.8707 20.584 45.3589 21.0964 45.3589 21.7257C45.3589 22.355 45.8713 22.8675 46.5001 22.8675C47.1299 22.8675 47.6418 22.355 47.6418 21.7257C47.6418 21.0964 47.1294 20.584 46.5001 20.584ZM46.6479 22.5878C46.5591 22.4383 46.505 22.2657 46.505 22.0787C46.505 21.6507 46.7714 21.2872 47.1465 21.1383C47.2882 21.2944 47.3765 21.499 47.3765 21.7252C47.3765 22.1587 47.061 22.5167 46.6479 22.5878Z" fill="#B2B2B2"/>
<path d="M77.7458 20.1992C78.481 20.1992 79.0795 20.7977 79.0795 21.5329C79.0795 22.2681 78.481 22.866 77.7458 22.866C77.0106 22.866 76.4121 22.2676 76.4121 21.5329C76.4121 20.7977 77.0106 20.1992 77.7458 20.1992ZM77.5731 22.54C77.6774 22.3652 77.7397 22.1639 77.7397 21.9455C77.7397 21.4457 77.4292 21.0216 76.9912 20.8473C76.8258 21.0293 76.7221 21.2687 76.7221 21.5334C76.7215 22.0387 77.0911 22.4573 77.5731 22.54Z" fill="#B2B2B2"/>
<path d="M74.6065 20.584C75.2364 20.584 75.7483 21.0964 75.7483 21.7257C75.7483 22.355 75.2358 22.8675 74.6065 22.8675C73.9772 22.8675 73.4653 22.355 73.4653 21.7257C73.4648 21.0964 73.9766 20.584 74.6065 20.584ZM74.4582 22.5878C74.547 22.4383 74.601 22.2657 74.601 22.0787C74.601 21.6507 74.3351 21.2872 73.9595 21.1383C73.8183 21.2944 73.7295 21.499 73.7295 21.7252C73.7295 22.1587 74.0456 22.5167 74.4582 22.5878Z" fill="#B2B2B2"/>
<path d="M45.8175 13.3459C45.8175 13.3459 44.9643 13.6553 44.694 13.3459C44.4237 13.0365 44.694 11.4905 44.694 11.4905C44.694 11.4905 40.8204 11.2318 40.0168 12.8043C39.4238 13.9642 40.7382 14.5307 41.4387 14.5825C42.4155 14.6542 45.3581 14.5897 45.3581 14.5897L45.8175 13.3459Z" fill="#E84C43"/>
<path d="M75.2734 13.3459C75.2734 13.3459 76.1267 13.6553 76.397 13.3459C76.6672 13.0365 76.397 11.4905 76.397 11.4905C76.397 11.4905 80.27 11.2318 81.0742 12.8043C81.6666 13.9642 80.3528 14.5307 79.6523 14.5825C78.6755 14.6542 75.7329 14.5897 75.7329 14.5897L75.2734 13.3459Z" fill="#006D8D"/>
<path d="M61.8028 18.793C61.8028 19.0798 61.2667 19.3126 60.6048 19.3126C59.9429 19.3126 59.4062 19.0798 59.4062 18.793C59.4062 18.5056 59.9429 18.2734 60.6048 18.2734C61.2667 18.2729 61.8028 18.5056 61.8028 18.793Z" fill="white"/>
<path d="M66.8491 26.3441C65.5403 25.9696 62.5563 25.8896 60.5801 25.873V27.0186H65.3218V29.2707H60.5801V30.2105C62.7494 30.2089 65.7399 30.2045 66.4531 30.2083C68.2722 30.2183 69.271 29.9414 69.265 29.1935C69.2506 27.5437 68.2115 26.734 66.8491 26.3441Z" fill="#5B5B5B"/>
<path d="M60.5806 27.0195H55.8389V29.2716H60.5806V27.0195Z" fill="#F2F2F2"/>
<path d="M65.3218 27.0195H60.5801V29.2716H65.3218V27.0195Z" fill="#B2B2B2"/>
<path d="M7.17493 34.6007C7.17493 35.1131 6.7596 35.5284 6.24665 35.5284H2.15185C1.63945 35.5284 1.22412 35.1131 1.22412 34.6007V30.1992C1.22412 29.6868 1.63945 29.2715 2.15185 29.2715H6.24665C6.7596 29.2715 7.17493 29.6868 7.17493 30.1992V34.6007Z" fill="#666666"/>
<path d="M41.3961 34.6007C41.3961 35.1131 40.9808 35.5284 40.4684 35.5284H36.373C35.8606 35.5284 35.4453 35.1131 35.4453 34.6007V30.1992C35.4453 29.6868 35.8606 29.2715 36.373 29.2715H40.4684C40.9808 29.2715 41.3961 29.6868 41.3961 30.1992V34.6007Z" fill="#5B5B5B"/>
<path d="M21.4195 5C17.6485 5.00938 13.888 5.05902 12.3552 5.15168C10.6475 5.25428 9.43686 6.22448 8.63819 7.95142C7.51301 10.3833 6.77557 13.5536 5.33765 14.713C2.2307 17.2171 0.454671 18.6953 0.188267 21.4316C-0.235333 25.7829 0.188267 31.5472 0.188267 31.5472H21.4195V5Z" fill="#006D8D"/>
<path d="M21.4194 5C25.1905 5.00938 28.951 5.05902 30.4838 5.15168C32.1914 5.25428 33.4021 6.22448 34.2008 7.95142C35.326 10.3833 36.0634 13.5536 37.5013 14.713C40.6083 17.2171 42.3843 18.6953 42.6507 21.4316C43.0743 25.7829 42.6507 31.5472 42.6507 31.5472H21.4194V5Z" fill="#006D8D"/>
<path d="M21.4195 6.3125C17.2171 6.32077 13.0749 6.3831 12.5658 6.46473C10.6464 6.7725 10.0535 8.08135 9.61717 9.17069C8.7286 11.3896 8.50799 13.1844 8.22559 14.0934H21.4195V6.3125Z" fill="#F2F2F2"/>
<path d="M21.4194 6.3125C25.6218 6.32077 29.764 6.3831 30.2731 6.46473C32.1925 6.7725 32.7855 8.08135 33.2218 9.17069C34.1103 11.3896 34.3309 13.1844 34.6133 14.0934H21.4194V6.3125Z" fill="#B2B2B2"/>
<path d="M3.36729 23.508C2.78925 23.508 1.51239 23.5047 1.93158 21.5091C2.28072 19.85 2.59786 19.4198 3.47926 19.3707C5.22275 19.2731 8.00594 19.1584 9.39753 20.2979C10.7886 21.4374 12.5944 23.4065 10.5321 23.5042C8.46979 23.6023 5.35622 23.508 3.36729 23.508Z" fill="white"/>
<path d="M39.401 23.508C39.9796 23.508 41.2565 23.5047 40.8373 21.5091C40.4881 19.85 40.171 19.4198 39.2891 19.3707C37.5461 19.2731 34.7629 19.1584 33.3714 20.2979C31.9798 21.4374 30.1739 23.4065 32.2362 23.5042C34.2991 23.6023 37.4127 23.508 39.401 23.508Z" fill="white"/>
<path d="M21.5108 20.9537C18.6625 20.9592 15.5362 20.9664 14.1673 20.9493C13.2588 20.9377 12.1221 22.2741 13.956 23.9945C14.9406 24.9178 18.3343 25.049 21.5108 25.0507V20.9537Z" fill="#666666"/>
<path d="M10.1168 26.7974C10.1168 26.1019 9.59174 25.6369 8.92159 25.6369C7.36453 25.6369 5.79865 25.6557 4.17981 25.6369C1.84946 25.6105 2.31222 28.0903 2.32049 29.0649C2.32491 29.5806 2.65971 29.8376 3.22671 29.8398C4.36459 29.8437 7.66072 29.8404 9.2051 29.8404C9.67779 29.8404 10.0804 29.5889 10.0804 29.039C10.0799 28.0997 10.1168 27.4825 10.1168 26.7974Z" fill="#666666"/>
<path d="M21.535 25.873C19.5588 25.8896 16.5748 25.9696 15.266 26.3441C13.9036 26.7335 12.865 27.5437 12.8501 29.1929C12.8435 29.9408 13.8435 30.2177 15.6625 30.2078C16.3752 30.2039 19.3663 30.2083 21.535 30.21V25.873Z" fill="#666666"/>
<path d="M21.4434 20.9537C24.2916 20.9592 27.4184 20.9664 28.7879 20.9493C29.6958 20.9377 30.8326 22.2741 28.9987 23.9945C28.0141 24.9178 24.6204 25.049 21.4439 25.0507V20.9537H21.4434Z" fill="#5B5B5B"/>
<path d="M32.8379 26.7974C32.8379 26.1019 33.363 25.6369 34.0331 25.6369C35.5907 25.6369 37.1561 25.6557 38.7749 25.6369C41.1058 25.6105 40.6425 28.0903 40.6348 29.0649C40.6304 29.5806 40.2956 29.8376 39.7286 29.8398C38.5901 29.8437 35.294 29.8404 33.7496 29.8404C33.2769 29.8404 32.8743 29.5889 32.8743 29.039C32.8749 28.0997 32.8379 27.4825 32.8379 26.7974Z" fill="#5B5B5B"/>
<path d="M4.19941 20.1992C3.46418 20.1992 2.86572 20.7977 2.86572 21.5329C2.86572 22.2681 3.46418 22.866 4.19941 22.866C4.93464 22.866 5.53308 22.2676 5.53308 21.5329C5.53308 20.7977 4.93464 20.1992 4.19941 20.1992ZM4.3726 22.54C4.2689 22.3652 4.20602 22.1639 4.20602 21.9455C4.20602 21.4457 4.51655 21.0216 4.95504 20.8473C5.12051 21.0293 5.22366 21.2687 5.22366 21.5334C5.22421 22.0387 4.85521 22.4573 4.3726 22.54Z" fill="#B2B2B2"/>
<path d="M7.33941 20.584C6.71008 20.584 6.19824 21.0964 6.19824 21.7257C6.19824 22.355 6.71063 22.8675 7.33941 22.8675C7.96929 22.8675 8.48114 22.355 8.48114 21.7257C8.48114 21.0964 7.96874 20.584 7.33941 20.584ZM7.48723 22.5878C7.39843 22.4383 7.34437 22.2657 7.34437 22.0787C7.34437 21.6507 7.61079 21.2872 7.98585 21.1383C8.1276 21.2944 8.21585 21.499 8.21585 21.7252C8.21585 22.1587 7.90035 22.5167 7.48723 22.5878Z" fill="#B2B2B2"/>
<path d="M38.5851 20.1992C39.3204 20.1992 39.9188 20.7977 39.9188 21.5329C39.9188 22.2681 39.3204 22.866 38.5851 22.866C37.8499 22.866 37.2515 22.2676 37.2515 21.5329C37.2515 20.7977 37.8499 20.1992 38.5851 20.1992ZM38.4125 22.54C38.5167 22.3652 38.5791 22.1639 38.5791 21.9455C38.5791 21.4457 38.2685 21.0216 37.8306 20.8473C37.6651 21.0293 37.5614 21.2687 37.5614 21.5334C37.5609 22.0387 37.9304 22.4573 38.4125 22.54Z" fill="#B2B2B2"/>
<path d="M35.4459 20.584C36.0758 20.584 36.5876 21.0964 36.5876 21.7257C36.5876 22.355 36.0752 22.8675 35.4459 22.8675C34.8165 22.8675 34.3047 22.355 34.3047 21.7257C34.3041 21.0964 34.816 20.584 35.4459 20.584ZM35.2975 22.5878C35.3863 22.4383 35.4404 22.2657 35.4404 22.0787C35.4404 21.6507 35.1745 21.2872 34.7989 21.1383C34.6577 21.2944 34.5689 21.499 34.5689 21.7252C34.5689 22.1587 34.8849 22.5167 35.2975 22.5878Z" fill="#B2B2B2"/>
<path d="M6.65641 13.3459C6.65641 13.3459 5.80314 13.6553 5.53288 13.3459C5.26261 13.0365 5.53288 11.4905 5.53288 11.4905C5.53288 11.4905 1.65925 11.2318 0.855624 12.8043C0.262695 13.9642 1.57707 14.5307 2.27755 14.5825C3.25437 14.6542 6.19696 14.5897 6.19696 14.5897L6.65641 13.3459Z" fill="#006D8D"/>
<path d="M36.1128 13.3459C36.1128 13.3459 36.9661 13.6553 37.2363 13.3459C37.5066 13.0365 37.2363 11.4905 37.2363 11.4905C37.2363 11.4905 41.1094 11.2318 41.9136 12.8043C42.5059 13.9642 41.1921 14.5307 40.4916 14.5825C39.5148 14.6542 36.5722 14.5897 36.5722 14.5897L36.1128 13.3459Z" fill="#006D8D"/>
<path d="M22.6417 18.793C22.6417 19.0798 22.1055 19.3126 21.4437 19.3126C20.7818 19.3126 20.2451 19.0798 20.2451 18.793C20.2451 18.5056 20.7818 18.2734 21.4437 18.2734C22.1055 18.2729 22.6417 18.5056 22.6417 18.793Z" fill="white"/>
<path d="M27.6885 26.3441C26.3796 25.9696 23.3957 25.8896 21.4194 25.873V27.0186H26.1612V29.2707H21.4194V30.2105C23.5887 30.2089 26.5793 30.2045 27.2925 30.2083C29.1115 30.2183 30.1104 29.9414 30.1043 29.1935C30.09 27.5437 29.0508 26.734 27.6885 26.3441Z" fill="#5B5B5B"/>
<path d="M21.4195 27.0195H16.6777V29.2716H21.4195V27.0195Z" fill="#F2F2F2"/>
<path d="M26.1612 27.0195H21.4194V29.2716H26.1612V27.0195Z" fill="#B2B2B2"/>
<path d="M26.3508 34.4481C26.3508 35.0444 25.8674 35.5278 25.2704 35.5278H20.505C19.9086 35.5278 19.4253 35.0444 19.4253 34.4481V29.3258C19.4253 28.7294 19.9086 28.2461 20.505 28.2461H25.2704C25.8674 28.2461 26.3508 28.7294 26.3508 29.3258V34.4481Z" fill="#666666"/>
<path d="M66.1759 34.4481C66.1759 35.0444 65.6926 35.5278 65.0963 35.5278H60.3302C59.7338 35.5278 59.2505 35.0444 59.2505 34.4481V29.3258C59.2505 28.7294 59.7338 28.2461 60.3302 28.2461H65.0963C65.6926 28.2461 66.1759 28.7294 66.1759 29.3258V34.4481Z" fill="#5B5B5B"/>
<path d="M42.9277 0C38.5391 0.0109123 34.1626 0.0686891 32.3788 0.176528C30.3914 0.295922 28.9825 1.42503 28.053 3.43481C26.7435 6.26495 25.8853 9.95458 24.2119 11.3039C20.5961 14.2181 18.5291 15.9384 18.2191 19.1228C17.7261 24.1868 18.2191 30.8953 18.2191 30.8953H42.9277V0Z" fill="#E84C43"/>
<path d="M42.9272 0C47.3159 0.0109123 51.6924 0.0686891 53.4762 0.176528C55.4635 0.295922 56.8725 1.42503 57.802 3.43481C59.1115 6.26495 59.9697 9.95458 61.6431 11.3039C65.2589 14.2181 67.3259 15.9384 67.6359 19.1228C68.1289 24.1868 67.6359 30.8953 67.6359 30.8953H42.9272V0Z" fill="#D3362D"/>
<path d="M42.9276 1.52734C38.037 1.53697 33.2163 1.60951 32.6239 1.70451C30.39 2.06269 29.7 3.58591 29.1923 4.85366C28.1582 7.43602 27.9014 9.52477 27.5728 10.5826H42.9276V1.52734Z" fill="#F2F2F2"/>
<path d="M42.9272 1.52734C47.8179 1.53697 52.6385 1.60951 53.231 1.70451C55.4648 2.06269 56.1549 3.58591 56.6626 4.85366C57.6967 7.43602 57.9535 9.52477 58.2821 10.5826H42.9272V1.52734Z" fill="#B2B2B2"/>
<path d="M21.9188 21.5389C21.246 21.5389 19.7601 21.5351 20.2479 19.2127C20.6542 17.2818 21.0233 16.7812 22.0491 16.724C24.0781 16.6104 27.3171 16.4769 28.9367 17.8031C30.5555 19.1292 32.6571 21.4208 30.257 21.5344C27.857 21.6487 24.2334 21.5389 21.9188 21.5389Z" fill="white"/>
<path d="M63.8551 21.5389C64.5285 21.5389 66.0144 21.5351 65.5266 19.2127C65.1203 17.2818 64.7512 16.7812 63.7248 16.724C61.6964 16.6104 58.4574 16.4769 56.8378 17.8031C55.2183 19.1292 53.1167 21.4208 55.5168 21.5344C57.9175 21.6487 61.5411 21.5389 63.8551 21.5389Z" fill="white"/>
<path d="M43.0346 18.5677C39.7198 18.5741 36.0815 18.5825 34.4883 18.5626C33.4311 18.5491 32.1082 20.1044 34.2425 22.1065C35.3883 23.1811 39.3379 23.3338 43.0346 23.3357V18.5677Z" fill="#666666"/>
<path d="M29.7743 25.3664C29.7743 24.557 29.1632 24.0159 28.3833 24.0159C26.5712 24.0159 24.7488 24.0377 22.8649 24.0159C20.1528 23.9851 20.6914 26.871 20.701 28.0053C20.7062 28.6055 21.0958 28.9046 21.7557 28.9072C23.0799 28.9116 26.9159 28.9078 28.7132 28.9078C29.2633 28.9078 29.7319 28.6151 29.7319 27.9751C29.7312 26.882 29.7743 26.1637 29.7743 25.3664Z" fill="#666666"/>
<path d="M43.0625 24.293C40.7625 24.3122 37.2899 24.4053 35.7666 24.8412C34.1811 25.2943 32.9724 26.2373 32.9551 28.1566C32.9474 29.027 34.1112 29.3492 36.2282 29.3377C37.0575 29.3332 40.5385 29.3383 43.0625 29.3402V24.293Z" fill="#666666"/>
<path d="M42.9556 18.5677C46.2703 18.5741 49.9093 18.5825 51.5031 18.5626C52.5597 18.5491 53.8826 20.1044 51.7483 22.1065C50.6025 23.1811 46.6529 23.3338 42.9562 23.3357V18.5677H42.9556Z" fill="#5B5B5B"/>
<path d="M56.2163 25.3664C56.2163 24.557 56.8274 24.0159 57.6073 24.0159C59.42 24.0159 61.2417 24.0377 63.1257 24.0159C65.8384 23.9851 65.2992 26.871 65.2902 28.0053C65.2851 28.6055 64.8954 28.9046 64.2356 28.9072C62.9107 28.9116 59.0747 28.9078 57.2774 28.9078C56.7273 28.9078 56.2587 28.6151 56.2587 27.9751C56.2593 26.882 56.2163 26.1637 56.2163 25.3664Z" fill="#5B5B5B"/>
<path d="M22.8866 17.6895C22.0309 17.6895 21.3345 18.3859 21.3345 19.2416C21.3345 20.0972 22.0309 20.793 22.8866 20.793C23.7422 20.793 24.4387 20.0966 24.4387 19.2416C24.4387 18.3859 23.7422 17.6895 22.8866 17.6895ZM23.0881 20.4137C22.9675 20.2102 22.8943 19.9759 22.8943 19.7217C22.8943 19.1401 23.2557 18.6465 23.766 18.4437C23.9586 18.6555 24.0786 18.9341 24.0786 19.2422C24.0792 19.8302 23.6498 20.3174 23.0881 20.4137Z" fill="#B2B2B2"/>
<path d="M26.5414 18.1367C25.809 18.1367 25.2134 18.733 25.2134 19.4654C25.2134 20.1979 25.8097 20.7942 26.5414 20.7942C27.2745 20.7942 27.8702 20.1979 27.8702 19.4654C27.8702 18.733 27.2739 18.1367 26.5414 18.1367ZM26.7135 20.4687C26.6101 20.2948 26.5472 20.0939 26.5472 19.8763C26.5472 19.3781 26.8573 18.9551 27.2938 18.7818C27.4587 18.9635 27.5614 19.2016 27.5614 19.4648C27.5614 19.9693 27.1943 20.3859 26.7135 20.4687Z" fill="#B2B2B2"/>
<path d="M62.9042 17.6895C63.7598 17.6895 64.4563 18.3859 64.4563 19.2416C64.4563 20.0972 63.7598 20.793 62.9042 20.793C62.0485 20.793 61.3521 20.0966 61.3521 19.2416C61.3521 18.3859 62.0485 17.6895 62.9042 17.6895ZM62.7032 20.4137C62.8246 20.2102 62.8971 19.9759 62.8971 19.7217C62.8971 19.1401 62.5357 18.6465 62.026 18.4437C61.8335 18.6555 61.7128 18.9341 61.7128 19.2422C61.7121 19.8302 62.1422 20.3174 62.7032 20.4137Z" fill="#B2B2B2"/>
<path d="M59.2514 18.1367C59.9845 18.1367 60.5802 18.733 60.5802 19.4654C60.5802 20.1979 59.9838 20.7942 59.2514 20.7942C58.519 20.7942 57.9233 20.1979 57.9233 19.4654C57.9227 18.733 58.5184 18.1367 59.2514 18.1367ZM59.0788 20.4687C59.1821 20.2948 59.245 20.0939 59.245 19.8763C59.245 19.3781 58.9356 18.9551 58.4985 18.7818C58.3342 18.9635 58.2308 19.2016 58.2308 19.4648C58.2308 19.9693 58.5986 20.3859 59.0788 20.4687Z" fill="#B2B2B2"/>
<path d="M25.7467 9.71296C25.7467 9.71296 24.7537 10.0731 24.4392 9.71296C24.1246 9.35285 24.4392 7.55361 24.4392 7.55361C24.4392 7.55361 19.9311 7.25255 18.9958 9.0826C18.3058 10.4325 19.8355 11.0917 20.6507 11.1521C21.7875 11.2355 25.212 11.1604 25.212 11.1604L25.7467 9.71296Z" fill="#E84C43"/>
<path d="M60.0269 9.71296C60.0269 9.71296 61.0199 10.0731 61.3344 9.71296C61.6489 9.35285 61.3344 7.55361 61.3344 7.55361C61.3344 7.55361 65.8418 7.25255 66.7777 9.0826C67.4671 10.4325 65.9381 11.0917 65.1229 11.1521C63.9861 11.2355 60.5615 11.1604 60.5615 11.1604L60.0269 9.71296Z" fill="#D3362D"/>
<path d="M44.3501 16.0519C44.3501 16.3857 43.7262 16.6566 42.9559 16.6566C42.1856 16.6566 41.561 16.3857 41.561 16.0519C41.561 15.7175 42.1856 15.4473 42.9559 15.4473C43.7262 15.4466 44.3501 15.7175 44.3501 16.0519Z" fill="white"/>
<path d="M50.2231 24.8412C48.6998 24.4053 45.2272 24.3122 42.9272 24.293V25.6262H48.4456V28.2471H42.9272V29.3409C45.4518 29.3389 48.9322 29.3338 49.7622 29.3383C51.8792 29.3499 53.0417 29.0276 53.0346 28.1572C53.0179 26.2373 51.8086 25.295 50.2231 24.8412Z" fill="#5B5B5B"/>
<path d="M42.9276 25.627H37.4092V28.2478H42.9276V25.627Z" fill="#F2F2F2"/>
<path d="M48.4456 25.627H42.9272V28.2478H48.4456V25.627Z" fill="#B2B2B2"/>
</svg>
