<svg width="1466" height="235" viewBox="0 0 1466 235" fill="none" xmlns="http://www.w3.org/2000/svg">
<rect width="1466" height="235" fill="white"/>
<path d="M0 100.001C491.5 235.001 935 -21.5 1466 100.001V235.001H0V100.001Z" fill="#F9F1ED"/>
<circle cx="1310.13" cy="116.623" r="1.87487" transform="rotate(-180 1310.13 116.623)" fill="#F37435"/>
<circle cx="1303.25" cy="116.623" r="1.87487" transform="rotate(-180 1303.25 116.623)" fill="#F37435"/>
<circle cx="1296.38" cy="116.623" r="1.87487" transform="rotate(-180 1296.38 116.623)" fill="#F37435"/>
<circle cx="1289.5" cy="116.623" r="1.87487" transform="rotate(-180 1289.5 116.623)" fill="#F37435"/>
<circle cx="1282.63" cy="116.623" r="1.87487" transform="rotate(-180 1282.63 116.623)" fill="#F37435"/>
<circle cx="1275.75" cy="116.623" r="1.87487" transform="rotate(-180 1275.75 116.623)" fill="#F37435"/>
<circle cx="1268.88" cy="116.623" r="1.87487" transform="rotate(-180 1268.88 116.623)" fill="#F37435"/>
<circle cx="1310.13" cy="110.373" r="1.87487" transform="rotate(-180 1310.13 110.373)" fill="#F37435"/>
<circle cx="1303.25" cy="110.373" r="1.87487" transform="rotate(-180 1303.25 110.373)" fill="#F37435"/>
<circle cx="1296.38" cy="110.373" r="1.87487" transform="rotate(-180 1296.38 110.373)" fill="#F37435"/>
<circle cx="1289.5" cy="110.373" r="1.87487" transform="rotate(-180 1289.5 110.373)" fill="#F37435"/>
<circle cx="1282.63" cy="110.373" r="1.87487" transform="rotate(-180 1282.63 110.373)" fill="#F37435"/>
<circle cx="1275.75" cy="110.373" r="1.87487" transform="rotate(-180 1275.75 110.373)" fill="#F37435"/>
<circle cx="1268.88" cy="110.373" r="1.87487" transform="rotate(-180 1268.88 110.373)" fill="#F37435"/>
<circle cx="1310.13" cy="104.123" r="1.87487" transform="rotate(-180 1310.13 104.123)" fill="#F37435"/>
<circle cx="1303.25" cy="104.123" r="1.87487" transform="rotate(-180 1303.25 104.123)" fill="#F37435"/>
<circle cx="1296.38" cy="104.123" r="1.87487" transform="rotate(-180 1296.38 104.123)" fill="#F37435"/>
<circle cx="1289.5" cy="104.123" r="1.87487" transform="rotate(-180 1289.5 104.123)" fill="#F37435"/>
<circle cx="1282.63" cy="104.123" r="1.87487" transform="rotate(-180 1282.63 104.123)" fill="#F37435"/>
<circle cx="1275.75" cy="104.123" r="1.87487" transform="rotate(-180 1275.75 104.123)" fill="#F37435"/>
<circle cx="1268.88" cy="104.123" r="1.87487" transform="rotate(-180 1268.88 104.123)" fill="#F37435"/>
<circle cx="1310.13" cy="97.8751" r="1.87487" transform="rotate(-180 1310.13 97.8751)" fill="#F37435"/>
<circle cx="1303.25" cy="97.8751" r="1.87487" transform="rotate(-180 1303.25 97.8751)" fill="#F37435"/>
<circle cx="1296.38" cy="97.8751" r="1.87487" transform="rotate(-180 1296.38 97.8751)" fill="#F37435"/>
<circle cx="1289.5" cy="97.8751" r="1.87487" transform="rotate(-180 1289.5 97.8751)" fill="#F37435"/>
<circle cx="1282.63" cy="97.8751" r="1.87487" transform="rotate(-180 1282.63 97.8751)" fill="#F37435"/>
<circle cx="1275.75" cy="97.8751" r="1.87487" transform="rotate(-180 1275.75 97.8751)" fill="#F37435"/>
<circle cx="1268.88" cy="97.8751" r="1.87487" transform="rotate(-180 1268.88 97.8751)" fill="#F37435"/>
<circle cx="1310.13" cy="91.6251" r="1.87487" transform="rotate(-180 1310.13 91.6251)" fill="#F37435"/>
<circle cx="1303.25" cy="91.6251" r="1.87487" transform="rotate(-180 1303.25 91.6251)" fill="#F37435"/>
<circle cx="1296.38" cy="91.6251" r="1.87487" transform="rotate(-180 1296.38 91.6251)" fill="#F37435"/>
<circle cx="1289.5" cy="91.6251" r="1.87487" transform="rotate(-180 1289.5 91.6251)" fill="#F37435"/>
<circle cx="1282.63" cy="91.6251" r="1.87487" transform="rotate(-180 1282.63 91.6251)" fill="#F37435"/>
<circle cx="1275.75" cy="91.6251" r="1.87487" transform="rotate(-180 1275.75 91.6251)" fill="#F37435"/>
<circle cx="1268.88" cy="91.6251" r="1.87487" transform="rotate(-180 1268.88 91.6251)" fill="#F37435"/>
<circle cx="1310.13" cy="85.3751" r="1.87487" transform="rotate(-180 1310.13 85.3751)" fill="#F37435"/>
<circle cx="1303.25" cy="85.3751" r="1.87487" transform="rotate(-180 1303.25 85.3751)" fill="#F37435"/>
<circle cx="1296.38" cy="85.3751" r="1.87487" transform="rotate(-180 1296.38 85.3751)" fill="#F37435"/>
<circle cx="1289.5" cy="85.3751" r="1.87487" transform="rotate(-180 1289.5 85.3751)" fill="#F37435"/>
<circle cx="1282.63" cy="85.3751" r="1.87487" transform="rotate(-180 1282.63 85.3751)" fill="#F37435"/>
<circle cx="1275.75" cy="85.3751" r="1.87487" transform="rotate(-180 1275.75 85.3751)" fill="#F37435"/>
<circle cx="1268.88" cy="85.3751" r="1.87487" transform="rotate(-180 1268.88 85.3751)" fill="#F37435"/>
<circle cx="1310.13" cy="79.1251" r="1.87487" transform="rotate(-180 1310.13 79.1251)" fill="#F37435"/>
<circle cx="1303.25" cy="79.1251" r="1.87487" transform="rotate(-180 1303.25 79.1251)" fill="#F37435"/>
<circle cx="1296.38" cy="79.1251" r="1.87487" transform="rotate(-180 1296.38 79.1251)" fill="#F37435"/>
<circle cx="1289.5" cy="79.1251" r="1.87487" transform="rotate(-180 1289.5 79.1251)" fill="#F37435"/>
<circle cx="1282.63" cy="79.1251" r="1.87487" transform="rotate(-180 1282.63 79.1251)" fill="#F37435"/>
<circle cx="1275.75" cy="79.1251" r="1.87487" transform="rotate(-180 1275.75 79.1251)" fill="#F37435"/>
<circle cx="1268.88" cy="79.1251" r="1.87487" transform="rotate(-180 1268.88 79.1251)" fill="#F37435"/>
<circle cx="1310.13" cy="72.8751" r="1.87487" transform="rotate(-180 1310.13 72.8751)" fill="#F37435"/>
<circle cx="1303.25" cy="72.8751" r="1.87487" transform="rotate(-180 1303.25 72.8751)" fill="#F37435"/>
<circle cx="1296.38" cy="72.8751" r="1.87487" transform="rotate(-180 1296.38 72.8751)" fill="#F37435"/>
<circle cx="1289.5" cy="72.8751" r="1.87487" transform="rotate(-180 1289.5 72.8751)" fill="#F37435"/>
<circle cx="1282.63" cy="72.8751" r="1.87487" transform="rotate(-180 1282.63 72.8751)" fill="#F37435"/>
<circle cx="1275.75" cy="72.8751" r="1.87487" transform="rotate(-180 1275.75 72.8751)" fill="#F37435"/>
<circle cx="1268.88" cy="72.8751" r="1.87487" transform="rotate(-180 1268.88 72.8751)" fill="#F37435"/>
<circle cx="1261.99" cy="116.623" r="1.87487" transform="rotate(-180 1261.99 116.623)" fill="#F37435"/>
<circle cx="1255.11" cy="116.623" r="1.87487" transform="rotate(-180 1255.11 116.623)" fill="#F37435"/>
<circle cx="1248.24" cy="116.623" r="1.87487" transform="rotate(-180 1248.24 116.623)" fill="#F37435"/>
<circle cx="1241.36" cy="116.623" r="1.87487" transform="rotate(-180 1241.36 116.623)" fill="#F37435"/>
<circle cx="1234.49" cy="116.623" r="1.87487" transform="rotate(-180 1234.49 116.623)" fill="#F37435"/>
<circle cx="1227.61" cy="116.623" r="1.87487" transform="rotate(-180 1227.61 116.623)" fill="#F37435"/>
<circle cx="1220.74" cy="116.623" r="1.87487" transform="rotate(-180 1220.74 116.623)" fill="#F37435"/>
<circle cx="1261.99" cy="110.373" r="1.87487" transform="rotate(-180 1261.99 110.373)" fill="#F37435"/>
<circle cx="1255.11" cy="110.373" r="1.87487" transform="rotate(-180 1255.11 110.373)" fill="#F37435"/>
<circle cx="1248.24" cy="110.373" r="1.87487" transform="rotate(-180 1248.24 110.373)" fill="#F37435"/>
<circle cx="1241.36" cy="110.373" r="1.87487" transform="rotate(-180 1241.36 110.373)" fill="#F37435"/>
<circle cx="1234.49" cy="110.373" r="1.87487" transform="rotate(-180 1234.49 110.373)" fill="#F37435"/>
<circle cx="1227.61" cy="110.373" r="1.87487" transform="rotate(-180 1227.61 110.373)" fill="#F37435"/>
<circle cx="1220.74" cy="110.373" r="1.87487" transform="rotate(-180 1220.74 110.373)" fill="#F37435"/>
<circle cx="1261.99" cy="104.123" r="1.87487" transform="rotate(-180 1261.99 104.123)" fill="#F37435"/>
<circle cx="1255.11" cy="104.123" r="1.87487" transform="rotate(-180 1255.11 104.123)" fill="#F37435"/>
<circle cx="1248.24" cy="104.123" r="1.87487" transform="rotate(-180 1248.24 104.123)" fill="#F37435"/>
<circle cx="1241.36" cy="104.123" r="1.87487" transform="rotate(-180 1241.36 104.123)" fill="#F37435"/>
<circle cx="1234.49" cy="104.123" r="1.87487" transform="rotate(-180 1234.49 104.123)" fill="#F37435"/>
<circle cx="1227.61" cy="104.123" r="1.87487" transform="rotate(-180 1227.61 104.123)" fill="#F37435"/>
<circle cx="1220.74" cy="104.123" r="1.87487" transform="rotate(-180 1220.74 104.123)" fill="#F37435"/>
<circle cx="1261.99" cy="97.8751" r="1.87487" transform="rotate(-180 1261.99 97.8751)" fill="#F37435"/>
<circle cx="1255.11" cy="97.8751" r="1.87487" transform="rotate(-180 1255.11 97.8751)" fill="#F37435"/>
<circle cx="1248.24" cy="97.8751" r="1.87487" transform="rotate(-180 1248.24 97.8751)" fill="#F37435"/>
<circle cx="1241.36" cy="97.8751" r="1.87487" transform="rotate(-180 1241.36 97.8751)" fill="#F37435"/>
<circle cx="1234.49" cy="97.8751" r="1.87487" transform="rotate(-180 1234.49 97.8751)" fill="#F37435"/>
<circle cx="1227.61" cy="97.8751" r="1.87487" transform="rotate(-180 1227.61 97.8751)" fill="#F37435"/>
<circle cx="1220.74" cy="97.8751" r="1.87487" transform="rotate(-180 1220.74 97.8751)" fill="#F37435"/>
<circle cx="1261.99" cy="91.6251" r="1.87487" transform="rotate(-180 1261.99 91.6251)" fill="#F37435"/>
<circle cx="1255.11" cy="91.6251" r="1.87487" transform="rotate(-180 1255.11 91.6251)" fill="#F37435"/>
<circle cx="1248.24" cy="91.6251" r="1.87487" transform="rotate(-180 1248.24 91.6251)" fill="#F37435"/>
<circle cx="1241.36" cy="91.6251" r="1.87487" transform="rotate(-180 1241.36 91.6251)" fill="#F37435"/>
<circle cx="1234.49" cy="91.6251" r="1.87487" transform="rotate(-180 1234.49 91.6251)" fill="#F37435"/>
<circle cx="1227.61" cy="91.6251" r="1.87487" transform="rotate(-180 1227.61 91.6251)" fill="#F37435"/>
<circle cx="1220.74" cy="91.6251" r="1.87487" transform="rotate(-180 1220.74 91.6251)" fill="#F37435"/>
<circle cx="1261.99" cy="85.3751" r="1.87487" transform="rotate(-180 1261.99 85.3751)" fill="#F37435"/>
<circle cx="1255.11" cy="85.3751" r="1.87487" transform="rotate(-180 1255.11 85.3751)" fill="#F37435"/>
<circle cx="1248.24" cy="85.3751" r="1.87487" transform="rotate(-180 1248.24 85.3751)" fill="#F37435"/>
<circle cx="1241.36" cy="85.3751" r="1.87487" transform="rotate(-180 1241.36 85.3751)" fill="#F37435"/>
<circle cx="1234.49" cy="85.3751" r="1.87487" transform="rotate(-180 1234.49 85.3751)" fill="#F37435"/>
<circle cx="1227.61" cy="85.3751" r="1.87487" transform="rotate(-180 1227.61 85.3751)" fill="#F37435"/>
<circle cx="1220.74" cy="85.3751" r="1.87487" transform="rotate(-180 1220.74 85.3751)" fill="#F37435"/>
<circle cx="1261.99" cy="79.1251" r="1.87487" transform="rotate(-180 1261.99 79.1251)" fill="#F37435"/>
<circle cx="1255.11" cy="79.1251" r="1.87487" transform="rotate(-180 1255.11 79.1251)" fill="#F37435"/>
<circle cx="1248.24" cy="79.1251" r="1.87487" transform="rotate(-180 1248.24 79.1251)" fill="#F37435"/>
<circle cx="1241.36" cy="79.1251" r="1.87487" transform="rotate(-180 1241.36 79.1251)" fill="#F37435"/>
<circle cx="1234.49" cy="79.1251" r="1.87487" transform="rotate(-180 1234.49 79.1251)" fill="#F37435"/>
<circle cx="1227.61" cy="79.1251" r="1.87487" transform="rotate(-180 1227.61 79.1251)" fill="#F37435"/>
<circle cx="1220.74" cy="79.1251" r="1.87487" transform="rotate(-180 1220.74 79.1251)" fill="#F37435"/>
<circle cx="1261.99" cy="72.8751" r="1.87487" transform="rotate(-180 1261.99 72.8751)" fill="#F37435"/>
<circle cx="1255.11" cy="72.8751" r="1.87487" transform="rotate(-180 1255.11 72.8751)" fill="#F37435"/>
<circle cx="1248.24" cy="72.8751" r="1.87487" transform="rotate(-180 1248.24 72.8751)" fill="#F37435"/>
<circle cx="1241.36" cy="72.8751" r="1.87487" transform="rotate(-180 1241.36 72.8751)" fill="#F37435"/>
<circle cx="1234.49" cy="72.8751" r="1.87487" transform="rotate(-180 1234.49 72.8751)" fill="#F37435"/>
<circle cx="1227.61" cy="72.8751" r="1.87487" transform="rotate(-180 1227.61 72.8751)" fill="#F37435"/>
<circle cx="1220.74" cy="72.8751" r="1.87487" transform="rotate(-180 1220.74 72.8751)" fill="#F37435"/>
<circle cx="1214.26" cy="116.623" r="1.87487" transform="rotate(-180 1214.26 116.623)" fill="#F37435"/>
<circle cx="1207.39" cy="116.623" r="1.87487" transform="rotate(-180 1207.39 116.623)" fill="#F37435"/>
<circle cx="1200.51" cy="116.623" r="1.87487" transform="rotate(-180 1200.51 116.623)" fill="#F37435"/>
<circle cx="1193.64" cy="116.623" r="1.87487" transform="rotate(-180 1193.64 116.623)" fill="#F37435"/>
<circle cx="1186.76" cy="116.623" r="1.87487" transform="rotate(-180 1186.76 116.623)" fill="#F37435"/>
<circle cx="1179.89" cy="116.623" r="1.87487" transform="rotate(-180 1179.89 116.623)" fill="#F37435"/>
<circle cx="1173.01" cy="116.623" r="1.87487" transform="rotate(-180 1173.01 116.623)" fill="#F37435"/>
<circle cx="1214.26" cy="110.373" r="1.87487" transform="rotate(-180 1214.26 110.373)" fill="#F37435"/>
<circle cx="1207.39" cy="110.373" r="1.87487" transform="rotate(-180 1207.39 110.373)" fill="#F37435"/>
<circle cx="1200.51" cy="110.373" r="1.87487" transform="rotate(-180 1200.51 110.373)" fill="#F37435"/>
<circle cx="1193.64" cy="110.373" r="1.87487" transform="rotate(-180 1193.64 110.373)" fill="#F37435"/>
<circle cx="1186.76" cy="110.373" r="1.87487" transform="rotate(-180 1186.76 110.373)" fill="#F37435"/>
<circle cx="1179.89" cy="110.373" r="1.87487" transform="rotate(-180 1179.89 110.373)" fill="#F37435"/>
<circle cx="1173.01" cy="110.373" r="1.87487" transform="rotate(-180 1173.01 110.373)" fill="#F37435"/>
<circle cx="1214.26" cy="104.123" r="1.87487" transform="rotate(-180 1214.26 104.123)" fill="#F37435"/>
<circle cx="1207.39" cy="104.123" r="1.87487" transform="rotate(-180 1207.39 104.123)" fill="#F37435"/>
<circle cx="1200.51" cy="104.123" r="1.87487" transform="rotate(-180 1200.51 104.123)" fill="#F37435"/>
<circle cx="1193.64" cy="104.123" r="1.87487" transform="rotate(-180 1193.64 104.123)" fill="#F37435"/>
<circle cx="1186.76" cy="104.123" r="1.87487" transform="rotate(-180 1186.76 104.123)" fill="#F37435"/>
<circle cx="1179.89" cy="104.123" r="1.87487" transform="rotate(-180 1179.89 104.123)" fill="#F37435"/>
<circle cx="1173.01" cy="104.123" r="1.87487" transform="rotate(-180 1173.01 104.123)" fill="#F37435"/>
<circle cx="1214.26" cy="97.8751" r="1.87487" transform="rotate(-180 1214.26 97.8751)" fill="#F37435"/>
<circle cx="1207.39" cy="97.8751" r="1.87487" transform="rotate(-180 1207.39 97.8751)" fill="#F37435"/>
<circle cx="1200.51" cy="97.8751" r="1.87487" transform="rotate(-180 1200.51 97.8751)" fill="#F37435"/>
<circle cx="1193.64" cy="97.8751" r="1.87487" transform="rotate(-180 1193.64 97.8751)" fill="#F37435"/>
<circle cx="1186.76" cy="97.8751" r="1.87487" transform="rotate(-180 1186.76 97.8751)" fill="#F37435"/>
<circle cx="1179.89" cy="97.8751" r="1.87487" transform="rotate(-180 1179.89 97.8751)" fill="#F37435"/>
<circle cx="1173.01" cy="97.8751" r="1.87487" transform="rotate(-180 1173.01 97.8751)" fill="#F37435"/>
<circle cx="1214.26" cy="91.6251" r="1.87487" transform="rotate(-180 1214.26 91.6251)" fill="#F37435"/>
<circle cx="1207.39" cy="91.6251" r="1.87487" transform="rotate(-180 1207.39 91.6251)" fill="#F37435"/>
<circle cx="1200.51" cy="91.6251" r="1.87487" transform="rotate(-180 1200.51 91.6251)" fill="#F37435"/>
<circle cx="1193.64" cy="91.6251" r="1.87487" transform="rotate(-180 1193.64 91.6251)" fill="#F37435"/>
<circle cx="1186.76" cy="91.6251" r="1.87487" transform="rotate(-180 1186.76 91.6251)" fill="#F37435"/>
<circle cx="1179.89" cy="91.6251" r="1.87487" transform="rotate(-180 1179.89 91.6251)" fill="#F37435"/>
<circle cx="1173.01" cy="91.6251" r="1.87487" transform="rotate(-180 1173.01 91.6251)" fill="#F37435"/>
<circle cx="1214.26" cy="85.3751" r="1.87487" transform="rotate(-180 1214.26 85.3751)" fill="#F37435"/>
<circle cx="1207.39" cy="85.3751" r="1.87487" transform="rotate(-180 1207.39 85.3751)" fill="#F37435"/>
<circle cx="1200.51" cy="85.3751" r="1.87487" transform="rotate(-180 1200.51 85.3751)" fill="#F37435"/>
<circle cx="1193.64" cy="85.3751" r="1.87487" transform="rotate(-180 1193.64 85.3751)" fill="#F37435"/>
<circle cx="1186.76" cy="85.3751" r="1.87487" transform="rotate(-180 1186.76 85.3751)" fill="#F37435"/>
<circle cx="1179.89" cy="85.3751" r="1.87487" transform="rotate(-180 1179.89 85.3751)" fill="#F37435"/>
<circle cx="1173.01" cy="85.3751" r="1.87487" transform="rotate(-180 1173.01 85.3751)" fill="#F37435"/>
<circle cx="1214.26" cy="79.1251" r="1.87487" transform="rotate(-180 1214.26 79.1251)" fill="#F37435"/>
<circle cx="1207.39" cy="79.1251" r="1.87487" transform="rotate(-180 1207.39 79.1251)" fill="#F37435"/>
<circle cx="1200.51" cy="79.1251" r="1.87487" transform="rotate(-180 1200.51 79.1251)" fill="#F37435"/>
<circle cx="1193.64" cy="79.1251" r="1.87487" transform="rotate(-180 1193.64 79.1251)" fill="#F37435"/>
<circle cx="1186.76" cy="79.1251" r="1.87487" transform="rotate(-180 1186.76 79.1251)" fill="#F37435"/>
<circle cx="1179.89" cy="79.1251" r="1.87487" transform="rotate(-180 1179.89 79.1251)" fill="#F37435"/>
<circle cx="1173.01" cy="79.1251" r="1.87487" transform="rotate(-180 1173.01 79.1251)" fill="#F37435"/>
<circle cx="1214.26" cy="72.8751" r="1.87487" transform="rotate(-180 1214.26 72.8751)" fill="#F37435"/>
<circle cx="1207.39" cy="72.8751" r="1.87487" transform="rotate(-180 1207.39 72.8751)" fill="#F37435"/>
<circle cx="1200.51" cy="72.8751" r="1.87487" transform="rotate(-180 1200.51 72.8751)" fill="#F37435"/>
<circle cx="1193.64" cy="72.8751" r="1.87487" transform="rotate(-180 1193.64 72.8751)" fill="#F37435"/>
<circle cx="1186.76" cy="72.8751" r="1.87487" transform="rotate(-180 1186.76 72.8751)" fill="#F37435"/>
<circle cx="1179.89" cy="72.8751" r="1.87487" transform="rotate(-180 1179.89 72.8751)" fill="#F37435"/>
<circle cx="1173.01" cy="72.8751" r="1.87487" transform="rotate(-180 1173.01 72.8751)" fill="#F37435"/>
<circle cx="1166.12" cy="116.623" r="1.87487" transform="rotate(-180 1166.12 116.623)" fill="#F37435"/>
<circle cx="1159.25" cy="116.623" r="1.87487" transform="rotate(-180 1159.25 116.623)" fill="#F37435"/>
<circle cx="1152.37" cy="116.623" r="1.87487" transform="rotate(-180 1152.37 116.623)" fill="#F37435"/>
<circle cx="1145.5" cy="116.623" r="1.87487" transform="rotate(-180 1145.5 116.623)" fill="#F37435"/>
<circle cx="1138.62" cy="116.623" r="1.87487" transform="rotate(-180 1138.62 116.623)" fill="#F37435"/>
<circle cx="1131.75" cy="116.623" r="1.87487" transform="rotate(-180 1131.75 116.623)" fill="#F37435"/>
<circle cx="1124.87" cy="116.623" r="1.87487" transform="rotate(-180 1124.87 116.623)" fill="#F37435"/>
<circle cx="1166.12" cy="110.373" r="1.87487" transform="rotate(-180 1166.12 110.373)" fill="#F37435"/>
<circle cx="1159.25" cy="110.373" r="1.87487" transform="rotate(-180 1159.25 110.373)" fill="#F37435"/>
<circle cx="1152.37" cy="110.373" r="1.87487" transform="rotate(-180 1152.37 110.373)" fill="#F37435"/>
<circle cx="1145.5" cy="110.373" r="1.87487" transform="rotate(-180 1145.5 110.373)" fill="#F37435"/>
<circle cx="1138.62" cy="110.373" r="1.87487" transform="rotate(-180 1138.62 110.373)" fill="#F37435"/>
<circle cx="1131.75" cy="110.373" r="1.87487" transform="rotate(-180 1131.75 110.373)" fill="#F37435"/>
<circle cx="1124.88" cy="110.373" r="1.87487" transform="rotate(-180 1124.88 110.373)" fill="#F37435"/>
<circle cx="1166.12" cy="104.123" r="1.87487" transform="rotate(-180 1166.12 104.123)" fill="#F37435"/>
<circle cx="1159.25" cy="104.123" r="1.87487" transform="rotate(-180 1159.25 104.123)" fill="#F37435"/>
<circle cx="1152.37" cy="104.123" r="1.87487" transform="rotate(-180 1152.37 104.123)" fill="#F37435"/>
<circle cx="1145.5" cy="104.123" r="1.87487" transform="rotate(-180 1145.5 104.123)" fill="#F37435"/>
<circle cx="1138.62" cy="104.123" r="1.87487" transform="rotate(-180 1138.62 104.123)" fill="#F37435"/>
<circle cx="1131.75" cy="104.123" r="1.87487" transform="rotate(-180 1131.75 104.123)" fill="#F37435"/>
<circle cx="1124.88" cy="104.123" r="1.87487" transform="rotate(-180 1124.88 104.123)" fill="#F37435"/>
<circle cx="1166.12" cy="97.8751" r="1.87487" transform="rotate(-180 1166.12 97.8751)" fill="#F37435"/>
<circle cx="1159.25" cy="97.8751" r="1.87487" transform="rotate(-180 1159.25 97.8751)" fill="#F37435"/>
<circle cx="1152.37" cy="97.8751" r="1.87487" transform="rotate(-180 1152.37 97.8751)" fill="#F37435"/>
<circle cx="1145.5" cy="97.8751" r="1.87487" transform="rotate(-180 1145.5 97.8751)" fill="#F37435"/>
<circle cx="1138.62" cy="97.8751" r="1.87487" transform="rotate(-180 1138.62 97.8751)" fill="#F37435"/>
<circle cx="1131.75" cy="97.8751" r="1.87487" transform="rotate(-180 1131.75 97.8751)" fill="#F37435"/>
<circle cx="1124.88" cy="97.8751" r="1.87487" transform="rotate(-180 1124.88 97.8751)" fill="#F37435"/>
<circle cx="1166.12" cy="91.6251" r="1.87487" transform="rotate(-180 1166.12 91.6251)" fill="#F37435"/>
<circle cx="1159.25" cy="91.6251" r="1.87487" transform="rotate(-180 1159.25 91.6251)" fill="#F37435"/>
<circle cx="1152.37" cy="91.6251" r="1.87487" transform="rotate(-180 1152.37 91.6251)" fill="#F37435"/>
<circle cx="1145.5" cy="91.6251" r="1.87487" transform="rotate(-180 1145.5 91.6251)" fill="#F37435"/>
<circle cx="1138.62" cy="91.6251" r="1.87487" transform="rotate(-180 1138.62 91.6251)" fill="#F37435"/>
<circle cx="1131.75" cy="91.6251" r="1.87487" transform="rotate(-180 1131.75 91.6251)" fill="#F37435"/>
<circle cx="1124.88" cy="91.6251" r="1.87487" transform="rotate(-180 1124.88 91.6251)" fill="#F37435"/>
<circle cx="1166.12" cy="85.3751" r="1.87487" transform="rotate(-180 1166.12 85.3751)" fill="#F37435"/>
<circle cx="1159.25" cy="85.3751" r="1.87487" transform="rotate(-180 1159.25 85.3751)" fill="#F37435"/>
<circle cx="1152.37" cy="85.3751" r="1.87487" transform="rotate(-180 1152.37 85.3751)" fill="#F37435"/>
<circle cx="1145.5" cy="85.3751" r="1.87487" transform="rotate(-180 1145.5 85.3751)" fill="#F37435"/>
<circle cx="1138.62" cy="85.3751" r="1.87487" transform="rotate(-180 1138.62 85.3751)" fill="#F37435"/>
<circle cx="1131.75" cy="85.3751" r="1.87487" transform="rotate(-180 1131.75 85.3751)" fill="#F37435"/>
<circle cx="1124.87" cy="85.3751" r="1.87487" transform="rotate(-180 1124.87 85.3751)" fill="#F37435"/>
<circle cx="1166.12" cy="79.1251" r="1.87487" transform="rotate(-180 1166.12 79.1251)" fill="#F37435"/>
<circle cx="1159.25" cy="79.1251" r="1.87487" transform="rotate(-180 1159.25 79.1251)" fill="#F37435"/>
<circle cx="1152.37" cy="79.1251" r="1.87487" transform="rotate(-180 1152.37 79.1251)" fill="#F37435"/>
<circle cx="1145.5" cy="79.1251" r="1.87487" transform="rotate(-180 1145.5 79.1251)" fill="#F37435"/>
<circle cx="1138.62" cy="79.1251" r="1.87487" transform="rotate(-180 1138.62 79.1251)" fill="#F37435"/>
<circle cx="1131.75" cy="79.1251" r="1.87487" transform="rotate(-180 1131.75 79.1251)" fill="#F37435"/>
<circle cx="1124.88" cy="79.1251" r="1.87487" transform="rotate(-180 1124.88 79.1251)" fill="#F37435"/>
<circle cx="1166.12" cy="72.8751" r="1.87487" transform="rotate(-180 1166.12 72.8751)" fill="#F37435"/>
<circle cx="1159.25" cy="72.8751" r="1.87487" transform="rotate(-180 1159.25 72.8751)" fill="#F37435"/>
<circle cx="1152.37" cy="72.8751" r="1.87487" transform="rotate(-180 1152.37 72.8751)" fill="#F37435"/>
<circle cx="1145.5" cy="72.8751" r="1.87487" transform="rotate(-180 1145.5 72.8751)" fill="#F37435"/>
<circle cx="1138.62" cy="72.8751" r="1.87487" transform="rotate(-180 1138.62 72.8751)" fill="#F37435"/>
<circle cx="1131.75" cy="72.8751" r="1.87487" transform="rotate(-180 1131.75 72.8751)" fill="#F37435"/>
<circle cx="1124.88" cy="72.8751" r="1.87487" transform="rotate(-180 1124.88 72.8751)" fill="#F37435"/>
</svg>
