<svg width="88" height="152" viewBox="0 0 88 152" fill="none" xmlns="http://www.w3.org/2000/svg">
<path d="M47.8793 151.905L67.144 151.733C67.144 151.733 62.8608 106.974 63.005 106.191C63.1884 105.187 64.2851 100.643 65.7453 94.7063C66.2034 92.8485 66.697 90.856 67.2102 88.7902C68.5961 83.2045 70.1247 77.1006 71.4558 71.7885C73.4547 63.8304 75.0343 59.7246 75.0343 59.7246L58.7076 59.8704C58.7076 59.8704 45.6404 98.2479 45.1786 106.158C44.7763 113.057 47.8793 151.905 47.8793 151.905Z" fill="#37474F"/>
<path d="M48.7029 148.625C51.6443 148.538 50.7991 148.521 53.7412 148.467C55.1811 148.44 64.6432 148.274 65.9902 148.483C66.0198 148.488 66.0205 148.538 65.9906 148.543C64.6472 148.777 55.184 148.779 53.7438 148.779C50.8009 148.777 51.6458 148.746 48.7033 148.711C48.6482 148.71 48.6474 148.627 48.7029 148.625Z" fill="#263238"/>
<path d="M59.355 103.485C59.9618 100.706 60.881 97.981 61.6782 95.2527C63.2981 89.7086 64.9317 84.1683 66.5679 78.6287C67.3861 75.8591 71.2072 65.4907 71.5814 64.1139C71.7338 63.5537 71.8225 63.8599 71.6273 64.5711C71.2338 66.0053 64.7302 86.5514 63.0899 92.179C62.2676 95.0005 61.4393 97.8202 60.6159 100.642C60.2224 101.99 59.8375 103.346 59.6112 104.734C59.3753 106.181 59.3753 107.643 59.4803 109.103C59.6915 112.035 60.0594 114.962 60.3581 117.887C60.6573 120.818 60.9564 123.749 61.2555 126.68C61.8512 132.514 62.4469 138.347 63.0274 144.181C63.101 144.921 63.1727 145.66 63.2367 146.4C63.2582 146.648 62.8814 146.633 62.8533 146.395C62.1666 140.627 61.6279 134.84 61.0311 129.063C60.4373 123.315 59.8434 117.567 59.2518 111.818C59.1032 110.375 58.9357 108.93 58.9216 107.477C58.9087 106.13 59.0677 104.8 59.355 103.485Z" fill="#263238"/>
<path d="M60.562 59.8542C61.7741 68.5738 64.0633 82.846 65.7457 94.7063C69.2987 80.2855 75.0351 59.7246 75.0351 59.7246L60.562 59.8542Z" fill="#263238"/>
<path d="M58.8188 59.8689C58.8188 59.8689 59.2463 65.5661 61.0899 71.7094C61.2378 72.2174 61.3979 72.7169 61.5698 73.1962C61.5698 73.1962 63.0204 73.8554 65.8801 75.5653C65.8801 75.5653 66.1249 81.8205 66.376 88.7972C66.6551 96.5962 66.9502 105.295 66.9221 107.141C66.8208 114.047 68.1944 152.003 68.1944 152.003L87.4555 151.909C87.4555 151.909 83.5908 109.542 83.5926 107.012C83.593 102.947 82.5695 86.6327 81.7028 73.5348C81.7028 73.5348 82.5791 70.5215 82.51 69.5416C82.087 63.561 80.6497 59.6738 80.6497 59.6738L58.8188 59.8689Z" fill="#37474F"/>
<path d="M68.8234 148.587C71.7652 148.512 70.9199 148.492 73.8624 148.45C75.3026 148.43 84.7651 148.303 86.1114 148.519C86.1414 148.523 86.1414 148.573 86.1118 148.578C84.7673 148.806 75.3041 148.769 73.8639 148.762C70.921 148.747 71.7663 148.72 68.8237 148.672C68.7686 148.671 68.7683 148.588 68.8234 148.587Z" fill="#263238"/>
<path d="M79.0557 62.4676C79.5064 73.1622 79.9597 81.7814 80.5365 92.47C81.1156 103.195 81.8621 113.915 82.8605 124.61C83.4184 130.586 83.969 138.993 84.6712 144.953C84.676 144.993 84.6146 145.008 84.6087 144.968C83.1104 134.368 82.2104 121.254 81.4243 110.582C80.6386 99.9105 80.0747 89.2193 79.6125 78.5299C79.3511 72.4834 79.1577 68.5101 78.9214 62.4625C78.9185 62.3756 79.0523 62.3822 79.0557 62.4676Z" fill="#263238"/>
<path d="M78.3793 69.4236C77.9045 69.307 77.3972 69.2731 76.9132 69.2013C76.522 69.1431 76.1326 69.0784 75.7455 68.997C75.0171 68.8439 74.2779 68.6109 73.6808 68.1537C72.7131 67.4134 71.5761 63.6381 71.4393 63.3978C71.2045 62.9855 71.1387 63.3503 71.1387 63.3889C71.1409 63.8284 72.1843 67.1344 72.5804 67.7502C73.3054 68.8763 74.5874 69.3209 75.866 69.4697C76.2325 69.5124 76.6018 69.5348 76.9709 69.5525C77.4271 69.5742 77.9123 69.6103 78.3663 69.5503C78.4355 69.5414 78.4543 69.442 78.3793 69.4236Z" fill="#263238"/>
<path d="M61.6325 73.2886C63.5168 73.9148 65.3382 74.8122 67.0805 75.7538C67.1489 75.7906 67.1049 75.8963 67.031 75.8654C65.1962 75.1008 63.326 74.3705 61.536 73.5062C61.3955 73.4392 61.4879 73.2408 61.6325 73.2886Z" fill="#263238"/>
<path d="M60.9676 60.8319C60.9721 60.769 61.0826 60.7539 61.083 60.822C61.0882 62.982 61.2442 64.8807 61.4457 66.8975C61.5393 67.834 62.3442 73.0055 63.973 72.6131C64.2455 72.5476 64.3827 72.2781 64.4219 71.8677C64.4689 71.374 64.277 70.7711 64.1904 70.2815C63.9993 69.1993 63.8436 68.113 63.7401 67.0186C63.5467 64.976 63.519 62.9319 63.7497 60.8915C63.7574 60.8245 63.8543 60.8286 63.8551 60.8967C63.8787 63.7267 63.9793 66.5504 64.43 69.3491C64.6467 70.6942 65.347 72.7158 63.9338 72.9359C62.4944 73.1601 61.5308 69.7721 61.3463 68.8444C60.8312 66.2563 60.7861 63.4572 60.9676 60.8319Z" fill="#263238"/>
<path d="M63.931 72.7529C64.0818 73.0993 64.2038 73.46 64.3081 73.823C64.3891 74.1046 64.4985 74.409 64.469 74.7038C64.463 74.7613 64.3872 74.7671 64.3562 74.7289C64.1624 74.4889 64.0785 74.1594 63.969 73.8738C63.8419 73.5428 63.7076 73.2145 63.5897 72.8802C63.5113 72.6583 63.8378 72.539 63.931 72.7529Z" fill="#263238"/>
<path d="M67.1111 38.2331C66.0624 42.8793 60.752 57.136 58.0309 58.4151C55.1997 59.7462 44.3258 61.4815 41.8163 61.1192C40.2559 60.894 39.7309 50.0868 41.4147 50.1696C43.0986 50.2521 52.8946 48.4299 54.0394 47.8873C55.1775 47.3477 60.4432 38.6299 63.3872 35.5198C68.4636 30.1572 67.6761 35.7307 67.1111 38.2331Z" fill="#EB9481"/>
<path d="M43.6858 61.1431C42.3735 61.4251 35.2934 63.0234 33.5403 62.8563C31.787 62.6891 26.7767 61.844 26.7693 60.4945C26.7616 59.1447 28.2484 59.2757 28.2484 59.2757C28.2484 59.2757 26.1896 58.5851 26.306 57.2261C26.4225 55.867 28.7287 56.1461 28.7287 56.1461C28.7287 56.1461 26.6662 55.2832 26.8799 53.936C27.0936 52.5887 29.365 53.2557 29.365 53.2557C29.365 53.2557 27.4423 52.5548 28.0879 51.5183C28.864 50.2715 32.2621 51.9626 34.2115 52.0027C34.6541 52.0119 43.1973 51.5506 43.1973 51.5506L43.6858 61.1431Z" fill="#EB9481"/>
<path d="M29.1692 53.2018C31.671 54.4394 32.9803 54.5502 35.7161 54.2719C35.7697 54.2664 35.7897 54.3444 35.7342 54.3551C33.0801 54.8705 31.4173 54.9676 29.1023 53.3193C28.9895 53.2386 29.0501 53.1429 29.1692 53.2018Z" fill="#263238"/>
<path d="M28.5313 56.0438C31.2424 57.1032 32.6619 57.2357 35.5489 57.154C35.59 57.1529 35.5963 57.2213 35.5549 57.2261C32.7295 57.5423 31.0682 57.6012 28.4991 56.1884C28.3827 56.1244 28.4074 55.9955 28.5313 56.0438Z" fill="#263238"/>
<path d="M28.3948 59.2677C31.094 60.1047 32.644 60.3171 35.4364 59.8795C35.5023 59.8692 35.5237 59.9638 35.4586 59.9803C32.6547 60.7022 30.7183 60.4519 28.3778 59.352C28.2184 59.2769 28.225 59.215 28.3948 59.2677Z" fill="#263238"/>
<path d="M33.7415 58.2868L34.9795 58.2852L34.9167 10.1643L33.6787 10.1659L33.7415 58.2868Z" fill="#F37435"/>
<path d="M33.1465 6.12832L35.4405 6.12538L34.972 0.00195312L33.5998 0.00342544L33.1465 6.12832Z" fill="#F37435"/>
<path d="M30.2116 65.1049C33.5331 65.1008 35.2676 62.5267 35.2647 59.9864L35.2543 51.7891L33.4492 51.7913L33.4595 59.9886C33.461 61.2199 32.7784 63.3041 30.2097 63.3074C27.935 63.3104 27.1966 61.0579 27.1951 59.9665L27.1914 56.8884L25.3862 56.8906L25.3899 59.9687C25.391 60.8087 25.6721 62.0953 26.4571 63.1856C27.3618 64.4434 28.6601 65.1067 30.2116 65.1049Z" fill="#F37435"/>
<g opacity="0.1">
<path d="M30.2116 65.1049C33.5331 65.1008 35.2676 62.5267 35.2647 59.9864L35.2543 51.7891L33.4492 51.7913L33.4595 59.9886C33.461 61.2199 32.7784 63.3041 30.2097 63.3074C27.935 63.3104 27.1966 61.0579 27.1951 59.9665L27.1914 56.8884L25.3862 56.8906L25.3899 59.9687C25.391 60.8087 25.6721 62.0953 26.4571 63.1856C27.3618 64.4434 28.6601 65.1067 30.2116 65.1049Z" fill="black"/>
</g>
<path d="M0 25.8645C0 25.8645 5.18105 23.5285 8.39573 23.6099C11.6037 23.699 17.4493 25.8428 17.4493 25.8428C17.4493 25.8428 22.7557 23.7704 26.0424 23.6809C29.3292 23.5838 34.3184 25.8218 34.3184 25.8218C34.3184 25.8218 39.302 23.5712 42.5891 23.6603C45.8763 23.7417 51.1812 25.8008 51.1812 25.8008C51.1812 25.8008 57.0211 23.6423 60.2354 23.5451C63.4497 23.4557 68.6367 25.7791 68.6367 25.7791C63.2878 15.1932 50.6472 4.53838 34.2917 4.55862C17.9359 4.57887 5.31527 15.265 0 25.8645Z" fill="#F37435"/>
<path opacity="0.2" d="M0 25.8649C1.12443 24.543 2.2681 23.2388 3.4443 21.9641C4.61199 20.6827 5.80261 19.4219 7.02799 18.1969C9.47838 15.7523 12.0075 13.3637 14.821 11.3586C16.2194 10.35 17.6885 9.43451 19.2895 8.80542C20.8895 8.14062 22.5319 7.58294 24.18 7.04293C25.8309 6.51139 27.5033 6.04279 29.1906 5.63199C30.8748 5.20793 32.5761 4.84792 34.2917 4.55859C30.8323 4.95762 27.4187 5.72033 24.0746 6.70354C22.4007 7.19238 20.7523 7.7692 19.132 8.41707C17.4877 9.04947 15.9717 9.97341 14.5529 10.9872C13.1357 12.012 11.7975 13.134 10.5089 14.3053C9.22103 15.4777 7.96903 16.6876 6.77619 17.9532C4.37683 20.4703 2.10429 23.1044 0 25.8649Z" fill="black"/>
<path opacity="0.2" d="M17.4556 25.8431C17.7639 24.7068 18.1052 23.5815 18.4979 22.4743C18.8765 21.3629 19.2922 20.2645 19.7562 19.1878C20.6935 17.0502 21.7359 14.9137 23.1809 13.1023C24.6411 11.2887 26.4743 9.78826 28.3557 8.38946C29.2989 7.68822 30.274 7.02784 31.2668 6.39396C32.2533 5.74941 33.2653 5.14351 34.2914 4.55859C32.1512 5.56315 30.1031 6.76244 28.1504 8.10418C26.207 9.45439 24.3553 10.9743 22.823 12.8144C22.4495 13.2786 22.0938 13.7708 21.7943 14.2824C21.4767 14.7853 21.189 15.3047 20.9069 15.8263C20.3604 16.8783 19.8523 17.9499 19.4264 19.0535C18.5737 21.2584 17.8856 23.5259 17.4556 25.8431Z" fill="black"/>
<path opacity="0.2" d="M34.3179 25.8218C34.4107 24.0497 34.4532 22.2777 34.4876 20.5056C34.5231 18.7336 34.5176 16.9619 34.5346 15.1898C34.5142 13.4178 34.5139 11.6461 34.475 9.87403L34.4074 7.21631C34.3678 6.33028 34.3445 5.44462 34.2909 4.55859C34.2399 5.44462 34.2184 6.33065 34.1814 7.21668L34.1204 9.87476C34.0861 11.6465 34.0901 13.4185 34.0742 15.1906C34.0957 16.9626 34.0946 18.7343 34.1349 20.5064C34.1741 22.2781 34.2206 24.0497 34.3179 25.8218Z" fill="black"/>
<path opacity="0.2" d="M68.6364 25.7787C66.525 23.0235 64.2459 20.3952 61.841 17.8836C60.6452 16.621 59.3898 15.4144 58.099 14.2453C56.8074 13.0773 55.4663 11.959 54.0465 10.9375C52.6247 9.9274 51.1065 9.00714 49.4607 8.37878C47.839 7.73497 46.1891 7.1622 44.5137 6.67777C41.167 5.70303 37.7516 4.94878 34.291 4.55859C36.0074 4.84351 37.7094 5.19946 39.3948 5.6191C41.0831 6.02549 42.7566 6.49004 44.4087 7.01753C46.0578 7.55313 47.7018 8.10676 49.3036 8.76787C50.9061 9.39291 52.3777 10.3047 53.7784 11.31C56.597 13.3081 59.1321 15.6901 61.5884 18.1288C62.8171 19.3509 64.0107 20.6087 65.1817 21.8871C66.3616 23.1582 67.5086 24.4598 68.6364 25.7787Z" fill="black"/>
<path opacity="0.2" d="M51.1809 25.8008C50.745 23.4847 50.051 21.219 49.1928 19.0163C48.7642 17.9138 48.2536 16.8434 47.7045 15.7928C47.4209 15.2719 47.1321 14.7533 46.8134 14.2512C46.5127 13.7402 46.1552 13.2492 45.781 12.7857C44.2439 10.9496 42.3885 9.43414 40.4413 8.08909C38.4857 6.75176 36.4343 5.558 34.2915 4.55859C35.3191 5.14094 36.3326 5.74426 37.3206 6.38623C38.3148 7.01753 39.2917 7.6757 40.2365 8.37437C42.1215 9.76838 43.9585 11.264 45.4234 13.0743C46.8729 14.8821 47.9204 17.016 48.8633 19.1514C49.3299 20.2266 49.7485 21.3239 50.1297 22.4345C50.5257 23.541 50.8696 24.6656 51.1809 25.8008Z" fill="black"/>
<path opacity="0.1" d="M0.000488281 25.8646C0.000488281 25.8646 5.18154 23.5279 8.39658 23.6103C11.6035 23.6998 17.4483 25.8447 17.4483 25.8447C17.4483 25.8447 22.7569 23.7716 26.0422 23.6814C29.0213 23.5949 33.3981 25.4229 34.1924 25.7674C32.8598 25.1218 28.443 22.4917 25.6536 22.2178C22.7702 21.9344 17.1754 21.906 16.5276 21.687C15.8823 21.4647 10.5452 21.2416 9.88116 18.4259C9.2596 15.7892 18.7628 5.31516 33.3268 4.61503C33.6341 4.59883 33.9099 4.58079 34.1576 4.56055C17.8654 4.63895 5.29949 15.2941 0.000488281 25.8646Z" fill="black"/>
<path d="M44.8508 50.0732C44.8508 50.0732 41.8084 48.3498 40.3043 47.886C38.7997 47.4225 32.5549 47.749 32.5493 49.0955C32.5419 50.8345 36.1841 51.3531 38.0014 51.3748C38.0014 51.3748 37.9803 55.3971 40.5135 56.3325C43.0468 57.2678 44.8508 50.0732 44.8508 50.0732Z" fill="#EB9481"/>
<path d="M32.7045 49.5746C33.8467 51.1652 36.2343 51.0408 37.9954 51.1932C38.1293 51.2046 38.167 51.3162 38.1381 51.4163C38.2424 53.1029 38.8828 55.4514 40.4129 56.3791C40.4576 56.4059 40.4251 56.4733 40.3767 56.452C38.5996 55.6793 37.7813 53.4228 37.7861 51.5683C35.9773 51.4402 33.5775 51.4605 32.6886 49.585C32.6835 49.5743 32.6971 49.5643 32.7045 49.5746Z" fill="#263238"/>
<path d="M45.1936 49.0481L44.9873 61.8571C44.9873 61.8571 56.117 60.1134 58.9716 58.2346C61.8265 56.3557 66.6211 42.7234 67.6557 37.0288C68.6903 31.3342 66.657 31.1984 63.0156 35.6649C59.3746 40.1315 54.6413 47.2636 53.9362 47.5128C53.2311 47.762 45.1936 49.0481 45.1936 49.0481Z" fill="#006D8D"/>
<path d="M48.3363 54.8931C48.3455 53.9298 48.3566 50.0757 48.2856 49.1187C48.2845 49.1032 48.2594 49.0999 48.2575 49.1165C48.1455 50.043 48.0227 53.8459 48.0116 54.811C47.9891 56.7348 47.9262 58.6695 48.1163 60.5873C48.1196 60.6212 48.1758 60.6297 48.1791 60.5921C48.3596 58.6993 48.3178 56.7926 48.3363 54.8931Z" fill="#263238"/>
<path opacity="0.1" d="M48.3472 61.2645C51.8684 60.5983 57.1345 59.4468 58.9729 58.235C61.8274 56.3551 66.6217 42.7231 67.6578 37.0282C68.1584 34.2703 67.9381 32.8159 67.1671 32.5527L48.3472 61.2645Z" fill="black"/>
<path d="M57.4366 62.2411L81.797 62.6232C81.797 62.6232 81.9771 60.6417 81.6706 59.431C80.213 53.679 75.3377 38.0493 71.5141 33.9902C69.9182 32.2961 66.7261 32.4298 65.1424 33.8322C63.3276 35.4394 57.6681 54.6081 56.8676 59.6725C56.6331 61.1541 57.4366 62.2411 57.4366 62.2411Z" fill="#006D8D"/>
<path d="M73.8821 35.8856C77.9713 40.8756 86.81 52.3012 84.5896 55.2023C80.9386 59.9718 71.5892 64.5253 68.6386 65.6056C67.3651 66.072 62.1416 56.9707 63.317 56.1244C64.7276 55.1088 73.9002 50.8572 73.918 50.4011C73.9379 49.9005 71.7811 43.5875 70.8904 38.5555C69.7844 32.3106 72.176 33.8036 73.8821 35.8856Z" fill="#EB9481"/>
<path d="M64.7194 55.3867C64.7194 55.3867 60.394 57.2287 57.6393 58.0356C56.1022 58.4858 53.5364 59.4918 52.5592 60.3366C51.0975 61.6003 45.7955 67.8154 47.2816 69.1277C48.6268 70.3156 52.5007 64.4001 52.5007 64.4001C52.5007 64.4001 48.0614 70.0251 49.9453 71.1589C51.8289 72.2927 55.3135 65.03 55.3135 65.03C55.3135 65.03 50.8827 70.9112 53.011 71.7744C54.6195 72.4267 58.1477 66.0257 58.1477 66.0257C58.1477 66.0257 54.3743 71.107 55.9994 71.8487C57.7953 72.6685 61.4241 66.9636 61.4241 66.9636C65.8738 68.157 69.0519 65.7588 70.8019 64.6541C71.2257 64.3869 64.7194 55.3867 64.7194 55.3867Z" fill="#EB9481"/>
<path d="M53.647 62.6878C51.5882 65.0609 50.084 67.92 49.6761 69.1734C49.6262 69.3262 49.5867 69.4631 49.5929 69.4528C50.4408 67.9925 53.1888 63.3923 53.674 62.7051C53.6862 62.6881 53.6599 62.6727 53.647 62.6878Z" fill="#263238"/>
<path d="M56.4386 64.0628C54.6212 65.6354 53.3348 68.3696 52.7769 69.2844C52.7336 69.3547 52.7861 69.3547 52.832 69.2855C53.4265 68.3936 55.8255 64.9356 56.4604 64.0764C56.47 64.0636 56.4508 64.0521 56.4386 64.0628Z" fill="#263238"/>
<path d="M58.7115 65.3537C57.0399 66.9885 56.3599 68.7605 56.1565 69.2608C56.1258 69.3366 56.1842 69.3248 56.229 69.2538C57.1057 67.8653 57.6233 66.9888 58.7555 65.3909C58.7733 65.3659 58.7367 65.3294 58.7115 65.3537Z" fill="#263238"/>
<path d="M63.1211 55.5693L69.3837 66.9846C69.3837 66.9846 84.3012 57.8659 85.0574 54.6259C85.8135 51.3858 76.3706 37.9261 73.589 35.2323C70.8069 32.5385 70.0326 33.7599 70.3077 37.0106C70.5828 40.2617 73.779 50.2506 73.7283 50.4438C73.6777 50.6375 63.1211 55.5693 63.1211 55.5693Z" fill="#006D8D"/>
<path d="M62.9469 55.4769C62.9139 55.4147 73.0287 50.6334 73.6658 50.2955C73.1196 48.8057 72.6852 47.27 72.2614 45.7427C72.1246 45.2495 71.9967 44.754 71.8665 44.2589C71.7582 44.034 71.651 43.8083 71.5578 43.5761C71.3962 43.1745 71.259 42.7684 71.1363 42.3536C71.1307 42.3352 71.1566 42.3256 71.1644 42.3433C71.3337 42.7401 71.5038 43.1366 71.6691 43.5352C71.6746 43.5485 71.6794 43.5617 71.685 43.5753C71.6724 43.5264 71.6584 43.4782 71.6462 43.4292C71.5511 43.0581 71.4594 42.6867 71.3759 42.3131C71.3352 42.1309 71.2938 41.9487 71.255 41.7661C71.2294 41.6454 71.2084 41.5268 71.1703 41.4098C71.1196 41.2533 71.1684 41.3343 71.1333 41.126C71.1296 41.1042 71.1644 41.0972 71.171 41.1175C71.2768 41.4352 71.2091 41.1414 71.2849 41.4731C71.3052 41.5633 71.3407 41.6524 71.367 41.7411C71.4199 41.9203 71.4709 42.1003 71.5234 42.28C71.6377 42.6698 71.7441 43.0611 71.8525 43.4524C72.0614 44.2055 72.2755 44.9568 72.4936 45.7074C72.9392 47.2391 73.4313 48.759 73.8532 50.2977C73.864 50.3371 73.8466 50.3661 73.8226 50.3867C73.8185 50.4059 73.8081 50.4243 73.7845 50.4375C73.1581 50.7887 63.7285 55.3297 63.1706 55.616C63.1876 55.6448 63.2611 55.7879 63.2804 55.831C63.3188 55.9179 63.3595 56.0037 63.402 56.0887C63.419 56.1229 63.3706 56.1557 63.3506 56.1211C63.3026 56.036 63.256 55.9503 63.2112 55.863C63.1898 55.8203 63.0452 55.6628 62.9469 55.4769Z" fill="#263238"/>
<path d="M68.9653 59.8652C68.5213 59.0756 66.722 55.9287 66.2151 55.1814C66.2069 55.1693 66.1848 55.1785 66.191 55.1928C66.5346 56.0001 68.2188 59.1573 68.6621 59.9491C69.5462 61.5279 70.4026 63.1339 71.4571 64.6089C71.4756 64.6347 71.5256 64.6159 71.5108 64.5835C70.7698 62.9569 69.8409 61.4219 68.9653 59.8652Z" fill="#263238"/>
<path d="M68.6379 65.6042C68.6523 65.5946 69.3663 66.9949 69.3833 66.9835C70.7574 66.0643 80.9738 58.8447 81.4374 58.6194C81.4741 58.6017 81.514 58.6444 81.4829 58.6706C78.2368 61.4325 69.8245 66.8561 69.353 67.1517C69.3101 67.1786 68.5861 65.6384 68.6379 65.6042Z" fill="#263238"/>
<path d="M65.5441 37.139C66.7876 37.4515 69.8455 35.692 70.7622 33.9298C70.8243 33.8087 70.4519 29.7073 70.4298 28.7513C70.4264 28.5551 64.4419 30.346 64.4419 30.346C64.4419 30.346 65.0805 32.336 65.1086 34.0027C65.1093 34.1419 65.0986 34.2718 65.0764 34.3959C65.0749 34.4139 65.0697 34.436 65.069 34.461C64.9644 35.209 64.2138 36.8044 65.5441 37.139Z" fill="#EB9481"/>
<path d="M65.1233 20.3103C63.8458 22.1335 63.0194 28.3232 64.041 30.0916C65.5223 32.6554 68.8941 33.9412 71.3208 31.9531C73.6736 30.026 74.6072 21.9406 73.3774 20.2367C71.5667 17.7266 67.0106 17.6172 65.1233 20.3103Z" fill="#EB9481"/>
<path opacity="0.3" d="M71.3219 31.9533C68.896 33.9396 65.5234 32.6552 64.0421 30.0892C63.6291 29.3732 63.5186 27.928 63.6173 26.3437L65.6284 24.4277C65.6284 24.4277 65.7338 26.4081 66.3945 27.1145C67.3005 28.0867 69.336 28.8476 70.358 27.8614L71.0749 28.0072C71.0749 28.0072 72.2903 29.2904 73.2066 28.3219C72.7633 29.9184 72.1269 31.2955 71.3219 31.9533Z" fill="#263238"/>
<path d="M63.8193 25.4712C64.6501 25.9012 65.3027 25.2544 65.6455 24.7538C65.9879 24.2532 66.5048 20.8699 67.1086 20.1385C67.7124 19.4067 68.7282 19.1439 69.4093 19.5105C70.0907 19.8772 70.8284 21.026 71.3753 21.0897C71.9221 21.1534 72.296 20.0244 72.6694 20.1032C73.4914 20.2758 73.931 22.4767 73.8889 23.4047C73.8889 23.4047 74.7279 19.5683 70.8657 18.3896C67.0986 17.2401 65.3049 19.6048 64.7259 20.6866C63.6163 22.7591 63.8193 25.4712 63.8193 25.4712Z" fill="#263238"/>
<path d="M65.2065 25.4543C65.2065 25.4543 64.4467 23.1514 63.4365 23.3656C62.4263 23.5795 62.5957 26.6377 63.499 27.3206C64.4023 28.003 65.0534 27.1829 65.0534 27.1829L65.2065 25.4543Z" fill="#EB9481"/>
<path d="M63.5069 24.2413C63.491 24.2351 63.481 24.2568 63.4932 24.2667C64.1196 24.7688 64.296 25.54 64.3518 26.302C64.2194 25.9755 63.9739 25.7447 63.5439 25.8901C63.5213 25.8978 63.5306 25.9321 63.5516 25.9339C63.8626 25.9593 64.0582 26.073 64.185 26.3653C64.2749 26.5722 64.3071 26.8096 64.3496 27.0301C64.3636 27.1037 64.4894 27.1041 64.4871 27.0239C64.4871 27.018 64.4868 27.0117 64.4864 27.0058C64.7792 26.1054 64.4557 24.6256 63.5069 24.2413Z" fill="#263238"/>
<path d="M69.552 25.5728C69.5508 25.5566 69.5165 25.5883 69.5146 25.6052C69.4702 26.0234 69.3486 26.4953 68.9507 26.5814C68.9385 26.584 68.9367 26.6054 68.9511 26.6054C69.4218 26.6043 69.5771 25.9767 69.552 25.5728Z" fill="#263238"/>
<path d="M69.2383 25.0869C68.5724 24.9437 68.3331 26.2803 68.9503 26.4132C69.5578 26.5438 69.7966 25.2069 69.2383 25.0869Z" fill="#263238"/>
<path d="M71.8981 26.0404C71.904 26.0253 71.9269 26.0658 71.9236 26.0828C71.8363 26.4943 71.8064 26.9806 72.1576 27.1849C72.1687 27.1911 72.1636 27.2117 72.1503 27.2073C71.7025 27.0615 71.7491 26.4163 71.8981 26.0404Z" fill="#263238"/>
<path d="M72.3465 25.6736C73.0246 25.7417 72.8379 27.0864 72.21 27.0235C71.5918 26.9616 71.7782 25.6166 72.3465 25.6736Z" fill="#263238"/>
<path d="M68.8179 24.3822C69.009 24.3689 69.1828 24.3247 69.3703 24.292C69.5818 24.2548 69.7545 24.2474 69.9164 24.0928C70.0033 24.01 70.0048 23.8341 69.9319 23.7428C69.7622 23.5296 69.4919 23.5105 69.2353 23.5447C68.9569 23.5819 68.7517 23.6813 68.5598 23.8845C68.3734 24.0818 68.5661 24.3998 68.8179 24.3822Z" fill="#263238"/>
<path d="M72.9864 25.0902C72.8056 25.0269 72.6495 24.9385 72.4776 24.8579C72.2831 24.7666 72.1189 24.714 72.0039 24.5226C71.9422 24.4199 71.9873 24.2498 72.0819 24.1806C72.3019 24.0197 72.5678 24.0727 72.8063 24.1729C73.0651 24.2818 73.2363 24.4316 73.3676 24.6783C73.4948 24.9175 73.2245 25.1734 72.9864 25.0902Z" fill="#263238"/>
<path d="M68.0758 29.1754C68.1527 29.2936 68.2207 29.4482 68.3675 29.4946C68.508 29.5388 68.6907 29.5126 68.8338 29.4913C68.8478 29.4894 68.8582 29.506 68.8467 29.5163C68.7036 29.6496 68.4562 29.6974 68.2728 29.6208C68.0935 29.5461 68.038 29.365 68.0318 29.185C68.031 29.16 68.0643 29.1581 68.0758 29.1754Z" fill="#263238"/>
<path d="M68.788 28.0424C68.9374 28.4506 69.2321 28.7215 69.5826 28.8754C69.739 28.945 69.9099 28.9895 70.0818 29.0123C70.1151 29.019 70.1491 29.023 70.1809 29.023C70.212 29.0263 70.2397 29.0289 70.2745 29.0296C70.3244 29.0333 70.3595 28.9998 70.378 28.9564L70.3787 28.9534C70.3817 28.9383 70.3843 28.9262 70.3843 28.9104C70.3843 28.9104 70.3843 28.9104 70.385 28.9074L70.3924 28.8713C70.473 28.5573 70.5518 28.0703 70.5518 28.0703C70.6546 28.1543 71.1852 28.5526 71.2133 28.3854C71.4425 27.0014 71.6977 25.462 71.6322 24.0363C71.6326 23.9892 71.5608 23.984 71.5546 24.0297C71.2809 25.3515 71.2432 26.712 70.9899 28.0438C70.8176 27.9301 70.5399 27.7284 70.3732 27.6941C70.3255 27.6971 70.2382 28.6383 70.1905 28.7764C70.1905 28.7764 70.1894 28.7823 70.1842 28.7907C69.6359 28.7381 69.2706 28.487 68.8346 28.014C68.8095 27.9838 68.7706 28.0041 68.788 28.0424Z" fill="#263238"/>
<path d="M69.7624 28.8424C69.7624 28.8424 69.4085 29.092 69.0332 29.1016C68.8949 29.1056 68.7555 29.0795 68.6279 28.9967C68.3654 28.8281 68.4449 28.5634 68.571 28.3562C68.6745 28.1854 68.8124 28.0547 68.8124 28.0547C68.8124 28.0547 69.1038 28.5818 69.7624 28.8424Z" fill="#263238"/>
<path d="M69.0332 29.1028C68.8949 29.1069 68.7555 29.0807 68.6279 28.9979C68.3654 28.8293 68.4449 28.5647 68.571 28.3574C68.869 28.4892 69.1053 28.7966 69.0332 29.1028Z" fill="#FF9ABB"/>
<path d="M65.0911 33.6082L66.122 37.0179L70.7211 32.7773L71.8115 34.3882C71.8115 34.3882 67.1954 41.056 67.1877 40.742L65.9408 37.6915L63.7607 39.6329L64.2381 34.4622L65.0911 33.6082Z" fill="#EBEBEB"/>
<path d="M63.8518 37.0645C63.9594 36.2135 64.0437 35.3532 64.1908 34.508C64.196 34.4779 64.2445 34.4672 64.2496 34.5033C64.3724 35.3389 63.9435 38.5911 63.9002 39.3748C63.9032 39.3722 63.9069 39.3689 63.9098 39.3663C64.0011 39.282 65.9246 37.6634 65.9409 37.6921C66.2215 38.1814 67.1374 40.4036 67.1973 40.6042C67.9276 39.5448 70.7137 35.7014 71.5623 34.709C71.5867 34.6807 71.6318 34.7079 71.6119 34.7418C70.9556 35.8671 67.2632 41.0463 67.2121 41.0279C67.1752 41.0529 66.0356 38.3153 65.9102 37.8037C65.5796 38.1615 63.6258 40.0009 63.627 39.8732C63.6366 39.0136 63.7442 37.9167 63.8518 37.0645Z" fill="#263238"/>
</svg>
